G04*
G04 #@! TF.GenerationSoftware,Altium Limited,Altium Designer,21.0.8 (223)*
G04*
G04 Layer_Color=8388736*
%FSLAX25Y25*%
%MOIN*%
G70*
G04*
G04 #@! TF.SameCoordinates,B676E1CA-0217-40F3-8002-BB03906CADE6*
G04*
G04*
G04 #@! TF.FilePolarity,Negative*
G04*
G01*
G75*
%ADD60R,0.03150X0.07480*%
%ADD61R,0.06693X0.09055*%
%ADD62R,0.09055X0.06693*%
%ADD63R,0.07480X0.03150*%
%ADD64R,0.03543X0.03543*%
%ADD65R,0.04331X0.06496*%
%ADD66R,0.03543X0.04134*%
%ADD67C,0.04331*%
%ADD68R,0.06102X0.03740*%
%ADD69R,0.04528X0.03740*%
%ADD70R,0.15158X0.18898*%
%ADD71R,0.05512X0.11496*%
%ADD72R,0.03465X0.04252*%
%ADD73R,0.04095X0.02520*%
%ADD74R,0.11496X0.05512*%
%ADD75R,0.04252X0.03465*%
%ADD76C,0.01575*%
%ADD77R,0.04409X0.06181*%
%ADD78R,0.06280X0.12008*%
%ADD79R,0.06280X0.03150*%
G04:AMPARAMS|DCode=80|XSize=240.16mil|YSize=240.16mil|CornerRadius=13.78mil|HoleSize=0mil|Usage=FLASHONLY|Rotation=0.000|XOffset=0mil|YOffset=0mil|HoleType=Round|Shape=RoundedRectangle|*
%AMROUNDEDRECTD80*
21,1,0.24016,0.21260,0,0,0.0*
21,1,0.21260,0.24016,0,0,0.0*
1,1,0.02756,0.10630,-0.10630*
1,1,0.02756,-0.10630,-0.10630*
1,1,0.02756,-0.10630,0.10630*
1,1,0.02756,0.10630,0.10630*
%
%ADD80ROUNDEDRECTD80*%
%ADD81R,0.02756X0.04724*%
G04:AMPARAMS|DCode=82|XSize=318.9mil|YSize=240.16mil|CornerRadius=13.78mil|HoleSize=0mil|Usage=FLASHONLY|Rotation=180.000|XOffset=0mil|YOffset=0mil|HoleType=Round|Shape=RoundedRectangle|*
%AMROUNDEDRECTD82*
21,1,0.31890,0.21260,0,0,180.0*
21,1,0.29134,0.24016,0,0,180.0*
1,1,0.02756,-0.14567,0.10630*
1,1,0.02756,0.14567,0.10630*
1,1,0.02756,0.14567,-0.10630*
1,1,0.02756,-0.14567,-0.10630*
%
%ADD82ROUNDEDRECTD82*%
%ADD83R,0.04921X0.02756*%
%ADD84R,0.03937X0.07874*%
%ADD85R,0.01339X0.03937*%
%ADD86R,0.03937X0.01339*%
%ADD87R,0.02520X0.04095*%
%ADD88R,0.01575X0.03937*%
%ADD89R,0.03937X0.01575*%
%ADD90R,0.17126X0.17126*%
%ADD91R,0.04134X0.02165*%
%ADD92R,0.04134X0.03543*%
%ADD93R,0.36221X0.20472*%
%ADD94R,0.01181X0.03740*%
%ADD95R,0.03740X0.01181*%
%ADD96R,0.07874X0.12992*%
%ADD97R,0.07874X0.03937*%
%ADD98R,0.02953X0.03150*%
%ADD99R,0.06181X0.04409*%
%ADD100R,0.03937X0.04134*%
%ADD101R,0.04095X0.03543*%
%ADD102R,0.05512X0.06693*%
%ADD103O,0.06299X0.04331*%
%ADD104O,0.04331X0.06299*%
%ADD105C,0.03740*%
%ADD106C,0.24016*%
%ADD107C,0.02362*%
%ADD108C,0.02756*%
G36*
X91007Y107418D02*
X91044Y107407D01*
X91078Y107389D01*
X91108Y107364D01*
X91133Y107334D01*
X91151Y107300D01*
X91163Y107263D01*
X91166Y107224D01*
X91166Y102232D01*
X91166Y102232D01*
X91164Y102212D01*
X91163Y102193D01*
X91154Y102164D01*
X91151Y102156D01*
X91133Y102122D01*
X91108Y102092D01*
X91078Y102067D01*
X91044Y102049D01*
X91035Y102046D01*
X91007Y102038D01*
X90988Y102036D01*
X90968Y102034D01*
X90949Y102036D01*
X90930Y102038D01*
X90901Y102046D01*
X90893Y102049D01*
X90859Y102067D01*
X90829Y102092D01*
X89000Y103920D01*
X87172Y102092D01*
X87172Y102092D01*
X87142Y102067D01*
X87107Y102049D01*
X87070Y102037D01*
X87057Y102036D01*
X87032Y102033D01*
X87005Y102036D01*
X86993Y102037D01*
X86967Y102045D01*
X86956Y102049D01*
X86956Y102049D01*
D01*
X86955Y102049D01*
X86922Y102067D01*
X86899Y102085D01*
X86892Y102092D01*
X86874Y102114D01*
X86867Y102121D01*
X86867Y102121D01*
X86867Y102121D01*
X86849Y102156D01*
X86838Y102193D01*
X86836Y102206D01*
X86834Y102231D01*
X86834Y102231D01*
X86834Y107224D01*
Y107224D01*
D01*
X86838Y107263D01*
X86849Y107300D01*
X86867Y107334D01*
X86892Y107364D01*
X86922Y107389D01*
X86956Y107407D01*
X86993Y107418D01*
X87032Y107422D01*
X87032D01*
D01*
X90969D01*
X91007Y107418D01*
D02*
G37*
G36*
X84007D02*
X84044Y107407D01*
X84078Y107389D01*
X84108Y107364D01*
X84133Y107334D01*
X84151Y107300D01*
X84162Y107263D01*
X84166Y107224D01*
X84166Y102232D01*
X84166Y102232D01*
X84164Y102212D01*
X84162Y102193D01*
X84154Y102164D01*
X84151Y102156D01*
X84133Y102122D01*
X84108Y102092D01*
X84078Y102067D01*
X84044Y102049D01*
X84035Y102046D01*
X84007Y102038D01*
X83988Y102036D01*
X83968Y102034D01*
X83949Y102036D01*
X83930Y102038D01*
X83901Y102046D01*
X83893Y102049D01*
X83859Y102067D01*
X83829Y102092D01*
X82000Y103920D01*
X80172Y102092D01*
X80172Y102092D01*
X80142Y102067D01*
X80107Y102049D01*
X80070Y102037D01*
X80057Y102036D01*
X80032Y102033D01*
X80005Y102036D01*
X79993Y102037D01*
X79967Y102045D01*
X79956Y102049D01*
X79956Y102049D01*
D01*
X79955Y102049D01*
X79922Y102067D01*
X79899Y102085D01*
X79892Y102092D01*
X79874Y102114D01*
X79867Y102121D01*
X79867Y102121D01*
X79867Y102121D01*
X79849Y102156D01*
X79838Y102193D01*
X79836Y102206D01*
X79834Y102231D01*
X79834Y102231D01*
X79834Y107224D01*
Y107224D01*
D01*
X79838Y107263D01*
X79849Y107300D01*
X79867Y107334D01*
X79892Y107364D01*
X79922Y107389D01*
X79956Y107407D01*
X79993Y107418D01*
X80032Y107422D01*
X80032D01*
D01*
X83969D01*
X84007Y107418D01*
D02*
G37*
G36*
X77007D02*
X77044Y107407D01*
X77078Y107389D01*
X77108Y107364D01*
X77133Y107334D01*
X77151Y107300D01*
X77162Y107263D01*
X77166Y107224D01*
X77166Y102232D01*
X77166Y102232D01*
X77164Y102212D01*
X77162Y102193D01*
X77154Y102164D01*
X77151Y102156D01*
X77133Y102122D01*
X77108Y102092D01*
X77078Y102067D01*
X77044Y102049D01*
X77035Y102046D01*
X77007Y102038D01*
X76988Y102036D01*
X76968Y102034D01*
X76949Y102036D01*
X76930Y102038D01*
X76901Y102046D01*
X76893Y102049D01*
X76859Y102067D01*
X76829Y102092D01*
X75000Y103920D01*
X73172Y102092D01*
X73172Y102092D01*
X73142Y102067D01*
X73107Y102049D01*
X73070Y102037D01*
X73057Y102036D01*
X73032Y102033D01*
X73005Y102036D01*
X72993Y102037D01*
X72967Y102045D01*
X72956Y102049D01*
X72956Y102049D01*
D01*
X72955Y102049D01*
X72922Y102067D01*
X72899Y102085D01*
X72892Y102092D01*
X72874Y102114D01*
X72867Y102121D01*
X72867Y102121D01*
X72867Y102121D01*
X72849Y102156D01*
X72838Y102193D01*
X72836Y102206D01*
X72834Y102231D01*
X72834Y102231D01*
X72834Y107224D01*
Y107224D01*
D01*
X72838Y107263D01*
X72849Y107300D01*
X72867Y107334D01*
X72892Y107364D01*
X72922Y107389D01*
X72956Y107407D01*
X72993Y107418D01*
X73032Y107422D01*
X73032D01*
D01*
X76968D01*
X77007Y107418D01*
D02*
G37*
G36*
X70007D02*
X70044Y107407D01*
X70078Y107389D01*
X70108Y107364D01*
X70133Y107334D01*
X70151Y107300D01*
X70162Y107263D01*
X70166Y107224D01*
X70166Y102232D01*
X70166Y102232D01*
X70164Y102212D01*
X70162Y102193D01*
X70154Y102164D01*
X70151Y102156D01*
X70133Y102122D01*
X70108Y102092D01*
X70078Y102067D01*
X70044Y102049D01*
X70035Y102046D01*
X70007Y102038D01*
X69988Y102036D01*
X69968Y102034D01*
X69949Y102036D01*
X69930Y102038D01*
X69901Y102046D01*
X69893Y102049D01*
X69859Y102067D01*
X69829Y102092D01*
X68000Y103920D01*
X66172Y102092D01*
X66171Y102092D01*
X66142Y102067D01*
X66107Y102049D01*
X66070Y102037D01*
X66057Y102036D01*
X66032Y102033D01*
X66005Y102036D01*
X65993Y102037D01*
X65967Y102045D01*
X65956Y102049D01*
X65956Y102049D01*
D01*
X65955Y102049D01*
X65922Y102067D01*
X65899Y102085D01*
X65892Y102092D01*
X65873Y102114D01*
X65867Y102121D01*
X65867Y102121D01*
X65867Y102121D01*
X65849Y102156D01*
X65838Y102193D01*
X65836Y102206D01*
X65834Y102231D01*
X65834Y102231D01*
X65834Y107224D01*
Y107224D01*
D01*
X65838Y107263D01*
X65849Y107300D01*
X65867Y107334D01*
X65892Y107364D01*
X65922Y107389D01*
X65956Y107407D01*
X65993Y107418D01*
X66031Y107422D01*
X66031D01*
D01*
X69968D01*
X70007Y107418D01*
D02*
G37*
G36*
X63007D02*
X63044Y107407D01*
X63078Y107389D01*
X63108Y107364D01*
X63133Y107334D01*
X63151Y107300D01*
X63162Y107263D01*
X63166Y107224D01*
X63166Y102232D01*
X63166Y102232D01*
X63164Y102212D01*
X63162Y102193D01*
X63154Y102164D01*
X63151Y102156D01*
X63133Y102122D01*
X63108Y102092D01*
X63078Y102067D01*
X63044Y102049D01*
X63036Y102046D01*
X63007Y102038D01*
X62988Y102036D01*
X62968Y102034D01*
X62949Y102036D01*
X62930Y102038D01*
X62901Y102046D01*
X62893Y102049D01*
X62859Y102067D01*
X62829Y102092D01*
X61000Y103920D01*
X59172Y102092D01*
X59171Y102092D01*
X59142Y102067D01*
X59107Y102049D01*
X59070Y102037D01*
X59057Y102036D01*
X59032Y102033D01*
X59004Y102036D01*
X58993Y102037D01*
X58967Y102045D01*
X58956Y102049D01*
X58956Y102049D01*
D01*
X58955Y102049D01*
X58922Y102067D01*
X58899Y102085D01*
X58892Y102092D01*
X58873Y102114D01*
X58867Y102121D01*
X58867Y102121D01*
X58867Y102121D01*
X58849Y102156D01*
X58838Y102193D01*
X58836Y102206D01*
X58834Y102231D01*
X58834Y102231D01*
X58834Y107224D01*
Y107224D01*
D01*
X58837Y107263D01*
X58849Y107300D01*
X58867Y107334D01*
X58892Y107364D01*
X58922Y107389D01*
X58956Y107407D01*
X58993Y107418D01*
X59031Y107422D01*
X59031D01*
D01*
X62968D01*
X63007Y107418D01*
D02*
G37*
G36*
X56007D02*
X56044Y107407D01*
X56078Y107389D01*
X56108Y107364D01*
X56133Y107334D01*
X56151Y107300D01*
X56163Y107263D01*
X56166Y107224D01*
X56166Y102232D01*
X56166Y102232D01*
X56164Y102212D01*
X56163Y102193D01*
X56154Y102164D01*
X56151Y102156D01*
X56133Y102122D01*
X56108Y102092D01*
X56078Y102067D01*
X56044Y102049D01*
X56036Y102046D01*
X56007Y102038D01*
X55988Y102036D01*
X55968Y102034D01*
X55949Y102036D01*
X55930Y102038D01*
X55901Y102046D01*
X55893Y102049D01*
X55859Y102067D01*
X55829Y102092D01*
X54000Y103920D01*
X52172Y102092D01*
X52171Y102092D01*
X52142Y102067D01*
X52107Y102049D01*
X52070Y102037D01*
X52057Y102036D01*
X52032Y102033D01*
X52004Y102036D01*
X51993Y102037D01*
X51967Y102045D01*
X51956Y102049D01*
X51956Y102049D01*
D01*
X51955Y102049D01*
X51922Y102067D01*
X51899Y102085D01*
X51892Y102092D01*
X51873Y102114D01*
X51867Y102121D01*
X51867Y102121D01*
X51867Y102121D01*
X51849Y102156D01*
X51838Y102193D01*
X51836Y102206D01*
X51834Y102231D01*
X51834Y102231D01*
X51834Y107224D01*
Y107224D01*
D01*
X51837Y107263D01*
X51849Y107300D01*
X51867Y107334D01*
X51892Y107364D01*
X51922Y107389D01*
X51956Y107407D01*
X51993Y107418D01*
X52031Y107422D01*
X52031D01*
D01*
X55968D01*
X56007Y107418D01*
D02*
G37*
G36*
X49007D02*
X49044Y107407D01*
X49078Y107389D01*
X49108Y107364D01*
X49133Y107334D01*
X49151Y107300D01*
X49163Y107263D01*
X49166Y107224D01*
X49166Y102232D01*
X49166Y102232D01*
X49164Y102212D01*
X49163Y102193D01*
X49154Y102164D01*
X49151Y102156D01*
X49133Y102122D01*
X49108Y102092D01*
X49078Y102067D01*
X49044Y102049D01*
X49036Y102046D01*
X49007Y102038D01*
X48988Y102036D01*
X48968Y102034D01*
X48949Y102036D01*
X48930Y102038D01*
X48901Y102046D01*
X48893Y102049D01*
X48859Y102067D01*
X48829Y102092D01*
X47000Y103920D01*
X45172Y102092D01*
X45171Y102092D01*
X45142Y102067D01*
X45107Y102049D01*
X45070Y102037D01*
X45057Y102036D01*
X45032Y102033D01*
X45004Y102036D01*
X44993Y102037D01*
X44967Y102045D01*
X44956Y102049D01*
X44956Y102049D01*
D01*
X44955Y102049D01*
X44922Y102067D01*
X44899Y102085D01*
X44892Y102092D01*
X44873Y102114D01*
X44867Y102121D01*
X44867Y102121D01*
X44867Y102121D01*
X44849Y102156D01*
X44838Y102193D01*
X44836Y102206D01*
X44834Y102231D01*
X44834Y102231D01*
X44834Y107224D01*
Y107224D01*
D01*
X44837Y107263D01*
X44849Y107300D01*
X44867Y107334D01*
X44892Y107364D01*
X44922Y107389D01*
X44956Y107407D01*
X44993Y107418D01*
X45031Y107422D01*
X45031D01*
D01*
X48968D01*
X49007Y107418D01*
D02*
G37*
G36*
X42007D02*
X42044Y107407D01*
X42078Y107389D01*
X42108Y107364D01*
X42133Y107334D01*
X42151Y107300D01*
X42162Y107263D01*
X42166Y107224D01*
X42166Y102232D01*
X42166Y102232D01*
X42164Y102212D01*
X42162Y102193D01*
X42154Y102164D01*
X42151Y102156D01*
X42133Y102122D01*
X42108Y102092D01*
X42078Y102067D01*
X42044Y102049D01*
X42035Y102046D01*
X42007Y102038D01*
X41988Y102036D01*
X41969Y102034D01*
X41949Y102036D01*
X41930Y102038D01*
X41901Y102046D01*
X41893Y102049D01*
X41859Y102067D01*
X41829Y102092D01*
X40000Y103920D01*
X38172Y102092D01*
X38171Y102092D01*
X38142Y102067D01*
X38107Y102049D01*
X38070Y102037D01*
X38057Y102036D01*
X38032Y102033D01*
X38004Y102036D01*
X37993Y102037D01*
X37967Y102045D01*
X37956Y102049D01*
X37956Y102049D01*
D01*
X37955Y102049D01*
X37922Y102067D01*
X37899Y102085D01*
X37892Y102092D01*
X37874Y102114D01*
X37867Y102121D01*
X37867Y102121D01*
X37867Y102121D01*
X37849Y102156D01*
X37838Y102193D01*
X37836Y102206D01*
X37834Y102231D01*
X37834Y102231D01*
X37834Y107224D01*
Y107224D01*
D01*
X37837Y107263D01*
X37849Y107300D01*
X37867Y107334D01*
X37892Y107364D01*
X37922Y107389D01*
X37956Y107407D01*
X37993Y107418D01*
X38032Y107422D01*
X38032D01*
D01*
X41969D01*
X42007Y107418D01*
D02*
G37*
G36*
X89039Y103088D02*
X89076Y103076D01*
X89110Y103058D01*
X89140Y103034D01*
X91108Y101065D01*
X91133Y101035D01*
X91151Y101001D01*
X91154Y100992D01*
X91163Y100964D01*
X91164Y100944D01*
X91166Y100925D01*
X91166Y100925D01*
Y97776D01*
X91163Y97737D01*
X91151Y97700D01*
X91133Y97666D01*
X91108Y97636D01*
X91078Y97611D01*
X91044Y97593D01*
X91007Y97582D01*
X90969Y97578D01*
X87032D01*
X86993Y97582D01*
X86956Y97593D01*
X86922Y97611D01*
X86892Y97636D01*
X86867Y97666D01*
X86849Y97700D01*
X86838Y97737D01*
X86834Y97776D01*
Y100925D01*
X86834Y100925D01*
X86838Y100964D01*
X86849Y101001D01*
X86867Y101035D01*
X86892Y101065D01*
X88860Y103034D01*
X88890Y103058D01*
X88924Y103076D01*
X88961Y103088D01*
X89000Y103092D01*
X89039Y103088D01*
D02*
G37*
G36*
X82039D02*
X82076Y103076D01*
X82110Y103058D01*
X82140Y103034D01*
X84108Y101065D01*
X84133Y101035D01*
X84151Y101001D01*
X84154Y100992D01*
X84162Y100964D01*
X84164Y100944D01*
X84166Y100925D01*
X84166Y100925D01*
Y97776D01*
X84162Y97737D01*
X84151Y97700D01*
X84133Y97666D01*
X84108Y97636D01*
X84078Y97611D01*
X84044Y97593D01*
X84007Y97582D01*
X83969Y97578D01*
X80032D01*
X79993Y97582D01*
X79956Y97593D01*
X79922Y97611D01*
X79892Y97636D01*
X79867Y97666D01*
X79849Y97700D01*
X79838Y97737D01*
X79834Y97776D01*
Y100925D01*
X79834Y100925D01*
X79838Y100964D01*
X79849Y101001D01*
X79867Y101035D01*
X79892Y101065D01*
X81860Y103034D01*
X81890Y103058D01*
X81924Y103076D01*
X81961Y103088D01*
X82000Y103092D01*
X82039Y103088D01*
D02*
G37*
G36*
X75039D02*
X75076Y103076D01*
X75110Y103058D01*
X75140Y103034D01*
X77108Y101065D01*
X77133Y101035D01*
X77151Y101001D01*
X77154Y100992D01*
X77162Y100964D01*
X77164Y100944D01*
X77166Y100925D01*
X77166Y100925D01*
Y97776D01*
X77162Y97737D01*
X77151Y97700D01*
X77133Y97666D01*
X77108Y97636D01*
X77078Y97611D01*
X77044Y97593D01*
X77007Y97582D01*
X76968Y97578D01*
X73032D01*
X72993Y97582D01*
X72956Y97593D01*
X72922Y97611D01*
X72892Y97636D01*
X72867Y97666D01*
X72849Y97700D01*
X72838Y97737D01*
X72834Y97776D01*
Y100925D01*
X72834Y100925D01*
X72838Y100964D01*
X72849Y101001D01*
X72867Y101035D01*
X72892Y101065D01*
X74860Y103034D01*
X74890Y103058D01*
X74924Y103076D01*
X74961Y103088D01*
X75000Y103092D01*
X75039Y103088D01*
D02*
G37*
G36*
X68039D02*
X68076Y103076D01*
X68110Y103058D01*
X68140Y103034D01*
X70108Y101065D01*
X70133Y101035D01*
X70151Y101001D01*
X70154Y100992D01*
X70162Y100964D01*
X70164Y100944D01*
X70166Y100925D01*
X70166Y100925D01*
Y97776D01*
X70162Y97737D01*
X70151Y97700D01*
X70133Y97666D01*
X70108Y97636D01*
X70078Y97611D01*
X70044Y97593D01*
X70007Y97582D01*
X69968Y97578D01*
X66031D01*
X65993Y97582D01*
X65956Y97593D01*
X65922Y97611D01*
X65892Y97636D01*
X65867Y97666D01*
X65849Y97700D01*
X65838Y97737D01*
X65834Y97776D01*
Y100925D01*
X65834Y100925D01*
X65838Y100964D01*
X65849Y101001D01*
X65867Y101035D01*
X65892Y101065D01*
X67860Y103034D01*
X67890Y103058D01*
X67924Y103076D01*
X67961Y103088D01*
X68000Y103092D01*
X68039Y103088D01*
D02*
G37*
G36*
X61039D02*
X61076Y103076D01*
X61110Y103058D01*
X61140Y103034D01*
X63108Y101065D01*
X63133Y101035D01*
X63151Y101001D01*
X63154Y100992D01*
X63162Y100964D01*
X63164Y100944D01*
X63166Y100925D01*
X63166Y100925D01*
Y97776D01*
X63162Y97737D01*
X63151Y97700D01*
X63133Y97666D01*
X63108Y97636D01*
X63078Y97611D01*
X63044Y97593D01*
X63007Y97582D01*
X62968Y97578D01*
X59031D01*
X58993Y97582D01*
X58956Y97593D01*
X58922Y97611D01*
X58892Y97636D01*
X58867Y97666D01*
X58849Y97700D01*
X58837Y97737D01*
X58834Y97776D01*
Y100925D01*
X58834Y100925D01*
X58837Y100964D01*
X58849Y101001D01*
X58867Y101035D01*
X58892Y101065D01*
X60860Y103034D01*
X60890Y103058D01*
X60924Y103076D01*
X60961Y103088D01*
X61000Y103092D01*
X61039Y103088D01*
D02*
G37*
G36*
X54039D02*
X54076Y103076D01*
X54110Y103058D01*
X54140Y103034D01*
X56108Y101065D01*
X56133Y101035D01*
X56151Y101001D01*
X56154Y100992D01*
X56163Y100964D01*
X56164Y100944D01*
X56166Y100925D01*
X56166Y100925D01*
Y97776D01*
X56163Y97737D01*
X56151Y97700D01*
X56133Y97666D01*
X56108Y97636D01*
X56078Y97611D01*
X56044Y97593D01*
X56007Y97582D01*
X55968Y97578D01*
X52031D01*
X51993Y97582D01*
X51956Y97593D01*
X51922Y97611D01*
X51892Y97636D01*
X51867Y97666D01*
X51849Y97700D01*
X51837Y97737D01*
X51834Y97776D01*
Y100925D01*
X51834Y100925D01*
X51837Y100964D01*
X51849Y101001D01*
X51867Y101035D01*
X51892Y101065D01*
X53860Y103034D01*
X53890Y103058D01*
X53924Y103076D01*
X53961Y103088D01*
X54000Y103092D01*
X54039Y103088D01*
D02*
G37*
G36*
X47039D02*
X47076Y103076D01*
X47110Y103058D01*
X47140Y103034D01*
X49108Y101065D01*
X49133Y101035D01*
X49151Y101001D01*
X49154Y100992D01*
X49163Y100964D01*
X49164Y100944D01*
X49166Y100925D01*
X49166Y100925D01*
Y97776D01*
X49163Y97737D01*
X49151Y97700D01*
X49133Y97666D01*
X49108Y97636D01*
X49078Y97611D01*
X49044Y97593D01*
X49007Y97582D01*
X48968Y97578D01*
X45031D01*
X44993Y97582D01*
X44956Y97593D01*
X44922Y97611D01*
X44892Y97636D01*
X44867Y97666D01*
X44849Y97700D01*
X44837Y97737D01*
X44834Y97776D01*
Y100925D01*
X44834Y100925D01*
X44837Y100964D01*
X44849Y101001D01*
X44867Y101035D01*
X44892Y101065D01*
X46860Y103034D01*
X46890Y103058D01*
X46924Y103076D01*
X46961Y103088D01*
X47000Y103092D01*
X47039Y103088D01*
D02*
G37*
G36*
X40039D02*
X40076Y103076D01*
X40110Y103058D01*
X40140Y103034D01*
X42108Y101065D01*
X42133Y101035D01*
X42151Y101001D01*
X42154Y100992D01*
X42162Y100964D01*
X42164Y100944D01*
X42166Y100925D01*
X42166Y100925D01*
Y97776D01*
X42162Y97737D01*
X42151Y97700D01*
X42133Y97666D01*
X42108Y97636D01*
X42078Y97611D01*
X42044Y97593D01*
X42007Y97582D01*
X41969Y97578D01*
X38032D01*
X37993Y97582D01*
X37956Y97593D01*
X37922Y97611D01*
X37892Y97636D01*
X37867Y97666D01*
X37849Y97700D01*
X37837Y97737D01*
X37834Y97776D01*
Y100925D01*
X37834Y100925D01*
X37837Y100964D01*
X37849Y101001D01*
X37867Y101035D01*
X37892Y101065D01*
X39860Y103034D01*
X39890Y103058D01*
X39924Y103076D01*
X39961Y103088D01*
X40000Y103092D01*
X40039Y103088D01*
D02*
G37*
G36*
X246000Y150000D02*
X231000Y135000D01*
Y36500D01*
X219500D01*
Y135000D01*
X234500Y150000D01*
Y153870D01*
X246000D01*
Y150000D01*
D02*
G37*
D60*
X113657Y22024D02*
D03*
X118579D02*
D03*
X123500D02*
D03*
X128421D02*
D03*
X133343D02*
D03*
D61*
X142201Y9031D02*
D03*
X104799D02*
D03*
D62*
X6350Y72240D02*
D03*
Y39760D02*
D03*
X10000Y84417D02*
D03*
Y136583D02*
D03*
D63*
X19342Y48618D02*
D03*
Y53539D02*
D03*
Y58461D02*
D03*
Y63382D02*
D03*
X22992Y127724D02*
D03*
Y122803D02*
D03*
Y117882D02*
D03*
Y112961D02*
D03*
Y108039D02*
D03*
Y103118D02*
D03*
Y98197D02*
D03*
Y93276D02*
D03*
D64*
X150547Y143000D02*
D03*
X156453D02*
D03*
X37453Y5000D02*
D03*
X31547D02*
D03*
D65*
X106201Y150165D02*
D03*
Y170835D02*
D03*
X118799Y150165D02*
D03*
Y170835D02*
D03*
X143299D02*
D03*
Y150165D02*
D03*
X130701Y170835D02*
D03*
Y150165D02*
D03*
D66*
X161850Y143000D02*
D03*
X168150D02*
D03*
X104350D02*
D03*
X110650D02*
D03*
X37650Y10500D02*
D03*
X31350D02*
D03*
X110650Y137000D02*
D03*
X104350D02*
D03*
X138350Y45500D02*
D03*
X144650D02*
D03*
X138350Y31500D02*
D03*
X144650D02*
D03*
X138350Y38500D02*
D03*
X144650D02*
D03*
X62650Y171500D02*
D03*
X56350D02*
D03*
X31850Y159500D02*
D03*
X38150D02*
D03*
X123350Y38500D02*
D03*
X129650D02*
D03*
X123350Y31500D02*
D03*
X129650D02*
D03*
X123350Y45500D02*
D03*
X129650D02*
D03*
X177150Y31500D02*
D03*
X170850D02*
D03*
X31850Y165500D02*
D03*
X38150D02*
D03*
X128850Y137000D02*
D03*
X135150D02*
D03*
Y143000D02*
D03*
X128850D02*
D03*
D67*
X73500Y165000D02*
D03*
D68*
X278590Y25921D02*
D03*
Y31000D02*
D03*
Y36000D02*
D03*
Y41079D02*
D03*
X256547Y47921D02*
D03*
Y85579D02*
D03*
Y80500D02*
D03*
Y75500D02*
D03*
Y70421D02*
D03*
Y53000D02*
D03*
Y58000D02*
D03*
Y63079D02*
D03*
X278091Y92421D02*
D03*
Y97500D02*
D03*
Y102500D02*
D03*
Y107579D02*
D03*
Y114921D02*
D03*
Y120000D02*
D03*
Y125000D02*
D03*
Y130079D02*
D03*
X256909Y136921D02*
D03*
Y142000D02*
D03*
Y147000D02*
D03*
Y152079D02*
D03*
D69*
X256150Y41079D02*
D03*
Y36000D02*
D03*
Y31000D02*
D03*
Y25921D02*
D03*
X278988Y70421D02*
D03*
Y75500D02*
D03*
Y80500D02*
D03*
Y85579D02*
D03*
Y63079D02*
D03*
Y58000D02*
D03*
Y53000D02*
D03*
Y47921D02*
D03*
X255650Y107579D02*
D03*
Y102500D02*
D03*
Y97500D02*
D03*
Y92421D02*
D03*
Y130079D02*
D03*
Y125000D02*
D03*
Y120000D02*
D03*
Y114921D02*
D03*
X279350Y152079D02*
D03*
Y147000D02*
D03*
Y142000D02*
D03*
Y136921D02*
D03*
D70*
X265638Y33500D02*
D03*
X269500Y78000D02*
D03*
Y55500D02*
D03*
X265138Y100000D02*
D03*
Y122500D02*
D03*
X269862Y144500D02*
D03*
D71*
X206854Y36000D02*
D03*
X196146D02*
D03*
X206854Y49000D02*
D03*
X196146D02*
D03*
X206854Y80000D02*
D03*
X196146D02*
D03*
X206854Y67000D02*
D03*
X196146D02*
D03*
X206854Y98000D02*
D03*
X196146D02*
D03*
X101354Y85500D02*
D03*
X90646D02*
D03*
X196146Y129000D02*
D03*
X206854D02*
D03*
X196146Y142000D02*
D03*
X206854D02*
D03*
X196146Y111000D02*
D03*
X206854D02*
D03*
D72*
X198744Y58000D02*
D03*
X204256D02*
D03*
X70756Y44500D02*
D03*
X65244D02*
D03*
X198744Y89000D02*
D03*
X204256D02*
D03*
Y120000D02*
D03*
X198744D02*
D03*
X149244Y74500D02*
D03*
X154756D02*
D03*
X79256Y35500D02*
D03*
X73744D02*
D03*
X112819Y31500D02*
D03*
X118331D02*
D03*
X105756Y57500D02*
D03*
X100244D02*
D03*
X33244Y51000D02*
D03*
X38756D02*
D03*
X105756Y63000D02*
D03*
X100244D02*
D03*
X33244Y46000D02*
D03*
X38756D02*
D03*
X110744Y99500D02*
D03*
X116256D02*
D03*
X118331Y45500D02*
D03*
X112819D02*
D03*
X118331Y38500D02*
D03*
X112819D02*
D03*
D73*
X140500Y83150D02*
D03*
Y76850D02*
D03*
D74*
X89500Y16646D02*
D03*
Y27354D02*
D03*
X130500Y116354D02*
D03*
Y105646D02*
D03*
X49826Y155631D02*
D03*
Y144922D02*
D03*
X37000Y136646D02*
D03*
Y147354D02*
D03*
X145500Y57646D02*
D03*
Y68354D02*
D03*
X158500D02*
D03*
Y57646D02*
D03*
D75*
X60500Y30488D02*
D03*
Y36000D02*
D03*
X151500Y129756D02*
D03*
Y124244D02*
D03*
X140000Y129756D02*
D03*
Y124244D02*
D03*
X40500Y75744D02*
D03*
Y81256D02*
D03*
X81500Y84744D02*
D03*
Y90256D02*
D03*
X68000D02*
D03*
Y84744D02*
D03*
X73000D02*
D03*
Y90256D02*
D03*
X54000Y84744D02*
D03*
Y90256D02*
D03*
X158500Y129756D02*
D03*
Y124244D02*
D03*
D76*
X89000Y105500D02*
D03*
Y99500D02*
D03*
X61000Y105500D02*
D03*
Y99500D02*
D03*
X82000Y105500D02*
D03*
Y99500D02*
D03*
X75000Y105500D02*
D03*
Y99500D02*
D03*
X68000Y105500D02*
D03*
Y99500D02*
D03*
X54000Y105500D02*
D03*
Y99500D02*
D03*
X47000Y105500D02*
D03*
Y99500D02*
D03*
X40000Y105500D02*
D03*
Y99500D02*
D03*
D77*
X241311Y42500D02*
D03*
X247689D02*
D03*
Y91000D02*
D03*
X241311D02*
D03*
X99189Y75500D02*
D03*
X92811D02*
D03*
D78*
X240209Y58000D02*
D03*
X248500D02*
D03*
Y80500D02*
D03*
X240209D02*
D03*
D79*
X248500Y48847D02*
D03*
X240209D02*
D03*
Y71346D02*
D03*
X248500D02*
D03*
D80*
X240500Y164500D02*
D03*
X201500D02*
D03*
D81*
X71000Y26831D02*
D03*
X74740Y18169D02*
D03*
X67260D02*
D03*
D82*
X303000Y129500D02*
D03*
Y88500D02*
D03*
X302500Y47500D02*
D03*
D83*
X129118Y130740D02*
D03*
Y127000D02*
D03*
Y123260D02*
D03*
X118882D02*
D03*
Y127000D02*
D03*
Y130740D02*
D03*
D84*
X47000Y119500D02*
D03*
D85*
X46016Y126587D02*
D03*
Y112413D02*
D03*
X47984D02*
D03*
Y126587D02*
D03*
D86*
X41882Y124421D02*
D03*
Y122453D02*
D03*
Y120484D02*
D03*
Y118516D02*
D03*
Y116547D02*
D03*
Y114579D02*
D03*
X52118D02*
D03*
Y116547D02*
D03*
Y118516D02*
D03*
Y120484D02*
D03*
Y122453D02*
D03*
Y124421D02*
D03*
D87*
X115350Y143000D02*
D03*
X121650D02*
D03*
X146050D02*
D03*
X139750D02*
D03*
D88*
X146142Y87886D02*
D03*
X148110D02*
D03*
X150079D02*
D03*
X152047D02*
D03*
X154016D02*
D03*
X155984D02*
D03*
X157953D02*
D03*
X159921D02*
D03*
X161890D02*
D03*
X163858D02*
D03*
Y111114D02*
D03*
X161890D02*
D03*
X159921D02*
D03*
X157953D02*
D03*
X155984D02*
D03*
X154016D02*
D03*
X152047D02*
D03*
X150079D02*
D03*
X148110D02*
D03*
X146142D02*
D03*
D89*
X166614Y90642D02*
D03*
Y92610D02*
D03*
Y94579D02*
D03*
Y96547D02*
D03*
Y98516D02*
D03*
Y100484D02*
D03*
Y102453D02*
D03*
Y104421D02*
D03*
Y106390D02*
D03*
Y108358D02*
D03*
X143386D02*
D03*
Y106390D02*
D03*
Y104421D02*
D03*
Y102453D02*
D03*
Y100484D02*
D03*
Y98516D02*
D03*
Y96547D02*
D03*
Y94579D02*
D03*
Y92610D02*
D03*
Y90642D02*
D03*
D90*
X155000Y99500D02*
D03*
D91*
X87799Y35661D02*
D03*
Y38221D02*
D03*
Y40780D02*
D03*
Y43339D02*
D03*
X103350D02*
D03*
Y40780D02*
D03*
Y38221D02*
D03*
Y35661D02*
D03*
D92*
X61000Y19201D02*
D03*
Y25500D02*
D03*
X49000D02*
D03*
Y19201D02*
D03*
X170000Y130150D02*
D03*
Y123850D02*
D03*
X97000Y99350D02*
D03*
Y105650D02*
D03*
X55000Y25500D02*
D03*
Y19201D02*
D03*
X43000D02*
D03*
Y25500D02*
D03*
X37000Y19201D02*
D03*
Y25500D02*
D03*
X164000Y123850D02*
D03*
Y130150D02*
D03*
X146000D02*
D03*
Y123850D02*
D03*
D93*
X66500Y62500D02*
D03*
D94*
X48390Y75098D02*
D03*
X49965D02*
D03*
X51539D02*
D03*
X53114D02*
D03*
X54689D02*
D03*
X56264D02*
D03*
X57839D02*
D03*
X59413D02*
D03*
X60988D02*
D03*
X62563D02*
D03*
X64138D02*
D03*
X65713D02*
D03*
X67287D02*
D03*
X68862D02*
D03*
X70437D02*
D03*
X72012D02*
D03*
X73587D02*
D03*
X75161D02*
D03*
X76736D02*
D03*
X78311D02*
D03*
X79886D02*
D03*
X81461D02*
D03*
X83035D02*
D03*
X84610D02*
D03*
Y49902D02*
D03*
X83035D02*
D03*
X81461D02*
D03*
X79886D02*
D03*
X78311D02*
D03*
X76736D02*
D03*
X75161D02*
D03*
X73587D02*
D03*
X72012D02*
D03*
X70437D02*
D03*
X68862D02*
D03*
X67287D02*
D03*
X65713D02*
D03*
X64138D02*
D03*
X62563D02*
D03*
X60988D02*
D03*
X59413D02*
D03*
X57839D02*
D03*
X56264D02*
D03*
X54689D02*
D03*
X53114D02*
D03*
X51539D02*
D03*
X49965D02*
D03*
X48390D02*
D03*
D95*
X86972Y72736D02*
D03*
Y71161D02*
D03*
Y69587D02*
D03*
Y68012D02*
D03*
Y66437D02*
D03*
Y64862D02*
D03*
Y63287D02*
D03*
Y61713D02*
D03*
Y60138D02*
D03*
Y58563D02*
D03*
Y56988D02*
D03*
Y55413D02*
D03*
Y53839D02*
D03*
Y52264D02*
D03*
X46028D02*
D03*
Y53839D02*
D03*
Y55413D02*
D03*
Y56988D02*
D03*
Y58563D02*
D03*
Y60138D02*
D03*
Y61713D02*
D03*
Y63287D02*
D03*
Y64862D02*
D03*
Y66437D02*
D03*
Y68012D02*
D03*
Y69587D02*
D03*
Y71161D02*
D03*
Y72736D02*
D03*
D96*
X85287Y145780D02*
D03*
D97*
X61272Y136724D02*
D03*
Y145780D02*
D03*
Y154835D02*
D03*
D98*
X110843Y104500D02*
D03*
X116157D02*
D03*
D99*
X249000Y130311D02*
D03*
Y136689D02*
D03*
D100*
X37953Y171500D02*
D03*
X32047D02*
D03*
X50453D02*
D03*
X44547D02*
D03*
D101*
X37000Y36000D02*
D03*
Y30724D02*
D03*
X49000Y36000D02*
D03*
Y30724D02*
D03*
D102*
X118421Y91874D02*
D03*
Y76126D02*
D03*
X108579D02*
D03*
Y91874D02*
D03*
D103*
X10000Y128000D02*
D03*
Y48500D02*
D03*
Y53500D02*
D03*
Y58500D02*
D03*
Y63500D02*
D03*
Y93000D02*
D03*
Y98000D02*
D03*
Y103000D02*
D03*
Y108000D02*
D03*
Y113000D02*
D03*
Y118000D02*
D03*
Y123000D02*
D03*
D104*
X113500Y9000D02*
D03*
X118500D02*
D03*
X133500D02*
D03*
X128500D02*
D03*
X123500D02*
D03*
D105*
X232500Y156500D02*
D03*
X240500D02*
D03*
X248500D02*
D03*
Y164500D02*
D03*
X240500D02*
D03*
X232500D02*
D03*
Y172500D02*
D03*
X248500D02*
D03*
X240500D02*
D03*
X193500Y156500D02*
D03*
X201500D02*
D03*
X209500D02*
D03*
Y164500D02*
D03*
X201500D02*
D03*
X193500D02*
D03*
Y172500D02*
D03*
X209500D02*
D03*
X201500D02*
D03*
X315000Y137500D02*
D03*
X307000D02*
D03*
X299000D02*
D03*
X291000D02*
D03*
Y129500D02*
D03*
X299000D02*
D03*
X307000D02*
D03*
X315000D02*
D03*
Y121500D02*
D03*
X291000D02*
D03*
X299000D02*
D03*
X307000D02*
D03*
X306500Y39500D02*
D03*
X298500D02*
D03*
X290500D02*
D03*
X314500D02*
D03*
Y47500D02*
D03*
X306500D02*
D03*
X298500D02*
D03*
X290500D02*
D03*
Y55500D02*
D03*
X298500D02*
D03*
X306500D02*
D03*
X314500D02*
D03*
X307000Y80500D02*
D03*
X299000D02*
D03*
X291000D02*
D03*
X315000D02*
D03*
Y88500D02*
D03*
X307000D02*
D03*
X299000D02*
D03*
X291000D02*
D03*
Y96500D02*
D03*
X299000D02*
D03*
X307000D02*
D03*
X315000D02*
D03*
D106*
X309055Y163386D02*
D03*
Y13780D02*
D03*
X13780Y163386D02*
D03*
X163386D02*
D03*
Y13780D02*
D03*
X13780D02*
D03*
D107*
X82000Y65000D02*
D03*
X74000D02*
D03*
X78000D02*
D03*
X70000D02*
D03*
X63000Y55000D02*
D03*
X82000Y59925D02*
D03*
X70000D02*
D03*
X74000D02*
D03*
X78000D02*
D03*
X63000Y60000D02*
D03*
X70000Y55000D02*
D03*
X74000D02*
D03*
X78000D02*
D03*
X82000D02*
D03*
X59000D02*
D03*
X55000D02*
D03*
X51000D02*
D03*
Y60000D02*
D03*
X55000D02*
D03*
X59000D02*
D03*
X55000Y65000D02*
D03*
X51000D02*
D03*
X59000D02*
D03*
X63000D02*
D03*
Y70000D02*
D03*
X59000D02*
D03*
X55000D02*
D03*
X70000D02*
D03*
X74000D02*
D03*
X78000D02*
D03*
X82000D02*
D03*
X51000D02*
D03*
D108*
X47000Y119500D02*
D03*
X150500Y95000D02*
D03*
X159500D02*
D03*
X150500Y104000D02*
D03*
X159500D02*
D03*
X155000Y95000D02*
D03*
X150500Y99500D02*
D03*
X155000Y104000D02*
D03*
X159500Y99500D02*
D03*
X155000D02*
D03*
M02*
