G04*
G04 #@! TF.GenerationSoftware,Altium Limited,Altium Designer,21.0.8 (223)*
G04*
G04 Layer_Color=16711935*
%FSLAX25Y25*%
%MOIN*%
G70*
G04*
G04 #@! TF.SameCoordinates,B676E1CA-0217-40F3-8002-BB03906CADE6*
G04*
G04*
G04 #@! TF.FilePolarity,Positive*
G04*
G01*
G75*
%ADD10C,0.00394*%
%ADD11C,0.00787*%
%ADD120C,0.01000*%
D10*
X161850Y144575D02*
X168150D01*
Y141425D02*
Y144575D01*
X161850Y141425D02*
X168150D01*
X161850D02*
Y144575D01*
X195201Y31079D02*
X207799D01*
X195201D02*
Y40921D01*
X207799D01*
Y31079D02*
Y40921D01*
X195201Y44079D02*
X207799D01*
X195201D02*
Y53921D01*
X207799D01*
Y44079D02*
Y53921D01*
X195201Y75079D02*
X207799D01*
X195201D02*
Y84921D01*
X207799D01*
Y75079D02*
Y84921D01*
X195201Y62079D02*
X207799D01*
X195201D02*
Y71921D01*
X207799D01*
Y62079D02*
Y71921D01*
X195201Y93079D02*
X207799D01*
X195201D02*
Y102921D01*
X207799D01*
Y93079D02*
Y102921D01*
X198350Y59575D02*
X204650D01*
Y56425D02*
Y59575D01*
X198350Y56425D02*
X204650D01*
X198350D02*
Y59575D01*
X138925Y76850D02*
X142075D01*
Y83150D01*
X138925D02*
X142075D01*
X138925Y76850D02*
Y83150D01*
X64850Y42925D02*
X71150D01*
X64850D02*
Y46075D01*
X71150D01*
Y42925D02*
Y46075D01*
X84579Y28299D02*
X94421D01*
X84579Y15701D02*
Y28299D01*
Y15701D02*
X94421D01*
Y28299D01*
X58925Y30095D02*
Y36394D01*
X62075D01*
Y30095D02*
Y36394D01*
X58925Y30095D02*
X62075D01*
X135421Y104701D02*
Y117299D01*
X125579Y104701D02*
X135421D01*
X125579D02*
Y117299D01*
X135421D01*
X240543Y44961D02*
X248457D01*
Y40039D02*
Y44961D01*
X240543Y40039D02*
X248457D01*
X240543D02*
Y44961D01*
X65291Y23681D02*
X69032Y19941D01*
X65291D02*
X76709D01*
Y25059D01*
X65291D02*
X76709D01*
X65291Y19941D02*
Y25059D01*
X240543Y93461D02*
X248457D01*
Y88539D02*
Y93461D01*
X240543Y88539D02*
X248457D01*
X240543D02*
Y93461D01*
X198350Y87425D02*
Y90575D01*
Y87425D02*
X204650D01*
Y90575D01*
X198350D02*
X204650D01*
X198350Y118425D02*
Y121575D01*
Y118425D02*
X204650D01*
Y121575D01*
X198350D02*
X204650D01*
X120850Y129165D02*
X124591Y132905D01*
X120850Y121095D02*
Y132905D01*
Y121095D02*
X127150D01*
Y132905D01*
X120850D02*
X127150D01*
X104350Y144575D02*
X110650D01*
Y141425D02*
Y144575D01*
X104350Y141425D02*
X110650D01*
X104350D02*
Y144575D01*
X121650Y141425D02*
Y144575D01*
X115350D02*
X121650D01*
X115350Y141425D02*
Y144575D01*
Y141425D02*
X121650D01*
X155150Y72925D02*
Y76075D01*
X148850D02*
X155150D01*
X148850Y72925D02*
Y76075D01*
Y72925D02*
X155150D01*
X143189Y87689D02*
Y111311D01*
X166811D01*
Y87689D02*
Y111311D01*
X143189Y87689D02*
X166811D01*
X143189Y89657D02*
X145158Y87689D01*
X153075Y123850D02*
Y130150D01*
X149925Y123850D02*
X153075D01*
X149925D02*
Y130150D01*
X153075D01*
X141575Y123850D02*
Y130150D01*
X138425Y123850D02*
X141575D01*
X138425D02*
Y130150D01*
X141575D01*
X98921Y33595D02*
X101480Y36154D01*
Y33595D02*
Y45406D01*
X89669D02*
X101480D01*
X89669Y33595D02*
Y45406D01*
Y33595D02*
X101480D01*
X59425Y19201D02*
Y25500D01*
X62575D01*
Y19201D02*
Y25500D01*
X59425Y19201D02*
X62575D01*
X50575D02*
Y25500D01*
X47425Y19201D02*
X50575D01*
X47425D02*
Y25500D01*
X50575D01*
X171575Y123850D02*
Y130150D01*
X168425Y123850D02*
X171575D01*
X168425D02*
Y130150D01*
X171575D01*
X73350Y33925D02*
Y37075D01*
Y33925D02*
X79650D01*
Y37075D01*
X73350D02*
X79650D01*
X31350Y8925D02*
X37650D01*
X31350D02*
Y12075D01*
X37650D01*
Y8925D02*
Y12075D01*
X118724Y29925D02*
Y33075D01*
X112425D02*
X118724D01*
X112425Y29925D02*
Y33075D01*
Y29925D02*
X118724D01*
X99850Y55925D02*
X106150D01*
X99850D02*
Y59075D01*
X106150D01*
Y55925D02*
Y59075D01*
X45831Y73721D02*
X47405Y75295D01*
X45831Y49705D02*
Y75295D01*
Y49705D02*
X87169D01*
Y75295D01*
X45831D02*
X87169D01*
X95425Y99350D02*
Y105650D01*
X98575D01*
Y99350D02*
Y105650D01*
X95425Y99350D02*
X98575D01*
X44905Y143977D02*
X54747D01*
Y156576D01*
X44905D02*
X54747D01*
X44905Y143977D02*
Y156576D01*
X38925Y81650D02*
X42075D01*
X38925Y75350D02*
Y81650D01*
Y75350D02*
X42075D01*
Y81650D01*
X92043Y73039D02*
X99957D01*
X92043D02*
Y77961D01*
X99957D01*
Y73039D02*
Y77961D01*
X79925Y90650D02*
X83075D01*
X79925Y84350D02*
Y90650D01*
Y84350D02*
X83075D01*
Y90650D01*
X69575Y84350D02*
Y90650D01*
X66425Y84350D02*
X69575D01*
X66425D02*
Y90650D01*
X69575D01*
X104350Y135425D02*
X110650D01*
X104350D02*
Y138575D01*
X110650D01*
Y135425D02*
Y138575D01*
X66390Y149520D02*
X75445Y158575D01*
X66390Y132984D02*
Y158575D01*
Y132984D02*
X80169D01*
Y158575D01*
X66390D02*
X80169D01*
X53425Y19201D02*
X56575D01*
Y25500D01*
X53425D02*
X56575D01*
X53425Y19201D02*
Y25500D01*
X41425D02*
X44575D01*
X41425Y19201D02*
Y25500D01*
Y19201D02*
X44575D01*
Y25500D01*
X35425D02*
X38575D01*
X35425Y19201D02*
Y25500D01*
Y19201D02*
X38575D01*
Y25500D01*
X71425Y90650D02*
X74575D01*
X71425Y84350D02*
Y90650D01*
Y84350D02*
X74575D01*
Y90650D01*
X52425D02*
X55575D01*
X52425Y84350D02*
Y90650D01*
Y84350D02*
X55575D01*
Y90650D01*
X32079Y135701D02*
Y148299D01*
X41921D01*
Y135701D02*
Y148299D01*
X32079Y135701D02*
X41921D01*
X110350Y106075D02*
X116650D01*
Y102925D02*
Y106075D01*
X110350Y102925D02*
X116650D01*
X110350D02*
Y106075D01*
X89701Y80579D02*
Y90421D01*
Y80579D02*
X102299D01*
Y90421D01*
X89701D02*
X102299D01*
X207799Y124079D02*
Y133921D01*
X195201D02*
X207799D01*
X195201Y124079D02*
Y133921D01*
Y124079D02*
X207799D01*
Y137079D02*
Y146921D01*
X195201D02*
X207799D01*
X195201Y137079D02*
Y146921D01*
Y137079D02*
X207799D01*
X140579Y69299D02*
X150421D01*
X140579Y56701D02*
Y69299D01*
Y56701D02*
X150421D01*
Y69299D01*
X153579Y56701D02*
X163421D01*
Y69299D01*
X153579D02*
X163421D01*
X153579Y56701D02*
Y69299D01*
X207799Y106079D02*
Y115921D01*
X195201D02*
X207799D01*
X195201Y106079D02*
Y115921D01*
Y106079D02*
X207799D01*
X246539Y137457D02*
X251461D01*
X246539Y129543D02*
Y137457D01*
Y129543D02*
X251461D01*
Y137457D01*
X144650Y43925D02*
Y47075D01*
X138350D02*
X144650D01*
X138350Y43925D02*
Y47075D01*
Y43925D02*
X144650D01*
Y29925D02*
Y33075D01*
X138350D02*
X144650D01*
X138350Y29925D02*
Y33075D01*
Y29925D02*
X144650D01*
Y36925D02*
Y40075D01*
X138350D02*
X144650D01*
X138350Y36925D02*
Y40075D01*
Y36925D02*
X144650D01*
X56350Y169925D02*
Y173075D01*
Y169925D02*
X62650D01*
Y173075D01*
X56350D02*
X62650D01*
X38150Y157925D02*
Y161075D01*
X31850D02*
X38150D01*
X31850Y157925D02*
Y161075D01*
Y157925D02*
X38150D01*
X129650Y36925D02*
Y40075D01*
X123350D02*
X129650D01*
X123350Y36925D02*
Y40075D01*
Y36925D02*
X129650D01*
Y29925D02*
Y33075D01*
X123350D02*
X129650D01*
X123350Y29925D02*
Y33075D01*
Y29925D02*
X129650D01*
Y43925D02*
Y47075D01*
X123350D02*
X129650D01*
X123350Y43925D02*
Y47075D01*
Y43925D02*
X129650D01*
X162425Y130150D02*
X165575D01*
X162425Y123850D02*
Y130150D01*
Y123850D02*
X165575D01*
Y130150D01*
X170850Y29925D02*
Y33075D01*
Y29925D02*
X177150D01*
Y33075D01*
X170850D02*
X177150D01*
X38150Y163925D02*
Y167075D01*
X31850D02*
X38150D01*
X31850Y163925D02*
Y167075D01*
Y163925D02*
X38150D01*
X144425Y123850D02*
X147575D01*
Y130150D01*
X144425D02*
X147575D01*
X144425Y123850D02*
Y130150D01*
X135150Y135425D02*
Y138575D01*
X128850D02*
X135150D01*
X128850Y135425D02*
Y138575D01*
Y135425D02*
X135150D01*
X128850Y141425D02*
Y144575D01*
Y141425D02*
X135150D01*
Y144575D01*
X128850D02*
X135150D01*
X31850Y172024D02*
X32902Y173075D01*
X31850Y169925D02*
Y173075D01*
Y169925D02*
X38150D01*
Y173075D01*
X31850D02*
X38150D01*
X44350Y172024D02*
X45402Y173075D01*
X44350Y169925D02*
Y173075D01*
Y169925D02*
X50650D01*
Y173075D01*
X44350D02*
X50650D01*
X32850Y52575D02*
X39150D01*
Y49425D02*
Y52575D01*
X32850Y49425D02*
X39150D01*
X32850D02*
Y52575D01*
X99850Y61425D02*
X106150D01*
X99850D02*
Y64575D01*
X106150D01*
Y61425D02*
Y64575D01*
X32850Y47575D02*
X39150D01*
Y44425D02*
Y47575D01*
X32850Y44425D02*
X39150D01*
X32850D02*
Y47575D01*
X110350Y101075D02*
X116650D01*
Y97925D02*
Y101075D01*
X110350Y97925D02*
X116650D01*
X110350D02*
Y101075D01*
X112425Y43925D02*
X118724D01*
X112425D02*
Y47075D01*
X118724D01*
Y43925D02*
Y47075D01*
X112425Y36925D02*
X118724D01*
X112425D02*
Y40075D01*
X118724D01*
Y36925D02*
Y40075D01*
X160075Y123850D02*
Y130150D01*
X156925Y123850D02*
X160075D01*
X156925D02*
Y130150D01*
X160075D01*
X139750Y141425D02*
X146050D01*
X139750D02*
Y144575D01*
X146050D01*
Y141425D02*
Y144575D01*
X35425Y30213D02*
X38575D01*
Y36512D01*
X35425D02*
X38575D01*
X35425Y30213D02*
Y36512D01*
X47425Y30213D02*
X50575D01*
Y36512D01*
X47425D02*
X50575D01*
X47425Y30213D02*
Y36512D01*
D11*
X102043Y-24D02*
X144957D01*
X102043D02*
Y19661D01*
X144957D01*
Y-24D02*
Y19661D01*
X-343Y39957D02*
X19342D01*
Y72043D01*
X-343D02*
X19342D01*
X-343Y39957D02*
Y72043D01*
X19842Y81661D02*
Y139339D01*
X158D02*
X19842D01*
X158Y81661D02*
Y139339D01*
Y81661D02*
X19842D01*
X158Y139339D02*
X19842D01*
X158Y81661D02*
Y139339D01*
Y81661D02*
X19842D01*
Y139339D01*
X150941Y144575D02*
X156059D01*
Y141425D02*
Y144575D01*
X150941Y141425D02*
X156059D01*
X150941D02*
Y144575D01*
X103642Y151642D02*
Y169358D01*
X121358D01*
Y151642D02*
Y169358D01*
X103642Y151642D02*
X121358D01*
X128142D02*
X145858D01*
Y169358D01*
X128142D02*
X145858D01*
X128142Y151642D02*
Y169358D01*
X238252Y63138D02*
X250457D01*
X238252Y48138D02*
Y63138D01*
Y48138D02*
X250457D01*
Y63138D01*
X51921Y112610D02*
Y126390D01*
X42079Y112610D02*
X51921D01*
X42079D02*
Y126390D01*
X51921D01*
X250457Y70638D02*
Y85638D01*
X238252Y70638D02*
X250457D01*
X238252D02*
Y85638D01*
X250457D01*
X31350Y3425D02*
Y6575D01*
X37650D01*
Y3425D02*
Y6575D01*
X31350Y3425D02*
X37650D01*
X107201Y93843D02*
X119799D01*
Y74158D02*
Y93843D01*
X107201Y74158D02*
X119799D01*
X107201D02*
Y93843D01*
D120*
X257921Y23658D02*
Y43343D01*
X277606D01*
Y23658D02*
Y43343D01*
X257921Y23658D02*
X277606D01*
X277217Y68158D02*
Y87843D01*
X257531Y68158D02*
X277217D01*
X257531D02*
Y87843D01*
X277217D01*
X257531Y65342D02*
X277217D01*
X257531Y45658D02*
Y65342D01*
Y45658D02*
X277217D01*
Y65342D01*
X257421Y90158D02*
Y109843D01*
X277106D01*
Y90158D02*
Y109843D01*
X257421Y90158D02*
X277106D01*
X257421Y112657D02*
Y132343D01*
X277106D01*
Y112657D02*
Y132343D01*
X257421Y112657D02*
X277106D01*
X257894Y154342D02*
X277579D01*
X257894Y134658D02*
Y154342D01*
Y134658D02*
X277579D01*
Y154342D01*
M02*
