G04*
G04 #@! TF.GenerationSoftware,Altium Limited,Altium Designer,21.0.8 (223)*
G04*
G04 Layer_Physical_Order=3*
G04 Layer_Color=16440176*
%FSLAX25Y25*%
%MOIN*%
G70*
G04*
G04 #@! TF.SameCoordinates,B676E1CA-0217-40F3-8002-BB03906CADE6*
G04*
G04*
G04 #@! TF.FilePolarity,Positive*
G04*
G01*
G75*
%ADD107C,0.02362*%
%ADD109C,0.01575*%
%ADD113O,0.05906X0.03937*%
%ADD114O,0.03937X0.05906*%
%ADD115C,0.03347*%
G36*
X174000Y176363D02*
X174000Y170357D01*
X173519Y170221D01*
X173295Y170586D01*
X172047Y172047D01*
X170586Y173295D01*
X168947Y174300D01*
X167171Y175035D01*
X165302Y175484D01*
X163386Y175635D01*
X161470Y175484D01*
X159601Y175035D01*
X157825Y174300D01*
X156186Y173295D01*
X154725Y172047D01*
X153476Y170586D01*
X152472Y168947D01*
X151737Y167171D01*
X151288Y165302D01*
X151137Y163386D01*
X151288Y161470D01*
X151737Y159601D01*
X152472Y157825D01*
X153476Y156186D01*
X154725Y154725D01*
X156186Y153476D01*
X157825Y152472D01*
X159601Y151737D01*
X161470Y151288D01*
X163386Y151137D01*
X165302Y151288D01*
X167171Y151737D01*
X168947Y152472D01*
X170586Y153476D01*
X172047Y154725D01*
X173295Y156186D01*
X173519Y156551D01*
X174000Y156415D01*
X174000Y105212D01*
Y104656D01*
X174000Y49000D01*
X136000Y49000D01*
Y51864D01*
X136387Y52182D01*
X136575Y52144D01*
X137231Y52275D01*
X137787Y52646D01*
X138158Y53202D01*
X138289Y53858D01*
X138158Y54514D01*
X137787Y55070D01*
X137231Y55442D01*
X136575Y55572D01*
X136387Y55535D01*
X136000Y55852D01*
Y56865D01*
X136387Y57182D01*
X136575Y57144D01*
X137231Y57275D01*
X137787Y57646D01*
X138158Y58202D01*
X138289Y58858D01*
X138158Y59514D01*
X137787Y60070D01*
X137231Y60442D01*
X136575Y60572D01*
X136387Y60535D01*
X136000Y60852D01*
Y61865D01*
X136387Y62182D01*
X136575Y62144D01*
X137231Y62275D01*
X137787Y62646D01*
X138158Y63202D01*
X138289Y63858D01*
X138158Y64514D01*
X137787Y65070D01*
X137231Y65442D01*
X136575Y65572D01*
X136387Y65535D01*
X136000Y65852D01*
Y66865D01*
X136387Y67182D01*
X136575Y67144D01*
X137231Y67275D01*
X137787Y67646D01*
X138158Y68202D01*
X138289Y68858D01*
X138158Y69514D01*
X137787Y70070D01*
X137231Y70442D01*
X136575Y70572D01*
X136387Y70535D01*
X136000Y70852D01*
Y71864D01*
X136387Y72182D01*
X136575Y72144D01*
X137231Y72275D01*
X137787Y72646D01*
X138158Y73202D01*
X138289Y73858D01*
X138158Y74514D01*
X137787Y75070D01*
X137231Y75442D01*
X136575Y75572D01*
X136387Y75535D01*
X136000Y75852D01*
Y76864D01*
X136387Y77182D01*
X136575Y77144D01*
X137231Y77275D01*
X137787Y77646D01*
X138158Y78202D01*
X138289Y78858D01*
X138158Y79514D01*
X137787Y80070D01*
X137231Y80442D01*
X136575Y80572D01*
X136387Y80535D01*
X136000Y80852D01*
X136000Y87000D01*
X123500Y99500D01*
X123500Y169385D01*
X123656Y169416D01*
X124212Y169788D01*
X124584Y170344D01*
X124714Y171000D01*
X124584Y171656D01*
X124212Y172212D01*
X123656Y172584D01*
X123500Y172615D01*
Y176363D01*
X174000Y176363D01*
D02*
G37*
G36*
X122500Y176363D02*
Y172615D01*
X122344Y172584D01*
X121788Y172212D01*
X121416Y171656D01*
X121286Y171000D01*
X121416Y170344D01*
X121788Y169788D01*
X122344Y169416D01*
X122500Y169385D01*
Y165817D01*
X122000Y165488D01*
X121575Y165572D01*
X120919Y165442D01*
X120363Y165070D01*
X119991Y164514D01*
X119861Y163858D01*
X119991Y163202D01*
X120363Y162646D01*
X120919Y162275D01*
X121575Y162144D01*
X122000Y162229D01*
X122500Y161899D01*
Y160818D01*
X122000Y160488D01*
X121575Y160572D01*
X120919Y160442D01*
X120363Y160070D01*
X119991Y159514D01*
X119861Y158858D01*
X119991Y158202D01*
X120363Y157646D01*
X120919Y157275D01*
X121575Y157144D01*
X122000Y157229D01*
X122500Y156899D01*
Y140409D01*
X122000Y140115D01*
X121500Y140214D01*
X120844Y140084D01*
X120288Y139712D01*
X119916Y139156D01*
X119786Y138500D01*
X119916Y137844D01*
X120288Y137288D01*
X120844Y136916D01*
X121500Y136786D01*
X122000Y136885D01*
X122500Y136591D01*
Y124708D01*
X122500Y118455D01*
X122407Y118354D01*
X122000Y118115D01*
X121500Y118214D01*
X120844Y118084D01*
X120288Y117712D01*
X119916Y117156D01*
X119786Y116500D01*
X119877Y116042D01*
X119416Y115796D01*
X115211Y120001D01*
Y121387D01*
X115220Y121410D01*
X115221Y121540D01*
X115227Y121810D01*
X115584Y122344D01*
X115714Y123000D01*
X115584Y123656D01*
X115212Y124212D01*
X114656Y124584D01*
X114000Y124714D01*
X113344Y124584D01*
X112788Y124212D01*
X112416Y123656D01*
X112286Y123000D01*
X112416Y122344D01*
X112757Y121835D01*
X112780Y121388D01*
X112789Y121369D01*
Y119500D01*
X112789Y119500D01*
X112882Y119037D01*
X113144Y118644D01*
X120789Y110998D01*
Y99000D01*
X120789Y99000D01*
X120881Y98537D01*
X121144Y98144D01*
X122500Y96788D01*
Y85817D01*
X122000Y85488D01*
X121575Y85572D01*
X120919Y85442D01*
X120363Y85070D01*
X119991Y84514D01*
X119861Y83858D01*
X119991Y83202D01*
X120363Y82646D01*
X120919Y82275D01*
X121575Y82144D01*
X122000Y82229D01*
X122500Y81899D01*
Y65817D01*
X122000Y65488D01*
X121575Y65572D01*
X120919Y65442D01*
X120363Y65070D01*
X119991Y64514D01*
X119861Y63858D01*
X119991Y63202D01*
X120363Y62646D01*
X120919Y62275D01*
X121575Y62144D01*
X122000Y62229D01*
X122500Y61899D01*
Y60817D01*
X122000Y60488D01*
X121575Y60572D01*
X120919Y60442D01*
X120363Y60070D01*
X119991Y59514D01*
X119861Y58858D01*
X119991Y58202D01*
X120363Y57646D01*
X120919Y57275D01*
X121575Y57144D01*
X122000Y57229D01*
X122500Y56899D01*
Y49000D01*
X113000D01*
X110667Y46667D01*
X110212Y46712D01*
X109656Y47084D01*
X109000Y47214D01*
X108344Y47084D01*
X107788Y46712D01*
X107416Y46156D01*
X107286Y45500D01*
X107416Y44844D01*
X107788Y44288D01*
X108344Y43916D01*
X109000Y43786D01*
X109500Y43885D01*
X110000Y43591D01*
Y40409D01*
X109500Y40115D01*
X109000Y40214D01*
X108344Y40084D01*
X107788Y39712D01*
X107416Y39156D01*
X107286Y38500D01*
X107416Y37844D01*
X107788Y37288D01*
X108344Y36916D01*
X109000Y36786D01*
X109500Y36885D01*
X110000Y36591D01*
Y33409D01*
X109500Y33115D01*
X109000Y33214D01*
X108344Y33084D01*
X107788Y32712D01*
X107416Y32156D01*
X107286Y31500D01*
X107416Y30844D01*
X107788Y30288D01*
X108344Y29916D01*
X109000Y29786D01*
X109500Y29885D01*
X110000Y29591D01*
Y16500D01*
X107949Y14449D01*
X107949Y3870D01*
Y803D01*
X12929D01*
X11242Y1025D01*
X9599Y1465D01*
X8028Y2116D01*
X6555Y2967D01*
X5205Y4002D01*
X4002Y5205D01*
X2967Y6555D01*
X2116Y8028D01*
X1465Y9599D01*
X1025Y11242D01*
X1000Y11431D01*
X1000Y165735D01*
X1025Y165923D01*
X1465Y167566D01*
X2116Y169138D01*
X2967Y170611D01*
X4002Y171960D01*
X5205Y173163D01*
X6555Y174199D01*
X8028Y175049D01*
X9599Y175700D01*
X11242Y176140D01*
X12929Y176363D01*
X13780D01*
X122500D01*
D02*
G37*
G36*
X267098Y140725D02*
X267033Y140633D01*
X266975Y140531D01*
X266926Y140419D01*
X266883Y140296D01*
X266849Y140162D01*
X266822Y140017D01*
X266820Y140002D01*
X266822Y139983D01*
X266849Y139838D01*
X266883Y139704D01*
X266926Y139581D01*
X266975Y139469D01*
X267033Y139367D01*
X267098Y139276D01*
X267171Y139195D01*
X264829D01*
X264902Y139276D01*
X264967Y139367D01*
X265024Y139469D01*
X265074Y139581D01*
X265117Y139704D01*
X265151Y139838D01*
X265178Y139983D01*
X265180Y139998D01*
X265178Y140017D01*
X265151Y140162D01*
X265117Y140296D01*
X265074Y140419D01*
X265024Y140531D01*
X264967Y140633D01*
X264902Y140725D01*
X264829Y140805D01*
X267171D01*
X267098Y140725D01*
D02*
G37*
G36*
X255715Y135750D02*
X255634Y135823D01*
X255543Y135888D01*
X255441Y135946D01*
X255328Y135996D01*
X255205Y136038D01*
X255071Y136072D01*
X254927Y136099D01*
X254771Y136118D01*
X254606Y136130D01*
X254429Y136134D01*
Y137709D01*
X254606Y137713D01*
X254927Y137743D01*
X255071Y137770D01*
X255205Y137805D01*
X255328Y137847D01*
X255441Y137897D01*
X255543Y137954D01*
X255634Y138020D01*
X255715Y138093D01*
Y135750D01*
D02*
G37*
G36*
X265983Y136327D02*
X265875Y136321D01*
X265764Y136303D01*
X265651Y136272D01*
X265536Y136227D01*
X265419Y136170D01*
X265300Y136100D01*
X265179Y136017D01*
X265056Y135921D01*
X264930Y135811D01*
X264803Y135689D01*
X263689Y136803D01*
X263811Y136930D01*
X264017Y137179D01*
X264100Y137300D01*
X264170Y137419D01*
X264227Y137536D01*
X264272Y137651D01*
X264303Y137764D01*
X264321Y137875D01*
X264327Y137983D01*
X265983Y136327D01*
D02*
G37*
G36*
X279189Y128803D02*
X279124Y128712D01*
X279066Y128610D01*
X279016Y128498D01*
X278974Y128374D01*
X278939Y128241D01*
X278912Y128096D01*
X278893Y127941D01*
X278882Y127775D01*
X278878Y127598D01*
X277303D01*
X277299Y127775D01*
X277269Y128096D01*
X277242Y128241D01*
X277207Y128374D01*
X277165Y128498D01*
X277115Y128610D01*
X277058Y128712D01*
X276992Y128803D01*
X276919Y128884D01*
X279262D01*
X279189Y128803D01*
D02*
G37*
G36*
X114819Y122142D02*
X114813Y122114D01*
X114807Y122073D01*
X114797Y121951D01*
X114788Y121546D01*
X114787Y121411D01*
X113213D01*
X113173Y122157D01*
X114827D01*
X114819Y122142D01*
D02*
G37*
G36*
X178276Y113598D02*
X178367Y113533D01*
X178469Y113476D01*
X178581Y113426D01*
X178704Y113383D01*
X178838Y113349D01*
X178983Y113322D01*
X179138Y113303D01*
X179304Y113291D01*
X179480Y113287D01*
Y111713D01*
X179304Y111709D01*
X178983Y111678D01*
X178838Y111651D01*
X178704Y111617D01*
X178581Y111574D01*
X178469Y111524D01*
X178367Y111467D01*
X178276Y111402D01*
X178195Y111329D01*
Y113671D01*
X178276Y113598D01*
D02*
G37*
G36*
Y109598D02*
X178367Y109533D01*
X178469Y109476D01*
X178581Y109426D01*
X178704Y109383D01*
X178838Y109349D01*
X178983Y109322D01*
X179138Y109303D01*
X179304Y109291D01*
X179480Y109287D01*
Y107713D01*
X179304Y107709D01*
X178983Y107678D01*
X178838Y107651D01*
X178704Y107617D01*
X178581Y107574D01*
X178469Y107525D01*
X178367Y107467D01*
X178276Y107402D01*
X178195Y107329D01*
Y109671D01*
X178276Y109598D01*
D02*
G37*
G36*
X279189Y106303D02*
X279124Y106212D01*
X279066Y106110D01*
X279016Y105998D01*
X278974Y105874D01*
X278939Y105740D01*
X278912Y105596D01*
X278893Y105441D01*
X278882Y105275D01*
X278878Y105098D01*
X277303D01*
X277299Y105275D01*
X277269Y105596D01*
X277242Y105740D01*
X277207Y105874D01*
X277165Y105998D01*
X277115Y106110D01*
X277058Y106212D01*
X276992Y106303D01*
X276919Y106384D01*
X279262D01*
X279189Y106303D01*
D02*
G37*
G36*
X178276Y105598D02*
X178367Y105533D01*
X178469Y105475D01*
X178581Y105426D01*
X178704Y105383D01*
X178838Y105349D01*
X178983Y105322D01*
X179138Y105303D01*
X179304Y105291D01*
X179480Y105287D01*
Y103713D01*
X179304Y103709D01*
X178983Y103678D01*
X178838Y103651D01*
X178704Y103617D01*
X178581Y103574D01*
X178469Y103524D01*
X178367Y103467D01*
X178276Y103402D01*
X178195Y103329D01*
Y105671D01*
X178276Y105598D01*
D02*
G37*
G36*
Y101598D02*
X178367Y101533D01*
X178469Y101476D01*
X178581Y101426D01*
X178704Y101383D01*
X178838Y101349D01*
X178983Y101322D01*
X179138Y101303D01*
X179304Y101291D01*
X179480Y101287D01*
Y99713D01*
X179304Y99709D01*
X178983Y99678D01*
X178838Y99651D01*
X178704Y99617D01*
X178581Y99574D01*
X178469Y99524D01*
X178367Y99467D01*
X178276Y99402D01*
X178195Y99329D01*
Y101671D01*
X178276Y101598D01*
D02*
G37*
G36*
Y97598D02*
X178367Y97533D01*
X178469Y97475D01*
X178581Y97426D01*
X178704Y97383D01*
X178838Y97349D01*
X178983Y97322D01*
X179138Y97303D01*
X179304Y97291D01*
X179480Y97287D01*
Y95713D01*
X179304Y95709D01*
X178983Y95678D01*
X178838Y95651D01*
X178704Y95617D01*
X178581Y95574D01*
X178469Y95525D01*
X178367Y95467D01*
X178276Y95402D01*
X178195Y95329D01*
Y97671D01*
X178276Y97598D01*
D02*
G37*
G36*
Y93598D02*
X178367Y93533D01*
X178469Y93476D01*
X178581Y93426D01*
X178704Y93383D01*
X178838Y93349D01*
X178983Y93322D01*
X179138Y93303D01*
X179304Y93291D01*
X179480Y93287D01*
Y91713D01*
X179304Y91709D01*
X178983Y91678D01*
X178838Y91651D01*
X178704Y91617D01*
X178581Y91574D01*
X178469Y91524D01*
X178367Y91467D01*
X178276Y91402D01*
X178195Y91329D01*
Y93671D01*
X178276Y93598D01*
D02*
G37*
G36*
Y89598D02*
X178367Y89533D01*
X178469Y89476D01*
X178581Y89426D01*
X178704Y89383D01*
X178838Y89349D01*
X178983Y89322D01*
X179138Y89303D01*
X179304Y89291D01*
X179480Y89287D01*
Y87713D01*
X179304Y87709D01*
X178983Y87678D01*
X178838Y87651D01*
X178704Y87617D01*
X178581Y87574D01*
X178469Y87524D01*
X178367Y87467D01*
X178276Y87402D01*
X178195Y87329D01*
Y89671D01*
X178276Y89598D01*
D02*
G37*
G36*
X264443Y83329D02*
X264362Y83402D01*
X264271Y83467D01*
X264169Y83525D01*
X264057Y83574D01*
X263933Y83617D01*
X263800Y83651D01*
X263655Y83678D01*
X263500Y83697D01*
X263334Y83709D01*
X263158Y83713D01*
Y85287D01*
X263334Y85291D01*
X263655Y85322D01*
X263800Y85349D01*
X263933Y85383D01*
X264057Y85426D01*
X264169Y85475D01*
X264271Y85533D01*
X264362Y85598D01*
X264443Y85671D01*
Y83329D01*
D02*
G37*
G36*
X178276Y85598D02*
X178367Y85533D01*
X178469Y85475D01*
X178581Y85426D01*
X178704Y85383D01*
X178838Y85349D01*
X178983Y85322D01*
X179138Y85303D01*
X179304Y85291D01*
X179480Y85287D01*
Y83713D01*
X179304Y83709D01*
X178983Y83678D01*
X178838Y83651D01*
X178704Y83617D01*
X178581Y83574D01*
X178469Y83525D01*
X178367Y83467D01*
X178276Y83402D01*
X178195Y83329D01*
Y85671D01*
X178276Y85598D01*
D02*
G37*
G36*
X266736Y83224D02*
X266671Y83133D01*
X266613Y83031D01*
X266563Y82919D01*
X266521Y82796D01*
X266487Y82662D01*
X266460Y82517D01*
X266458Y82502D01*
X266460Y82483D01*
X266487Y82338D01*
X266521Y82204D01*
X266563Y82081D01*
X266613Y81969D01*
X266671Y81867D01*
X266736Y81775D01*
X266809Y81695D01*
X264467D01*
X264540Y81775D01*
X264605Y81867D01*
X264662Y81969D01*
X264712Y82081D01*
X264754Y82204D01*
X264789Y82338D01*
X264816Y82483D01*
X264818Y82498D01*
X264816Y82517D01*
X264789Y82662D01*
X264754Y82796D01*
X264712Y82919D01*
X264662Y83031D01*
X264605Y83133D01*
X264540Y83224D01*
X264467Y83305D01*
X266809D01*
X266736Y83224D01*
D02*
G37*
G36*
X178276Y81598D02*
X178367Y81533D01*
X178469Y81476D01*
X178581Y81426D01*
X178704Y81383D01*
X178838Y81349D01*
X178983Y81322D01*
X179138Y81303D01*
X179304Y81291D01*
X179480Y81287D01*
Y79713D01*
X179304Y79709D01*
X178983Y79678D01*
X178838Y79651D01*
X178704Y79617D01*
X178581Y79574D01*
X178469Y79524D01*
X178367Y79467D01*
X178276Y79402D01*
X178195Y79329D01*
Y81671D01*
X178276Y81598D01*
D02*
G37*
G36*
Y77598D02*
X178367Y77533D01*
X178469Y77476D01*
X178581Y77426D01*
X178704Y77383D01*
X178838Y77349D01*
X178983Y77322D01*
X179138Y77303D01*
X179304Y77291D01*
X179480Y77287D01*
Y75713D01*
X179304Y75709D01*
X178983Y75678D01*
X178838Y75651D01*
X178704Y75617D01*
X178581Y75574D01*
X178469Y75524D01*
X178367Y75467D01*
X178276Y75402D01*
X178195Y75329D01*
Y77671D01*
X178276Y77598D01*
D02*
G37*
G36*
X249327Y72190D02*
X247673D01*
X247681Y72204D01*
X247687Y72232D01*
X247693Y72273D01*
X247703Y72396D01*
X247712Y72801D01*
X247713Y72935D01*
X249287D01*
X249327Y72190D01*
D02*
G37*
G36*
X257339Y72725D02*
X257369Y72404D01*
X257396Y72259D01*
X257431Y72126D01*
X257473Y72002D01*
X257523Y71890D01*
X257580Y71788D01*
X257646Y71697D01*
X257718Y71616D01*
X255376D01*
X255449Y71697D01*
X255514Y71788D01*
X255572Y71890D01*
X255622Y72002D01*
X255664Y72126D01*
X255698Y72259D01*
X255725Y72404D01*
X255745Y72559D01*
X255756Y72725D01*
X255760Y72902D01*
X257335D01*
X257339Y72725D01*
D02*
G37*
G36*
X178276Y73598D02*
X178367Y73533D01*
X178469Y73475D01*
X178581Y73426D01*
X178704Y73383D01*
X178838Y73349D01*
X178983Y73322D01*
X179138Y73303D01*
X179304Y73291D01*
X179480Y73287D01*
Y71713D01*
X179304Y71709D01*
X178983Y71678D01*
X178838Y71651D01*
X178704Y71617D01*
X178581Y71574D01*
X178469Y71525D01*
X178367Y71467D01*
X178276Y71402D01*
X178195Y71329D01*
Y73671D01*
X178276Y73598D01*
D02*
G37*
G36*
X239365Y70520D02*
X239351Y70527D01*
X239323Y70534D01*
X239282Y70540D01*
X239159Y70549D01*
X238754Y70559D01*
X238620Y70559D01*
Y72134D01*
X239365Y72173D01*
Y70520D01*
D02*
G37*
G36*
X178276Y69598D02*
X178367Y69533D01*
X178469Y69476D01*
X178581Y69426D01*
X178704Y69383D01*
X178838Y69349D01*
X178983Y69322D01*
X179138Y69303D01*
X179304Y69291D01*
X179480Y69287D01*
Y67713D01*
X179304Y67709D01*
X178983Y67678D01*
X178838Y67651D01*
X178704Y67617D01*
X178581Y67574D01*
X178469Y67524D01*
X178367Y67467D01*
X178276Y67402D01*
X178195Y67329D01*
Y69671D01*
X178276Y69598D01*
D02*
G37*
G36*
Y65598D02*
X178367Y65533D01*
X178469Y65475D01*
X178581Y65426D01*
X178704Y65383D01*
X178838Y65349D01*
X178983Y65322D01*
X179138Y65303D01*
X179304Y65291D01*
X179480Y65287D01*
Y63713D01*
X179304Y63709D01*
X178983Y63678D01*
X178838Y63651D01*
X178704Y63617D01*
X178581Y63574D01*
X178469Y63525D01*
X178367Y63467D01*
X178276Y63402D01*
X178195Y63329D01*
Y65671D01*
X178276Y65598D01*
D02*
G37*
G36*
X134827Y50344D02*
X133173D01*
X133181Y50358D01*
X133187Y50386D01*
X133193Y50427D01*
X133203Y50549D01*
X133212Y50954D01*
X133213Y51089D01*
X134787D01*
X134827Y50344D01*
D02*
G37*
G36*
X266736Y51724D02*
X266671Y51633D01*
X266613Y51531D01*
X266563Y51419D01*
X266521Y51296D01*
X266487Y51162D01*
X266460Y51017D01*
X266458Y51002D01*
X266460Y50983D01*
X266487Y50838D01*
X266521Y50704D01*
X266563Y50581D01*
X266613Y50469D01*
X266671Y50367D01*
X266736Y50275D01*
X266809Y50195D01*
X264467D01*
X264540Y50275D01*
X264605Y50367D01*
X264662Y50469D01*
X264712Y50581D01*
X264754Y50704D01*
X264789Y50838D01*
X264816Y50983D01*
X264818Y50998D01*
X264816Y51017D01*
X264789Y51162D01*
X264754Y51296D01*
X264712Y51419D01*
X264662Y51531D01*
X264605Y51633D01*
X264540Y51724D01*
X264467Y51805D01*
X266809D01*
X266736Y51724D01*
D02*
G37*
G36*
X239365Y48020D02*
X239351Y48027D01*
X239323Y48034D01*
X239282Y48040D01*
X239159Y48049D01*
X238754Y48059D01*
X238620Y48059D01*
Y49634D01*
X239365Y49673D01*
Y48020D01*
D02*
G37*
G36*
X248488Y47665D02*
X248473Y47660D01*
X248448Y47646D01*
X248415Y47621D01*
X248322Y47541D01*
X248029Y47261D01*
X247933Y47166D01*
X246820Y48280D01*
X247319Y48835D01*
X248488Y47665D01*
D02*
G37*
G36*
X265621Y47327D02*
X265512Y47321D01*
X265402Y47303D01*
X265289Y47272D01*
X265174Y47227D01*
X265057Y47170D01*
X264938Y47100D01*
X264817Y47017D01*
X264694Y46921D01*
X264568Y46812D01*
X264441Y46689D01*
X263327Y47803D01*
X263449Y47930D01*
X263655Y48179D01*
X263738Y48300D01*
X263808Y48419D01*
X263865Y48536D01*
X263910Y48651D01*
X263941Y48764D01*
X263959Y48875D01*
X263965Y48983D01*
X265621Y47327D01*
D02*
G37*
G36*
X256575Y46248D02*
X256467Y46240D01*
X256357Y46219D01*
X256245Y46186D01*
X256131Y46140D01*
X256014Y46081D01*
X255896Y46009D01*
X255775Y45925D01*
X255652Y45828D01*
X255399Y45597D01*
X254252Y46676D01*
X254374Y46804D01*
X254578Y47053D01*
X254660Y47175D01*
X254729Y47294D01*
X254785Y47411D01*
X254827Y47526D01*
X254857Y47640D01*
X254872Y47751D01*
X254875Y47860D01*
X256575Y46248D01*
D02*
G37*
G36*
X133157Y44673D02*
X133142Y44681D01*
X133114Y44687D01*
X133073Y44693D01*
X132951Y44703D01*
X132546Y44712D01*
X132411Y44713D01*
Y46287D01*
X133157Y46327D01*
Y44673D01*
D02*
G37*
G36*
X279689Y39803D02*
X279624Y39712D01*
X279566Y39610D01*
X279516Y39498D01*
X279474Y39374D01*
X279439Y39241D01*
X279413Y39096D01*
X279393Y38941D01*
X279382Y38775D01*
X279378Y38598D01*
X277803D01*
X277799Y38775D01*
X277769Y39096D01*
X277742Y39241D01*
X277707Y39374D01*
X277665Y39498D01*
X277615Y39610D01*
X277557Y39712D01*
X277492Y39803D01*
X277419Y39884D01*
X279762D01*
X279689Y39803D01*
D02*
G37*
G36*
X133988Y37319D02*
X133973Y37314D01*
X133948Y37299D01*
X133915Y37274D01*
X133822Y37194D01*
X133529Y36915D01*
X133433Y36820D01*
X132320Y37933D01*
X132819Y38488D01*
X133988Y37319D01*
D02*
G37*
G36*
X135680Y32067D02*
X135181Y31512D01*
X134012Y32681D01*
X134027Y32686D01*
X134052Y32701D01*
X134085Y32726D01*
X134178Y32806D01*
X134471Y33085D01*
X134567Y33180D01*
X135680Y32067D01*
D02*
G37*
G36*
X134392Y26386D02*
X134372Y26372D01*
X134354Y26344D01*
X134339Y26304D01*
X134325Y26250D01*
X134313Y26182D01*
X134304Y26102D01*
X134292Y25900D01*
X134287Y25646D01*
X132713Y25721D01*
X132899Y27072D01*
X134392Y26386D01*
D02*
G37*
G36*
X134327Y17344D02*
X132673D01*
X132681Y17358D01*
X132687Y17386D01*
X132693Y17427D01*
X132703Y17549D01*
X132712Y17954D01*
X132713Y18089D01*
X134287D01*
X134327Y17344D01*
D02*
G37*
G36*
X129327D02*
X127673D01*
X127681Y17358D01*
X127687Y17386D01*
X127693Y17427D01*
X127703Y17549D01*
X127712Y17954D01*
X127713Y18089D01*
X129287D01*
X129327Y17344D01*
D02*
G37*
G36*
X124327D02*
X122673D01*
X122681Y17358D01*
X122687Y17386D01*
X122693Y17427D01*
X122703Y17549D01*
X122712Y17954D01*
X122713Y18089D01*
X124287D01*
X124327Y17344D01*
D02*
G37*
G36*
X119327D02*
X117673D01*
X117681Y17358D01*
X117687Y17386D01*
X117693Y17427D01*
X117703Y17549D01*
X117712Y17954D01*
X117713Y18089D01*
X119287D01*
X119327Y17344D01*
D02*
G37*
G36*
X134319Y15642D02*
X134313Y15614D01*
X134307Y15573D01*
X134297Y15451D01*
X134288Y15046D01*
X134287Y14911D01*
X132713D01*
X132673Y15656D01*
X134327D01*
X134319Y15642D01*
D02*
G37*
G36*
X129319D02*
X129313Y15614D01*
X129307Y15573D01*
X129297Y15451D01*
X129288Y15046D01*
X129287Y14911D01*
X127713D01*
X127673Y15656D01*
X129327D01*
X129319Y15642D01*
D02*
G37*
G36*
X124319D02*
X124313Y15614D01*
X124307Y15573D01*
X124297Y15451D01*
X124288Y15046D01*
X124287Y14911D01*
X122713D01*
X122673Y15656D01*
X124327D01*
X124319Y15642D01*
D02*
G37*
G36*
X119319D02*
X119313Y15614D01*
X119307Y15573D01*
X119297Y15451D01*
X119288Y15046D01*
X119287Y14911D01*
X117713D01*
X117673Y15656D01*
X119327D01*
X119319Y15642D01*
D02*
G37*
G36*
X134295Y12930D02*
X134357Y12222D01*
X134412Y11935D01*
X134482Y11692D01*
X134567Y11492D01*
X134669Y11338D01*
X134785Y11227D01*
X134917Y11161D01*
X135065Y11139D01*
X131935D01*
X132082Y11161D01*
X132215Y11227D01*
X132331Y11338D01*
X132433Y11492D01*
X132518Y11692D01*
X132588Y11935D01*
X132643Y12222D01*
X132682Y12554D01*
X132705Y12930D01*
X132713Y13351D01*
X134287D01*
X134295Y12930D01*
D02*
G37*
G36*
X129295D02*
X129357Y12222D01*
X129412Y11935D01*
X129482Y11692D01*
X129567Y11492D01*
X129669Y11338D01*
X129785Y11227D01*
X129918Y11161D01*
X130065Y11139D01*
X126935D01*
X127083Y11161D01*
X127215Y11227D01*
X127331Y11338D01*
X127433Y11492D01*
X127518Y11692D01*
X127588Y11935D01*
X127643Y12222D01*
X127682Y12554D01*
X127705Y12930D01*
X127713Y13351D01*
X129287D01*
X129295Y12930D01*
D02*
G37*
G36*
X124295D02*
X124357Y12222D01*
X124412Y11935D01*
X124482Y11692D01*
X124567Y11492D01*
X124669Y11338D01*
X124785Y11227D01*
X124917Y11161D01*
X125065Y11139D01*
X121935D01*
X122082Y11161D01*
X122215Y11227D01*
X122331Y11338D01*
X122433Y11492D01*
X122518Y11692D01*
X122588Y11935D01*
X122643Y12222D01*
X122681Y12554D01*
X122705Y12930D01*
X122713Y13351D01*
X124287D01*
X124295Y12930D01*
D02*
G37*
G36*
X119295D02*
X119357Y12222D01*
X119412Y11935D01*
X119482Y11692D01*
X119567Y11492D01*
X119669Y11338D01*
X119785Y11227D01*
X119918Y11161D01*
X120065Y11139D01*
X116935D01*
X117083Y11161D01*
X117215Y11227D01*
X117331Y11338D01*
X117433Y11492D01*
X117518Y11692D01*
X117588Y11935D01*
X117643Y12222D01*
X117682Y12554D01*
X117705Y12930D01*
X117713Y13351D01*
X119287D01*
X119295Y12930D01*
D02*
G37*
%LPC*%
G36*
X151575Y175572D02*
X150919Y175442D01*
X150363Y175070D01*
X149991Y174514D01*
X149861Y173858D01*
X149991Y173202D01*
X150363Y172646D01*
X150919Y172275D01*
X151575Y172144D01*
X152231Y172275D01*
X152787Y172646D01*
X153158Y173202D01*
X153289Y173858D01*
X153158Y174514D01*
X152787Y175070D01*
X152231Y175442D01*
X151575Y175572D01*
D02*
G37*
G36*
X136575D02*
X135919Y175442D01*
X135363Y175070D01*
X134991Y174514D01*
X134861Y173858D01*
X134991Y173202D01*
X135363Y172646D01*
X135919Y172275D01*
X136575Y172144D01*
X137231Y172275D01*
X137787Y172646D01*
X138158Y173202D01*
X138289Y173858D01*
X138158Y174514D01*
X137787Y175070D01*
X137231Y175442D01*
X136575Y175572D01*
D02*
G37*
G36*
X126575D02*
X125919Y175442D01*
X125363Y175070D01*
X124991Y174514D01*
X124861Y173858D01*
X124991Y173202D01*
X125363Y172646D01*
X125919Y172275D01*
X126575Y172144D01*
X127231Y172275D01*
X127787Y172646D01*
X128158Y173202D01*
X128289Y173858D01*
X128158Y174514D01*
X127787Y175070D01*
X127231Y175442D01*
X126575Y175572D01*
D02*
G37*
G36*
X147500Y172714D02*
X146844Y172584D01*
X146288Y172212D01*
X145916Y171656D01*
X145786Y171000D01*
X145916Y170344D01*
X146288Y169788D01*
X146844Y169416D01*
X147500Y169286D01*
X148156Y169416D01*
X148712Y169788D01*
X149084Y170344D01*
X149214Y171000D01*
X149084Y171656D01*
X148712Y172212D01*
X148156Y172584D01*
X147500Y172714D01*
D02*
G37*
G36*
X136575Y170572D02*
X135919Y170442D01*
X135363Y170070D01*
X134991Y169514D01*
X134861Y168858D01*
X134991Y168202D01*
X135363Y167646D01*
X135919Y167275D01*
X136575Y167144D01*
X137231Y167275D01*
X137787Y167646D01*
X138158Y168202D01*
X138289Y168858D01*
X138158Y169514D01*
X137787Y170070D01*
X137231Y170442D01*
X136575Y170572D01*
D02*
G37*
G36*
X126575D02*
X125919Y170442D01*
X125363Y170070D01*
X124991Y169514D01*
X124861Y168858D01*
X124991Y168202D01*
X125363Y167646D01*
X125919Y167275D01*
X126575Y167144D01*
X127231Y167275D01*
X127787Y167646D01*
X128158Y168202D01*
X128289Y168858D01*
X128158Y169514D01*
X127787Y170070D01*
X127231Y170442D01*
X126575Y170572D01*
D02*
G37*
G36*
X146575Y165572D02*
X145919Y165442D01*
X145363Y165070D01*
X144991Y164514D01*
X144861Y163858D01*
X144991Y163202D01*
X145363Y162646D01*
X145919Y162275D01*
X146575Y162144D01*
X147231Y162275D01*
X147787Y162646D01*
X148158Y163202D01*
X148289Y163858D01*
X148158Y164514D01*
X147787Y165070D01*
X147231Y165442D01*
X146575Y165572D01*
D02*
G37*
G36*
X141575D02*
X140919Y165442D01*
X140363Y165070D01*
X139991Y164514D01*
X139861Y163858D01*
X139991Y163202D01*
X140363Y162646D01*
X140919Y162275D01*
X141575Y162144D01*
X142231Y162275D01*
X142787Y162646D01*
X143158Y163202D01*
X143289Y163858D01*
X143158Y164514D01*
X142787Y165070D01*
X142231Y165442D01*
X141575Y165572D01*
D02*
G37*
G36*
X136575D02*
X135919Y165442D01*
X135363Y165070D01*
X134991Y164514D01*
X134861Y163858D01*
X134991Y163202D01*
X135363Y162646D01*
X135919Y162275D01*
X136575Y162144D01*
X137231Y162275D01*
X137787Y162646D01*
X138158Y163202D01*
X138289Y163858D01*
X138158Y164514D01*
X137787Y165070D01*
X137231Y165442D01*
X136575Y165572D01*
D02*
G37*
G36*
X126575D02*
X125919Y165442D01*
X125363Y165070D01*
X124991Y164514D01*
X124861Y163858D01*
X124991Y163202D01*
X125363Y162646D01*
X125919Y162275D01*
X126575Y162144D01*
X127231Y162275D01*
X127787Y162646D01*
X128158Y163202D01*
X128289Y163858D01*
X128158Y164514D01*
X127787Y165070D01*
X127231Y165442D01*
X126575Y165572D01*
D02*
G37*
G36*
X146575Y160572D02*
X145919Y160442D01*
X145363Y160070D01*
X144991Y159514D01*
X144861Y158858D01*
X144991Y158202D01*
X145363Y157646D01*
X145919Y157275D01*
X146575Y157144D01*
X147231Y157275D01*
X147787Y157646D01*
X148158Y158202D01*
X148289Y158858D01*
X148158Y159514D01*
X147787Y160070D01*
X147231Y160442D01*
X146575Y160572D01*
D02*
G37*
G36*
X141575D02*
X140919Y160442D01*
X140363Y160070D01*
X139991Y159514D01*
X139861Y158858D01*
X139991Y158202D01*
X140363Y157646D01*
X140919Y157275D01*
X141575Y157144D01*
X142231Y157275D01*
X142787Y157646D01*
X143158Y158202D01*
X143289Y158858D01*
X143158Y159514D01*
X142787Y160070D01*
X142231Y160442D01*
X141575Y160572D01*
D02*
G37*
G36*
X136575D02*
X135919Y160442D01*
X135363Y160070D01*
X134991Y159514D01*
X134861Y158858D01*
X134991Y158202D01*
X135363Y157646D01*
X135919Y157275D01*
X136575Y157144D01*
X137231Y157275D01*
X137787Y157646D01*
X138158Y158202D01*
X138289Y158858D01*
X138158Y159514D01*
X137787Y160070D01*
X137231Y160442D01*
X136575Y160572D01*
D02*
G37*
G36*
X126575D02*
X125919Y160442D01*
X125363Y160070D01*
X124991Y159514D01*
X124861Y158858D01*
X124991Y158202D01*
X125363Y157646D01*
X125919Y157275D01*
X126575Y157144D01*
X127231Y157275D01*
X127787Y157646D01*
X128158Y158202D01*
X128289Y158858D01*
X128158Y159514D01*
X127787Y160070D01*
X127231Y160442D01*
X126575Y160572D01*
D02*
G37*
G36*
X151575Y155572D02*
X150919Y155442D01*
X150363Y155070D01*
X149991Y154514D01*
X149861Y153858D01*
X149991Y153202D01*
X150363Y152646D01*
X150919Y152275D01*
X151575Y152144D01*
X152231Y152275D01*
X152787Y152646D01*
X153158Y153202D01*
X153289Y153858D01*
X153158Y154514D01*
X152787Y155070D01*
X152231Y155442D01*
X151575Y155572D01*
D02*
G37*
G36*
X136575D02*
X135919Y155442D01*
X135363Y155070D01*
X134991Y154514D01*
X134861Y153858D01*
X134991Y153202D01*
X135363Y152646D01*
X135919Y152275D01*
X136575Y152144D01*
X137231Y152275D01*
X137787Y152646D01*
X138158Y153202D01*
X138289Y153858D01*
X138158Y154514D01*
X137787Y155070D01*
X137231Y155442D01*
X136575Y155572D01*
D02*
G37*
G36*
X126575D02*
X125919Y155442D01*
X125363Y155070D01*
X124991Y154514D01*
X124861Y153858D01*
X124991Y153202D01*
X125363Y152646D01*
X125919Y152275D01*
X126575Y152144D01*
X127231Y152275D01*
X127787Y152646D01*
X128158Y153202D01*
X128289Y153858D01*
X128158Y154514D01*
X127787Y155070D01*
X127231Y155442D01*
X126575Y155572D01*
D02*
G37*
G36*
X147500Y151714D02*
X146844Y151584D01*
X146288Y151212D01*
X145916Y150656D01*
X145786Y150000D01*
X145916Y149344D01*
X146288Y148788D01*
X146844Y148416D01*
X147500Y148286D01*
X148156Y148416D01*
X148712Y148788D01*
X149084Y149344D01*
X149214Y150000D01*
X149084Y150656D01*
X148712Y151212D01*
X148156Y151584D01*
X147500Y151714D01*
D02*
G37*
G36*
X166575Y150572D02*
X165919Y150442D01*
X165363Y150070D01*
X164991Y149514D01*
X164861Y148858D01*
X164991Y148202D01*
X165363Y147646D01*
X165919Y147275D01*
X166575Y147144D01*
X167231Y147275D01*
X167787Y147646D01*
X168158Y148202D01*
X168289Y148858D01*
X168158Y149514D01*
X167787Y150070D01*
X167231Y150442D01*
X166575Y150572D01*
D02*
G37*
G36*
X161575D02*
X160919Y150442D01*
X160363Y150070D01*
X159991Y149514D01*
X159861Y148858D01*
X159991Y148202D01*
X160363Y147646D01*
X160919Y147275D01*
X161575Y147144D01*
X162231Y147275D01*
X162787Y147646D01*
X163158Y148202D01*
X163289Y148858D01*
X163158Y149514D01*
X162787Y150070D01*
X162231Y150442D01*
X161575Y150572D01*
D02*
G37*
G36*
X156575D02*
X155919Y150442D01*
X155363Y150070D01*
X154991Y149514D01*
X154861Y148858D01*
X154991Y148202D01*
X155363Y147646D01*
X155919Y147275D01*
X156575Y147144D01*
X157231Y147275D01*
X157787Y147646D01*
X158158Y148202D01*
X158289Y148858D01*
X158158Y149514D01*
X157787Y150070D01*
X157231Y150442D01*
X156575Y150572D01*
D02*
G37*
G36*
X151575D02*
X150919Y150442D01*
X150363Y150070D01*
X149991Y149514D01*
X149861Y148858D01*
X149991Y148202D01*
X150363Y147646D01*
X150919Y147275D01*
X151575Y147144D01*
X152231Y147275D01*
X152787Y147646D01*
X153158Y148202D01*
X153289Y148858D01*
X153158Y149514D01*
X152787Y150070D01*
X152231Y150442D01*
X151575Y150572D01*
D02*
G37*
G36*
X136575D02*
X135919Y150442D01*
X135363Y150070D01*
X134991Y149514D01*
X134861Y148858D01*
X134991Y148202D01*
X135363Y147646D01*
X135919Y147275D01*
X136575Y147144D01*
X137231Y147275D01*
X137787Y147646D01*
X138158Y148202D01*
X138289Y148858D01*
X138158Y149514D01*
X137787Y150070D01*
X137231Y150442D01*
X136575Y150572D01*
D02*
G37*
G36*
X126575D02*
X125919Y150442D01*
X125363Y150070D01*
X124991Y149514D01*
X124861Y148858D01*
X124991Y148202D01*
X125363Y147646D01*
X125919Y147275D01*
X126575Y147144D01*
X127231Y147275D01*
X127787Y147646D01*
X128158Y148202D01*
X128289Y148858D01*
X128158Y149514D01*
X127787Y150070D01*
X127231Y150442D01*
X126575Y150572D01*
D02*
G37*
G36*
X161575Y140572D02*
X160919Y140442D01*
X160363Y140070D01*
X159991Y139514D01*
X159861Y138858D01*
X159991Y138202D01*
X160363Y137646D01*
X160919Y137275D01*
X161575Y137144D01*
X162231Y137275D01*
X162787Y137646D01*
X163158Y138202D01*
X163289Y138858D01*
X163158Y139514D01*
X162787Y140070D01*
X162231Y140442D01*
X161575Y140572D01*
D02*
G37*
G36*
X156575D02*
X155919Y140442D01*
X155363Y140070D01*
X154991Y139514D01*
X154861Y138858D01*
X154991Y138202D01*
X155363Y137646D01*
X155919Y137275D01*
X156575Y137144D01*
X157231Y137275D01*
X157787Y137646D01*
X158158Y138202D01*
X158289Y138858D01*
X158158Y139514D01*
X157787Y140070D01*
X157231Y140442D01*
X156575Y140572D01*
D02*
G37*
G36*
X146575D02*
X145919Y140442D01*
X145363Y140070D01*
X144991Y139514D01*
X144861Y138858D01*
X144991Y138202D01*
X145363Y137646D01*
X145919Y137275D01*
X146575Y137144D01*
X147231Y137275D01*
X147787Y137646D01*
X148158Y138202D01*
X148289Y138858D01*
X148158Y139514D01*
X147787Y140070D01*
X147231Y140442D01*
X146575Y140572D01*
D02*
G37*
G36*
X170000Y136214D02*
X169344Y136084D01*
X168788Y135712D01*
X168416Y135156D01*
X168286Y134500D01*
X168416Y133844D01*
X168788Y133288D01*
X169344Y132916D01*
X170000Y132786D01*
X170656Y132916D01*
X171212Y133288D01*
X171584Y133844D01*
X171714Y134500D01*
X171584Y135156D01*
X171212Y135712D01*
X170656Y136084D01*
X170000Y136214D01*
D02*
G37*
G36*
X164000D02*
X163344Y136084D01*
X162788Y135712D01*
X162416Y135156D01*
X162286Y134500D01*
X162416Y133844D01*
X162788Y133288D01*
X163344Y132916D01*
X164000Y132786D01*
X164656Y132916D01*
X165212Y133288D01*
X165584Y133844D01*
X165714Y134500D01*
X165584Y135156D01*
X165212Y135712D01*
X164656Y136084D01*
X164000Y136214D01*
D02*
G37*
G36*
X151575Y135572D02*
X150919Y135442D01*
X150363Y135070D01*
X149991Y134514D01*
X149861Y133858D01*
X149991Y133202D01*
X150363Y132646D01*
X150919Y132275D01*
X151575Y132144D01*
X152231Y132275D01*
X152787Y132646D01*
X153158Y133202D01*
X153289Y133858D01*
X153158Y134514D01*
X152787Y135070D01*
X152231Y135442D01*
X151575Y135572D01*
D02*
G37*
G36*
X141575D02*
X140919Y135442D01*
X140363Y135070D01*
X139991Y134514D01*
X139861Y133858D01*
X139991Y133202D01*
X140363Y132646D01*
X140919Y132275D01*
X141575Y132144D01*
X142231Y132275D01*
X142787Y132646D01*
X143158Y133202D01*
X143289Y133858D01*
X143158Y134514D01*
X142787Y135070D01*
X142231Y135442D01*
X141575Y135572D01*
D02*
G37*
G36*
X158500Y121714D02*
X157844Y121584D01*
X157288Y121212D01*
X156916Y120656D01*
X156786Y120000D01*
X156916Y119344D01*
X157288Y118788D01*
X157844Y118416D01*
X158500Y118286D01*
X159156Y118416D01*
X159712Y118788D01*
X160084Y119344D01*
X160214Y120000D01*
X160084Y120656D01*
X159712Y121212D01*
X159156Y121584D01*
X158500Y121714D01*
D02*
G37*
G36*
X155000Y119214D02*
X154344Y119084D01*
X153788Y118712D01*
X153416Y118156D01*
X153286Y117500D01*
X153416Y116844D01*
X153788Y116288D01*
X154344Y115916D01*
X155000Y115786D01*
X155656Y115916D01*
X156212Y116288D01*
X156584Y116844D01*
X156714Y117500D01*
X156584Y118156D01*
X156212Y118712D01*
X155656Y119084D01*
X155000Y119214D01*
D02*
G37*
G36*
X134000Y118214D02*
X133344Y118084D01*
X132788Y117712D01*
X132416Y117156D01*
X132286Y116500D01*
X132416Y115844D01*
X132788Y115288D01*
X133344Y114916D01*
X134000Y114786D01*
X134656Y114916D01*
X135212Y115288D01*
X135584Y115844D01*
X135714Y116500D01*
X135584Y117156D01*
X135212Y117712D01*
X134656Y118084D01*
X134000Y118214D01*
D02*
G37*
G36*
X127500D02*
X126844Y118084D01*
X126288Y117712D01*
X125916Y117156D01*
X125786Y116500D01*
X125916Y115844D01*
X126288Y115288D01*
X126844Y114916D01*
X127500Y114786D01*
X128156Y114916D01*
X128712Y115288D01*
X129084Y115844D01*
X129214Y116500D01*
X129084Y117156D01*
X128712Y117712D01*
X128156Y118084D01*
X127500Y118214D01*
D02*
G37*
G36*
X139000Y110714D02*
X138344Y110584D01*
X137788Y110212D01*
X137416Y109656D01*
X137286Y109000D01*
X137416Y108344D01*
X137788Y107788D01*
X138344Y107416D01*
X139000Y107286D01*
X139656Y107416D01*
X140212Y107788D01*
X140584Y108344D01*
X140714Y109000D01*
X140584Y109656D01*
X140212Y110212D01*
X139656Y110584D01*
X139000Y110714D01*
D02*
G37*
G36*
X159500Y105714D02*
X158844Y105584D01*
X158288Y105212D01*
X157916Y104656D01*
X157786Y104000D01*
X157916Y103344D01*
X158288Y102788D01*
X158844Y102416D01*
X159500Y102286D01*
X160156Y102416D01*
X160712Y102788D01*
X161084Y103344D01*
X161214Y104000D01*
X161084Y104656D01*
X160712Y105212D01*
X160156Y105584D01*
X159500Y105714D01*
D02*
G37*
G36*
X155000D02*
X154344Y105584D01*
X153788Y105212D01*
X153416Y104656D01*
X153286Y104000D01*
X153416Y103344D01*
X153788Y102788D01*
X154344Y102416D01*
X155000Y102286D01*
X155656Y102416D01*
X156212Y102788D01*
X156584Y103344D01*
X156714Y104000D01*
X156584Y104656D01*
X156212Y105212D01*
X155656Y105584D01*
X155000Y105714D01*
D02*
G37*
G36*
X150500D02*
X149844Y105584D01*
X149288Y105212D01*
X148916Y104656D01*
X148786Y104000D01*
X148916Y103344D01*
X149288Y102788D01*
X149844Y102416D01*
X150500Y102286D01*
X151156Y102416D01*
X151712Y102788D01*
X152084Y103344D01*
X152214Y104000D01*
X152084Y104656D01*
X151712Y105212D01*
X151156Y105584D01*
X150500Y105714D01*
D02*
G37*
G36*
X131000Y102214D02*
X130344Y102084D01*
X129788Y101712D01*
X129416Y101156D01*
X129286Y100500D01*
X129416Y99844D01*
X129788Y99288D01*
X130344Y98916D01*
X131000Y98786D01*
X131656Y98916D01*
X132212Y99288D01*
X132584Y99844D01*
X132714Y100500D01*
X132584Y101156D01*
X132212Y101712D01*
X131656Y102084D01*
X131000Y102214D01*
D02*
G37*
G36*
X159500Y101214D02*
X158844Y101084D01*
X158288Y100712D01*
X157916Y100156D01*
X157786Y99500D01*
X157916Y98844D01*
X158288Y98288D01*
X158844Y97916D01*
X159500Y97786D01*
X160156Y97916D01*
X160712Y98288D01*
X161084Y98844D01*
X161214Y99500D01*
X161084Y100156D01*
X160712Y100712D01*
X160156Y101084D01*
X159500Y101214D01*
D02*
G37*
G36*
X155000D02*
X154344Y101084D01*
X153788Y100712D01*
X153416Y100156D01*
X153286Y99500D01*
X153416Y98844D01*
X153788Y98288D01*
X154344Y97916D01*
X155000Y97786D01*
X155656Y97916D01*
X156212Y98288D01*
X156584Y98844D01*
X156714Y99500D01*
X156584Y100156D01*
X156212Y100712D01*
X155656Y101084D01*
X155000Y101214D01*
D02*
G37*
G36*
X150500D02*
X149844Y101084D01*
X149288Y100712D01*
X148916Y100156D01*
X148786Y99500D01*
X148916Y98844D01*
X149288Y98288D01*
X149844Y97916D01*
X150500Y97786D01*
X151156Y97916D01*
X151712Y98288D01*
X152084Y98844D01*
X152214Y99500D01*
X152084Y100156D01*
X151712Y100712D01*
X151156Y101084D01*
X150500Y101214D01*
D02*
G37*
G36*
X133500Y97714D02*
X132844Y97584D01*
X132288Y97212D01*
X131916Y96656D01*
X131786Y96000D01*
X131916Y95344D01*
X132288Y94788D01*
X132844Y94416D01*
X133500Y94286D01*
X134156Y94416D01*
X134712Y94788D01*
X135084Y95344D01*
X135214Y96000D01*
X135084Y96656D01*
X134712Y97212D01*
X134156Y97584D01*
X133500Y97714D01*
D02*
G37*
G36*
X159500Y96714D02*
X158844Y96584D01*
X158288Y96212D01*
X157916Y95656D01*
X157786Y95000D01*
X157916Y94344D01*
X158288Y93788D01*
X158844Y93416D01*
X159500Y93286D01*
X160156Y93416D01*
X160712Y93788D01*
X161084Y94344D01*
X161214Y95000D01*
X161084Y95656D01*
X160712Y96212D01*
X160156Y96584D01*
X159500Y96714D01*
D02*
G37*
G36*
X155000D02*
X154344Y96584D01*
X153788Y96212D01*
X153416Y95656D01*
X153286Y95000D01*
X153416Y94344D01*
X153788Y93788D01*
X154344Y93416D01*
X155000Y93286D01*
X155656Y93416D01*
X156212Y93788D01*
X156584Y94344D01*
X156714Y95000D01*
X156584Y95656D01*
X156212Y96212D01*
X155656Y96584D01*
X155000Y96714D01*
D02*
G37*
G36*
X150500D02*
X149844Y96584D01*
X149288Y96212D01*
X148916Y95656D01*
X148786Y95000D01*
X148916Y94344D01*
X149288Y93788D01*
X149844Y93416D01*
X150500Y93286D01*
X151156Y93416D01*
X151712Y93788D01*
X152084Y94344D01*
X152214Y95000D01*
X152084Y95656D01*
X151712Y96212D01*
X151156Y96584D01*
X150500Y96714D01*
D02*
G37*
G36*
X136000Y93214D02*
X135344Y93084D01*
X134788Y92712D01*
X134416Y92156D01*
X134286Y91500D01*
X134416Y90844D01*
X134788Y90288D01*
X135344Y89916D01*
X136000Y89786D01*
X136656Y89916D01*
X137212Y90288D01*
X137584Y90844D01*
X137714Y91500D01*
X137584Y92156D01*
X137212Y92712D01*
X136656Y93084D01*
X136000Y93214D01*
D02*
G37*
G36*
X148844Y83631D02*
X148188Y83500D01*
X147632Y83128D01*
X147260Y82572D01*
X147130Y81916D01*
X147260Y81261D01*
X147632Y80704D01*
X148188Y80333D01*
X148844Y80202D01*
X149500Y80333D01*
X150056Y80704D01*
X150428Y81261D01*
X150558Y81916D01*
X150428Y82572D01*
X150056Y83128D01*
X149500Y83500D01*
X148844Y83631D01*
D02*
G37*
G36*
X146000Y80714D02*
X145344Y80584D01*
X144788Y80212D01*
X144416Y79656D01*
X144286Y79000D01*
X144416Y78344D01*
X144788Y77788D01*
X145344Y77416D01*
X146000Y77286D01*
X146656Y77416D01*
X147212Y77788D01*
X147584Y78344D01*
X147714Y79000D01*
X147584Y79656D01*
X147212Y80212D01*
X146656Y80584D01*
X146000Y80714D01*
D02*
G37*
G36*
X158500Y76214D02*
X157844Y76084D01*
X157288Y75712D01*
X156916Y75156D01*
X156786Y74500D01*
X156916Y73844D01*
X157288Y73288D01*
X157844Y72916D01*
X158500Y72786D01*
X159156Y72916D01*
X159712Y73288D01*
X160084Y73844D01*
X160214Y74500D01*
X160084Y75156D01*
X159712Y75712D01*
X159156Y76084D01*
X158500Y76214D01*
D02*
G37*
G36*
X162000Y54216D02*
X161152Y54047D01*
X160433Y53567D01*
X159953Y52848D01*
X159784Y52000D01*
X159953Y51152D01*
X160433Y50433D01*
X161152Y49953D01*
X162000Y49784D01*
X162848Y49953D01*
X163567Y50433D01*
X164047Y51152D01*
X164216Y52000D01*
X164047Y52848D01*
X163567Y53567D01*
X162848Y54047D01*
X162000Y54216D01*
D02*
G37*
G36*
X155500D02*
X154652Y54047D01*
X153933Y53567D01*
X153453Y52848D01*
X153284Y52000D01*
X153453Y51152D01*
X153933Y50433D01*
X154652Y49953D01*
X155500Y49784D01*
X156348Y49953D01*
X157067Y50433D01*
X157547Y51152D01*
X157716Y52000D01*
X157547Y52848D01*
X157067Y53567D01*
X156348Y54047D01*
X155500Y54216D01*
D02*
G37*
G36*
X148500D02*
X147652Y54047D01*
X146933Y53567D01*
X146453Y52848D01*
X146284Y52000D01*
X146453Y51152D01*
X146933Y50433D01*
X147652Y49953D01*
X148500Y49784D01*
X149348Y49953D01*
X150067Y50433D01*
X150547Y51152D01*
X150716Y52000D01*
X150547Y52848D01*
X150067Y53567D01*
X149348Y54047D01*
X148500Y54216D01*
D02*
G37*
G36*
X142500D02*
X141652Y54047D01*
X140933Y53567D01*
X140453Y52848D01*
X140284Y52000D01*
X140453Y51152D01*
X140933Y50433D01*
X141652Y49953D01*
X142500Y49784D01*
X143348Y49953D01*
X144067Y50433D01*
X144547Y51152D01*
X144716Y52000D01*
X144547Y52848D01*
X144067Y53567D01*
X143348Y54047D01*
X142500Y54216D01*
D02*
G37*
G36*
X111575Y175572D02*
X110919Y175442D01*
X110363Y175070D01*
X109991Y174514D01*
X109861Y173858D01*
X109991Y173202D01*
X110363Y172646D01*
X110919Y172275D01*
X111575Y172144D01*
X112231Y172275D01*
X112787Y172646D01*
X113158Y173202D01*
X113289Y173858D01*
X113158Y174514D01*
X112787Y175070D01*
X112231Y175442D01*
X111575Y175572D01*
D02*
G37*
G36*
X26575D02*
X25919Y175442D01*
X25363Y175070D01*
X24991Y174514D01*
X24861Y173858D01*
X24991Y173202D01*
X25363Y172646D01*
X25919Y172275D01*
X26575Y172144D01*
X27231Y172275D01*
X27787Y172646D01*
X28158Y173202D01*
X28289Y173858D01*
X28158Y174514D01*
X27787Y175070D01*
X27231Y175442D01*
X26575Y175572D01*
D02*
G37*
G36*
X111575Y170572D02*
X110919Y170442D01*
X110363Y170070D01*
X109991Y169514D01*
X109861Y168858D01*
X109991Y168202D01*
X110363Y167646D01*
X110919Y167275D01*
X111575Y167144D01*
X112231Y167275D01*
X112787Y167646D01*
X113158Y168202D01*
X113289Y168858D01*
X113158Y169514D01*
X112787Y170070D01*
X112231Y170442D01*
X111575Y170572D01*
D02*
G37*
G36*
X13780Y175635D02*
X11863Y175484D01*
X9995Y175035D01*
X8219Y174300D01*
X6580Y173295D01*
X5118Y172047D01*
X3870Y170586D01*
X2866Y168947D01*
X2130Y167171D01*
X1682Y165302D01*
X1531Y163386D01*
X1682Y161470D01*
X2130Y159601D01*
X2866Y157825D01*
X3870Y156186D01*
X5118Y154725D01*
X6580Y153476D01*
X8219Y152472D01*
X9995Y151737D01*
X11863Y151288D01*
X13780Y151137D01*
X15696Y151288D01*
X17565Y151737D01*
X19340Y152472D01*
X20979Y153476D01*
X22441Y154725D01*
X23689Y156186D01*
X24669Y157785D01*
X24821Y157827D01*
X25238Y157833D01*
X25363Y157646D01*
X25919Y157275D01*
X26575Y157144D01*
X27231Y157275D01*
X27787Y157646D01*
X28158Y158202D01*
X28289Y158858D01*
X28158Y159514D01*
X27787Y160070D01*
X27231Y160442D01*
X26575Y160572D01*
X26156Y160489D01*
X25735Y160874D01*
X25877Y161470D01*
X26028Y163386D01*
X25877Y165302D01*
X25477Y166968D01*
X25918Y167275D01*
X25919Y167275D01*
X26575Y167144D01*
X27231Y167275D01*
X27787Y167646D01*
X28158Y168202D01*
X28289Y168858D01*
X28158Y169514D01*
X27787Y170070D01*
X27231Y170442D01*
X26575Y170572D01*
X25919Y170442D01*
X25363Y170070D01*
X24991Y169514D01*
X24977Y169441D01*
X24448Y169347D01*
X23689Y170586D01*
X22441Y172047D01*
X20979Y173295D01*
X19340Y174300D01*
X17565Y175035D01*
X15696Y175484D01*
X13780Y175635D01*
D02*
G37*
G36*
X46000Y168714D02*
X45344Y168584D01*
X44788Y168212D01*
X44416Y167656D01*
X44286Y167000D01*
X44416Y166344D01*
X44788Y165788D01*
X45344Y165416D01*
X46000Y165286D01*
X46656Y165416D01*
X47212Y165788D01*
X47584Y166344D01*
X47714Y167000D01*
X47584Y167656D01*
X47212Y168212D01*
X46656Y168584D01*
X46000Y168714D01*
D02*
G37*
G36*
X116575Y165572D02*
X115919Y165442D01*
X115363Y165070D01*
X114991Y164514D01*
X114861Y163858D01*
X114991Y163202D01*
X115363Y162646D01*
X115919Y162275D01*
X116575Y162144D01*
X117231Y162275D01*
X117787Y162646D01*
X118158Y163202D01*
X118289Y163858D01*
X118158Y164514D01*
X117787Y165070D01*
X117231Y165442D01*
X116575Y165572D01*
D02*
G37*
G36*
X111575D02*
X110919Y165442D01*
X110363Y165070D01*
X109991Y164514D01*
X109861Y163858D01*
X109991Y163202D01*
X110363Y162646D01*
X110919Y162275D01*
X111575Y162144D01*
X112231Y162275D01*
X112787Y162646D01*
X113158Y163202D01*
X113289Y163858D01*
X113158Y164514D01*
X112787Y165070D01*
X112231Y165442D01*
X111575Y165572D01*
D02*
G37*
G36*
X63000Y163716D02*
X62152Y163547D01*
X61433Y163067D01*
X60953Y162348D01*
X60784Y161500D01*
X60953Y160652D01*
X61433Y159933D01*
X62152Y159453D01*
X63000Y159284D01*
X63848Y159453D01*
X64567Y159933D01*
X65047Y160652D01*
X65216Y161500D01*
X65047Y162348D01*
X64567Y163067D01*
X63848Y163547D01*
X63000Y163716D01*
D02*
G37*
G36*
X58000D02*
X57152Y163547D01*
X56433Y163067D01*
X55953Y162348D01*
X55784Y161500D01*
X55953Y160652D01*
X56433Y159933D01*
X57152Y159453D01*
X58000Y159284D01*
X58848Y159453D01*
X59567Y159933D01*
X60047Y160652D01*
X60216Y161500D01*
X60047Y162348D01*
X59567Y163067D01*
X58848Y163547D01*
X58000Y163716D01*
D02*
G37*
G36*
X53000Y163216D02*
X52152Y163047D01*
X51433Y162567D01*
X50953Y161848D01*
X50784Y161000D01*
X50953Y160152D01*
X51433Y159433D01*
X52152Y158953D01*
X53000Y158784D01*
X53848Y158953D01*
X54567Y159433D01*
X55047Y160152D01*
X55216Y161000D01*
X55047Y161848D01*
X54567Y162567D01*
X53848Y163047D01*
X53000Y163216D01*
D02*
G37*
G36*
X46000D02*
X45152Y163047D01*
X44433Y162567D01*
X43953Y161848D01*
X43784Y161000D01*
X43953Y160152D01*
X44433Y159433D01*
X45152Y158953D01*
X46000Y158784D01*
X46848Y158953D01*
X47567Y159433D01*
X48047Y160152D01*
X48216Y161000D01*
X48047Y161848D01*
X47567Y162567D01*
X46848Y163047D01*
X46000Y163216D01*
D02*
G37*
G36*
X116575Y160572D02*
X115919Y160442D01*
X115363Y160070D01*
X114991Y159514D01*
X114861Y158858D01*
X114991Y158202D01*
X115363Y157646D01*
X115919Y157275D01*
X116575Y157144D01*
X117231Y157275D01*
X117787Y157646D01*
X118158Y158202D01*
X118289Y158858D01*
X118158Y159514D01*
X117787Y160070D01*
X117231Y160442D01*
X116575Y160572D01*
D02*
G37*
G36*
X111575D02*
X110919Y160442D01*
X110363Y160070D01*
X109991Y159514D01*
X109861Y158858D01*
X109991Y158202D01*
X110363Y157646D01*
X110919Y157275D01*
X111575Y157144D01*
X112231Y157275D01*
X112787Y157646D01*
X113158Y158202D01*
X113289Y158858D01*
X113158Y159514D01*
X112787Y160070D01*
X112231Y160442D01*
X111575Y160572D01*
D02*
G37*
G36*
Y155572D02*
X110919Y155442D01*
X110363Y155070D01*
X109991Y154514D01*
X109861Y153858D01*
X109991Y153202D01*
X110363Y152646D01*
X110919Y152275D01*
X111575Y152144D01*
X112231Y152275D01*
X112787Y152646D01*
X113158Y153202D01*
X113289Y153858D01*
X113158Y154514D01*
X112787Y155070D01*
X112231Y155442D01*
X111575Y155572D01*
D02*
G37*
G36*
X40000Y155216D02*
X39152Y155047D01*
X38433Y154567D01*
X37953Y153848D01*
X37784Y153000D01*
X37953Y152152D01*
X38433Y151433D01*
X39152Y150953D01*
X40000Y150784D01*
X40848Y150953D01*
X41567Y151433D01*
X42047Y152152D01*
X42216Y153000D01*
X42047Y153848D01*
X41567Y154567D01*
X40848Y155047D01*
X40000Y155216D01*
D02*
G37*
G36*
X33500D02*
X32652Y155047D01*
X31933Y154567D01*
X31453Y153848D01*
X31284Y153000D01*
X31453Y152152D01*
X31933Y151433D01*
X32652Y150953D01*
X33500Y150784D01*
X34348Y150953D01*
X35067Y151433D01*
X35547Y152152D01*
X35716Y153000D01*
X35547Y153848D01*
X35067Y154567D01*
X34348Y155047D01*
X33500Y155216D01*
D02*
G37*
G36*
X111575Y150572D02*
X110919Y150442D01*
X110363Y150070D01*
X109991Y149514D01*
X109861Y148858D01*
X109991Y148202D01*
X110363Y147646D01*
X110919Y147275D01*
X111575Y147144D01*
X112231Y147275D01*
X112787Y147646D01*
X113158Y148202D01*
X113289Y148858D01*
X113158Y149514D01*
X112787Y150070D01*
X112231Y150442D01*
X111575Y150572D01*
D02*
G37*
G36*
X21575D02*
X20919Y150442D01*
X20363Y150070D01*
X19991Y149514D01*
X19861Y148858D01*
X19991Y148202D01*
X20363Y147646D01*
X20919Y147275D01*
X21575Y147144D01*
X22231Y147275D01*
X22787Y147646D01*
X23158Y148202D01*
X23289Y148858D01*
X23158Y149514D01*
X22787Y150070D01*
X22231Y150442D01*
X21575Y150572D01*
D02*
G37*
G36*
X16575D02*
X15919Y150442D01*
X15363Y150070D01*
X14991Y149514D01*
X14861Y148858D01*
X14991Y148202D01*
X15363Y147646D01*
X15919Y147275D01*
X16575Y147144D01*
X17231Y147275D01*
X17787Y147646D01*
X18158Y148202D01*
X18289Y148858D01*
X18158Y149514D01*
X17787Y150070D01*
X17231Y150442D01*
X16575Y150572D01*
D02*
G37*
G36*
X11575D02*
X10919Y150442D01*
X10363Y150070D01*
X9991Y149514D01*
X9861Y148858D01*
X9991Y148202D01*
X10363Y147646D01*
X10919Y147275D01*
X11575Y147144D01*
X12231Y147275D01*
X12787Y147646D01*
X13158Y148202D01*
X13289Y148858D01*
X13158Y149514D01*
X12787Y150070D01*
X12231Y150442D01*
X11575Y150572D01*
D02*
G37*
G36*
X6575D02*
X5919Y150442D01*
X5363Y150070D01*
X4991Y149514D01*
X4861Y148858D01*
X4991Y148202D01*
X5363Y147646D01*
X5919Y147275D01*
X6575Y147144D01*
X7231Y147275D01*
X7787Y147646D01*
X8158Y148202D01*
X8289Y148858D01*
X8158Y149514D01*
X7787Y150070D01*
X7231Y150442D01*
X6575Y150572D01*
D02*
G37*
G36*
X21575Y145572D02*
X20919Y145442D01*
X20363Y145070D01*
X19991Y144514D01*
X19861Y143858D01*
X19991Y143202D01*
X20363Y142646D01*
X20919Y142275D01*
X21575Y142144D01*
X22231Y142275D01*
X22787Y142646D01*
X23158Y143202D01*
X23289Y143858D01*
X23158Y144514D01*
X22787Y145070D01*
X22231Y145442D01*
X21575Y145572D01*
D02*
G37*
G36*
X16575D02*
X15919Y145442D01*
X15363Y145070D01*
X14991Y144514D01*
X14861Y143858D01*
X14991Y143202D01*
X15363Y142646D01*
X15919Y142275D01*
X16575Y142144D01*
X17231Y142275D01*
X17787Y142646D01*
X18158Y143202D01*
X18289Y143858D01*
X18158Y144514D01*
X17787Y145070D01*
X17231Y145442D01*
X16575Y145572D01*
D02*
G37*
G36*
X11575D02*
X10919Y145442D01*
X10363Y145070D01*
X9991Y144514D01*
X9861Y143858D01*
X9991Y143202D01*
X10363Y142646D01*
X10919Y142275D01*
X11575Y142144D01*
X12231Y142275D01*
X12787Y142646D01*
X13158Y143202D01*
X13289Y143858D01*
X13158Y144514D01*
X12787Y145070D01*
X12231Y145442D01*
X11575Y145572D01*
D02*
G37*
G36*
X6575D02*
X5919Y145442D01*
X5363Y145070D01*
X4991Y144514D01*
X4861Y143858D01*
X4991Y143202D01*
X5363Y142646D01*
X5919Y142275D01*
X6575Y142144D01*
X7231Y142275D01*
X7787Y142646D01*
X8158Y143202D01*
X8289Y143858D01*
X8158Y144514D01*
X7787Y145070D01*
X7231Y145442D01*
X6575Y145572D01*
D02*
G37*
G36*
X21575Y140572D02*
X20919Y140442D01*
X20363Y140070D01*
X19991Y139514D01*
X19861Y138858D01*
X19991Y138202D01*
X20363Y137646D01*
X20919Y137275D01*
X21575Y137144D01*
X22231Y137275D01*
X22787Y137646D01*
X23158Y138202D01*
X23289Y138858D01*
X23158Y139514D01*
X22787Y140070D01*
X22231Y140442D01*
X21575Y140572D01*
D02*
G37*
G36*
X16575D02*
X15919Y140442D01*
X15363Y140070D01*
X14991Y139514D01*
X14861Y138858D01*
X14991Y138202D01*
X15363Y137646D01*
X15919Y137275D01*
X16575Y137144D01*
X17231Y137275D01*
X17787Y137646D01*
X18158Y138202D01*
X18289Y138858D01*
X18158Y139514D01*
X17787Y140070D01*
X17231Y140442D01*
X16575Y140572D01*
D02*
G37*
G36*
X25500Y134216D02*
X24652Y134047D01*
X23933Y133567D01*
X23528Y132960D01*
X23370Y132923D01*
X23130D01*
X22972Y132960D01*
X22567Y133567D01*
X21848Y134047D01*
X21000Y134216D01*
X20152Y134047D01*
X19433Y133567D01*
X18953Y132848D01*
X18784Y132000D01*
X18953Y131152D01*
X19433Y130433D01*
X20152Y129953D01*
X21000Y129784D01*
X21848Y129953D01*
X22567Y130433D01*
X22972Y131040D01*
X23130Y131077D01*
X23370D01*
X23528Y131040D01*
X23933Y130433D01*
X24652Y129953D01*
X25500Y129784D01*
X26348Y129953D01*
X27067Y130433D01*
X27547Y131152D01*
X27716Y132000D01*
X27547Y132848D01*
X27067Y133567D01*
X26348Y134047D01*
X25500Y134216D01*
D02*
G37*
G36*
X54125Y133841D02*
X53277Y133672D01*
X52558Y133192D01*
X52078Y132473D01*
X51909Y131625D01*
X52078Y130777D01*
X52558Y130058D01*
X53277Y129578D01*
X54125Y129409D01*
X54973Y129578D01*
X55692Y130058D01*
X56172Y130777D01*
X56341Y131625D01*
X56172Y132473D01*
X55692Y133192D01*
X54973Y133672D01*
X54125Y133841D01*
D02*
G37*
G36*
X66575Y130572D02*
X65919Y130442D01*
X65363Y130070D01*
X64991Y129514D01*
X64861Y128858D01*
X64991Y128202D01*
X65363Y127646D01*
X65919Y127275D01*
X66575Y127144D01*
X67231Y127275D01*
X67787Y127646D01*
X68158Y128202D01*
X68289Y128858D01*
X68158Y129514D01*
X67787Y130070D01*
X67231Y130442D01*
X66575Y130572D01*
D02*
G37*
G36*
X61575D02*
X60919Y130442D01*
X60363Y130070D01*
X59991Y129514D01*
X59861Y128858D01*
X59991Y128202D01*
X60363Y127646D01*
X60919Y127275D01*
X61575Y127144D01*
X62231Y127275D01*
X62787Y127646D01*
X63158Y128202D01*
X63289Y128858D01*
X63158Y129514D01*
X62787Y130070D01*
X62231Y130442D01*
X61575Y130572D01*
D02*
G37*
G36*
X17000Y130216D02*
X16152Y130047D01*
X15433Y129567D01*
X14953Y128848D01*
X14784Y128000D01*
X14953Y127152D01*
X15433Y126433D01*
X16152Y125953D01*
X17000Y125784D01*
X17848Y125953D01*
X18567Y126433D01*
X19047Y127152D01*
X19216Y128000D01*
X19047Y128848D01*
X18567Y129567D01*
X17848Y130047D01*
X17000Y130216D01*
D02*
G37*
G36*
X111575Y130572D02*
X110919Y130442D01*
X110363Y130070D01*
X109991Y129514D01*
X109861Y128858D01*
X109991Y128202D01*
X110363Y127646D01*
X110919Y127275D01*
X111575Y127144D01*
X111814Y127192D01*
X112286Y127000D01*
X112321Y126822D01*
X112416Y126344D01*
X112788Y125788D01*
X113344Y125416D01*
X114000Y125286D01*
X114656Y125416D01*
X115212Y125788D01*
X115584Y126344D01*
X115714Y127000D01*
X115584Y127656D01*
X115212Y128212D01*
X114656Y128584D01*
X114000Y128714D01*
X113760Y128666D01*
X113289Y128858D01*
X113253Y129036D01*
X113158Y129514D01*
X112787Y130070D01*
X112231Y130442D01*
X111575Y130572D01*
D02*
G37*
G36*
X17000Y125216D02*
X16152Y125047D01*
X15433Y124567D01*
X14953Y123848D01*
X14784Y123000D01*
X14953Y122152D01*
X15433Y121433D01*
X16152Y120953D01*
X17000Y120784D01*
X17848Y120953D01*
X18567Y121433D01*
X19047Y122152D01*
X19216Y123000D01*
X19047Y123848D01*
X18567Y124567D01*
X17848Y125047D01*
X17000Y125216D01*
D02*
G37*
G36*
X47000Y121214D02*
X46344Y121084D01*
X45788Y120712D01*
X45416Y120156D01*
X45286Y119500D01*
X45416Y118844D01*
X45788Y118288D01*
X46344Y117916D01*
X47000Y117786D01*
X47656Y117916D01*
X48212Y118288D01*
X48584Y118844D01*
X48714Y119500D01*
X48584Y120156D01*
X48212Y120712D01*
X47656Y121084D01*
X47000Y121214D01*
D02*
G37*
G36*
X37500Y120714D02*
X36844Y120584D01*
X36288Y120212D01*
X35916Y119656D01*
X35786Y119000D01*
X35916Y118344D01*
X36288Y117788D01*
X36844Y117416D01*
X37500Y117286D01*
X38156Y117416D01*
X38712Y117788D01*
X39084Y118344D01*
X39214Y119000D01*
X39084Y119656D01*
X38712Y120212D01*
X38156Y120584D01*
X37500Y120714D01*
D02*
G37*
G36*
X17000Y120216D02*
X16152Y120047D01*
X15433Y119567D01*
X14953Y118848D01*
X14784Y118000D01*
X14953Y117152D01*
X15433Y116433D01*
X16152Y115953D01*
X17000Y115784D01*
X17848Y115953D01*
X18567Y116433D01*
X19047Y117152D01*
X19216Y118000D01*
X19047Y118848D01*
X18567Y119567D01*
X17848Y120047D01*
X17000Y120216D01*
D02*
G37*
G36*
Y115216D02*
X16152Y115047D01*
X15433Y114567D01*
X14953Y113848D01*
X14784Y113000D01*
X14953Y112152D01*
X15433Y111433D01*
X16152Y110953D01*
X17000Y110784D01*
X17848Y110953D01*
X18567Y111433D01*
X19047Y112152D01*
X19216Y113000D01*
X19047Y113848D01*
X18567Y114567D01*
X17848Y115047D01*
X17000Y115216D01*
D02*
G37*
G36*
X116575Y110572D02*
X115919Y110442D01*
X115363Y110070D01*
X114991Y109514D01*
X114861Y108858D01*
X114991Y108202D01*
X115363Y107646D01*
X115919Y107275D01*
X116575Y107144D01*
X117231Y107275D01*
X117787Y107646D01*
X118158Y108202D01*
X118289Y108858D01*
X118158Y109514D01*
X117787Y110070D01*
X117231Y110442D01*
X116575Y110572D01*
D02*
G37*
G36*
X111575D02*
X110919Y110442D01*
X110363Y110070D01*
X109991Y109514D01*
X109861Y108858D01*
X109991Y108202D01*
X110363Y107646D01*
X110919Y107275D01*
X111575Y107144D01*
X112231Y107275D01*
X112787Y107646D01*
X113158Y108202D01*
X113289Y108858D01*
X113158Y109514D01*
X112787Y110070D01*
X112231Y110442D01*
X111575Y110572D01*
D02*
G37*
G36*
X106575D02*
X105919Y110442D01*
X105363Y110070D01*
X104991Y109514D01*
X104861Y108858D01*
X104991Y108202D01*
X105363Y107646D01*
X105919Y107275D01*
X106575Y107144D01*
X107231Y107275D01*
X107787Y107646D01*
X108158Y108202D01*
X108289Y108858D01*
X108158Y109514D01*
X107787Y110070D01*
X107231Y110442D01*
X106575Y110572D01*
D02*
G37*
G36*
X86575D02*
X85919Y110442D01*
X85363Y110070D01*
X84991Y109514D01*
X84861Y108858D01*
X84991Y108202D01*
X85363Y107646D01*
X85919Y107275D01*
X86575Y107144D01*
X87231Y107275D01*
X87787Y107646D01*
X88158Y108202D01*
X88289Y108858D01*
X88158Y109514D01*
X87787Y110070D01*
X87231Y110442D01*
X86575Y110572D01*
D02*
G37*
G36*
X17000Y110216D02*
X16152Y110047D01*
X15433Y109567D01*
X14953Y108848D01*
X14784Y108000D01*
X14953Y107152D01*
X15433Y106433D01*
X16152Y105953D01*
X17000Y105784D01*
X17848Y105953D01*
X18567Y106433D01*
X19047Y107152D01*
X19216Y108000D01*
X19047Y108848D01*
X18567Y109567D01*
X17848Y110047D01*
X17000Y110216D01*
D02*
G37*
G36*
X102500Y106214D02*
X101844Y106084D01*
X101288Y105712D01*
X100916Y105156D01*
X100786Y104500D01*
X100916Y103844D01*
X101288Y103288D01*
X101844Y102916D01*
X102500Y102786D01*
X103156Y102916D01*
X103712Y103288D01*
X104084Y103844D01*
X104214Y104500D01*
X104084Y105156D01*
X103712Y105712D01*
X103156Y106084D01*
X102500Y106214D01*
D02*
G37*
G36*
X17000Y105216D02*
X16152Y105047D01*
X15433Y104567D01*
X14953Y103848D01*
X14784Y103000D01*
X14953Y102152D01*
X15433Y101433D01*
X16152Y100953D01*
X17000Y100784D01*
X17848Y100953D01*
X18567Y101433D01*
X19047Y102152D01*
X19216Y103000D01*
X19047Y103848D01*
X18567Y104567D01*
X17848Y105047D01*
X17000Y105216D01*
D02*
G37*
G36*
X106500Y101716D02*
X105652Y101547D01*
X104933Y101067D01*
X104453Y100348D01*
X104284Y99500D01*
X104453Y98652D01*
X104933Y97933D01*
X105652Y97453D01*
X106500Y97284D01*
X107348Y97453D01*
X108067Y97933D01*
X108547Y98652D01*
X108716Y99500D01*
X108547Y100348D01*
X108067Y101067D01*
X107348Y101547D01*
X106500Y101716D01*
D02*
G37*
G36*
X17000Y100216D02*
X16152Y100047D01*
X15433Y99567D01*
X14953Y98848D01*
X14784Y98000D01*
X14953Y97152D01*
X15433Y96433D01*
X16152Y95953D01*
X17000Y95784D01*
X17848Y95953D01*
X18567Y96433D01*
X19047Y97152D01*
X19216Y98000D01*
X19047Y98848D01*
X18567Y99567D01*
X17848Y100047D01*
X17000Y100216D01*
D02*
G37*
G36*
X81500Y95714D02*
X80844Y95584D01*
X80288Y95212D01*
X79916Y94656D01*
X79786Y94000D01*
X79916Y93344D01*
X80288Y92788D01*
X80844Y92416D01*
X81500Y92286D01*
X82156Y92416D01*
X82712Y92788D01*
X83084Y93344D01*
X83214Y94000D01*
X83084Y94656D01*
X82712Y95212D01*
X82156Y95584D01*
X81500Y95714D01*
D02*
G37*
G36*
X68000D02*
X67344Y95584D01*
X66788Y95212D01*
X66416Y94656D01*
X66286Y94000D01*
X66416Y93344D01*
X66788Y92788D01*
X67344Y92416D01*
X68000Y92286D01*
X68656Y92416D01*
X69212Y92788D01*
X69584Y93344D01*
X69714Y94000D01*
X69584Y94656D01*
X69212Y95212D01*
X68656Y95584D01*
X68000Y95714D01*
D02*
G37*
G36*
X54000D02*
X53344Y95584D01*
X52788Y95212D01*
X52416Y94656D01*
X52286Y94000D01*
X52416Y93344D01*
X52788Y92788D01*
X53344Y92416D01*
X54000Y92286D01*
X54656Y92416D01*
X55212Y92788D01*
X55584Y93344D01*
X55714Y94000D01*
X55584Y94656D01*
X55212Y95212D01*
X54656Y95584D01*
X54000Y95714D01*
D02*
G37*
G36*
X73000D02*
X72344Y95584D01*
X71788Y95212D01*
X71416Y94656D01*
X71286Y94000D01*
X71416Y93344D01*
X71788Y92788D01*
X72344Y92416D01*
X73000Y92286D01*
X73656Y92416D01*
X74212Y92788D01*
X74483Y93194D01*
X74775Y93199D01*
X75018Y93162D01*
X75363Y92646D01*
X75919Y92275D01*
X76575Y92144D01*
X77231Y92275D01*
X77787Y92646D01*
X78158Y93202D01*
X78289Y93858D01*
X78158Y94514D01*
X77787Y95070D01*
X77231Y95442D01*
X76575Y95572D01*
X75919Y95442D01*
X75363Y95070D01*
X75092Y94665D01*
X74799Y94660D01*
X74556Y94696D01*
X74212Y95212D01*
X73656Y95584D01*
X73000Y95714D01*
D02*
G37*
G36*
X101500Y96216D02*
X100652Y96047D01*
X99933Y95567D01*
X99453Y94848D01*
X99284Y94000D01*
X99453Y93152D01*
X99933Y92433D01*
X100652Y91953D01*
X101500Y91784D01*
X102348Y91953D01*
X103067Y92433D01*
X103547Y93152D01*
X103716Y94000D01*
X103547Y94848D01*
X103067Y95567D01*
X102348Y96047D01*
X101500Y96216D01*
D02*
G37*
G36*
X10984Y130415D02*
X9016D01*
X8092Y130231D01*
X7308Y129708D01*
X6785Y128924D01*
X6601Y128000D01*
X6785Y127076D01*
X7308Y126292D01*
X8092Y125769D01*
X8162Y125755D01*
Y125245D01*
X8092Y125231D01*
X7308Y124708D01*
X6785Y123924D01*
X6601Y123000D01*
X6785Y122076D01*
X7308Y121292D01*
X8092Y120769D01*
X8162Y120755D01*
Y120245D01*
X8092Y120231D01*
X7308Y119708D01*
X6785Y118924D01*
X6601Y118000D01*
X6785Y117076D01*
X7308Y116292D01*
X8092Y115769D01*
X8162Y115755D01*
Y115245D01*
X8092Y115231D01*
X7308Y114708D01*
X6785Y113924D01*
X6601Y113000D01*
X6785Y112076D01*
X7308Y111292D01*
X8092Y110769D01*
X8162Y110755D01*
Y110245D01*
X8092Y110231D01*
X7308Y109708D01*
X6785Y108924D01*
X6601Y108000D01*
X6785Y107076D01*
X7308Y106292D01*
X8092Y105769D01*
X8162Y105755D01*
Y105245D01*
X8092Y105231D01*
X7308Y104708D01*
X6785Y103924D01*
X6601Y103000D01*
X6785Y102076D01*
X7308Y101292D01*
X8092Y100769D01*
X8162Y100755D01*
Y100245D01*
X8092Y100231D01*
X7308Y99708D01*
X6785Y98924D01*
X6601Y98000D01*
X6785Y97076D01*
X7308Y96292D01*
X8092Y95769D01*
X8162Y95755D01*
Y95245D01*
X8092Y95231D01*
X7308Y94708D01*
X6785Y93924D01*
X6601Y93000D01*
X6785Y92076D01*
X7308Y91292D01*
X8092Y90769D01*
X9016Y90585D01*
X10984D01*
X11908Y90769D01*
X12692Y91292D01*
X13215Y92076D01*
X13399Y93000D01*
X13215Y93924D01*
X12692Y94708D01*
X11908Y95231D01*
X11838Y95245D01*
Y95755D01*
X11908Y95769D01*
X12692Y96292D01*
X13215Y97076D01*
X13399Y98000D01*
X13215Y98924D01*
X12692Y99708D01*
X11908Y100231D01*
X11838Y100245D01*
Y100755D01*
X11908Y100769D01*
X12692Y101292D01*
X13215Y102076D01*
X13399Y103000D01*
X13215Y103924D01*
X12692Y104708D01*
X11908Y105231D01*
X11838Y105245D01*
Y105755D01*
X11908Y105769D01*
X12692Y106292D01*
X13215Y107076D01*
X13399Y108000D01*
X13215Y108924D01*
X12692Y109708D01*
X11908Y110231D01*
X11838Y110245D01*
Y110755D01*
X11908Y110769D01*
X12692Y111292D01*
X13215Y112076D01*
X13399Y113000D01*
X13215Y113924D01*
X12692Y114708D01*
X11908Y115231D01*
X11838Y115245D01*
Y115755D01*
X11908Y115769D01*
X12692Y116292D01*
X13215Y117076D01*
X13399Y118000D01*
X13215Y118924D01*
X12692Y119708D01*
X11908Y120231D01*
X11838Y120245D01*
Y120755D01*
X11908Y120769D01*
X12692Y121292D01*
X13215Y122076D01*
X13399Y123000D01*
X13215Y123924D01*
X12692Y124708D01*
X11908Y125231D01*
X11838Y125245D01*
Y125755D01*
X11908Y125769D01*
X12692Y126292D01*
X13215Y127076D01*
X13399Y128000D01*
X13215Y128924D01*
X12692Y129708D01*
X11908Y130231D01*
X10984Y130415D01*
D02*
G37*
G36*
X25500Y91216D02*
X24652Y91047D01*
X23933Y90567D01*
X23528Y89960D01*
X23370Y89923D01*
X23130D01*
X22972Y89960D01*
X22567Y90567D01*
X21848Y91047D01*
X21000Y91216D01*
X20152Y91047D01*
X19433Y90567D01*
X18953Y89848D01*
X18784Y89000D01*
X18953Y88152D01*
X19433Y87433D01*
X20152Y86953D01*
X21000Y86784D01*
X21848Y86953D01*
X22567Y87433D01*
X22972Y88040D01*
X23130Y88077D01*
X23370D01*
X23528Y88040D01*
X23933Y87433D01*
X24652Y86953D01*
X25500Y86784D01*
X26348Y86953D01*
X27067Y87433D01*
X27547Y88152D01*
X27716Y89000D01*
X27547Y89848D01*
X27067Y90567D01*
X26348Y91047D01*
X25500Y91216D01*
D02*
G37*
G36*
X17000Y95216D02*
X16152Y95047D01*
X15433Y94567D01*
X14953Y93848D01*
X14784Y93000D01*
X14953Y92152D01*
X15433Y91433D01*
X16100Y90988D01*
X16115Y90781D01*
X16047Y90467D01*
X15919Y90442D01*
X15363Y90070D01*
X14991Y89514D01*
X14861Y88858D01*
X14991Y88202D01*
X15363Y87646D01*
X15919Y87275D01*
X16575Y87144D01*
X17231Y87275D01*
X17787Y87646D01*
X18158Y88202D01*
X18289Y88858D01*
X18158Y89514D01*
X17787Y90070D01*
X17371Y90348D01*
X17439Y90872D01*
X17848Y90953D01*
X18567Y91433D01*
X19047Y92152D01*
X19216Y93000D01*
X19047Y93848D01*
X18567Y94567D01*
X17848Y95047D01*
X17000Y95216D01*
D02*
G37*
G36*
X111575Y85572D02*
X110919Y85442D01*
X110363Y85070D01*
X109991Y84514D01*
X109625Y84362D01*
X109348Y84547D01*
X108500Y84716D01*
X107652Y84547D01*
X106933Y84067D01*
X106453Y83348D01*
X106284Y82500D01*
X106453Y81652D01*
X106933Y80933D01*
X107652Y80453D01*
X108500Y80284D01*
X109348Y80453D01*
X110067Y80933D01*
X110547Y81652D01*
X110649Y82163D01*
X110919Y82275D01*
X111575Y82144D01*
X112231Y82275D01*
X112787Y82646D01*
X113158Y83202D01*
X113289Y83858D01*
X113158Y84514D01*
X112787Y85070D01*
X112231Y85442D01*
X111575Y85572D01*
D02*
G37*
G36*
X41575Y90572D02*
X40919Y90442D01*
X40363Y90070D01*
X39991Y89514D01*
X39861Y88858D01*
X39991Y88202D01*
X40333Y87691D01*
X40295Y87441D01*
X40199Y87154D01*
X39844Y87084D01*
X39288Y86712D01*
X38916Y86156D01*
X38786Y85500D01*
X38916Y84844D01*
X39288Y84288D01*
X39844Y83916D01*
X40500Y83786D01*
X41156Y83916D01*
X41712Y84288D01*
X42084Y84844D01*
X42214Y85500D01*
X42084Y86156D01*
X41742Y86668D01*
X41780Y86917D01*
X41876Y87204D01*
X42231Y87275D01*
X42787Y87646D01*
X43158Y88202D01*
X43289Y88858D01*
X43158Y89514D01*
X42787Y90070D01*
X42231Y90442D01*
X41575Y90572D01*
D02*
G37*
G36*
X116575Y85572D02*
X115919Y85442D01*
X115363Y85070D01*
X114991Y84514D01*
X114861Y83858D01*
X114991Y83202D01*
X115363Y82646D01*
X115919Y82275D01*
X116575Y82144D01*
X117231Y82275D01*
X117787Y82646D01*
X118158Y83202D01*
X118289Y83858D01*
X118158Y84514D01*
X117787Y85070D01*
X117231Y85442D01*
X116575Y85572D01*
D02*
G37*
G36*
X26575D02*
X25919Y85442D01*
X25363Y85070D01*
X24991Y84514D01*
X24861Y83858D01*
X24991Y83202D01*
X25363Y82646D01*
X25919Y82275D01*
X26575Y82144D01*
X27231Y82275D01*
X27787Y82646D01*
X28158Y83202D01*
X28289Y83858D01*
X28158Y84514D01*
X27787Y85070D01*
X27231Y85442D01*
X26575Y85572D01*
D02*
G37*
G36*
X21575D02*
X20919Y85442D01*
X20363Y85070D01*
X19991Y84514D01*
X19861Y83858D01*
X19991Y83202D01*
X20363Y82646D01*
X20919Y82275D01*
X21575Y82144D01*
X22231Y82275D01*
X22787Y82646D01*
X23158Y83202D01*
X23289Y83858D01*
X23158Y84514D01*
X22787Y85070D01*
X22231Y85442D01*
X21575Y85572D01*
D02*
G37*
G36*
X16575D02*
X15919Y85442D01*
X15363Y85070D01*
X14991Y84514D01*
X14861Y83858D01*
X14991Y83202D01*
X15363Y82646D01*
X15919Y82275D01*
X16575Y82144D01*
X17231Y82275D01*
X17787Y82646D01*
X18158Y83202D01*
X18289Y83858D01*
X18158Y84514D01*
X17787Y85070D01*
X17231Y85442D01*
X16575Y85572D01*
D02*
G37*
G36*
X61000Y82214D02*
X60344Y82084D01*
X59788Y81712D01*
X59528Y81323D01*
X59508Y81315D01*
X58992D01*
X58972Y81323D01*
X58712Y81712D01*
X58156Y82084D01*
X57500Y82214D01*
X56844Y82084D01*
X56288Y81712D01*
X55916Y81156D01*
X55786Y80500D01*
X55916Y79844D01*
X56288Y79288D01*
X56844Y78916D01*
X57500Y78786D01*
X58156Y78916D01*
X58712Y79288D01*
X58972Y79677D01*
X58992Y79685D01*
X59508D01*
X59528Y79677D01*
X59788Y79288D01*
X60344Y78916D01*
X61000Y78786D01*
X61656Y78916D01*
X62212Y79288D01*
X62584Y79844D01*
X62714Y80500D01*
X62584Y81156D01*
X62212Y81712D01*
X61656Y82084D01*
X61000Y82214D01*
D02*
G37*
G36*
X68000D02*
X67344Y82084D01*
X66788Y81712D01*
X66416Y81156D01*
X66286Y80500D01*
X66416Y79844D01*
X66788Y79288D01*
X67344Y78916D01*
X68000Y78786D01*
X68656Y78916D01*
X69212Y79288D01*
X69584Y79844D01*
X69714Y80500D01*
X69584Y81156D01*
X69212Y81712D01*
X68656Y82084D01*
X68000Y82214D01*
D02*
G37*
G36*
X48500D02*
X47844Y82084D01*
X47288Y81712D01*
X46916Y81156D01*
X46786Y80500D01*
X46916Y79844D01*
X47288Y79288D01*
X47844Y78916D01*
X48500Y78786D01*
X49156Y78916D01*
X49712Y79288D01*
X50084Y79844D01*
X50214Y80500D01*
X50084Y81156D01*
X49712Y81712D01*
X49156Y82084D01*
X48500Y82214D01*
D02*
G37*
G36*
X26575Y80572D02*
X25919Y80442D01*
X25363Y80070D01*
X24991Y79514D01*
X24861Y78858D01*
X24991Y78202D01*
X25363Y77646D01*
X25919Y77275D01*
X26575Y77144D01*
X27231Y77275D01*
X27787Y77646D01*
X28158Y78202D01*
X28289Y78858D01*
X28158Y79514D01*
X27787Y80070D01*
X27231Y80442D01*
X26575Y80572D01*
D02*
G37*
G36*
X21575D02*
X20919Y80442D01*
X20363Y80070D01*
X19991Y79514D01*
X19861Y78858D01*
X19991Y78202D01*
X20363Y77646D01*
X20919Y77275D01*
X21575Y77144D01*
X22231Y77275D01*
X22787Y77646D01*
X23158Y78202D01*
X23289Y78858D01*
X23158Y79514D01*
X22787Y80070D01*
X22231Y80442D01*
X21575Y80572D01*
D02*
G37*
G36*
X16575D02*
X15919Y80442D01*
X15363Y80070D01*
X14991Y79514D01*
X14861Y78858D01*
X14991Y78202D01*
X15363Y77646D01*
X15919Y77275D01*
X16575Y77144D01*
X17231Y77275D01*
X17787Y77646D01*
X18158Y78202D01*
X18289Y78858D01*
X18158Y79514D01*
X17787Y80070D01*
X17231Y80442D01*
X16575Y80572D01*
D02*
G37*
G36*
X11575D02*
X10919Y80442D01*
X10363Y80070D01*
X9991Y79514D01*
X9861Y78858D01*
X9991Y78202D01*
X10363Y77646D01*
X10919Y77275D01*
X11575Y77144D01*
X12231Y77275D01*
X12787Y77646D01*
X13158Y78202D01*
X13289Y78858D01*
X13158Y79514D01*
X12787Y80070D01*
X12231Y80442D01*
X11575Y80572D01*
D02*
G37*
G36*
X6575D02*
X5919Y80442D01*
X5363Y80070D01*
X4991Y79514D01*
X4861Y78858D01*
X4991Y78202D01*
X5363Y77646D01*
X5919Y77275D01*
X6575Y77144D01*
X7231Y77275D01*
X7787Y77646D01*
X8158Y78202D01*
X8289Y78858D01*
X8158Y79514D01*
X7787Y80070D01*
X7231Y80442D01*
X6575Y80572D01*
D02*
G37*
G36*
X26575Y75572D02*
X25919Y75442D01*
X25363Y75070D01*
X24991Y74514D01*
X24861Y73858D01*
X24991Y73202D01*
X25363Y72646D01*
X25919Y72275D01*
X26575Y72144D01*
X27231Y72275D01*
X27787Y72646D01*
X28158Y73202D01*
X28289Y73858D01*
X28158Y74514D01*
X27787Y75070D01*
X27231Y75442D01*
X26575Y75572D01*
D02*
G37*
G36*
X21575D02*
X20919Y75442D01*
X20363Y75070D01*
X19991Y74514D01*
X19861Y73858D01*
X19991Y73202D01*
X20363Y72646D01*
X20919Y72275D01*
X21575Y72144D01*
X22231Y72275D01*
X22787Y72646D01*
X23158Y73202D01*
X23289Y73858D01*
X23158Y74514D01*
X22787Y75070D01*
X22231Y75442D01*
X21575Y75572D01*
D02*
G37*
G36*
X16575D02*
X15919Y75442D01*
X15363Y75070D01*
X14991Y74514D01*
X14861Y73858D01*
X14991Y73202D01*
X15363Y72646D01*
X15919Y72275D01*
X16575Y72144D01*
X17231Y72275D01*
X17787Y72646D01*
X18158Y73202D01*
X18289Y73858D01*
X18158Y74514D01*
X17787Y75070D01*
X17231Y75442D01*
X16575Y75572D01*
D02*
G37*
G36*
X82000Y71714D02*
X81344Y71584D01*
X80788Y71212D01*
X80416Y70656D01*
X80286Y70000D01*
X80416Y69344D01*
X80788Y68788D01*
X81344Y68416D01*
X82000Y68286D01*
X82656Y68416D01*
X83212Y68788D01*
X83584Y69344D01*
X83714Y70000D01*
X83584Y70656D01*
X83212Y71212D01*
X82656Y71584D01*
X82000Y71714D01*
D02*
G37*
G36*
X78000D02*
X77344Y71584D01*
X76788Y71212D01*
X76416Y70656D01*
X76286Y70000D01*
X76416Y69344D01*
X76788Y68788D01*
X77344Y68416D01*
X78000Y68286D01*
X78656Y68416D01*
X79212Y68788D01*
X79584Y69344D01*
X79714Y70000D01*
X79584Y70656D01*
X79212Y71212D01*
X78656Y71584D01*
X78000Y71714D01*
D02*
G37*
G36*
X74000D02*
X73344Y71584D01*
X72788Y71212D01*
X72416Y70656D01*
X72286Y70000D01*
X72416Y69344D01*
X72788Y68788D01*
X73344Y68416D01*
X74000Y68286D01*
X74656Y68416D01*
X75212Y68788D01*
X75584Y69344D01*
X75714Y70000D01*
X75584Y70656D01*
X75212Y71212D01*
X74656Y71584D01*
X74000Y71714D01*
D02*
G37*
G36*
X70000D02*
X69344Y71584D01*
X68788Y71212D01*
X68416Y70656D01*
X68286Y70000D01*
X68416Y69344D01*
X68788Y68788D01*
X69344Y68416D01*
X70000Y68286D01*
X70656Y68416D01*
X71212Y68788D01*
X71584Y69344D01*
X71714Y70000D01*
X71584Y70656D01*
X71212Y71212D01*
X70656Y71584D01*
X70000Y71714D01*
D02*
G37*
G36*
X63000D02*
X62344Y71584D01*
X61788Y71212D01*
X61416Y70656D01*
X61286Y70000D01*
X61416Y69344D01*
X61788Y68788D01*
X62344Y68416D01*
X63000Y68286D01*
X63656Y68416D01*
X64212Y68788D01*
X64584Y69344D01*
X64714Y70000D01*
X64584Y70656D01*
X64212Y71212D01*
X63656Y71584D01*
X63000Y71714D01*
D02*
G37*
G36*
X59000D02*
X58344Y71584D01*
X57788Y71212D01*
X57416Y70656D01*
X57286Y70000D01*
X57416Y69344D01*
X57788Y68788D01*
X58344Y68416D01*
X59000Y68286D01*
X59656Y68416D01*
X60212Y68788D01*
X60584Y69344D01*
X60714Y70000D01*
X60584Y70656D01*
X60212Y71212D01*
X59656Y71584D01*
X59000Y71714D01*
D02*
G37*
G36*
X55000D02*
X54344Y71584D01*
X53788Y71212D01*
X53416Y70656D01*
X53286Y70000D01*
X53416Y69344D01*
X53788Y68788D01*
X54344Y68416D01*
X55000Y68286D01*
X55656Y68416D01*
X56212Y68788D01*
X56584Y69344D01*
X56714Y70000D01*
X56584Y70656D01*
X56212Y71212D01*
X55656Y71584D01*
X55000Y71714D01*
D02*
G37*
G36*
X51000D02*
X50344Y71584D01*
X49788Y71212D01*
X49416Y70656D01*
X49286Y70000D01*
X49416Y69344D01*
X49788Y68788D01*
X50344Y68416D01*
X51000Y68286D01*
X51656Y68416D01*
X52212Y68788D01*
X52584Y69344D01*
X52714Y70000D01*
X52584Y70656D01*
X52212Y71212D01*
X51656Y71584D01*
X51000Y71714D01*
D02*
G37*
G36*
X92000Y70714D02*
X91344Y70584D01*
X90788Y70212D01*
X90416Y69656D01*
X90286Y69000D01*
X90416Y68344D01*
X90788Y67788D01*
X91344Y67416D01*
X92000Y67286D01*
X92656Y67416D01*
X93212Y67788D01*
X93584Y68344D01*
X93714Y69000D01*
X93584Y69656D01*
X93212Y70212D01*
X92656Y70584D01*
X92000Y70714D01*
D02*
G37*
G36*
X26575Y70572D02*
X25919Y70442D01*
X25363Y70070D01*
X24991Y69514D01*
X24861Y68858D01*
X24991Y68202D01*
X25363Y67646D01*
X25919Y67275D01*
X26575Y67144D01*
X27231Y67275D01*
X27787Y67646D01*
X28158Y68202D01*
X28289Y68858D01*
X28158Y69514D01*
X27787Y70070D01*
X27231Y70442D01*
X26575Y70572D01*
D02*
G37*
G36*
X21575D02*
X20919Y70442D01*
X20363Y70070D01*
X19991Y69514D01*
X19861Y68858D01*
X19991Y68202D01*
X20363Y67646D01*
X20919Y67275D01*
X21575Y67144D01*
X22231Y67275D01*
X22787Y67646D01*
X23158Y68202D01*
X23289Y68858D01*
X23158Y69514D01*
X22787Y70070D01*
X22231Y70442D01*
X21575Y70572D01*
D02*
G37*
G36*
X16575D02*
X15919Y70442D01*
X15363Y70070D01*
X14991Y69514D01*
X14861Y68858D01*
X14991Y68202D01*
X15363Y67646D01*
X15919Y67275D01*
X16575Y67144D01*
X17231Y67275D01*
X17787Y67646D01*
X18158Y68202D01*
X18289Y68858D01*
X18158Y69514D01*
X17787Y70070D01*
X17231Y70442D01*
X16575Y70572D01*
D02*
G37*
G36*
X10984Y66017D02*
X10500D01*
Y64000D01*
X13402D01*
X13309Y64463D01*
X12764Y65280D01*
X11947Y65825D01*
X10984Y66017D01*
D02*
G37*
G36*
X9500D02*
X9016D01*
X8053Y65825D01*
X7236Y65280D01*
X6690Y64463D01*
X6598Y64000D01*
X9500D01*
Y66017D01*
D02*
G37*
G36*
X82000Y66714D02*
X81344Y66584D01*
X80788Y66212D01*
X80416Y65656D01*
X80286Y65000D01*
X80416Y64344D01*
X80788Y63788D01*
X81344Y63416D01*
X82000Y63286D01*
X82656Y63416D01*
X83212Y63788D01*
X83584Y64344D01*
X83714Y65000D01*
X83584Y65656D01*
X83212Y66212D01*
X82656Y66584D01*
X82000Y66714D01*
D02*
G37*
G36*
X78000D02*
X77344Y66584D01*
X76788Y66212D01*
X76416Y65656D01*
X76286Y65000D01*
X76416Y64344D01*
X76788Y63788D01*
X77344Y63416D01*
X78000Y63286D01*
X78656Y63416D01*
X79212Y63788D01*
X79584Y64344D01*
X79714Y65000D01*
X79584Y65656D01*
X79212Y66212D01*
X78656Y66584D01*
X78000Y66714D01*
D02*
G37*
G36*
X74000D02*
X73344Y66584D01*
X72788Y66212D01*
X72416Y65656D01*
X72286Y65000D01*
X72416Y64344D01*
X72788Y63788D01*
X73344Y63416D01*
X74000Y63286D01*
X74656Y63416D01*
X75212Y63788D01*
X75584Y64344D01*
X75714Y65000D01*
X75584Y65656D01*
X75212Y66212D01*
X74656Y66584D01*
X74000Y66714D01*
D02*
G37*
G36*
X70000D02*
X69344Y66584D01*
X68788Y66212D01*
X68416Y65656D01*
X68286Y65000D01*
X68416Y64344D01*
X68788Y63788D01*
X69344Y63416D01*
X70000Y63286D01*
X70656Y63416D01*
X71212Y63788D01*
X71584Y64344D01*
X71714Y65000D01*
X71584Y65656D01*
X71212Y66212D01*
X70656Y66584D01*
X70000Y66714D01*
D02*
G37*
G36*
X63000D02*
X62344Y66584D01*
X61788Y66212D01*
X61416Y65656D01*
X61286Y65000D01*
X61416Y64344D01*
X61788Y63788D01*
X62344Y63416D01*
X63000Y63286D01*
X63656Y63416D01*
X64212Y63788D01*
X64584Y64344D01*
X64714Y65000D01*
X64584Y65656D01*
X64212Y66212D01*
X63656Y66584D01*
X63000Y66714D01*
D02*
G37*
G36*
X59000D02*
X58344Y66584D01*
X57788Y66212D01*
X57416Y65656D01*
X57286Y65000D01*
X57416Y64344D01*
X57788Y63788D01*
X58344Y63416D01*
X59000Y63286D01*
X59656Y63416D01*
X60212Y63788D01*
X60584Y64344D01*
X60714Y65000D01*
X60584Y65656D01*
X60212Y66212D01*
X59656Y66584D01*
X59000Y66714D01*
D02*
G37*
G36*
X55000D02*
X54344Y66584D01*
X53788Y66212D01*
X53416Y65656D01*
X53286Y65000D01*
X53416Y64344D01*
X53788Y63788D01*
X54344Y63416D01*
X55000Y63286D01*
X55656Y63416D01*
X56212Y63788D01*
X56584Y64344D01*
X56714Y65000D01*
X56584Y65656D01*
X56212Y66212D01*
X55656Y66584D01*
X55000Y66714D01*
D02*
G37*
G36*
X51000D02*
X50344Y66584D01*
X49788Y66212D01*
X49416Y65656D01*
X49286Y65000D01*
X49416Y64344D01*
X49788Y63788D01*
X50344Y63416D01*
X51000Y63286D01*
X51656Y63416D01*
X52212Y63788D01*
X52584Y64344D01*
X52714Y65000D01*
X52584Y65656D01*
X52212Y66212D01*
X51656Y66584D01*
X51000Y66714D01*
D02*
G37*
G36*
X116575Y65572D02*
X115919Y65442D01*
X115363Y65070D01*
X114991Y64514D01*
X114861Y63858D01*
X114991Y63202D01*
X115363Y62646D01*
X115919Y62275D01*
X116575Y62144D01*
X117231Y62275D01*
X117787Y62646D01*
X118158Y63202D01*
X118289Y63858D01*
X118158Y64514D01*
X117787Y65070D01*
X117231Y65442D01*
X116575Y65572D01*
D02*
G37*
G36*
X110000Y64714D02*
X109344Y64584D01*
X108788Y64212D01*
X108416Y63656D01*
X108286Y63000D01*
X108416Y62344D01*
X108788Y61788D01*
X109344Y61416D01*
X110000Y61286D01*
X110656Y61416D01*
X111212Y61788D01*
X111584Y62344D01*
X111714Y63000D01*
X111584Y63656D01*
X111212Y64212D01*
X110656Y64584D01*
X110000Y64714D01*
D02*
G37*
G36*
X93000Y65789D02*
X92344Y65658D01*
X91788Y65287D01*
X91416Y64731D01*
X91286Y64075D01*
X91416Y63419D01*
X91788Y62863D01*
X92344Y62491D01*
X93000Y62361D01*
X93362Y62433D01*
X93791Y62026D01*
X93786Y62000D01*
X93916Y61344D01*
X94288Y60788D01*
X94844Y60416D01*
X95500Y60286D01*
X96156Y60416D01*
X96712Y60788D01*
X97084Y61344D01*
X97214Y62000D01*
X97084Y62656D01*
X96712Y63212D01*
X96156Y63584D01*
X95500Y63714D01*
X95138Y63642D01*
X94709Y64049D01*
X94714Y64075D01*
X94584Y64731D01*
X94212Y65287D01*
X93656Y65658D01*
X93000Y65789D01*
D02*
G37*
G36*
X63000Y61714D02*
X62344Y61584D01*
X61788Y61212D01*
X61416Y60656D01*
X61286Y60000D01*
X61416Y59344D01*
X61788Y58788D01*
X62344Y58416D01*
X63000Y58286D01*
X63656Y58416D01*
X64212Y58788D01*
X64584Y59344D01*
X64714Y60000D01*
X64584Y60656D01*
X64212Y61212D01*
X63656Y61584D01*
X63000Y61714D01*
D02*
G37*
G36*
X59000D02*
X58344Y61584D01*
X57788Y61212D01*
X57416Y60656D01*
X57286Y60000D01*
X57416Y59344D01*
X57788Y58788D01*
X58344Y58416D01*
X59000Y58286D01*
X59656Y58416D01*
X60212Y58788D01*
X60584Y59344D01*
X60714Y60000D01*
X60584Y60656D01*
X60212Y61212D01*
X59656Y61584D01*
X59000Y61714D01*
D02*
G37*
G36*
X55000D02*
X54344Y61584D01*
X53788Y61212D01*
X53416Y60656D01*
X53286Y60000D01*
X53416Y59344D01*
X53788Y58788D01*
X54344Y58416D01*
X55000Y58286D01*
X55656Y58416D01*
X56212Y58788D01*
X56584Y59344D01*
X56714Y60000D01*
X56584Y60656D01*
X56212Y61212D01*
X55656Y61584D01*
X55000Y61714D01*
D02*
G37*
G36*
X51000D02*
X50344Y61584D01*
X49788Y61212D01*
X49416Y60656D01*
X49286Y60000D01*
X49416Y59344D01*
X49788Y58788D01*
X50344Y58416D01*
X51000Y58286D01*
X51656Y58416D01*
X52212Y58788D01*
X52584Y59344D01*
X52714Y60000D01*
X52584Y60656D01*
X52212Y61212D01*
X51656Y61584D01*
X51000Y61714D01*
D02*
G37*
G36*
X82000Y61639D02*
X81344Y61509D01*
X80788Y61137D01*
X80416Y60581D01*
X80286Y59925D01*
X80416Y59269D01*
X80788Y58713D01*
X81344Y58342D01*
X82000Y58211D01*
X82656Y58342D01*
X83212Y58713D01*
X83584Y59269D01*
X83714Y59925D01*
X83584Y60581D01*
X83212Y61137D01*
X82656Y61509D01*
X82000Y61639D01*
D02*
G37*
G36*
X78000D02*
X77344Y61509D01*
X76788Y61137D01*
X76416Y60581D01*
X76286Y59925D01*
X76416Y59269D01*
X76788Y58713D01*
X77344Y58342D01*
X78000Y58211D01*
X78656Y58342D01*
X79212Y58713D01*
X79584Y59269D01*
X79714Y59925D01*
X79584Y60581D01*
X79212Y61137D01*
X78656Y61509D01*
X78000Y61639D01*
D02*
G37*
G36*
X74000D02*
X73344Y61509D01*
X72788Y61137D01*
X72416Y60581D01*
X72286Y59925D01*
X72416Y59269D01*
X72788Y58713D01*
X73344Y58342D01*
X74000Y58211D01*
X74656Y58342D01*
X75212Y58713D01*
X75584Y59269D01*
X75714Y59925D01*
X75584Y60581D01*
X75212Y61137D01*
X74656Y61509D01*
X74000Y61639D01*
D02*
G37*
G36*
X70000D02*
X69344Y61509D01*
X68788Y61137D01*
X68416Y60581D01*
X68286Y59925D01*
X68416Y59269D01*
X68788Y58713D01*
X69344Y58342D01*
X70000Y58211D01*
X70656Y58342D01*
X71212Y58713D01*
X71584Y59269D01*
X71714Y59925D01*
X71584Y60581D01*
X71212Y61137D01*
X70656Y61509D01*
X70000Y61639D01*
D02*
G37*
G36*
X116575Y60572D02*
X115919Y60442D01*
X115363Y60070D01*
X114991Y59514D01*
X114861Y58858D01*
X114991Y58202D01*
X115363Y57646D01*
X115919Y57275D01*
X116575Y57144D01*
X117231Y57275D01*
X117787Y57646D01*
X118158Y58202D01*
X118289Y58858D01*
X118158Y59514D01*
X117787Y60070D01*
X117231Y60442D01*
X116575Y60572D01*
D02*
G37*
G36*
X110000Y59214D02*
X109344Y59084D01*
X108788Y58712D01*
X108416Y58156D01*
X108286Y57500D01*
X108416Y56844D01*
X108788Y56288D01*
X109344Y55916D01*
X110000Y55786D01*
X110656Y55916D01*
X111212Y56288D01*
X111584Y56844D01*
X111714Y57500D01*
X111584Y58156D01*
X111212Y58712D01*
X110656Y59084D01*
X110000Y59214D01*
D02*
G37*
G36*
X82000Y56714D02*
X81344Y56584D01*
X80788Y56212D01*
X80416Y55656D01*
X80286Y55000D01*
X80416Y54344D01*
X80788Y53788D01*
X81344Y53416D01*
X82000Y53286D01*
X82656Y53416D01*
X83212Y53788D01*
X83584Y54344D01*
X83714Y55000D01*
X83584Y55656D01*
X83212Y56212D01*
X82656Y56584D01*
X82000Y56714D01*
D02*
G37*
G36*
X78000D02*
X77344Y56584D01*
X76788Y56212D01*
X76416Y55656D01*
X76286Y55000D01*
X76416Y54344D01*
X76788Y53788D01*
X77344Y53416D01*
X78000Y53286D01*
X78656Y53416D01*
X79212Y53788D01*
X79584Y54344D01*
X79714Y55000D01*
X79584Y55656D01*
X79212Y56212D01*
X78656Y56584D01*
X78000Y56714D01*
D02*
G37*
G36*
X74000D02*
X73344Y56584D01*
X72788Y56212D01*
X72416Y55656D01*
X72286Y55000D01*
X72416Y54344D01*
X72788Y53788D01*
X73344Y53416D01*
X74000Y53286D01*
X74656Y53416D01*
X75212Y53788D01*
X75584Y54344D01*
X75714Y55000D01*
X75584Y55656D01*
X75212Y56212D01*
X74656Y56584D01*
X74000Y56714D01*
D02*
G37*
G36*
X70000D02*
X69344Y56584D01*
X68788Y56212D01*
X68416Y55656D01*
X68286Y55000D01*
X68416Y54344D01*
X68788Y53788D01*
X69344Y53416D01*
X70000Y53286D01*
X70656Y53416D01*
X71212Y53788D01*
X71584Y54344D01*
X71714Y55000D01*
X71584Y55656D01*
X71212Y56212D01*
X70656Y56584D01*
X70000Y56714D01*
D02*
G37*
G36*
X63000D02*
X62344Y56584D01*
X61788Y56212D01*
X61416Y55656D01*
X61286Y55000D01*
X61416Y54344D01*
X61788Y53788D01*
X62344Y53416D01*
X63000Y53286D01*
X63656Y53416D01*
X64212Y53788D01*
X64584Y54344D01*
X64714Y55000D01*
X64584Y55656D01*
X64212Y56212D01*
X63656Y56584D01*
X63000Y56714D01*
D02*
G37*
G36*
X59000D02*
X58344Y56584D01*
X57788Y56212D01*
X57416Y55656D01*
X57286Y55000D01*
X57416Y54344D01*
X57788Y53788D01*
X58344Y53416D01*
X59000Y53286D01*
X59656Y53416D01*
X60212Y53788D01*
X60584Y54344D01*
X60714Y55000D01*
X60584Y55656D01*
X60212Y56212D01*
X59656Y56584D01*
X59000Y56714D01*
D02*
G37*
G36*
X55000D02*
X54344Y56584D01*
X53788Y56212D01*
X53416Y55656D01*
X53286Y55000D01*
X53416Y54344D01*
X53788Y53788D01*
X54344Y53416D01*
X55000Y53286D01*
X55656Y53416D01*
X56212Y53788D01*
X56584Y54344D01*
X56714Y55000D01*
X56584Y55656D01*
X56212Y56212D01*
X55656Y56584D01*
X55000Y56714D01*
D02*
G37*
G36*
X51000D02*
X50344Y56584D01*
X49788Y56212D01*
X49416Y55656D01*
X49286Y55000D01*
X49416Y54344D01*
X49788Y53788D01*
X50344Y53416D01*
X51000Y53286D01*
X51656Y53416D01*
X52212Y53788D01*
X52584Y54344D01*
X52714Y55000D01*
X52584Y55656D01*
X52212Y56212D01*
X51656Y56584D01*
X51000Y56714D01*
D02*
G37*
G36*
X94000Y55714D02*
X93344Y55584D01*
X92788Y55212D01*
X92416Y54656D01*
X92286Y54000D01*
X92416Y53344D01*
X92788Y52788D01*
X93344Y52416D01*
X94000Y52286D01*
X94656Y52416D01*
X95212Y52788D01*
X95584Y53344D01*
X95714Y54000D01*
X95584Y54656D01*
X95212Y55212D01*
X94656Y55584D01*
X94000Y55714D01*
D02*
G37*
G36*
X29500Y52714D02*
X28844Y52584D01*
X28288Y52212D01*
X27916Y51656D01*
X27786Y51000D01*
X27916Y50344D01*
X28288Y49788D01*
X28844Y49416D01*
X29500Y49286D01*
X30156Y49416D01*
X30712Y49788D01*
X31084Y50344D01*
X31214Y51000D01*
X31084Y51656D01*
X30712Y52212D01*
X30156Y52584D01*
X29500Y52714D01*
D02*
G37*
G36*
X91500Y52214D02*
X90844Y52084D01*
X90288Y51712D01*
X89916Y51156D01*
X89786Y50500D01*
X89916Y49844D01*
X90288Y49288D01*
X90844Y48916D01*
X91500Y48786D01*
X92156Y48916D01*
X92712Y49288D01*
X93084Y49844D01*
X93214Y50500D01*
X93084Y51156D01*
X92712Y51712D01*
X92156Y52084D01*
X91500Y52214D01*
D02*
G37*
G36*
X45000Y50714D02*
X44344Y50584D01*
X43788Y50212D01*
X43416Y49656D01*
X43286Y49000D01*
X43416Y48344D01*
X43788Y47788D01*
X44344Y47416D01*
X45000Y47286D01*
X45656Y47416D01*
X46212Y47788D01*
X46584Y48344D01*
X46714Y49000D01*
X46584Y49656D01*
X46212Y50212D01*
X45656Y50584D01*
X45000Y50714D01*
D02*
G37*
G36*
X25500Y50214D02*
X24844Y50084D01*
X24288Y49712D01*
X23916Y49156D01*
X23786Y48500D01*
X23916Y47844D01*
X24288Y47288D01*
X24844Y46916D01*
X25500Y46786D01*
X26156Y46916D01*
X26712Y47288D01*
X27084Y47844D01*
X27214Y48500D01*
X27084Y49156D01*
X26712Y49712D01*
X26156Y50084D01*
X25500Y50214D01*
D02*
G37*
G36*
X13402Y63000D02*
X10000D01*
X6598D01*
X6690Y62537D01*
X7236Y61720D01*
X7988Y61218D01*
X8036Y60994D01*
X8006Y60674D01*
X7308Y60208D01*
X6785Y59424D01*
X6601Y58500D01*
X6785Y57576D01*
X7308Y56792D01*
X8092Y56269D01*
X8162Y56255D01*
Y55745D01*
X8092Y55731D01*
X7308Y55208D01*
X6785Y54424D01*
X6601Y53500D01*
X6785Y52576D01*
X7308Y51792D01*
X8092Y51269D01*
X8162Y51255D01*
Y50745D01*
X8092Y50731D01*
X7308Y50208D01*
X6785Y49424D01*
X6601Y48500D01*
X6785Y47576D01*
X7308Y46792D01*
X8092Y46269D01*
X9016Y46085D01*
X10984D01*
X11908Y46269D01*
X12692Y46792D01*
X13215Y47576D01*
X13399Y48500D01*
X13215Y49424D01*
X12692Y50208D01*
X11908Y50731D01*
X11838Y50745D01*
Y51255D01*
X11908Y51269D01*
X12692Y51792D01*
X13215Y52576D01*
X13399Y53500D01*
X13215Y54424D01*
X12692Y55208D01*
X11908Y55731D01*
X11838Y55745D01*
Y56255D01*
X11908Y56269D01*
X12692Y56792D01*
X13215Y57576D01*
X13399Y58500D01*
X13215Y59424D01*
X12692Y60208D01*
X11994Y60674D01*
X11964Y60994D01*
X12012Y61218D01*
X12764Y61720D01*
X13309Y62537D01*
X13402Y63000D01*
D02*
G37*
G36*
X29500Y47714D02*
X28844Y47584D01*
X28288Y47212D01*
X27916Y46656D01*
X27786Y46000D01*
X27861Y45622D01*
X27411Y45321D01*
X27231Y45442D01*
X26575Y45572D01*
X25919Y45442D01*
X25363Y45070D01*
X24991Y44514D01*
X24861Y43858D01*
X24991Y43202D01*
X25363Y42646D01*
X25919Y42275D01*
X26575Y42144D01*
X27231Y42275D01*
X27787Y42646D01*
X28158Y43202D01*
X28289Y43858D01*
X28214Y44236D01*
X28664Y44537D01*
X28844Y44416D01*
X29500Y44286D01*
X30156Y44416D01*
X30712Y44788D01*
X31084Y45344D01*
X31214Y46000D01*
X31084Y46656D01*
X30712Y47212D01*
X30156Y47584D01*
X29500Y47714D01*
D02*
G37*
G36*
X42500D02*
X41844Y47584D01*
X41288Y47212D01*
X40916Y46656D01*
X40786Y46000D01*
X40916Y45344D01*
X41288Y44788D01*
X41844Y44416D01*
X42500Y44286D01*
X43156Y44416D01*
X43712Y44788D01*
X44084Y45344D01*
X44214Y46000D01*
X44084Y46656D01*
X43712Y47212D01*
X43156Y47584D01*
X42500Y47714D01*
D02*
G37*
G36*
X76000Y46214D02*
X75344Y46084D01*
X74788Y45712D01*
X74416Y45156D01*
X74286Y44500D01*
X74416Y43844D01*
X74788Y43288D01*
X75344Y42916D01*
X76000Y42786D01*
X76656Y42916D01*
X77212Y43288D01*
X77584Y43844D01*
X77714Y44500D01*
X77584Y45156D01*
X77212Y45712D01*
X76656Y46084D01*
X76000Y46214D01*
D02*
G37*
G36*
X61000D02*
X60344Y46084D01*
X59788Y45712D01*
X59416Y45156D01*
X59286Y44500D01*
X59416Y43844D01*
X59788Y43288D01*
X60344Y42916D01*
X61000Y42786D01*
X61656Y42916D01*
X62212Y43288D01*
X62584Y43844D01*
X62714Y44500D01*
X62584Y45156D01*
X62212Y45712D01*
X61656Y46084D01*
X61000Y46214D01*
D02*
G37*
G36*
X21575Y45572D02*
X20919Y45442D01*
X20363Y45070D01*
X19991Y44514D01*
X19861Y43858D01*
X19991Y43202D01*
X20363Y42646D01*
X20919Y42275D01*
X21575Y42144D01*
X22231Y42275D01*
X22787Y42646D01*
X23158Y43202D01*
X23289Y43858D01*
X23158Y44514D01*
X22787Y45070D01*
X22231Y45442D01*
X21575Y45572D01*
D02*
G37*
G36*
X16575D02*
X15919Y45442D01*
X15363Y45070D01*
X14991Y44514D01*
X14861Y43858D01*
X14991Y43202D01*
X15363Y42646D01*
X15919Y42275D01*
X16575Y42144D01*
X17231Y42275D01*
X17787Y42646D01*
X18158Y43202D01*
X18289Y43858D01*
X18158Y44514D01*
X17787Y45070D01*
X17231Y45442D01*
X16575Y45572D01*
D02*
G37*
G36*
X74000Y41714D02*
X73344Y41584D01*
X72788Y41212D01*
X72528Y40823D01*
X72508Y40815D01*
X71992D01*
X71972Y40823D01*
X71712Y41212D01*
X71156Y41584D01*
X70500Y41714D01*
X69844Y41584D01*
X69288Y41212D01*
X68916Y40656D01*
X68786Y40000D01*
X68916Y39344D01*
X69288Y38788D01*
X69844Y38416D01*
X70500Y38286D01*
X71156Y38416D01*
X71712Y38788D01*
X71972Y39177D01*
X71992Y39185D01*
X72508D01*
X72528Y39177D01*
X72788Y38788D01*
X73344Y38416D01*
X74000Y38286D01*
X74656Y38416D01*
X75212Y38788D01*
X75584Y39344D01*
X75714Y40000D01*
X75584Y40656D01*
X75212Y41212D01*
X74656Y41584D01*
X74000Y41714D01*
D02*
G37*
G36*
X52500Y40714D02*
X51844Y40584D01*
X51288Y40212D01*
X50916Y39656D01*
X50786Y39000D01*
X50916Y38344D01*
X51288Y37788D01*
X51844Y37416D01*
X52500Y37286D01*
X53156Y37416D01*
X53712Y37788D01*
X54084Y38344D01*
X54214Y39000D01*
X54084Y39656D01*
X53712Y40212D01*
X53156Y40584D01*
X52500Y40714D01*
D02*
G37*
G36*
X40500D02*
X39844Y40584D01*
X39288Y40212D01*
X38916Y39656D01*
X38786Y39000D01*
X38916Y38344D01*
X39288Y37788D01*
X39844Y37416D01*
X40500Y37286D01*
X41156Y37416D01*
X41712Y37788D01*
X42084Y38344D01*
X42214Y39000D01*
X42084Y39656D01*
X41712Y40212D01*
X41156Y40584D01*
X40500Y40714D01*
D02*
G37*
G36*
X26575Y40572D02*
X25919Y40442D01*
X25363Y40070D01*
X24991Y39514D01*
X24861Y38858D01*
X24991Y38202D01*
X25363Y37646D01*
X25919Y37275D01*
X26575Y37144D01*
X27231Y37275D01*
X27787Y37646D01*
X28158Y38202D01*
X28289Y38858D01*
X28158Y39514D01*
X27787Y40070D01*
X27231Y40442D01*
X26575Y40572D01*
D02*
G37*
G36*
X21575D02*
X20919Y40442D01*
X20363Y40070D01*
X19991Y39514D01*
X19861Y38858D01*
X19991Y38202D01*
X20363Y37646D01*
X20919Y37275D01*
X21575Y37144D01*
X22231Y37275D01*
X22787Y37646D01*
X23158Y38202D01*
X23289Y38858D01*
X23158Y39514D01*
X22787Y40070D01*
X22231Y40442D01*
X21575Y40572D01*
D02*
G37*
G36*
X16575D02*
X15919Y40442D01*
X15363Y40070D01*
X14991Y39514D01*
X14861Y38858D01*
X14991Y38202D01*
X15363Y37646D01*
X15919Y37275D01*
X16575Y37144D01*
X17231Y37275D01*
X17787Y37646D01*
X18158Y38202D01*
X18289Y38858D01*
X18158Y39514D01*
X17787Y40070D01*
X17231Y40442D01*
X16575Y40572D01*
D02*
G37*
G36*
X26575Y35572D02*
X25919Y35442D01*
X25363Y35070D01*
X24991Y34514D01*
X24861Y33858D01*
X24991Y33202D01*
X25363Y32646D01*
X25919Y32275D01*
X26575Y32144D01*
X27231Y32275D01*
X27787Y32646D01*
X28158Y33202D01*
X28289Y33858D01*
X28158Y34514D01*
X27787Y35070D01*
X27231Y35442D01*
X26575Y35572D01*
D02*
G37*
G36*
X21575D02*
X20919Y35442D01*
X20363Y35070D01*
X19991Y34514D01*
X19861Y33858D01*
X19991Y33202D01*
X20363Y32646D01*
X20919Y32275D01*
X21575Y32144D01*
X22231Y32275D01*
X22787Y32646D01*
X23158Y33202D01*
X23289Y33858D01*
X23158Y34514D01*
X22787Y35070D01*
X22231Y35442D01*
X21575Y35572D01*
D02*
G37*
G36*
X16575D02*
X15919Y35442D01*
X15363Y35070D01*
X14991Y34514D01*
X14861Y33858D01*
X14991Y33202D01*
X15363Y32646D01*
X15919Y32275D01*
X16575Y32144D01*
X17231Y32275D01*
X17787Y32646D01*
X18158Y33202D01*
X18289Y33858D01*
X18158Y34514D01*
X17787Y35070D01*
X17231Y35442D01*
X16575Y35572D01*
D02*
G37*
G36*
X11575D02*
X10919Y35442D01*
X10363Y35070D01*
X9991Y34514D01*
X9861Y33858D01*
X9991Y33202D01*
X10363Y32646D01*
X10919Y32275D01*
X11575Y32144D01*
X12231Y32275D01*
X12787Y32646D01*
X13158Y33202D01*
X13289Y33858D01*
X13158Y34514D01*
X12787Y35070D01*
X12231Y35442D01*
X11575Y35572D01*
D02*
G37*
G36*
X6575D02*
X5919Y35442D01*
X5363Y35070D01*
X4991Y34514D01*
X4861Y33858D01*
X4991Y33202D01*
X5363Y32646D01*
X5919Y32275D01*
X6575Y32144D01*
X7231Y32275D01*
X7787Y32646D01*
X8158Y33202D01*
X8289Y33858D01*
X8158Y34514D01*
X7787Y35070D01*
X7231Y35442D01*
X6575Y35572D01*
D02*
G37*
G36*
X65000Y32214D02*
X64344Y32084D01*
X63788Y31712D01*
X63416Y31156D01*
X63286Y30500D01*
X63416Y29844D01*
X63788Y29288D01*
X64344Y28916D01*
X65000Y28786D01*
X65656Y28916D01*
X66212Y29288D01*
X66584Y29844D01*
X66714Y30500D01*
X66584Y31156D01*
X66212Y31712D01*
X65656Y32084D01*
X65000Y32214D01*
D02*
G37*
G36*
X26575Y30572D02*
X25919Y30442D01*
X25363Y30070D01*
X24991Y29514D01*
X24861Y28858D01*
X24991Y28202D01*
X25363Y27646D01*
X25919Y27275D01*
X26575Y27144D01*
X27231Y27275D01*
X27787Y27646D01*
X28158Y28202D01*
X28289Y28858D01*
X28158Y29514D01*
X27787Y30070D01*
X27231Y30442D01*
X26575Y30572D01*
D02*
G37*
G36*
X21575D02*
X20919Y30442D01*
X20363Y30070D01*
X19991Y29514D01*
X19861Y28858D01*
X19991Y28202D01*
X20363Y27646D01*
X20919Y27275D01*
X21575Y27144D01*
X22231Y27275D01*
X22787Y27646D01*
X23158Y28202D01*
X23289Y28858D01*
X23158Y29514D01*
X22787Y30070D01*
X22231Y30442D01*
X21575Y30572D01*
D02*
G37*
G36*
X16575D02*
X15919Y30442D01*
X15363Y30070D01*
X14991Y29514D01*
X14861Y28858D01*
X14991Y28202D01*
X15363Y27646D01*
X15919Y27275D01*
X16575Y27144D01*
X17231Y27275D01*
X17787Y27646D01*
X18158Y28202D01*
X18289Y28858D01*
X18158Y29514D01*
X17787Y30070D01*
X17231Y30442D01*
X16575Y30572D01*
D02*
G37*
G36*
X11575D02*
X10919Y30442D01*
X10363Y30070D01*
X9991Y29514D01*
X9861Y28858D01*
X9991Y28202D01*
X10363Y27646D01*
X10919Y27275D01*
X11575Y27144D01*
X12231Y27275D01*
X12787Y27646D01*
X13158Y28202D01*
X13289Y28858D01*
X13158Y29514D01*
X12787Y30070D01*
X12231Y30442D01*
X11575Y30572D01*
D02*
G37*
G36*
X6575D02*
X5919Y30442D01*
X5363Y30070D01*
X4991Y29514D01*
X4861Y28858D01*
X4991Y28202D01*
X5363Y27646D01*
X5919Y27275D01*
X6575Y27144D01*
X7231Y27275D01*
X7787Y27646D01*
X8158Y28202D01*
X8289Y28858D01*
X8158Y29514D01*
X7787Y30070D01*
X7231Y30442D01*
X6575Y30572D01*
D02*
G37*
G36*
X93000Y29214D02*
X92344Y29084D01*
X91788Y28712D01*
X91416Y28156D01*
X91286Y27500D01*
X91416Y26844D01*
X91788Y26288D01*
X92344Y25916D01*
X93000Y25786D01*
X93656Y25916D01*
X94212Y26288D01*
X94584Y26844D01*
X94714Y27500D01*
X94584Y28156D01*
X94212Y28712D01*
X93656Y29084D01*
X93000Y29214D01*
D02*
G37*
G36*
X86000D02*
X85344Y29084D01*
X84788Y28712D01*
X84416Y28156D01*
X84286Y27500D01*
X84416Y26844D01*
X84788Y26288D01*
X85344Y25916D01*
X86000Y25786D01*
X86656Y25916D01*
X87212Y26288D01*
X87584Y26844D01*
X87714Y27500D01*
X87584Y28156D01*
X87212Y28712D01*
X86656Y29084D01*
X86000Y29214D01*
D02*
G37*
G36*
X26575Y25572D02*
X25919Y25442D01*
X25363Y25070D01*
X24991Y24514D01*
X24861Y23858D01*
X24991Y23202D01*
X25363Y22646D01*
X25919Y22275D01*
X26575Y22144D01*
X27231Y22275D01*
X27787Y22646D01*
X28158Y23202D01*
X28289Y23858D01*
X28158Y24514D01*
X27787Y25070D01*
X27231Y25442D01*
X26575Y25572D01*
D02*
G37*
G36*
X13780Y26028D02*
X11863Y25877D01*
X9995Y25429D01*
X8219Y24693D01*
X6580Y23689D01*
X5118Y22441D01*
X3870Y20979D01*
X2866Y19340D01*
X2130Y17565D01*
X1682Y15696D01*
X1531Y13780D01*
X1682Y11863D01*
X2130Y9995D01*
X2866Y8219D01*
X3870Y6580D01*
X5118Y5118D01*
X6580Y3870D01*
X8219Y2866D01*
X9995Y2130D01*
X11863Y1682D01*
X13780Y1531D01*
X15696Y1682D01*
X17565Y2130D01*
X19340Y2866D01*
X20979Y3870D01*
X22441Y5118D01*
X23689Y6580D01*
X24560Y8002D01*
X25125Y8000D01*
X25127Y7999D01*
X25363Y7646D01*
X25919Y7275D01*
X26575Y7144D01*
X27231Y7275D01*
X27787Y7646D01*
X28158Y8202D01*
X28289Y8858D01*
X28158Y9514D01*
X27787Y10070D01*
X27231Y10442D01*
X26575Y10572D01*
X26057Y10469D01*
X25622Y10799D01*
X25877Y11863D01*
X26028Y13780D01*
X25877Y15696D01*
X25590Y16893D01*
X25728Y17053D01*
X26017Y17255D01*
X26575Y17144D01*
X27231Y17275D01*
X27787Y17646D01*
X28158Y18202D01*
X28289Y18858D01*
X28158Y19514D01*
X27787Y20070D01*
X27231Y20442D01*
X26575Y20572D01*
X25919Y20442D01*
X25363Y20070D01*
X25086Y19656D01*
X24622Y19605D01*
X24514Y19632D01*
X23689Y20979D01*
X22441Y22441D01*
X20979Y23689D01*
X19340Y24693D01*
X17565Y25429D01*
X15696Y25877D01*
X13780Y26028D01*
D02*
G37*
G36*
X93000Y18214D02*
X92344Y18084D01*
X91788Y17712D01*
X91416Y17156D01*
X91286Y16500D01*
X91416Y15844D01*
X91788Y15288D01*
X92344Y14916D01*
X93000Y14786D01*
X93656Y14916D01*
X94212Y15288D01*
X94584Y15844D01*
X94714Y16500D01*
X94584Y17156D01*
X94212Y17712D01*
X93656Y18084D01*
X93000Y18214D01*
D02*
G37*
G36*
X86000D02*
X85344Y18084D01*
X84788Y17712D01*
X84416Y17156D01*
X84286Y16500D01*
X84416Y15844D01*
X84788Y15288D01*
X85344Y14916D01*
X86000Y14786D01*
X86656Y14916D01*
X87212Y15288D01*
X87584Y15844D01*
X87714Y16500D01*
X87584Y17156D01*
X87212Y17712D01*
X86656Y18084D01*
X86000Y18214D01*
D02*
G37*
G36*
X61000Y16714D02*
X60344Y16584D01*
X59788Y16212D01*
X59416Y15656D01*
X59286Y15000D01*
X59416Y14344D01*
X59788Y13788D01*
X60344Y13416D01*
X61000Y13286D01*
X61656Y13416D01*
X62212Y13788D01*
X62584Y14344D01*
X62714Y15000D01*
X62584Y15656D01*
X62212Y16212D01*
X61656Y16584D01*
X61000Y16714D01*
D02*
G37*
G36*
X55000D02*
X54344Y16584D01*
X53788Y16212D01*
X53416Y15656D01*
X53286Y15000D01*
X53416Y14344D01*
X53788Y13788D01*
X54344Y13416D01*
X55000Y13286D01*
X55656Y13416D01*
X56212Y13788D01*
X56584Y14344D01*
X56714Y15000D01*
X56584Y15656D01*
X56212Y16212D01*
X55656Y16584D01*
X55000Y16714D01*
D02*
G37*
G36*
X49000D02*
X48344Y16584D01*
X47788Y16212D01*
X47416Y15656D01*
X47286Y15000D01*
X47416Y14344D01*
X47788Y13788D01*
X48344Y13416D01*
X49000Y13286D01*
X49656Y13416D01*
X50212Y13788D01*
X50584Y14344D01*
X50714Y15000D01*
X50584Y15656D01*
X50212Y16212D01*
X49656Y16584D01*
X49000Y16714D01*
D02*
G37*
G36*
X43000D02*
X42344Y16584D01*
X41788Y16212D01*
X41416Y15656D01*
X41286Y15000D01*
X41416Y14344D01*
X41788Y13788D01*
X42344Y13416D01*
X43000Y13286D01*
X43656Y13416D01*
X44212Y13788D01*
X44584Y14344D01*
X44714Y15000D01*
X44584Y15656D01*
X44212Y16212D01*
X43656Y16584D01*
X43000Y16714D01*
D02*
G37*
G36*
X37000D02*
X36344Y16584D01*
X35788Y16212D01*
X35416Y15656D01*
X35286Y15000D01*
X35416Y14344D01*
X35788Y13788D01*
X36344Y13416D01*
X37000Y13286D01*
X37656Y13416D01*
X38212Y13788D01*
X38584Y14344D01*
X38714Y15000D01*
X38584Y15656D01*
X38212Y16212D01*
X37656Y16584D01*
X37000Y16714D01*
D02*
G37*
G36*
X81575Y15572D02*
X80919Y15442D01*
X80363Y15070D01*
X79991Y14514D01*
X79861Y13858D01*
X79991Y13202D01*
X80363Y12646D01*
X80919Y12275D01*
X81575Y12144D01*
X82231Y12275D01*
X82787Y12646D01*
X83158Y13202D01*
X83289Y13858D01*
X83158Y14514D01*
X82787Y15070D01*
X82231Y15442D01*
X81575Y15572D01*
D02*
G37*
G36*
X75000Y15214D02*
X74344Y15084D01*
X73788Y14712D01*
X73416Y14156D01*
X73286Y13500D01*
X73416Y12844D01*
X73788Y12288D01*
X74344Y11916D01*
X75000Y11786D01*
X75656Y11916D01*
X76212Y12288D01*
X76584Y12844D01*
X76714Y13500D01*
X76584Y14156D01*
X76212Y14712D01*
X75656Y15084D01*
X75000Y15214D01*
D02*
G37*
G36*
X67000D02*
X66344Y15084D01*
X65788Y14712D01*
X65416Y14156D01*
X65286Y13500D01*
X65416Y12844D01*
X65788Y12288D01*
X66344Y11916D01*
X67000Y11786D01*
X67656Y11916D01*
X68212Y12288D01*
X68584Y12844D01*
X68714Y13500D01*
X68584Y14156D01*
X68212Y14712D01*
X67656Y15084D01*
X67000Y15214D01*
D02*
G37*
G36*
X91575Y10572D02*
X90919Y10442D01*
X90363Y10070D01*
X89991Y9514D01*
X89861Y8858D01*
X89991Y8202D01*
X90363Y7646D01*
X90919Y7275D01*
X91575Y7144D01*
X92231Y7275D01*
X92787Y7646D01*
X93158Y8202D01*
X93289Y8858D01*
X93158Y9514D01*
X92787Y10070D01*
X92231Y10442D01*
X91575Y10572D01*
D02*
G37*
G36*
X86575D02*
X85919Y10442D01*
X85363Y10070D01*
X84991Y9514D01*
X84861Y8858D01*
X84991Y8202D01*
X85363Y7646D01*
X85919Y7275D01*
X86575Y7144D01*
X87231Y7275D01*
X87787Y7646D01*
X88158Y8202D01*
X88289Y8858D01*
X88158Y9514D01*
X87787Y10070D01*
X87231Y10442D01*
X86575Y10572D01*
D02*
G37*
G36*
X81575D02*
X80919Y10442D01*
X80363Y10070D01*
X79991Y9514D01*
X79861Y8858D01*
X79991Y8202D01*
X80363Y7646D01*
X80919Y7275D01*
X81575Y7144D01*
X82231Y7275D01*
X82787Y7646D01*
X83158Y8202D01*
X83289Y8858D01*
X83158Y9514D01*
X82787Y10070D01*
X82231Y10442D01*
X81575Y10572D01*
D02*
G37*
G36*
X71000Y7007D02*
X70232Y6854D01*
X69581Y6419D01*
X69146Y5768D01*
X68993Y5000D01*
X69146Y4232D01*
X69581Y3581D01*
X70232Y3146D01*
X71000Y2993D01*
X71768Y3146D01*
X72419Y3581D01*
X72854Y4232D01*
X73007Y5000D01*
X72854Y5768D01*
X72419Y6419D01*
X71768Y6854D01*
X71000Y7007D01*
D02*
G37*
G36*
X66575Y5572D02*
X65919Y5442D01*
X65363Y5070D01*
X64991Y4514D01*
X64861Y3858D01*
X64991Y3202D01*
X65363Y2646D01*
X65919Y2275D01*
X66575Y2144D01*
X67231Y2275D01*
X67787Y2646D01*
X68158Y3202D01*
X68289Y3858D01*
X68158Y4514D01*
X67787Y5070D01*
X67231Y5442D01*
X66575Y5572D01*
D02*
G37*
G36*
X61575D02*
X60919Y5442D01*
X60363Y5070D01*
X59991Y4514D01*
X59861Y3858D01*
X59991Y3202D01*
X60363Y2646D01*
X60919Y2275D01*
X61575Y2144D01*
X62231Y2275D01*
X62787Y2646D01*
X63158Y3202D01*
X63289Y3858D01*
X63158Y4514D01*
X62787Y5070D01*
X62231Y5442D01*
X61575Y5572D01*
D02*
G37*
G36*
X56575D02*
X55919Y5442D01*
X55363Y5070D01*
X54991Y4514D01*
X54861Y3858D01*
X54991Y3202D01*
X55363Y2646D01*
X55919Y2275D01*
X56575Y2144D01*
X57231Y2275D01*
X57787Y2646D01*
X58158Y3202D01*
X58289Y3858D01*
X58158Y4514D01*
X57787Y5070D01*
X57231Y5442D01*
X56575Y5572D01*
D02*
G37*
G36*
X51575D02*
X50919Y5442D01*
X50363Y5070D01*
X49991Y4514D01*
X49861Y3858D01*
X49991Y3202D01*
X50363Y2646D01*
X50919Y2275D01*
X51575Y2144D01*
X52231Y2275D01*
X52787Y2646D01*
X53158Y3202D01*
X53289Y3858D01*
X53158Y4514D01*
X52787Y5070D01*
X52231Y5442D01*
X51575Y5572D01*
D02*
G37*
G36*
X46575D02*
X45919Y5442D01*
X45363Y5070D01*
X44991Y4514D01*
X44861Y3858D01*
X44991Y3202D01*
X45363Y2646D01*
X45919Y2275D01*
X46575Y2144D01*
X47231Y2275D01*
X47787Y2646D01*
X48158Y3202D01*
X48289Y3858D01*
X48158Y4514D01*
X47787Y5070D01*
X47231Y5442D01*
X46575Y5572D01*
D02*
G37*
G36*
X41575D02*
X40919Y5442D01*
X40363Y5070D01*
X39991Y4514D01*
X39861Y3858D01*
X39991Y3202D01*
X40363Y2646D01*
X40919Y2275D01*
X41575Y2144D01*
X42231Y2275D01*
X42787Y2646D01*
X43158Y3202D01*
X43289Y3858D01*
X43158Y4514D01*
X42787Y5070D01*
X42231Y5442D01*
X41575Y5572D01*
D02*
G37*
G36*
X26575D02*
X25919Y5442D01*
X25363Y5070D01*
X24991Y4514D01*
X24861Y3858D01*
X24991Y3202D01*
X25363Y2646D01*
X25919Y2275D01*
X26575Y2144D01*
X27231Y2275D01*
X27787Y2646D01*
X28158Y3202D01*
X28289Y3858D01*
X28158Y4514D01*
X27787Y5070D01*
X27231Y5442D01*
X26575Y5572D01*
D02*
G37*
%LPD*%
D107*
X172000Y143000D02*
D03*
X139772Y137000D02*
D03*
X134000Y127000D02*
D03*
Y105500D02*
D03*
X248500Y71346D02*
D03*
Y48847D02*
D03*
X240209D02*
D03*
Y71346D02*
D03*
X95500Y58500D02*
D03*
X134000Y49500D02*
D03*
X97000Y109500D02*
D03*
X133500Y16500D02*
D03*
X134000Y27500D02*
D03*
Y45500D02*
D03*
Y38500D02*
D03*
Y31500D02*
D03*
X118500Y16500D02*
D03*
X128500D02*
D03*
X123500D02*
D03*
X127500Y105500D02*
D03*
X42000Y53000D02*
D03*
X83000Y35500D02*
D03*
X114000Y123000D02*
D03*
X140000Y120000D02*
D03*
X35500Y115000D02*
D03*
X25500Y63382D02*
D03*
X40500Y71500D02*
D03*
X54000Y80500D02*
D03*
X81500D02*
D03*
X73000D02*
D03*
X48000Y131000D02*
D03*
X151500Y120000D02*
D03*
X114000Y137000D02*
D03*
D109*
X254000Y130000D02*
X257500Y126500D01*
X244000Y130000D02*
X254000D01*
X257500Y114500D02*
Y126500D01*
X220500Y106500D02*
X244000Y130000D01*
X182500Y106500D02*
X220500D01*
X219500Y109500D02*
X243500Y133500D01*
X181500Y109500D02*
X219500D01*
X243500Y133500D02*
X261500D01*
X242921Y136921D02*
X256909D01*
X177000Y112500D02*
X218500D01*
X242921Y136921D01*
X177000Y104500D02*
X180500D01*
X182500Y106500D01*
X177000Y108500D02*
X180500D01*
X181500Y109500D01*
X182500Y98500D02*
X241500D01*
X251000Y89000D02*
X274500D01*
X241500Y98500D02*
X251000Y89000D01*
X240500Y95500D02*
X251500Y84500D01*
X181500Y95500D02*
X240500D01*
X251500Y84500D02*
X265638D01*
X180500Y64500D02*
X182500Y66500D01*
X187500D02*
X234500Y19500D01*
X182500Y66500D02*
X187500D01*
X181500Y69500D02*
X188500D01*
X177000Y68500D02*
X180500D01*
X181500Y69500D01*
X188500D02*
X221000Y37000D01*
X180000Y80500D02*
X182000Y78500D01*
X191500D02*
X221153Y48847D01*
X182000Y78500D02*
X191500D01*
X181500Y75500D02*
X190500D01*
X221039Y44961D01*
X177000Y76500D02*
X180500D01*
X181500Y75500D01*
X177000Y80500D02*
X180000D01*
X180500Y84500D02*
X182500Y86500D01*
X177000Y84500D02*
X180500D01*
X182500Y86500D02*
X216000D01*
X177000Y100500D02*
X180500D01*
X182500Y98500D01*
X216000Y86500D02*
X231153Y71346D01*
X181500Y89500D02*
X238500D01*
X248500Y79500D01*
X177000Y88500D02*
X180500D01*
X181500Y89500D01*
X177000Y96500D02*
X180500D01*
X181500Y95500D01*
X177000Y92500D02*
X239500D01*
X221153Y48847D02*
X240209D01*
X221039Y44961D02*
X244614D01*
X177000Y72500D02*
X189500D01*
X221000Y41000D01*
X249689D01*
X221000Y37000D02*
X253638D01*
X177000Y64500D02*
X180500D01*
X239500Y92500D02*
X256547Y75453D01*
Y70421D02*
Y75453D01*
X248500Y71346D02*
Y79500D01*
X234500Y19500D02*
X275000D01*
X231153Y71346D02*
X240209D01*
X266000Y138000D02*
Y142000D01*
X265638Y80500D02*
Y84500D01*
Y49000D02*
Y53000D01*
X253638Y37000D02*
X265638Y49000D01*
X261500Y133500D02*
X266000Y138000D01*
X257500Y114500D02*
X261000Y111000D01*
X274500D01*
X275000Y19500D02*
X278590Y23090D01*
Y41079D01*
X278091Y92590D02*
Y107579D01*
X274500Y89000D02*
X278091Y92590D01*
Y114591D02*
Y130079D01*
X274500Y111000D02*
X278091Y114591D01*
X133500Y9000D02*
Y16500D01*
X128500Y9000D02*
Y16500D01*
X123500Y9000D02*
Y16500D01*
X118500Y9000D02*
Y16500D01*
X256547Y47858D02*
Y47921D01*
X249689Y41000D02*
X256547Y47858D01*
X244614Y44961D02*
X248500Y48847D01*
X248500D01*
X134000Y49500D02*
Y87000D01*
X122000Y99000D02*
X134000Y87000D01*
X122000Y99000D02*
Y111500D01*
X114000Y119500D02*
X122000Y111500D01*
X124000Y45500D02*
X134000D01*
X123500Y36500D02*
X129000Y42000D01*
X136500D01*
X118500Y40000D02*
X124000Y45500D01*
X123500Y16500D02*
Y36500D01*
X114000Y119500D02*
Y123000D01*
X133500Y16500D02*
Y26787D01*
X134000Y27287D01*
Y27500D01*
X118500Y16500D02*
Y40000D01*
X128500Y16500D02*
Y33000D01*
X134000Y38500D01*
X138500Y36000D02*
Y40000D01*
X136500Y42000D02*
X138500Y40000D01*
X134000Y31500D02*
X138500Y36000D01*
D113*
X10000Y63500D02*
D03*
D114*
X118500Y9000D02*
D03*
X133500D02*
D03*
X128500D02*
D03*
X123500D02*
D03*
D115*
X177000Y100500D02*
D03*
Y92500D02*
D03*
X265638Y49000D02*
D03*
Y53000D02*
D03*
Y80500D02*
D03*
Y84500D02*
D03*
X266000Y142000D02*
D03*
Y138000D02*
D03*
X256909Y136921D02*
D03*
X177000Y112500D02*
D03*
X278091Y107579D02*
D03*
X278590Y41079D02*
D03*
X256547Y47921D02*
D03*
Y70421D02*
D03*
X278091Y130079D02*
D03*
X90500Y94000D02*
D03*
X91780Y145780D02*
D03*
Y150279D02*
D03*
Y154780D02*
D03*
X87279D02*
D03*
X82780D02*
D03*
X78280D02*
D03*
Y150279D02*
D03*
Y141279D02*
D03*
Y136779D02*
D03*
X82780D02*
D03*
X87279D02*
D03*
X91780D02*
D03*
Y141279D02*
D03*
X106500Y104500D02*
D03*
X177000Y68500D02*
D03*
Y96500D02*
D03*
Y72500D02*
D03*
Y88500D02*
D03*
Y76500D02*
D03*
Y104500D02*
D03*
Y108500D02*
D03*
Y84500D02*
D03*
Y80500D02*
D03*
Y64500D02*
D03*
M02*
