*
*
G04 PADS VX.2.4 Build Number: 12858991 generated Gerber (RS-274-X) file*
G04 PC Version=2.1*
*
%IN "TMC4671+TMC6200-BOB_V10"*%
*
%MOIN*%
*
%FSLAX35Y35*%
*
*
*
*
G04 PC Standard Apertures*
*
*
G04 Thermal Relief Aperture macro.*
%AMTER*
1,1,$1,0,0*
1,0,$1-$2,0,0*
21,0,$3,$4,0,0,45*
21,0,$3,$4,0,0,135*
%
*
*
G04 Annular Aperture macro.*
%AMANN*
1,1,$1,0,0*
1,0,$2,0,0*
%
*
*
G04 Odd Aperture macro.*
%AMODD*
1,1,$1,0,0*
1,0,$1-0.005,0,0*
%
*
*
G04 PC Custom Aperture Macros*
*
*
*
*
*
*
G04 PC Aperture Table*
*
%ADD011C,0.00787*%
%ADD013C,0.05906*%
%ADD021C,0.02362*%
%ADD042C,0.001*%
*
*
*
*
G04 PC Circuitry*
G04 Layer Name TMC4671+TMC6200-BOB_V10 - circuitry*
%LPD*%
*
*
G04 PC Custom Flashes*
G04 Layer Name TMC4671+TMC6200-BOB_V10 - flashes*
%LPD*%
*
*
G04 PC Circuitry*
G04 Layer Name TMC4671+TMC6200-BOB_V10 - circuitry*
%LPD*%
*
G54D11*
G01X462008Y424016D02*
G75*
G03X463583Y422441I1575J-0D01*
G01X478543*
G03X480118Y424016I0J1575*
G01Y437402*
G03X478543Y438976I-1575J-0*
G01X463583*
G03X462008Y437402I-0J-1574*
G01Y424016*
Y437322D02*
X480118D01*
X462008Y436613D02*
X480118D01*
X462008Y435904D02*
X480118D01*
X462008Y435196D02*
X480118D01*
X462008Y434487D02*
X480118D01*
X462008Y433778D02*
X480118D01*
X462008Y433070D02*
X480118D01*
X462008Y432361D02*
X480118D01*
X462008Y431652D02*
X480118D01*
X462008Y430944D02*
X480118D01*
X462008Y430235D02*
X480118D01*
X462008Y429526D02*
X480118D01*
X462008Y428818D02*
X480118D01*
X462008Y428109D02*
X480118D01*
X462008Y427400D02*
X480118D01*
X462008Y426692D02*
X480118D01*
X462008Y425983D02*
X480118D01*
X462008Y425274D02*
X480118D01*
X462008Y424566D02*
X480118D01*
X462016Y423857D02*
X480110D01*
X462139Y438030D02*
X479987D01*
X462268Y423148D02*
X479858D01*
X462751Y438739D02*
X479375D01*
X518504Y453346D02*
G03X518504I-2362J0D01*
G01X518898Y464961D02*
G03X518898I-2363J0D01*
G01X515158Y490551D02*
G03X515158I-2363J0D01*
G01X519882Y500394D02*
G03X519882I-2756J0D01*
G01X510236Y444882D02*
G03X510236I-2362J0D01*
G01X513189Y500591D02*
G03X513189I-2362J0D01*
G01X514764Y526378D02*
G03X514764I-2362J0D01*
G01X507874Y472835D02*
G03X507874I-2362J0D01*
G01X494291Y420472D02*
G03X494291I-2756J0D01*
G01X494095Y432677D02*
G03X494095I-2756J0D01*
G01X493504Y444488D02*
G03X493504I-2756J0D01*
G01X495472Y476378D02*
G03X495472I-2362J0D01*
G01X506102Y497441D02*
G03X506102I-2362J0D01*
G01X510630Y532677D02*
G03X510630I-2362J0D01*
G01X500394Y535433D02*
G03X500394I-2363J0D01*
G01X488583Y481890D02*
G03X488583I-2363J0D01*
G01X488386Y494685D02*
G03X488386I-2362J0D01*
G01X489567Y506102D02*
G03X489567I-2362J0D01*
G01X490158Y513386D02*
G03X490158I-2363J0D01*
G01X493701Y534646D02*
G03X493701I-2362J0D01*
G01X479528Y457677D02*
G03X479528I-2363J0D01*
G01X481299Y487598D02*
G03X481299I-2362J0D01*
G01X481890Y497244D02*
G03X481890I-2362J0D01*
G01X482283Y513189D02*
G03X482283I-2362J0D01*
G01X483465Y527953D02*
G03X483465I-2363J0D01*
G01X474409Y481890D02*
G03X474409I-2362J0D01*
G01X475394Y493701D02*
G03X475394I-2363J0D01*
G01X473819Y501181D02*
G03X473819I-2362J0D01*
G01X474803Y507874D02*
G03X474803I-2362J0D01*
G01X468110Y519094D02*
G03X468110I-2362J0D01*
G01X467913Y526969D02*
G03X467913I-2362J0D01*
G01X456496Y460827D02*
G03X456496I-2362J0D01*
G01X460827Y463780D02*
G03X460827I-2362J0D01*
G01X453937Y480512D02*
G03X453937I-2362J0D01*
G01X457283Y531890D02*
G03X457283I-2362J0D01*
G01X447441Y527362D02*
G03X447441I-2362J0D01*
G01X450787Y531693D02*
G03X450787I-2362J0D01*
G01X437598Y417323D02*
G03X437598I-2362J0D01*
G01X439567Y422244D02*
G03X439567I-2362J0D01*
G01X438386Y448819D02*
G03X438386I-2362J0D01*
G01X438583Y468110D02*
G03X438583I-2363J0D01*
G01X429134Y411614D02*
G03X429134I-2362J0D01*
G01Y417913D02*
G03X429134I-2362J0D01*
G01Y424213D02*
G03X429134I-2362J0D01*
G01X432874Y449213D02*
G03X432874I-2362J0D01*
G01X431299Y456693D02*
G03X431299I-2362J0D01*
G01X439173Y494094D02*
G03X439173I-4134J0D01*
G01X420472Y404331D02*
G03X420472I-2362J0D01*
G01X420669Y434646D02*
G03X420669I-2362J0D01*
G01X425394Y449213D02*
G03X425394I-2363J0D01*
G01X425787Y488780D02*
G03X425787I-2362J0D01*
G01X425984Y495079D02*
G03X425984I-2362J0D01*
G01X425787Y500984D02*
G03X425787I-2362J0D01*
G01X425984Y507283D02*
G03X425984I-2362J0D01*
G01X428346Y530315D02*
G03X428346I-2362J0D01*
G01X422441Y518701D02*
G03X422441I-2362J0D01*
G01X417323Y445669D02*
G03X417323I-2362J0D01*
G01Y457874D02*
G03X417323I-2362J0D01*
G01Y470079D02*
G03X417323I-2362J0D01*
G01Y483465D02*
G03X417323I-2362J0D01*
G01Y495669D02*
G03X417323I-2362J0D01*
G01Y507874D02*
G03X417323I-2362J0D01*
G01X420866Y534449D02*
G03X420866I-2362J0D01*
G01X411417Y435039D02*
G03X411417I-2362J0D01*
G01X407087Y522835D02*
G03X407087I-2363J0D01*
G01X405709Y533268D02*
G03X405709I-2363J0D01*
G01X577559Y421457D02*
G03X577559I-3150J0D01*
G01X561811Y413976D02*
G03X561811I-3150J0D01*
G01X563583Y421457D02*
G03X563583I-3150J0D01*
G01X577559Y434055D02*
G03X577559I-3150J0D01*
G01X582283Y443307D02*
G03X582283I-3149J0D01*
G01X563583Y434055D02*
G03X563583I-3150J0D01*
G01X573622Y451969D02*
G03X573622I-3150J0D01*
G01X579921Y456102D02*
G03X579921I-3149J0D01*
G01Y471457D02*
G03X579921I-3149J0D01*
G01X583268Y481102D02*
G03X583268I-3150J0D01*
G01X567323Y456102D02*
G03X567323I-3150J0D01*
G01X567913Y471457D02*
G03X567913I-3149J0D01*
G01X573622Y475591D02*
G03X573622I-3150J0D01*
G01X577362Y484843D02*
G03X577362I-3149J0D01*
G01X561811Y474606D02*
G03X561811I-3150J0D01*
G01X564173Y484843D02*
G03X564173I-3149J0D01*
G01X577362Y497441D02*
G03X577362I-3149J0D01*
G01X582087Y504724D02*
G03X582087I-3150J0D01*
G01X576181Y522047D02*
G03X576181I-4921J0D01*
G01X564173Y497441D02*
G03X564173I-3149J0D01*
G01X552362Y484843D02*
G03X552362I-3149J0D01*
G01X539567Y532480D02*
G03X539567I-3150J0D01*
G01X481102Y399606D02*
G03X481102I-3149J0D01*
G01X520276Y541344D02*
G03X520218Y541634I-788J-5D01*
X520072Y541732I-146J-59*
G01X508700*
G03X508543Y541575I0J-157*
X508563Y541499I157J-0*
G01X504429D02*
G03X508563I2067J-1145D01*
G01X504429D02*
G03X504449Y541575I-137J76D01*
X504292Y541732I-157J-0*
G01X431141*
G03X430984Y541575I0J-157*
X431004Y541499I157J-0*
G01X426870D02*
G03X431004I2067J-1145D01*
G01X426870D02*
G03X426890Y541575I-137J76D01*
X426733Y541732I-157J-0*
G01X413760*
G03X413650Y541462I-0J-157*
G01X414370Y539764D02*
G03X413650Y541462I-2362J-0D01*
G01X409646Y539764D02*
G03X414370I2362J-0D01*
G01X410365Y541462D02*
G03X409646Y539764I1643J-1698D01*
G01X410365Y541462D02*
G03X410256Y541732I-109J113D01*
G01X401888*
G03X401771Y541469I-0J-157*
G01X395932Y535631D02*
G03X401771Y541469I2769J3070D01*
G01X395932Y535631D02*
G03X395669Y535514I-105J-117D01*
G01Y521888*
G03X395932Y521771I158J-0*
G01X402835Y518701D02*
G03X395932Y521771I-4134J-0D01*
G01X399699Y514689D02*
G03X402835Y518701I-998J4012D01*
G01X399699Y514689D02*
G03X399582Y514514I38J-152D01*
G01X399606Y514173D02*
G03X399582Y514514I-2362J0D01*
G01X399298Y513007D02*
G03X399606Y514173I-2054J1166D01*
G01X399298Y513007D02*
G03X399278Y512929I137J-78D01*
X399408Y512774I157J-0*
G01X399367Y504621D02*
G03X399408Y512774I-666J4080D01*
G01X399367Y504621D02*
G03X399246Y504408I25J-156D01*
G01X399409Y503543D02*
G03X399246Y504408I-2362J0D01*
G01X399409Y503543D02*
X399409D01*
X399336Y502958D02*
G03X399409Y503543I-2289J585D01*
G01X399336Y502958D02*
G03X399331Y502919I152J-39D01*
X399460Y502764I157J0*
G01X395932Y495631D02*
G03X399460Y502764I2769J3070D01*
G01X395932Y495631D02*
G03X395669Y495514I-105J-117D01*
G01Y491888*
G03X395932Y491771I158J-0*
G01X400567Y492390D02*
G03X395932Y491771I-1866J-3689D01*
G01X400567Y492390D02*
G03X400782Y492468I71J140D01*
G01X405315Y491535D02*
G03X400782Y492468I-2362J0D01*
G01X402979Y489173D02*
G03X405315Y491535I-26J2362D01*
G01X402979Y489173D02*
G03X402824Y489004I2J-157D01*
G01X402835Y488701D02*
G03X402824Y489004I-4134J-0D01*
G01X402835Y488701D02*
X402835D01*
X399406Y484628D02*
G03X402835Y488701I-705J4073D01*
G01X399406Y484628D02*
G03X399284Y484422I27J-156D01*
G01X399409Y483661D02*
G03X399284Y484422I-2362J0D01*
G01X399409Y483661D02*
X399409D01*
X399306Y482971D02*
G03X399409Y483661I-2259J690D01*
G01X399306Y482971D02*
G03X399429Y482770I151J-46D01*
G01X402835Y478701D02*
G03X399429Y482770I-4134J-0D01*
G01X402166Y476447D02*
G03X402835Y478701I-3465J2254D01*
G01X402166Y476447D02*
G03X402141Y476361I132J-86D01*
X402241Y476215I157J0*
G01X401875Y471706D02*
G03X402241Y476215I-497J2310D01*
G01X401875Y471706D02*
G03X401790Y471448I33J-154D01*
G01X401981Y466185D02*
G03X401790Y471448I-3280J2516D01*
G01X401981Y466185D02*
G03X401949Y466089I125J-96D01*
X402122Y465933I157J0*
G01X402288Y461222D02*
G03X402122Y465933I74J2361D01*
G01X402288Y461222D02*
G03X402151Y460977I-5J-158D01*
G01X402098Y456346D02*
G03X402151Y460977I-3397J2355D01*
G01X402098Y456346D02*
G03X402236Y456099I130J-90D01*
G01X402181Y451385D02*
G03X402236Y456099I181J2355D01*
G01X402181Y451385D02*
G03X402042Y451135I-12J-157D01*
G01X402835Y448701D02*
G03X402042Y451135I-4134J-0D01*
G01X399237Y444602D02*
G03X402835Y448701I-536J4099D01*
G01X399237Y444602D02*
G03X399107Y444399I20J-156D01*
G01Y443002D02*
G03Y444399I-2257J699D01*
G01Y443002D02*
G03X399237Y442800I150J-46D01*
G01X399042Y434581D02*
G03X399237Y442800I-341J4120D01*
G01X399042Y434581D02*
G03X398898Y434424I13J-157D01*
G01X398898*
G03X398905Y434376I157J0*
G01X398927Y433018D02*
G03X398905Y434376I-2273J643D01*
G01X398927Y433018D02*
G03X399064Y432819I151J-42D01*
G01X399030Y424580D02*
G03X399064Y432819I-329J4121D01*
G01X399030Y424580D02*
G03X398893Y424373I13J-157D01*
G01X399016Y423622D02*
G03X398893Y424373I-2362J0D01*
G01X399016Y423622D02*
X399016D01*
X398936Y423015D02*
G03X399016Y423622I-2282J607D01*
G01X398936Y423015D02*
G03X399074Y422818I153J-40D01*
G01X402835Y418701D02*
G03X399074Y422818I-4134J-0D01*
G01X399200Y414597D02*
G03X402835Y418701I-499J4104D01*
G01X399200Y414597D02*
G03X399062Y414441I19J-156D01*
X399071Y414387I157J-0*
G01X399137Y412991D02*
G03X399071Y414387I-2287J592D01*
G01X399137Y412991D02*
G03X399268Y412796I153J-39D01*
G01X399064Y404583D02*
G03X399268Y412796I-363J4118D01*
G01X399064Y404583D02*
G03X398927Y404383I14J-157D01*
G01X398905Y403025D02*
G03X398927Y404383I-2251J715D01*
G01X398905Y403025D02*
G03X398898Y402978I150J-47D01*
G01Y402977*
X398898D02*
G03X399042Y402821I157J0D01*
G01X401771Y395932D02*
G03X399042Y402821I-3070J2769D01*
G01X401771Y395932D02*
G03X401888Y395669I117J-105D01*
G01X404610*
G03X404740Y395915I-0J158*
G01X404331Y397244D02*
G03X404740Y395915I2362J0D01*
G01X409055Y397244D02*
G03X404331I-2362J0D01*
G01X408646Y395915D02*
G03X409055Y397244I-1953J1329D01*
G01X408646Y395915D02*
G03X408776Y395669I130J-88D01*
G01X412028*
G03X412137Y395940I-0J158*
G01X411417Y397638D02*
G03X412137Y395940I2363J-0D01*
G01X416142Y397638D02*
G03X411417I-2362J-0D01*
G01X415422Y395940D02*
G03X416142Y397638I-1642J1698D01*
G01X415422Y395940D02*
G03X415531Y395669I109J-113D01*
G01X419508*
G03X419617Y395940I-0J158*
G01X418898Y397638D02*
G03X419617Y395940I2362J-0D01*
G01X423622Y397638D02*
G03X418898I-2362J-0D01*
G01X422902Y395940D02*
G03X423622Y397638I-1642J1698D01*
G01X422902Y395940D02*
G03X423012Y395669I110J-113D01*
G01X435682*
G03X435840Y395827I0J158*
X435778Y395952I-158J-0*
G01X438718Y399649D02*
G03X435778Y395952I-1513J-1814D01*
G01X438718Y399649D02*
G03X438976Y399769I101J120D01*
G01Y410236*
Y410248*
Y411811*
X440551Y413386D02*
G03X438976Y411811I0J-1575D01*
G01X440551Y413386D02*
X442114D01*
X442126*
X442761*
G03X442918Y413533I-0J157*
G01X447633D02*
G03X442918I-2357J-147D01*
G01X447633D02*
G03X447790Y413386I157J10D01*
G01X491504*
G03X491615Y413432I-0J157*
G01X496293Y418110*
G03X496335Y418258I-111J111*
G01X496260Y418898D02*
G03X496335Y418258I2756J-0D01*
G01X496260Y418898D02*
X496260D01*
X496904Y420669D02*
G03X496260Y418898I2112J-1771D01*
G01X496904Y420669D02*
G03X496941Y420770I-120J101D01*
X496874Y420899I-157J0*
G01X500591Y422835D02*
G03X496874Y420899I-2363J-0D01*
G01X500591Y422835D02*
X500591D01*
X500590Y422790D02*
G03X500591Y422835I-2362J45D01*
G01X500590Y422790D02*
G03Y422787I158J-3D01*
X500859Y422676I158J-0*
G01X514642Y436459*
G03X514688Y436570I-111J111*
X514682Y436615I-157J-0*
G01X518109Y440043D02*
G03X514682Y436615I-786J-2641D01*
G01X518109Y440043D02*
G03X518266Y440082I45J151D01*
G01X520229Y442046*
G03X520276Y442157I-111J111*
G01Y541344*
X591732Y538701D02*
G03X588701Y541732I-3031J-0D01*
G01X548297*
G03X548172Y541479I0J-157*
G01X542594Y538888D02*
G03X548172Y541479I3075J679D01*
G01X542594Y538888D02*
G03X542284Y538879I-154J-34D01*
G01X536826Y541470D02*
G03X542284Y538879I2347J-2100D01*
G01X536826Y541470D02*
G03X536708Y541732I-118J105D01*
G01X522841*
G03X522695Y541634I0J-157*
X522638Y541344I730J-295*
G01Y525121*
G03X522853Y524975I157J-0*
G01Y519120D02*
G03Y524975I1163J2927D01*
G01Y519120D02*
G03X522638Y518974I-58J-146D01*
G01Y487043*
G03X522863Y486901I157J0*
G01X526087Y486586D02*
G03X522863Y486901I-1874J-2531D01*
G01X526087Y486586D02*
G03X526275I94J127D01*
G01Y481524D02*
G03Y486586I1875J2531D01*
G01Y481524D02*
G03X526087I-94J-126D01*
G01X522863Y481209D02*
G03X526087Y481524I1350J2846D01*
G01X522863Y481209D02*
G03X522638Y481067I-68J-142D01*
G01Y472042*
G03X522844Y471893I157J0*
G01Y465903D02*
G03Y471893I975J2995D01*
G01Y465903D02*
G03X522638Y465753I-49J-150D01*
G01Y442092*
Y442083*
Y440191*
X520478Y438031*
G03X520432Y437920I111J-111*
G01X520432*
G03X520434Y437895I157J-0*
G01X516829Y434291D02*
G03X520434Y437895I494J3111D01*
G01X516829Y434291D02*
G03X516693Y434247I-24J-156D01*
G01X502140Y419693*
G03X502097Y419549I111J-111*
G01X502165Y418898D02*
G03X502097Y419549I-3149J-0D01*
G01X502165Y418898D02*
X502165D01*
X498364Y415816D02*
G03X502165Y418898I652J3082D01*
G01X498364Y415816D02*
G03X498220Y415773I-33J-154D01*
G01X493470Y411024*
X491579*
X491569*
X465118*
G03X464960Y410866I-0J-158*
G01Y410864*
X464961Y410827D02*
G03X464960Y410864I-3150J-0D01*
G01X464961Y410827D02*
X464961D01*
X458661D02*
G03X464961I3150J-0D01*
G01X458661D02*
X458661D01*
X458662Y410864D02*
G03X458661Y410827I3149J-37D01*
G01X458662Y410864D02*
Y410866D01*
G03X458504Y411024I-158J0*
G01X447418*
G03X447316Y410986I-0J-158*
G01X443236D02*
G03X447316I2040J2400D01*
G01X443236D02*
G03X443134Y411024I-102J-120D01*
G01X442120*
G03X441339Y410243I6J-788*
G01Y396058*
Y396057*
G03X441396Y395768I787J6*
X441542Y395669I146J59*
G01X450340*
G03X450470Y395916I0J158*
G01X458585D02*
G03X450470I-4057J2785D01*
G01X458585D02*
G03X458715Y395669I130J-89D01*
G01X492192*
G03X492350Y395827I0J158*
X492330Y395904I-158J-0*
G01X494804Y400579D02*
G03X492330Y395904I275J-3138D01*
G01X494804Y400579D02*
G03X494948Y400735I-14J156D01*
X494907Y400841I-158J0*
G01X497930Y406027D02*
G03X494907Y400841I-686J-3074D01*
G01X497930Y406027D02*
G03X498080Y406074I34J154D01*
G01X501072Y400861D02*
G03X498080Y406074I-678J3076D01*
G01X501072Y400861D02*
G03X500949Y400708I34J-153D01*
X501082Y400552I157J-0*
G01X503340Y395904D02*
G03X501082Y400552I-2749J1537D01*
G01X503340Y395904D02*
G03X503320Y395827I137J-77D01*
G01X503320D02*
G03X503477Y395669I157J-0D01*
G01X556855*
G03X556997Y395894I-0J158*
G01X562954Y397735D02*
G03X556997Y395894I-3111J-491D01*
G01X562954Y397735D02*
G03X563263Y397726I155J25D01*
G01X568495Y399343D02*
G03X563263Y397726I-2156J-2296D01*
G01X568495Y399343D02*
G03X568710I107J115D01*
G01X573793Y395885D02*
G03X568710Y399343I-2927J1162D01*
G01X573793Y395885D02*
G03X573940Y395669I147J-58D01*
G01X584513*
G03X584643Y395916I0J158*
G01X583780Y398701D02*
G03X584643Y395916I4921J-0D01*
G01X584313Y400929D02*
G03X583780Y398701I4388J-2228D01*
G01X584313Y400929D02*
G03X584260Y401130I-141J71D01*
G01X584232Y406331D02*
G03X584260Y401130I1792J-2591D01*
G01X584232Y406331D02*
G03X584300Y406460I-89J129D01*
X584284Y406530I-157J0*
G01X587837Y413546D02*
G03X584284Y406530I864J-4845D01*
G01X587837Y413546D02*
G03Y413856I-27J155D01*
G01X585685Y414812D02*
G03X587837Y413856I3016J3889D01*
G01X585685Y414812D02*
G03X585431Y414682I-97J-125D01*
G01X585433Y414567D02*
G03X585431Y414682I-3150J-0D01*
G01X585433Y414567D02*
X585433D01*
X583689Y417385D02*
G03X585433Y414567I-1406J-2818D01*
G01X583689Y417385D02*
G03X583913Y417563I71J141D01*
G01X587837Y423546D02*
G03X583913Y417563I864J-4845D01*
G01X587837Y423546D02*
G03Y423856I-27J155D01*
G01Y433546D02*
G03Y423856I864J-4845D01*
G01Y433546D02*
G03Y433856I-27J155D01*
G01Y443546D02*
G03Y433856I864J-4845D01*
G01Y443546D02*
G03Y443856I-27J155D01*
G01Y453546D02*
G03Y443856I864J-4845D01*
G01Y453546D02*
G03Y453856I-27J155D01*
G01Y463546D02*
G03Y453856I864J-4845D01*
G01Y463546D02*
G03Y463856I-27J155D01*
G01Y473546D02*
G03Y463856I864J-4845D01*
G01Y473546D02*
G03Y473856I-27J155D01*
G01Y483546D02*
G03Y473856I864J-4845D01*
G01Y483546D02*
G03Y483856I-27J155D01*
G01Y493546D02*
G03Y483856I864J-4845D01*
G01Y493546D02*
G03Y493856I-27J155D01*
G01Y503546D02*
G03Y493856I864J-4845D01*
G01Y503546D02*
G03Y503856I-27J155D01*
G01Y513546D02*
G03Y503856I864J-4845D01*
G01Y513546D02*
G03Y513856I-27J155D01*
G01X591486Y522758D02*
G03X587837Y513856I-2785J-4057D01*
G01X591486Y522758D02*
G03X591732Y522888I89J130D01*
G01Y538701*
X518504Y453346D02*
G03X518504I-2362J0D01*
G01X518898Y464961D02*
G03X518898I-2363J0D01*
G01X515158Y490551D02*
G03X515158I-2363J0D01*
G01X519882Y500394D02*
G03X519882I-2756J0D01*
G01X503176Y431675D02*
G03X502912Y431709I-143J-66D01*
G01X503380Y434400D02*
G03X502912Y431709I-2593J-935D01*
G01X503380Y434400D02*
G03X503640Y434342I148J53D01*
G01X503176Y431675D02*
G03X503640Y434342I2139J1002D01*
G01X510236Y444882D02*
G03X510236I-2362J0D01*
G01X513189Y500591D02*
G03X513189I-2362J0D01*
G01X514764Y526378D02*
G03X514764I-2362J0D01*
G01X507874Y472835D02*
G03X507874I-2362J0D01*
G01X499572Y446265D02*
G03X499424Y446107I9J-158D01*
X499472Y445994I157J0*
G01X497546Y446636D02*
G03X499472Y445994I289J-2345D01*
G01X497546Y446636D02*
G03X497684Y446792I-19J156D01*
X497629Y446912I-157J0*
G01X499572Y446265D02*
G03X497629Y446912I-163J2751D01*
G01X494291Y420472D02*
G03X494291I-2756J0D01*
G01X494095Y432677D02*
G03X494095I-2756J0D01*
G01X493504Y444488D02*
G03X493504I-2756J0D01*
G01X495472Y476378D02*
G03X495472I-2362J0D01*
G01X505226Y485172D02*
G03X505214Y484938I99J-123D01*
G01X502533Y481133D02*
G03X505214Y484938I1010J2135D01*
G01X502533Y481133D02*
G03X502324Y481059I-68J-143D01*
G01X499922Y479740D02*
G03X502324Y481059I275J2347D01*
G01X499922Y479740D02*
G03X499750Y479617I-19J-156D01*
G01X497716Y482464D02*
G03X499749Y479617I-275J-2346D01*
G01X497716Y482464D02*
G03X497888Y482587I18J157D01*
G01X501207Y484222D02*
G03X497888Y482587I-1010J-2135D01*
G01X501207Y484222D02*
G03X501416Y484296I68J142D01*
G01X502057Y485104D02*
G03X501416Y484296I1486J-1836D01*
G01X502057Y485104D02*
G03X502070Y485338I-99J122D01*
G01X505226Y485172D02*
G03X502070Y485338I-1486J1836D01*
G01X506102Y497441D02*
G03X506102I-2362J0D01*
G01X504134Y510236D02*
X504134D01*
X504212Y510840D02*
G03X504134Y510236I2284J-604D01*
G01X504212Y510840D02*
G03X504077Y511037I-152J41D01*
G01X506693Y513386D02*
G03X504077Y511037I-2362J-0D01*
G01X506693Y513386D02*
X506693D01*
X506614Y512782D02*
G03X506693Y513386I-2283J604D01*
G01X506614Y512782D02*
G03X506750Y512585I153J-41D01*
G01X504134Y510236D02*
G03X506750Y512585I2362J0D01*
G01X510630Y532677D02*
G03X510630I-2362J0D01*
G01X500394Y535433D02*
G03X500394I-2363J0D01*
G01X484658Y463780D02*
G03X483858Y462008I1562J-1772D01*
G01X484658Y463780D02*
G03X484646Y464026I-104J118D01*
G01X483661Y465945D02*
G03X484646Y464026I2363J-0D01*
G01X488386Y465945D02*
G03X483661I-2362J-0D01*
G01X487586Y464173D02*
G03X488386Y465945I-1562J1772D01*
G01X487586Y464173D02*
G03X487598Y463927I104J-118D01*
G01X483858Y462008D02*
G03X487598Y463927I2362J-0D01*
G01X488583Y481890D02*
G03X488583I-2363J0D01*
G01X488386Y494685D02*
G03X488386I-2362J0D01*
G01X489567Y506102D02*
G03X489567I-2362J0D01*
G01X490158Y513386D02*
G03X490158I-2363J0D01*
G01X493701Y534646D02*
G03X493701I-2362J0D01*
G01X481693Y437402D02*
Y424016D01*
X478543Y420866D02*
G03X481693Y424016I0J3150D01*
G01X478543Y420866D02*
X463583D01*
X460433Y424016D02*
G03X463583Y420866I3150J-0D01*
G01X460433Y424016D02*
Y437402D01*
X463583Y440551D02*
G03X460433Y437402I-0J-3149D01*
G01X463583Y440551D02*
X478543D01*
X481693Y437402D02*
G03X478543Y440551I-3150J-0D01*
G01X479528Y457677D02*
G03X479528I-2363J0D01*
G01X481299Y487598D02*
G03X481299I-2362J0D01*
G01X481890Y497244D02*
G03X481890I-2362J0D01*
G01X482283Y513189D02*
G03X482283I-2362J0D01*
G01X483465Y527953D02*
G03X483465I-2363J0D01*
G01X465548Y466386D02*
G03X465351Y466472I-145J-62D01*
G01X462723Y470177D02*
G03X465351Y466472I1844J-1476D01*
G01X462723Y470177D02*
G03X462698Y470399I-123J99D01*
G01X463854Y474585D02*
G03X462698Y470399I319J-2341D01*
G01X463854Y474585D02*
G03X463989Y474757I-22J156D01*
G01X463976Y475000D02*
G03X463989Y474757I2363J-0D01*
G01X466658Y472660D02*
G03X463976Y475000I-319J2340D01*
G01X466658Y472659D02*
G03X466523Y472487I22J-156D01*
G01X466535Y472244D02*
G03X466523Y472487I-2362J0D01*
G01X466017Y470768D02*
G03X466535Y472244I-1844J1476D01*
G01X466017Y470768D02*
G03X466042Y470546I123J-99D01*
G01X466736Y469637D02*
G03X466042Y470546I-2169J-936D01*
G01X466736Y469637D02*
G03X466932Y469551I144J63D01*
G01X465548Y466386D02*
G03X466932Y469551I2169J937D01*
G01X474409Y481890D02*
G03X474409I-2362J0D01*
G01X475394Y493701D02*
G03X475394I-2363J0D01*
G01X473819Y501181D02*
G03X473819I-2362J0D01*
G01X474803Y507874D02*
G03X474803I-2362J0D01*
G01X477165Y528346D02*
X477165D01*
X476483Y526686D02*
G03X477165Y528346I-1680J1660D01*
G01X476483Y526686D02*
G03Y526464I112J-111D01*
G01X477165Y524803D02*
G03X476483Y526464I-2362J0D01*
G01X477165Y524803D02*
X477165D01*
X476483Y523142D02*
G03X477165Y524803I-1680J1661D01*
G01X476483Y523142D02*
G03Y522921I112J-111D01*
G01X473123D02*
G03X476483I1680J-1661D01*
G01X473123D02*
G03Y523142I-112J110D01*
G01X472441Y524803D02*
G03X473123Y523142I2362J0D01*
G01X472441Y524803D02*
X472441D01*
X473123Y526464D02*
G03X472441Y524803I1680J-1661D01*
G01X473123Y526464D02*
G03Y526686I-112J111D01*
G01X477165Y528346D02*
G03X473123Y526686I-2362J0D01*
G01X468110Y519094D02*
G03X468110I-2362J0D01*
G01X467913Y526969D02*
G03X467913I-2362J0D01*
G01X451789Y417906D02*
G03X451568Y417918I-117J-106D01*
G01X447663Y420032D02*
G03X451568Y417918I2337J-347D01*
G01X447663Y420032D02*
G03X447665Y420055I-155J23D01*
G01X447665*
G03X447430Y420192I-157J0*
G01X444440Y423750D02*
G03X447430Y420192I1820J-1506D01*
G01X444440Y423750D02*
G03X444378Y423996I-122J100D01*
G01X442913Y426181D02*
G03X444378Y423996I2363J0D01*
G01X447470Y427055D02*
G03X442913Y426181I-2194J-874D01*
G01X447470Y427055D02*
G03X447679Y426969I146J58D01*
G01X448769Y422446D02*
G03X447679Y426969I-147J2357D01*
G01X448769Y422446D02*
G03X448622Y422288I10J-158D01*
G01X448622*
G03Y422286I157J0*
G01Y422244D02*
G03Y422286I-2362J0D01*
G01Y422244D02*
X448622D01*
X448596Y421897D02*
G03X448622Y422244I-2336J347D01*
G01X448596Y421897D02*
G03X448595Y421874I156J-23D01*
G01X448595*
G03X448830Y421737I157J0*
G01X451754Y421267D02*
G03X448830Y421737I-1754J-1582D01*
G01X451754Y421267D02*
G03X451975Y421255I117J106D01*
G01X451789Y417906D02*
G03X451975Y421255I1754J1582D01*
G01X448522Y431236D02*
G03X448313Y431273I-125J-96D01*
G01X448919Y434709D02*
G03X448313Y431273I-1872J-1441D01*
G01X448919Y434709D02*
G03X449128Y434672I125J96D01*
G01X448522Y431236D02*
G03X449128Y434672I1872J1441D01*
G01X457080Y447890D02*
G03X456846Y447693I-93J-128D01*
G01X456109Y448567D02*
G03X456846Y447693I-1385J-1913D01*
G01X456109Y448567D02*
G03X456343Y448764I93J128D01*
G01X457080Y447890D02*
G03X456343Y448764I1385J1913D01*
G01X456496Y460827D02*
G03X456496I-2362J0D01*
G01X460827Y463780D02*
G03X460827I-2362J0D01*
G01X453937Y480512D02*
G03X453937I-2362J0D01*
G01X452987Y494242D02*
G03Y493947I55J-148D01*
G01Y489518D02*
G03Y493947I-822J2214D01*
G01Y489518D02*
G03Y489222I55J-148D01*
G01X451343D02*
G03X452987I822J-2214D01*
G01X451343D02*
G03Y489518I-55J148D01*
G01Y493947D02*
G03Y489518I822J-2215D01*
G01Y493947D02*
G03Y494242I-55J147D01*
G01X452987D02*
G03X451343I-822J2215D01*
G01X458969Y515249D02*
G03X458748I-111J-112D01*
G01X458464Y515010D02*
G03X458748Y515249I-1377J1919D01*
G01X458464Y515010D02*
G03X458452Y514764I92J-128D01*
G01X459252Y512992D02*
G03X458452Y514764I-2362J0D01*
G01X454528Y512992D02*
G03X459252I2362J0D01*
G01X455512Y514911D02*
G03X454528Y512992I1378J-1919D01*
G01X455512Y514911D02*
G03X455524Y515157I-92J128D01*
G01X454724Y516929D02*
G03X455525Y515157I2363J0D01*
G01X458748Y518609D02*
G03X454724Y516929I-1661J-1680D01*
G01X458748Y518609D02*
G03X458969I110J112D01*
G01Y515249D02*
G03Y518609I1661J1680D01*
G01X449980Y511876D02*
G03X450057Y512012I-80J136D01*
X449955Y512159I-157J-0*
G01X451989Y512336D02*
G03X449955Y512159I-1202J2034D01*
G01X451989Y512336D02*
G03X451911Y512201I80J-135D01*
X452013Y512053I158J-0*
G01X449980Y511876D02*
G03X452013Y512053I1201J-2033D01*
G01X457283Y531890D02*
G03X457283I-2362J0D01*
G01X447441Y527362D02*
G03X447441I-2362J0D01*
G01X450787Y531693D02*
G03X450787I-2362J0D01*
G01X437598Y417323D02*
G03X437598I-2362J0D01*
G01X439567Y422244D02*
G03X439567I-2362J0D01*
G01X437155Y431660D02*
G03X436970Y431759I-148J-55D01*
G01X434055Y434055D02*
G03X436970Y431759I2362J0D01*
G01X434055Y434055D02*
X434055D01*
X434108Y434552D02*
G03X434055Y434055I2309J-497D01*
G01X434108Y434552D02*
G03X433997Y434736I-154J33D01*
G01X432283Y437008D02*
G03X433997Y434736I2363J-0D01*
G01X437008Y437008D02*
G03X432283I-2362J-0D01*
G01X437008D02*
X437008D01*
X436955Y436511D02*
G03X437008Y437008I-2309J497D01*
G01X436955Y436511D02*
G03X437066Y436327I154J-33D01*
G01X438633Y434875D02*
G03X437066Y436327I-2216J-820D01*
G01X438633Y434875D02*
G03X438817Y434777I147J55D01*
G01X437155Y431660D02*
G03X438817Y434777I2215J820D01*
G01X438386Y448819D02*
G03X438386I-2362J0D01*
G01X438583Y468110D02*
G03X438583I-2363J0D01*
G01X429134Y411614D02*
G03X429134I-2362J0D01*
G01Y417913D02*
G03X429134I-2362J0D01*
G01Y424213D02*
G03X429134I-2362J0D01*
G01X432874Y449213D02*
G03X432874I-2362J0D01*
G01X431299Y456693D02*
G03X431299I-2362J0D01*
G01X437266Y480372D02*
G03X437036Y480475I-154J-35D01*
G01X436784Y487842D02*
G03X437036Y480475I-1745J-3748D01*
G01X436784Y487842D02*
G03X437008Y487985I66J143D01*
G01Y487992*
X441732D02*
G03X437008I-2362J0D01*
G01X439115Y485644D02*
G03X441732Y487992I255J2348D01*
G01X439115Y485644D02*
G03X438950Y485436I-17J-157D01*
G01X439120Y483433D02*
G03X438950Y485436I-4081J661D01*
G01X439120Y483433D02*
G03X439118Y483408I156J-25D01*
X439294Y483252I158J0*
G01X437266Y480372D02*
G03X439294Y483252I2301J534D01*
G01X439173Y494094D02*
G03X439173I-4134J0D01*
G01X440652Y510213D02*
G03X440615Y509942I59J-146D01*
G01X439081Y505710D02*
G03X440615Y509942I92J2361D01*
G01X439081Y505710D02*
G03X438927Y505500I-6J-157D01*
G01X439173Y504094D02*
G03X438927Y505500I-4134J0D01*
G01X439173Y504094D02*
X439173D01*
X439127Y503481D02*
G03X439173Y504094I-4088J613D01*
G01X439127Y503481D02*
G03X439126Y503458I156J-23D01*
X439313Y503303I157J-0*
G01X437456Y500481D02*
G03X439313Y503303I2308J503D01*
G01X437456Y500481D02*
G03X437219Y500582I-154J-33D01*
G01X433161Y507777D02*
G03X437219Y500582I1878J-3683D01*
G01X433161Y507777D02*
G03X433175Y508050I-71J141D01*
G01X432197Y509325D02*
G03X433175Y508050I2252J714D01*
G01X432197Y509325D02*
G03X431914Y509362I-150J-48D01*
G01X432173Y511344D02*
G03X431914Y509362I-2252J-714D01*
G01X432173Y511344D02*
G03X432456Y511307I150J48D01*
G01X436089Y508340D02*
G03X432456Y511307I-1640J1699D01*
G01X436089Y508340D02*
G03X436156Y508075I110J-114D01*
G01X436594Y507925D02*
G03X436156Y508075I-1555J-3831D01*
G01X436594Y507925D02*
G03X436811Y508071I60J146D01*
G01X436811*
X438285Y510260D02*
G03X436811Y508071I888J-2189D01*
G01X438285Y510260D02*
G03X438322Y510530I-59J146D01*
G01X440652Y510213D02*
G03X438322Y510530I-888J2189D01*
G01X424162Y437012D02*
G03X424126Y436705I10J-157D01*
G01X421063Y434449D02*
G03X424126Y436705I2362J-0D01*
G01X423278Y436806D02*
G03X421063Y434449I147J-2357D01*
G01X423278Y436806D02*
G03X423315Y437114I-9J158D01*
G01X422047Y440676D02*
G03X423315Y437114I1969J-1306D01*
G01X422047Y440676D02*
G03X421998Y440897I-131J87D01*
G01X425197Y441608D02*
G03X421998Y440897I-1969J1305D01*
G01X425197Y441608D02*
G03X425246Y441386I131J-87D01*
G01X424162Y437012D02*
G03X425246Y441386I-146J2358D01*
G01X420472Y404331D02*
G03X420472I-2362J0D01*
G01X420669Y434646D02*
G03X420669I-2362J0D01*
G01X425394Y449213D02*
G03X425394I-2363J0D01*
G01X425001Y459106D02*
G03X424936Y458978I92J-128D01*
X424977Y458872I157J-0*
G01X421849Y459201D02*
G03X424977Y458872I1379J-1918D01*
G01X421849Y459201D02*
G03X421915Y459329I-92J128D01*
X421874Y459435I-158J0*
G01X425001Y459106D02*
G03X421874Y459435I-1379J1918D01*
G01X426254Y473788D02*
G03X425970Y473694I-127J-94D01*
G01X425970*
G03X425971Y473677I157J-0*
G01X425984Y473425D02*
G03X425971Y473677I-2362J0D01*
G01X425097Y471580D02*
G03X425984Y473425I-1475J1845D01*
G01X425097Y471580D02*
G03X425037Y471457I98J-123D01*
G01X425037*
G03X425097Y471334I158J-0*
G01X422147D02*
G03X425097I1475J-1846D01*
G01X422147D02*
G03X422207Y471457I-98J123D01*
G01X422207*
G03X422147Y471580I-158J-0*
G01X425518Y474834D02*
G03X422147Y471580I-1896J-1409D01*
G01X425518Y474834D02*
G03X425802Y474928I126J94D01*
G01X425802*
G03X425801Y474945I-158J0*
G01X425787Y475197D02*
G03X425801Y474945I2363J-0D01*
G01X426254Y473788D02*
G03X425787Y475197I1896J1409D01*
G01X422834Y480470D02*
G03X422847Y480533I-144J63D01*
X422748Y480679I-157J0*
G01X425788Y481931D02*
G03X422748Y480679I-2166J943D01*
G01X425788Y481931D02*
G03X425775Y481868I144J-63D01*
X425874Y481722I157J0*
G01X422834Y480470D02*
G03X425874Y481722I2166J-942D01*
G01X425787Y488780D02*
G03X425787I-2362J0D01*
G01X425984Y495079D02*
G03X425984I-2362J0D01*
G01X425787Y500984D02*
G03X425787I-2362J0D01*
G01X425984Y507283D02*
G03X425984I-2362J0D01*
G01X428346Y530315D02*
G03X428346I-2362J0D01*
G01X422441Y518701D02*
G03X422441I-2362J0D01*
G01X417323Y445669D02*
G03X417323I-2362J0D01*
G01Y457874D02*
G03X417323I-2362J0D01*
G01Y470079D02*
G03X417323I-2362J0D01*
G01Y483465D02*
G03X417323I-2362J0D01*
G01Y495669D02*
G03X417323I-2362J0D01*
G01Y507874D02*
G03X417323I-2362J0D01*
G01X420866Y534449D02*
G03X420866I-2362J0D01*
G01X411417Y435039D02*
G03X411417I-2362J0D01*
G01X407087Y522835D02*
G03X407087I-2363J0D01*
G01X405709Y533268D02*
G03X405709I-2363J0D01*
G01X570947Y410547D02*
G03X569094Y407677I1297J-2870D01*
G01X570947Y410547D02*
G03X570900Y410847I-65J144D01*
G01X574409Y413976D02*
G03X570900Y410847I-3149J0D01*
G01X572557Y411106D02*
G03X574409Y413976I-1297J2870D01*
G01X572557Y411106D02*
G03X572604Y410806I65J-143D01*
G01X569094Y407677D02*
G03X572604Y410806I3150J0D01*
G01X577559Y421457D02*
G03X577559I-3150J0D01*
G01X561811Y413976D02*
G03X561811I-3150J0D01*
G01X563583Y421457D02*
G03X563583I-3150J0D01*
G01X567651Y426015D02*
G03X567388I-131J-87D01*
G01Y429497D02*
G03Y426015I-2624J-1741D01*
G01Y429497D02*
G03X567651I132J87D01*
G01Y426015D02*
G03Y429497I2625J1741D01*
G01X577559Y434055D02*
G03X577559I-3150J0D01*
G01X582283Y443307D02*
G03X582283I-3149J0D01*
G01X563583Y434055D02*
G03X563583I-3150J0D01*
G01X567651Y441566D02*
G03X567388I-131J-87D01*
G01Y445048D02*
G03Y441566I-2624J-1741D01*
G01Y445048D02*
G03X567651I132J87D01*
G01Y441566D02*
G03Y445048I2625J1741D01*
G01X573622Y451969D02*
G03X573622I-3150J0D01*
G01X579921Y456102D02*
G03X579921I-3149J0D01*
G01X579246Y461378D02*
G03X579021I-112J-110D01*
G01Y465787D02*
G03Y461378I-2249J-2204D01*
G01Y465787D02*
G03X579246I113J110D01*
G01Y461378D02*
G03Y465787I2250J2205D01*
G01X579921Y471457D02*
G03X579921I-3149J0D01*
G01X583268Y481102D02*
G03X583268I-3150J0D01*
G01X567323Y456102D02*
G03X567323I-3150J0D01*
G01X566835Y461388D02*
G03X566601Y461379I-113J-109D01*
G01X566433Y465580D02*
G03X566601Y461379I-2260J-2194D01*
G01X566433Y465580D02*
G03X566667Y465590I113J110D01*
G01X566835Y461388D02*
G03X566667Y465590I2259J2195D01*
G01X567913Y471457D02*
G03X567913I-3149J0D01*
G01X573622Y475591D02*
G03X573622I-3150J0D01*
G01X577362Y484843D02*
G03X577362I-3149J0D01*
G01X554714Y440856D02*
G03X554489Y440828I-99J-122D01*
G01X553947Y445167D02*
G03X554489Y440828I-1978J-2450D01*
G01X553947Y445167D02*
G03X554172Y445195I99J123D01*
G01X554714Y440856D02*
G03X554172Y445195I1979J2451D01*
G01X561811Y474606D02*
G03X561811I-3150J0D01*
G01X564173Y484843D02*
G03X564173I-3149J0D01*
G01X567454Y489401D02*
G03X567192I-131J-87D01*
G01Y492883D02*
G03Y489401I-2625J-1741D01*
G01Y492883D02*
G03X567454I131J87D01*
G01Y489401D02*
G03Y492883I2625J1741D01*
G01X577362Y497441D02*
G03X577362I-3149J0D01*
G01X582087Y504724D02*
G03X582087I-3150J0D01*
G01X576181Y522047D02*
G03X576181I-4921J0D01*
G01X564173Y497441D02*
G03X564173I-3149J0D01*
G01X541826Y411052D02*
G03X541639I-94J-127D01*
G01X539507Y410444D02*
G03X541639Y411052I257J3139D01*
G01X539507Y410444D02*
G03X539357Y410209I-13J-157D01*
G01X536871Y411801D02*
G03X539357Y410209I-257J-3140D01*
G01X536871Y411801D02*
G03X537021Y412035I13J157D01*
G01X538432Y416437D02*
G03X537021Y412035I1332J-2854D01*
G01X538432Y416437D02*
G03X538357Y416737I-67J142D01*
G01X540064Y422413D02*
G03X538357Y416737I-1875J-2531D01*
G01X540064Y422413D02*
G03X540251I93J126D01*
G01X543458Y417028D02*
G03X540251Y422413I-1332J2854D01*
G01X543458Y417028D02*
G03X543533Y416728I67J-143D01*
G01X541826Y411052D02*
G03X543533Y416728I1875J2531D01*
G01X546747Y449438D02*
G03X546560I-93J-127D01*
G01Y454499D02*
G03Y449438I-1875J-2530D01*
G01Y454499D02*
G03X546747I94J127D01*
G01Y449438D02*
G03Y454499I1875J2531D01*
G01X552362Y484843D02*
G03X552362I-3149J0D01*
G01X559172Y506928D02*
G03X559109Y506802I94J-126D01*
X559144Y506703I157J-0*
G01X553854Y503360D02*
G03X559144Y506703I2839J1364D01*
G01X553854Y503360D02*
G03X553629Y503426I-142J-68D01*
G01X553973Y508532D02*
G03X553629Y503426I-2004J-2430D01*
G01X553973Y508532D02*
G03X554231Y508653I101J121D01*
X554226Y508691I-157J0*
G01X559172Y506928D02*
G03X554226Y508691I-1889J2521D01*
G01X523132Y409336D02*
G03Y409168I133J-84D01*
G01X523622Y407480D02*
G03X523132Y409168I-3150J0D01*
G01X523622Y407480D02*
X523622D01*
X523132Y405793D02*
G03X523622Y407480I-2660J1687D01*
G01X523132Y405793D02*
G03Y405624I133J-84D01*
G01X517813D02*
G03X523132I2659J-1687D01*
G01X517813D02*
G03Y405793I-133J85D01*
G01X517323Y407480D02*
G03X517813Y405793I3149J0D01*
G01X517323Y407480D02*
X517323D01*
X517813Y409168D02*
G03X517323Y407480I2659J-1688D01*
G01X517813Y409168D02*
G03Y409336I-133J84D01*
G01X523132D02*
G03X517813I-2660J1688D01*
G01X528778Y416741D02*
G03X528638Y416544I12J-157D01*
G01X528740Y415748D02*
G03X528638Y416544I-3149J0D01*
G01X522774Y417157D02*
G03X528740Y415748I2817J-1409D01*
G01X522774Y417157D02*
G03X522727Y417354I-141J71D01*
G01X526481Y422413D02*
G03X522727Y417354I-1875J-2531D01*
G01X526481Y422413D02*
G03X526669I94J126D01*
G01X528778Y416741D02*
G03X526669Y422413I-235J3141D01*
G01X533165Y449438D02*
G03X532977I-94J-127D01*
G01Y454499D02*
G03Y449438I-1875J-2530D01*
G01Y454499D02*
G03X533165I94J127D01*
G01Y449438D02*
G03Y454499I1874J2531D01*
G01X540054Y481524D02*
G03X539867I-93J-126D01*
G01Y486586D02*
G03Y481524I-1875J-2531D01*
G01Y486586D02*
G03X540054I94J127D01*
G01Y481524D02*
G03Y486586I1875J2531D01*
G01X546590Y524213D02*
G03X546449Y523979I-3J-157D01*
G01X541826Y519910D02*
G03X546449Y523979I1875J2531D01*
G01X541826Y519910D02*
G03X541639I-94J-126D01*
G01X538932Y519403D02*
G03X541639Y519910I832J3038D01*
G01X538932Y519403D02*
G03X538736Y519225I-41J-152D01*
G01X538780Y518701D02*
G03X538736Y519225I-3150J-0D01*
G01X532480Y518701D02*
G03X538780I3150J-0D01*
G01X536461Y521739D02*
G03X532480Y518701I-831J-3038D01*
G01X536461Y521739D02*
G03X536658Y521917I42J152D01*
G01X536614Y522441D02*
G03X536658Y521917I3150J-0D01*
G01X541639Y524972D02*
G03X536614Y522441I-1875J-2531D01*
G01X541639Y524972D02*
G03X541826I93J126D01*
G01X543764Y525590D02*
G03X541826Y524972I-63J-3149D01*
G01X543764Y525590D02*
G03X543905Y525824I3J157D01*
G01X546590Y524213D02*
G03X543905Y525824I64J3149D01*
G01X539567Y532480D02*
G03X539567I-3150J0D01*
G01X505690Y407519D02*
G03X505531I-80J-135D01*
G01X502290Y412921D02*
G03X505531Y407519I1647J-2685D01*
G01X502290Y412921D02*
G03X502365Y413055I-83J134D01*
G01X502365*
G03Y413061I-158J0*
G01X502362Y413189D02*
G03X502365Y413061I3150J-0D01*
G01X502362Y413189D02*
X502362D01*
X503085Y415197D02*
G03X502362Y413189I2427J-2008D01*
G01X503085Y415197D02*
G03X503113Y415347I-121J100D01*
G01X509252Y416339D02*
G03X503113Y415347I-3150J-0D01*
G01X508529Y414331D02*
G03X509252Y416339I-2427J2008D01*
G01X508529Y414331D02*
G03X508501Y414181I122J-100D01*
G01X508661Y413189D02*
G03X508501Y414181I-3149J-0D01*
G01X508661Y413189D02*
X508661D01*
Y413166D02*
G03Y413189I-3150J23D01*
G01Y413166D02*
Y413165D01*
G03X508746Y413026I158J0*
G01X505690Y407519D02*
G03X508746Y413026I1593J2717D01*
G01X481102Y399606D02*
G03X481102I-3149J0D01*
G01X499301Y442440D02*
X520276D01*
X509479Y443148D02*
X520276D01*
X510002Y443857D02*
X520276D01*
X510215Y444566D02*
X520276D01*
X510203Y445274D02*
X520276D01*
X509964Y445983D02*
X520276D01*
X509392Y446692D02*
X520276D01*
X501642Y447400D02*
X520276D01*
X502012Y448109D02*
X520276D01*
X502158Y448818D02*
X520276D01*
X502118Y449526D02*
X520276D01*
X501881Y450235D02*
X520276D01*
X501379Y450944D02*
X520276D01*
X517788Y451652D02*
X520276D01*
X518289Y452361D02*
X520276D01*
X518488Y453070D02*
X520276D01*
X518464Y453778D02*
X520276D01*
X518210Y454487D02*
X520276D01*
X517612Y455196D02*
X520276D01*
X478726Y455904D02*
X520276D01*
X479274Y456613D02*
X520276D01*
X479501Y457322D02*
X520276D01*
X479501Y458030D02*
X520276D01*
X479276Y458739D02*
X520276D01*
X478729Y459448D02*
X520276D01*
X487687Y460156D02*
X520276D01*
X488288Y460865D02*
X520276D01*
X488542Y461574D02*
X520276D01*
X488567Y462282D02*
X520276D01*
X517839Y462991D02*
X520276D01*
X518533Y463699D02*
X520276D01*
X518832Y464408D02*
X520276D01*
X518892Y465117D02*
X520276D01*
X518734Y465825D02*
X520276D01*
X518297Y466534D02*
X520276D01*
X517145Y467243D02*
X520276D01*
X487270Y467951D02*
X520276D01*
X469664Y468660D02*
X520276D01*
X468897Y469369D02*
X520276D01*
X466487Y470077D02*
X520276D01*
X506688Y470786D02*
X520276D01*
X507457Y471495D02*
X520276D01*
X507788Y472203D02*
X520276D01*
X507873Y472912D02*
X520276D01*
X507739Y473621D02*
X520276D01*
X507341Y474329D02*
X520276D01*
X506363Y475038D02*
X520276D01*
X495387Y475747D02*
X520276D01*
X495471Y476455D02*
X520276D01*
X495338Y477164D02*
X520276D01*
X498175Y477873D02*
X520276D01*
X499235Y478581D02*
X520276D01*
X499653Y479290D02*
X520276D01*
X501302Y479999D02*
X520276D01*
X502115Y480707D02*
X520276D01*
X505010Y481416D02*
X520276D01*
X505611Y482125D02*
X520276D01*
X505865Y482833D02*
X520276D01*
X505890Y483542D02*
X520276D01*
X505691Y484251D02*
X520276D01*
X505196Y484959D02*
X520276D01*
X505686Y485668D02*
X520276D01*
X506016Y486377D02*
X520276D01*
X506101Y487085D02*
X520276D01*
X505968Y487794D02*
X520276D01*
X513972Y488503D02*
X520276D01*
X514741Y489211D02*
X520276D01*
X515072Y489920D02*
X520276D01*
X515156Y490629D02*
X520276D01*
X515023Y491337D02*
X520276D01*
X514624Y492046D02*
X520276D01*
X513647Y492755D02*
X520276D01*
X488045Y493463D02*
X520276D01*
X488329Y494172D02*
X520276D01*
X488378Y494881D02*
X520276D01*
X505207Y495589D02*
X520276D01*
X505807Y496298D02*
X520276D01*
X506062Y497007D02*
X520276D01*
X517775Y497715D02*
X520276D01*
X519053Y498424D02*
X520276D01*
X519576Y499133D02*
X520276D01*
X519826Y499841D02*
X520276D01*
X519877Y500550D02*
X520276D01*
X519743Y501259D02*
X520276D01*
X519389Y501967D02*
X520276D01*
X518671Y502676D02*
X520276D01*
X472308Y503385D02*
X520276D01*
X488447Y504093D02*
X520276D01*
X489177Y504802D02*
X520276D01*
X489492Y505511D02*
X520276D01*
X489564Y506219D02*
X520276D01*
X489418Y506928D02*
X520276D01*
X489001Y507637D02*
X520276D01*
X507912Y508345D02*
X520276D01*
X508541Y509054D02*
X520276D01*
X508810Y509762D02*
X520276D01*
X508847Y510471D02*
X520276D01*
X508662Y511180D02*
X520276D01*
X508184Y511888D02*
X520276D01*
X506703Y512597D02*
X520276D01*
X506692Y513306D02*
X520276D01*
X506608Y514014D02*
X520276D01*
X506278Y514723D02*
X520276D01*
X505511Y515432D02*
X520276D01*
X462857Y516140D02*
X520276D01*
X466482Y516849D02*
X520276D01*
X467542Y517558D02*
X520276D01*
X467960Y518266D02*
X520276D01*
X475403Y518975D02*
X520276D01*
X476563Y519684D02*
X520276D01*
X477000Y520392D02*
X520276D01*
X477160Y521101D02*
X520276D01*
X477100Y521810D02*
X520276D01*
X476802Y522518D02*
X520276D01*
X476563Y523227D02*
X520276D01*
X477000Y523936D02*
X520276D01*
X514006Y524644D02*
X520276D01*
X514530Y525353D02*
X520276D01*
X514743Y526062D02*
X520276D01*
X514731Y526770D02*
X520276D01*
X514491Y527479D02*
X520276D01*
X513920Y528188D02*
X520276D01*
X483268Y528896D02*
X520276D01*
X482791Y529605D02*
X520276D01*
X481181Y530314D02*
X520276D01*
X509953Y531022D02*
X520276D01*
X510432Y531731D02*
X520276D01*
X510618Y532440D02*
X520276D01*
X510582Y533148D02*
X520276D01*
X510314Y533857D02*
X520276D01*
X509687Y534566D02*
X520276D01*
X500388Y535274D02*
X520276D01*
X500329Y535983D02*
X520276D01*
X500031Y536692D02*
X520276D01*
X499339Y537400D02*
X520276D01*
X507230Y538109D02*
X520276D01*
X508290Y538818D02*
X520276D01*
X508708Y539526D02*
X520276D01*
X508855Y540235D02*
X520276D01*
X508784Y540944D02*
X520276D01*
X508563Y541652D02*
X520209D01*
X425273Y441731D02*
X519914D01*
X425704Y441022D02*
X519206D01*
X479743Y440314D02*
X518497D01*
X506086Y497715D02*
X516477D01*
X487997Y467243D02*
X515926D01*
X480794Y439605D02*
X515668D01*
X511937Y502676D02*
X515581D01*
X488368Y462991D02*
X515232D01*
X511768Y498424D02*
X515199D01*
X481316Y438896D02*
X515007D01*
X512746Y501967D02*
X514863D01*
X488311Y466534D02*
X514774D01*
X481593Y438188D02*
X514681D01*
X512685Y499133D02*
X514676D01*
X430764Y455196D02*
X514672D01*
X481693Y436770D02*
X514640D01*
X481692Y437479D02*
X514568D01*
X487869Y463699D02*
X514538D01*
X513093Y501259D02*
X514509D01*
X500212Y451652D02*
X514496D01*
X513067Y499841D02*
X514426D01*
X513189Y500550D02*
X514374D01*
X488383Y465825D02*
X514337D01*
X501709Y436062D02*
X514245D01*
X487818Y464408D02*
X514239D01*
X488236Y465117D02*
X514178D01*
X429782Y454487D02*
X514073D01*
X404280Y452361D02*
X513995D01*
X404724Y453778D02*
X513819D01*
X404627Y453070D02*
X513796D01*
X502795Y435353D02*
X513536D01*
X506623Y434644D02*
X512828D01*
X507314Y433936D02*
X512119D01*
X487385Y492755D02*
X511944D01*
X505569Y488503D02*
X511619D01*
X507612Y433227D02*
X511410D01*
X474717Y492046D02*
X510966D01*
X483453Y528188D02*
X510883D01*
X504592Y489211D02*
X510850D01*
X477160Y524644D02*
X510797D01*
X507672Y432518D02*
X510702D01*
X454494Y491337D02*
X510568D01*
X479374Y489920D02*
X510519D01*
X454254Y490629D02*
X510434D01*
X483417Y527479D02*
X510312D01*
X477100Y525353D02*
X510273D01*
X483147Y526770D02*
X510072D01*
X482518Y526062D02*
X510061D01*
X507512Y431810D02*
X509993D01*
X505888Y498424D02*
X509886D01*
X473286Y502676D02*
X509717D01*
X507075Y431101D02*
X509284D01*
X505389Y499133D02*
X508968D01*
X473684Y501967D02*
X508907D01*
X473402Y499841D02*
X508587D01*
X505915Y430392D02*
X508576D01*
X473818Y501259D02*
X508561D01*
X473733Y500550D02*
X508465D01*
X481693Y429684D02*
X507867D01*
X481693Y428975D02*
X507158D01*
X500229Y534566D02*
X506849D01*
X457118Y531022D02*
X506582D01*
X481693Y428266D02*
X506450D01*
X500891Y446692D02*
X506356D01*
X499902Y443148D02*
X506269D01*
X499791Y533857D02*
X506221D01*
X457278Y531731D02*
X506103D01*
X498631Y533148D02*
X505953D01*
X492183Y532440D02*
X505917D01*
X499483Y445983D02*
X505784D01*
X429671Y538109D02*
X505762D01*
X500157Y443857D02*
X505746D01*
X481693Y427558D02*
X505741D01*
X499983Y445274D02*
X505545D01*
X500181Y444566D02*
X505533D01*
X487946Y508345D02*
X505080D01*
X481693Y426849D02*
X505032D01*
X492880Y430392D02*
X504715D01*
X430731Y538818D02*
X504702D01*
X495056Y475038D02*
X504660D01*
X474487Y509054D02*
X504451D01*
X431004Y541652D02*
X504429D01*
X466032Y470786D02*
X504336D01*
X481693Y426140D02*
X504324D01*
X431149Y539526D02*
X504284D01*
X431225Y540944D02*
X504209D01*
X473860Y509762D02*
X504182D01*
X453458Y510471D02*
X504146D01*
X431296Y540235D02*
X504137D01*
X503278Y434644D02*
X504007D01*
X494287Y474329D02*
X503683D01*
X481693Y425432D02*
X503615D01*
X466413Y471495D02*
X503566D01*
X502205Y431101D02*
X503555D01*
X488640Y511180D02*
X503486D01*
X468256Y473621D02*
X503284D01*
X466535Y472203D02*
X503235D01*
X467443Y472912D02*
X503151D01*
X488976Y515432D02*
X503150D01*
X499647Y424723D02*
X502906D01*
X480663Y489211D02*
X502889D01*
X489622Y511888D02*
X502504D01*
X489743Y514723D02*
X502383D01*
X488206Y495589D02*
X502273D01*
X500275Y424014D02*
X502198D01*
X490022Y512597D02*
X502104D01*
X480947Y499133D02*
X502091D01*
X490072Y514014D02*
X502054D01*
X490156Y513306D02*
X501970D01*
X481119Y488503D02*
X501911D01*
X453342Y484959D02*
X501895D01*
X480298Y485668D02*
X501795D01*
X487750Y496298D02*
X501673D01*
X481574Y498424D02*
X501592D01*
X481291Y487794D02*
X501513D01*
X500543Y423306D02*
X501489D01*
X480959Y486377D02*
X501464D01*
X486460Y497007D02*
X501418D01*
X481842Y497715D02*
X501394D01*
X501144Y484251D02*
X501384D01*
X481243Y487085D02*
X501379D01*
X481693Y436062D02*
X499865D01*
X493599Y431101D02*
X499370D01*
X486299Y484251D02*
X499250D01*
X491998Y435353D02*
X498780D01*
X459935Y451652D02*
X498607D01*
X493954Y431810D02*
X498584D01*
X487909Y483542D02*
X498336D01*
X493269Y434644D02*
X498297D01*
X494090Y432518D02*
X498199D01*
X493790Y433936D02*
X498072D01*
X494039Y433227D02*
X498042D01*
X488386Y482833D02*
X497956D01*
X492403Y446692D02*
X497648D01*
X460533Y450944D02*
X497440D01*
X493166Y533148D02*
X497431D01*
X456965Y447400D02*
X497177D01*
X460787Y450235D02*
X496938D01*
X481693Y424723D02*
X496809D01*
X460111Y448109D02*
X496807D01*
X494291Y420471D02*
X496753D01*
X402625Y537400D02*
X496724D01*
X494939Y477873D02*
X496707D01*
X460811Y449526D02*
X496701D01*
X460611Y448818D02*
X496661D01*
X494199Y421180D02*
X496543D01*
X494198Y419762D02*
X496399D01*
X492592Y442440D02*
X496368D01*
X493288Y418345D02*
X496316D01*
X493565Y533857D02*
X496272D01*
X493898Y419054D02*
X496264D01*
X488571Y482125D02*
X496194D01*
X493063Y445983D02*
X496186D01*
X481693Y424014D02*
X496182D01*
X493900Y421888D02*
X496064D01*
X492519Y536692D02*
X496032D01*
X481612Y423306D02*
X495914D01*
X493291Y422597D02*
X495878D01*
X493699Y534566D02*
X495834D01*
X455010Y417637D02*
X495820D01*
X493156Y443148D02*
X495767D01*
X493286Y535983D02*
X495734D01*
X493389Y445274D02*
X495687D01*
X493616Y535274D02*
X495675D01*
X493962Y478581D02*
X495647D01*
X493431Y443857D02*
X495513D01*
X493503Y444566D02*
X495488D01*
X488535Y481416D02*
X495467D01*
X453597Y479290D02*
X495229D01*
X488265Y480707D02*
X495153D01*
X437565Y416928D02*
X495111D01*
X487636Y479999D02*
X495082D01*
X437325Y416219D02*
X494403D01*
X446308Y415511D02*
X493694D01*
X447166Y414802D02*
X492985D01*
X447529Y414093D02*
X492277D01*
X452936Y478581D02*
X492259D01*
X468604Y474329D02*
X491934D01*
X426686Y477873D02*
X491281D01*
X468701Y475038D02*
X491165D01*
X467286Y477164D02*
X490883D01*
X468580Y475747D02*
X490834D01*
X468199Y476455D02*
X490749D01*
X481693Y435353D02*
X490679D01*
X457219Y532440D02*
X490494D01*
X419246Y536692D02*
X490158D01*
X481693Y430392D02*
X489797D01*
X455611Y418345D02*
X489783D01*
X481355Y422597D02*
X489780D01*
X456920Y533148D02*
X489512D01*
X481693Y434644D02*
X489409D01*
X420300Y535983D02*
X489391D01*
X455865Y419054D02*
X489173D01*
X480866Y421888D02*
X489171D01*
X456229Y533857D02*
X489112D01*
X457086Y446692D02*
X489093D01*
X481693Y431101D02*
X489078D01*
X420717Y535274D02*
X489062D01*
X420863Y534566D02*
X488978D01*
X425543Y442440D02*
X488904D01*
X481693Y433936D02*
X488887D01*
X455890Y419762D02*
X488873D01*
X479914Y421180D02*
X488872D01*
X455691Y420471D02*
X488780D01*
X481693Y431810D02*
X488723D01*
X481693Y433227D02*
X488638D01*
X481693Y432518D02*
X488587D01*
X456989Y445983D02*
X488433D01*
X425579Y443148D02*
X488340D01*
X456642Y445274D02*
X488107D01*
X425394Y443857D02*
X488065D01*
X455829Y444566D02*
X487993D01*
X481164Y511180D02*
X486951D01*
X480663Y515432D02*
X486615D01*
X474756Y508345D02*
X486463D01*
X472126Y484251D02*
X486142D01*
X481893Y511888D02*
X485968D01*
X439173Y504093D02*
X485962D01*
X481718Y514723D02*
X485848D01*
X481878Y497007D02*
X485587D01*
X482208Y512597D02*
X485569D01*
X482135Y514014D02*
X485518D01*
X482281Y513306D02*
X485434D01*
X474791Y507637D02*
X485408D01*
X439112Y504802D02*
X485233D01*
X474605Y506928D02*
X484991D01*
X438924Y505511D02*
X484918D01*
X474127Y506219D02*
X484845D01*
X473463Y479999D02*
X484805D01*
X469994Y467951D02*
X484777D01*
X456399Y460156D02*
X484754D01*
X475196Y492755D02*
X484662D01*
X460825Y463699D02*
X484572D01*
X473735Y483542D02*
X484532D01*
X481692Y496298D02*
X484298D01*
X460742Y464408D02*
X484230D01*
X474092Y480707D02*
X484175D01*
X456496Y460865D02*
X484153D01*
X460691Y462991D02*
X484072D01*
X474213Y482833D02*
X484055D01*
X470077Y467243D02*
X484050D01*
X475382Y493463D02*
X484002D01*
X474361Y481416D02*
X483906D01*
X459309Y461574D02*
X483899D01*
X460292Y462282D02*
X483874D01*
X474398Y482125D02*
X483870D01*
X481213Y495589D02*
X483841D01*
X468561Y465117D02*
X483811D01*
X469943Y466534D02*
X483736D01*
X475346Y494172D02*
X483718D01*
X475078Y494881D02*
X483670D01*
X469544Y465825D02*
X483664D01*
X476111Y530314D02*
X481024D01*
X476802Y526062D02*
X479687D01*
X476802Y529605D02*
X479414D01*
X462457Y515432D02*
X479180D01*
X476563Y526770D02*
X479057D01*
X477100Y528896D02*
X478937D01*
X477000Y527479D02*
X478788D01*
X477160Y528188D02*
X478752D01*
X458405Y511180D02*
X478679D01*
X453680Y489920D02*
X478500D01*
X461475Y514723D02*
X478125D01*
X472633Y499133D02*
X478108D01*
X458978Y511888D02*
X477949D01*
X474451Y495589D02*
X477842D01*
X459019Y514014D02*
X477708D01*
X459219Y512597D02*
X477634D01*
X454111Y485668D02*
X477576D01*
X459231Y513306D02*
X477562D01*
X453473Y498424D02*
X477481D01*
X454522Y496298D02*
X477363D01*
X454164Y497715D02*
X477213D01*
X453017Y489211D02*
X477211D01*
X454463Y497007D02*
X477177D01*
X454442Y486377D02*
X476915D01*
X453994Y488503D02*
X476755D01*
X454526Y487085D02*
X476631D01*
X454393Y487794D02*
X476583D01*
X431164Y455904D02*
X475604D01*
X456052Y459448D02*
X475601D01*
X431298Y456613D02*
X475056D01*
X455239Y458739D02*
X475055D01*
X431214Y457322D02*
X474830D01*
X430884Y458030D02*
X474830D01*
X468107Y518975D02*
X474203D01*
X456681Y530314D02*
X473495D01*
X468036Y519684D02*
X473044D01*
X467905Y526770D02*
X473044D01*
X407054Y523227D02*
X473044D01*
X455521Y529605D02*
X472804D01*
X467732Y526062D02*
X472804D01*
X407065Y522518D02*
X472804D01*
X467722Y520392D02*
X472606D01*
X467858Y527479D02*
X472606D01*
X406814Y523936D02*
X472606D01*
X466916Y528896D02*
X472506D01*
X467275Y525353D02*
X472506D01*
X406853Y521810D02*
X472506D01*
X467574Y528188D02*
X472446D01*
X465974Y524644D02*
X472446D01*
X466995Y521101D02*
X472446D01*
X439170Y484251D02*
X471969D01*
X454363Y495589D02*
X471612D01*
X454507Y492046D02*
X471346D01*
X453542Y509762D02*
X471022D01*
X453925Y494881D02*
X470985D01*
X454295Y492755D02*
X470867D01*
X440640Y506219D02*
X470755D01*
X452905Y494172D02*
X470717D01*
X453773Y493463D02*
X470681D01*
X453881Y479999D02*
X470632D01*
X439144Y503385D02*
X470605D01*
X453408Y509054D02*
X470394D01*
X439136Y483542D02*
X470359D01*
X441231Y499133D02*
X470280D01*
X441240Y506928D02*
X470276D01*
X453008Y508345D02*
X470126D01*
X452026Y507637D02*
X470091D01*
X453929Y480707D02*
X470002D01*
X452011Y482833D02*
X469882D01*
X453757Y481416D02*
X469733D01*
X453301Y482125D02*
X469697D01*
X441413Y502676D02*
X469628D01*
X441831Y499841D02*
X469511D01*
X441912Y501967D02*
X469229D01*
X442086Y500550D02*
X469180D01*
X442110Y501259D02*
X469096D01*
X460412Y465117D02*
X466872D01*
X459645Y465825D02*
X465890D01*
X429457Y477164D02*
X465392D01*
X406243Y524644D02*
X465129D01*
X462991Y516849D02*
X465014D01*
X406329Y521101D02*
X464502D01*
X430149Y476455D02*
X464478D01*
X446875Y528896D02*
X464186D01*
X430447Y475747D02*
X464097D01*
X430506Y475038D02*
X463977D01*
X462907Y517558D02*
X463954D01*
X446321Y525353D02*
X463828D01*
X421728Y520392D02*
X463774D01*
X437980Y466534D02*
X463626D01*
X462577Y518266D02*
X463536D01*
X447292Y528188D02*
X463528D01*
X422227Y519684D02*
X463460D01*
X461811Y518975D02*
X463389D01*
X447051Y526062D02*
X463370D01*
X447438Y527479D02*
X463245D01*
X447366Y526770D02*
X463197D01*
X430347Y474329D02*
X463063D01*
X438418Y467243D02*
X462708D01*
X437528Y470077D02*
X462647D01*
X426181Y440314D02*
X462383D01*
X438577Y467951D02*
X462327D01*
X425596Y470786D02*
X462315D01*
X438220Y469369D02*
X462301D01*
X429909Y473621D02*
X462254D01*
X455192Y421180D02*
X462212D01*
X438518Y468660D02*
X462205D01*
X425042Y471495D02*
X461933D01*
X428750Y472912D02*
X461907D01*
X425644Y472203D02*
X461811D01*
X426366Y439605D02*
X461332D01*
X450851Y421888D02*
X461260D01*
X436065Y438896D02*
X460810D01*
X449467Y422597D02*
X460771D01*
X436692Y438188D02*
X460533D01*
X450449Y423306D02*
X460514D01*
X436960Y437479D02*
X460434D01*
X436996Y436770D02*
X460433D01*
X437664Y436062D02*
X460433D01*
X448157Y435353D02*
X460433D01*
X451701Y434644D02*
X460433D01*
X452393Y433936D02*
X460433D01*
X452691Y433227D02*
X460433D01*
X452751Y432518D02*
X460433D01*
X452591Y431810D02*
X460433D01*
X452153Y431101D02*
X460433D01*
X450994Y430392D02*
X460433D01*
X402716Y429684D02*
X460433D01*
X402826Y428975D02*
X460433D01*
X446385Y428266D02*
X460433D01*
X447195Y427558D02*
X460433D01*
X449803Y426849D02*
X460433D01*
X450569Y426140D02*
X460433D01*
X450899Y425432D02*
X460433D01*
X450983Y424723D02*
X460433D01*
X450849Y424014D02*
X460433D01*
X458497Y514723D02*
X459785D01*
X458267Y518975D02*
X459449D01*
X456375Y461574D02*
X457620D01*
X436820Y465825D02*
X457284D01*
X403467Y451652D02*
X456995D01*
X455994Y462282D02*
X456638D01*
X404158Y465117D02*
X456517D01*
X437056Y450944D02*
X456396D01*
X455671Y448818D02*
X456318D01*
X455081Y462991D02*
X456238D01*
X404576Y464408D02*
X456188D01*
X437914Y450235D02*
X456142D01*
X438277Y449526D02*
X456119D01*
X404722Y463699D02*
X456104D01*
X422425Y518975D02*
X455906D01*
X453128Y511180D02*
X455375D01*
X453123Y514723D02*
X455282D01*
X452898Y515432D02*
X455260D01*
X422401Y518266D02*
X455139D01*
X452351Y516140D02*
X454860D01*
X422146Y517558D02*
X454810D01*
X452362Y511888D02*
X454801D01*
X453123Y514014D02*
X454760D01*
X421545Y516849D02*
X454726D01*
X452348Y512597D02*
X454561D01*
X452896Y513306D02*
X454548D01*
X449530Y529605D02*
X454321D01*
X438386Y448818D02*
X453777D01*
X424917Y444566D02*
X453620D01*
X449372Y533857D02*
X453614D01*
X424930Y462991D02*
X453187D01*
X450343Y530314D02*
X453162D01*
X430118Y458739D02*
X453029D01*
X450286Y533148D02*
X452922D01*
X438277Y448109D02*
X452864D01*
X423307Y445274D02*
X452807D01*
X450690Y531022D02*
X452724D01*
X450666Y532440D02*
X452624D01*
X450787Y531731D02*
X452564D01*
X437912Y447400D02*
X452483D01*
X417302Y445983D02*
X452459D01*
X437051Y446692D02*
X452362D01*
X425621Y462282D02*
X452273D01*
X425382Y459448D02*
X452216D01*
X451176Y417637D02*
X452077D01*
X425919Y461574D02*
X451893D01*
X425819Y460156D02*
X451869D01*
X425979Y460865D02*
X451772D01*
X439173Y494172D02*
X451426D01*
X441393Y489211D02*
X451314D01*
X440932Y482833D02*
X451138D01*
X439082Y484959D02*
X450989D01*
X402825Y498424D02*
X450858D01*
X440735Y489920D02*
X450650D01*
X439125Y493463D02*
X450558D01*
X439098Y494881D02*
X450406D01*
X441495Y507637D02*
X450336D01*
X441676Y488503D02*
X450336D01*
X439793Y485668D02*
X450220D01*
X439989Y478581D02*
X450213D01*
X437034Y497715D02*
X450166D01*
X437293Y490629D02*
X450077D01*
X438950Y492755D02*
X450036D01*
X442070Y511888D02*
X449997D01*
X438894Y495589D02*
X449968D01*
X441724Y487794D02*
X449938D01*
X441094Y486377D02*
X449889D01*
X437973Y497007D02*
X449868D01*
X441590Y482125D02*
X449849D01*
X438119Y491337D02*
X449836D01*
X438630Y492046D02*
X449824D01*
X438537Y496298D02*
X449808D01*
X441551Y487085D02*
X449804D01*
X440475Y430392D02*
X449794D01*
X441290Y479290D02*
X449553D01*
X441873Y481416D02*
X449392D01*
X441519Y508345D02*
X449354D01*
X441748Y479999D02*
X449269D01*
X441786Y511180D02*
X449234D01*
X442118Y512597D02*
X449226D01*
X401946Y516140D02*
X449223D01*
X441921Y480707D02*
X449221D01*
X448595Y421888D02*
X449149D01*
X441321Y509054D02*
X448954D01*
X441125Y510471D02*
X448904D01*
X437578Y417637D02*
X448824D01*
X440822Y509762D02*
X448820D01*
X441946Y513306D02*
X448679D01*
X401231Y515432D02*
X448677D01*
X447988Y431101D02*
X448634D01*
X441490Y514014D02*
X448452D01*
X440200Y514723D02*
X448452D01*
X437366Y418345D02*
X448055D01*
X436844Y419054D02*
X447724D01*
X428242Y419762D02*
X447639D01*
X420791Y533857D02*
X447478D01*
X445820Y529605D02*
X447320D01*
X420476Y533148D02*
X446565D01*
X428346Y530314D02*
X446507D01*
X427017Y532440D02*
X446184D01*
X428238Y531022D02*
X446160D01*
X441288Y431101D02*
X446106D01*
X427875Y531731D02*
X446063D01*
X438391Y435353D02*
X445937D01*
X441635Y431810D02*
X445189D01*
X440317Y434644D02*
X445128D01*
X441732Y432518D02*
X444807D01*
X441231Y433936D02*
X444781D01*
X438766Y420471D02*
X444699D01*
X441611Y433227D02*
X444685D01*
X428237Y529605D02*
X444337D01*
X438769Y424014D02*
X444334D01*
X436751Y415511D02*
X444243D01*
X402812Y428266D02*
X444166D01*
X439314Y421180D02*
X444151D01*
X439315Y423306D02*
X444150D01*
X439540Y421888D02*
X443925D01*
X439540Y422597D02*
X443924D01*
X395669Y525353D02*
X443836D01*
X429078Y424723D02*
X443417D01*
X400075Y414802D02*
X443385D01*
X402674Y427558D02*
X443356D01*
X427873Y528896D02*
X443282D01*
X395669Y526062D02*
X443107D01*
X428795Y425432D02*
X443035D01*
X399157Y414093D02*
X443022D01*
X402397Y426849D02*
X443010D01*
X428137Y426140D02*
X442914D01*
X427011Y528188D02*
X442865D01*
X395669Y526770D02*
X442792D01*
X395669Y527479D02*
X442719D01*
X428336Y413385D02*
X440487D01*
X399826Y514723D02*
X439327D01*
X428882Y412676D02*
X439235D01*
X427164Y478581D02*
X439144D01*
X429107Y411967D02*
X438984D01*
X429107Y411259D02*
X438976D01*
X428881Y410550D02*
X438976D01*
X428333Y409841D02*
X438976D01*
X402812Y409133D02*
X438976D01*
X402825Y408424D02*
X438976D01*
X402715Y407715D02*
X438976D01*
X402472Y407007D02*
X438976D01*
X419418Y406298D02*
X438976D01*
X420109Y405589D02*
X438976D01*
X420408Y404881D02*
X438976D01*
X420467Y404172D02*
X438976D01*
X420307Y403463D02*
X438976D01*
X419870Y402755D02*
X438976D01*
X418710Y402046D02*
X438976D01*
X401885Y401337D02*
X438976D01*
X402358Y400629D02*
X438976D01*
X438314Y399920D02*
X438976D01*
X436771Y510471D02*
X438369D01*
X424892Y499133D02*
X438297D01*
X402473Y430392D02*
X438265D01*
X399601Y514014D02*
X438038D01*
X425494Y489920D02*
X438005D01*
X427350Y479290D02*
X437843D01*
X436518Y511180D02*
X437742D01*
X425492Y499841D02*
X437697D01*
X399441Y513306D02*
X437581D01*
X436795Y509762D02*
X437524D01*
X435919Y511888D02*
X437458D01*
X402066Y431101D02*
X437452D01*
X437167Y500550D02*
X437422D01*
X431229Y512597D02*
X437410D01*
X435599Y479999D02*
X437386D01*
X425748Y489211D02*
X437347D01*
X425771Y488503D02*
X437064D01*
X436596Y509054D02*
X437025D01*
X436095Y508345D02*
X436827D01*
X421870Y399920D02*
X436095D01*
X401425Y431810D02*
X435684D01*
X402436Y420471D02*
X435644D01*
X429126Y424014D02*
X435641D01*
X403104Y465825D02*
X435620D01*
X423257Y396377D02*
X435346D01*
X423022Y399211D02*
X435285D01*
X402009Y421180D02*
X435096D01*
X428953Y423306D02*
X435095D01*
X417090Y446692D02*
X434997D01*
X432119Y450944D02*
X434991D01*
X423557Y397085D02*
X434964D01*
X423458Y398503D02*
X434939D01*
X425910Y470077D02*
X434913D01*
X427194Y421888D02*
X434869D01*
X428495Y422597D02*
X434869D01*
X423617Y397794D02*
X434843D01*
X424787Y432518D02*
X434623D01*
X427315Y479999D02*
X434479D01*
X402221Y466534D02*
X434461D01*
X425981Y469369D02*
X434221D01*
X425447Y433227D02*
X434205D01*
X432027Y447400D02*
X434135D01*
X432641Y450235D02*
X434133D01*
X425779Y434644D02*
X434100D01*
X425731Y433936D02*
X434058D01*
X424356Y467243D02*
X434023D01*
X425834Y468660D02*
X433923D01*
X425416Y467951D02*
X433864D01*
X432600Y448109D02*
X433771D01*
X432853Y449526D02*
X433770D01*
X401330Y415511D02*
X433721D01*
X432841Y448818D02*
X433661D01*
X428840Y419054D02*
X433629D01*
X426330Y438896D02*
X433227D01*
X425572Y487794D02*
X433195D01*
X428418Y416219D02*
X433148D01*
X429094Y418345D02*
X433107D01*
X416141Y497715D02*
X433045D01*
X431920Y511888D02*
X432979D01*
X425608Y435353D02*
X432960D01*
X425747Y500550D02*
X432912D01*
X425958Y507637D02*
X432908D01*
X428918Y416928D02*
X432907D01*
X429118Y417637D02*
X432895D01*
X430521Y508345D02*
X432803D01*
X424895Y490629D02*
X432786D01*
X427046Y480707D02*
X432669D01*
X426061Y438188D02*
X432599D01*
X425151Y436062D02*
X432481D01*
X425431Y437479D02*
X432331D01*
X431681Y509054D02*
X432302D01*
X424040Y436770D02*
X432295D01*
X425071Y487085D02*
X432186D01*
X424987Y497007D02*
X432105D01*
X425771Y501259D02*
X432032D01*
X425957Y506928D02*
X432029D01*
X405307Y491337D02*
X431959D01*
X426419Y481416D02*
X431891D01*
X402119Y486377D02*
X431593D01*
X425645Y496298D02*
X431542D01*
X425573Y501967D02*
X431495D01*
X425731Y506219D02*
X431493D01*
X405259Y492046D02*
X431449D01*
X425862Y482125D02*
X431405D01*
X415812Y485668D02*
X431217D01*
X425928Y495589D02*
X431185D01*
X425074Y502676D02*
X431157D01*
X425183Y505511D02*
X431156D01*
X424045Y492755D02*
X431129D01*
X425984Y482833D02*
X431103D01*
X424732Y484959D02*
X430997D01*
X425976Y494881D02*
X430981D01*
X399404Y503385D02*
X430967D01*
X400075Y504802D02*
X430966D01*
X425346Y493463D02*
X430954D01*
X425888Y483542D02*
X430943D01*
X425542Y484251D02*
X430908D01*
X425803Y494172D02*
X430906D01*
X399345Y504093D02*
X430905D01*
X425732Y508345D02*
X429321D01*
X424547Y447400D02*
X428997D01*
X424639Y450944D02*
X428904D01*
X400082Y512597D02*
X428614D01*
X425120Y448109D02*
X428423D01*
X425161Y450235D02*
X428382D01*
X413694Y538109D02*
X428203D01*
X425360Y448818D02*
X428183D01*
X425373Y449526D02*
X428171D01*
X425186Y509054D02*
X428162D01*
X404603Y454487D02*
X428092D01*
X401333Y511888D02*
X427922D01*
X425089Y458739D02*
X427756D01*
X416380Y509762D02*
X427724D01*
X402009Y511180D02*
X427624D01*
X402436Y510471D02*
X427564D01*
X425928Y472912D02*
X427550D01*
X414172Y538818D02*
X427143D01*
X424333Y455196D02*
X427110D01*
X425469Y458030D02*
X426990D01*
X413623Y541652D02*
X426870D01*
X402538Y477164D02*
X426842D01*
X414358Y539526D02*
X426725D01*
X425146Y455904D02*
X426710D01*
X425590Y457322D02*
X426660D01*
X414054Y540944D02*
X426649D01*
X414323Y540235D02*
X426578D01*
X425493Y456613D02*
X426576D01*
X425976Y473621D02*
X426390D01*
X401333Y421888D02*
X426349D01*
X402172Y476455D02*
X426151D01*
X424059Y475747D02*
X425852D01*
X425348Y475038D02*
X425793D01*
X401946Y426140D02*
X425407D01*
X402696Y419762D02*
X425302D01*
X402674Y409841D02*
X425211D01*
X399204Y413385D02*
X425208D01*
X402007Y416219D02*
X425126D01*
X400082Y422597D02*
X425048D01*
X395669Y528188D02*
X424957D01*
X419746Y532440D02*
X424952D01*
X401231Y425432D02*
X424748D01*
X402820Y419054D02*
X424703D01*
X402398Y410550D02*
X424663D01*
X399836Y412676D02*
X424661D01*
X402435Y416928D02*
X424625D01*
X398995Y423306D02*
X424590D01*
X399826Y424723D02*
X424465D01*
X402819Y418345D02*
X424449D01*
X401948Y411259D02*
X424436D01*
X401234Y411967D02*
X424436D01*
X402695Y417637D02*
X424426D01*
X398983Y424014D02*
X424418D01*
X395669Y528896D02*
X424095D01*
X405140Y531731D02*
X424093D01*
X395669Y529605D02*
X423731D01*
X404080Y531022D02*
X423730D01*
X395669Y530314D02*
X423622D01*
X402751Y477873D02*
X423314D01*
X404976Y492755D02*
X423199D01*
X402985Y475747D02*
X423186D01*
X417290Y445274D02*
X423150D01*
X419339Y436770D02*
X422989D01*
X402569Y467243D02*
X422888D01*
X402833Y478581D02*
X422836D01*
X402626Y479999D02*
X422685D01*
X402315Y480707D02*
X422681D01*
X402792Y479290D02*
X422650D01*
X402650Y437479D02*
X422600D01*
X416790Y484959D02*
X422512D01*
X404649Y462991D02*
X422314D01*
X416908Y497007D02*
X422257D01*
X416851Y471495D02*
X422202D01*
X404223Y455196D02*
X422123D01*
X419334Y432518D02*
X422064D01*
X401330Y505511D02*
X422061D01*
X417007Y509054D02*
X422058D01*
X402803Y438188D02*
X421971D01*
X402812Y499133D02*
X421958D01*
X405134Y490629D02*
X421955D01*
X415805Y493463D02*
X421899D01*
X403507Y475038D02*
X421896D01*
X416722Y459448D02*
X421862D01*
X402507Y440314D02*
X421850D01*
X415988Y467951D02*
X421828D01*
X402121Y441022D02*
X421813D01*
X402506Y487085D02*
X421779D01*
X399836Y502676D02*
X421776D01*
X416137Y481416D02*
X421763D01*
X417188Y484251D02*
X421702D01*
X402830Y438896D02*
X421702D01*
X420198Y436062D02*
X421699D01*
X402735Y439605D02*
X421665D01*
X417214Y470786D02*
X421648D01*
X404334Y462282D02*
X421623D01*
X415993Y472203D02*
X421600D01*
X417238Y496298D02*
X421599D01*
X417049Y444566D02*
X421540D01*
X416568Y447400D02*
X421516D01*
X416646Y506219D02*
X421513D01*
X417275Y508345D02*
X421512D01*
X416788Y494172D02*
X421441D01*
X403719Y474329D02*
X421440D01*
X415570Y460156D02*
X421425D01*
X402173Y450944D02*
X421424D01*
X416849Y468660D02*
X421410D01*
X420196Y433227D02*
X421403D01*
X416906Y482125D02*
X421382D01*
X417159Y458739D02*
X421368D01*
X402674Y499841D02*
X421358D01*
X404676Y489920D02*
X421357D01*
X417322Y483542D02*
X421356D01*
X417323Y470077D02*
X421334D01*
X403605Y461574D02*
X421325D01*
X403467Y472912D02*
X421316D01*
X417321Y495589D02*
X421316D01*
X416264Y455904D02*
X421311D01*
X417125Y506928D02*
X421287D01*
X417311Y507637D02*
X421286D01*
X402734Y487794D02*
X421278D01*
X401234Y501967D02*
X421277D01*
X417187Y494881D02*
X421268D01*
X403707Y473621D02*
X421268D01*
X402223Y460865D02*
X421265D01*
X417214Y469369D02*
X421263D01*
X417237Y482833D02*
X421260D01*
X420561Y435353D02*
X421243D01*
X401513Y441731D02*
X421183D01*
X420560Y433936D02*
X421119D01*
X402398Y500550D02*
X421103D01*
X403375Y489211D02*
X421103D01*
X402830Y488503D02*
X421079D01*
X401948Y501259D02*
X421079D01*
X420669Y434644D02*
X421071D01*
X416476Y443857D02*
X421063D01*
X417318Y458030D02*
X420987D01*
X416958Y456613D02*
X420963D01*
X402792Y448109D02*
X420943D01*
X400464Y442440D02*
X420914D01*
X402539Y450235D02*
X420902D01*
X399147Y443148D02*
X420878D01*
X417257Y457322D02*
X420866D01*
X402833Y448818D02*
X420703D01*
X402751Y449526D02*
X420690D01*
X414389Y399920D02*
X420650D01*
X415541Y399211D02*
X419498D01*
X415777Y396377D02*
X419262D01*
X415978Y398503D02*
X419062D01*
X416076Y397085D02*
X418963D01*
X416137Y397794D02*
X418903D01*
X402397Y516849D02*
X418612D01*
X402473Y520392D02*
X418430D01*
X402674Y517558D02*
X418011D01*
X402716Y519684D02*
X417931D01*
X402314Y536692D02*
X417762D01*
X402812Y518266D02*
X417757D01*
X402826Y518975D02*
X417732D01*
X401130Y402046D02*
X417510D01*
X400287Y432518D02*
X417280D01*
X410663Y436770D02*
X417275D01*
X405559Y532440D02*
X417262D01*
X402065Y406298D02*
X416802D01*
X401816Y535983D02*
X416708D01*
X405706Y533148D02*
X416532D01*
X410570Y433227D02*
X416418D01*
X411185Y436062D02*
X416416D01*
X399510Y402755D02*
X416351D01*
X404593Y535274D02*
X416291D01*
X405634Y533857D02*
X416217D01*
X405320Y534566D02*
X416145D01*
X401422Y405589D02*
X416111D01*
X411144Y433936D02*
X416054D01*
X411396Y435353D02*
X416053D01*
X411384Y434644D02*
X415945D01*
X398999Y403463D02*
X415913D01*
X400280Y404881D02*
X415813D01*
X398976Y404172D02*
X415753D01*
X402570Y460156D02*
X414351D01*
X404318Y493463D02*
X414116D01*
X401510Y485668D02*
X414109D01*
X402766Y467951D02*
X413934D01*
X402893Y472203D02*
X413928D01*
X401818Y481416D02*
X413784D01*
X402715Y497715D02*
X413780D01*
X403309Y455904D02*
X413657D01*
X402696Y509762D02*
X413542D01*
X399207Y443857D02*
X413445D01*
X402625Y447400D02*
X413353D01*
X402007Y506219D02*
X413275D01*
X402767Y459448D02*
X413199D01*
X402651Y399920D02*
X413170D01*
X395669Y494172D02*
X413134D01*
X400459Y484959D02*
X413131D01*
X402834Y468660D02*
X413072D01*
X401761Y471495D02*
X413070D01*
X401017Y482125D02*
X413015D01*
X402472Y497007D02*
X413013D01*
X402269Y456613D02*
X412963D01*
X402820Y509054D02*
X412914D01*
X399155Y444566D02*
X412872D01*
X402314Y446692D02*
X412831D01*
X402435Y506928D02*
X412796D01*
X402834Y458739D02*
X412762D01*
X400280Y494881D02*
X412734D01*
X399335Y484251D02*
X412733D01*
X402780Y469369D02*
X412708D01*
X402270Y470786D02*
X412707D01*
X399329Y482833D02*
X412684D01*
X402065Y496298D02*
X412684D01*
X402598Y457322D02*
X412664D01*
X402819Y508345D02*
X412646D01*
X401013Y445274D02*
X412632D01*
X401816Y445983D02*
X412619D01*
X402695Y507637D02*
X412610D01*
X402780Y458030D02*
X412604D01*
X401422Y495589D02*
X412600D01*
X399406Y483542D02*
X412600D01*
X402599Y470077D02*
X412598D01*
X408001Y399211D02*
X412018D01*
X408890Y396377D02*
X411782D01*
X408692Y398503D02*
X411581D01*
X409050Y397085D02*
X411483D01*
X408990Y397794D02*
X411422D01*
X401751Y541652D02*
X410393D01*
X402792Y538109D02*
X410322D01*
X402173Y540944D02*
X409961D01*
X402833Y538818D02*
X409843D01*
X402539Y540235D02*
X409693D01*
X402751Y539526D02*
X409658D01*
X398975Y433227D02*
X407540D01*
X402356Y436770D02*
X407448D01*
X399000Y433936D02*
X406967D01*
X401883Y436062D02*
X406926D01*
X399497Y434644D02*
X406726D01*
X401126Y435353D02*
X406714D01*
X402803Y399211D02*
X405385D01*
X402830Y398503D02*
X404694D01*
X402119Y396377D02*
X404496D01*
X402734Y397794D02*
X404396D01*
X402506Y397085D02*
X404336D01*
X395669Y524644D02*
X403206D01*
X402066Y521101D02*
X403120D01*
X395669Y523936D02*
X402634D01*
X395669Y531022D02*
X402613D01*
X401425Y521810D02*
X402596D01*
X395669Y523227D02*
X402395D01*
X400287Y522518D02*
X402383D01*
X401013Y535274D02*
X402100D01*
X395669Y493463D02*
X401588D01*
X395669Y531731D02*
X401552D01*
X395669Y534566D02*
X401373D01*
X395669Y532440D02*
X401134D01*
X395669Y533857D02*
X401059D01*
X395669Y533148D02*
X400987D01*
X399510Y492755D02*
X400929D01*
X395669D02*
X397891D01*
X395669Y494881D02*
X397121D01*
X395669Y522518D02*
X397115D01*
X395669Y535274D02*
X396388D01*
X395669Y492046D02*
X396272D01*
X395688Y495589D02*
X395979D01*
X395690Y521810D02*
X395976D01*
X548448Y538084D02*
X591732D01*
X547931Y537375D02*
X591732D01*
X546897Y536666D02*
X591732D01*
X522638Y535958D02*
X591732D01*
X537919Y535249D02*
X591732D01*
X538800Y534540D02*
X591732D01*
X539262Y533832D02*
X591732D01*
X539501Y533123D02*
X591732D01*
X539566Y532414D02*
X591732D01*
X539470Y531706D02*
X591732D01*
X539196Y530997D02*
X591732D01*
X547819Y530288D02*
X591732D01*
X548890Y529580D02*
X591732D01*
X549418Y528871D02*
X591732D01*
X549700Y528162D02*
X591732D01*
X549802Y527454D02*
X591732D01*
X572726Y526745D02*
X591732D01*
X574142Y526036D02*
X591732D01*
X574928Y525328D02*
X591732D01*
X575456Y524619D02*
X591732D01*
X575815Y523910D02*
X591732D01*
X590691Y523202D02*
X591732D01*
X548722Y538792D02*
X591731D01*
X548818Y539501D02*
X591625D01*
X548753Y540210D02*
X591330D01*
X548514Y540918D02*
X590768D01*
X548149Y541627D02*
X589493D01*
X584644Y463674D02*
X587965D01*
X578869Y453753D02*
X587958D01*
X579084Y473595D02*
X587927D01*
X582239Y443832D02*
X587897D01*
X582141Y483517D02*
X587688D01*
X577556Y433910D02*
X587573D01*
X572234Y493438D02*
X587367D01*
X522638Y513989D02*
X587280D01*
X576282Y423989D02*
X587280D01*
X581775Y503359D02*
X587114D01*
X585192Y413359D02*
X587114D01*
X585393Y414068D02*
X587041D01*
X582017Y504068D02*
X587041D01*
X576977Y423281D02*
X586899D01*
X522638Y513281D02*
X586899D01*
X571022Y494147D02*
X586836D01*
X576044Y523202D02*
X586711D01*
X577441Y433202D02*
X586711D01*
X580526Y484225D02*
X586654D01*
X582278Y443123D02*
X586541D01*
X578118Y474304D02*
X586490D01*
X577526Y453044D02*
X586387D01*
X584542Y464383D02*
X586340D01*
X584585Y462966D02*
X586245D01*
X579460Y454462D02*
X586201D01*
X579578Y472887D02*
X586113D01*
X582032Y444540D02*
X586072D01*
X582766Y482808D02*
X585990D01*
X577508Y434619D02*
X585951D01*
X572799Y492729D02*
X585874D01*
X522638Y514698D02*
X585838D01*
X571030Y424698D02*
X585838D01*
X581308Y502651D02*
X585765D01*
X584783Y412651D02*
X585765D01*
X585459Y414777D02*
X585731D01*
X582086Y504777D02*
X585731D01*
X577355Y422572D02*
X585662D01*
X557692Y512572D02*
X585662D01*
X576011Y494855D02*
X585630D01*
X576161Y522493D02*
X585564D01*
X577144Y432493D02*
X585564D01*
X577361Y484934D02*
X585534D01*
X582154Y442414D02*
X585472D01*
X573569Y475013D02*
X585442D01*
X573601Y452336D02*
X585383D01*
X584261Y465092D02*
X585355D01*
X584353Y462257D02*
X585299D01*
X579780Y455170D02*
X585272D01*
X579838Y472178D02*
X585218D01*
X581614Y445249D02*
X585193D01*
X583106Y482099D02*
X585142D01*
X577291Y435328D02*
X585117D01*
X573103Y492021D02*
X585068D01*
X522638Y515407D02*
X585045D01*
X572373Y425407D02*
X585045D01*
X580413Y501942D02*
X584998D01*
X584024Y411942D02*
X584998D01*
X581993Y505485D02*
X584975D01*
X577533Y421863D02*
X584930D01*
X559306Y511863D02*
X584930D01*
X576742Y495564D02*
X584909D01*
X576174Y521784D02*
X584865D01*
X576592Y431784D02*
X584865D01*
X577259Y485643D02*
X584845D01*
X581846Y441706D02*
X584803D01*
X573619Y475721D02*
X584784D01*
X573603Y451627D02*
X584744D01*
X583733Y465800D02*
X584725D01*
X583900Y461548D02*
X584687D01*
X579913Y455879D02*
X584669D01*
X579921Y471470D02*
X584632D01*
X580835Y445958D02*
X584615D01*
X583255Y481391D02*
X584580D01*
X576858Y436036D02*
X584563D01*
X573224Y491312D02*
X584529D01*
X537428Y516115D02*
X584513D01*
X572964Y426115D02*
X584513D01*
X522638Y501233D02*
X584481D01*
X572808Y411233D02*
X584481D01*
X581723Y506194D02*
X584466D01*
X577545Y421155D02*
X584435D01*
X559931Y511155D02*
X584435D01*
X577138Y496273D02*
X584420D01*
X576084Y521076D02*
X584391D01*
X575431Y431076D02*
X584391D01*
X573938Y396351D02*
X584377D01*
X576977Y486351D02*
X584377D01*
X581275Y440997D02*
X584348D01*
X573508Y476430D02*
X584335D01*
X573442Y450918D02*
X584307D01*
X582661Y466509D02*
X584295D01*
X583044Y460840D02*
X584269D01*
X579884Y456588D02*
X584256D01*
X579843Y470761D02*
X584231D01*
X522638Y446666D02*
X584220D01*
X583240Y480682D02*
X584196D01*
X576048Y436745D02*
X584185D01*
X573182Y490603D02*
X584162D01*
X500988Y400603D02*
X584162D01*
X538159Y516824D02*
X584151D01*
X573284Y426824D02*
X584151D01*
X575063Y406273D02*
X584151D01*
X574854Y500525D02*
X584130D01*
X573590Y410525D02*
X584130D01*
X581212Y506903D02*
X584120D01*
X560271Y510446D02*
X584099D01*
X577392Y420446D02*
X584099D01*
X575316Y406981D02*
X584090D01*
X577329Y496981D02*
X584090D01*
X575885Y520367D02*
X584070D01*
X572037Y430367D02*
X584070D01*
X576449Y487060D02*
X584061D01*
X574016Y397060D02*
X584061D01*
X580033Y440288D02*
X584043D01*
X573215Y477139D02*
X584034D01*
X522213Y401312D02*
X584018D01*
X573085Y450210D02*
X584017D01*
X526483Y467218D02*
X584008D01*
X522638Y460131D02*
X583992D01*
X579686Y457296D02*
X583984D01*
X579591Y470052D02*
X583969D01*
X522638Y447375D02*
X583961D01*
X583058Y479973D02*
X583947D01*
X520472Y437454D02*
X583940D01*
X572971Y489895D02*
X583927D01*
X572212Y399895D02*
X583927D01*
X573218Y517533D02*
X583920D01*
X573417Y427533D02*
X583920D01*
X574556Y409816D02*
X583908D01*
X576281Y499816D02*
X583908D01*
X580197Y507611D02*
X583902D01*
X583091Y417611D02*
X583902D01*
X577048Y419737D02*
X583890D01*
X560420Y509737D02*
X583890D01*
X575394Y407690D02*
X583884D01*
X577352Y497690D02*
X583884D01*
X575562Y519658D02*
X583874D01*
X572786Y429658D02*
X583874D01*
X575378Y487769D02*
X583869D01*
X573932Y397769D02*
X583869D01*
X552253Y439580D02*
X583859D01*
X572669Y477847D02*
X583854D01*
X572430Y449501D02*
X583845D01*
X526815Y467926D02*
X583841D01*
X522638Y459422D02*
X583833D01*
X579282Y458005D02*
X583829D01*
X579107Y469344D02*
X583822D01*
X522638Y448084D02*
X583818D01*
X582676Y479265D02*
X583812D01*
X520609Y438162D02*
X583809D01*
X572548Y489186D02*
X583803D01*
X573178Y399186D02*
X583803D01*
X574380Y518241D02*
X583801D01*
X573388Y428241D02*
X583801D01*
X575050Y409107D02*
X583796D01*
X576885Y499107D02*
X583796D01*
X560224Y508320D02*
X583794D01*
X574694Y418320D02*
X583794D01*
X576416Y419029D02*
X583790D01*
X560405Y509029D02*
X583790D01*
X575310Y408399D02*
X583789D01*
X577213Y498399D02*
X583789D01*
X575084Y518950D02*
X583786D01*
X573190Y428950D02*
X583786D01*
X571758Y488477D02*
X583785D01*
X573672Y398477D02*
X583785D01*
X521318Y438871D02*
X583782D01*
X581972Y478556D02*
X583782D01*
X522638Y448792D02*
X583780D01*
X578171Y468635D02*
X583780D01*
X578533Y458714D02*
X583780D01*
X574580Y405564D02*
X583456D01*
X522972Y402021D02*
X583385D01*
X573643Y404855D02*
X583078D01*
X523381Y402729D02*
X583041D01*
X523615Y404147D02*
X582900D01*
X523582Y403438D02*
X582889D01*
X544309Y417611D02*
X581476D01*
X573664Y411942D02*
X580543D01*
X577937Y466509D02*
X580331D01*
X572425Y416903D02*
X580170D01*
X578319Y460840D02*
X579948D01*
X574117Y412651D02*
X579784D01*
X577301Y484225D02*
X579710D01*
X573497Y416194D02*
X579587D01*
X574348Y413359D02*
X579375D01*
X574025Y415485D02*
X579271D01*
X579008Y465800D02*
X579259D01*
X574408Y414068D02*
X579174D01*
X574306Y414777D02*
X579141D01*
X571533Y478556D02*
X578264D01*
X571174Y440288D02*
X578235D01*
X577070Y483517D02*
X578096D01*
X559841Y507611D02*
X577678D01*
X522638Y479265D02*
X577560D01*
X576617Y482808D02*
X577470D01*
X558169Y501942D02*
X577461D01*
X571977Y445958D02*
X577433D01*
X522638Y479973D02*
X577178D01*
X575760Y482099D02*
X577130D01*
X522638Y480682D02*
X576997D01*
X572417Y440997D02*
X576993D01*
X543609Y481391D02*
X576982D01*
X559145Y506903D02*
X576662D01*
X572755Y445249D02*
X576654D01*
X559063Y502651D02*
X576566D01*
X572988Y441706D02*
X576422D01*
X573174Y444540D02*
X576236D01*
X559479Y506194D02*
X576151D01*
X573296Y442414D02*
X576113D01*
X559531Y503359D02*
X576099D01*
X573381Y443832D02*
X576028D01*
X573433Y453044D02*
X576018D01*
X573420Y443123D02*
X575990D01*
X559749Y505485D02*
X575881D01*
X559773Y504068D02*
X575857D01*
X559842Y504777D02*
X575788D01*
X570260Y466509D02*
X575607D01*
X573347Y474304D02*
X575426D01*
X566163Y468635D02*
X575373D01*
X570642Y460840D02*
X575224D01*
X565934Y458714D02*
X575011D01*
X573068Y453753D02*
X574674D01*
X571331Y465800D02*
X574535D01*
X572910Y473595D02*
X574460D01*
X567099Y469344D02*
X574436D01*
X571499Y461548D02*
X574367D01*
X566683Y458005D02*
X574262D01*
X560717Y418320D02*
X574125D01*
X572397Y454462D02*
X574083D01*
X571859Y465092D02*
X574007D01*
X572088Y472887D02*
X573965D01*
X567583Y470052D02*
X573953D01*
X571951Y462257D02*
X573915D01*
X567088Y457296D02*
X573857D01*
X567182Y455170D02*
X573763D01*
X572141Y464383D02*
X573725D01*
X567830Y472178D02*
X573706D01*
X567836Y470761D02*
X573700D01*
X572183Y462966D02*
X573683D01*
X567285Y456588D02*
X573660D01*
X567315Y455879D02*
X573630D01*
X572243Y463674D02*
X573623D01*
X567913Y471470D02*
X573622D01*
X561665Y500525D02*
X573571D01*
X561455Y431076D02*
X573388D01*
X562189Y487769D02*
X573047D01*
X562071Y436745D02*
X572771D01*
X562571Y482099D02*
X572665D01*
X562306Y423989D02*
X572537D01*
X562822Y494855D02*
X572414D01*
X562439Y419029D02*
X572403D01*
X562616Y431784D02*
X572227D01*
X563092Y499816D02*
X572144D01*
X563260Y487060D02*
X571976D01*
X562881Y436036D02*
X571961D01*
X563001Y423281D02*
X571842D01*
X563428Y482808D02*
X571808D01*
X563072Y419737D02*
X571771D01*
X563553Y495564D02*
X571683D01*
X563168Y432493D02*
X571674D01*
X563696Y499107D02*
X571540D01*
X563314Y435328D02*
X571528D01*
X563379Y422572D02*
X571464D01*
X563788Y486351D02*
X571448D01*
X563416Y420446D02*
X571426D01*
X563465Y433202D02*
X571378D01*
X563881Y483517D02*
X571356D01*
X563532Y434619D02*
X571311D01*
X563949Y496273D02*
X571288D01*
X563556Y421863D02*
X571286D01*
X563568Y421155D02*
X571274D01*
X563579Y433910D02*
X571263D01*
X564024Y498399D02*
X571212D01*
X564070Y485643D02*
X571166D01*
X564112Y484225D02*
X571124D01*
X564140Y496981D02*
X571097D01*
X564163Y497690D02*
X571073D01*
X564172Y484934D02*
X571064D01*
X544455Y410525D02*
X570898D01*
X523485Y404855D02*
X570845D01*
X559827Y416903D02*
X570095D01*
X539545Y409816D02*
X569932D01*
X537185Y405564D02*
X569909D01*
X549742Y526745D02*
X569794D01*
X560209Y411233D02*
X569712D01*
X565518Y424698D02*
X569522D01*
X567685Y399895D02*
X569520D01*
X539732Y409107D02*
X569438D01*
X538667Y406273D02*
X569425D01*
X522638Y478556D02*
X569412D01*
X565663Y440288D02*
X569377D01*
X538555Y517533D02*
X569301D01*
X539753Y408399D02*
X569178D01*
X539278Y406981D02*
X569172D01*
X565511Y494147D02*
X569135D01*
X539610Y407690D02*
X569094D01*
X560898Y416194D02*
X569023D01*
X567570Y472887D02*
X568857D01*
X561066Y411942D02*
X568855D01*
X566465Y445958D02*
X568574D01*
X566862Y454462D02*
X568548D01*
X550579Y449501D02*
X568515D01*
X566525Y430367D02*
X568514D01*
X561426Y415485D02*
X568495D01*
X561518Y412651D02*
X568403D01*
X566247Y488477D02*
X568399D01*
X549511Y526036D02*
X568378D01*
X522638Y477847D02*
X568276D01*
X561708Y414777D02*
X568214D01*
X566862Y425407D02*
X568178D01*
X561750Y413359D02*
X568171D01*
X538746Y518241D02*
X568140D01*
X566905Y440997D02*
X568135D01*
X561810Y414068D02*
X568112D01*
X567076Y473595D02*
X568035D01*
X564582Y466509D02*
X567929D01*
X566723Y493438D02*
X567923D01*
X566271Y453753D02*
X567877D01*
X551235Y450210D02*
X567860D01*
X567243Y445249D02*
X567796D01*
X567274Y429658D02*
X567766D01*
X560534Y477139D02*
X567730D01*
X567036Y489186D02*
X567610D01*
X566110Y474304D02*
X567597D01*
X549058Y525328D02*
X567591D01*
X566027Y460840D02*
X567547D01*
X564927Y453044D02*
X567512D01*
X551591Y450918D02*
X567503D01*
X561229Y476430D02*
X567437D01*
X538770Y518950D02*
X567436D01*
X561785Y475013D02*
X567376D01*
X551750Y452336D02*
X567344D01*
X551753Y451627D02*
X567341D01*
X561607Y475721D02*
X567326D01*
X548201Y524619D02*
X567064D01*
X545177Y519658D02*
X566957D01*
X566196Y465800D02*
X566858D01*
X546487Y523910D02*
X566705D01*
X546071Y520367D02*
X566634D01*
X546757Y523202D02*
X566476D01*
X546539Y521076D02*
X566435D01*
X546850Y522493D02*
X566359D01*
X546781Y521784D02*
X566346D01*
X561544Y399895D02*
X564992D01*
X562322Y399186D02*
X564027D01*
X507144Y424698D02*
X564010D01*
X557592Y440288D02*
X563865D01*
X525872Y466509D02*
X563765D01*
X522638Y494147D02*
X563623D01*
X562741Y398477D02*
X563532D01*
X551582Y453044D02*
X563419D01*
X561797Y474304D02*
X563418D01*
X526958Y468635D02*
X563365D01*
X562948Y397769D02*
X563273D01*
X558394Y445958D02*
X563062D01*
X512814Y430367D02*
X563003D01*
X522638Y488477D02*
X562887D01*
X507853Y425407D02*
X562666D01*
X558834Y440997D02*
X562623D01*
X561644Y473595D02*
X562452D01*
X526937Y469344D02*
X562428D01*
X522638Y458714D02*
X562412D01*
X522638Y493438D02*
X562411D01*
X522638Y460840D02*
X562319D01*
X559173Y445249D02*
X562284D01*
X512105Y429658D02*
X562254D01*
X524390Y465800D02*
X562151D01*
X522638Y489186D02*
X562098D01*
X551217Y453753D02*
X562075D01*
X508562Y426115D02*
X562075D01*
X559405Y441706D02*
X562052D01*
X561300Y472887D02*
X561958D01*
X526749Y470052D02*
X561945D01*
X559591Y444540D02*
X561866D01*
X511396Y428950D02*
X561849D01*
X522638Y492729D02*
X561847D01*
X509270Y426824D02*
X561755D01*
X559713Y442414D02*
X561743D01*
X560667Y472178D02*
X561698D01*
X526358Y470761D02*
X561692D01*
X522638Y489895D02*
X561675D01*
X522638Y458005D02*
X561663D01*
X559799Y443832D02*
X561658D01*
X510688Y428241D02*
X561652D01*
X509979Y427533D02*
X561622D01*
X559837Y443123D02*
X561620D01*
X522638Y461548D02*
X561615D01*
X558945Y471470D02*
X561614D01*
X522638Y492021D02*
X561542D01*
X522638Y465092D02*
X561525D01*
X550547Y454462D02*
X561485D01*
X522638Y490603D02*
X561464D01*
X522638Y491312D02*
X561422D01*
X522638Y457296D02*
X561259D01*
X522638Y462257D02*
X561233D01*
X522638Y464383D02*
X561186D01*
X522638Y455170D02*
X561165D01*
X522638Y456588D02*
X561061D01*
X522638Y462966D02*
X561052D01*
X522638Y463674D02*
X561037D01*
X522638Y455879D02*
X561032D01*
X522638Y500525D02*
X560382D01*
X544861Y418320D02*
X560149D01*
X550378Y487769D02*
X559859D01*
X550760Y482099D02*
X559476D01*
X513522Y431076D02*
X559411D01*
X522638Y494855D02*
X559225D01*
X522638Y499816D02*
X558955D01*
X520403Y436745D02*
X558795D01*
X551449Y487060D02*
X558787D01*
X551617Y482808D02*
X558619D01*
X506436Y423989D02*
X558560D01*
X522638Y495564D02*
X558494D01*
X545158Y419029D02*
X558427D01*
X525637Y471470D02*
X558377D01*
X522638Y499107D02*
X558351D01*
X551977Y486351D02*
X558259D01*
X514231Y431784D02*
X558250D01*
X552070Y483517D02*
X558167D01*
X502565Y399895D02*
X558141D01*
X522638Y496273D02*
X558099D01*
X522638Y498399D02*
X558023D01*
X520161Y436036D02*
X557985D01*
X552259Y485643D02*
X557977D01*
X552301Y484225D02*
X557935D01*
X522638Y496981D02*
X557908D01*
X522638Y497690D02*
X557884D01*
X552361Y484934D02*
X557875D01*
X505727Y423281D02*
X557865D01*
X545272Y419737D02*
X557794D01*
X514940Y432493D02*
X557698D01*
X519693Y435328D02*
X557552D01*
X543368Y416903D02*
X557496D01*
X543764Y422572D02*
X557487D01*
X545225Y420446D02*
X557450D01*
X515648Y433202D02*
X557401D01*
X503213Y399186D02*
X557363D01*
X518799Y434619D02*
X557334D01*
X544574Y421863D02*
X557310D01*
X545007Y421155D02*
X557298D01*
X516357Y433910D02*
X557287D01*
X545799Y411233D02*
X557114D01*
X503565Y398477D02*
X556944D01*
X522638Y512572D02*
X556875D01*
X503546Y396351D02*
X556822D01*
X522638Y477139D02*
X556789D01*
X503723Y397769D02*
X556737D01*
X503717Y397060D02*
X556698D01*
X522638Y472178D02*
X556655D01*
X545462Y416194D02*
X556425D01*
X546389Y411942D02*
X556257D01*
X522638Y476430D02*
X556094D01*
X522638Y472887D02*
X556023D01*
X546211Y415485D02*
X555897D01*
X546709Y412651D02*
X555804D01*
X553975Y440288D02*
X555794D01*
X522638Y475721D02*
X555716D01*
X522638Y473595D02*
X555678D01*
X546615Y414777D02*
X555615D01*
X546842Y413359D02*
X555573D01*
X522638Y475013D02*
X555538D01*
X522638Y474304D02*
X555526D01*
X546813Y414068D02*
X555513D01*
X522638Y511863D02*
X555261D01*
X522638Y501942D02*
X555217D01*
X522638Y445958D02*
X554992D01*
X522638Y511155D02*
X554636D01*
X522638Y502651D02*
X554322D01*
X522638Y510446D02*
X554296D01*
X553841Y445249D02*
X554213D01*
X553134Y509029D02*
X554162D01*
X522638Y509737D02*
X554147D01*
X553516Y503359D02*
X553855D01*
X522026Y439580D02*
X551684D01*
X522638Y509029D02*
X550803D01*
X522638Y503359D02*
X550421D01*
X522638Y445249D02*
X550096D01*
X522638Y440288D02*
X549962D01*
X522638Y508320D02*
X549732D01*
X522638Y504068D02*
X549564D01*
X522638Y444540D02*
X549401D01*
X522638Y440997D02*
X549330D01*
X522638Y507611D02*
X549204D01*
X522638Y504777D02*
X549111D01*
X522638Y443832D02*
X549023D01*
X522638Y441706D02*
X548985D01*
X522638Y506903D02*
X548922D01*
X522638Y505485D02*
X548880D01*
X522638Y443123D02*
X548845D01*
X522638Y442414D02*
X548833D01*
X522638Y506194D02*
X548820D01*
X522638Y487769D02*
X548047D01*
X544398Y482099D02*
X547665D01*
X542873Y487060D02*
X546976D01*
X544821Y482808D02*
X546808D01*
X544085Y486351D02*
X546448D01*
X545032Y483517D02*
X546356D01*
X544649Y485643D02*
X546166D01*
X545074Y484225D02*
X546124D01*
X544954Y484934D02*
X546064D01*
X538679Y530288D02*
X545488D01*
X540789Y536666D02*
X544442D01*
X537645Y529580D02*
X544417D01*
X522638Y528871D02*
X543889D01*
X522638Y526036D02*
X543797D01*
X522638Y528162D02*
X543607D01*
X522638Y526745D02*
X543565D01*
X522638Y527454D02*
X543505D01*
X541610Y537375D02*
X543408D01*
X540518Y410525D02*
X542947D01*
X542048Y538084D02*
X542891D01*
X536964Y454462D02*
X542760D01*
X536997Y449501D02*
X542728D01*
X542269Y538792D02*
X542616D01*
X541023Y525328D02*
X542441D01*
X541240Y519658D02*
X542225D01*
X537635Y453753D02*
X542090D01*
X537652Y450210D02*
X542072D01*
X538000Y453044D02*
X541725D01*
X538009Y450918D02*
X541716D01*
X538168Y452336D02*
X541557D01*
X538170Y451627D02*
X541554D01*
X538936Y487060D02*
X540985D01*
X539827Y422572D02*
X540488D01*
X539672Y481391D02*
X540249D01*
X522638Y525328D02*
X538504D01*
X528708Y416194D02*
X538003D01*
X522638Y536666D02*
X537558D01*
X525834Y524619D02*
X537489D01*
X528729Y415485D02*
X537254D01*
X529565Y416903D02*
X537167D01*
X529093Y487060D02*
X537048D01*
X523485Y411942D02*
X537040D01*
X526555Y523910D02*
X536978D01*
X522693Y541627D02*
X536857D01*
X528587Y414777D02*
X536849D01*
X526162Y412651D02*
X536755D01*
X522638Y537375D02*
X536736D01*
X526946Y523202D02*
X536707D01*
X528255Y414068D02*
X536652D01*
X527643Y413359D02*
X536622D01*
X536271Y521784D02*
X536619D01*
X527134Y522493D02*
X536615D01*
X530182Y422572D02*
X536551D01*
X522638Y540918D02*
X536430D01*
X529829Y481391D02*
X536312D01*
X522638Y538084D02*
X536298D01*
X522638Y540210D02*
X536138D01*
X522638Y538792D02*
X536077D01*
X523169Y405564D02*
X536043D01*
X522638Y539501D02*
X536026D01*
X530726Y417611D02*
X536006D01*
X530305Y486351D02*
X535836D01*
X530992Y421863D02*
X535741D01*
X530619Y482099D02*
X535523D01*
X531278Y418320D02*
X535454D01*
X531424Y421155D02*
X535308D01*
X530870Y485643D02*
X535272D01*
X522638Y529580D02*
X535190D01*
X531575Y419029D02*
X535157D01*
X531042Y482808D02*
X535100D01*
X531642Y420446D02*
X535090D01*
X531690Y419737D02*
X535043D01*
X527154Y521784D02*
X534989D01*
X531174Y484934D02*
X534968D01*
X522638Y535249D02*
X534916D01*
X531253Y483517D02*
X534889D01*
X531295Y484225D02*
X534847D01*
X523615Y411233D02*
X534796D01*
X523381Y406273D02*
X534561D01*
X522638Y530288D02*
X534156D01*
X523582Y410525D02*
X534075D01*
X522638Y534540D02*
X534035D01*
X523582Y406981D02*
X533950D01*
X522638Y516115D02*
X533831D01*
X523381Y409816D02*
X533684D01*
X522638Y530997D02*
X533639D01*
X523615Y407690D02*
X533618D01*
X522638Y533832D02*
X533572D01*
X527012Y521076D02*
X533561D01*
X523169Y409107D02*
X533496D01*
X523485Y408399D02*
X533476D01*
X522638Y531706D02*
X533364D01*
X522638Y533123D02*
X533334D01*
X522638Y532414D02*
X533268D01*
X522638Y516824D02*
X533101D01*
X526680Y520367D02*
X532957D01*
X522638Y517533D02*
X532705D01*
X526069Y519658D02*
X532629D01*
X522638Y518241D02*
X532514D01*
X524587Y518950D02*
X532490D01*
X522638Y454462D02*
X529178D01*
X522638Y449501D02*
X529145D01*
X522638Y453753D02*
X528507D01*
X522638Y450210D02*
X528490D01*
X522638Y453044D02*
X528142D01*
X522638Y450918D02*
X528133D01*
X522638Y452336D02*
X527974D01*
X522638Y451627D02*
X527971D01*
X525156Y487060D02*
X527206D01*
X526245Y422572D02*
X526905D01*
X525892Y481391D02*
X526470D01*
X523169Y412651D02*
X525019D01*
X522585Y413359D02*
X523538D01*
X522638Y518950D02*
X523445D01*
X522638Y487060D02*
X523269D01*
X522645Y465800D02*
X523248D01*
X505018Y422572D02*
X522968D01*
X521280Y414068D02*
X522926D01*
X509201Y416903D02*
X522660D01*
X508837Y414777D02*
X522594D01*
X509249Y416194D02*
X522473D01*
X509134Y415485D02*
X522452D01*
X508983Y417611D02*
X522424D01*
X504310Y421863D02*
X522158D01*
X508551Y418320D02*
X521871D01*
X503601Y421155D02*
X521725D01*
X507741Y419029D02*
X521574D01*
X502892Y420446D02*
X521508D01*
X502184Y419737D02*
X521460D01*
X508536Y414068D02*
X519665D01*
X502134Y401312D02*
X518732D01*
X508657Y413359D02*
X518359D01*
X502893Y402021D02*
X517973D01*
X509306Y412651D02*
X517776D01*
X510224Y409107D02*
X517776D01*
X503091Y405564D02*
X517776D01*
X510405Y409816D02*
X517564D01*
X502507Y406273D02*
X517564D01*
X503303Y402729D02*
X517564D01*
X509931Y411942D02*
X517460D01*
X509841Y408399D02*
X517460D01*
X503406Y404855D02*
X517460D01*
X510420Y410525D02*
X517363D01*
X501201Y406981D02*
X517363D01*
X503504Y403438D02*
X517363D01*
X510271Y411233D02*
X517330D01*
X509137Y407690D02*
X517330D01*
X503536Y404147D02*
X517330D01*
X502163Y419029D02*
X504464D01*
X502112Y418320D02*
X503654D01*
X501891Y417611D02*
X503221D01*
X497932Y415485D02*
X503071D01*
X501453Y416903D02*
X503004D01*
X500631Y416194D02*
X502956D01*
X497223Y414777D02*
X502792D01*
X496514Y414068D02*
X502487D01*
X495806Y413359D02*
X502367D01*
X462095Y407690D02*
X502083D01*
X495097Y412651D02*
X501914D01*
X463817Y408399D02*
X501379D01*
X494388Y411942D02*
X501289D01*
X464450Y409107D02*
X500997D01*
X493680Y411233D02*
X500949D01*
X464794Y409816D02*
X500816D01*
X464946Y410525D02*
X500801D01*
X441339Y406981D02*
X499586D01*
X441339Y406273D02*
X498281D01*
X441339Y405564D02*
X495483D01*
X480940Y400603D02*
X494876D01*
X441339Y404855D02*
X494734D01*
X480601Y401312D02*
X494556D01*
X441339Y404147D02*
X494330D01*
X479975Y402021D02*
X494236D01*
X455861Y403438D02*
X494132D01*
X478361Y402729D02*
X494102D01*
X481089Y399895D02*
X493104D01*
X481074Y399186D02*
X492457D01*
X458852Y396351D02*
X492124D01*
X480893Y398477D02*
X492105D01*
X479807Y397060D02*
X491952D01*
X480511Y397769D02*
X491946D01*
X457354Y402729D02*
X477544D01*
X459167Y397060D02*
X476099D01*
X458160Y402021D02*
X475930D01*
X459360Y397769D02*
X475395D01*
X458699Y401312D02*
X475305D01*
X459444Y398477D02*
X475012D01*
X459066Y400603D02*
X474965D01*
X459425Y399186D02*
X474831D01*
X459302Y399895D02*
X474816D01*
X441339Y407690D02*
X461527D01*
X441339Y408399D02*
X459805D01*
X441339Y409107D02*
X459172D01*
X441339Y409816D02*
X458828D01*
X446592Y410525D02*
X458676D01*
X441339Y403438D02*
X453194D01*
X441339Y402729D02*
X451701D01*
X441339Y402021D02*
X450895D01*
X441339Y401312D02*
X450356D01*
X441339Y396351D02*
X450203D01*
X441339Y400603D02*
X449989D01*
X441339Y397060D02*
X449888D01*
X441339Y399895D02*
X449753D01*
X441339Y397769D02*
X449695D01*
X441339Y399186D02*
X449630D01*
X441339Y398477D02*
X449611D01*
X441393Y410525D02*
X443959D01*
G54D13*
X588701Y538701D03*
Y528701D03*
X571260Y531890D03*
X398701Y528701D03*
G54D21*
X488583Y396850D03*
X437402Y428740D03*
X443110Y397638D03*
X462402Y399606D03*
X423622Y464567D03*
X426772Y441929D03*
X501772Y470276D03*
X503740Y490551D03*
X504331Y507087D03*
X501378Y462402D03*
X470079Y464764D03*
X532874Y508661D03*
Y440945D03*
X528543Y442717D03*
X524213Y445276D03*
X537205Y506102D03*
X524213Y440945D03*
X532874Y445276D03*
X537205Y442717D03*
X524213Y504331D03*
X541535Y445276D03*
X528543Y506102D03*
X541535Y508661D03*
X532874Y504331D03*
X530906Y477165D03*
X535236Y474606D03*
X539567Y472835D03*
X530906D03*
X548228Y477165D03*
X543898Y474606D03*
X539567Y477165D03*
X524213Y508661D03*
X423031Y534646D03*
X465354Y523031D03*
X502756Y523819D03*
X517323Y521260D03*
G54D42*
G74*
X0Y0D02*
M02*
