*
*
G04 PADS VX.2.4 Build Number: 12858991 generated Gerber (RS-274-X) file*
G04 PC Version=2.1*
*
%IN "TMC4671+TMC6200-BOB_V10"*%
*
%MOIN*%
*
%FSLAX35Y35*%
*
*
*
*
G04 PC Standard Apertures*
*
*
G04 Thermal Relief Aperture macro.*
%AMTER*
1,1,$1,0,0*
1,0,$1-$2,0,0*
21,0,$3,$4,0,0,45*
21,0,$3,$4,0,0,135*
%
*
*
G04 Annular Aperture macro.*
%AMANN*
1,1,$1,0,0*
1,0,$2,0,0*
%
*
*
G04 Odd Aperture macro.*
%AMODD*
1,1,$1,0,0*
1,0,$1-0.005,0,0*
%
*
*
G04 PC Custom Aperture Macros*
*
*
*
*
*
*
G04 PC Aperture Table*
*
%ADD011C,0.00787*%
%ADD017C,0.00394*%
%ADD029C,0.00591*%
%ADD042C,0.001*%
*
*
*
*
G04 PC Circuitry*
G04 Layer Name TMC4671+TMC6200-BOB_V10 - circuitry*
%LPD*%
*
*
G04 PC Custom Flashes*
G04 Layer Name TMC4671+TMC6200-BOB_V10 - flashes*
%LPD*%
*
*
G04 PC Circuitry*
G04 Layer Name TMC4671+TMC6200-BOB_V10 - circuitry*
%LPD*%
*
G54D11*
G01X393701Y398701D02*
G75*
G03X398701Y393701I5000J-0D01*
G01X588701*
G03X593701Y398701I-0J5000*
G01Y538701*
G03X588701Y543701I-5000J-0*
G01X398701*
G03X393701Y538701I-0J-5000*
G01Y398701*
G54D17*
X403819Y463701D02*
Y513701D01*
X393583*
Y463701*
X403819*
X593819Y393622D02*
Y433780D01*
X583583*
Y393622*
X593819*
Y433661D02*
Y503740D01*
X583583*
Y433661*
X593819*
Y503622D02*
Y543780D01*
X583583*
Y503622*
X593819*
X403819Y513740D02*
Y543661D01*
X393583*
Y513740*
X403819*
Y393661D02*
Y463740D01*
X393583*
Y393661*
X403819*
G54D29*
X400269Y484178D02*
X397317D01*
X396763Y484043*
X396578Y483909*
X396394Y483641*
Y483372*
X396578Y483104*
X396763Y482970*
X397317Y482836*
X397686*
X399347Y485520D02*
X399531D01*
X399900Y485654*
X400085Y485788*
X400269Y486057*
Y486594*
X400085Y486862*
X399900Y486996*
X399531Y487130*
X399162*
X398793Y486996*
X398239Y486728*
X396394Y485386*
Y487265*
X400269Y489278D02*
X400085Y488875D01*
X399531Y488607*
X398609Y488473*
X398055*
X397132Y488607*
X396578Y488875*
X396394Y489278*
Y489546*
X396578Y489949*
X397132Y490217*
X398055Y490352*
X398609*
X399531Y490217*
X400085Y489949*
X400269Y489546*
Y489278*
X399347Y491694D02*
X399531D01*
X399900Y491828*
X400085Y491962*
X400269Y492231*
Y492768*
X400085Y493036*
X399900Y493170*
X399531Y493304*
X399162*
X398793Y493170*
X398239Y492902*
X396394Y491560*
Y493439*
X590269Y409245D02*
X587317D01*
X586763Y409111*
X586578Y408976*
X586394Y408708*
Y408440*
X586578Y408171*
X586763Y408037*
X587317Y407903*
X587686*
X589347Y410587D02*
X589531D01*
X589900Y410721*
X590085Y410855*
X590269Y411124*
Y411661*
X590085Y411929*
X589900Y412063*
X589531Y412198*
X589162*
X588793Y412063*
X588239Y411795*
X586394Y410453*
Y412332*
X590269Y414345D02*
X590085Y413942D01*
X589531Y413674*
X588609Y413540*
X588055*
X587132Y413674*
X586578Y413942*
X586394Y414345*
Y414613*
X586578Y415016*
X587132Y415285*
X588055Y415419*
X588609*
X589531Y415285*
X590085Y415016*
X590269Y414613*
Y414345*
X589716Y418237D02*
X590085Y418103D01*
X590269Y417700*
Y417432*
X590085Y417029*
X589531Y416761*
X588609Y416627*
X587686*
X586948Y416761*
X586578Y417029*
X586394Y417432*
Y417566*
X586578Y417969*
X586948Y418237*
X587501Y418372*
X587686*
X588239Y418237*
X588609Y417969*
X588793Y417566*
Y417432*
X588609Y417029*
X588239Y416761*
X587686Y416627*
X590269Y464111D02*
X587317D01*
X586763Y463976*
X586578Y463842*
X586394Y463574*
Y463305*
X586578Y463037*
X586763Y462903*
X587317Y462768*
X587686*
X589347Y465453D02*
X589531D01*
X589900Y465587*
X590085Y465721*
X590269Y465990*
Y466526*
X590085Y466795*
X589900Y466929*
X589531Y467063*
X589162*
X588793Y466929*
X588239Y466661*
X586394Y465319*
Y467198*
X590269Y469211D02*
X590085Y468808D01*
X589531Y468540*
X588609Y468406*
X588055*
X587132Y468540*
X586578Y468808*
X586394Y469211*
Y469479*
X586578Y469882*
X587132Y470150*
X588055Y470285*
X588609*
X589531Y470150*
X590085Y469882*
X590269Y469479*
Y469211*
Y473237D02*
Y471895D01*
X588609Y471761*
X588793Y471895*
X588978Y472298*
Y472700*
X588793Y473103*
X588424Y473372*
X587870Y473506*
X587501Y473372*
X586948Y473237*
X586578Y472969*
X586394Y472566*
Y472164*
X586578Y471761*
X586763Y471627*
X587132Y471492*
X590269Y519111D02*
X587317D01*
X586763Y518976*
X586578Y518842*
X586394Y518574*
Y518305*
X586578Y518037*
X586763Y517903*
X587317Y517768*
X587686*
X589347Y520453D02*
X589531D01*
X589900Y520587*
X590085Y520721*
X590269Y520990*
Y521526*
X590085Y521795*
X589900Y521929*
X589531Y522063*
X589162*
X588793Y521929*
X588239Y521661*
X586394Y520319*
Y522198*
X590269Y524211D02*
X590085Y523808D01*
X589531Y523540*
X588609Y523406*
X588055*
X587132Y523540*
X586578Y523808*
X586394Y524211*
Y524479*
X586578Y524882*
X587132Y525150*
X588055Y525285*
X588609*
X589531Y525150*
X590085Y524882*
X590269Y524479*
Y524211*
Y527835D02*
X587686Y526492D01*
Y528506*
X590269Y527835D02*
X586394D01*
X400269Y524782D02*
X397317D01*
X396763Y524647*
X396578Y524513*
X396394Y524245*
Y523976*
X396578Y523708*
X396763Y523574*
X397317Y523440*
X397686*
X399347Y526124D02*
X399531D01*
X399900Y526258*
X400085Y526392*
X400269Y526661*
Y527198*
X400085Y527466*
X399900Y527600*
X399531Y527734*
X399162*
X398793Y527600*
X398239Y527332*
X396394Y525990*
Y527869*
X400269Y529882D02*
X400085Y529479D01*
X399531Y529211*
X398609Y529077*
X398055*
X397132Y529211*
X396578Y529479*
X396394Y529882*
Y530150*
X396578Y530553*
X397132Y530821*
X398055Y530956*
X398609*
X399531Y530821*
X400085Y530553*
X400269Y530150*
Y529882*
X399531Y532164D02*
X399716Y532432D01*
X400269Y532835*
X396394*
X400269Y424178D02*
X397317D01*
X396763Y424043*
X396578Y423909*
X396394Y423641*
Y423372*
X396578Y423104*
X396763Y422970*
X397317Y422836*
X397686*
X399347Y425520D02*
X399531D01*
X399900Y425654*
X400085Y425788*
X400269Y426057*
Y426594*
X400085Y426862*
X399900Y426996*
X399531Y427130*
X399162*
X398793Y426996*
X398239Y426728*
X396394Y425386*
Y427265*
X400269Y429278D02*
X400085Y428875D01*
X399531Y428607*
X398609Y428473*
X398055*
X397132Y428607*
X396578Y428875*
X396394Y429278*
Y429546*
X396578Y429949*
X397132Y430217*
X398055Y430352*
X398609*
X399531Y430217*
X400085Y429949*
X400269Y429546*
Y429278*
Y431828D02*
Y433304D01*
X398793Y432499*
Y432902*
X398609Y433170*
X398424Y433304*
X397870Y433439*
X397501*
X396948Y433304*
X396578Y433036*
X396394Y432633*
Y432231*
X396578Y431828*
X396763Y431694*
X397132Y431560*
G54D42*
G74*
X0Y0D02*
M02*
