*
*
G04 PADS VX.2.4 Build Number: 12858991 generated Gerber (RS-274-X) file*
G04 PC Version=2.1*
*
%IN "TMC4671+TMC6200-BOB_V10"*%
*
%MOIN*%
*
%FSLAX35Y35*%
*
*
*
*
G04 PC Standard Apertures*
*
*
G04 Thermal Relief Aperture macro.*
%AMTER*
1,1,$1,0,0*
1,0,$1-$2,0,0*
21,0,$3,$4,0,0,45*
21,0,$3,$4,0,0,135*
%
*
*
G04 Annular Aperture macro.*
%AMANN*
1,1,$1,0,0*
1,0,$2,0,0*
%
*
*
G04 Odd Aperture macro.*
%AMODD*
1,1,$1,0,0*
1,0,$1-0.005,0,0*
%
*
*
G04 PC Custom Aperture Macros*
*
*
*
*
*
*
G04 PC Aperture Table*
*
%ADD011C,0.00787*%
%ADD013C,0.05906*%
%ADD020C,0.01181*%
%ADD021C,0.02362*%
%ADD042C,0.001*%
*
*
*
*
G04 PC Circuitry*
G04 Layer Name TMC4671+TMC6200-BOB_V10 - circuitry*
%LPD*%
*
*
G04 PC Custom Flashes*
G04 Layer Name TMC4671+TMC6200-BOB_V10 - flashes*
%LPD*%
*
*
G04 PC Circuitry*
G04 Layer Name TMC4671+TMC6200-BOB_V10 - circuitry*
%LPD*%
*
G54D11*
G01X572181Y406892D02*
G75*
G03X571103Y406536I-185J-1250D01*
G01X572181Y406892D02*
X571459Y407614D01*
X571103Y406536D02*
G03X571459Y407614I-894J893D01*
G01X571468Y407323D02*
X571750D01*
X571103Y406536D02*
X571103D01*
X571890Y406901D02*
Y407183D01*
X497951Y479518D02*
G03X497441Y478504I754J-1014D01*
G01X497951Y479518D02*
X496931D01*
X497441Y478504D02*
G03X496931Y479518I-1264J-0D01*
G01X497166Y479291D02*
X497716D01*
X497441Y478504D02*
Y479518D01*
X507794Y409636D02*
G03X507283Y408622I753J-1014D01*
G01X507794Y409636D02*
X506773D01*
X507283Y408622D02*
G03X506773Y409636I-1263J0D01*
G01X507008Y409409D02*
X507559D01*
X507283Y408622D02*
Y409636D01*
X499609Y404000D02*
G03X499252Y405078I-1250J185D01*
G01X499609Y404000D02*
X500330Y404722D01*
X499252Y405078D02*
G03X500330Y404722I894J894D01*
G01X499252Y405078D02*
X499252D01*
X499618Y404291D02*
X499899D01*
X499252Y405078D02*
X499252D01*
X500040Y404431D02*
Y404713D01*
X496459Y403016D02*
G03X496103Y404094I-1250J185D01*
G01X496459Y403016D02*
X497181Y403738D01*
X496103Y404094D02*
G03X497181Y403738I893J894D01*
G01X496103Y404094D02*
X496103D01*
X496468Y403307D02*
X496750D01*
X496103Y404094D02*
X496103D01*
X496890Y403447D02*
Y403729D01*
X435836Y417833D02*
G03X436850Y417323I1014J753D01*
G01X435836Y417833D02*
Y416813D01*
X436850Y417323D02*
G03X435836Y416813I0J-1264D01*
G01Y417323D02*
X436850D01*
X436063Y417047D02*
Y417598D01*
X451691Y509243D02*
G03X451181Y508228I754J-1015D01*
G01X451691Y509243D02*
X450671D01*
X451181Y508228D02*
G03X450671Y509243I-1263J0D01*
G01X450906Y509016D02*
X451456D01*
X451181Y508228D02*
Y509243D01*
X504053Y482668D02*
G03X503543Y481654I754J-1014D01*
G01X504053Y482668D02*
X503033D01*
X503543Y481654D02*
G03X503033Y482668I-1263J-0D01*
G01X503268Y482441D02*
X503819D01*
X503543Y481654D02*
Y482668D01*
X505503Y415828D02*
G03X504488Y416339I-1015J-753D01*
G01X505503Y415828D02*
Y416849D01*
X504488Y416339D02*
G03X505503Y416849I0J1263D01*
G01X504488Y416339D02*
X505503D01*
X504488D02*
X504488D01*
X505276Y416063D02*
Y416614D01*
X500707Y481487D02*
G03X500197Y480472I753J-1015D01*
G01X500707Y481487D02*
X499687D01*
X500197Y480472D02*
G03X499687Y481487I-1264J0D01*
G01X499922Y481260D02*
X500472D01*
X500197Y480472D02*
Y481487D01*
X503874Y409451D02*
G03X502796Y409095I-185J-1250D01*
G01X503874Y409451D02*
X503152Y410173D01*
X502796Y409095D02*
G03X503152Y410173I-894J893D01*
G01X503161Y409882D02*
X503443D01*
X502796Y409095D02*
X502796D01*
X503583Y409460D02*
Y409742D01*
X452085Y479912D02*
G03X451575Y478898I753J-1014D01*
G01X452085Y479912D02*
X451065D01*
X451575Y478898D02*
G03X451065Y479912I-1264J-0D01*
G01X451299Y479685D02*
X451850D01*
X451575Y478898D02*
Y479912D01*
X461026Y410890D02*
G03X460670Y411968I-1250J185D01*
G01X461026Y410890D02*
X461748Y411612D01*
X460670Y411968D02*
G03X461748Y411612I893J894D01*
G01X460670Y411968D02*
X460670D01*
X461035Y411181D02*
X461317D01*
X460670Y411968D02*
X460670D01*
X461457Y411321D02*
Y411603D01*
X491599Y421257D02*
G03X492677Y421614I184J1250D01*
G01X491599Y421257D02*
X492320Y420536D01*
X492677Y421614D02*
G03X492320Y420536I893J-894D01*
G01X492677Y421614D02*
X492677D01*
X492030Y420826D02*
X492311D01*
X491889Y420967D02*
Y421248D01*
X517259Y436617D02*
G03X516181Y436260I-184J-1250D01*
G01X517259Y436617D02*
X516538Y437338D01*
X516181Y436260D02*
G03X516538Y437338I-893J894D01*
G01X516547Y437048D02*
X516829D01*
X516181Y436260D02*
X516181D01*
X516969Y436626D02*
Y436907D01*
X491402Y433462D02*
G03X492480Y433819I184J1250D01*
G01X491402Y433462D02*
X492123Y432741D01*
X492480Y433819D02*
G03X492123Y432741I893J-894D01*
G01X492480Y433819D02*
X492480D01*
X491833Y433031D02*
X492114D01*
X491693Y433171D02*
Y433453D01*
X524329Y468298D02*
G03X523819Y467283I753J-1015D01*
G01X524329Y468298D02*
X523309D01*
X523819Y467283D02*
G03X523309Y468298I-1264J0D01*
G01X523544Y468071D02*
X524094D01*
X523819Y467283D02*
Y468298D01*
X450063Y420470D02*
G03X451141Y420826I185J1250D01*
G01X450063Y420470D02*
X450785Y419748D01*
X451141Y420826D02*
G03X450785Y419748I894J-893D01*
G01X451141Y420826D02*
X451141D01*
X450494Y420039D02*
X450776D01*
X450354Y420179D02*
Y420461D01*
X485436Y462071D02*
G03X485079Y463149I-1250J185D01*
G01X485436Y462071D02*
X486157Y462793D01*
X485079Y463149D02*
G03X486157Y462793I894J894D01*
G01X485079Y463149D02*
X485079D01*
X485445Y462362D02*
X485726D01*
X485079Y463149D02*
X485079D01*
X485866Y462502D02*
Y462784D01*
X446860Y422754D02*
G03X447874Y422244I1014J754D01*
G01X446860Y422754D02*
Y421734D01*
X447874Y422244D02*
G03X446860Y421734I0J-1263D01*
G01Y422244D02*
X447874D01*
X447087Y421969D02*
Y422519D01*
X485960Y465160D02*
G03X484882Y464803I-184J-1250D01*
G01X485960Y465160D02*
X485239Y465882D01*
X484882Y464803D02*
G03X485239Y465881I-893J894D01*
G01X485248Y465591D02*
X485529D01*
X484882Y464803D02*
X484882D01*
X485670Y465169D02*
Y465451D01*
X448685Y425588D02*
G03X449763Y425945I185J1250D01*
G01X448685Y425588D02*
X449407Y424867D01*
X449763Y425945D02*
G03X449407Y424867I894J-894D01*
G01X449763Y425945D02*
X449763D01*
X449116Y425157D02*
X449398D01*
X448976Y425297D02*
Y425579D01*
X467653Y466538D02*
G03X466575Y466181I-184J-1250D01*
G01X467653Y466538D02*
X466932Y467259D01*
X466575Y466181D02*
G03X466932Y467259I-893J894D01*
G01X466941Y466969D02*
X467222D01*
X466575Y466181D02*
X466575D01*
X467363Y466547D02*
Y466829D01*
X445339Y426966D02*
G03X446417Y427322I185J1250D01*
G01X445339Y426966D02*
X446060Y426244D01*
X446417Y427322D02*
G03X446060Y426244I893J-893D01*
G01X446417Y427322D02*
X446417D01*
X445770Y426535D02*
X446051D01*
X445630Y426675D02*
Y426957D01*
X465077Y468101D02*
G03X464567Y467087I754J-1014D01*
G01X465077Y468101D02*
X464057D01*
X464567Y467087D02*
G03X464057Y468101I-1264J-0D01*
G01X464292Y467874D02*
X464842D01*
X464567Y467087D02*
Y468101D01*
X449884Y433277D02*
G03X450394Y434291I-754J1014D01*
G01X449884Y433277D02*
X450904D01*
X450394Y434291D02*
G03X450904Y433277I1263J0D01*
G01X450394Y434291D02*
X450394D01*
X450118Y433504D02*
X450669D01*
X450394Y433277D02*
Y434291D01*
X447111Y434053D02*
G03X448189Y434409I184J1250D01*
G01X447111Y434053D02*
X447832Y433331D01*
X448189Y434409D02*
G03X447832Y433331I893J-893D01*
G01X448189Y434409D02*
X448189D01*
X447541Y433622D02*
X447823D01*
X447401Y433762D02*
Y434043D01*
X438860Y433080D02*
G03X439370Y434094I-753J1014D01*
G01X438860Y433080D02*
X439880D01*
X439370Y434094D02*
G03X439880Y433080I1264J0D01*
G01X439370Y434094D02*
X439370D01*
X439095Y433307D02*
X439645D01*
X439370Y433080D02*
Y434094D01*
X474018Y521323D02*
G03X473662Y522401I-1250J185D01*
G01X474018Y521323D02*
X474740Y522045D01*
X473662Y522401D02*
G03X474740Y522045I893J894D01*
G01X473662Y522401D02*
X473662D01*
X474027Y521614D02*
X474309D01*
X473662Y522401D02*
X473662D01*
X474449Y521754D02*
Y522036D01*
X521257Y410960D02*
G03X521614Y409882I1250J-184D01*
G01X521257Y410960D02*
X520536Y410239D01*
X521614Y409882D02*
G03X520536Y410239I-894J-893D01*
G01X520967Y410670D02*
X521248D01*
X520826Y410248D02*
Y410529D01*
X520536Y404722D02*
G03X521614Y405078I184J1250D01*
G01X520536Y404722D02*
X521257Y404000D01*
X521614Y405078D02*
G03X521257Y404000I893J-893D01*
G01X521614Y405078D02*
X521614D01*
X520967Y404291D02*
X521248D01*
X520826Y404431D02*
Y404713D01*
X521072Y407990D02*
G03X522087Y407480I1015J754D01*
G01X521072Y407990D02*
Y406970D01*
X522087Y407480D02*
G03X521072Y406970I-0J-1263D01*
G01Y407480D02*
X522087D01*
X521299Y407205D02*
Y407756D01*
X582347Y415352D02*
G03X583425Y415708I184J1250D01*
G01X582347Y415352D02*
X583068Y414630D01*
X583425Y415708D02*
G03X583068Y414630I893J-893D01*
G01X583425Y415708D02*
X583425D01*
X582778Y414921D02*
X583059D01*
X582637Y415061D02*
Y415343D01*
X543637Y412798D02*
G03X542559Y412441I-184J-1250D01*
G01X543637Y412798D02*
X542916Y413519D01*
X542559Y412441D02*
G03X542916Y413519I-893J894D01*
G01X542925Y413229D02*
X543207D01*
X542559Y412441D02*
X542559D01*
X543347Y412807D02*
Y413088D01*
X565549Y427693D02*
G03X565905Y426615I1250J-185D01*
G01X565549Y427693D02*
X564827Y426971D01*
X565905Y426615D02*
G03X564827Y426971I-893J-894D01*
G01X565258Y427402D02*
X565540D01*
X565118Y426980D02*
Y427262D01*
X540549Y413519D02*
G03X540905Y412441I1250J-184D01*
G01X540549Y413519D02*
X539827Y412798D01*
X540905Y412441D02*
G03X539827Y412798I-893J-893D01*
G01X540258Y413229D02*
X540540D01*
X540118Y412807D02*
Y413088D01*
X570212Y426971D02*
G03X569134Y426615I-184J-1250D01*
G01X570212Y426971D02*
X569491Y427693D01*
X569134Y426615D02*
G03X569491Y427693I-893J893D01*
G01X569500Y427402D02*
X569781D01*
X569134Y426615D02*
X569134D01*
X569922Y426980D02*
Y427262D01*
X428874Y455908D02*
G03X427796Y455552I-185J-1250D01*
G01X428874Y455908D02*
X428152Y456630D01*
X427796Y455552D02*
G03X428152Y456630I-894J893D01*
G01X428161Y456339D02*
X428443D01*
X427796Y455552D02*
X427796D01*
X428583Y455917D02*
Y456199D01*
X423416Y438860D02*
G03X422402Y439370I-1014J-753D01*
G01X423416Y438860D02*
Y439880D01*
X422402Y439370D02*
G03X423416Y439880I-0J1264D01*
G01X422402Y439370D02*
X423416D01*
X422402D02*
X422402D01*
X423189Y439095D02*
Y439645D01*
X423112Y474025D02*
G03X423622Y475039I-754J1014D01*
G01X423112Y474025D02*
X424132D01*
X423622Y475039D02*
G03X424132Y474025I1264J0D01*
G01X423622Y475039D02*
X423622D01*
X423347Y474252D02*
X423897D01*
X423622Y474025D02*
Y475039D01*
X424937Y478743D02*
G03X423859Y478386I-185J-1250D01*
G01X424937Y478743D02*
X424215Y479464D01*
X423859Y478386D02*
G03X424215Y479464I-894J894D01*
G01X424224Y479174D02*
X424506D01*
X423859Y478386D02*
X423859D01*
X424646Y478752D02*
Y479033D01*
X423631Y449723D02*
G03X424646Y449213I1015J753D01*
G01X423631Y449723D02*
Y448702D01*
X424646Y449213D02*
G03X423631Y448702I-0J-1264D01*
G01Y449213D02*
X424646D01*
X423858Y448937D02*
Y449488D01*
X429912Y448702D02*
G03X428898Y449213I-1014J-753D01*
G01X429912Y448702D02*
Y449723D01*
X428898Y449213D02*
G03X429912Y449723I-0J1263D01*
G01X428898Y449213D02*
X429912D01*
X428898D02*
X428898D01*
X429685Y448937D02*
Y449488D01*
X424210Y488716D02*
G03X424567Y487638I1250J-184D01*
G01X424210Y488716D02*
X423489Y487995D01*
X424567Y487638D02*
G03X423489Y487995I-894J-893D01*
G01X423919Y488426D02*
X424201D01*
X423779Y488004D02*
Y488285D01*
X427639Y475797D02*
G03X428150Y476811I-753J1014D01*
G01X427639Y475797D02*
X428660D01*
X428150Y476811D02*
G03X428660Y475797I1263J0D01*
G01X428150Y476811D02*
X428150D01*
X427874Y476024D02*
X428425D01*
X428150Y475797D02*
Y476811D01*
X424222Y461534D02*
G03X425236Y461024I1014J753D01*
G01X424222Y461534D02*
Y460513D01*
X425236Y461024D02*
G03X424222Y460513I0J-1264D01*
G01Y461024D02*
X425236D01*
X424449Y460748D02*
Y461299D01*
X435513Y449419D02*
G03X436024Y450433I-753J1014D01*
G01X435513Y449419D02*
X436534D01*
X436024Y450433D02*
G03X436534Y449419I1263J0D01*
G01X436024Y450433D02*
X436024D01*
X435748Y449646D02*
X436299D01*
X436024Y449419D02*
Y450433D01*
X424210Y500921D02*
G03X424567Y499843I1250J-185D01*
G01X424210Y500921D02*
X423489Y500199D01*
X424567Y499843D02*
G03X423489Y500199I-894J-894D01*
G01X423919Y500630D02*
X424201D01*
X423779Y500208D02*
Y500490D01*
X435710Y468710D02*
G03X436220Y469724I-753J1014D01*
G01X435710Y468710D02*
X436731D01*
X436220Y469724D02*
G03X436731Y468710I1264J0D01*
G01X436220Y469724D02*
X436220D01*
X435945Y468937D02*
X436496D01*
X436220Y468710D02*
Y469724D01*
X418370Y435431D02*
G03X419448Y435787I185J1250D01*
G01X418370Y435431D02*
X419092Y434709D01*
X419448Y435787D02*
G03X419092Y434709I894J-893D01*
G01X419448Y435787D02*
X419448D01*
X418801Y435000D02*
X419083D01*
X418661Y435140D02*
Y435421D01*
X454858Y531105D02*
G03X453780Y530748I-185J-1250D01*
G01X454858Y531105D02*
X454136Y531826D01*
X453780Y530748D02*
G03X454136Y531826I-894J894D01*
G01X454145Y531536D02*
X454427D01*
X453780Y530748D02*
X453780D01*
X454567Y531114D02*
Y531396D01*
X430431Y510030D02*
G03X429921Y509016I754J-1014D01*
G01X430431Y510030D02*
X429411D01*
X429921Y509016D02*
G03X429411Y510030I-1263J-0D01*
G01X429646Y509803D02*
X430197D01*
X429921Y509016D02*
Y510030D01*
X438585Y488056D02*
G03X438229Y489134I-1250J184D01*
G01X438585Y488056D02*
X439307Y488777D01*
X438229Y489134D02*
G03X439307Y488777I893J893D01*
G01X438229Y489134D02*
X438229D01*
X438594Y488346D02*
X438876D01*
X438229Y489134D02*
X438229D01*
X439016Y488486D02*
Y488768D01*
X439827Y513186D02*
G03X440905Y513543I185J1250D01*
G01X439827Y513186D02*
X440549Y512465D01*
X440905Y513543D02*
G03X440549Y512465I894J-894D01*
G01X440905Y513543D02*
X440905D01*
X440258Y512756D02*
X440540D01*
X440118Y512896D02*
Y513177D01*
X507096Y510746D02*
G03X508110Y510236I1014J754D01*
G01X507096Y510746D02*
Y509726D01*
X508110Y510236D02*
G03X507096Y509726I0J-1263D01*
G01Y510236D02*
X508110D01*
X507323Y509961D02*
Y510512D01*
X452676Y495857D02*
G03X452165Y494843I753J-1014D01*
G01X452676Y495857D02*
X451655D01*
X452165Y494843D02*
G03X451655Y495857I-1263J-0D01*
G01X451890Y495630D02*
X452441D01*
X452165Y494843D02*
Y495857D01*
X451655Y492332D02*
G03X452165Y493346I-753J1014D01*
G01X451655Y492332D02*
X452676D01*
X452165Y493346D02*
G03X452676Y492332I1264J0D01*
G01X452165Y493346D02*
X452165D01*
X451890Y492559D02*
X452441D01*
X452165Y492332D02*
Y493346D01*
X452229Y497242D02*
G03X453307Y497598I184J1250D01*
G01X452229Y497242D02*
X452950Y496520D01*
X453307Y497598D02*
G03X452950Y496520I893J-893D01*
G01X453307Y497598D02*
X453307D01*
X452660Y496811D02*
X452941D01*
X452519Y496951D02*
Y497232D01*
X457023Y516144D02*
G03X455945Y515788I-184J-1250D01*
G01X457023Y516144D02*
X456302Y516866D01*
X455945Y515788D02*
G03X456302Y516866I-893J893D01*
G01X456311Y516575D02*
X456592D01*
X455945Y515788D02*
X455945D01*
X456733Y516153D02*
Y516435D01*
X465739Y474490D02*
G03X464724Y475000I-1015J-754D01*
G01X465739Y474490D02*
Y475510D01*
X464724Y475000D02*
G03X465739Y475510I0J1264D01*
G01X464724Y475000D02*
X465739D01*
X464724D02*
X464724D01*
X465512Y474725D02*
Y475275D01*
X464110Y471459D02*
G03X463032Y471103I-185J-1250D01*
G01X464110Y471459D02*
X463388Y472181D01*
X463032Y471103D02*
G03X463388Y472181I-894J893D01*
G01X463397Y471890D02*
X463679D01*
X463032Y471103D02*
X463032D01*
X463819Y471468D02*
Y471750D01*
X457490Y513502D02*
G03X458504Y512992I1014J754D01*
G01X457490Y513502D02*
Y512482D01*
X458504Y512992D02*
G03X457490Y512482I-0J-1263D01*
G01Y512992D02*
X458504D01*
X457717Y512717D02*
Y513267D01*
X490238Y445088D02*
G03X490748Y446102I-754J1014D01*
G01X490238Y445088D02*
X491258D01*
X490748Y446102D02*
G03X491258Y445088I1264J0D01*
G01X490748Y446102D02*
X490748D01*
X490473Y445315D02*
X491023D01*
X490748Y445088D02*
Y446102D01*
X517063Y499609D02*
G03X515985Y499252I-185J-1250D01*
G01X517063Y499609D02*
X516341Y500330D01*
X515985Y499252D02*
G03X516341Y500330I-894J894D01*
G01X516350Y500040D02*
X516632D01*
X515985Y499252D02*
X515985D01*
X516772Y499618D02*
Y499899D01*
X434136Y437608D02*
G03X434646Y438622I-754J1014D01*
G01X434136Y437608D02*
X435156D01*
X434646Y438622D02*
G03X435156Y437608I1263J0D01*
G01X434646Y438622D02*
X434646D01*
X434370Y437835D02*
X434921D01*
X434646Y437608D02*
Y438622D01*
X474018Y528410D02*
G03X473662Y529488I-1250J184D01*
G01X474018Y528410D02*
X474740Y529131D01*
X473662Y529488D02*
G03X474740Y529131I893J893D01*
G01X473662Y529488D02*
X473662D01*
X474027Y528700D02*
X474309D01*
X473662Y529488D02*
X473662D01*
X474449Y528841D02*
Y529122D01*
X436481Y434840D02*
G03X437559Y435197I184J1250D01*
G01X436481Y434840D02*
X437202Y434118D01*
X437559Y435197D02*
G03X437202Y434119I893J-894D01*
G01X437559Y435197D02*
X437559D01*
X436912Y434409D02*
X437193D01*
X436771Y434549D02*
Y434831D01*
X474018Y524867D02*
G03X473662Y525945I-1250J184D01*
G01X474018Y524867D02*
X474740Y525588D01*
X473662Y525945D02*
G03X474740Y525588I893J893D01*
G01X473662Y525945D02*
X473662D01*
X474027Y525157D02*
X474309D01*
X473662Y525945D02*
X473662D01*
X474449Y525297D02*
Y525579D01*
X452676Y491132D02*
G03X452165Y490118I753J-1014D01*
G01X452676Y491132D02*
X451655D01*
X452165Y490118D02*
G03X451655Y491132I-1263J0D01*
G01X451890Y490906D02*
X452441D01*
X452165Y490118D02*
Y491132D01*
X451655Y487608D02*
G03X452165Y488622I-753J1014D01*
G01X451655Y487608D02*
X452676D01*
X452165Y488622D02*
G03X452676Y487608I1264J0D01*
G01X452165Y488622D02*
X452165D01*
X451890Y487835D02*
X452441D01*
X452165Y487608D02*
Y488622D01*
X561534Y484243D02*
G03X561024Y483228I753J-1015D01*
G01X561534Y484243D02*
X560513D01*
X561024Y483228D02*
G03X560513Y484243I-1264J0D01*
G01X560748Y484016D02*
X561299D01*
X561024Y483228D02*
Y484243D01*
X570983Y451369D02*
G03X570472Y450354I753J-1015D01*
G01X570983Y451369D02*
X569962D01*
X570472Y450354D02*
G03X569962Y451369I-1263J0D01*
G01X570197Y451142D02*
X570748D01*
X570472Y450354D02*
Y451369D01*
X532364Y445875D02*
G03X532874Y446890I-754J1015D01*
G01X532364Y445875D02*
X533384D01*
X532874Y446890D02*
G03X533384Y445875I1264J-0D01*
G01X532874Y446890D02*
X532874D01*
X532599Y446102D02*
X533149D01*
X532874Y445875D02*
Y446890D01*
X556183Y443907D02*
G03X556693Y444921I-754J1014D01*
G01X556183Y443907D02*
X557203D01*
X556693Y444921D02*
G03X557203Y443907I1263J0D01*
G01X556693Y444921D02*
X556693D01*
X556418Y444134D02*
X556968D01*
X556693Y443907D02*
Y444921D01*
X532364Y509261D02*
G03X532874Y510276I-754J1015D01*
G01X532364Y509261D02*
X533384D01*
X532874Y510276D02*
G03X533384Y509261I1264J-0D01*
G01X532874Y510276D02*
X532874D01*
X532599Y509488D02*
X533149D01*
X532874Y509261D02*
Y510276D01*
X569765Y443907D02*
G03X570276Y444921I-753J1014D01*
G01X569765Y443907D02*
X570786D01*
X570276Y444921D02*
G03X570786Y443907I1263J0D01*
G01X570276Y444921D02*
X570276D01*
X570000Y444134D02*
X570551D01*
X570276Y443907D02*
Y444921D01*
X564630Y491927D02*
G03X565708Y492283I185J1250D01*
G01X564630Y491927D02*
X565352Y491205D01*
X565708Y492283D02*
G03X565352Y491205I894J-893D01*
G01X565708Y492283D02*
X565708D01*
X565061Y491496D02*
X565343D01*
X564921Y491636D02*
Y491917D01*
X548828Y477676D02*
G03X549843Y477165I1015J753D01*
G01X548828Y477676D02*
Y476655D01*
X549843Y477165D02*
G03X548828Y476655I-0J-1263D01*
G01Y477165D02*
X549843D01*
X549055Y476890D02*
Y477441D01*
X438388Y508134D02*
G03X438032Y509212I-1250J185D01*
G01X438388Y508134D02*
X439110Y508856D01*
X438032Y509212D02*
G03X439110Y508856I893J894D01*
G01X438032Y509212D02*
X438032D01*
X438397Y508425D02*
X438679D01*
X438032Y509212D02*
X438032D01*
X438819Y508565D02*
Y508847D01*
X535818Y531970D02*
G03X534803Y532480I-1015J-753D01*
G01X535818Y531970D02*
Y532990D01*
X534803Y532480D02*
G03X535818Y532990I0J1264D01*
G01X534803Y532480D02*
X535818D01*
X534803D02*
X534803D01*
X535591Y532205D02*
Y532756D01*
X523231Y522111D02*
G03X522874Y523189I-1250J184D01*
G01X523231Y522111D02*
X523952Y522832D01*
X522874Y523189D02*
G03X523952Y522832I894J893D01*
G01X522874Y523189D02*
X522874D01*
X523240Y522401D02*
X523522D01*
X522874Y523189D02*
X522874D01*
X523662Y522541D02*
Y522823D01*
X461415Y516866D02*
G03X461771Y515788I1250J-185D01*
G01X461415Y516866D02*
X460693Y516144D01*
X461771Y515788D02*
G03X460693Y516144I-893J-894D01*
G01X461124Y516575D02*
X461406D01*
X460984Y516153D02*
Y516435D01*
X507668Y532167D02*
G03X506654Y532677I-1014J-753D01*
G01X507668Y532167D02*
Y533187D01*
X506654Y532677D02*
G03X507668Y533187I-0J1264D01*
G01X506654Y532677D02*
X507668D01*
X506654D02*
X506654D01*
X507441Y532402D02*
Y532953D01*
X481613Y527353D02*
G03X481102Y526339I753J-1014D01*
G01X481613Y527353D02*
X480592D01*
X481102Y526339D02*
G03X480592Y527353I-1263J-0D01*
G01X480827Y527126D02*
X481378D01*
X481102Y526339D02*
Y527353D01*
X457871Y516866D02*
G03X458228Y515788I1250J-185D01*
G01X457871Y516866D02*
X457150Y516144D01*
X458228Y515788D02*
G03X457150Y516144I-893J-894D01*
G01X457581Y516575D02*
X457862D01*
X457441Y516153D02*
Y516435D01*
X543637Y521656D02*
G03X542559Y521300I-184J-1250D01*
G01X543637Y521656D02*
X542916Y522378D01*
X542559Y521300D02*
G03X542916Y522378I-893J893D01*
G01X542925Y522087D02*
X543207D01*
X542559Y521300D02*
X542559D01*
X543347Y521665D02*
Y521947D01*
X569294Y491205D02*
G03X568937Y492283I-1250J185D01*
G01X569294Y491205D02*
X570015Y491927D01*
X568937Y492283D02*
G03X570015Y491927I894J894D01*
G01X568937Y492283D02*
X568937D01*
X569303Y491496D02*
X569585D01*
X568937Y492283D02*
X568937D01*
X569725Y491636D02*
Y491917D01*
X540549Y522378D02*
G03X540905Y521300I1250J-185D01*
G01X540549Y522378D02*
X539827Y521656D01*
X540905Y521300D02*
G03X539827Y521656I-893J-894D01*
G01X540258Y522087D02*
X540540D01*
X540118Y521665D02*
Y521947D01*
X487598Y419291D02*
Y447441D01*
X497244Y457087*
Y469882*
X503346Y475984*
Y478937*
X506299Y481890*
X487598Y419291D02*
X494685Y412205D01*
X497835*
X504528Y418898*
X517126*
X525394Y410630*
X531102*
X536614Y405118*
X569685*
X572244Y407677*
X482874Y416929D02*
Y449803D01*
X492520Y459449*
Y472244*
X497441Y477165*
Y480118*
X482874Y416929D02*
X492323Y407480D01*
X506299*
X507283Y408465*
Y410236*
X481299Y416142D02*
Y450591D01*
X490551Y459843*
X481299Y416142D02*
X491535Y405906D01*
X496654*
X497244Y405315*
X499016*
X500394Y403937*
X479724Y415354D02*
Y451378D01*
X488976Y460630*
X479724Y415354D02*
X490748Y404331D01*
X495866*
X497244Y402953*
X435236Y417323D02*
X438386D01*
X440157Y419094*
Y427559*
X442323Y429724*
Y435039*
X449213Y441929*
Y502756*
X451181Y504724*
Y509843*
X486024Y418504D02*
Y448228D01*
X495669Y457874*
Y470669*
X501772Y476772*
Y479724*
X503543Y481496*
Y483268*
X486024Y418504D02*
X493898Y410630D01*
X498622*
X504331Y416339*
X506102*
X484449Y417717D02*
Y449016D01*
X494094Y458661*
Y471457*
X500197Y477559*
Y482087*
X484449Y417717D02*
X493110Y409055D01*
X502756*
X503937Y410236*
X441732Y421654D02*
Y426772D01*
X443898Y428937*
Y434252*
X450820Y441174*
Y477789*
X451575Y478543*
Y480512*
X441732Y421654D02*
X448622Y414764D01*
X457874*
X461811Y410827*
X491535Y420472D02*
X500591Y429528D01*
X509449*
X517323Y437402*
X491339Y432677D02*
X523819Y465157D01*
Y468898*
X450000Y419685D02*
X458268Y427953D01*
Y433465*
X469291Y444488*
Y456496*
X475984Y463189*
X485039*
X486220Y462008*
X446260Y422244D02*
X450197D01*
X456693Y428740*
Y434252*
X467717Y445276*
Y457283*
X475197Y464764*
X484843*
X486024Y465945*
X448622Y424803D02*
X449803Y425984D01*
X451575*
X455118Y429528*
Y435039*
X466142Y446063*
Y465748*
X467717Y467323*
X445276Y426181D02*
X446654Y427559D01*
X450787*
X453543Y430315*
Y435827*
X464567Y446850*
Y468701*
X450394Y432677D02*
Y435039D01*
X462992Y447638*
Y466634*
X447047Y433268D02*
X448819Y435039D01*
Y435827*
X461417Y448425*
Y465748*
X439370Y432480D02*
Y439764D01*
X447441Y447835*
Y516339*
X460433Y529331*
X467913*
X472441Y524803*
Y523622*
X474803Y521260*
X520472Y411024D02*
X522441Y409055D01*
X530315*
X535827Y403543*
X575591*
X585433Y413386*
Y415433*
X588701Y418701*
X520472Y403937D02*
X522441Y405906D01*
X528740*
X534252Y400394*
X582953*
X584646Y398701*
X588701*
X520472Y407480D02*
X529528D01*
X535039Y401969*
X576339*
X583071Y408701*
X588701*
X582283Y414567D02*
X583465Y415748D01*
Y422087*
X586024Y424646*
Y426024*
X588701Y428701*
X542520Y411220D02*
Y412402D01*
X543701Y413583*
X542520Y411220D02*
X544291Y409449D01*
X559449*
X566732Y416732*
Y425787*
X564764Y427756D02*
X566732Y425787D01*
X539764Y413583D02*
X540945Y412402D01*
Y410433*
X543504Y407874*
X560236*
X568307Y415945*
Y425787*
X570276Y427756*
X419882Y440945D02*
Y450394D01*
X422047Y452559*
X424803*
X428937Y456693*
X419882Y440945D02*
X421457Y439370D01*
X424016*
X423622Y473425D02*
Y478150D01*
X425000Y479528*
X423031Y449213D02*
X430512D01*
X423425Y488780D02*
X428150Y484055D01*
Y475197*
X423622Y461024D02*
X428346D01*
X436024Y453346*
Y448819*
X423425Y500984D02*
X427756Y496654D01*
Y489173*
X430315Y486614*
Y478740*
X436220Y472835*
Y468110*
X418307Y434646D02*
X420472Y436811D01*
X429331*
X442717Y450197*
Y518701*
X453150Y529134*
Y530118*
X454921Y531890*
X429921Y510630D02*
Y491535D01*
X432087Y489370*
X437992*
X439370Y487992*
X439764Y512402D02*
X441142Y513780D01*
Y519685*
X451378Y529921*
Y532677*
X456496Y537795*
X501181*
X503543Y535433*
X514764*
X526772Y523425*
Y519488*
X506496Y510236D02*
X511811D01*
X519094Y517520*
X524803*
X526772Y519488*
X452165Y491732D02*
Y496457D01*
X454134Y498425*
Y513976*
X457087Y516929*
X460433Y472441D02*
Y466732D01*
X461417Y465748*
X460433Y472441D02*
X462992Y475000D01*
X466339*
X462008Y470079D02*
Y467618D01*
X462992Y466634*
X462008Y470079D02*
X464173Y472244D01*
X456890Y512992D02*
X458661D01*
X459449Y512205*
X473819*
X488976Y497047*
Y460630*
X490748Y444488D02*
Y447047D01*
X509449Y465748*
Y492717*
X517126Y500394*
X434646Y437008D02*
Y439764D01*
X444291Y449409*
Y517913*
X458858Y532480*
X469488*
X472146Y529823*
X473327*
X474803Y528346*
X436417Y434055D02*
X437598Y435236D01*
Y440354*
X445866Y448622*
Y517126*
X459646Y530906*
X468701*
X474803Y524803*
X452165Y491732D02*
Y487008D01*
X561024Y483071D02*
Y484843D01*
X570472Y449409D02*
Y451969D01*
X532874Y448524D02*
Y445276D01*
X556693Y447047D02*
Y443307D01*
X532874Y513681D02*
Y508661D01*
X570276Y447047D02*
Y443307D01*
X564567Y491142D02*
X566535Y493110D01*
X578937Y506299D02*
Y504724D01*
X548228Y477165D02*
X551575D01*
X427953Y526969D02*
X437008Y517913D01*
Y510236*
X439173Y508071*
X427953Y526969D02*
X440354Y539370D01*
X502362*
X504331Y537402*
X515157*
X520079Y532480*
X536417*
X414961Y526969D02*
X427953D01*
X474606Y513780D02*
X478740Y517913D01*
Y529134*
X479921Y530315*
X515748*
X524016Y522047*
X474606Y513780D02*
X490551Y497835D01*
Y459843*
X460630Y516929D02*
X462205Y515354D01*
X473819*
X477165Y518701*
Y529921*
X479134Y531890*
X505512*
X506299Y532677*
X508268*
X481102Y527953D02*
Y525197D01*
X506299Y500000*
Y481890*
X457087Y516929D02*
X460236Y513780D01*
X474606*
X542520Y519685D02*
Y521260D01*
X543701Y522441*
X542520Y519685D02*
X544291Y517913D01*
X560039*
X568110Y509843*
Y493110*
X570079Y491142*
X539764Y522441D02*
X540945Y521260D01*
Y518898*
X543504Y516339*
X559252*
X566535Y509055*
Y493110*
X590945Y455315D02*
G03X591732Y456102I-0J787D01*
G01X590945Y455315D02*
X584679D01*
X578774Y449409*
X555512*
X554724Y450197D02*
G03X555512Y449409I788J-0D01*
G01X554724Y450197D02*
Y464207D01*
X561811Y471294*
Y476969*
X562598Y477756D02*
G03X561811Y476969I0J-787D01*
G01X562598Y477756D02*
X579168D01*
X584679Y472244*
X590945*
X591732Y471457D02*
G03X590945Y472244I-787J-0D01*
G01X591732Y471457D02*
Y456102D01*
X536550Y498130D02*
X522146D01*
X521358Y498917D02*
G03X522146Y498130I788J0D01*
G01X521358Y498917D02*
Y512894D01*
X522146Y513681D02*
G03X521358Y512894I-0J-787D01*
G01X522146Y513681D02*
X544390D01*
X545177Y512894D02*
G03X544390Y513681I-787J-0D01*
G01X545177Y512894D02*
Y506758D01*
X536550Y498130*
X528937Y479724D02*
G03X528150Y478937I0J-787D01*
G01X528937Y479724D02*
X550787D01*
X551575Y478937D02*
G03X550787Y479724I-788J0D01*
G01X551575Y478937D02*
Y473982D01*
X543564Y465972*
X543564D02*
X541870Y465970D01*
X541869Y465971*
X528150*
Y478937*
X536550Y433366D02*
X522343D01*
X521555Y434154D02*
G03X522343Y433366I788J-0D01*
G01X521555Y434154D02*
Y447736D01*
X522343Y448524D02*
G03X521555Y447736I-0J-788D01*
G01X522343Y448524D02*
X544587D01*
X545374Y447736D02*
G03X544587Y448524I-787J0D01*
G01X545374Y447736D02*
Y442191D01*
X536550Y433366*
X547441Y496687D02*
Y483858D01*
G03X548228Y483071I787J0*
G01X564567*
G03X565354Y483858I-0J787*
G01Y491569*
X562992Y493931*
Y505512*
G03X562205Y506299I-787J-0*
G01X555906*
G03X555118Y505512I-0J-787*
G01Y504364*
X547441Y496687*
X590945Y474606D02*
G03X591732Y475394I-0J788D01*
G01X590945Y474606D02*
X585793D01*
X580281Y480118*
X569882*
X569291Y480709D02*
G03X569882Y480118I591J-0D01*
G01X569291Y480709D02*
Y491569D01*
X571850Y494128*
Y505512*
X572638Y506299D02*
G03X571850Y505512I-0J-787D01*
G01X572638Y506299D02*
X582874D01*
X583661Y505512D02*
G03X582874Y506299I-787J-0D01*
G01X583661Y505512D02*
Y498031D01*
G03X587992Y493701I4331J0*
G01X590945*
X591732Y492913D02*
G03X590945Y493701I-787J0D01*
G01X591732Y492913D02*
Y475394D01*
Y452165D02*
G03X590945Y452953I-787J0D01*
G01X585793*
X579887Y447047*
X570276*
G03X569488Y446260I-0J-787*
G01Y427328*
X571850Y424966*
Y418898*
G03X572638Y418110I788J-0*
G01X580315*
G03X581102Y418898I-0J788*
G01Y423785*
X583661Y426344*
Y429331*
X587992Y433661D02*
G03X583661Y429331I0J-4330D01*
G01X587992Y433661D02*
X590945D01*
G03X591732Y434449I-0J788*
G01Y452165*
X547441Y433301D02*
Y418898D01*
G03X548228Y418110I787J-0*
G01X562402*
G03X563189Y418898I-0J788*
G01Y424966*
X565551Y427328*
Y446260*
G03X564764Y447047I-787J-0*
G01X555906*
G03X555118Y446260I-0J-787*
G01Y440979*
X547441Y433301*
X561811Y471377D02*
X591732D01*
X561185Y470668D02*
X591732D01*
X560477Y469959D02*
X591732D01*
X559768Y469251D02*
X591732D01*
X559059Y468542D02*
X591732D01*
X558351Y467833D02*
X591732D01*
X557642Y467125D02*
X591732D01*
X556933Y466416D02*
X591732D01*
X556225Y465707D02*
X591732D01*
X555516Y464999D02*
X591732D01*
X554807Y464290D02*
X591732D01*
X554724Y463581D02*
X591732D01*
X554724Y462873D02*
X591732D01*
X554724Y462164D02*
X591732D01*
X554724Y461455D02*
X591732D01*
X554724Y460747D02*
X591732D01*
X554724Y460038D02*
X591732D01*
X554724Y459329D02*
X591732D01*
X554724Y458621D02*
X591732D01*
X554724Y457912D02*
X591732D01*
X554724Y457203D02*
X591732D01*
X554724Y456495D02*
X591732D01*
X554724Y455786D02*
X591666D01*
X561811Y472085D02*
X591419D01*
X554724Y455077D02*
X584442D01*
X561811Y472794D02*
X584130D01*
X554724Y454369D02*
X583733D01*
X561811Y473503D02*
X583421D01*
X554724Y453660D02*
X583025D01*
X561811Y474211D02*
X582712D01*
X554724Y452951D02*
X582316D01*
X561811Y474920D02*
X582004D01*
X554724Y452243D02*
X581607D01*
X561811Y475629D02*
X581295D01*
X554724Y451534D02*
X580899D01*
X561811Y476337D02*
X580586D01*
X554724Y450825D02*
X580190D01*
X561815Y477046D02*
X579878D01*
X554728Y450117D02*
X579481D01*
X562553Y477755D02*
X579169D01*
X521358Y512302D02*
X545177D01*
X521358Y511593D02*
X545177D01*
X521358Y510885D02*
X545177D01*
X521358Y510176D02*
X545177D01*
X521358Y509467D02*
X545177D01*
X521358Y508759D02*
X545177D01*
X521358Y508050D02*
X545177D01*
X521358Y507341D02*
X545177D01*
X521367Y513010D02*
X545168D01*
X521358Y506633D02*
X545052D01*
X521358Y505924D02*
X544343D01*
X521358Y505215D02*
X543635D01*
X521358Y504507D02*
X542926D01*
X521358Y503798D02*
X542218D01*
X521358Y503089D02*
X541509D01*
X521358Y502381D02*
X540800D01*
X521358Y501672D02*
X540092D01*
X521358Y500963D02*
X539383D01*
X521358Y500255D02*
X538674D01*
X521358Y499546D02*
X537966D01*
X521362Y498837D02*
X537257D01*
X528150Y478725D02*
X551575D01*
X528150Y478016D02*
X551575D01*
X528150Y477308D02*
X551575D01*
X528150Y476599D02*
X551575D01*
X528150Y475890D02*
X551575D01*
X528150Y475182D02*
X551575D01*
X528150Y474473D02*
X551575D01*
X528326Y479434D02*
X551398D01*
X528150Y473764D02*
X551357D01*
X528150Y473056D02*
X550649D01*
X528150Y472347D02*
X549940D01*
X528150Y471638D02*
X549231D01*
X528150Y470930D02*
X548523D01*
X528150Y470221D02*
X547814D01*
X528150Y469512D02*
X547105D01*
X528150Y468804D02*
X546397D01*
X528150Y468095D02*
X545688D01*
X528150Y467386D02*
X544979D01*
X528150Y466678D02*
X544271D01*
X521555Y447538D02*
X545374D01*
X521555Y446829D02*
X545374D01*
X521555Y446121D02*
X545374D01*
X521555Y445412D02*
X545374D01*
X521555Y444703D02*
X545374D01*
X521555Y443995D02*
X545374D01*
X521555Y443286D02*
X545374D01*
X521555Y442577D02*
X545374D01*
X521743Y448247D02*
X545186D01*
X521555Y441869D02*
X545052D01*
X521555Y441160D02*
X544343D01*
X521555Y440451D02*
X543635D01*
X521555Y439743D02*
X542926D01*
X521555Y439034D02*
X542218D01*
X521555Y438325D02*
X541509D01*
X521555Y437617D02*
X540800D01*
X521555Y436908D02*
X540092D01*
X521555Y436199D02*
X539383D01*
X521555Y435491D02*
X538674D01*
X521555Y434782D02*
X537966D01*
X521559Y434073D02*
X537257D01*
X547441Y490865D02*
X565354D01*
X547441Y490156D02*
X565354D01*
X547441Y489448D02*
X565354D01*
X547441Y488739D02*
X565354D01*
X547441Y488030D02*
X565354D01*
X547441Y487322D02*
X565354D01*
X547441Y486613D02*
X565354D01*
X547441Y485904D02*
X565354D01*
X547441Y485196D02*
X565354D01*
X547441Y484487D02*
X565354D01*
X547445Y483778D02*
X565350D01*
X547441Y491573D02*
X565350D01*
X547441Y492282D02*
X564641D01*
X547441Y492991D02*
X563933D01*
X547441Y493699D02*
X563224D01*
X555118Y505038D02*
X562992D01*
X555083Y504329D02*
X562992D01*
X554374Y503621D02*
X562992D01*
X553666Y502912D02*
X562992D01*
X552957Y502203D02*
X562992D01*
X552248Y501495D02*
X562992D01*
X551540Y500786D02*
X562992D01*
X550831Y500077D02*
X562992D01*
X550122Y499369D02*
X562992D01*
X549414Y498660D02*
X562992D01*
X548705Y497951D02*
X562992D01*
X547996Y497243D02*
X562992D01*
X547441Y496534D02*
X562992D01*
X547441Y495825D02*
X562992D01*
X547441Y495117D02*
X562992D01*
X547441Y494408D02*
X562992D01*
X555154Y505747D02*
X562956D01*
X570044Y492322D02*
X591732D01*
X569335Y491613D02*
X591732D01*
X569291Y490904D02*
X591732D01*
X569291Y490196D02*
X591732D01*
X569291Y489487D02*
X591732D01*
X569291Y488778D02*
X591732D01*
X569291Y488070D02*
X591732D01*
X569291Y487361D02*
X591732D01*
X569291Y486652D02*
X591732D01*
X569291Y485944D02*
X591732D01*
X569291Y485235D02*
X591732D01*
X569291Y484526D02*
X591732D01*
X569291Y483818D02*
X591732D01*
X569291Y483109D02*
X591732D01*
X569291Y482400D02*
X591732D01*
X569291Y481692D02*
X591732D01*
X569291Y480983D02*
X591732D01*
X569482Y480274D02*
X591732D01*
X580834Y479566D02*
X591732D01*
X581542Y478857D02*
X591732D01*
X582251Y478148D02*
X591732D01*
X582960Y477440D02*
X591732D01*
X583668Y476731D02*
X591732D01*
X584377Y476022D02*
X591732D01*
X585086Y475314D02*
X591728D01*
X570752Y493030D02*
X591724D01*
X571461Y493739D02*
X587419D01*
X571850Y494448D02*
X585561D01*
X571850Y495156D02*
X584754D01*
X571850Y495865D02*
X584242D01*
X571850Y496573D02*
X583914D01*
X571850Y497282D02*
X583727D01*
X571850Y497991D02*
X583662D01*
X571850Y505077D02*
X583661D01*
X571850Y504369D02*
X583661D01*
X571850Y503660D02*
X583661D01*
X571850Y502951D02*
X583661D01*
X571850Y502243D02*
X583661D01*
X571850Y501534D02*
X583661D01*
X571850Y500825D02*
X583661D01*
X571850Y500117D02*
X583661D01*
X571850Y499408D02*
X583661D01*
X571850Y498699D02*
X583661D01*
X571900Y505786D02*
X583612D01*
X584965Y452125D02*
X591732D01*
X584256Y451416D02*
X591732D01*
X583548Y450707D02*
X591732D01*
X582839Y449999D02*
X591732D01*
X582130Y449290D02*
X591732D01*
X581422Y448581D02*
X591732D01*
X580713Y447873D02*
X591732D01*
X580004Y447164D02*
X591732D01*
X569513Y446455D02*
X591732D01*
X569488Y445747D02*
X591732D01*
X569488Y445038D02*
X591732D01*
X569488Y444329D02*
X591732D01*
X569488Y443621D02*
X591732D01*
X569488Y442912D02*
X591732D01*
X569488Y442203D02*
X591732D01*
X569488Y441495D02*
X591732D01*
X569488Y440786D02*
X591732D01*
X569488Y440077D02*
X591732D01*
X569488Y439369D02*
X591732D01*
X569488Y438660D02*
X591732D01*
X569488Y437951D02*
X591732D01*
X569488Y437243D02*
X591732D01*
X569488Y436534D02*
X591732D01*
X569488Y435825D02*
X591732D01*
X569488Y435117D02*
X591732D01*
X569488Y434408D02*
X591731D01*
X585674Y452833D02*
X591362D01*
X569488Y433699D02*
X591187D01*
X569488Y432991D02*
X585677D01*
X569488Y432282D02*
X584823D01*
X569488Y431573D02*
X584287D01*
X569488Y430865D02*
X583942D01*
X569488Y430156D02*
X583741D01*
X569488Y429448D02*
X583663D01*
X569488Y428739D02*
X583661D01*
X569488Y428030D02*
X583661D01*
X569495Y427322D02*
X583661D01*
X570204Y426613D02*
X583661D01*
X570912Y425904D02*
X583221D01*
X571621Y425196D02*
X582513D01*
X571850Y424487D02*
X581804D01*
X571850Y423778D02*
X581102D01*
X571850Y423070D02*
X581102D01*
X571850Y422361D02*
X581102D01*
X571850Y421652D02*
X581102D01*
X571850Y420944D02*
X581102D01*
X571850Y420235D02*
X581102D01*
X571850Y419526D02*
X581102D01*
X571854Y418818D02*
X581098D01*
X555118Y445747D02*
X565551D01*
X555118Y445038D02*
X565551D01*
X555118Y444329D02*
X565551D01*
X555118Y443621D02*
X565551D01*
X555118Y442912D02*
X565551D01*
X555118Y442203D02*
X565551D01*
X555118Y441495D02*
X565551D01*
X554926Y440786D02*
X565551D01*
X554217Y440077D02*
X565551D01*
X553508Y439369D02*
X565551D01*
X552800Y438660D02*
X565551D01*
X552091Y437951D02*
X565551D01*
X551382Y437243D02*
X565551D01*
X550674Y436534D02*
X565551D01*
X549965Y435825D02*
X565551D01*
X549256Y435117D02*
X565551D01*
X548548Y434408D02*
X565551D01*
X547839Y433699D02*
X565551D01*
X547441Y432991D02*
X565551D01*
X547441Y432282D02*
X565551D01*
X547441Y431573D02*
X565551D01*
X547441Y430865D02*
X565551D01*
X547441Y430156D02*
X565551D01*
X547441Y429448D02*
X565551D01*
X547441Y428739D02*
X565551D01*
X547441Y428030D02*
X565551D01*
X547441Y427322D02*
X565544D01*
X555143Y446455D02*
X565527D01*
X547441Y426613D02*
X564836D01*
X547441Y425904D02*
X564127D01*
X547441Y425196D02*
X563418D01*
X547441Y424487D02*
X563189D01*
X547441Y423778D02*
X563189D01*
X547441Y423070D02*
X563189D01*
X547441Y422361D02*
X563189D01*
X547441Y421652D02*
X563189D01*
X547441Y420944D02*
X563189D01*
X547441Y420235D02*
X563189D01*
X547441Y419526D02*
X563189D01*
X547445Y418818D02*
X563185D01*
X576181Y531890D02*
G03X576181I-4921J0D01*
G01X425394Y534646D02*
G03X425394I-2363J0D01*
G01X465551Y399606D02*
G03X465551I-3149J0D01*
G01X505118Y523819D02*
G03X505118I-2362J0D01*
G01X467717Y523031D02*
G03X467717I-2363J0D01*
G01X584919Y397032D02*
G03X585631Y395932I3782J1669D01*
G01X584919Y397032D02*
G03X584775Y397126I-144J-64D01*
G01X584646*
X583532Y397587D02*
G03X584646Y397126I1114J1114D01*
G01X583532Y397587D02*
X582347Y398773D01*
G03X582235Y398819I-112J-112*
G01X561926*
G03X561796Y398573I-0J-158*
G01X562205Y397244D02*
G03X561796Y398573I-2362J0D01*
G01X562205Y397244D02*
X562205D01*
X561796Y395915D02*
G03X562205Y397244I-1953J1329D01*
G01X561796Y395915D02*
G03X561926Y395669I130J-88D01*
G01X585514*
G03X585631Y395932I-0J158*
G01X591732Y405514D02*
G03X591469Y405631I-157J-0D01*
G01X584919Y407032D02*
G03X591469Y405631I3782J1669D01*
G01X584919Y407032D02*
G03X584775Y407126I-144J-64D01*
G01X583788*
G03X583677Y407080I0J-158*
G01X578835Y402237*
G03X578946Y401969I111J-111*
G01X582953*
X584066Y401507D02*
G03X582953Y401969I-1113J-1113D01*
G01X584066Y401507D02*
X584860Y400713D01*
G03X585109Y400747I112J112*
G01X591469Y401771D02*
G03X585109Y400747I-2768J-3070D01*
G01X591469Y401771D02*
G03X591732Y401888I106J117D01*
G01Y405514*
Y524513D02*
G03X591486Y524643I-157J0D01*
G01X587837Y533546D02*
G03X591486Y524643I864J-4845D01*
G01X587837Y533546D02*
G03Y533856I-27J155D01*
G01X584643Y541486D02*
G03X587837Y533856I4058J-2785D01*
G01X584643Y541486D02*
G03X584513Y541732I-130J89D01*
G01X401888*
G03X401771Y541469I-0J-157*
G01X402393Y540559D02*
G03X401771Y541469I-3692J-1858D01*
G01X402393Y540559D02*
G03X402534Y540472I141J71D01*
G01X403228*
X404481Y539954D02*
G03X403228Y540472I-1253J-1253D01*
G01X404481Y539954D02*
X415845Y528589D01*
G03X415957Y528543I112J112*
G01X427235*
G03X427347Y528589I0J158*
G01X439241Y540484*
X440354Y540945D02*
G03X439241Y540484I0J-1575D01*
G01X440354Y540945D02*
X502362D01*
X503476Y540484D02*
G03X502362Y540945I-1114J-1114D01*
G01X503476Y540484D02*
X504937Y539023D01*
G03X505048Y538976I111J111*
G01X515157*
X516271Y538515D02*
G03X515157Y538976I-1114J-1113D01*
G01X516271Y538515D02*
X520685Y534101D01*
G03X520796Y534055I111J112*
G01X534588*
G03X534702Y534104I-0J158*
G01Y530856D02*
G03Y534104I1715J1624D01*
G01Y530856D02*
G03X534588Y530905I-114J-108D01*
G01X521899*
G03X521787Y530637I-0J-157*
G01X527885Y524539*
X528346Y523425D02*
G03X527885Y524539I-1574J0D01*
G01X528346Y523425D02*
Y519488D01*
X527884Y518374D02*
G03X528346Y519488I-1112J1114D01*
G01X527884Y518374D02*
X525917Y516406D01*
X525824Y516321D02*
G03X525917Y516406I-1021J1199D01*
G01X525824Y516321D02*
G03X525769Y516201I102J-120D01*
X525926Y516043I157J-0*
G01X540078*
G03X540190Y516312I0J158*
G01X539275Y517227*
X538583Y518898D02*
G03X539275Y517227I2362J-0D01*
G01X538583Y518898D02*
Y519417D01*
G03X538489Y519561I-158J-0*
G01X541639Y524972D02*
G03X538489Y519561I-1875J-2531D01*
G01X541639Y524972D02*
G03X541826I93J126D01*
G01X546203Y520529D02*
G03X541826Y524972I-2502J1912D01*
G01X546203Y520529D02*
G03X546329Y520276I126J-96D01*
G01X560039*
X561710Y519584D02*
G03X560039Y520276I-1671J-1671D01*
G01X561710Y519584D02*
X569781Y511513D01*
X570472Y509843D02*
G03X569781Y511513I-2362J-0D01*
G01X570472Y509843D02*
Y508140D01*
G03X570726Y508015I158J-0*
G01X572638Y508661D02*
G03X570726Y508015I-0J-3149D01*
G01X572638Y508661D02*
X582874D01*
X586024Y505512D02*
G03X582874Y508661I-3150J-0D01*
G01X586024Y505512D02*
Y498031D01*
G03X587992Y496063I1968J0*
G01X590945*
X591545Y496005D02*
G03X590945Y496063I-600J-3092D01*
G01X591545Y496005D02*
G03X591732Y496160I30J155D01*
G01Y524513*
X580125Y415527D02*
G03X581746Y412267I2158J-960D01*
G01X580125Y415527D02*
G03X579981Y415748I-144J64D01*
G01X572638*
X570913Y416262D02*
G03X572638Y415748I1725J2636D01*
G01X570913Y416262D02*
G03X570669Y416130I-86J-132D01*
G01Y415945*
X569977Y414275D02*
G03X570669Y415945I-1670J1670D01*
G01X569977Y414275D02*
X562665Y406962D01*
G03X562776Y406693I111J-112*
G01X568967*
G03X569079Y406739I0J157*
G01X569837Y407497*
G03X569883Y407608I-112J111*
G01X569883*
G03Y407613I-158J0*
G01X569882Y407677D02*
G03X569883Y407613I2362J0D01*
G01X569882Y407677D02*
X569882D01*
X572959Y405426D02*
G03X569882Y407677I-715J2251D01*
G01X572959Y405426D02*
G03X572849Y405276I48J-150D01*
X573007Y405118I158J-0*
G01X574873*
G03X574984Y405164I0J158*
G01X581822Y412002*
G03X581746Y412267I-111J111*
G01X562027Y415748D02*
X548228D01*
X545079Y418898D02*
G03X548228Y415748I3149J-0D01*
G01X545079Y418898D02*
Y432384D01*
G03X544810Y432496I-158J0*
G01X537161Y424847*
X535630Y424213D02*
G03X537161Y424847I-0J2165D01*
G01X535630Y424213D02*
X507458D01*
G03X507347Y424166I0J-158*
G01X503813Y420633*
G03X503980Y420374I112J-111*
G01X504528Y420472D02*
G03X503980Y420374I-0J-1574D01*
G01X504528Y420472D02*
X517126D01*
X518240Y420011D02*
G03X517126Y420472I-1114J-1113D01*
G01X518240Y420011D02*
X526000Y412251D01*
G03X526111Y412205I111J111*
G01X531102*
X532216Y411743D02*
G03X531102Y412205I-1114J-1113D01*
G01X532216Y411743D02*
X537220Y406739D01*
G03X537332Y406693I112J111*
G01X540964*
G03X541075Y406962I0J157*
G01X539275Y408763*
X538583Y410433D02*
G03X539275Y408763I2362J0D01*
G01X538583Y410433D02*
Y410559D01*
G03X538489Y410703I-158J-0*
G01X541639Y416114D02*
G03X538489Y410703I-1875J-2531D01*
G01X541639Y416114D02*
G03X541826I93J126D01*
G01X546450Y412045D02*
G03X541826Y416114I-2749J1538D01*
G01X546450Y412045D02*
G03X546430Y411969I137J-76D01*
X546587Y411811I157J-0*
G01X558405*
G03X558516Y411857I0J158*
G01X562138Y415479*
G03X562027Y415748I-111J112*
G01X552362Y450197D02*
G03X553188Y448071I3150J-0D01*
G01X552362Y450197D02*
Y464207D01*
X552479Y464940D02*
G03X552362Y464207I2245J-733D01*
G01X552479Y464940D02*
G03X552218Y465100I-150J49D01*
G01X544641Y457524*
X543110Y456890D02*
G03X544641Y457524I0J2165D01*
G01X543110Y456890D02*
X527340D01*
G03X527229Y456844I0J-158*
G01X521445Y451060*
G03X521594Y450796I111J-111*
G01X522343Y450886D02*
G03X521594Y450796I-0J-3150D01*
G01X522343Y450886D02*
X544587D01*
X547736Y447736D02*
G03X544587Y450886I-3149J0D01*
G01X547736Y447736D02*
Y442191D01*
X547722Y441929D02*
G03X547736Y442191I-2348J262D01*
G01X547722Y441929D02*
G03X547990Y441800I156J-18D01*
G01X549194Y443004*
G03X549239Y443094I-111J112*
G01X552564Y445407D02*
G03X549239Y443094I-595J-2690D01*
G01X552564Y445407D02*
G03X552756Y445561I34J154D01*
G01Y446260*
X553207Y447883D02*
G03X552756Y446260I2699J-1623D01*
G01X553207Y447883D02*
G03X553188Y448071I-135J82D01*
G01X509180Y395991D02*
G03X509231Y395942I1253J1253D01*
G01X509180Y395991D02*
X506793Y398379D01*
G03X506681Y398425I-112J-111*
G01X491571*
G03X491428Y398200I-0J-157*
G01X491732Y396850D02*
G03X491428Y398200I-3149J0D01*
G01X491732Y396850D02*
X491732D01*
X491578Y395876D02*
G03X491732Y396850I-2995J974D01*
G01X491578Y395876D02*
G03X491570Y395827I149J-49D01*
X491727Y395669I157J-0*
G01X509124*
G03X509231Y395942I0J158*
G01X533134Y399285D02*
X528134Y404285D01*
G03X528023Y404331I-111J-112*
G01X523158*
G03X523047Y404285I0J-158*
G01X522880Y404117*
G03X522834Y404006I111J-111*
G01X522834*
G03Y404002I157J-0*
G01X522835Y403937D02*
G03X522834Y404002I-2363J-0D01*
G01X522835Y403937D02*
X522835D01*
X518793Y405598D02*
G03X522835Y403937I1679J-1661D01*
G01X518793Y405598D02*
G03Y405819I-112J111D01*
G01X518110Y407480D02*
G03X518793Y405819I2362J0D01*
G01X518110Y407480D02*
X518110D01*
X518793Y409141D02*
G03X518110Y407480I1679J-1661D01*
G01X518793Y409141D02*
G03Y409363I-112J111D01*
G01X520089Y413355D02*
G03X518793Y409363I383J-2331D01*
G01X520089Y413355D02*
G03X520175Y413621I-25J155D01*
G01X516520Y417277*
G03X516408Y417323I-112J-112*
G01X508483*
G03X508334Y417114I-0J-158*
G01X508465Y416339D02*
G03X508334Y417114I-2363J-0D01*
G01X504780Y414381D02*
G03X508465Y416339I1322J1958D01*
G01X504780Y414381D02*
G03X504581Y414362I-88J-131D01*
G01X502917Y412698*
G03X503085Y412440I111J-112*
G01X505506Y412002D02*
G03X503085Y412439I-1569J-1766D01*
G01X505506Y412002D02*
G03X505715I104J118D01*
G01X508907Y408520D02*
G03X505715Y412002I-1624J1716D01*
G01X508907Y408520D02*
G03X508857Y408411I108J-114D01*
G01X508397Y407351D02*
G03X508857Y408411I-1114J1114D01*
G01X508397Y407351D02*
X507413Y406367D01*
X506299Y405905D02*
G03X507413Y406367I0J1575D01*
G01X506299Y405905D02*
X502146D01*
G03X502036Y405635I-0J-157*
G01Y402239D02*
G03Y405635I-1642J1698D01*
G01Y402239D02*
G03X502146Y401969I110J-113D01*
G01X507480*
X508733Y401450D02*
G03X507480Y401969I-1253J-1253D01*
G01X508733Y401450D02*
X511121Y399062D01*
G03X511232Y399016I111J111*
G01X533023*
G03X533134Y399285I-0J157*
G01X485595Y398425D02*
X483268D01*
X482015Y398944D02*
G03X483268Y398425I1253J1253D01*
G01X482015Y398944D02*
X477462Y403497D01*
G03X477351Y403543I-111J-111*
G01X426181*
X424928Y404062D02*
G03X426181Y403543I1253J1253D01*
G01X424928Y404062D02*
X413708Y415283D01*
X413189Y416535D02*
G03X413708Y415283I1772J0D01*
G01X413189Y416535D02*
Y444048D01*
G03X413152Y444150I-158J0*
G01Y447189D02*
G03Y444150I1809J-1520D01*
G01Y447189D02*
G03X413189Y447290I-121J101D01*
G01Y456253*
G03X413152Y456354I-158J0*
G01Y459394D02*
G03Y456354I1809J-1520D01*
G01Y459394D02*
G03X413189Y459495I-121J101D01*
G01Y468458*
G03X413152Y468559I-158J-0*
G01Y471598D02*
G03Y468559I1809J-1519D01*
G01Y471598D02*
G03X413189Y471700I-121J102D01*
G01Y481844*
G03X413152Y481945I-158J-0*
G01Y484984D02*
G03Y481945I1809J-1519D01*
G01Y484984D02*
G03X413189Y485085I-121J101D01*
G01Y494048*
G03X413152Y494150I-158J0*
G01Y497189D02*
G03Y494150I1809J-1520D01*
G01Y497189D02*
G03X413189Y497290I-121J101D01*
G01Y506253*
G03X413152Y506354I-158J0*
G01Y509394D02*
G03Y506354I1809J-1520D01*
G01Y509394D02*
G03X413189Y509495I-121J101D01*
G01Y526169*
G03X413143Y526281I-158J0*
G01X402610Y536814*
G03X402359Y536776I-112J-112*
G01X395932Y535631D02*
G03X402359Y536776I2769J3070D01*
G01X395932Y535631D02*
G03X395669Y535514I-105J-117D01*
G01Y531888*
G03X395932Y531771I158J-0*
G01Y525631D02*
G03Y531771I2769J3070D01*
G01Y525631D02*
G03X395669Y525514I-105J-117D01*
G01Y511888*
G03X395932Y511771I158J-0*
G01Y505631D02*
G03Y511771I2769J3070D01*
G01Y505631D02*
G03X395669Y505514I-105J-117D01*
G01Y501888*
G03X395932Y501771I158J-0*
G01Y495631D02*
G03Y501771I2769J3070D01*
G01Y495631D02*
G03X395669Y495514I-105J-117D01*
G01Y491888*
G03X395932Y491771I158J-0*
G01Y485631D02*
G03Y491771I2769J3070D01*
G01Y485631D02*
G03X395669Y485514I-105J-117D01*
G01Y481888*
G03X395932Y481771I158J-0*
G01Y475631D02*
G03Y481771I2769J3070D01*
G01Y475631D02*
G03X395669Y475514I-105J-117D01*
G01Y471888*
G03X395932Y471771I158J-0*
G01Y465631D02*
G03Y471771I2769J3070D01*
G01Y465631D02*
G03X395669Y465514I-105J-117D01*
G01Y461888*
G03X395932Y461771I158J-0*
G01Y455631D02*
G03Y461771I2769J3070D01*
G01Y455631D02*
G03X395669Y455514I-105J-117D01*
G01Y451888*
G03X395932Y451771I158J-0*
G01Y445631D02*
G03Y451771I2769J3070D01*
G01Y445631D02*
G03X395669Y445514I-105J-117D01*
G01Y441888*
G03X395932Y441771I158J-0*
G01Y435631D02*
G03Y441771I2769J3070D01*
G01Y435631D02*
G03X395669Y435514I-105J-117D01*
G01Y431888*
G03X395932Y431771I158J-0*
G01Y425631D02*
G03Y431771I2769J3070D01*
G01Y425631D02*
G03X395669Y425514I-105J-117D01*
G01Y421888*
G03X395932Y421771I158J-0*
G01Y415631D02*
G03Y421771I2769J3070D01*
G01Y415631D02*
G03X395669Y415514I-105J-117D01*
G01Y411888*
G03X395932Y411771I158J-0*
G01Y405631D02*
G03Y411771I2769J3070D01*
G01Y405631D02*
G03X395669Y405514I-105J-117D01*
G01Y401888*
G03X395932Y401771I158J-0*
G01X401771Y395932D02*
G03X395932Y401771I-3070J2769D01*
G01X401771Y395932D02*
G03X401888Y395669I117J-105D01*
G01X440343*
G03X440501Y395827I0J158*
X440475Y395913I-158J-0*
G01X445746D02*
G03X440475I-2636J1725D01*
G01X445746D02*
G03X445720Y395827I131J-86D01*
X445877Y395669I157J-0*
G01X451341*
G03X451458Y395932I-0J158*
G01X457597D02*
G03X451458I-3069J2769D01*
G01X457597D02*
G03X457714Y395669I117J-105D01*
G01X485438*
G03X485595Y395827I-0J158*
X485588Y395876I-157J-0*
G01X485433Y396850D02*
G03X485588Y395876I3150J0D01*
G01X485433Y396850D02*
X485433D01*
X485737Y398200D02*
G03X485433Y396850I2846J-1350D01*
G01X485737Y398200D02*
G03X485595Y398425I-142J68D01*
G01X494905Y402621D02*
G03X495013Y402178I2339J332D01*
G01X494905Y402621D02*
G03X494749Y402756I-156J-23D01*
G01X490748*
X489634Y403217D02*
G03X490748Y402756I1114J1114D01*
G01X489634Y403217D02*
X478612Y414240D01*
X478150Y415354D02*
G03X478612Y414240I1574J0D01*
G01X478150Y415354D02*
Y451378D01*
X478611Y452492D02*
G03X478150Y451378I1113J-1114D01*
G01X478611Y452492D02*
X485604Y459484D01*
G03X485538Y459746I-112J112*
G01X483915Y461491D02*
G03X485538Y459746I2305J517D01*
G01X483915Y461491D02*
G03X483762Y461614I-153J-34D01*
G01X476702*
G03X476590Y461568I-0J-157*
G01X470912Y455890*
G03X470866Y455779I112J-111*
G01Y444488*
X470405Y443375D02*
G03X470866Y444488I-1114J1113D01*
G01X470405Y443375D02*
X459889Y432858D01*
G03X459843Y432747I111J-111*
G01Y427953*
X459381Y426839D02*
G03X459843Y427953I-1113J1114D01*
G01X459381Y426839D02*
X452407Y419865D01*
G03X452361Y419754I112J-111*
G01X452361*
G03Y419750I158J-0*
G01X452362Y419685D02*
G03X452361Y419750I-2362J0D01*
G01X452362Y419685D02*
X452362D01*
X447663Y420032D02*
G03X452362Y419685I2337J-347D01*
G01X447663Y420032D02*
G03X447665Y420055I-155J23D01*
G01X447665*
G03X447430Y420192I-157J0*
G01X446116Y419886D02*
G03X447430Y420192I144J2358D01*
G01X446116Y419886D02*
G03X445995Y419618I-9J-157D01*
G01X449228Y416385*
G03X449340Y416339I112J111*
G01X457874*
X458988Y415877D02*
G03X457874Y416339I-1114J-1113D01*
G01X458988Y415877D02*
X461631Y413234D01*
G03X461746Y413188I111J112*
G01X459449Y410827D02*
G03X461746Y413188I2362J-0D01*
G01X459449Y410827D02*
X459449D01*
X459450Y410891D02*
G03X459449Y410827I2361J-64D01*
G01X459450Y410891D02*
G03Y410896I-158J5D01*
G01X459450*
G03X459404Y411007I-158J-0*
G01X457268Y413143*
G03X457156Y413189I-112J-112*
G01X448622*
X447508Y413650D02*
G03X448622Y413189I1114J1114D01*
G01X447508Y413650D02*
X442000Y419158D01*
G03X441732Y419051I-111J-111*
G01X441271Y417981D02*
G03X441732Y419051I-1114J1113D01*
G01X441271Y417981D02*
X439499Y416209D01*
X438386Y415748D02*
G03X439499Y416209I-0J1575D01*
G01X438386Y415748D02*
X437066D01*
G03X436952Y415699I-0J-157*
G01Y418947D02*
G03Y415699I-1716J-1624D01*
G01Y418947D02*
G03X437066Y418898I114J108D01*
G01X437668*
G03X437780Y418944I0J157*
G01X438537Y419701*
G03X438583Y419812I-112J111*
G01Y426438*
G03X438361Y426582I-158J-0*
G01X435039Y428740D02*
G03X438361Y426582I2363J0D01*
G01X437186Y431093D02*
G03X435039Y428740I216J-2353D01*
G01X437186Y431093D02*
G03X437309Y431326I-14J156D01*
G01X437155Y431660D02*
G03X437309Y431326I2215J820D01*
G01X437155Y431660D02*
G03X436970Y431759I-148J-55D01*
G01X434055Y434055D02*
G03X436970Y431759I2362J0D01*
G01X434055Y434055D02*
X434055D01*
X434108Y434552D02*
G03X434055Y434055I2309J-497D01*
G01X434108Y434552D02*
G03X433997Y434736I-154J33D01*
G01X432283Y437008D02*
G03X433997Y434736I2363J-0D01*
G01X432288Y437152D02*
G03X432283Y437008I2358J-144D01*
G01X432288Y437152D02*
G03Y437161I-157J9D01*
X432019Y437272I-157J0*
G01X430444Y435697*
X429331Y435236D02*
G03X430444Y435697I-0J1575D01*
G01X429331Y435236D02*
X421190D01*
G03X421079Y435190I-0J-157*
G01X420714Y434826*
X420714D02*
G03X420668Y434715I112J-111D01*
G01X420668*
G03Y434710I158J-0*
G01X420669Y434646D02*
G03X420668Y434710I-2362J-0D01*
G01X420669Y434646D02*
X420669D01*
X416978Y432693D02*
G03X420669Y434646I1329J1953D01*
G01X416978Y432693D02*
G03X416732Y432562I-88J-131D01*
G01Y417335*
G03X416778Y417223I158J-0*
G01X426869Y407133*
G03X426980Y407087I111J111*
G01X478150*
X479402Y406568D02*
G03X478150Y407087I-1252J-1253D01*
G01X479402Y406568D02*
X483955Y402015D01*
G03X484067Y401969I112J111*
G01X494864*
G03X495013Y402178I-0J157*
G01X504235Y427559D02*
X501471D01*
G03X501360Y427513I0J-157*
G01X494336Y420489*
G03X494290Y420383I111J-111*
G01X491758Y417726D02*
G03X494290Y420383I-223J2746D01*
G01X491758Y417726D02*
G03X491660Y417457I13J-157D01*
G01X495291Y413826*
G03X495403Y413780I112J111*
G01X497117*
G03X497228Y413826I0J157*
G01X499280Y415877*
G03X499160Y416145I-112J111*
G01X498638Y421628D02*
G03X499160Y416145I378J-2730D01*
G01X498638Y421628D02*
G03X498728Y421672I-21J156D01*
G01X504346Y427290*
G03X504235Y427559I-111J112*
G01X519019Y448634D02*
X503562Y433177D01*
G03X503517Y433087I111J-112*
G01X502946Y431751D02*
G03X503517Y433087I-2159J1714D01*
G01X502946Y431751D02*
G03X503070Y431496I124J-97D01*
G01X508568*
G03X508680Y431542I0J158*
G01X514522Y437385*
G03X514568Y437491I-111J111*
G01X518943Y439631D02*
G03X514568Y437491I-1620J-2229D01*
G01X518943Y439631D02*
G03X519193Y439758I92J127D01*
G01Y447736*
X519283Y448485D02*
G03X519193Y447736I3060J-749D01*
G01X519283Y448485D02*
G03X519019Y448634I-153J37D01*
G01X543566Y463609D02*
G03X544298Y463726I-2J2363D01*
G01X543566Y463609D02*
X541872Y463608D01*
X541817Y463609D02*
G03X541872Y463608I53J2361D01*
G01X541817Y463609D02*
G03X541814I-3J-158D01*
G01X528150*
X526055Y464879D02*
G03X528150Y463609I2095J1092D01*
G01X526055Y464879D02*
G03X525760Y464832I-139J-73D01*
G01X525211Y463766D02*
G03X525760Y464832I-1392J1391D01*
G01X525211Y463766D02*
X494139Y432694D01*
G03X494093Y432588I111J-112*
G01X489439Y430680D02*
G03X494093Y432588I1900J1997D01*
G01X489439Y430680D02*
G03X489173Y430566I-108J-114D01*
G01Y422377*
G03X489450Y422274I158J-0*
G01X491446Y423227D02*
G03X489450Y422274I89J-2755D01*
G01X491446Y423227D02*
G03X491552Y423273I-5J157D01*
G01X499199Y430920*
X499236Y430956D02*
G03X499199Y430920I1355J-1428D01*
G01X499236Y430956D02*
G03X499217Y431200I-108J114D01*
G01X500410Y436195D02*
G03X499217Y431200I377J-2730D01*
G01X500410Y436195D02*
G03X500500Y436239I-22J156D01*
G01X524847Y460586*
X526378Y461220D02*
G03X524847Y460586I-0J-2165D01*
G01X526378Y461220D02*
X542148D01*
G03X542259Y461267I0J158*
G01X544458Y463465*
G03X544298Y463726I-112J111*
G01X545079Y483858D02*
G03X545479Y482321I3149J0D01*
G01X545079Y483858D02*
Y495770D01*
G03X544810Y495881I-158J0*
G01X542082Y493154*
X540551Y492520D02*
G03X542082Y493154I0J2165D01*
G01X540551Y492520D02*
X527734D01*
G03X527622Y492474I-0J-158*
G01X515400Y480252*
G03X515354Y480140I112J-112*
G01Y462795*
X514720Y461264D02*
G03X515354Y462795I-1531J1531D01*
G01X514720Y461264D02*
X502184Y448728D01*
G03X502139Y448638I111J-111*
G01X496795Y449889D02*
G03X502139Y448638I2614J-873D01*
G01X496795Y449889D02*
G03X496804Y449939I-149J50D01*
X496535Y450050I-158J-0*
G01X492908Y446424*
G03X492862Y446312I112J-112*
X492897Y446214I158J0*
G01X489407Y442080D02*
G03X492897Y446214I1341J2408D01*
G01X489407Y442080D02*
G03X489173Y441943I-76J-137D01*
G01Y434788*
G03X489439Y434674I158J0*
G01X491249Y435432D02*
G03X489439Y434674I90J-2755D01*
G01X491249Y435432D02*
G03X491355Y435478I-5J157D01*
G01X521804Y465927*
G03X521850Y466038I-111J111*
G01Y466906*
G03X521808Y467013I-157J-0*
G01X525532Y471056D02*
G03X521808Y467013I-1713J-2158D01*
G01X525532Y471056D02*
G03X525787Y471180I98J124D01*
G01Y478937*
X528937Y482087D02*
G03X525787Y478937I0J-3150D01*
G01X528937Y482087D02*
X545342D01*
G03X545479Y482321I-0J157*
G01X563564Y508686D02*
X558320Y513930D01*
G03X558208Y513976I-112J-111*
G01X547565*
G03X547414Y513775I-0J-157*
G01X547539Y512894D02*
G03X547414Y513775I-3149J-0D01*
G01X547539Y512894D02*
Y506758D01*
X546848Y505087D02*
G03X547539Y506758I-1671J1671D01*
G01X546848Y505087D02*
X538880Y497119D01*
G03X538991Y496850I111J-111*
G01X539589*
G03X539700Y496897I0J158*
G01X549194Y506390*
G03X549239Y506480I-111J111*
G01X553877Y508091D02*
G03X549239Y506480I-1908J-1989D01*
G01X553877Y508091D02*
G03X554077Y508076I109J114D01*
G01X555906Y508661D02*
G03X554077Y508076I-0J-3149D01*
G01X555906Y508661D02*
X562205D01*
X563393Y508429D02*
G03X562205Y508661I-1188J-2917D01*
G01X563393Y508429D02*
G03X563564Y508686I60J145D01*
G01X524412Y495768D02*
X522146D01*
X519091Y498151D02*
G03X522146Y495768I3055J766D01*
G01X519091Y498151D02*
G03X518840Y498236I-153J-39D01*
G01X517216Y497639D02*
G03X518840Y498236I-90J2755D01*
G01X517216Y497639D02*
G03X517109Y497593I5J-157D01*
G01X511463Y491947*
G03X511417Y491836I112J-111*
G01Y482773*
G03X511686Y482662I158J0*
G01X524523Y495499*
G03X524412Y495768I-111J111*
G01X520545Y515945D02*
X519812D01*
G03X519701Y515899I0J-158*
G01X512925Y509123*
X511811Y508661D02*
G03X512925Y509123I0J1575D01*
G01X511811Y508661D02*
X508326D01*
G03X508211Y508612I-0J-157*
G01X506750Y507888D02*
G03X508211Y508612I-254J2348D01*
G01X506750Y507888D02*
G03X506614Y507691I17J-157D01*
G01X506693Y507087D02*
G03X506614Y507691I-2362J-0D01*
G01X506693Y507087D02*
X506693D01*
X504187Y504729D02*
G03X506693Y507087I144J2358D01*
G01X504187Y504729D02*
G03X504066Y504460I-10J-157D01*
G01X507413Y501114*
X507874Y500000D02*
G03X507413Y501114I-1575J0D01*
G01X507874Y500000D02*
Y494306D01*
G03X508143Y494195I158J-0*
G01X514325Y500377*
G03X514372Y500483I-111J111*
G01X518746Y502623D02*
G03X514372Y500483I-1620J-2229D01*
G01X518746Y502623D02*
G03X518996Y502751I93J128D01*
G01Y512894*
X520621Y515650D02*
G03X518996Y512894I1525J-2756D01*
G01X520621Y515650D02*
G03X520545Y515945I-76J137D01*
G01X521654Y522047D02*
G03X524366Y519711I2362J0D01*
G01X521654Y522047D02*
X521654D01*
Y522112D02*
G03Y522047I2362J-65D01*
G01Y522112D02*
G03Y522116I-157J4D01*
G01X521654*
G03X521608Y522228I-157J0*
G01X515142Y528694*
G03X515030Y528740I-112J-111*
G01X483542*
G03X483390Y528543I0J-157*
G01X482726Y526237D02*
G03X483390Y528543I-1624J1716D01*
G01X482726Y526237D02*
G03X482677Y526123I109J-114D01*
G01Y525914*
G03X482723Y525803I158J0*
G01X501704Y506822*
G03X501973Y506933I112J111*
Y506943I-157J0*
G01X501968Y507087D02*
G03X501973Y506943I2363J-0D01*
G01X504077Y509435D02*
G03X501968Y507087I254J-2348D01*
G01X504077Y509435D02*
G03X504212Y509632I-17J157D01*
G01X504134Y510236D02*
G03X504212Y509632I2362J0D01*
G01X504134Y510236D02*
X504134D01*
X508211Y511860D02*
G03X504134Y510236I-1715J-1624D01*
G01X508211Y511860D02*
G03X508326Y511811I115J109D01*
G01X511093*
G03X511205Y511857I0J158*
G01X517981Y518633*
X518053Y518701D02*
G03X517981Y518633I1041J-1181D01*
G01X518053Y518701D02*
G03X517910Y518972I-104J118D01*
G01X519685Y521260D02*
G03X517910Y518972I-2362J-0D01*
G01X518721Y519356D02*
G03X519685Y521260I-1398J1904D01*
G01X518721Y519356D02*
G03X518840Y519074I94J-127D01*
G01X519094Y519095D02*
G03X518840Y519074I0J-1575D01*
G01X519094Y519095D02*
X524086D01*
G03X524197Y519141I-0J157*
G01X524500Y519444*
G03X524366Y519711I-111J111*
G01X507480Y480464D02*
G03X507211Y480575I-157J-0D01*
G01X504967Y478331*
G03X504921Y478219I112J-112*
G01Y475984*
X504460Y474871D02*
G03X504921Y475984I-1114J1113D01*
G01X504460Y474871D02*
X502388Y472799D01*
G03X502454Y472537I112J-111*
G01X499510Y469593D02*
G03X502454Y472537I2262J683D01*
G01X499510Y469593D02*
G03X499248Y469659I-151J-46D01*
G01X498865Y469276*
G03X498819Y469164I111J-112*
G01Y463164*
G03X499126Y463116I157J0*
G01X503647Y463060D02*
G03X499126Y463116I-2269J-658D01*
G01X503647Y463060D02*
G03X503909Y462992I151J44D01*
G01X507434Y466517*
G03X507480Y466629I-111J112*
G01Y480464*
X504724Y499282D02*
G03X504678Y499394I-157J0D01*
G01X480584Y523488*
G03X480315Y523377I-112J-111*
G01Y517913*
X479854Y516800D02*
G03X480315Y517913I-1114J1113D01*
G01X479854Y516800D02*
X476945Y513891D01*
G03Y513668I111J-111*
G01X491665Y498948*
X492126Y497835D02*
G03X491665Y498948I-1575J-0D01*
G01X492126Y497835D02*
Y474458D01*
G03X492395Y474346I157J-0*
G01X495820Y477772*
G03X495866Y477883I-111J111*
G01Y478288*
G03X495817Y478403I-157J0*
G01X497716Y482464D02*
G03X495817Y478403I-275J-2346D01*
G01X497716Y482464D02*
G03X497888Y482587I18J157D01*
G01X501207Y484222D02*
G03X497888Y482587I-1010J-2135D01*
G01X501207Y484222D02*
G03X501416Y484296I68J142D01*
G01X504503Y485426D02*
G03X501416Y484296I-960J-2158D01*
G01X504503Y485426D02*
G03X504724Y485570I64J144D01*
G01Y488171*
G03X504515Y488320I-157J-0*
G01Y492783D02*
G03Y488320I-775J-2232D01*
G01Y492783D02*
G03X504724Y492931I52J148D01*
G01Y499282*
X487402Y496330D02*
G03X487355Y496441I-158J-0D01*
G01X473213Y510584*
G03X473101Y510630I-112J-112*
G01X459449*
X458407Y511024D02*
G03X459449Y510630I1042J1181D01*
G01X458407Y511024D02*
G03X458214Y511036I-104J-118D01*
G01X455930Y510834D02*
G03X458214Y511036I960J2158D01*
G01X455930Y510834D02*
G03X455709Y510690I-64J-144D01*
G01Y498425*
X455247Y497312D02*
G03X455709Y498425I-1113J1113D01*
G01X455247Y497312D02*
X454573Y496637D01*
G03X454527Y496526I111J-111*
G01X454527*
G03Y496521I157J-0*
G01X454528Y496457D02*
G03X454527Y496521I-2363J-0D01*
G01X454528Y496457D02*
X454528D01*
X453789Y494741D02*
G03X454528Y496457I-1624J1716D01*
G01X453789Y494741D02*
G03X453740Y494627I109J-114D01*
G01Y493562*
G03X453789Y493448I158J0*
G01Y490017D02*
G03Y493448I-1624J1715D01*
G01Y490017D02*
G03X453740Y489903I109J-114D01*
G01Y488838*
G03X453789Y488723I158J-0*
G01X451021Y484941D02*
G03X453789Y488723I1144J2067D01*
G01X451021Y484941D02*
G03X450787Y484803I-76J-138D01*
G01Y482952*
G03X450984Y482799I158J-0*
G01X453199Y478796D02*
G03X450984Y482799I-1624J1716D01*
G01X453199Y478796D02*
G03X453150Y478682I108J-114D01*
G01Y478543*
X452688Y477430D02*
G03X453150Y478543I-1113J1113D01*
G01X452688Y477430D02*
X452441Y477182D01*
G03X452395Y477071I111J-111*
G01Y442010*
G03X452664Y441899I157J0*
G01X459796Y449031*
G03X459842Y449143I-111J112*
G01X459842D02*
Y465030D01*
G03X459796Y465142I-157J0*
G01X459320Y465619*
X458858Y466732D02*
G03X459320Y465619I1575J0D01*
G01X458858Y466732D02*
Y472441D01*
X459320Y473555D02*
G03X458858Y472441I1113J-1114D01*
G01X459320Y473555D02*
X461879Y476114D01*
X462992Y476575D02*
G03X461879Y476114I0J-1575D01*
G01X462992Y476575D02*
X464509D01*
G03X464623Y476624I-0J157*
G01X466658Y472660D02*
G03X464623Y476624I-319J2340D01*
G01X466658Y472659D02*
G03X466523Y472487I22J-156D01*
G01X466535Y472244D02*
G03X466523Y472487I-2362J0D01*
G01X466017Y470768D02*
G03X466535Y472244I-1844J1476D01*
G01X466017Y470768D02*
G03X466042Y470546I123J-99D01*
G01X466736Y469637D02*
G03X466042Y470546I-2169J-936D01*
G01X466736Y469637D02*
G03X466932Y469551I144J63D01*
G01X470079Y467323D02*
G03X466932Y469551I-2362J-0D01*
G01X470079Y467323D02*
X470079D01*
X470078Y467281D02*
G03X470079Y467323I-2361J42D01*
G01X470078Y467281D02*
G03Y467279I158J-2D01*
G01X470078*
G03X470226Y467121I158J-0*
G01X472441Y464764D02*
G03X470226Y467121I-2362J-0D01*
G01X472437Y464620D02*
G03X472441Y464764I-2358J144D01*
G01X472437Y464620D02*
G03X472436Y464611I157J-9D01*
X472705Y464499I158J-0*
G01X474083Y465877*
X475197Y466339D02*
G03X474083Y465877I-0J-1575D01*
G01X475197Y466339D02*
X483565D01*
G03X483719Y466462I-0J157*
G01X487168Y468012D02*
G03X483719Y466462I-1144J-2067D01*
G01X487168Y468012D02*
G03X487402Y468149I76J137D01*
G01Y496330*
X472441Y521260D02*
G03X474758Y518898I2362J-0D01*
G01X472441Y521260D02*
X472441D01*
X472442Y521324D02*
G03X472441Y521260I2361J-64D01*
G01X472442Y521324D02*
G03Y521329I-158J5D01*
G01X472442*
G03X472396Y521440I-158J-0*
G01X471327Y522508*
X470866Y523622D02*
G03X471327Y522508I1575J0D01*
G01X470866Y523622D02*
Y524086D01*
G03X470820Y524197I-157J-0*
G01X467307Y527710*
G03X467196Y527756I-111J-112*
G01X461151*
G03X461039Y527710I-0J-158*
G01X449062Y515732*
G03X449016Y515621I111J-111*
G01Y511365*
G03X449299Y511270I157J-0*
G01X452325Y511909D02*
G03X449299Y511270I-1144J-2066D01*
G01X452325Y511909D02*
G03X452559Y512047I77J138D01*
G01Y513976*
X453020Y515090D02*
G03X452559Y513976I1114J-1114D01*
G01X453020Y515090D02*
X454679Y516749D01*
G03X454725Y516860I-111J111*
G01X454725*
G03Y516865I-157J0*
G01X454724Y516929D02*
G03X454725Y516865I2363J0D01*
G01X454724Y516929D02*
X454724D01*
X458748Y518609D02*
G03X454724Y516929I-1661J-1680D01*
G01X458748Y518609D02*
G03X458969I110J112D01*
G01X462988Y517077D02*
G03X458969Y518609I-2358J-148D01*
G01X462988Y517077D02*
G03X463145Y516929I157J10D01*
G01X473101*
G03X473213Y516975I0J158*
G01X474867Y518629*
G03X474758Y518898I-112J112*
G01X504873Y533858D02*
X503543D01*
X502430Y534320D02*
G03X503543Y533858I1113J1113D01*
G01X502430Y534320D02*
X500575Y536174D01*
G03X500464Y536220I-111J-111*
G01X457214*
G03X457102Y536174I-0J-157*
G01X455383Y534455*
G03X455458Y534190I111J-112*
G01X456958Y533086D02*
G03X455458Y534190I-2037J-1196D01*
G01X456958Y533086D02*
G03X457205Y533054I136J80D01*
G01X457745Y533594*
X458858Y534055D02*
G03X457745Y533594I0J-1575D01*
G01X458858Y534055D02*
X469488D01*
X470602Y533594D02*
G03X469488Y534055I-1114J-1114D01*
G01X470602Y533594D02*
X472752Y531444D01*
G03X472863Y531398I111J111*
G01X473327*
X474440Y530936D02*
G03X473327Y531398I-1113J-1113D01*
G01X474440Y530936D02*
X474623Y530754D01*
G03X474739Y530708I111J111*
G01X475580Y530577D02*
G03X474739Y530708I-777J-2231D01*
G01X475580Y530577D02*
G03X475771Y530653I51J149D01*
G01X476052Y531035D02*
G03X475771Y530653I1113J-1114D01*
G01X476052Y531035D02*
X478020Y533003D01*
X479134Y533465D02*
G03X478020Y533003I-0J-1575D01*
G01X479134Y533465D02*
X504794D01*
G03X504906Y533511I0J157*
G01X504984Y533589*
G03X504873Y533858I-111J112*
G01X441142Y486057D02*
G03X440883Y486178I-158J0D01*
G01X439115Y485644D02*
G03X440883Y486178I255J2348D01*
G01X439115Y485644D02*
G03X438950Y485436I-17J-157D01*
G01X432157Y481131D02*
G03X438950Y485436I2882J2963D01*
G01X432157Y481131D02*
G03X431890Y481018I-110J-113D01*
G01Y479458*
G03X431936Y479346I157J-0*
G01X437334Y473948*
X437795Y472835D02*
G03X437334Y473948I-1575J-0D01*
G01X437795Y472835D02*
Y469940D01*
G03X437845Y469826I158J0*
G01X434596D02*
G03X437845I1624J-1716D01*
G01X434596D02*
G03X434646Y469940I-108J114D01*
G01Y472117*
G03X434600Y472228I-158J0*
G01X430611Y476217*
G03X430342Y476105I-111J-112*
G01X430342D02*
G03X430353Y476049I158J0D01*
G01X426254Y473788D02*
G03X430353Y476049I1896J1409D01*
G01X426254Y473788D02*
G03X425970Y473694I-127J-94D01*
G01X425970*
G03X425971Y473677I157J-0*
G01X425984Y473425D02*
G03X425971Y473677I-2362J0D01*
G01X421998Y475141D02*
G03X425984Y473425I1624J-1716D01*
G01X421998Y475141D02*
G03X422047Y475255I-108J114D01*
G01Y478150*
X422508Y479263D02*
G03X422047Y478150I1114J-1113D01*
G01X422508Y479263D02*
X422593Y479347D01*
G03X422639Y479459I-112J112*
G01X422639*
G03Y479463I-158J-0*
G01X422638Y479528D02*
G03X422639Y479463I2362J-0D01*
G01X422638Y479528D02*
X422638D01*
X426329Y481481D02*
G03X422638Y479528I-1329J-1953D01*
G01X426329Y481481D02*
G03X426575Y481611I88J130D01*
G01Y483338*
G03X426529Y483449I-158J-0*
G01X423605Y486372*
G03X423490Y486418I-111J-111*
G01X425787Y488780D02*
G03X423490Y486418I-2362J-0D01*
G01X425787Y488780D02*
X425787D01*
Y488715D02*
G03Y488780I-2362J65D01*
G01Y488715D02*
G03X425786Y488711I157J-4D01*
G01X425786*
G03X425833Y488599I158J-0*
G01X426052Y488380*
G03X426308Y488553I112J111*
G01X426181Y489173D02*
G03X426308Y488553I1575J0D01*
G01X426181Y489173D02*
Y495936D01*
G03X426135Y496047I-157J-0*
G01X423605Y498577*
G03X423490Y498623I-111J-112*
G01X425787Y500984D02*
G03X423490Y498623I-2362J0D01*
G01X425787Y500984D02*
X425787D01*
Y500920D02*
G03Y500984I-2362J64D01*
G01Y500920D02*
G03X425786Y500915I157J-5D01*
G01X425786*
G03X425833Y500804I158J0*
G01X428078Y498559*
G03X428346Y498670I111J111*
G01Y508800*
G03X428297Y508915I-157J0*
G01X431545D02*
G03X428297I-1624J1715D01*
G01X431545D02*
G03X431496Y508800I109J-115D01*
G01Y506731*
G03X431778Y506634I158J0*
G01X436594Y507925D02*
G03X431778Y506634I-1555J-3831D01*
G01X436594Y507925D02*
G03X436811Y508071I60J146D01*
G01X436811*
X436812Y508135D02*
G03X436811Y508071I2361J-64D01*
G01X436812Y508135D02*
G03Y508140I-158J5D01*
G01X436812*
G03X436766Y508251I-158J-0*
G01X435894Y509123*
X435433Y510236D02*
G03X435894Y509123I1575J0D01*
G01X435433Y510236D02*
Y517196D01*
G03X435387Y517307I-157J-0*
G01X427347Y525348*
G03X427235Y525394I-112J-112*
G01X416890*
G03X416732Y525236I-0J-158*
G01Y509495*
G03X416769Y509394I158J-0*
G01Y506354D02*
G03Y509394I-1808J1520D01*
G01Y506354D02*
G03X416732Y506253I121J-101D01*
G01Y497290*
G03X416769Y497189I158J0*
G01Y494150D02*
G03Y497189I-1808J1519D01*
G01Y494150D02*
G03X416732Y494048I121J-102D01*
G01Y485085*
G03X416769Y484984I158J0*
G01Y481945D02*
G03Y484984I-1808J1520D01*
G01Y481945D02*
G03X416732Y481844I121J-101D01*
G01Y471700*
G03X416769Y471598I158J-0*
G01Y468559D02*
G03Y471598I-1808J1520D01*
G01Y468559D02*
G03X416732Y468458I121J-101D01*
G01Y459495*
G03X416769Y459394I158J-0*
G01Y456354D02*
G03Y459394I-1808J1520D01*
G01Y456354D02*
G03X416732Y456253I121J-101D01*
G01Y447290*
G03X416769Y447189I158J0*
G01Y444150D02*
G03Y447189I-1808J1519D01*
G01Y444150D02*
G03X416732Y444048I121J-102D01*
G01Y436729*
G03X416978Y436599I158J-0*
G01X418372Y437007D02*
G03X416978Y436599I-65J-2361D01*
G01X418372Y437007D02*
G03X418487Y437053I4J157D01*
G01X419359Y437925*
X419973Y438305D02*
G03X419359Y437925I499J-1494D01*
G01X419973Y438305D02*
G03X420034Y438565I-50J149D01*
G01X418769Y439830*
X418307Y440945D02*
G03X418769Y439830I1575J-0D01*
G01X418307Y440945D02*
Y450394D01*
X418768Y451507D02*
G03X418307Y450394I1114J-1113D01*
G01X418768Y451507D02*
X420934Y453673D01*
X422047Y454134D02*
G03X420934Y453673I0J-1575D01*
G01X422047Y454134D02*
X424086D01*
G03X424197Y454180I-0J157*
G01X426530Y456513*
G03X426576Y456624I-112J111*
G01X426576*
G03Y456628I-158J0*
G01X426575Y456693D02*
G03X426576Y456628I2362J-0D01*
G01X426575Y456693D02*
X426575D01*
X427985Y458855D02*
G03X426575Y456693I952J-2162D01*
G01X427985Y458855D02*
G03X428033Y459110I-64J144D01*
G01X427740Y459403*
G03X427629Y459449I-111J-112*
G01X425452*
G03X425337Y459400I-0J-158*
G01X421942Y462685D02*
G03X425337Y459400I1680J-1661D01*
G01X421942Y462685D02*
G03Y462906I-112J110D01*
G01X425302D02*
G03X421942I-1680J1661D01*
G01X425302D02*
G03Y462685I112J-111D01*
G01X425337Y462648D02*
G03X425302Y462685I-1715J-1624D01*
G01X425337Y462648D02*
G03X425452Y462598I115J108D01*
G01X428346*
X429460Y462137D02*
G03X428346Y462598I-1114J-1113D01*
G01X429460Y462137D02*
X437137Y454460D01*
X437598Y453346D02*
G03X437137Y454460I-1574J0D01*
G01X437598Y453346D02*
Y450649D01*
G03X437648Y450534I158J-0*
G01X438386Y448819D02*
G03X437648Y450534I-2362J-0D01*
G01X438386Y448819D02*
X438386D01*
X438360Y448469D02*
G03X438386Y448819I-2336J350D01*
G01X438360Y448469D02*
G03X438627Y448334I156J-23D01*
G01X441096Y450803*
G03X441142Y450914I-112J111*
G01Y486057*
Y506319D02*
G03X440871Y506428I-158J-0D01*
G01X439081Y505710D02*
G03X440871Y506428I92J2361D01*
G01X439081Y505710D02*
G03X438927Y505500I-6J-157D01*
G01X439173Y504094D02*
G03X438927Y505500I-4134J0D01*
G01X431778Y501555D02*
G03X439173Y504094I3261J2539D01*
G01X431778Y501555D02*
G03X431496Y501458I-124J-97D01*
G01Y496731*
G03X431778Y496634I158J0*
G01X437999Y491208D02*
G03X431778Y496634I-2960J2886D01*
G01X437999Y491208D02*
G03X438101Y490941I113J-110D01*
G01X439106Y490484D02*
G03X438101Y490941I-1114J-1114D01*
G01X439106Y490484D02*
X439190Y490400D01*
G03X439305Y490353I111J111*
G01X440883Y489806D02*
G03X439305Y490353I-1513J-1814D01*
G01X440883Y489806D02*
G03X441142Y489927I101J121D01*
G01Y506319*
X434400Y450534D02*
G03X436373Y446483I1624J-1715D01*
G01X434400Y450534D02*
G03X434449Y450649I-109J115D01*
G01Y452629*
G03X434403Y452740I-158J-0*
G01X431354Y455789*
G03X431099Y455741I-111J-112*
G01X428872Y454332D02*
G03X431099Y455741I65J2361D01*
G01X428872Y454332D02*
G03X428757Y454286I-4J-158D01*
G01X425917Y451445*
X425375Y451092D02*
G03X425917Y451445I-572J1467D01*
G01X425375Y451092D02*
G03X425432Y450787I57J-147D01*
G01X428682*
G03X428796Y450837I0J158*
G01Y447589D02*
G03Y450837I1716J1624D01*
G01Y447589D02*
G03X428682Y447638I-114J-109D01*
G01X424861*
G03X424747Y447589I0J-158*
G01X421703Y447259D02*
G03X424747Y447589I1328J1954D01*
G01X421703Y447259D02*
G03X421457Y447129I-89J-130D01*
G01Y441662*
G03X421503Y441551I157J0*
G01X422063Y440991*
G03X422174Y440945I111J111*
G01X422186*
G03X422300Y440994I-0J157*
G01X424238Y441722D02*
G03X422300Y440994I-222J-2352D01*
G01X424238Y441722D02*
G03X424410Y441879I14J157D01*
G01X424410*
G03Y441882I-158J-0*
G01X424409Y441929D02*
G03X424410Y441882I2363J0D01*
G01X426550Y439577D02*
G03X424409Y441929I222J2352D01*
G01X426550Y439577D02*
G03X426377Y439421I-15J-156D01*
G01X426377*
G03Y439417I158J-0*
G01X426378Y439370D02*
G03X426377Y439417I-2362J0D01*
G01X426247Y438595D02*
G03X426378Y439370I-2231J775D01*
G01X426247Y438595D02*
G03X426396Y438386I149J-52D01*
G01X428613*
G03X428725Y438432I0J157*
G01X436508Y446216*
G03X436373Y446483I-111J111*
G01X453889Y537795D02*
X441072D01*
G03X440961Y537749I-0J-157*
G01X430291Y527080*
G03Y526857I112J-111*
G01X438121Y519027*
X438583Y517913D02*
G03X438121Y519027I-1575J0D01*
G01X438583Y517913D02*
Y514704D01*
G03X438804Y514560I157J0*
G01X439432Y514740D02*
G03X438804Y514560I332J-2338D01*
G01X439432Y514740D02*
G03X439567Y514896I-23J156D01*
G01Y519685*
X440028Y520799D02*
G03X439567Y519685I1114J-1114D01*
G01X440028Y520799D02*
X449757Y530527D01*
G03X449803Y530639I-111J112*
G01Y532677*
X450264Y533791D02*
G03X449803Y532677I1114J-1114D01*
G01X450264Y533791D02*
X454000Y537526D01*
G03X453889Y537795I-111J112*
G01X576181Y531890D02*
G03X576181I-4921J0D01*
G01X425394Y534646D02*
G03X425394I-2363J0D01*
G01X465551Y399606D02*
G03X465551I-3149J0D01*
G01X505118Y523819D02*
G03X505118I-2362J0D01*
G01X467717Y523031D02*
G03X467717I-2363J0D01*
G01X562040Y396377D02*
X585282D01*
X562199Y397085D02*
X584880D01*
X562140Y397794D02*
X583325D01*
X561842Y398503D02*
X582617D01*
X590280Y404881D02*
X591732D01*
X580769Y404172D02*
X591732D01*
X580060Y403463D02*
X591732D01*
X589510Y402755D02*
X591732D01*
X591130Y402046D02*
X591732D01*
X591422Y405589D02*
X591713D01*
X579352Y402755D02*
X587891D01*
X581478Y404881D02*
X587121D01*
X578810Y402046D02*
X586272D01*
X582186Y405589D02*
X585979D01*
X584236Y401337D02*
X585517D01*
X582895Y406298D02*
X585337D01*
X583604Y407007D02*
X584930D01*
X589931Y523936D02*
X591732D01*
X546751Y523227D02*
X591732D01*
X546849Y522518D02*
X591732D01*
X546787Y521810D02*
X591732D01*
X546551Y521101D02*
X591732D01*
X546176Y520392D02*
X591732D01*
X561603Y519684D02*
X591732D01*
X562318Y518975D02*
X591732D01*
X563027Y518266D02*
X591732D01*
X563736Y517558D02*
X591732D01*
X564444Y516849D02*
X591732D01*
X565153Y516140D02*
X591732D01*
X565862Y515432D02*
X591732D01*
X566570Y514723D02*
X591732D01*
X567279Y514014D02*
X591732D01*
X567988Y513306D02*
X591732D01*
X568696Y512597D02*
X591732D01*
X569405Y511888D02*
X591732D01*
X570057Y511180D02*
X591732D01*
X570387Y510471D02*
X591732D01*
X570472Y509762D02*
X591732D01*
X570472Y509054D02*
X591732D01*
X584250Y508345D02*
X591732D01*
X585199Y507637D02*
X591732D01*
X585687Y506928D02*
X591732D01*
X585943Y506219D02*
X591732D01*
X586024Y505511D02*
X591732D01*
X586024Y504802D02*
X591732D01*
X586024Y504093D02*
X591732D01*
X586024Y503385D02*
X591732D01*
X586024Y502676D02*
X591732D01*
X586024Y501967D02*
X591732D01*
X586024Y501259D02*
X591732D01*
X586024Y500550D02*
X591732D01*
X586024Y499841D02*
X591732D01*
X586024Y499133D02*
X591732D01*
X586024Y498424D02*
X591732D01*
X586049Y497715D02*
X591732D01*
X586312Y497007D02*
X591732D01*
X587060Y496298D02*
X591732D01*
X591487Y524644D02*
X591662D01*
X575771Y533857D02*
X587831D01*
X546473Y523936D02*
X587471D01*
X576017Y533148D02*
X586594D01*
X575390Y534566D02*
X586033D01*
X545951Y524644D02*
X585914D01*
X576150Y532440D02*
X585501D01*
X574833Y535274D02*
X585168D01*
X544901Y525353D02*
X585094D01*
X576179Y531731D02*
X584823D01*
X401751Y541652D02*
X584651D01*
X573992Y535983D02*
X584598D01*
X526362Y526062D02*
X584547D01*
X576104Y531022D02*
X584361D01*
X502426Y540944D02*
X584320D01*
X572337Y536692D02*
X584208D01*
X525654Y526770D02*
X584174D01*
X575922Y530314D02*
X584051D01*
X503724Y540235D02*
X584025D01*
X517386Y537400D02*
X583954D01*
X573443Y527479D02*
X583934D01*
X575619Y529605D02*
X583863D01*
X504433Y539526D02*
X583849D01*
X516677Y538109D02*
X583815D01*
X574502Y528188D02*
X583806D01*
X575166Y528896D02*
X583783D01*
X515847Y538818D02*
X583781D01*
X570472Y508345D02*
X571262D01*
X518095Y536692D02*
X570182D01*
X524945Y527479D02*
X569077D01*
X518803Y535983D02*
X568528D01*
X524236Y528188D02*
X568017D01*
X519512Y535274D02*
X567687D01*
X523528Y528896D02*
X567354D01*
X537527Y534566D02*
X567130D01*
X522819Y529605D02*
X566901D01*
X538337Y533857D02*
X566749D01*
X537358Y530314D02*
X566598D01*
X538683Y533148D02*
X566502D01*
X538276Y531022D02*
X566416D01*
X538779Y532440D02*
X566369D01*
X538658Y531731D02*
X566341D01*
X540964Y525353D02*
X542501D01*
X525781Y516140D02*
X540224D01*
X526360Y516849D02*
X539653D01*
X527068Y517558D02*
X538999D01*
X527777Y518266D02*
X538669D01*
X528261Y518975D02*
X538583D01*
X527071Y525353D02*
X538564D01*
X528346Y519684D02*
X538241D01*
X527780Y524644D02*
X537513D01*
X528346Y520392D02*
X537371D01*
X528261Y523936D02*
X536991D01*
X528346Y521101D02*
X536913D01*
X528346Y523227D02*
X536714D01*
X528346Y521810D02*
X536678D01*
X528346Y522518D02*
X536615D01*
X522110Y530314D02*
X535476D01*
X520221Y534566D02*
X535308D01*
X402173Y540944D02*
X440290D01*
X404114Y540235D02*
X438992D01*
X404908Y539526D02*
X438283D01*
X405617Y538818D02*
X437575D01*
X406326Y538109D02*
X436866D01*
X407034Y537400D02*
X436157D01*
X424212Y536692D02*
X435449D01*
X424979Y535983D02*
X434740D01*
X425309Y535274D02*
X434031D01*
X425392Y534566D02*
X433323D01*
X425258Y533857D02*
X432614D01*
X424859Y533148D02*
X431905D01*
X423876Y532440D02*
X431197D01*
X412704Y531731D02*
X430488D01*
X413412Y531022D02*
X429779D01*
X414121Y530314D02*
X429071D01*
X414830Y529605D02*
X428362D01*
X415538Y528896D02*
X427653D01*
X411995Y532440D02*
X422187D01*
X407743Y536692D02*
X421851D01*
X411286Y533148D02*
X421204D01*
X408452Y535983D02*
X421084D01*
X410578Y533857D02*
X420805D01*
X409160Y535274D02*
X420754D01*
X409869Y534566D02*
X420671D01*
X567670Y411967D02*
X581787D01*
X566961Y411259D02*
X581079D01*
X568379Y412676D02*
X580868D01*
X566253Y410550D02*
X580370D01*
X569087Y413385D02*
X580238D01*
X570629Y415511D02*
X580118D01*
X569796Y414093D02*
X579969D01*
X570374Y414802D02*
X579933D01*
X573191Y409841D02*
X579661D01*
X574105Y409133D02*
X578953D01*
X574485Y408424D02*
X578244D01*
X574606Y407715D02*
X577535D01*
X574509Y407007D02*
X576827D01*
X574162Y406298D02*
X576118D01*
X573349Y405589D02*
X575409D01*
X565544Y409841D02*
X571297D01*
X570697Y416219D02*
X570981D01*
X564835Y409133D02*
X570383D01*
X564127Y408424D02*
X570003D01*
X563418Y407715D02*
X569882D01*
X562709Y407007D02*
X569346D01*
X546191Y415511D02*
X562163D01*
X546605Y414802D02*
X561461D01*
X546809Y414093D02*
X560753D01*
X546844Y413385D02*
X560044D01*
X546717Y412676D02*
X559335D01*
X546430Y411967D02*
X558627D01*
X545424Y416219D02*
X546571D01*
X521323Y416928D02*
X545771D01*
X520614Y417637D02*
X545342D01*
X519906Y418345D02*
X545128D01*
X544124Y431810D02*
X545079D01*
X543415Y431101D02*
X545079D01*
X542707Y430392D02*
X545079D01*
X541998Y429684D02*
X545079D01*
X541289Y428975D02*
X545079D01*
X540581Y428266D02*
X545079D01*
X539872Y427558D02*
X545079D01*
X539163Y426849D02*
X545079D01*
X538455Y426140D02*
X545079D01*
X537746Y425432D02*
X545079D01*
X537026Y424723D02*
X545079D01*
X507195Y424014D02*
X545079D01*
X506486Y423306D02*
X545079D01*
X505778Y422597D02*
X545079D01*
X505069Y421888D02*
X545079D01*
X504360Y421180D02*
X545079D01*
X517190Y420471D02*
X545079D01*
X518488Y419762D02*
X545079D01*
X519197Y419054D02*
X545079D01*
X544839Y432518D02*
X545004D01*
X541487Y416219D02*
X541978D01*
X536953Y407007D02*
X541031D01*
X536244Y407715D02*
X540322D01*
X535536Y408424D02*
X539613D01*
X534827Y409133D02*
X538973D01*
X534118Y409841D02*
X538658D01*
X533410Y410550D02*
X538583D01*
X522032Y416219D02*
X538041D01*
X532701Y411259D02*
X537638D01*
X522740Y415511D02*
X537273D01*
X531934Y411967D02*
X537060D01*
X523449Y414802D02*
X536860D01*
X525575Y412676D02*
X536748D01*
X524158Y414093D02*
X536656D01*
X524866Y413385D02*
X536620D01*
X503776Y420471D02*
X504463D01*
X547714Y448109D02*
X553154D01*
X547736Y447400D02*
X552970D01*
X547736Y446692D02*
X552786D01*
X547736Y445983D02*
X552756D01*
X547545Y448818D02*
X552680D01*
X547178Y449526D02*
X552434D01*
X552237Y465117D02*
X552421D01*
X551526Y464408D02*
X552371D01*
X550817Y463699D02*
X552362D01*
X550108Y462991D02*
X552362D01*
X549400Y462282D02*
X552362D01*
X548691Y461574D02*
X552362D01*
X547982Y460865D02*
X552362D01*
X547274Y460156D02*
X552362D01*
X546565Y459448D02*
X552362D01*
X545856Y458739D02*
X552362D01*
X545148Y458030D02*
X552362D01*
X544408Y457322D02*
X552362D01*
X526998Y456613D02*
X552362D01*
X526289Y455904D02*
X552362D01*
X525581Y455196D02*
X552362D01*
X524872Y454487D02*
X552362D01*
X524163Y453778D02*
X552362D01*
X523455Y453070D02*
X552362D01*
X522746Y452361D02*
X552362D01*
X522037Y451652D02*
X552362D01*
X521399Y450944D02*
X552362D01*
X546504Y450235D02*
X552362D01*
X547736Y445274D02*
X550942D01*
X547736Y444566D02*
X549925D01*
X547736Y443857D02*
X549460D01*
X547736Y443148D02*
X549247D01*
X547736Y442440D02*
X548629D01*
X491696Y396377D02*
X508795D01*
X491724Y397085D02*
X508086D01*
X491588Y397794D02*
X507378D01*
X510971Y399211D02*
X533175D01*
X510263Y399920D02*
X532499D01*
X509554Y400629D02*
X531790D01*
X508845Y401337D02*
X531081D01*
X521888Y402046D02*
X530373D01*
X522517Y402755D02*
X529664D01*
X522787Y403463D02*
X528955D01*
X522935Y404172D02*
X528247D01*
X503604Y413385D02*
X520159D01*
X506836Y414093D02*
X519703D01*
X502010Y402046D02*
X519057D01*
X507896Y414802D02*
X518995D01*
X502899Y412676D02*
X518784D01*
X502082Y405589D02*
X518784D01*
X509372Y409133D02*
X518784D01*
X509612Y409841D02*
X518427D01*
X507339Y406298D02*
X518427D01*
X502439Y402755D02*
X518427D01*
X508891Y411967D02*
X518307D01*
X508858Y408424D02*
X518307D01*
X502559Y404881D02*
X518307D01*
X508315Y415511D02*
X518286D01*
X509625Y410550D02*
X518158D01*
X508053Y407007D02*
X518158D01*
X502708Y403463D02*
X518158D01*
X509413Y411259D02*
X518122D01*
X508669Y407715D02*
X518122D01*
X502744Y404172D02*
X518122D01*
X508462Y416219D02*
X517577D01*
X508390Y416928D02*
X516869D01*
X505573Y411967D02*
X505648D01*
X504312Y414093D02*
X505369D01*
X464978Y397794D02*
X485578D01*
X457946Y396377D02*
X485469D01*
X464290Y397085D02*
X485442D01*
X465352Y398503D02*
X482750D01*
X465526Y399211D02*
X481748D01*
X465536Y399920D02*
X481039D01*
X465381Y400629D02*
X480330D01*
X465033Y401337D02*
X479622D01*
X464394Y402046D02*
X478913D01*
X462492Y402755D02*
X478204D01*
X395669Y403463D02*
X477496D01*
X455337Y402755D02*
X462311D01*
X458333Y397085D02*
X460513D01*
X456956Y402046D02*
X460410D01*
X458561Y397794D02*
X459826D01*
X457712Y401337D02*
X459770D01*
X458657Y398503D02*
X459452D01*
X458184Y400629D02*
X459422D01*
X458630Y399211D02*
X459277D01*
X458478Y399920D02*
X459268D01*
X399510Y402755D02*
X453718D01*
X401130Y402046D02*
X452099D01*
X401885Y401337D02*
X451344D01*
X445996Y396377D02*
X451109D01*
X444098Y400629D02*
X450871D01*
X446211Y397085D02*
X450722D01*
X445281Y399920D02*
X450578D01*
X446256Y397794D02*
X450494D01*
X445839Y399211D02*
X450425D01*
X446139Y398503D02*
X450398D01*
X402358Y400629D02*
X442123D01*
X402651Y399920D02*
X440940D01*
X402803Y399211D02*
X440382D01*
X402119Y396377D02*
X440224D01*
X402830Y398503D02*
X440082D01*
X402506Y397085D02*
X440009D01*
X402734Y397794D02*
X439964D01*
X395669Y404172D02*
X424819D01*
X400280Y404881D02*
X424110D01*
X401422Y405589D02*
X423401D01*
X402065Y406298D02*
X422693D01*
X402472Y407007D02*
X421984D01*
X402715Y407715D02*
X421275D01*
X402825Y408424D02*
X420567D01*
X402812Y409133D02*
X419858D01*
X402674Y409841D02*
X419149D01*
X402398Y410550D02*
X418441D01*
X401948Y411259D02*
X417732D01*
X401234Y411967D02*
X417023D01*
X399836Y412676D02*
X416315D01*
X395669Y413385D02*
X415606D01*
X395669Y414093D02*
X414897D01*
X400075Y414802D02*
X414189D01*
X401330Y415511D02*
X413516D01*
X402007Y416219D02*
X413217D01*
X401883Y526062D02*
X413189D01*
X401126Y525353D02*
X413189D01*
X399497Y524644D02*
X413189D01*
X395669Y523936D02*
X413189D01*
X395669Y523227D02*
X413189D01*
X395669Y522518D02*
X413189D01*
X395669Y521810D02*
X413189D01*
X395669Y521101D02*
X413189D01*
X395669Y520392D02*
X413189D01*
X395669Y519684D02*
X413189D01*
X395669Y518975D02*
X413189D01*
X395669Y518266D02*
X413189D01*
X395669Y517558D02*
X413189D01*
X395669Y516849D02*
X413189D01*
X395669Y516140D02*
X413189D01*
X395669Y515432D02*
X413189D01*
X395669Y514723D02*
X413189D01*
X395669Y514014D02*
X413189D01*
X395669Y513306D02*
X413189D01*
X400082Y512597D02*
X413189D01*
X401333Y511888D02*
X413189D01*
X402009Y511180D02*
X413189D01*
X402436Y510471D02*
X413189D01*
X402696Y509762D02*
X413189D01*
X402007Y506219D02*
X413189D01*
X401330Y505511D02*
X413189D01*
X400075Y504802D02*
X413189D01*
X395669Y504093D02*
X413189D01*
X395669Y503385D02*
X413189D01*
X399836Y502676D02*
X413189D01*
X401234Y501967D02*
X413189D01*
X401948Y501259D02*
X413189D01*
X402398Y500550D02*
X413189D01*
X402674Y499841D02*
X413189D01*
X402812Y499133D02*
X413189D01*
X402825Y498424D02*
X413189D01*
X402715Y497715D02*
X413189D01*
X395669Y493463D02*
X413189D01*
X399510Y492755D02*
X413189D01*
X401130Y492046D02*
X413189D01*
X401885Y491337D02*
X413189D01*
X402358Y490629D02*
X413189D01*
X402651Y489920D02*
X413189D01*
X402803Y489211D02*
X413189D01*
X402830Y488503D02*
X413189D01*
X402734Y487794D02*
X413189D01*
X402506Y487085D02*
X413189D01*
X402119Y486377D02*
X413189D01*
X401510Y485668D02*
X413189D01*
X401818Y481416D02*
X413189D01*
X402315Y480707D02*
X413189D01*
X402626Y479999D02*
X413189D01*
X402792Y479290D02*
X413189D01*
X402833Y478581D02*
X413189D01*
X402751Y477873D02*
X413189D01*
X402538Y477164D02*
X413189D01*
X402172Y476455D02*
X413189D01*
X401593Y475747D02*
X413189D01*
X400617Y475038D02*
X413189D01*
X395669Y474329D02*
X413189D01*
X395669Y473621D02*
X413189D01*
X395669Y472912D02*
X413189D01*
X400896Y472203D02*
X413189D01*
X402766Y467951D02*
X413189D01*
X402569Y467243D02*
X413189D01*
X402221Y466534D02*
X413189D01*
X401671Y465825D02*
X413189D01*
X400761Y465117D02*
X413189D01*
X395669Y464408D02*
X413189D01*
X395669Y463699D02*
X413189D01*
X395669Y462991D02*
X413189D01*
X400765Y462282D02*
X413189D01*
X401673Y461574D02*
X413189D01*
X402223Y460865D02*
X413189D01*
X402570Y460156D02*
X413189D01*
X401745Y455904D02*
X413189D01*
X400892Y455196D02*
X413189D01*
X395669Y454487D02*
X413189D01*
X395669Y453778D02*
X413189D01*
X395669Y453070D02*
X413189D01*
X400622Y452361D02*
X413189D01*
X401595Y451652D02*
X413189D01*
X402173Y450944D02*
X413189D01*
X402539Y450235D02*
X413189D01*
X402751Y449526D02*
X413189D01*
X402833Y448818D02*
X413189D01*
X402792Y448109D02*
X413189D01*
X402625Y447400D02*
X413189D01*
X395669Y443857D02*
X413189D01*
X395669Y443148D02*
X413189D01*
X400464Y442440D02*
X413189D01*
X401513Y441731D02*
X413189D01*
X402121Y441022D02*
X413189D01*
X402507Y440314D02*
X413189D01*
X402735Y439605D02*
X413189D01*
X402830Y438896D02*
X413189D01*
X402803Y438188D02*
X413189D01*
X402650Y437479D02*
X413189D01*
X402356Y436770D02*
X413189D01*
X401883Y436062D02*
X413189D01*
X401126Y435353D02*
X413189D01*
X399497Y434644D02*
X413189D01*
X395669Y433936D02*
X413189D01*
X395669Y433227D02*
X413189D01*
X400287Y432518D02*
X413189D01*
X401425Y431810D02*
X413189D01*
X402066Y431101D02*
X413189D01*
X402473Y430392D02*
X413189D01*
X402716Y429684D02*
X413189D01*
X402826Y428975D02*
X413189D01*
X402812Y428266D02*
X413189D01*
X402674Y427558D02*
X413189D01*
X402397Y426849D02*
X413189D01*
X401946Y426140D02*
X413189D01*
X401231Y425432D02*
X413189D01*
X399826Y424723D02*
X413189D01*
X395669Y424014D02*
X413189D01*
X395669Y423306D02*
X413189D01*
X400082Y422597D02*
X413189D01*
X401333Y421888D02*
X413189D01*
X402009Y421180D02*
X413189D01*
X402436Y420471D02*
X413189D01*
X402696Y419762D02*
X413189D01*
X402820Y419054D02*
X413189D01*
X402819Y418345D02*
X413189D01*
X402695Y417637D02*
X413189D01*
X402435Y416928D02*
X413189D01*
X402767Y459448D02*
X413182D01*
X395669Y494172D02*
X413134D01*
X400459Y484959D02*
X413131D01*
X402834Y468660D02*
X413072D01*
X401748Y471495D02*
X413070D01*
X401017Y482125D02*
X413015D01*
X402472Y497007D02*
X413013D01*
X402269Y456613D02*
X412963D01*
X402820Y509054D02*
X412914D01*
X395669Y444566D02*
X412872D01*
X402314Y446692D02*
X412831D01*
X402435Y506928D02*
X412796D01*
X402834Y458739D02*
X412762D01*
X400280Y494881D02*
X412734D01*
X395669Y484251D02*
X412733D01*
X402780Y469369D02*
X412708D01*
X402270Y470786D02*
X412707D01*
X398805Y482833D02*
X412684D01*
X402065Y496298D02*
X412684D01*
X402598Y457322D02*
X412664D01*
X402356Y526770D02*
X412653D01*
X402819Y508345D02*
X412646D01*
X401013Y445274D02*
X412632D01*
X401816Y445983D02*
X412619D01*
X402695Y507637D02*
X412610D01*
X402780Y458030D02*
X412604D01*
X401422Y495589D02*
X412600D01*
X395669Y483542D02*
X412600D01*
X402599Y470077D02*
X412598D01*
X402650Y527479D02*
X411945D01*
X402803Y528188D02*
X411236D01*
X402830Y528896D02*
X410527D01*
X402735Y529605D02*
X409819D01*
X402507Y530314D02*
X409110D01*
X402121Y531022D02*
X408401D01*
X401513Y531731D02*
X407693D01*
X400464Y532440D02*
X406984D01*
X395669Y533148D02*
X406275D01*
X395669Y533857D02*
X405567D01*
X395669Y534566D02*
X404858D01*
X401013Y535274D02*
X404149D01*
X401816Y535983D02*
X403441D01*
X402314Y536692D02*
X402732D01*
X395669Y482833D02*
X398597D01*
X395669Y524644D02*
X397904D01*
X395669Y434644D02*
X397904D01*
X395669Y492755D02*
X397891D01*
X395669Y402755D02*
X397891D01*
X395669Y424723D02*
X397575D01*
X395669Y502676D02*
X397566D01*
X395669Y412676D02*
X397566D01*
X395669Y504802D02*
X397327D01*
X395669Y414802D02*
X397327D01*
X395669Y512597D02*
X397320D01*
X395669Y422597D02*
X397320D01*
X395669Y494881D02*
X397121D01*
X395669Y404881D02*
X397121D01*
X395669Y432518D02*
X397115D01*
X395669Y484959D02*
X396943D01*
X395669Y532440D02*
X396937D01*
X395669Y442440D02*
X396937D01*
X395669Y475038D02*
X396784D01*
X395669Y452361D02*
X396779D01*
X395669Y465117D02*
X396641D01*
X395669Y462282D02*
X396636D01*
X395669Y455196D02*
X396509D01*
X395669Y472203D02*
X396505D01*
X395669Y535274D02*
X396388D01*
X395669Y445274D02*
X396388D01*
X395669Y482125D02*
X396384D01*
X395669Y525353D02*
X396276D01*
X395669Y435353D02*
X396276D01*
X395669Y492046D02*
X396272D01*
X395669Y402046D02*
X396272D01*
X395669Y425432D02*
X396170D01*
X395669Y501967D02*
X396167D01*
X395669Y411967D02*
X396167D01*
X395669Y505511D02*
X396072D01*
X395669Y415511D02*
X396072D01*
X395669Y511888D02*
X396069D01*
X395669Y421888D02*
X396069D01*
X395688Y495589D02*
X395979D01*
X395688Y405589D02*
X395979D01*
X395690Y431810D02*
X395976D01*
X395794Y485668D02*
X395859D01*
X395810Y531731D02*
X395843D01*
X395810Y441731D02*
X395843D01*
X483924Y402046D02*
X495000D01*
X483215Y402755D02*
X494769D01*
X482507Y403463D02*
X489388D01*
X481798Y404172D02*
X488680D01*
X481089Y404881D02*
X487971D01*
X480381Y405589D02*
X487262D01*
X479672Y406298D02*
X486554D01*
X478676Y407007D02*
X485845D01*
X474470Y459448D02*
X485567D01*
X426286Y407715D02*
X485136D01*
X473761Y458739D02*
X484858D01*
X475179Y460156D02*
X484754D01*
X425578Y408424D02*
X484428D01*
X475887Y460865D02*
X484153D01*
X473053Y458030D02*
X484150D01*
X476596Y461574D02*
X483867D01*
X463457Y409133D02*
X483719D01*
X472344Y457322D02*
X483441D01*
X463958Y409841D02*
X483010D01*
X471635Y456613D02*
X482732D01*
X464157Y410550D02*
X482302D01*
X470927Y455904D02*
X482024D01*
X464133Y411259D02*
X481593D01*
X470866Y455196D02*
X481315D01*
X463880Y411967D02*
X480884D01*
X470866Y454487D02*
X480606D01*
X463281Y412676D02*
X480176D01*
X470866Y453778D02*
X479898D01*
X461480Y413385D02*
X479467D01*
X470866Y453070D02*
X479189D01*
X460772Y414093D02*
X478758D01*
X470866Y452361D02*
X478494D01*
X460063Y414802D02*
X478250D01*
X470866Y451652D02*
X478174D01*
X470866Y450944D02*
X478150D01*
X470866Y450235D02*
X478150D01*
X470866Y449526D02*
X478150D01*
X470866Y448818D02*
X478150D01*
X470866Y448109D02*
X478150D01*
X470866Y447400D02*
X478150D01*
X470866Y446692D02*
X478150D01*
X470866Y445983D02*
X478150D01*
X470866Y445274D02*
X478150D01*
X470866Y444566D02*
X478150D01*
X470734Y443857D02*
X478150D01*
X470179Y443148D02*
X478150D01*
X469470Y442440D02*
X478150D01*
X468761Y441731D02*
X478150D01*
X468053Y441022D02*
X478150D01*
X467344Y440314D02*
X478150D01*
X466635Y439605D02*
X478150D01*
X465927Y438896D02*
X478150D01*
X465218Y438188D02*
X478150D01*
X464509Y437479D02*
X478150D01*
X463801Y436770D02*
X478150D01*
X463092Y436062D02*
X478150D01*
X462383Y435353D02*
X478150D01*
X461675Y434644D02*
X478150D01*
X460966Y433936D02*
X478150D01*
X460257Y433227D02*
X478150D01*
X459843Y432518D02*
X478150D01*
X459843Y431810D02*
X478150D01*
X459843Y431101D02*
X478150D01*
X459843Y430392D02*
X478150D01*
X459843Y429684D02*
X478150D01*
X459843Y428975D02*
X478150D01*
X459843Y428266D02*
X478150D01*
X459792Y427558D02*
X478150D01*
X459391Y426849D02*
X478150D01*
X458683Y426140D02*
X478150D01*
X457974Y425432D02*
X478150D01*
X457265Y424723D02*
X478150D01*
X456557Y424014D02*
X478150D01*
X455848Y423306D02*
X478150D01*
X455139Y422597D02*
X478150D01*
X454431Y421888D02*
X478150D01*
X453722Y421180D02*
X478150D01*
X453013Y420471D02*
X478150D01*
X452362Y419762D02*
X478150D01*
X452276Y419054D02*
X478150D01*
X451945Y418345D02*
X478150D01*
X451176Y417637D02*
X478150D01*
X448685Y416928D02*
X478150D01*
X458476Y416219D02*
X478150D01*
X459354Y415511D02*
X478150D01*
X424869Y409133D02*
X460165D01*
X424160Y409841D02*
X459664D01*
X423452Y410550D02*
X459465D01*
X422743Y411259D02*
X459152D01*
X422034Y411967D02*
X458443D01*
X421326Y412676D02*
X457735D01*
X447976Y417637D02*
X448824D01*
X447268Y418345D02*
X448055D01*
X420617Y413385D02*
X447862D01*
X446559Y419054D02*
X447724D01*
X445953Y419762D02*
X447639D01*
X419908Y414093D02*
X447065D01*
X419200Y414802D02*
X446357D01*
X436751Y415511D02*
X445648D01*
X439509Y416219D02*
X444940D01*
X440218Y416928D02*
X444231D01*
X440927Y417637D02*
X443522D01*
X441543Y418345D02*
X442814D01*
X441732Y419054D02*
X442105D01*
X416732Y426140D02*
X438583D01*
X416732Y425432D02*
X438583D01*
X416732Y424723D02*
X438583D01*
X416732Y424014D02*
X438583D01*
X416732Y423306D02*
X438583D01*
X416732Y422597D02*
X438583D01*
X416732Y421888D02*
X438583D01*
X416732Y421180D02*
X438583D01*
X416732Y420471D02*
X438583D01*
X416732Y419762D02*
X438575D01*
X436844Y419054D02*
X437890D01*
X416732Y431101D02*
X437225D01*
X416732Y426849D02*
X435986D01*
X416732Y430392D02*
X435713D01*
X416732Y431810D02*
X435684D01*
X416732Y427558D02*
X435357D01*
X416732Y429684D02*
X435236D01*
X416732Y428266D02*
X435087D01*
X416732Y428975D02*
X435051D01*
X419334Y432518D02*
X434623D01*
X420196Y433227D02*
X434205D01*
X420669Y434644D02*
X434100D01*
X420560Y433936D02*
X434058D01*
X418491Y415511D02*
X433721D01*
X416732Y419054D02*
X433629D01*
X417782Y416219D02*
X433148D01*
X416732Y418345D02*
X433107D01*
X429926Y435353D02*
X432960D01*
X417074Y416928D02*
X432907D01*
X416732Y417637D02*
X432895D01*
X430809Y436062D02*
X432481D01*
X431517Y436770D02*
X432295D01*
X416732Y432518D02*
X417280D01*
X501451Y427558D02*
X504255D01*
X500696Y426849D02*
X503905D01*
X499987Y426140D02*
X503196D01*
X499279Y425432D02*
X502488D01*
X498570Y424723D02*
X501779D01*
X497861Y424014D02*
X501070D01*
X497153Y423306D02*
X500362D01*
X496444Y422597D02*
X499653D01*
X495735Y421888D02*
X498944D01*
X493606Y415511D02*
X498913D01*
X492898Y416219D02*
X498367D01*
X494315Y414802D02*
X498205D01*
X495024Y414093D02*
X497496D01*
X495027Y421180D02*
X497471D01*
X492189Y416928D02*
X497088D01*
X494321Y420471D02*
X496753D01*
X491629Y417637D02*
X496565D01*
X494198Y419762D02*
X496399D01*
X493288Y418345D02*
X496316D01*
X493898Y419054D02*
X496264D01*
X518494Y448109D02*
X519215D01*
X517785Y447400D02*
X519193D01*
X517077Y446692D02*
X519193D01*
X516368Y445983D02*
X519193D01*
X515659Y445274D02*
X519193D01*
X514951Y444566D02*
X519193D01*
X514242Y443857D02*
X519193D01*
X513533Y443148D02*
X519193D01*
X512825Y442440D02*
X519193D01*
X512116Y441731D02*
X519193D01*
X511407Y441022D02*
X519193D01*
X510699Y440314D02*
X519193D01*
X519000Y439605D02*
X519071D01*
X509990D02*
X515668D01*
X509281Y438896D02*
X515007D01*
X508573Y438188D02*
X514681D01*
X507864Y437479D02*
X514567D01*
X507156Y436770D02*
X513908D01*
X506447Y436062D02*
X513199D01*
X505738Y435353D02*
X512490D01*
X505030Y434644D02*
X511782D01*
X504321Y433936D02*
X511073D01*
X503612Y433227D02*
X510364D01*
X503376Y432518D02*
X509656D01*
X502991Y431810D02*
X508947D01*
X544211Y463699D02*
X544445D01*
X524436Y462991D02*
X543984D01*
X523728Y462282D02*
X543275D01*
X523019Y461574D02*
X542566D01*
X525145Y463699D02*
X527501D01*
X525639Y464408D02*
X526378D01*
X522310Y460865D02*
X525189D01*
X521602Y460156D02*
X524417D01*
X520893Y459448D02*
X523708D01*
X520184Y458739D02*
X522999D01*
X519476Y458030D02*
X522291D01*
X518767Y457322D02*
X521582D01*
X518058Y456613D02*
X520873D01*
X517350Y455904D02*
X520165D01*
X516641Y455196D02*
X519456D01*
X515932Y454487D02*
X518747D01*
X515224Y453778D02*
X518039D01*
X514515Y453070D02*
X517330D01*
X513806Y452361D02*
X516621D01*
X513098Y451652D02*
X515913D01*
X512389Y450944D02*
X515204D01*
X511680Y450235D02*
X514495D01*
X510972Y449526D02*
X513787D01*
X510263Y448818D02*
X513078D01*
X509554Y448109D02*
X512369D01*
X508846Y447400D02*
X511661D01*
X508137Y446692D02*
X510952D01*
X507428Y445983D02*
X510243D01*
X506720Y445274D02*
X509535D01*
X506011Y444566D02*
X508826D01*
X505302Y443857D02*
X508118D01*
X504594Y443148D02*
X507409D01*
X503885Y442440D02*
X506700D01*
X503176Y441731D02*
X505992D01*
X502468Y441022D02*
X505283D01*
X501759Y440314D02*
X504574D01*
X501050Y439605D02*
X503866D01*
X500342Y438896D02*
X503157D01*
X499633Y438188D02*
X502448D01*
X498924Y437479D02*
X501740D01*
X498216Y436770D02*
X501031D01*
X497507Y436062D02*
X499865D01*
X493599Y431101D02*
X499282D01*
X496798Y435353D02*
X498780D01*
X492880Y430392D02*
X498671D01*
X493954Y431810D02*
X498584D01*
X496090Y434644D02*
X498297D01*
X494090Y432518D02*
X498199D01*
X495381Y433936D02*
X498072D01*
X494672Y433227D02*
X498042D01*
X489173Y429684D02*
X497963D01*
X489173Y428975D02*
X497254D01*
X489173Y428266D02*
X496546D01*
X489173Y427558D02*
X495837D01*
X489173Y426849D02*
X495128D01*
X489173Y426140D02*
X494420D01*
X489173Y425432D02*
X493711D01*
X489173Y424723D02*
X493002D01*
X489173Y424014D02*
X492294D01*
X489173Y423306D02*
X491585D01*
X489173Y430392D02*
X489797D01*
X489173Y422597D02*
X489780D01*
X517274Y482125D02*
X545445D01*
X517982Y482833D02*
X545250D01*
X518691Y483542D02*
X545095D01*
X544518Y495589D02*
X545079D01*
X543809Y494881D02*
X545079D01*
X543100Y494172D02*
X545079D01*
X542392Y493463D02*
X545079D01*
X541532Y492755D02*
X545079D01*
X527195Y492046D02*
X545079D01*
X526486Y491337D02*
X545079D01*
X525778Y490629D02*
X545079D01*
X525069Y489920D02*
X545079D01*
X524360Y489211D02*
X545079D01*
X523652Y488503D02*
X545079D01*
X522943Y487794D02*
X545079D01*
X522234Y487085D02*
X545079D01*
X521526Y486377D02*
X545079D01*
X520817Y485668D02*
X545079D01*
X520108Y484959D02*
X545079D01*
X519400Y484251D02*
X545079D01*
X516565Y481416D02*
X526994D01*
X515856Y480707D02*
X526332D01*
X515354Y479999D02*
X525972D01*
X515354Y479290D02*
X525807D01*
X515354Y478581D02*
X525787D01*
X515354Y477873D02*
X525787D01*
X515354Y477164D02*
X525787D01*
X515354Y476455D02*
X525787D01*
X515354Y475747D02*
X525787D01*
X515354Y475038D02*
X525787D01*
X515354Y474329D02*
X525787D01*
X515354Y473621D02*
X525787D01*
X515354Y472912D02*
X525787D01*
X515354Y472203D02*
X525787D01*
X524741Y471495D02*
X525787D01*
X515354D02*
X522897D01*
X515354Y466534D02*
X521850D01*
X515354Y470786D02*
X521812D01*
X515354Y465825D02*
X521703D01*
X515354Y467243D02*
X521615D01*
X515354Y470077D02*
X521328D01*
X515354Y467951D02*
X521230D01*
X515354Y469369D02*
X521104D01*
X515354Y468660D02*
X521073D01*
X515354Y465117D02*
X520994D01*
X515354Y464408D02*
X520286D01*
X515354Y463699D02*
X519577D01*
X515354Y462991D02*
X518868D01*
X515293Y462282D02*
X518160D01*
X514977Y461574D02*
X517451D01*
X514321Y460865D02*
X516742D01*
X513612Y460156D02*
X516034D01*
X512904Y459448D02*
X515325D01*
X512195Y458739D02*
X514616D01*
X511486Y458030D02*
X513908D01*
X510778Y457322D02*
X513199D01*
X510069Y456613D02*
X512490D01*
X509360Y455904D02*
X511782D01*
X508652Y455196D02*
X511073D01*
X507943Y454487D02*
X510364D01*
X507234Y453778D02*
X509656D01*
X506526Y453070D02*
X508947D01*
X505817Y452361D02*
X508238D01*
X505108Y451652D02*
X507530D01*
X504400Y450944D02*
X506821D01*
X503691Y450235D02*
X506112D01*
X502982Y449526D02*
X505404D01*
X502274Y448818D02*
X504695D01*
X502012Y448109D02*
X503986D01*
X501642Y447400D02*
X503278D01*
X500891Y446692D02*
X502569D01*
X493063Y445983D02*
X501860D01*
X493389Y445274D02*
X501152D01*
X493503Y444566D02*
X500443D01*
X493431Y443857D02*
X499734D01*
X493156Y443148D02*
X499026D01*
X492592Y442440D02*
X498317D01*
X493176Y446692D02*
X497928D01*
X489173Y441731D02*
X497608D01*
X493885Y447400D02*
X497177D01*
X489173Y441022D02*
X496900D01*
X494594Y448109D02*
X496807D01*
X496011Y449526D02*
X496701D01*
X495302Y448818D02*
X496661D01*
X489173Y440314D02*
X496191D01*
X489173Y439605D02*
X495483D01*
X489173Y438896D02*
X494774D01*
X489173Y438188D02*
X494065D01*
X489173Y437479D02*
X493357D01*
X489173Y436770D02*
X492648D01*
X489173Y436062D02*
X491939D01*
X489173Y435353D02*
X490679D01*
X489267Y434644D02*
X489395D01*
X547539Y509054D02*
X563196D01*
X547539Y509762D02*
X562487D01*
X547539Y510471D02*
X561779D01*
X547539Y511180D02*
X561070D01*
X547539Y511888D02*
X560361D01*
X547539Y512597D02*
X559653D01*
X547512Y513306D02*
X558944D01*
X553570Y508345D02*
X554530D01*
X547539D02*
X550367D01*
X547539Y507637D02*
X549679D01*
X547539Y506928D02*
X549339D01*
X547477Y506219D02*
X549023D01*
X547183Y505511D02*
X548314D01*
X546562Y504802D02*
X547606D01*
X545853Y504093D02*
X546897D01*
X545145Y503385D02*
X546188D01*
X544436Y502676D02*
X545480D01*
X543728Y501967D02*
X544771D01*
X543019Y501259D02*
X544062D01*
X542310Y500550D02*
X543354D01*
X541602Y499841D02*
X542645D01*
X540893Y499133D02*
X541936D01*
X540184Y498424D02*
X541228D01*
X539476Y497715D02*
X540519D01*
X538833Y497007D02*
X539810D01*
X515105Y495589D02*
X524568D01*
X514397Y494881D02*
X523905D01*
X513688Y494172D02*
X523196D01*
X512979Y493463D02*
X522488D01*
X512271Y492755D02*
X521779D01*
X511562Y492046D02*
X521070D01*
X515814Y496298D02*
X520397D01*
X511417Y491337D02*
X520362D01*
X511417Y490629D02*
X519653D01*
X516523Y497007D02*
X519642D01*
X517775Y497715D02*
X519234D01*
X511417Y489920D02*
X518944D01*
X511417Y489211D02*
X518236D01*
X511417Y488503D02*
X517527D01*
X511417Y487794D02*
X516818D01*
X511417Y487085D02*
X516110D01*
X511417Y486377D02*
X515401D01*
X511417Y485668D02*
X514692D01*
X511417Y484959D02*
X513984D01*
X511417Y484251D02*
X513275D01*
X511417Y483542D02*
X512566D01*
X511417Y482833D02*
X511858D01*
X519234Y515432D02*
X520281D01*
X518525Y514723D02*
X519582D01*
X517816Y514014D02*
X519202D01*
X517108Y513306D02*
X519023D01*
X516399Y512597D02*
X518996D01*
X515690Y511888D02*
X518996D01*
X514982Y511180D02*
X518996D01*
X514273Y510471D02*
X518996D01*
X513564Y509762D02*
X518996D01*
X512851Y509054D02*
X518996D01*
X507912Y508345D02*
X518996D01*
X506628Y507637D02*
X518996D01*
X506688Y506928D02*
X518996D01*
X506528Y506219D02*
X518996D01*
X506090Y505511D02*
X518996D01*
X504931Y504802D02*
X518996D01*
X504433Y504093D02*
X518996D01*
X505142Y503385D02*
X518996D01*
X518671Y502676D02*
X518977D01*
X505850D02*
X515581D01*
X506559Y501967D02*
X514863D01*
X507268Y501259D02*
X514509D01*
X507775Y500550D02*
X514374D01*
X507874Y499841D02*
X513790D01*
X507874Y499133D02*
X513081D01*
X507874Y498424D02*
X512372D01*
X507874Y497715D02*
X511664D01*
X507874Y497007D02*
X510955D01*
X507874Y496298D02*
X510246D01*
X507874Y495589D02*
X509538D01*
X507874Y494881D02*
X508829D01*
X507949Y494172D02*
X508114D01*
X519082Y519684D02*
X524480D01*
X519520Y520392D02*
X522330D01*
X519680Y521101D02*
X521851D01*
X519620Y521810D02*
X521665D01*
X519322Y522518D02*
X521317D01*
X518631Y523227D02*
X520609D01*
X505115Y523936D02*
X519900D01*
X504969Y524644D02*
X519191D01*
X504552Y525353D02*
X518483D01*
X517927Y518975D02*
X517971D01*
X503497Y526062D02*
X517774D01*
X490260Y518266D02*
X517614D01*
X483147Y526770D02*
X517065D01*
X490969Y517558D02*
X516905D01*
X489551Y518975D02*
X516723D01*
X483417Y527479D02*
X516357D01*
X491677Y516849D02*
X516197D01*
X505043Y523227D02*
X516015D01*
X483453Y528188D02*
X515648D01*
X488843Y519684D02*
X515563D01*
X492386Y516140D02*
X515488D01*
X504728Y522518D02*
X515324D01*
X488134Y520392D02*
X515126D01*
X503998Y521810D02*
X515026D01*
X487425Y521101D02*
X514966D01*
X493095Y515432D02*
X514779D01*
X493803Y514723D02*
X514071D01*
X494512Y514014D02*
X513362D01*
X495221Y513306D02*
X512653D01*
X506575Y512597D02*
X511945D01*
X508184Y511888D02*
X511236D01*
X495929Y512597D02*
X506417D01*
X496638Y511888D02*
X504808D01*
X497347Y511180D02*
X504330D01*
X498764Y509762D02*
X504182D01*
X498055Y510471D02*
X504146D01*
X499473Y509054D02*
X503023D01*
X500181Y508345D02*
X502332D01*
X500890Y507637D02*
X502033D01*
X482677Y526062D02*
X502014D01*
X501599Y506928D02*
X501973D01*
X486717Y521810D02*
X501514D01*
X483173Y525353D02*
X500960D01*
X486008Y522518D02*
X500784D01*
X483882Y524644D02*
X500543D01*
X485299Y523227D02*
X500469D01*
X484591Y523936D02*
X500397D01*
X506635Y479999D02*
X507480D01*
X505927Y479290D02*
X507480D01*
X505218Y478581D02*
X507480D01*
X504921Y477873D02*
X507480D01*
X504921Y477164D02*
X507480D01*
X504921Y476455D02*
X507480D01*
X504903Y475747D02*
X507480D01*
X504605Y475038D02*
X507480D01*
X503919Y474329D02*
X507480D01*
X503210Y473621D02*
X507480D01*
X502501Y472912D02*
X507480D01*
X503137Y472203D02*
X507480D01*
X503795Y471495D02*
X507480D01*
X504078Y470786D02*
X507480D01*
X504126Y470077D02*
X507480D01*
X503953Y469369D02*
X507480D01*
X503495Y468660D02*
X507480D01*
X502194Y467951D02*
X507480D01*
X498819Y467243D02*
X507480D01*
X498819Y466534D02*
X507449D01*
X498819Y465825D02*
X506742D01*
X498819Y465117D02*
X506034D01*
X502624Y464408D02*
X505325D01*
X503352Y463699D02*
X504616D01*
X503688Y462991D02*
X503908D01*
X498819Y467951D02*
X501349D01*
X498819Y464408D02*
X500131D01*
X498819Y468660D02*
X500048D01*
X498958Y469369D02*
X499590D01*
X498819Y463699D02*
X499404D01*
X491480Y499133D02*
X504724D01*
X492012Y498424D02*
X504724D01*
X492126Y497715D02*
X504724D01*
X492126Y497007D02*
X504724D01*
X492126Y496298D02*
X504724D01*
X492126Y495589D02*
X504724D01*
X492126Y494881D02*
X504724D01*
X492126Y494172D02*
X504724D01*
X492126Y493463D02*
X504724D01*
X492126Y487794D02*
X504724D01*
X492126Y487085D02*
X504724D01*
X492126Y486377D02*
X504724D01*
X492126Y485668D02*
X504724D01*
X490772Y499841D02*
X504231D01*
X490063Y500550D02*
X503522D01*
X492126Y492755D02*
X502889D01*
X489354Y501259D02*
X502814D01*
X492126Y488503D02*
X502564D01*
X488646Y501967D02*
X502105D01*
X492126Y492046D02*
X501911D01*
X492126Y484959D02*
X501895D01*
X492126Y489211D02*
X501795D01*
X492126Y491337D02*
X501513D01*
X492126Y489920D02*
X501464D01*
X487937Y502676D02*
X501396D01*
X501144Y484251D02*
X501384D01*
X492126Y490629D02*
X501379D01*
X487228Y503385D02*
X500688D01*
X486520Y504093D02*
X499979D01*
X485811Y504802D02*
X499270D01*
X492126Y484251D02*
X499250D01*
X485102Y505511D02*
X498562D01*
X492126Y483542D02*
X498336D01*
X492126Y482833D02*
X497956D01*
X484394Y506219D02*
X497853D01*
X483685Y506928D02*
X497144D01*
X482976Y507637D02*
X496436D01*
X492126Y482125D02*
X496194D01*
X492126Y477873D02*
X495866D01*
X482268Y508345D02*
X495727D01*
X492126Y478581D02*
X495647D01*
X492126Y481416D02*
X495467D01*
X492126Y479290D02*
X495229D01*
X492126Y477164D02*
X495213D01*
X492126Y480707D02*
X495153D01*
X492126Y479999D02*
X495082D01*
X481559Y509054D02*
X495018D01*
X492126Y476455D02*
X494504D01*
X480850Y509762D02*
X494310D01*
X492126Y475747D02*
X493795D01*
X480142Y510471D02*
X493601D01*
X492126Y475038D02*
X493087D01*
X479433Y511180D02*
X492892D01*
X492192Y474329D02*
X492375D01*
X478724Y511888D02*
X492184D01*
X478016Y512597D02*
X491475D01*
X477307Y513306D02*
X490766D01*
X477068Y514014D02*
X490058D01*
X477777Y514723D02*
X489349D01*
X478486Y515432D02*
X488640D01*
X479194Y516140D02*
X487932D01*
X479901Y516849D02*
X487223D01*
X480274Y517558D02*
X486514D01*
X480315Y518266D02*
X485806D01*
X480315Y518975D02*
X485097D01*
X480315Y519684D02*
X484388D01*
X480315Y520392D02*
X483680D01*
X480315Y521101D02*
X482971D01*
X480315Y521810D02*
X482262D01*
X480315Y522518D02*
X481554D01*
X480315Y523227D02*
X480845D01*
X454522Y496298D02*
X487402D01*
X454363Y495589D02*
X487402D01*
X453925Y494881D02*
X487402D01*
X453740Y494172D02*
X487402D01*
X453775Y493463D02*
X487402D01*
X454295Y492755D02*
X487402D01*
X454507Y492046D02*
X487402D01*
X454494Y491337D02*
X487402D01*
X454254Y490629D02*
X487402D01*
X453741Y489920D02*
X487402D01*
X453740Y489211D02*
X487402D01*
X453994Y488503D02*
X487402D01*
X454393Y487794D02*
X487402D01*
X454526Y487085D02*
X487402D01*
X454442Y486377D02*
X487402D01*
X454111Y485668D02*
X487402D01*
X453342Y484959D02*
X487402D01*
X450787Y484251D02*
X487402D01*
X450787Y483542D02*
X487402D01*
X452011Y482833D02*
X487402D01*
X453301Y482125D02*
X487402D01*
X453757Y481416D02*
X487402D01*
X453929Y480707D02*
X487402D01*
X453881Y479999D02*
X487402D01*
X453597Y479290D02*
X487402D01*
X453150Y478581D02*
X487402D01*
X453000Y477873D02*
X487402D01*
X467286Y477164D02*
X487402D01*
X468199Y476455D02*
X487402D01*
X468580Y475747D02*
X487402D01*
X468701Y475038D02*
X487402D01*
X468604Y474329D02*
X487402D01*
X468256Y473621D02*
X487402D01*
X467443Y472912D02*
X487402D01*
X466535Y472203D02*
X487402D01*
X466413Y471495D02*
X487402D01*
X466032Y470786D02*
X487402D01*
X466487Y470077D02*
X487402D01*
X468897Y469369D02*
X487402D01*
X469664Y468660D02*
X487402D01*
X454942Y497007D02*
X486790D01*
X455540Y497715D02*
X486081D01*
X455709Y498424D02*
X485373D01*
X469994Y467951D02*
X484777D01*
X455709Y499133D02*
X484664D01*
X470082Y467243D02*
X484050D01*
X455709Y499841D02*
X483955D01*
X471643Y466534D02*
X483736D01*
X455709Y500550D02*
X483247D01*
X455709Y501259D02*
X482538D01*
X455709Y501967D02*
X481829D01*
X455709Y502676D02*
X481121D01*
X455709Y503385D02*
X480412D01*
X455709Y504093D02*
X479703D01*
X455709Y504802D02*
X478995D01*
X455709Y505511D02*
X478286D01*
X455709Y506219D02*
X477577D01*
X455709Y506928D02*
X476869D01*
X455709Y507637D02*
X476160D01*
X455709Y508345D02*
X475451D01*
X455709Y509054D02*
X474743D01*
X455709Y509762D02*
X474034D01*
X472189Y465825D02*
X474031D01*
X455709Y510471D02*
X473325D01*
X472414Y465117D02*
X473323D01*
X452425Y477164D02*
X465392D01*
X452395Y476455D02*
X462391D01*
X452395Y475747D02*
X461512D01*
X452395Y475038D02*
X460803D01*
X452395Y474329D02*
X460094D01*
X452395Y464408D02*
X459842D01*
X452395Y463699D02*
X459842D01*
X452395Y462991D02*
X459842D01*
X452395Y462282D02*
X459842D01*
X452395Y461574D02*
X459842D01*
X452395Y460865D02*
X459842D01*
X452395Y460156D02*
X459842D01*
X452395Y459448D02*
X459842D01*
X452395Y458739D02*
X459842D01*
X452395Y458030D02*
X459842D01*
X452395Y457322D02*
X459842D01*
X452395Y456613D02*
X459842D01*
X452395Y455904D02*
X459842D01*
X452395Y455196D02*
X459842D01*
X452395Y454487D02*
X459842D01*
X452395Y453778D02*
X459842D01*
X452395Y453070D02*
X459842D01*
X452395Y452361D02*
X459842D01*
X452395Y451652D02*
X459842D01*
X452395Y450944D02*
X459842D01*
X452395Y450235D02*
X459842D01*
X452395Y449526D02*
X459842D01*
X452395Y465117D02*
X459817D01*
X452395Y448818D02*
X459583D01*
X452395Y473621D02*
X459386D01*
X452395Y465825D02*
X459146D01*
X452395Y472912D02*
X458930D01*
X452395Y448109D02*
X458874D01*
X452395Y466534D02*
X458871D01*
X452395Y472203D02*
X458858D01*
X452395Y471495D02*
X458858D01*
X452395Y470786D02*
X458858D01*
X452395Y470077D02*
X458858D01*
X452395Y469369D02*
X458858D01*
X452395Y468660D02*
X458858D01*
X452395Y467951D02*
X458858D01*
X452395Y467243D02*
X458858D01*
X452395Y447400D02*
X458165D01*
X452395Y446692D02*
X457457D01*
X452395Y445983D02*
X456748D01*
X452395Y445274D02*
X456039D01*
X452395Y444566D02*
X455331D01*
X452395Y443857D02*
X454622D01*
X452395Y443148D02*
X453913D01*
X452395Y442440D02*
X453205D01*
X450841Y482833D02*
X451138D01*
X450922Y484959D02*
X450967D01*
X462577Y518266D02*
X474504D01*
X461811Y518975D02*
X474203D01*
X462907Y517558D02*
X473795D01*
X453013Y519684D02*
X473044D01*
X453722Y520392D02*
X472606D01*
X466716Y521101D02*
X472446D01*
X467376Y521810D02*
X472026D01*
X467660Y522518D02*
X471318D01*
X467708Y523227D02*
X470916D01*
X467537Y523936D02*
X470866D01*
X467080Y524644D02*
X470373D01*
X465791Y525353D02*
X469664D01*
X459391Y526062D02*
X468955D01*
X460100Y526770D02*
X468247D01*
X460809Y527479D02*
X467538D01*
X458683Y525353D02*
X464918D01*
X454431Y521101D02*
X463993D01*
X457974Y524644D02*
X463628D01*
X455139Y521810D02*
X463333D01*
X457265Y523936D02*
X463172D01*
X455848Y522518D02*
X463049D01*
X456557Y523227D02*
X463000D01*
X458267Y518975D02*
X459449D01*
X452305D02*
X455906D01*
X451596Y518266D02*
X455139D01*
X450887Y517558D02*
X454810D01*
X450179Y516849D02*
X454725D01*
X449470Y516140D02*
X454071D01*
X449016Y515432D02*
X453362D01*
X449016Y514723D02*
X452747D01*
X449016Y514014D02*
X452559D01*
X449016Y513306D02*
X452559D01*
X449016Y512597D02*
X452559D01*
X449016Y511888D02*
X450000D01*
X470253Y533857D02*
X504893D01*
X455494Y534566D02*
X502184D01*
X456202Y535274D02*
X501475D01*
X456911Y535983D02*
X500766D01*
X471047Y533148D02*
X478187D01*
X471756Y532440D02*
X477457D01*
X472465Y531731D02*
X476748D01*
X474347Y531022D02*
X476039D01*
X456229Y533857D02*
X458093D01*
X456920Y533148D02*
X457299D01*
X439793Y485668D02*
X441142D01*
X439082Y484959D02*
X441142D01*
X439170Y484251D02*
X441142D01*
X439136Y483542D02*
X441142D01*
X438976Y482833D02*
X441142D01*
X438674Y482125D02*
X441142D01*
X438188Y481416D02*
X441142D01*
X437409Y480707D02*
X441142D01*
X435599Y479999D02*
X441142D01*
X431992Y479290D02*
X441142D01*
X432701Y478581D02*
X441142D01*
X433410Y477873D02*
X441142D01*
X434118Y477164D02*
X441142D01*
X434827Y476455D02*
X441142D01*
X435536Y475747D02*
X441142D01*
X436244Y475038D02*
X441142D01*
X436953Y474329D02*
X441142D01*
X437585Y473621D02*
X441142D01*
X437793Y472912D02*
X441142D01*
X437795Y472203D02*
X441142D01*
X437795Y471495D02*
X441142D01*
X437795Y470786D02*
X441142D01*
X437795Y470077D02*
X441142D01*
X438220Y469369D02*
X441142D01*
X438518Y468660D02*
X441142D01*
X438577Y467951D02*
X441142D01*
X438418Y467243D02*
X441142D01*
X437980Y466534D02*
X441142D01*
X436820Y465825D02*
X441142D01*
X425919Y465117D02*
X441142D01*
X425979Y464408D02*
X441142D01*
X425819Y463699D02*
X441142D01*
X425382Y462991D02*
X441142D01*
X429293Y462282D02*
X441142D01*
X430024Y461574D02*
X441142D01*
X430732Y460865D02*
X441142D01*
X431441Y460156D02*
X441142D01*
X432150Y459448D02*
X441142D01*
X432858Y458739D02*
X441142D01*
X433567Y458030D02*
X441142D01*
X434276Y457322D02*
X441142D01*
X434984Y456613D02*
X441142D01*
X435693Y455904D02*
X441142D01*
X436402Y455196D02*
X441142D01*
X437110Y454487D02*
X441142D01*
X437538Y453778D02*
X441142D01*
X437598Y453070D02*
X441142D01*
X437598Y452361D02*
X441142D01*
X437598Y451652D02*
X441142D01*
X437598Y450944D02*
X441142D01*
X437914Y450235D02*
X440527D01*
X438277Y449526D02*
X439819D01*
X438386Y448818D02*
X439110D01*
X431496Y508345D02*
X436672D01*
X431681Y509054D02*
X435963D01*
X425621Y465825D02*
X435620D01*
X432118Y509762D02*
X435506D01*
X416732Y516849D02*
X435433D01*
X416732Y516140D02*
X435433D01*
X416732Y515432D02*
X435433D01*
X416732Y514723D02*
X435433D01*
X416732Y514014D02*
X435433D01*
X416732Y513306D02*
X435433D01*
X431229Y512597D02*
X435433D01*
X431920Y511888D02*
X435433D01*
X432219Y511180D02*
X435433D01*
X432278Y510471D02*
X435433D01*
X416732Y517558D02*
X435136D01*
X424984Y471495D02*
X434646D01*
X417214Y470786D02*
X434646D01*
X417323Y470077D02*
X434646D01*
X425644Y472203D02*
X434620D01*
X431890Y479999D02*
X434479D01*
X424930Y466534D02*
X434461D01*
X416732Y518266D02*
X434428D01*
X417214Y469369D02*
X434221D01*
X416732Y467243D02*
X434023D01*
X416849Y468660D02*
X433923D01*
X428750Y472912D02*
X433916D01*
X416732Y467951D02*
X433864D01*
X416732Y518975D02*
X433719D01*
X429909Y473621D02*
X433207D01*
X416732Y519684D02*
X433010D01*
X431496Y507637D02*
X432908D01*
X431890Y480707D02*
X432669D01*
X430347Y474329D02*
X432499D01*
X416732Y520392D02*
X432302D01*
X431496Y506928D02*
X432029D01*
X430506Y475038D02*
X431790D01*
X416732Y521101D02*
X431593D01*
X430447Y475747D02*
X431081D01*
X416732Y521810D02*
X430884D01*
X416732Y522518D02*
X430176D01*
X416732Y523227D02*
X429467D01*
X416732Y523936D02*
X428758D01*
X416732Y512597D02*
X428614D01*
X417275Y508345D02*
X428346D01*
X417311Y507637D02*
X428346D01*
X417125Y506928D02*
X428346D01*
X416732Y506219D02*
X428346D01*
X416732Y505511D02*
X428346D01*
X416732Y504802D02*
X428346D01*
X416732Y504093D02*
X428346D01*
X416732Y503385D02*
X428346D01*
X425074Y502676D02*
X428346D01*
X425573Y501967D02*
X428346D01*
X425771Y501259D02*
X428346D01*
X426087Y500550D02*
X428346D01*
X426795Y499841D02*
X428346D01*
X427504Y499133D02*
X428346D01*
X417007Y509054D02*
X428162D01*
X416732Y524644D02*
X428050D01*
X416732Y511888D02*
X427922D01*
X424222Y458739D02*
X427756D01*
X416732Y509762D02*
X427724D01*
X425432Y459448D02*
X427649D01*
X416732Y511180D02*
X427624D01*
X416732Y510471D02*
X427564D01*
X425928Y472912D02*
X427550D01*
X416784Y525353D02*
X427341D01*
X417318Y458030D02*
X426990D01*
X417257Y457322D02*
X426660D01*
X416958Y456613D02*
X426575D01*
X417237Y482833D02*
X426575D01*
X416906Y482125D02*
X426575D01*
X417322Y483542D02*
X426436D01*
X425976Y473621D02*
X426390D01*
X425929Y488503D02*
X426321D01*
X417321Y495589D02*
X426181D01*
X417187Y494881D02*
X426181D01*
X416788Y494172D02*
X426181D01*
X416732Y493463D02*
X426181D01*
X416732Y492755D02*
X426181D01*
X416732Y492046D02*
X426181D01*
X416732Y491337D02*
X426181D01*
X424895Y490629D02*
X426181D01*
X425494Y489920D02*
X426181D01*
X425748Y489211D02*
X426181D01*
X416732Y455904D02*
X425921D01*
X417238Y496298D02*
X425884D01*
X417188Y484251D02*
X425727D01*
X416732Y455196D02*
X425213D01*
X416908Y497007D02*
X425176D01*
X416790Y484959D02*
X425018D01*
X416732Y454487D02*
X424504D01*
X416732Y497715D02*
X424467D01*
X416732Y485668D02*
X424310D01*
X416732Y498424D02*
X423758D01*
X416732Y486377D02*
X423601D01*
X416732Y481416D02*
X423581D01*
X417159Y458739D02*
X423022D01*
X416732Y480707D02*
X422954D01*
X416732Y479999D02*
X422685D01*
X416732Y479290D02*
X422535D01*
X416732Y466534D02*
X422314D01*
X416851Y471495D02*
X422261D01*
X416732Y478581D02*
X422108D01*
X416732Y477873D02*
X422047D01*
X416732Y477164D02*
X422047D01*
X416732Y476455D02*
X422047D01*
X416732Y475747D02*
X422047D01*
X416732Y499133D02*
X421958D01*
X416732Y490629D02*
X421955D01*
X416732Y475038D02*
X421896D01*
X416740Y459448D02*
X421862D01*
X416732Y462991D02*
X421862D01*
X416732Y487085D02*
X421779D01*
X416732Y502676D02*
X421776D01*
X416732Y465825D02*
X421623D01*
X416732Y462282D02*
X421623D01*
X416732Y472203D02*
X421600D01*
X416732Y474329D02*
X421440D01*
X416732Y463699D02*
X421425D01*
X416732Y460156D02*
X421425D01*
X416732Y499841D02*
X421358D01*
X416732Y489920D02*
X421357D01*
X416732Y465117D02*
X421325D01*
X416732Y461574D02*
X421325D01*
X416732Y472912D02*
X421316D01*
X416732Y487794D02*
X421278D01*
X416732Y501967D02*
X421277D01*
X416732Y473621D02*
X421268D01*
X416732Y464408D02*
X421265D01*
X416732Y460865D02*
X421265D01*
X416732Y500550D02*
X421103D01*
X416732Y489211D02*
X421103D01*
X416732Y488503D02*
X421079D01*
X416732Y501259D02*
X421079D01*
X416732Y453778D02*
X421050D01*
X416732Y453070D02*
X420331D01*
X416732Y438188D02*
X419708D01*
X416732Y438896D02*
X419703D01*
X416732Y452361D02*
X419622D01*
X416732Y439605D02*
X418995D01*
X416732Y451652D02*
X418913D01*
X416732Y437479D02*
X418913D01*
X416732Y440314D02*
X418439D01*
X416732Y450944D02*
X418406D01*
X416732Y450235D02*
X418307D01*
X416732Y449526D02*
X418307D01*
X416732Y448818D02*
X418307D01*
X416732Y448109D02*
X418307D01*
X416732Y447400D02*
X418307D01*
X417090Y446692D02*
X418307D01*
X417302Y445983D02*
X418307D01*
X417290Y445274D02*
X418307D01*
X417049Y444566D02*
X418307D01*
X416732Y443857D02*
X418307D01*
X416732Y443148D02*
X418307D01*
X416732Y442440D02*
X418307D01*
X416732Y441731D02*
X418307D01*
X416732Y441022D02*
X418307D01*
X416732Y436770D02*
X417275D01*
X440640Y506219D02*
X441142D01*
X438924Y505511D02*
X441142D01*
X439112Y504802D02*
X441142D01*
X439173Y504093D02*
X441142D01*
X439112Y503385D02*
X441142D01*
X438922Y502676D02*
X441142D01*
X438584Y501967D02*
X441142D01*
X438047Y501259D02*
X441142D01*
X437167Y500550D02*
X441142D01*
X431496Y499841D02*
X441142D01*
X431496Y499133D02*
X441142D01*
X431496Y498424D02*
X441142D01*
X437034Y497715D02*
X441142D01*
X437973Y497007D02*
X441142D01*
X438537Y496298D02*
X441142D01*
X438894Y495589D02*
X441142D01*
X439098Y494881D02*
X441142D01*
X439173Y494172D02*
X441142D01*
X439125Y493463D02*
X441142D01*
X438950Y492755D02*
X441142D01*
X438630Y492046D02*
X441142D01*
X438119Y491337D02*
X441142D01*
X438939Y490629D02*
X441142D01*
X440735Y489920D02*
X441142D01*
X431496Y497715D02*
X433045D01*
X431496Y500550D02*
X432912D01*
X431496Y497007D02*
X432105D01*
X431496Y501259D02*
X432032D01*
X421457Y445983D02*
X436276D01*
X421457Y445274D02*
X435567D01*
X421457Y446692D02*
X434997D01*
X421457Y444566D02*
X434858D01*
X426832Y452361D02*
X434449D01*
X426123Y451652D02*
X434449D01*
X432119Y450944D02*
X434449D01*
X428137Y443857D02*
X434150D01*
X432027Y447400D02*
X434135D01*
X432641Y450235D02*
X434133D01*
X427541Y453070D02*
X434073D01*
X432600Y448109D02*
X433771D01*
X432853Y449526D02*
X433770D01*
X432841Y448818D02*
X433661D01*
X428795Y443148D02*
X433441D01*
X428249Y453778D02*
X433365D01*
X429078Y442440D02*
X432732D01*
X429782Y454487D02*
X432656D01*
X429126Y441731D02*
X432024D01*
X430764Y455196D02*
X431947D01*
X428953Y441022D02*
X431315D01*
X428495Y440314D02*
X430606D01*
X427194Y439605D02*
X429898D01*
X426330Y438896D02*
X429189D01*
X424547Y447400D02*
X428997D01*
X425274Y450944D02*
X428904D01*
X421457Y443857D02*
X425407D01*
X421457Y443148D02*
X424748D01*
X421457Y442440D02*
X424465D01*
X424094Y441731D02*
X424307D01*
X421457D02*
X423937D01*
X422032Y441022D02*
X422328D01*
X440612Y537400D02*
X453874D01*
X439903Y536692D02*
X453165D01*
X439194Y535983D02*
X452457D01*
X438486Y535274D02*
X451748D01*
X437777Y534566D02*
X451039D01*
X437068Y533857D02*
X450331D01*
X436360Y533148D02*
X449875D01*
X435651Y532440D02*
X449803D01*
X434942Y531731D02*
X449803D01*
X434234Y531022D02*
X449803D01*
X433525Y530314D02*
X449543D01*
X432816Y529605D02*
X448835D01*
X432108Y528896D02*
X448126D01*
X431399Y528188D02*
X447417D01*
X430690Y527479D02*
X446709D01*
X430378Y526770D02*
X446000D01*
X431087Y526062D02*
X445291D01*
X431795Y525353D02*
X444583D01*
X432504Y524644D02*
X443874D01*
X433213Y523936D02*
X443165D01*
X433921Y523227D02*
X442457D01*
X434630Y522518D02*
X441748D01*
X435339Y521810D02*
X441039D01*
X436047Y521101D02*
X440331D01*
X436756Y520392D02*
X439735D01*
X437465Y519684D02*
X439567D01*
X438171Y518975D02*
X439567D01*
X438543Y518266D02*
X439567D01*
X438583Y517558D02*
X439567D01*
X438583Y516849D02*
X439567D01*
X438583Y516140D02*
X439567D01*
X438583Y515432D02*
X439567D01*
X438583Y514723D02*
X439327D01*
G54D13*
X398701Y508701D03*
Y498701D03*
Y488701D03*
Y478701D03*
Y468701D03*
X435039Y504094D03*
Y494094D03*
Y484094D03*
X454528Y398701D03*
X588701Y428701D03*
Y418701D03*
Y408701D03*
Y398701D03*
Y498701D03*
Y488701D03*
Y478701D03*
Y468701D03*
Y458701D03*
Y448701D03*
Y438701D03*
Y538701D03*
Y528701D03*
Y518701D03*
Y508701D03*
X571260Y531890D03*
Y522047D03*
X398701Y538701D03*
Y528701D03*
Y518701D03*
Y458701D03*
Y448701D03*
Y438701D03*
Y428701D03*
Y418701D03*
Y408701D03*
Y398701D03*
G54D20*
X500835Y434053D02*
G03X501643Y434321I138J938D01*
G01X500835Y434053D02*
X501376Y433512D01*
X501643Y434321D02*
G03X501376Y433512I671J-671D01*
G01X501643Y434321D02*
X501643D01*
X558614Y474018D02*
G03X557805Y473750I-139J-938D01*
G01X558614Y474018D02*
X558073Y474559D01*
X557805Y473750D02*
G03X558073Y474559I-670J670D01*
G01X557805Y473750D02*
X557805D01*
X499063Y419486D02*
G03X499872Y419754I139J938D01*
G01X499063Y419486D02*
X499604Y418945D01*
X499872Y419754D02*
G03X499604Y418945I670J-670D01*
G01X499872Y419754D02*
X499872D01*
X551921Y442128D02*
G03X551112Y441860I-138J-938D01*
G01X551921Y442128D02*
X551380Y442669D01*
X551112Y441860D02*
G03X551380Y442669I-670J671D01*
G01X551112Y441860D02*
X551112D01*
X415343Y507424D02*
G03X414961Y506663I565J-761D01*
G01X415343Y507424D02*
X414578D01*
X414961Y506663D02*
G03X414578Y507424I-948J0D01*
G01X414961Y506663D02*
Y507424D01*
X414578Y496119D02*
G03X414961Y496880I-565J761D01*
G01X414578Y496119D02*
X415343D01*
X414961Y496880D02*
G03X415343Y496119I947J-0D01*
G01X414961Y496880D02*
X414961D01*
Y496119D02*
Y496880D01*
X415343Y445219D02*
G03X414961Y444459I565J-760D01*
G01X415343Y445219D02*
X414578D01*
X414961Y444459D02*
G03X414578Y445219I-948J-0D01*
G01X414961Y444459D02*
Y445219D01*
X559393Y396861D02*
G03X558632Y397244I-761J-565D01*
G01X559393Y396861D02*
Y397627D01*
X558632Y397244D02*
G03X559393Y397627I-0J948D01*
G01X558632Y397244D02*
X559393D01*
X558632D02*
X558632D01*
X415343Y457424D02*
G03X414961Y456663I565J-761D01*
G01X415343Y457424D02*
X414578D01*
X414961Y456663D02*
G03X414578Y457424I-948J0D01*
G01X414961Y456663D02*
Y457424D01*
X414578Y446119D02*
G03X414961Y446880I-565J761D01*
G01X414578Y446119D02*
X415343D01*
X414961Y446880D02*
G03X415343Y446119I947J-0D01*
G01X414961Y446880D02*
X414961D01*
Y446119D02*
Y446880D01*
X415343Y483015D02*
G03X414961Y482254I565J-761D01*
G01X415343Y483015D02*
X414578D01*
X414961Y482254D02*
G03X414578Y483015I-948J-0D01*
G01X414961Y482254D02*
Y483015D01*
X414578Y470529D02*
G03X414961Y471289I-565J760D01*
G01X414578Y470529D02*
X415343D01*
X414961Y471289D02*
G03X415343Y470529I947J0D01*
G01X414961Y471289D02*
X414961D01*
Y470529D02*
Y471289D01*
X415343Y495219D02*
G03X414961Y494459I565J-760D01*
G01X415343Y495219D02*
X414578D01*
X414961Y494459D02*
G03X414578Y495219I-948J-0D01*
G01X414961Y494459D02*
Y495219D01*
X414578Y483914D02*
G03X414961Y484675I-565J761D01*
G01X414578Y483914D02*
X415343D01*
X414961Y484675D02*
G03X415343Y483914I947J0D01*
G01X414961Y484675D02*
X414961D01*
Y483914D02*
Y484675D01*
X415343Y469629D02*
G03X414961Y468868I565J-761D01*
G01X415343Y469629D02*
X414578D01*
X414961Y468868D02*
G03X414578Y469629I-948J0D01*
G01X414961Y468868D02*
Y469629D01*
X414578Y458324D02*
G03X414961Y459085I-565J761D01*
G01X414578Y458324D02*
X415343D01*
X414961Y459085D02*
G03X415343Y458324I947J-0D01*
G01X414961Y459085D02*
X414961D01*
Y458324D02*
Y459085D01*
X499457Y449604D02*
G03X500265Y449872I138J938D01*
G01X499457Y449604D02*
X499998Y449063D01*
X500265Y449872D02*
G03X499998Y449063I671J-670D01*
G01X500265Y449872D02*
X500265D01*
X551921Y505514D02*
G03X551112Y505246I-138J-938D01*
G01X551921Y505514D02*
X551380Y506055D01*
X551112Y505246D02*
G03X551380Y506055I-670J670D01*
G01X551112Y505246D02*
X551112D01*
X414578Y508324D02*
G03X414961Y509085I-565J761D01*
G01X414578Y508324D02*
X415343D01*
X414961Y509085D02*
G03X415343Y508324I947J-0D01*
G01X414961Y509085D02*
X414961D01*
Y508324D02*
Y509085D01*
X500787Y433465D02*
X526378Y459055D01*
X543110*
X558661Y474606*
X499016Y418898D02*
X506496Y426378D01*
X535630*
X551969Y442717*
X414961Y507874D02*
Y495669D01*
Y445669D02*
Y416535D01*
X426181Y405315*
X478150*
X483268Y400197*
X507480*
X510433Y397244*
X559843*
X414961Y457874D02*
Y445669D01*
Y470079D02*
Y483465D01*
Y495669*
Y470079D02*
Y457874D01*
X499409Y449016D02*
X513189Y462795D01*
Y481102*
X526772Y494685*
X540551*
X551969Y506102*
X398701Y538701D02*
X403228D01*
X414961Y526969*
Y507874*
G54D21*
X426772Y411614D03*
Y424213D03*
X396654Y433661D03*
X413780Y397638D03*
X396654Y423622D03*
X396850Y413583D03*
X406693Y397244D03*
X421260Y397638D03*
X396654Y403740D03*
X426772Y417913D03*
X418110Y404331D03*
X498228Y422835D03*
X505315Y432677D03*
X500787Y433465D03*
X506102Y416339D03*
X505512Y413189D03*
X499016Y418898D03*
X503937Y410236D03*
X507283D03*
X500394Y403937D03*
X497244Y402953D03*
X488583Y396850D03*
X435236Y417323D03*
X464961Y424803D03*
X477165D03*
X477953Y399606D03*
X491535Y420472D03*
X491339Y432677D03*
X461811Y410827D03*
X437402Y428740D03*
X450000Y419685D03*
X446260Y422244D03*
X448622Y424803D03*
X445276Y426181D03*
X450394Y432677D03*
X447047Y433268D03*
X439370Y432480D03*
X445276Y413386D03*
X443110Y397638D03*
X437205Y397835D03*
Y422244D03*
X470866Y427362D03*
X466929Y430906D03*
X474803D03*
X453543Y419488D03*
X462402Y399606D03*
X495079Y397441D03*
X500591D03*
X520472Y411024D03*
Y403937D03*
Y407480D03*
X582283Y414567D03*
X558661Y413976D03*
X586024Y403740D03*
X572244Y407677D03*
X525591Y415748D03*
X536614Y408661D03*
X571260Y413976D03*
X559843Y397244D03*
X570866Y397047D03*
X566339D03*
X560433Y421457D03*
X542126Y419882D03*
X564764Y427756D03*
X528543Y419882D03*
X574409Y421457D03*
X543701Y413583D03*
X524606Y419882D03*
X538189D03*
X570276Y427756D03*
X539764Y413583D03*
X423425Y434449D03*
X409055Y435039D03*
X397047Y503543D03*
X402953Y491535D03*
X397047Y483661D03*
X402362Y463583D03*
Y453740D03*
X396850Y443701D03*
X428937Y456693D03*
X423622Y473425D03*
X423031Y449213D03*
X424016Y439370D03*
X423425Y488780D03*
X425000Y479528D03*
X423622Y461024D03*
X428150Y475197D03*
X430512Y449213D03*
X414961Y507874D03*
X423425Y500984D03*
X414961Y445669D03*
Y457874D03*
X423228Y457283D03*
X414961Y483465D03*
X423622Y507283D03*
X414961Y495669D03*
X418307Y434646D03*
X423622Y469488D03*
X423228Y442913D03*
X423622Y482874D03*
Y495079D03*
X429921Y510630D03*
X423622Y464567D03*
X414961Y470079D03*
X426772Y441929D03*
X401378Y474016D03*
X507874Y444882D03*
X478937Y487598D03*
X512795Y490551D03*
X487205Y506102D03*
X479921Y513189D03*
X486024Y494685D03*
X473031Y493701D03*
X454134Y460827D03*
X510827Y500591D03*
X439764Y512402D03*
X506496Y510236D03*
X434449Y510039D03*
X497835Y444291D03*
X436024Y448819D03*
X454724Y446654D03*
X503740Y487008D03*
X501772Y470276D03*
X439567Y480906D03*
X436220Y468110D03*
X477165Y436614D03*
X452165Y496457D03*
X503543Y483268D03*
X456890Y512992D03*
X500197Y482087D03*
X497441Y480118D03*
X490748Y444488D03*
X503740Y490551D03*
X504331Y507087D03*
X501378Y462402D03*
X470079Y464764D03*
X486220Y462008D03*
X486024Y465945D03*
X467717Y467323D03*
X464567Y468701D03*
X464173Y472244D03*
X466339Y475000D03*
X434646Y437008D03*
X436417Y434055D03*
X439370Y487992D03*
X458465Y463780D03*
X479528Y497244D03*
X493110Y476378D03*
X472047Y481890D03*
X471457Y501181D03*
X486220Y481890D03*
X470866Y434449D03*
X464961Y436614D03*
X505512Y472835D03*
X458465Y449803D03*
X477165Y457677D03*
X487795Y513386D03*
X503740Y497441D03*
X504331Y513386D03*
X439173Y508071D03*
X451181Y509843D03*
X452165Y491732D03*
Y487008D03*
X439764Y500984D03*
X499409Y449016D03*
X451575Y480512D03*
X472441Y507874D03*
X564764Y471457D03*
X516142Y453346D03*
X517323Y437402D03*
X557283Y509449D03*
X532874Y508661D03*
X580118Y481102D03*
X517126Y500394D03*
X556693Y443307D03*
X564567Y491142D03*
X532874Y440945D03*
X551969Y442717D03*
X528543D03*
X524213Y445276D03*
X570079Y491142D03*
X564764Y443307D03*
X570276D03*
X537205Y506102D03*
X524213Y440945D03*
X523819Y468898D03*
X576772Y456102D03*
X532874Y445276D03*
X537205Y442717D03*
X524213Y504331D03*
X574213Y484843D03*
X561024Y497441D03*
X541535Y445276D03*
X574409Y434055D03*
X560433D03*
X524213Y484055D03*
X528543Y506102D03*
X528150Y484055D03*
X570472Y451969D03*
X564173Y463386D03*
X569094Y463583D03*
X570472Y475591D03*
X541535Y508661D03*
X551969Y506102D03*
X579134Y443307D03*
X581496Y463583D03*
X576772D03*
Y471457D03*
X564173Y456102D03*
X574213Y497441D03*
X578937Y504724D03*
X531102Y451969D03*
X535039D03*
X544685D03*
X548622D03*
X537992Y484055D03*
X541929D03*
X532874Y504331D03*
X516535Y464961D03*
X549213Y484843D03*
X530906Y477165D03*
X535236Y474606D03*
X539567Y472835D03*
X530906D03*
X548228Y477165D03*
X543898Y474606D03*
X539567Y477165D03*
X524213Y508661D03*
X556693Y504724D03*
X561024Y484843D03*
X558661Y474606D03*
X403346Y533268D03*
X412008Y539764D03*
X425984Y530315D03*
X420079Y518701D03*
X397244Y514173D03*
X428937Y540354D03*
X423031Y534646D03*
X404724Y522835D03*
X418504Y534449D03*
X506496Y540354D03*
X445079Y527362D03*
X508268Y532677D03*
X512402Y526378D03*
X491339Y534646D03*
X460630Y516929D03*
X450787Y514370D03*
X481102Y527953D03*
X465354Y523031D03*
X502756Y523819D03*
X474803Y528346D03*
Y524803D03*
Y521260D03*
X465551Y526969D03*
X465748Y519094D03*
X498031Y535433D03*
X448425Y531693D03*
X457087Y516929D03*
X454921Y531890D03*
X536417Y532480D03*
X535630Y518701D03*
X545669Y539567D03*
X539173Y539370D03*
X524016Y522047D03*
X517323Y521260D03*
X539764Y522441D03*
X546654Y527362D03*
X543701Y522441D03*
G54D42*
G74*
X0Y0D02*
M02*
