*
*
G04 PADS VX.2.4 Build Number: 12858991 generated Gerber (RS-274-X) file*
G04 PC Version=2.1*
*
%IN "TMC4671+TMC6200-BOB_V10"*%
*
%MOIN*%
*
%FSLAX35Y35*%
*
*
*
*
G04 PC Standard Apertures*
*
*
G04 Thermal Relief Aperture macro.*
%AMTER*
1,1,$1,0,0*
1,0,$1-$2,0,0*
21,0,$3,$4,0,0,45*
21,0,$3,$4,0,0,135*
%
*
*
G04 Annular Aperture macro.*
%AMANN*
1,1,$1,0,0*
1,0,$2,0,0*
%
*
*
G04 Odd Aperture macro.*
%AMODD*
1,1,$1,0,0*
1,0,$1-0.005,0,0*
%
*
*
G04 PC Custom Aperture Macros*
*
*
*
*
*
*
G04 PC Aperture Table*
*
%ADD011C,0.00787*%
%ADD017C,0.00394*%
%ADD028C,0.00236*%
%ADD029C,0.00591*%
%ADD034C,0.00315*%
%ADD042C,0.001*%
%ADD047C,0.00197*%
*
*
*
*
G04 PC Circuitry*
G04 Layer Name TMC4671+TMC6200-BOB_V10 - circuitry*
%LPD*%
*
*
G04 PC Custom Flashes*
G04 Layer Name TMC4671+TMC6200-BOB_V10 - flashes*
%LPD*%
*
*
G04 PC Circuitry*
G04 Layer Name TMC4671+TMC6200-BOB_V10 - circuitry*
%LPD*%
*
G54D11*
G01X418971Y520741D02*
X422908D01*
X423647Y520562*
X423893Y520383*
X424139Y520025*
Y519667*
X423893Y519309*
X423647Y519130*
X422908Y518951*
X422416*
X420202Y522530D02*
X419956D01*
X419464Y522709*
X419218Y522888*
X418971Y523246*
Y523962*
X419218Y524320*
X419464Y524499*
X419956Y524678*
X420448*
X420940Y524499*
X421678Y524141*
X424139Y522351*
Y524857*
X418971Y527541D02*
X419218Y527004D01*
X419956Y526646*
X421186Y526467*
X421924*
X423155Y526646*
X423893Y527004*
X424139Y527541*
Y527899*
X423893Y528436*
X423155Y528794*
X421924Y528973*
X421186*
X419956Y528794*
X419218Y528436*
X418971Y527899*
Y527541*
Y531478D02*
X419218Y530941D01*
X419710Y530762*
X420202*
X420694Y530941*
X420940Y531299*
X421186Y532015*
X421432Y532552*
X421924Y532910*
X422416Y533089*
X423155*
X423647Y532910*
X423893Y532731*
X424139Y532194*
Y531478*
X423893Y530941*
X423647Y530762*
X423155Y530583*
X422416*
X421924Y530762*
X421432Y531120*
X421186Y531657*
X420940Y532373*
X420694Y532731*
X420202Y532910*
X419710*
X419218Y532731*
X418971Y532194*
Y531478*
X393701Y398701D02*
G75*
G03X398701Y393701I5000J-0D01*
G01X588701*
G03X593701Y398701I-0J5000*
G01Y538701*
G03X588701Y543701I-5000J-0*
G01X398701*
G03X393701Y538701I-0J-5000*
G01Y398701*
G54D17*
X453150Y407677D02*
Y413976D01*
X456299*
Y407677*
X453150*
X450787Y413583D02*
Y407283D01*
X447638*
Y413583*
X450787*
Y413189D02*
X447638D01*
X511024Y476969D02*
Y469094D01*
X504724*
Y476969*
X511024*
X505906Y475984D02*
G03X505906I-197J0D01*
G01X458465Y461024D02*
X464764D01*
Y457874*
X458465*
Y461024*
Y455512D02*
X464764D01*
Y452362*
X458465*
Y455512*
X475787Y404331D02*
X469488D01*
Y407480*
X475787*
Y404331*
X488091Y401181D02*
Y409055D01*
X493012*
Y401181*
X488091*
X495276Y447441D02*
X488976D01*
Y450591*
X495276*
Y447441*
X494488Y429921D02*
Y436220D01*
X497638*
Y429921*
X494488*
X494685Y414567D02*
X488386D01*
Y417717*
X494685*
Y414567*
X568307Y514567D02*
G03X568307I-5905J0D01*
G01X564370D02*
G03X564370I-1968J0D01*
G01X433661Y401181D02*
G03X433661I-5905J0D01*
G01X429724D02*
G03X429724I-1968J0D01*
G01X584055D02*
G03X584055I-5905J0D01*
G01X580118D02*
G03X580118I-1968J0D01*
G01X439764Y422244D02*
Y428543D01*
X442913*
Y422244*
X439764*
X509252Y504528D02*
Y510827D01*
X512402*
Y504528*
X509252*
X442028Y500591D02*
Y508465D01*
X446949*
Y500591*
X442028*
X500492Y531299D02*
Y523425D01*
X495571*
Y531299*
X500492*
X451575Y504331D02*
X457874D01*
Y501181*
X451575*
Y504331*
X462992Y526969D02*
Y520669D01*
X459843*
Y526969*
X462992*
X478740Y461417D02*
Y467717D01*
X481890*
Y461417*
X478740*
X503740Y500000D02*
X497441D01*
Y503150*
X503740*
Y500000*
X492913Y530512D02*
Y524213D01*
X489764*
Y530512*
X492913*
X470866Y529331D02*
Y523031D01*
X467717*
Y529331*
X470866*
X472441Y461417D02*
Y467717D01*
X475591*
Y461417*
X472441*
X499409Y476378D02*
Y470079D01*
X496260*
Y476378*
X499409*
X500984Y496260D02*
Y489961D01*
X497835*
Y496260*
X500984*
X501969Y513386D02*
Y507087D01*
X498819*
Y513386*
X501969*
X457283Y527362D02*
Y521063D01*
X454134*
Y527362*
X457283*
X514961Y469291D02*
Y475591D01*
X518110*
Y469291*
X514961*
X516142Y480118D02*
X509843D01*
Y483268*
X516142*
Y480118*
X491339Y463976D02*
X497638D01*
Y460827*
X491339*
Y463976*
X568307Y412402D02*
X562008D01*
Y415551*
X568307*
Y412402*
X567913D02*
Y415551D01*
X522638Y487992D02*
Y500591D01*
X532480*
Y487992*
X522638*
X549606Y506496D02*
Y486417D01*
X536220*
Y506496*
X549606*
X537402Y505512D02*
G03X537402I-197J0D01*
G01X529331Y456496D02*
Y469094D01*
X539173*
Y456496*
X529331*
X556299Y475000D02*
Y454921D01*
X542913*
Y475000*
X556299*
X544094Y474016D02*
G03X544094I-196J0D01*
G01X522638Y424606D02*
Y437205D01*
X532480*
Y424606*
X522638*
X549606Y443110D02*
Y423031D01*
X536220*
Y443110*
X549606*
X537402Y442126D02*
G03X537402I-197J0D01*
G01X420866Y482874D02*
Y476575D01*
X417717*
Y482874*
X420866*
Y495079D02*
Y488780D01*
X417717*
Y495079*
X420866*
Y507283D02*
Y500984D01*
X417717*
Y507283*
X420866*
X431693Y541732D02*
Y511811D01*
X412402*
X410433Y513780*
Y539764*
X412402Y541732*
X431693*
X439961Y454528D02*
X431693D01*
Y445079*
X439961*
Y454528*
X439075D02*
Y456102D01*
X438484*
Y454528*
X439173Y453543D02*
G03X439173I-197J0D01*
G01X437106Y454528D02*
Y456102D01*
X436516*
Y454528*
X435138D02*
Y456102D01*
X434547*
Y454528*
X433169D02*
Y456102D01*
X432579*
Y454528*
X438484Y445079D02*
Y443504D01*
X439075*
Y445079*
X436516D02*
Y443504D01*
X437106*
Y445079*
X434547D02*
Y443504D01*
X435138*
Y445079*
X432579D02*
Y443504D01*
X433169*
Y445079*
X439961Y473819D02*
X431693D01*
Y464370*
X439961*
Y473819*
X439075D02*
Y475394D01*
X438484*
Y473819*
X439173Y472835D02*
G03X439173I-197J0D01*
G01X437106Y473819D02*
Y475394D01*
X436516*
Y473819*
X435138D02*
Y475394D01*
X434547*
Y473819*
X433169D02*
Y475394D01*
X432579*
Y473819*
X438484Y464370D02*
Y462795D01*
X439075*
Y464370*
X436516D02*
Y462795D01*
X437106*
Y464370*
X434547D02*
Y462795D01*
X435138*
Y464370*
X432579D02*
Y462795D01*
X433169*
Y464370*
X551772Y510630D02*
Y516929D01*
X554921*
Y510630*
X551772*
X404921Y447244D02*
X411220D01*
Y444094*
X404921*
Y447244*
Y459449D02*
X411220D01*
Y456299*
X404921*
Y459449*
Y471654D02*
X411220D01*
Y468504*
X404921*
Y471654*
Y485039D02*
X411220D01*
Y481890*
X404921*
Y485039*
Y497244D02*
X411220D01*
Y494094*
X404921*
Y497244*
Y509449D02*
X411220D01*
Y506299*
X404921*
Y509449*
X428346Y452362D02*
Y446063D01*
X425197*
Y452362*
X428346*
X429331Y469488D02*
Y463189D01*
X426181*
Y469488*
X429331*
X441535Y411811D02*
X435236D01*
Y414961*
X441535*
Y411811*
X446260Y521850D02*
Y515551D01*
X443110*
Y521850*
X446260*
X451772Y527165D02*
Y520866D01*
X448622*
Y527165*
X451772*
X474016Y397146D02*
X466142D01*
Y402067*
X474016*
Y397146*
X480610Y398228D02*
Y406102D01*
X485531*
Y398228*
X480610*
X509646Y496260D02*
Y489961D01*
X506496*
Y496260*
X509646*
X562008Y410039D02*
X568307D01*
Y406890*
X562008*
Y410039*
X435630Y401772D02*
Y408071D01*
X438780*
Y401772*
X435630*
X444685Y408071D02*
Y401772D01*
X441535*
Y408071*
X444685*
X513976Y522441D02*
Y516142D01*
X510827*
Y522441*
X513976*
X517717Y517717D02*
X524016D01*
Y514567*
X517717*
Y517717*
X518701Y510827D02*
Y504528D01*
X515551*
Y510827*
X518701*
Y493898D02*
Y487598D01*
X515551*
Y493898*
X518701*
X525394Y479331D02*
Y473031D01*
X522244*
Y479331*
X525394*
Y464567D02*
Y458268D01*
X522244*
Y464567*
X525394*
X518898Y447441D02*
Y441142D01*
X515748*
Y447441*
X518898*
Y433071D02*
Y426772D01*
X515748*
Y433071*
X518898*
X484843Y416929D02*
X457283D01*
Y444488*
X484843*
Y416929*
X484055Y443504D02*
G03X484055I-197J0D01*
G01X517913Y539764D02*
X524213D01*
Y536614*
X517913*
Y539764*
X517717Y533858D02*
X524016D01*
Y530709*
X517717*
Y533858*
Y527953D02*
X524016D01*
Y524803*
X517717*
Y527953*
X566339Y400984D02*
X560039D01*
Y404134*
X566339*
Y400984*
X525984Y410433D02*
Y404134D01*
X522835*
Y410433*
X525984*
X534449Y520276D02*
Y539567D01*
X549803*
Y520276*
X534449*
X549803Y521457D02*
X553937D01*
Y523406*
X549803*
X534449Y521437D02*
X530315D01*
Y523406*
X534449*
Y526437D02*
X530315D01*
Y528406*
X534449*
X549803Y526437D02*
X553937D01*
Y528406*
X549803*
X534449Y531437D02*
X530315D01*
Y533406*
X534449*
X549803Y531437D02*
X553937D01*
Y533406*
X549803*
X534449Y536437D02*
X530315D01*
Y538406*
X534449*
X549803Y536437D02*
X553937D01*
Y538406*
X549803*
X549016Y521260D02*
G03X549016I-197J0D01*
G01X549803Y415748D02*
Y396457D01*
X534449*
Y415748*
X549803*
X534449Y414567D02*
X530315D01*
Y412618*
X534449*
X549803Y414587D02*
X553937D01*
Y412618*
X549803*
Y409587D02*
X553937D01*
Y407618*
X549803*
X534449Y409587D02*
X530315D01*
Y407618*
X534449*
X549803Y404587D02*
X553937D01*
Y402618*
X549803*
X534449Y404587D02*
X530315D01*
Y402618*
X534449*
X549803Y399587D02*
X553937D01*
Y397618*
X549803*
X534449Y399587D02*
X530315D01*
Y397618*
X534449*
X535630Y414764D02*
G03X535630I-197J0D01*
G01X517126Y400000D02*
X523425D01*
Y396850*
X517126*
Y400000*
X510827Y532283D02*
Y538583D01*
X513976*
Y532283*
X510827*
X505315Y400000D02*
X511614D01*
Y396850*
X505315*
Y400000*
X406890Y441732D02*
X413189D01*
Y438583*
X406890*
Y441732*
Y453937D02*
X413189D01*
Y450787*
X406890*
Y453937*
Y466142D02*
X413189D01*
Y462992*
X406890*
Y466142*
Y479528D02*
X413189D01*
Y476378*
X406890*
Y479528*
Y491732D02*
X413189D01*
Y488583*
X406890*
Y491732*
Y503937D02*
X413189D01*
Y500787*
X406890*
Y503937*
X420866Y445079D02*
Y438780D01*
X417717*
Y445079*
X420866*
X420669Y457283D02*
Y450984D01*
X417520*
Y457283*
X420669*
X420866Y469488D02*
Y463189D01*
X417717*
Y469488*
X420866*
X579921Y484843D02*
X554724D01*
Y497441*
X579921*
Y484843*
Y421457D02*
X554724D01*
Y434055*
X579921*
Y421457*
X429921Y479134D02*
Y509055D01*
X440157*
Y479134*
X429921*
X423425Y428937D02*
X417126D01*
Y432087*
X423425*
Y428937*
X423031Y422638D02*
X416732D01*
Y425787*
X423031*
Y422638*
Y416339D02*
X416732D01*
Y419488*
X423031*
Y416339*
Y410039D02*
X416732D01*
Y413189*
X423031*
Y410039*
X512795Y417520D02*
Y411220D01*
X509646*
Y417520*
X512795*
X501575Y413976D02*
Y407677D01*
X498425*
Y413976*
X501575*
X502953Y424409D02*
X509252D01*
Y421260*
X502953*
Y424409*
X411614Y403740D02*
X405315D01*
Y406890*
X411614*
Y403740*
X582087Y409055D02*
X575787D01*
Y412205*
X582087*
Y409055*
X412008Y428937D02*
X405709D01*
Y432087*
X412008*
Y428937*
X411614Y422638D02*
X405315D01*
Y425787*
X411614*
Y422638*
Y416339D02*
X405315D01*
Y419488*
X411614*
Y416339*
Y410039D02*
X405315D01*
Y413189*
X411614*
Y410039*
X514961Y404528D02*
Y410827D01*
X518110*
Y404528*
X514961*
X511811Y404724D02*
X505512D01*
Y407874*
X511811*
Y404724*
X514961Y415551D02*
Y421850D01*
X518110*
Y415551*
X514961*
X492323Y476575D02*
X466732D01*
Y517913*
X492323*
Y476575*
X491535Y516929D02*
G03X491535I-196J0D01*
G01X459646Y393583D02*
X449409D01*
Y403819*
X459646*
Y393583*
X584646Y526969D02*
G03X584646I-13386J0D01*
G01X567323Y531890D02*
X564173D01*
X565748Y533465D02*
Y530315D01*
X527128Y491858D02*
X526882Y491768D01*
X526636Y491589*
X526513Y491410*
Y491052*
X526636Y490873*
X526882Y490694*
X527128Y490605*
X527498Y490515*
X528113*
X528482Y490605*
X528728Y490694*
X528974Y490873*
X529097Y491052*
Y491410*
X528974Y491589*
X528728Y491768*
X528482Y491858*
X526513Y493558D02*
X528236Y492663D01*
Y494005*
X526513Y493558D02*
X529097D01*
X527005Y494810D02*
X526882Y494989D01*
X526513Y495258*
X529097*
X527128Y496152D02*
X527005D01*
X526759Y496242*
X526636Y496331*
X526513Y496510*
Y496868*
X526636Y497047*
X526759Y497137*
X527005Y497226*
X527251*
X527498Y497137*
X527867Y496958*
X529097Y496063*
Y497316*
X541868Y493173D02*
X541991Y492994D01*
X542237Y492815*
X542483Y492725*
X542852Y492636*
X543467*
X543836Y492725*
X544082Y492815*
X544328Y492994*
X544451Y493173*
Y493531*
X544328Y493710*
X544082Y493889*
X543836Y493978*
X543467Y494068*
X542852*
X542483Y493978*
X542237Y493889*
X541991Y493710*
X541868Y493531*
Y493173*
X543959Y493441D02*
X544697Y493978D01*
X541868Y495768D02*
X543590Y494873D01*
Y496215*
X541868Y495768D02*
X544451D01*
X541868Y497557D02*
X541991Y497289D01*
X542360Y497110*
X542975Y497020*
X543344*
X543959Y497110*
X544328Y497289*
X544451Y497557*
Y497736*
X544328Y498005*
X543959Y498184*
X543344Y498273*
X542975*
X542360Y498184*
X541991Y498005*
X541868Y497736*
Y497557*
X542360Y499078D02*
X542237Y499257D01*
X541868Y499526*
X544451*
X533821Y460361D02*
X533575Y460272D01*
X533329Y460093*
X533206Y459914*
Y459556*
X533329Y459377*
X533575Y459198*
X533821Y459109*
X534190Y459019*
X534806*
X535175Y459109*
X535421Y459198*
X535667Y459377*
X535790Y459556*
Y459914*
X535667Y460093*
X535421Y460272*
X535175Y460361*
X533206Y462062D02*
X534929Y461167D01*
Y462509*
X533206Y462062D02*
X535790D01*
X533698Y463314D02*
X533575Y463493D01*
X533206Y463762*
X535790*
X533206Y464746D02*
Y465730D01*
X534190Y465193*
Y465462*
X534313Y465641*
X534437Y465730*
X534806Y465820*
X535052*
X535421Y465730*
X535667Y465551*
X535790Y465283*
Y465014*
X535667Y464746*
X535544Y464656*
X535298Y464567*
X548561Y461274D02*
X548684Y461095D01*
X548930Y460916*
X549176Y460827*
X549545Y460737*
X550160*
X550529Y460827*
X550775Y460916*
X551021Y461095*
X551144Y461274*
Y461632*
X551021Y461811*
X550775Y461990*
X550529Y462079*
X550160Y462169*
X549545*
X549176Y462079*
X548930Y461990*
X548684Y461811*
X548561Y461632*
Y461274*
X550652Y461543D02*
X551390Y462079D01*
X548561Y463869D02*
X550283Y462974D01*
Y464316*
X548561Y463869D02*
X551144D01*
X548561Y465659D02*
X548684Y465390D01*
X549053Y465211*
X549668Y465122*
X550037*
X550652Y465211*
X551021Y465390*
X551144Y465659*
Y465838*
X551021Y466106*
X550652Y466285*
X550037Y466374*
X549668*
X549053Y466285*
X548684Y466106*
X548561Y465838*
Y465659*
X549176Y467269D02*
X549053D01*
X548807Y467359*
X548684Y467448*
X548561Y467627*
Y467985*
X548684Y468164*
X548807Y468253*
X549053Y468343*
X549299*
X549545Y468253*
X549914Y468074*
X551144Y467180*
Y468432*
X527128Y428427D02*
X526882Y428338D01*
X526636Y428159*
X526513Y427980*
Y427622*
X526636Y427443*
X526882Y427264*
X527128Y427174*
X527498Y427085*
X528113*
X528482Y427174*
X528728Y427264*
X528974Y427443*
X529097Y427622*
Y427980*
X528974Y428159*
X528728Y428338*
X528482Y428427*
X526513Y430127D02*
X528236Y429232D01*
Y430574*
X526513Y430127D02*
X529097D01*
X527005Y431380D02*
X526882Y431559D01*
X526513Y431827*
X529097*
X526513Y433527D02*
X528236Y432632D01*
Y433975*
X526513Y433527D02*
X529097D01*
X541868Y429384D02*
X541991Y429205D01*
X542237Y429026*
X542483Y428937*
X542852Y428848*
X543467*
X543836Y428937*
X544082Y429026*
X544328Y429205*
X544451Y429384*
Y429742*
X544328Y429921*
X544082Y430100*
X543836Y430190*
X543467Y430279*
X542852*
X542483Y430190*
X542237Y430100*
X541991Y429921*
X541868Y429742*
Y429384*
X543959Y429653D02*
X544697Y430190D01*
X541868Y431979D02*
X543590Y431084D01*
Y432427*
X541868Y431979D02*
X544451D01*
X541868Y433769D02*
X541991Y433500D01*
X542360Y433321*
X542975Y433232*
X543344*
X543959Y433321*
X544328Y433500*
X544451Y433769*
Y433948*
X544328Y434216*
X543959Y434395*
X543344Y434485*
X542975*
X542360Y434395*
X541991Y434216*
X541868Y433948*
Y433769*
Y435469D02*
Y436453D01*
X542852Y435916*
Y436185*
X542975Y436364*
X543098Y436453*
X543467Y436543*
X543713*
X544082Y436453*
X544328Y436274*
X544451Y436006*
Y435737*
X544328Y435469*
X544205Y435379*
X543959Y435290*
X563189Y492188D02*
Y489604D01*
Y492188D02*
X563994D01*
X563994D02*
X564263Y492064D01*
X564352Y491941*
X564442Y491695*
Y491449*
X564352Y491203*
X564263Y491080*
X563994Y490957*
X563189*
X563815D02*
X564442Y489604D01*
X566142Y492188D02*
X565247Y490465D01*
X566589*
X566142Y492188D02*
Y489604D01*
X567931Y492188D02*
X567663Y492064D01*
X567484Y491695*
X567394Y491080*
Y490711*
X567484Y490096*
X567663Y489727*
X567931Y489604*
X568110*
X568379Y489727*
X568558Y490096*
X568647Y490711*
Y491080*
X568558Y491695*
X568379Y492064*
X568110Y492188*
X568110D02*
X567931D01*
X569631D02*
X570616D01*
X570616D02*
X570079Y491203D01*
X570347*
X570526Y491080*
X570616Y490957*
X570705Y490588*
Y490342*
X570616Y489973*
X570437Y489727*
X570168Y489604*
X569900*
X569631Y489727*
X569542Y489850*
X569452Y490096*
X563189Y428802D02*
Y426218D01*
Y428802D02*
X563994D01*
X564263Y428679*
X564352Y428556*
X564442Y428310*
Y428063*
X564352Y427817*
X564263Y427694*
X563994Y427571*
X563189*
X563815D02*
X564442Y426218D01*
X566142Y428802D02*
X565247Y427079D01*
X566589*
X566142Y428802D02*
Y426218D01*
X567931Y428802D02*
X567663Y428679D01*
X567484Y428310*
X567394Y427694*
Y427325*
X567484Y426710*
X567663Y426341*
X567931Y426218*
X568110*
X568379Y426341*
X568558Y426710*
X568647Y427325*
Y427694*
X568558Y428310*
X568379Y428679*
X568110Y428802*
X567931*
X569900D02*
X569631Y428679D01*
X569542Y428433*
Y428187*
X569631Y427940*
X569810Y427817*
X570168Y427694*
X570437Y427571*
X570616Y427325*
X570705Y427079*
Y426710*
X570616Y426464*
X570526Y426341*
X570258Y426218*
X569900*
X569631Y426341*
X569542Y426464*
X569452Y426710*
Y427079*
X569542Y427325*
X569721Y427571*
X569989Y427694*
X570347Y427817*
X570526Y427940*
X570616Y428187*
Y428433*
X570526Y428679*
X570258Y428802*
X569900*
X475394Y498290D02*
Y495706D01*
X477541Y497675D02*
X477452Y497921D01*
X477273Y498167*
X477094Y498290*
X476736*
X476557Y498167*
X476378Y497921*
X476288Y497675*
X476199Y497306*
Y496690*
X476288Y496321*
X476378Y496075*
X476557Y495829*
X476736Y495706*
X477094*
X477273Y495829*
X477452Y496075*
X477541Y496321*
X478525Y498290D02*
X479510D01*
X478973Y497306*
X479241*
X479420Y497183*
X479510Y497060*
X479599Y496690*
Y496444*
X479510Y496075*
X479331Y495829*
X479062Y495706*
X478794*
X478525Y495829*
X478436Y495952*
X478346Y496198*
X480941Y498290D02*
X480673Y498167D01*
X480494Y497798*
X480404Y497183*
Y496813*
X480494Y496198*
X480673Y495829*
X480941Y495706*
X481120*
X481389Y495829*
X481568Y496198*
X481657Y496813*
Y497183*
X481568Y497798*
X481389Y498167*
X481120Y498290*
X480941*
X482462Y497798D02*
X482641Y497921D01*
X482910Y498290*
Y495706*
X451512Y399747D02*
Y397778D01*
X451423Y397409*
X451333Y397286*
X451154Y397163*
X450975*
X450796Y397286*
X450707Y397409*
X450617Y397778*
Y398024*
X452407Y399131D02*
Y399254D01*
X452496Y399500*
X452586Y399624*
X452765Y399747*
X453123*
X453302Y399624*
X453391Y399500*
X453481Y399254*
Y399008*
X453391Y398762*
X453212Y398393*
X452317Y397163*
X453570*
X454912Y399747D02*
X454644Y399624D01*
X454465Y399254*
X454375Y398639*
Y398270*
X454465Y397655*
X454644Y397286*
X454912Y397163*
X455091*
X455360Y397286*
X455539Y397655*
X455628Y398270*
Y398639*
X455539Y399254*
X455360Y399624*
X455091Y399747*
X454912*
X457686D02*
X456791Y397163D01*
X456433Y399747D02*
X457686D01*
X570829Y524579D02*
X570583Y524490D01*
X570337Y524311*
X570214Y524132*
Y523774*
X570337Y523595*
X570583Y523416*
X570829Y523327*
X571198Y523237*
X571813*
X572183Y523327*
X572429Y523416*
X572675Y523595*
X572798Y523774*
Y524132*
X572675Y524311*
X572429Y524490*
X572183Y524579*
X570829Y525474D02*
X570706D01*
X570460Y525564*
X570337Y525653*
X570214Y525832*
Y526190*
X570337Y526369*
X570460Y526458*
X570706Y526548*
X570952*
X571198Y526458*
X571567Y526280*
X572798Y525385*
Y526637*
X570214Y527980D02*
X570337Y527711D01*
X570706Y527532*
X571321Y527443*
X571690*
X572306Y527532*
X572675Y527711*
X572798Y527980*
Y528159*
X572675Y528427*
X572306Y528606*
X571690Y528695*
X571321*
X570706Y528606*
X570337Y528427*
X570214Y528159*
Y527980*
X570706Y529501D02*
X570583Y529680D01*
X570214Y529948*
X572798*
G54D28*
X454097Y408615D02*
X455647D01*
X454097D02*
Y409098D01*
X454171Y409259*
X454245Y409313*
X454392Y409367*
X454392D02*
X454540D01*
X454540D02*
X454687Y409313D01*
X454687D02*
X454761Y409259D01*
X454835Y409098*
Y408615*
Y408991D02*
X455647Y409367D01*
X454466Y409903D02*
X454392D01*
X454245Y409957*
X454171Y410011*
X454097Y410118*
Y410333*
X454171Y410440*
X454245Y410494*
X454392Y410548*
X454540*
X454687Y410494*
X454687D02*
X454909Y410387D01*
X455647Y409850*
Y410601*
X454097Y411407D02*
X454171Y411246D01*
X454392Y411138*
X454761Y411084*
X454983*
X455352Y411138*
X455573Y411246*
X455647Y411407*
Y411514*
X455573Y411675*
X455352Y411782*
X454983Y411836*
X454761*
X454392Y411782*
X454171Y411675*
X454097Y411514*
Y411407*
X454392Y412319D02*
X454318Y412427D01*
X454097Y412588*
X455647*
X507247Y470820D02*
X508797Y471571D01*
X507247D02*
X508797Y470820D01*
X507247Y472162D02*
Y472752D01*
X507837Y472430*
Y472591*
X507911Y472699*
X507985Y472752*
X508206Y472806*
X508354*
X508575Y472752*
X508723Y472645*
X508797Y472484*
Y472323*
X508723Y472162*
X508649Y472108*
X508501Y472054*
X507247Y473611D02*
X507320Y473450D01*
X507542Y473343*
X507911Y473289*
X508132*
X508501Y473343*
X508723Y473450*
X508797Y473611*
Y473719*
X508723Y473880*
X508501Y473987*
X508132Y474041*
X507911*
X507542Y473987*
X507320Y473880*
X507247Y473719*
Y473611*
X507542Y474524D02*
X507468Y474631D01*
X507247Y474792*
X508797*
X459912Y459707D02*
X459859Y459855D01*
X459751Y460002*
X459644Y460076*
X459429*
X459322Y460002*
X459214Y459855*
X459161Y459707*
X459107Y459486*
Y459117*
X459161Y458895*
X459214Y458748*
X459322Y458600*
X459429Y458526*
X459644*
X459751Y458600*
X459859Y458748*
X459912Y458895*
X460932Y460076D02*
X460395Y459043D01*
X461201*
X460932Y460076D02*
Y458526D01*
X462006Y460076D02*
X461845Y460002D01*
X461738Y459781*
X461684Y459412*
Y459190*
X461738Y458821*
X461845Y458600*
X462006Y458526*
X462113*
X462275Y458600*
X462382Y458821*
X462436Y459190*
Y459412*
X462382Y459781*
X462275Y460002*
X462113Y460076*
X462006*
X462972Y459707D02*
Y459781D01*
X463026Y459929*
X463080Y460002*
X463187Y460076*
X463402*
X463509Y460002*
X463563Y459929*
X463617Y459781*
Y459633*
X463563Y459486*
X463456Y459264*
X462919Y458526*
X463670*
X459912Y454195D02*
X459859Y454343D01*
X459751Y454491*
X459644Y454564*
X459429*
X459322Y454491*
X459214Y454343*
X459161Y454195*
X459107Y453974*
Y453605*
X459161Y453383*
X459214Y453236*
X459322Y453088*
X459429Y453014*
X459644*
X459751Y453088*
X459859Y453236*
X459912Y453383*
X460932Y454564D02*
X460395Y453531D01*
X461201*
X460932Y454564D02*
Y453014D01*
X462006Y454564D02*
X461845Y454491D01*
X461738Y454269*
X461684Y453900*
Y453679*
X461738Y453310*
X461845Y453088*
X462006Y453014*
X462113*
X462275Y453088*
X462382Y453310*
X462436Y453679*
Y453900*
X462382Y454269*
X462275Y454491*
X462113Y454564*
X462006*
X463026D02*
X463617D01*
X463295Y453974*
X463456*
X463563Y453900*
X463617Y453826*
X463670Y453605*
Y453457*
X463617Y453236*
X463509Y453088*
X463348Y453014*
X463187*
X463026Y453088*
X462972Y453162*
X462919Y453310*
X470909Y406164D02*
X470855Y406312D01*
X470748Y406459*
X470641Y406533*
X470426*
X470319Y406459*
X470211Y406312*
X470157Y406164*
X470104Y405942*
Y405573*
X470157Y405352*
X470211Y405204*
X470319Y405057*
X470426Y404983*
X470641*
X470748Y405057*
X470855Y405204*
X470909Y405352*
X471929Y406533D02*
X471392Y405500D01*
X472198*
X471929Y406533D02*
Y404983D01*
X473003Y406533D02*
X472842Y406459D01*
X472734Y406238*
X472681Y405869*
Y405647*
X472734Y405278*
X472842Y405057*
X473003Y404983*
X473110*
X473271Y405057*
X473379Y405278*
X473432Y405647*
Y405869*
X473379Y406238*
X473271Y406459*
X473110Y406533*
X473003*
X474613D02*
X474077D01*
X474023Y405869*
X474077Y405942*
X474238Y406016*
X474399*
X474560Y405942*
X474667Y405795*
X474721Y405573*
X474667Y405426*
X474613Y405204*
X474506Y405057*
X474345Y404983*
X474184*
X474023Y405057*
X473969Y405130*
X473916Y405278*
X490424Y449274D02*
X490370Y449422D01*
X490263Y449569*
X490156Y449643*
X489941*
X489834Y449569*
X489726Y449422*
X489673Y449274*
X489619Y449053*
Y448684*
X489673Y448462*
X489726Y448314*
X489834Y448167*
X489941Y448093*
X490156*
X490263Y448167*
X490370Y448314*
X490424Y448462*
X491444Y449643D02*
X490907Y448610D01*
X491713*
X491444Y449643D02*
Y448093D01*
X492518Y449643D02*
X492357Y449569D01*
X492249Y449348*
X492196Y448979*
Y448757*
X492249Y448388*
X492357Y448167*
X492518Y448093*
X492625*
X492786Y448167*
X492894Y448388*
X492947Y448757*
Y448979*
X492894Y449348*
X492786Y449569*
X492625Y449643*
X492518*
X493699D02*
X493538Y449569D01*
X493484Y449422*
Y449274*
X493538Y449126*
X493645Y449053*
X493860Y448979*
X494021Y448905*
X494128Y448757*
X494182Y448610*
Y448388*
X494128Y448241*
X494075Y448167*
X493914Y448093*
X493699*
X493538Y448167*
X493484Y448241*
X493431Y448388*
Y448610*
X493484Y448757*
X493592Y448905*
X493753Y448979*
X493967Y449053*
X494075Y449126*
X494128Y449274*
Y449422*
X494075Y449569*
X493914Y449643*
X493699*
X495805Y431396D02*
X495657Y431342D01*
X495509Y431235*
X495436Y431127*
Y430913*
X495509Y430805*
X495657Y430698*
X495805Y430644*
X496026Y430591*
X496395*
X496617Y430644*
X496764Y430698*
X496912Y430805*
X496986Y430913*
Y431127*
X496912Y431235*
X496764Y431342*
X496617Y431396*
X495436Y432416D02*
X496469Y431879D01*
Y432684*
X495436Y432416D02*
X496986D01*
X495436Y433490D02*
X495509Y433329D01*
X495731Y433221*
X496100Y433168*
X496100D02*
X496321D01*
X496321D02*
X496690Y433221D01*
X496912Y433329*
X496986Y433490*
Y433597*
X496912Y433758*
X496690Y433865*
X496321Y433919*
X496100*
X495731Y433865*
X495509Y433758*
X495436Y433597*
Y433490*
X495952Y435100D02*
X496174Y435047D01*
X496321Y434939*
X496395Y434778*
Y434724*
X496321Y434563*
X496174Y434456*
X495952Y434402*
X495878*
X495657Y434456*
X495509Y434563*
X495436Y434724*
Y434778*
X495509Y434939*
X495657Y435047*
X495952Y435100*
X496321*
X496690Y435047*
X496912Y434939*
X496986Y434778*
Y434671*
X496912Y434510*
X496764Y434456*
X490075Y416400D02*
X490021Y416548D01*
X489914Y416695*
X489807Y416769*
X489592*
X489485Y416695*
X489377Y416548*
X489324Y416400*
X489270Y416179*
Y415810*
X489324Y415588*
X489377Y415440*
X489485Y415293*
X489592Y415219*
X489807*
X489914Y415293*
X490021Y415440*
X490075Y415588*
X491095Y416769D02*
X490558Y415736D01*
X491364*
X491095Y416769D02*
Y415219D01*
X491847Y416474D02*
X491954Y416548D01*
X492115Y416769*
Y415219*
X492921Y416769D02*
X492759Y416695D01*
X492652Y416474*
X492598Y416105*
Y415883*
X492652Y415514*
X492759Y415293*
X492921Y415219*
X493028*
X493189Y415293*
X493296Y415514*
X493350Y415883*
Y416105*
X493296Y416474*
X493189Y416695*
X493028Y416769*
X492921*
X441080Y423665D02*
X440933Y423611D01*
X440785Y423504*
X440711Y423397*
Y423182*
X440785Y423074*
X440933Y422967*
X441080Y422913*
X441302Y422860*
X441671*
X441892Y422913*
X442040Y422967*
X442188Y423074*
X442188D02*
X442261Y423182D01*
Y423397*
X442188Y423504*
X442188D02*
X442040Y423611D01*
X441892Y423665*
X440711Y424685D02*
X441745Y424148D01*
Y424953*
X440711Y424685D02*
X442261D01*
X440711Y425759D02*
X440785Y425598D01*
X441006Y425490*
X441375Y425437*
X441597*
X441966Y425490*
X442188Y425598*
X442188D02*
X442261Y425759D01*
Y425866*
X442188Y426027*
X442188D02*
X441966Y426135D01*
X441597Y426188*
X441375*
X441006Y426135*
X440785Y426027*
X440711Y425866*
Y425759*
Y427208D02*
X441745Y426671D01*
Y427477*
X440711Y427208D02*
X442261D01*
X510568Y506002D02*
X510421Y505948D01*
X510273Y505841*
X510199Y505734*
Y505519*
X510273Y505412*
X510421Y505304*
X510568Y505251*
X510790Y505197*
X511159*
X511380Y505251*
X511528Y505304*
X511676Y505412*
X511750Y505519*
Y505734*
X511676Y505841*
X511528Y505948*
X511380Y506002*
X510199Y506593D02*
Y507183D01*
X510790Y506861*
Y507022*
X510864Y507130*
X510938Y507183*
X510938D02*
X511159Y507237D01*
X511307*
X511528Y507183*
X511676Y507076*
X511750Y506915*
Y506754*
X511676Y506593*
X511602Y506539*
X511454Y506485*
X510199Y508042D02*
X510273Y507881D01*
X510495Y507774*
X510864Y507720*
X511085*
X511454Y507774*
X511676Y507881*
X511750Y508042*
Y508150*
X511676Y508311*
X511454Y508418*
X511085Y508472*
X510864*
X510495Y508418*
X510273Y508311*
X510199Y508150*
Y508042*
Y509707D02*
X511750Y509170D01*
X510199Y508955D02*
Y509707D01*
X444230Y503094D02*
X444082Y503040D01*
X443935Y502933*
X443861Y502826*
Y502611*
X443935Y502504*
X444082Y502396*
X444230Y502343*
X444451Y502289*
X444820*
X445042Y502343*
X445189Y502396*
X445337Y502504*
X445411Y502611*
Y502826*
X445337Y502933*
X445189Y503040*
X445042Y503094*
X443861Y503685D02*
Y504275D01*
X444451Y503953*
Y504114*
X444525Y504222*
X444599Y504275*
X444820Y504329*
X444968*
X445189Y504275*
X445337Y504168*
X445411Y504007*
Y503846*
X445337Y503685*
X445263Y503631*
X445116Y503577*
X443861Y505134D02*
X443935Y504973D01*
X444156Y504866*
X444525Y504812*
X444747*
X445116Y504866*
X445337Y504973*
X445411Y505134*
Y505242*
X445337Y505403*
X445116Y505510*
X444747Y505564*
X444525*
X444156Y505510*
X443935Y505403*
X443861Y505242*
Y505134*
X444156Y506047D02*
X444082Y506154D01*
X443861Y506315*
X445411*
X497773Y525714D02*
X497625Y525660D01*
X497478Y525553*
X497404Y525446*
Y525231*
X497478Y525123*
X497625Y525016*
X497773Y524962*
X497995Y524909*
X498364*
X498585Y524962*
X498733Y525016*
X498880Y525123*
X498954Y525231*
Y525446*
X498880Y525553*
X498733Y525660*
X498585Y525714*
X497404Y526305D02*
Y526895D01*
X497995Y526573*
Y526734*
X498068Y526841*
X498142Y526895*
X498364Y526949*
X498511*
X498733Y526895*
X498880Y526788*
X498954Y526627*
Y526466*
X498880Y526305*
X498807Y526251*
X498659Y526197*
X497404Y527754D02*
X497478Y527593D01*
X497699Y527486*
X498068Y527432*
X498290*
X498659Y527486*
X498880Y527593*
X498954Y527754*
Y527861*
X498880Y528023*
X498659Y528130*
X498290Y528184*
X498068*
X497699Y528130*
X497478Y528023*
X497404Y527861*
Y527754*
X497625Y529311D02*
X497478Y529257D01*
X497404Y529096*
Y528989*
X497478Y528828*
X497699Y528720*
X498068Y528667*
X498438*
X498438D02*
X498733Y528720D01*
X498880Y528828*
X498954Y528989*
Y529043*
X498880Y529204*
X498733Y529311*
X498511Y529365*
X498438*
X498438D02*
X498216Y529311D01*
X498068Y529204*
X497995Y529043*
Y528989*
X498068Y528828*
X498216Y528720*
X498438Y528667*
X453049Y503014D02*
X452996Y503162D01*
X452888Y503310*
X452781Y503383*
X452566*
X452459Y503310*
X452351Y503162*
X452298Y503014*
X452244Y502793*
Y502424*
X452298Y502202*
X452351Y502055*
X452459Y501907*
X452566Y501833*
X452781*
X452888Y501907*
X452996Y502055*
X453049Y502202*
X453640Y503383D02*
X454230D01*
X453908Y502793*
X454069*
X454177Y502719*
X454230Y502645*
X454284Y502424*
Y502276*
X454230Y502055*
X454123Y501907*
X453962Y501833*
X453801*
X453640Y501907*
X453586Y501981*
X453533Y502128*
X455089Y503383D02*
X454928Y503310D01*
X454821Y503088*
X454767Y502719*
Y502498*
X454821Y502128*
X454928Y501907*
X455089Y501833*
X455197*
X455358Y501907*
X455465Y502128*
X455519Y502498*
Y502719*
X455465Y503088*
X455358Y503310*
X455197Y503383*
X455089*
X456056Y503014D02*
Y503088D01*
X456110Y503236*
X456163Y503310*
X456271Y503383*
X456485*
X456593Y503310*
X456646Y503236*
X456700Y503088*
Y502940*
X456646Y502793*
X456539Y502571*
X456002Y501833*
X456754*
X461159Y522144D02*
X461011Y522090D01*
X460864Y521983*
X460790Y521875*
Y521661*
X460864Y521553*
X461011Y521446*
X461159Y521392*
X461380Y521339*
X461750*
X461971Y521392*
X462119Y521446*
X462266Y521553*
X462340Y521661*
Y521875*
X462266Y521983*
X462119Y522090*
X461971Y522144*
X460790Y522734D02*
Y523325D01*
X461380Y523003*
Y523164*
X461454Y523271*
X461528Y523325*
X461750Y523379*
X461897*
X462119Y523325*
X462266Y523218*
X462340Y523057*
Y522895*
X462266Y522734*
X462192Y522681*
X462045Y522627*
X460790Y524184D02*
X460864Y524023D01*
X461085Y523916*
X461454Y523862*
X461676*
X462045Y523916*
X462266Y524023*
X462340Y524184*
Y524291*
X462266Y524452*
X462045Y524560*
X461676Y524613*
X461454*
X461085Y524560*
X460864Y524452*
X460790Y524291*
Y524184*
Y525204D02*
Y525795D01*
X461380Y525472*
Y525634*
X461380D02*
X461454Y525741D01*
X461528Y525795*
X461750Y525848*
X461897*
X462119Y525795*
X462266Y525687*
X462340Y525526*
Y525365*
X462266Y525204*
X462192Y525150*
X462045Y525097*
X480057Y462865D02*
X479909Y462811D01*
X479761Y462704*
X479687Y462597*
X479687D02*
Y462382D01*
X479687D02*
X479761Y462275D01*
X479909Y462167*
X480057Y462113*
X480278Y462060*
X480647*
X480869Y462113*
X481016Y462167*
X481164Y462275*
X481238Y462382*
Y462597*
X481164Y462704*
X481016Y462811*
X480869Y462865*
X479687Y463456D02*
Y464046D01*
X479687D02*
X480278Y463724D01*
Y463885*
X480352Y463992*
X480426Y464046*
X480647Y464100*
X480795*
X481016Y464046*
X481164Y463939*
X481238Y463778*
Y463617*
X481164Y463456*
X481090Y463402*
X480942Y463348*
X479687Y464905D02*
X479761Y464744D01*
X479983Y464637*
X480352Y464583*
X480573*
X480942Y464637*
X481164Y464744*
X481238Y464905*
Y465013*
X481164Y465174*
X480942Y465281*
X480573Y465335*
X480352*
X479983Y465281*
X479761Y465174*
X479687Y465013*
X479687D02*
Y464905D01*
Y466355D02*
X480721Y465818D01*
Y466623*
X479687Y466355D02*
X481238D01*
X498889Y501833D02*
X498835Y501981D01*
X498728Y502128*
X498620Y502202*
X498406*
X498298Y502128*
X498191Y501981*
X498137Y501833*
X498083Y501612*
Y501243*
X498137Y501021*
X498191Y500874*
X498298Y500726*
X498406Y500652*
X498620*
X498728Y500726*
X498835Y500874*
X498889Y501021*
X499479Y502202D02*
X500070D01*
X499748Y501612*
X499909*
X500016Y501538*
X500070Y501464*
X500123Y501243*
Y501095*
X500070Y500874*
X499962Y500726*
X499801Y500652*
X499640*
X499479Y500726*
X499426Y500800*
X499372Y500947*
X500929Y502202D02*
X500768Y502128D01*
X500660Y501907*
X500607Y501538*
Y501316*
X500660Y500947*
X500768Y500726*
X500929Y500652*
X501036*
X501197Y500726*
X501305Y500947*
X501358Y501316*
Y501538*
X501305Y501907*
X501197Y502128*
X501036Y502202*
X500929*
X502539D02*
X502003D01*
X501949Y501538*
X502003Y501612*
X502164Y501686*
X502325*
X502486Y501612*
X502593Y501464*
X502647Y501243*
X502593Y501095*
X502539Y500874*
X502432Y500726*
X502271Y500652*
X502110*
X501949Y500726*
X501895Y500800*
X501841Y500947*
X491080Y525714D02*
X490933Y525660D01*
X490785Y525553*
X490711Y525446*
Y525231*
X490785Y525123*
X490933Y525016*
X491080Y524962*
X491302Y524909*
X491671*
X491892Y524962*
X492040Y525016*
X492188Y525123*
X492188D02*
X492261Y525231D01*
Y525446*
X492188Y525553*
X492188D02*
X492040Y525660D01*
X491892Y525714*
X490711Y526305D02*
Y526895D01*
X491302Y526573*
Y526734*
X491375Y526841*
X491449Y526895*
X491671Y526949*
X491818*
X492040Y526895*
X492188Y526788*
X492188D02*
X492261Y526627D01*
Y526466*
X492188Y526305*
X492188D02*
X492114Y526251D01*
X491966Y526197*
X490711Y527754D02*
X490785Y527593D01*
X491006Y527486*
X491375Y527432*
X491597*
X491966Y527486*
X492188Y527593*
X492188D02*
X492261Y527754D01*
Y527861*
X492188Y528023*
X492188D02*
X491966Y528130D01*
X491597Y528184*
X491375*
X491006Y528130*
X490785Y528023*
X490711Y527861*
Y527754*
X491228Y529365D02*
X491449Y529311D01*
X491597Y529204*
X491671Y529043*
Y528989*
X491597Y528828*
X491449Y528720*
X491228Y528667*
X491154*
X490933Y528720*
X490785Y528828*
X490711Y528989*
Y529043*
X490785Y529204*
X490933Y529311*
X491228Y529365*
X491597*
X491966Y529311*
X492188Y529204*
X492188D02*
X492261Y529043D01*
Y528935*
X492188Y528774*
X492188D02*
X492040Y528720D01*
X469033Y524748D02*
X468885Y524694D01*
X468738Y524587*
X468664Y524479*
Y524264*
X468738Y524157*
X468885Y524050*
X469033Y523996*
X469254Y523942*
X469624*
X469845Y523996*
X469993Y524050*
X470140Y524157*
X470214Y524264*
Y524479*
X470140Y524587*
X469993Y524694*
X469845Y524748*
X468664Y525338D02*
Y525929D01*
X469254Y525607*
Y525768*
X469328Y525875*
X469402Y525929*
X469624Y525982*
X469771*
X469993Y525929*
X470140Y525821*
X470214Y525660*
Y525499*
X470140Y525338*
X470066Y525285*
X469919Y525231*
X468959Y526466D02*
X468885Y526573D01*
X468664Y526734*
X470214*
X468664Y527539D02*
X468738Y527378D01*
X468959Y527271*
X469328Y527217*
X469550*
X469919Y527271*
X470140Y527378*
X470214Y527539*
Y527647*
X470140Y527808*
X469919Y527915*
X469550Y527969*
X469328*
X468959Y527915*
X468738Y527808*
X468664Y527647*
Y527539*
X473757Y463375D02*
X473610Y463321D01*
X473462Y463214*
X473388Y463107*
Y462892*
X473462Y462785*
X473610Y462677*
X473757Y462623*
X473979Y462570*
X474348*
X474569Y462623*
X474717Y462677*
X474865Y462785*
X474938Y462892*
Y463107*
X474865Y463214*
X474717Y463321*
X474569Y463375*
X473388Y463966D02*
Y464556D01*
X473979Y464234*
Y464395*
X474053Y464503*
X474126Y464556*
X474348Y464610*
X474496*
X474717Y464556*
X474865Y464449*
X474938Y464288*
Y464127*
X474865Y463966*
X474791Y463912*
X474643Y463858*
X473684Y465093D02*
X473610Y465200D01*
X473388Y465361*
X474938*
X473684Y465845D02*
X473610Y465952D01*
X473388Y466113*
X474938*
X497576Y471795D02*
X497429Y471741D01*
X497281Y471634*
X497207Y471526*
Y471312*
X497281Y471204*
X497429Y471097*
X497576Y471043*
X497798Y470990*
X498167*
X498388Y471043*
X498536Y471097*
X498684Y471204*
X498757Y471312*
Y471526*
X498684Y471634*
X498536Y471741*
X498388Y471795*
X497207Y472385D02*
Y472976D01*
X497798Y472654*
Y472815*
X497872Y472922*
X497945Y472976*
X498167Y473030*
X498314*
X498536Y472976*
X498684Y472869*
X498757Y472708*
Y472547*
X498684Y472385*
X498610Y472332*
X498462Y472278*
X497502Y473513D02*
X497429Y473620D01*
X497207Y473781*
X498757*
X497576Y474318D02*
X497502D01*
X497355Y474372*
X497281Y474426*
X497207Y474533*
Y474748*
X497281Y474855*
X497355Y474909*
X497502Y474962*
X497650*
X497798Y474909*
X498019Y474801*
X498757Y474264*
Y475016*
X499151Y491677D02*
X499003Y491623D01*
X498856Y491516*
X498782Y491408*
Y491194*
X498856Y491086*
X499003Y490979*
X499151Y490925*
X499373Y490872*
X499742*
X499963Y490925*
X500111Y490979*
X500258Y491086*
X500332Y491194*
Y491408*
X500258Y491516*
X500111Y491623*
X499963Y491677*
X498782Y492267D02*
Y492858D01*
X499373Y492536*
Y492697*
X499446Y492804*
X499520Y492858*
X499742Y492912*
X499889*
X500111Y492858*
X500258Y492751*
X500332Y492589*
Y492428*
X500258Y492267*
X500185Y492214*
X500037Y492160*
X499077Y493395D02*
X499003Y493502D01*
X498782Y493663*
X500332*
X498782Y494254D02*
Y494844D01*
X499373Y494522*
Y494683*
X499446Y494791*
X499520Y494844*
X499742Y494898*
X499889*
X500111Y494844*
X500258Y494737*
X500332Y494576*
Y494415*
X500258Y494254*
X500185Y494200*
X500037Y494146*
X500135Y508776D02*
X499988Y508722D01*
X499840Y508615*
X499766Y508508*
Y508293*
X499840Y508185*
X499988Y508078*
X500135Y508024*
X500357Y507971*
X500726*
X500947Y508024*
X501095Y508078*
X501243Y508185*
X501316Y508293*
Y508508*
X501243Y508615*
X501095Y508722*
X500947Y508776*
X499766Y509366D02*
Y509957D01*
X500357Y509635*
Y509796*
X500431Y509903*
X500504Y509957*
X500726Y510011*
X500874*
X501095Y509957*
X501243Y509850*
X501316Y509689*
Y509528*
X501243Y509366*
X501243D02*
X501169Y509313D01*
X501021Y509259*
X500062Y510494D02*
X499988Y510601D01*
X499766Y510762*
X501316*
X499766Y511782D02*
X500800Y511246D01*
Y512051*
X499766Y511782D02*
X501316D01*
X455450Y522511D02*
X455303Y522457D01*
X455155Y522350*
X455081Y522242*
Y522028*
X455155Y521920*
X455303Y521813*
X455450Y521759*
X455672Y521705*
X456041*
X456262Y521759*
X456410Y521813*
X456558Y521920*
X456631Y522028*
Y522242*
X456558Y522350*
X456410Y522457*
X456262Y522511*
X455450Y523048D02*
X455376D01*
X455229Y523101*
X455155Y523155*
X455081Y523262*
Y523477*
X455155Y523584*
X455229Y523638*
X455376Y523692*
X455524*
X455672Y523638*
X455893Y523531*
X456631Y522994*
Y523746*
X455081Y524551D02*
X455155Y524390D01*
X455376Y524282*
X455746Y524229*
X455967*
X456336Y524282*
X456558Y524390*
X456631Y524551*
Y524658*
X456558Y524819*
X456336Y524927*
X455967Y524980*
X455746*
X455376Y524927*
X455155Y524819*
X455081Y524658*
Y524551*
Y526000D02*
X456115Y525463D01*
Y526269*
X455081Y526000D02*
X456631D01*
X516277Y471008D02*
X516129Y470954D01*
X515982Y470846*
X515908Y470739*
Y470524*
X515982Y470417*
X516129Y470310*
X516277Y470256*
X516499Y470202*
X516868*
X517089Y470256*
X517237Y470310*
X517384Y470417*
X517458Y470524*
Y470739*
X517384Y470846*
X517237Y470954*
X517089Y471008*
X515908Y471598D02*
Y472189D01*
X516499Y471867*
X516499D02*
Y472028D01*
X516572Y472135*
X516646Y472189*
X516868Y472242*
X517015*
X517237Y472189*
X517384Y472081*
X517458Y471920*
Y471759*
X517384Y471598*
X517311Y471544*
X517163Y471491*
X516277Y472779D02*
X516203D01*
X516056Y472833*
X515982Y472887*
X515908Y472994*
Y473209*
X515982Y473316*
X516056Y473370*
X516203Y473423*
X516351*
X516499Y473370*
X516720Y473262*
X517458Y472725*
Y473477*
X516203Y473960D02*
X516129Y474068D01*
X515908Y474229*
X517458*
X510834Y482320D02*
Y480770D01*
X511478*
X512069Y482320D02*
X512659D01*
X512337Y481730*
X512498*
X512606Y481656*
X512659Y481582*
X512713Y481361*
Y481213*
X512659Y480992*
X512552Y480844*
X512391Y480770*
X512230*
X512069Y480844*
X512015Y480918*
X511961Y481065*
X513518Y482320D02*
X513357Y482247D01*
X513250Y482025*
X513196Y481656*
Y481435*
X513250Y481065*
X513357Y480844*
X513518Y480770*
X513626*
X513787Y480844*
X513894Y481065*
X513948Y481435*
Y481656*
X513894Y482025*
X513787Y482247*
X513626Y482320*
X513518*
X514431Y482025D02*
X514538Y482099D01*
X514699Y482320*
Y480770*
X492276Y463029D02*
Y461479D01*
Y463029D02*
X492759D01*
X492921Y462955*
X492974Y462881*
X493028Y462734*
Y462586*
X492974Y462438*
X492921Y462365*
X492759Y462291*
X492276*
X492652D02*
X493028Y461479D01*
X493618Y463029D02*
X494209D01*
X493887Y462438*
X494048*
X494155Y462365*
X494209Y462291*
X494263Y462069*
Y461922*
X494209Y461700*
X494102Y461553*
X493941Y461479*
X493780*
X493618Y461553*
X493565Y461626*
X493511Y461774*
X495068Y463029D02*
X494907Y462955D01*
X494800Y462734*
X494746Y462365*
Y462143*
X494800Y461774*
X494907Y461553*
X495068Y461479*
X495175*
X495336Y461553*
X495444Y461774*
X495497Y462143*
Y462365*
X495444Y462734*
X495336Y462955*
X495175Y463029*
X495068*
X495981Y462734D02*
X496088Y462808D01*
X496249Y463029*
Y461479*
X419033Y478023D02*
X418885Y477969D01*
X418738Y477861*
X418664Y477754*
Y477539*
X418738Y477432*
X418885Y477325*
X419033Y477271*
X419254Y477217*
X419624*
X419845Y477271*
X419993Y477325*
X420140Y477432*
X420214Y477539*
Y477754*
X420140Y477861*
X419993Y477969*
X419845Y478023*
X418664Y478613D02*
Y479204D01*
X419254Y478882*
Y479043*
X419328Y479150*
X419402Y479204*
X419624Y479257*
X419771*
X419993Y479204*
X420140Y479096*
X420214Y478935*
Y478774*
X420140Y478613*
X420066Y478559*
X419919Y478506*
X419033Y479794D02*
X418959D01*
X418812Y479848*
X418738Y479902*
X418664Y480009*
Y480224*
X418738Y480331*
X418812Y480385*
X418959Y480438*
X419107*
X419254Y480385*
X419476Y480277*
X420214Y479741*
Y480492*
X418664Y481673D02*
Y481136D01*
X419328Y481083*
X419254Y481136*
X419181Y481297*
Y481458*
X419254Y481620*
X419402Y481727*
X419624Y481781*
X419771Y481727*
X419993Y481673*
X420140Y481566*
X420214Y481405*
Y481244*
X420140Y481083*
X420066Y481029*
X419919Y480975*
X419033Y490281D02*
X418885Y490227D01*
X418738Y490120*
X418664Y490013*
Y489798*
X418738Y489690*
X418885Y489583*
X419033Y489529*
X419254Y489476*
X419624*
X419845Y489529*
X419993Y489583*
X420140Y489690*
X420214Y489798*
Y490013*
X420140Y490120*
X419993Y490227*
X419845Y490281*
X418664Y490872D02*
Y491462D01*
X419254Y491140*
Y491301*
X419328Y491408*
X419402Y491462*
X419624Y491516*
X419771*
X419993Y491462*
X420140Y491355*
X420214Y491194*
Y491033*
X420140Y490872*
X420066Y490818*
X419919Y490764*
X419033Y492053D02*
X418959D01*
X418812Y492106*
X418738Y492160*
X418664Y492267*
Y492482*
X418738Y492589*
X418812Y492643*
X418959Y492697*
X419107*
X419254Y492643*
X419476Y492536*
X420214Y491999*
Y492751*
X418885Y493878D02*
X418738Y493824D01*
X418664Y493663*
Y493556*
X418738Y493395*
X418959Y493287*
X419328Y493234*
X419697*
X419993Y493287*
X420140Y493395*
X420214Y493556*
Y493610*
X420140Y493771*
X419993Y493878*
X419771Y493932*
X419697*
X419476Y493878*
X419328Y493771*
X419254Y493610*
Y493556*
X419328Y493395*
X419476Y493287*
X419697Y493234*
X419033Y502459D02*
X418885Y502405D01*
X418738Y502298*
X418664Y502190*
Y501976*
X418738Y501868*
X418885Y501761*
X419033Y501707*
X419254Y501654*
X419624*
X419845Y501707*
X419993Y501761*
X420140Y501868*
X420214Y501976*
Y502190*
X420140Y502298*
X419993Y502405*
X419845Y502459*
X418664Y503049D02*
Y503640D01*
X419254Y503318*
Y503479*
X419328Y503586*
X419402Y503640*
X419624Y503694*
X419771*
X419993Y503640*
X420140Y503533*
X420214Y503372*
Y503210*
X420140Y503049*
X420066Y502996*
X419919Y502942*
X419033Y504230D02*
X418959D01*
X418812Y504284*
X418738Y504338*
X418664Y504445*
Y504660*
X418738Y504767*
X418812Y504821*
X418959Y504875*
X419107*
X419254Y504821*
X419476Y504714*
X420214Y504177*
Y504928*
X418664Y506163D02*
X420214Y505626D01*
X418664Y505412D02*
Y506163D01*
X433105Y450431D02*
Y448880D01*
X434393Y450062D02*
X434340Y450209D01*
X434232Y450357*
X434125Y450431*
X433910*
X433803Y450357*
X433695Y450209*
X433642Y450062*
X433588Y449840*
Y449471*
X433642Y449250*
X433695Y449102*
X433803Y448954*
X433910Y448880*
X434125*
X434232Y448954*
X434340Y449102*
X434393Y449250*
X434984Y450431D02*
X435574D01*
X435252Y449840*
X435413*
X435521Y449766*
X435574Y449692*
X435628Y449471*
Y449323*
X435574Y449102*
X435467Y448954*
X435306Y448880*
X435145*
X434984Y448954*
X434930Y449028*
X434877Y449176*
X436433Y450431D02*
X436272Y450357D01*
X436165Y450135*
X436111Y449766*
Y449545*
X436165Y449176*
X436272Y448954*
X436433Y448880*
X436541*
X436702Y448954*
X436809Y449176*
X436863Y449545*
Y449766*
X436809Y450135*
X436702Y450357*
X436541Y450431*
X436433*
X437400Y450062D02*
Y450135D01*
X437453Y450283*
X437507Y450357*
X437615Y450431*
X437829*
X437937Y450357*
X437990Y450283*
X438044Y450135*
Y449988*
X437990Y449840*
X437883Y449619*
X437346Y448880*
X438098*
X433105Y469722D02*
Y468172D01*
X434393Y469353D02*
X434340Y469500D01*
X434232Y469648*
X434125Y469722*
X433910*
X433803Y469648*
X433695Y469500*
X433642Y469353*
X433588Y469131*
Y468762*
X433642Y468541*
X433695Y468393*
X433803Y468246*
X433910Y468172*
X434125*
X434232Y468246*
X434340Y468393*
X434393Y468541*
X434984Y469722D02*
X435574D01*
X435252Y469131*
X435413*
X435521Y469058*
X435574Y468984*
X435628Y468762*
Y468615*
X435574Y468393*
X435467Y468246*
X435306Y468172*
X435145*
X434984Y468246*
X434930Y468319*
X434877Y468467*
X436433Y469722D02*
X436272Y469648D01*
X436165Y469427*
X436111Y469058*
Y468836*
X436165Y468467*
X436272Y468246*
X436433Y468172*
X436541*
X436702Y468246*
X436809Y468467*
X436863Y468836*
Y469058*
X436809Y469427*
X436702Y469648*
X436541Y469722*
X436433*
X437453D02*
X438044D01*
X437722Y469131*
X437883*
X437990Y469058*
X438044Y468984*
X438098Y468762*
Y468615*
X438044Y468393*
X437937Y468246*
X437776Y468172*
X437615*
X437453Y468246*
X437400Y468319*
X437346Y468467*
X552719Y511541D02*
X554269D01*
X552719D02*
Y512024D01*
X552793Y512185*
X552867Y512239*
X553014Y512292*
X553162*
X553310Y512239*
X553383Y512185*
X553457Y512024*
Y511541*
Y511917D02*
X554269Y512292D01*
X552719Y512883D02*
Y513474D01*
X553310Y513151*
Y513312*
X553383Y513420*
X553457Y513474*
X553679Y513527*
X553826*
X554048Y513474*
X554195Y513366*
X554269Y513205*
Y513044*
X554195Y512883*
X554122Y512829*
X553974Y512776*
X553014Y514010D02*
X552940Y514118D01*
X552719Y514279*
X554269*
X552719Y515460D02*
Y514923D01*
X553383Y514869*
X553310Y514923*
X553236Y515084*
Y515245*
X553310Y515406*
X553457Y515514*
X553679Y515567*
X553826Y515514*
X554048Y515460*
X554195Y515353*
X554269Y515191*
Y515030*
X554195Y514869*
X554122Y514816*
X553974Y514762*
X405859Y446297D02*
Y444747D01*
Y446297D02*
X406342D01*
X406503Y446223*
X406557Y446149*
X406611Y446001*
Y445854*
X406557Y445706*
X406503Y445632*
X406342Y445559*
X405859*
X406235D02*
X406611Y444747D01*
X407201Y446297D02*
X407792D01*
X407470Y445706*
X407631*
X407738Y445632*
X407792Y445559*
X407845Y445337*
Y445189*
X407792Y444968*
X407684Y444820*
X407523Y444747*
X407362*
X407201Y444820*
X407147Y444894*
X407094Y445042*
X408329Y446001D02*
X408436Y446075D01*
X408597Y446297*
Y444747*
X409832Y446297D02*
X409295Y444747D01*
X409080Y446297D02*
X409832D01*
X405859Y458501D02*
Y456951D01*
Y458501D02*
X406342D01*
X406503Y458428*
X406557Y458354*
X406611Y458206*
Y458059*
X406557Y457911*
X406503Y457837*
X406342Y457763*
X405859*
X406235D02*
X406611Y456951D01*
X407201Y458501D02*
X407792D01*
X407470Y457911*
X407631*
X407738Y457837*
X407792Y457763*
X407845Y457542*
Y457394*
X407792Y457173*
X407684Y457025*
X407523Y456951*
X407362*
X407201Y457025*
X407147Y457099*
X407094Y457247*
X408329Y458206D02*
X408436Y458280D01*
X408597Y458501*
Y456951*
X409349Y458501D02*
X409188Y458428D01*
X409134Y458280*
Y458132*
X409188Y457985*
X409295Y457911*
X409510Y457837*
X409671Y457763*
X409778Y457616*
X409832Y457468*
Y457247*
X409778Y457099*
X409724Y457025*
X409563Y456951*
X409349*
X409188Y457025*
X409134Y457099*
X409080Y457247*
Y457468*
X409134Y457616*
X409241Y457763*
X409402Y457837*
X409617Y457911*
X409724Y457985*
X409778Y458132*
Y458280*
X409724Y458428*
X409563Y458501*
X409349*
X405886Y470706D02*
Y469156D01*
Y470706D02*
X406369D01*
X406530Y470632*
X406584Y470559*
X406637Y470411*
Y470263*
X406584Y470116*
X406530Y470042*
X406369Y469968*
X405886*
X406262D02*
X406637Y469156D01*
X407228Y470706D02*
X407819D01*
X407496Y470116*
X407657*
X407765Y470042*
X407819Y469968*
X407872Y469747*
Y469599*
X407819Y469377*
X407711Y469230*
X407550Y469156*
X407389*
X407228Y469230*
X407174Y469304*
X407121Y469451*
X408355Y470411D02*
X408463Y470485D01*
X408624Y470706*
Y469156*
X409805Y470189D02*
X409751Y469968D01*
X409644Y469820*
X409483Y469747*
X409429*
X409268Y469820*
X409161Y469968*
X409107Y470189*
Y470263*
X409161Y470485*
X409268Y470632*
X409429Y470706*
X409483*
X409644Y470632*
X409751Y470485*
X409805Y470189*
Y469820*
X409751Y469451*
X409644Y469230*
X409483Y469156*
X409375*
X409214Y469230*
X409161Y469377*
X405617Y484092D02*
Y482542D01*
Y484092D02*
X406101D01*
X406262Y484018*
X406315Y483944*
X406369Y483797*
Y483649*
X406315Y483501*
X406262Y483428*
X406101Y483354*
X405617*
X405993D02*
X406369Y482542D01*
X406960Y484092D02*
X407550D01*
X407228Y483501*
X407389*
X407496Y483428*
X407550Y483354*
X407604Y483132*
Y482985*
X407550Y482763*
X407443Y482616*
X407282Y482542*
X407121*
X406960Y482616*
X406906Y482689*
X406852Y482837*
X408141Y483723D02*
Y483797D01*
X408194Y483944*
X408248Y484018*
X408355Y484092*
X408570*
X408678Y484018*
X408731Y483944*
X408785Y483797*
Y483649*
X408731Y483501*
X408624Y483280*
X408087Y482542*
X408839*
X409644Y484092D02*
X409483Y484018D01*
X409375Y483797*
X409322Y483428*
Y483206*
X409375Y482837*
X409483Y482616*
X409644Y482542*
X409751*
X409912Y482616*
X410020Y482837*
X410073Y483206*
Y483428*
X410020Y483797*
X409912Y484018*
X409751Y484092*
X409644*
X405859Y496297D02*
Y494747D01*
Y496297D02*
X406342D01*
X406503Y496223*
X406557Y496149*
X406611Y496001*
Y495854*
X406557Y495706*
X406503Y495632*
X406342Y495559*
X405859*
X406235D02*
X406611Y494747D01*
X407201Y496297D02*
X407792D01*
X407470Y495706*
X407631*
X407738Y495632*
X407792Y495559*
X407845Y495337*
Y495189*
X407792Y494968*
X407684Y494820*
X407523Y494747*
X407362*
X407201Y494820*
X407147Y494894*
X407094Y495042*
X408382Y495928D02*
Y496001D01*
X408436Y496149*
X408490Y496223*
X408597Y496297*
X408812*
X408919Y496223*
X408973Y496149*
X409026Y496001*
Y495854*
X408973Y495706*
X408865Y495485*
X408329Y494747*
X409080*
X409563Y496001D02*
X409671Y496075D01*
X409832Y496297*
Y494747*
X405617Y508501D02*
Y506951D01*
Y508501D02*
X406101D01*
X406262Y508428*
X406315Y508354*
X406369Y508206*
Y508059*
X406315Y507911*
X406262Y507837*
X406101Y507763*
X405617*
X405993D02*
X406369Y506951D01*
X406960Y508501D02*
X407550D01*
X407228Y507911*
X407389*
X407496Y507837*
X407550Y507763*
X407604Y507542*
Y507394*
X407550Y507173*
X407443Y507025*
X407282Y506951*
X407121*
X406960Y507025*
X406906Y507099*
X406852Y507247*
X408141Y508132D02*
Y508206D01*
X408194Y508354*
X408248Y508428*
X408355Y508501*
X408570*
X408678Y508428*
X408731Y508354*
X408785Y508206*
Y508059*
X408731Y507911*
X408624Y507689*
X408087Y506951*
X408839*
X409375Y508132D02*
Y508206D01*
X409429Y508354*
X409483Y508428*
X409590Y508501*
X409805*
X409912Y508428*
X409966Y508354*
X410020Y508206*
Y508059*
X409966Y507911*
X409859Y507689*
X409322Y506951*
X410073*
X426513Y447538D02*
X426366Y447484D01*
X426218Y447377*
X426144Y447269*
Y447054*
X426218Y446947*
X426366Y446840*
X426513Y446786*
X426735Y446732*
X427104*
X427325Y446786*
X427473Y446840*
X427621Y446947*
X427694Y447054*
Y447269*
X427621Y447377*
X427473Y447484*
X427325Y447538*
X426144Y448128D02*
Y448719D01*
X426735Y448397*
Y448558*
X426809Y448665*
X426882Y448719*
X427104Y448772*
X427251*
X427473Y448719*
X427621Y448611*
X427694Y448450*
Y448289*
X427621Y448128*
X427547Y448074*
X427399Y448021*
X426513Y449309D02*
X426439D01*
X426292Y449363*
X426218Y449417*
X426144Y449524*
Y449739*
X426218Y449846*
X426292Y449900*
X426439Y449953*
X426587*
X426735Y449900*
X426956Y449792*
X427694Y449256*
Y450007*
X426144Y450759D02*
X426218Y450598D01*
X426366Y450544*
X426513*
X426661Y450598*
X426735Y450705*
X426809Y450920*
X426882Y451081*
X427030Y451188*
X427178Y451242*
X427399*
X427547Y451188*
X427621Y451135*
X427694Y450974*
Y450759*
X427621Y450598*
X427547Y450544*
X427399Y450490*
X427178*
X427030Y450544*
X426882Y450651*
X426809Y450812*
X426735Y451027*
X426661Y451135*
X426513Y451188*
X426366*
X426218Y451135*
X426144Y450974*
Y450759*
X427498Y464690D02*
X427350Y464637D01*
X427202Y464529*
X427128Y464422*
Y464207*
X427202Y464100*
X427350Y463992*
X427498Y463939*
X427719Y463885*
X428088*
X428310Y463939*
X428457Y463992*
X428605Y464100*
X428679Y464207*
Y464422*
X428605Y464529*
X428457Y464637*
X428310Y464690*
X427128Y465281D02*
Y465872D01*
X427719Y465549*
Y465710*
X427793Y465818*
X427867Y465872*
X428088Y465925*
X428236*
X428457Y465872*
X428605Y465764*
X428679Y465603*
Y465442*
X428605Y465281*
X428531Y465227*
X428383Y465174*
X427498Y466462D02*
X427424D01*
X427276Y466516*
X427202Y466569*
X427128Y466677*
Y466892*
X427202Y466999*
X427276Y467053*
X427424Y467106*
X427571*
X427719Y467053*
X427940Y466945*
X428679Y466408*
Y467160*
X427645Y468341D02*
X427867Y468287D01*
X428014Y468180*
X428088Y468019*
Y467965*
X428014Y467804*
X427867Y467697*
X427645Y467643*
X427571*
X427350Y467697*
X427202Y467804*
X427128Y467965*
Y468019*
X427202Y468180*
X427350Y468287*
X427645Y468341*
X428014*
X428383Y468287*
X428605Y468180*
X428679Y468019*
Y467912*
X428605Y467751*
X428457Y467697*
X436711Y413644D02*
X436657Y413792D01*
X436550Y413939*
X436442Y414013*
X436228*
X436120Y413939*
X436013Y413792*
X435959Y413644*
X435906Y413423*
Y413054*
X435959Y412832*
X436013Y412685*
X436120Y412537*
X436228Y412463*
X436442*
X436550Y412537*
X436657Y412685*
X436711Y412832*
X437248Y413644D02*
Y413718D01*
X437301Y413866*
X437355Y413939*
X437462Y414013*
X437677*
X437785Y413939*
X437838Y413866*
X437892Y413718*
Y413570*
X437838Y413423*
X437731Y413201*
X437194Y412463*
X437946*
X438751Y414013D02*
X438590Y413939D01*
X438482Y413718*
X438429Y413349*
Y413127*
X438482Y412758*
X438590Y412537*
X438751Y412463*
X438858*
X439019Y412537*
X439127Y412758*
X439180Y413127*
Y413349*
X439127Y413718*
X439019Y413939*
X438858Y414013*
X438751*
X439771D02*
X440361D01*
X440039Y413423*
X440200*
X440308Y413349*
X440361Y413275*
X440415Y413054*
Y412906*
X440361Y412685*
X440254Y412537*
X440093Y412463*
X439932*
X439771Y412537*
X439717Y412611*
X439664Y412758*
X444058Y516247D02*
X445608D01*
X444058D02*
Y516730D01*
X444131Y516892*
X444205Y516945*
X444353Y516999*
X444500*
X444648Y516945*
X444722Y516892*
X444796Y516730*
Y516247*
Y516623D02*
X445608Y516999D01*
X444427Y517536D02*
X444353D01*
X444205Y517589*
X444131Y517643*
X444058Y517751*
Y517965*
X444131Y518073*
X444205Y518126*
X444353Y518180*
X444500*
X444648Y518126*
X444870Y518019*
X445608Y517482*
Y518234*
X444058Y519039D02*
X444131Y518878D01*
X444353Y518771*
X444722Y518717*
X444943*
X445313Y518771*
X445313D02*
X445534Y518878D01*
X445608Y519039*
Y519146*
X445534Y519307*
X445313Y519415*
X445313D02*
X444943Y519469D01*
X444722*
X444353Y519415*
X444131Y519307*
X444058Y519146*
Y519039*
Y520703D02*
X445608Y520166D01*
X444058Y519952D02*
Y520703D01*
X449569Y521562D02*
X451120D01*
X449569D02*
Y522045D01*
X449643Y522207*
X449717Y522260*
X449865Y522314*
X450012*
X450160Y522260*
X450234Y522207*
X450308Y522045*
Y521562*
Y521938D02*
X451120Y522314D01*
X449938Y522851D02*
X449865D01*
X449717Y522904*
X449643Y522958*
X449569Y523065*
X449569D02*
Y523280D01*
X449643Y523388*
X449717Y523441*
X449865Y523495*
X450012*
X450160Y523441*
X450381Y523334*
X451120Y522797*
Y523549*
X449569Y524354D02*
X449643Y524193D01*
X449865Y524086*
X450234Y524032*
X450455*
X450824Y524086*
X451046Y524193*
X451120Y524354*
Y524461*
X451046Y524622*
X450824Y524730*
X450455Y524783*
X450234*
X449865Y524730*
X449643Y524622*
X449569Y524461*
Y524354*
Y525535D02*
X449643Y525374D01*
X449791Y525320*
X449938*
X450086Y525374*
X450160Y525481*
X450234Y525696*
X450308Y525857*
X450455Y525965*
X450603Y526018*
X450824*
X450972Y525965*
X451046Y525911*
X451120Y525750*
Y525535*
X451046Y525374*
X450972Y525320*
X450824Y525267*
X450603*
X450455Y525320*
X450308Y525428*
X450234Y525589*
X450160Y525804*
X450086Y525911*
X449938Y525965*
X449791*
X449643Y525911*
X449569Y525750*
Y525535*
X468618Y399865D02*
X468565Y400012D01*
X468457Y400160*
X468350Y400234*
X468135*
X468028Y400160*
X467921Y400012*
X467867Y399865*
X467813Y399643*
Y399274*
X467867Y399053*
X467921Y398905*
X468028Y398757*
X468135Y398684*
X468350*
X468457Y398757*
X468565Y398905*
X468618Y399053*
X469639Y400234D02*
X469102Y399200D01*
X469907*
X469639Y400234D02*
Y398684D01*
X470712Y400234D02*
X470551Y400160D01*
X470444Y399938*
X470390Y399569*
Y399348*
X470444Y398979*
X470551Y398757*
X470712Y398684*
X470820*
X470981Y398757*
X471088Y398979*
X471142Y399348*
Y399569*
X471088Y399938*
X470981Y400160*
X470820Y400234*
X470712*
X471625Y399938D02*
X471732Y400012D01*
X471893Y400234*
Y398684*
X482812Y400463D02*
X482665Y400410D01*
X482517Y400302*
X482443Y400195*
Y399980*
X482517Y399873*
X482665Y399766*
X482812Y399712*
X482812D02*
X483034Y399658D01*
X483403*
X483625Y399712*
X483772Y399766*
X483920Y399873*
X483994Y399980*
Y400195*
X483920Y400302*
X483772Y400410*
X483625Y400463*
X482443Y401484D02*
X483477Y400947D01*
Y401752*
X482443Y401484D02*
X483994D01*
X482443Y402557D02*
X482517Y402396D01*
X482739Y402289*
X483108Y402235*
X483329*
X483698Y402289*
X483920Y402396*
X483994Y402557*
Y402665*
X483920Y402826*
X483698Y402933*
X483329Y402987*
X483108*
X482739Y402933*
X482517Y402826*
X482443Y402665*
Y402557*
Y404222D02*
X483994Y403685D01*
X482443Y403470D02*
Y404222D01*
X507812Y491435D02*
X507665Y491382D01*
X507517Y491274*
X507443Y491167*
Y490952*
X507517Y490845*
X507665Y490737*
X507812Y490684*
X507812D02*
X508034Y490630D01*
X508403*
X508625Y490684*
X508772Y490737*
X508920Y490845*
X508994Y490952*
Y491167*
X508920Y491274*
X508772Y491382*
X508625Y491435*
X507443Y492026D02*
Y492616D01*
X508034Y492294*
Y492455*
X508108Y492563*
X508182Y492616*
X508403Y492670*
X508551*
X508772Y492616*
X508920Y492509*
X508994Y492348*
Y492187*
X508920Y492026*
X508846Y491972*
X508698Y491918*
X507443Y493475D02*
X507517Y493314D01*
X507739Y493207*
X508108Y493153*
X508329*
X508698Y493207*
X508920Y493314*
X508994Y493475*
Y493583*
X508920Y493744*
X508698Y493851*
X508329Y493905*
X508108*
X507739Y493851*
X507517Y493744*
X507443Y493583*
Y493475*
Y494656D02*
X507517Y494495D01*
X507665Y494442*
X507812*
X507812D02*
X507960Y494495D01*
X508034Y494603*
X508108Y494817*
X508182Y494979*
X508329Y495086*
X508477Y495140*
X508698*
X508846Y495086*
X508920Y495032*
X508994Y494871*
Y494656*
X508920Y494495*
X508846Y494442*
X508698Y494388*
X508477*
X508329Y494442*
X508182Y494549*
X508108Y494710*
X508034Y494925*
X507960Y495032*
X507812Y495086*
X507812D02*
X507665D01*
X507517Y495032*
X507443Y494871*
Y494656*
X562704Y409092D02*
Y407542D01*
Y409092D02*
X563187D01*
X563348Y409018*
X563402Y408944*
X563456Y408797*
Y408649*
X563402Y408501*
X563348Y408428*
X563187Y408354*
X562704*
X563080D02*
X563456Y407542D01*
X563992Y408723D02*
Y408797D01*
X564046Y408944*
X564100Y409018*
X564207Y409092*
X564422*
X564529Y409018*
X564583Y408944*
X564637Y408797*
Y408649*
X564583Y408501*
X564476Y408280*
X563939Y407542*
X564690*
X565496Y409092D02*
X565335Y409018D01*
X565227Y408797*
X565174Y408428*
Y408206*
X565227Y407837*
X565335Y407616*
X565496Y407542*
X565603*
X565764Y407616*
X565872Y407837*
X565925Y408206*
Y408428*
X565872Y408797*
X565764Y409018*
X565603Y409092*
X565496*
X566462Y408723D02*
Y408797D01*
X566516Y408944*
X566569Y409018*
X566677Y409092*
X566892*
X566999Y409018*
X567053Y408944*
X567106Y408797*
Y408649*
X567053Y408501*
X566945Y408280*
X566408Y407542*
X567160*
X436577Y402495D02*
X438127D01*
X436577D02*
Y402978D01*
X436651Y403139*
X436725Y403193*
X436873Y403246*
X437020*
X437168Y403193*
X437242Y403139*
X437315Y402978*
Y402495*
Y402870D02*
X438127Y403246D01*
X436946Y403783D02*
X436873D01*
X436725Y403837*
X436651Y403890*
X436577Y403998*
Y404213*
X436651Y404320*
X436725Y404374*
X436873Y404427*
X437020*
X437168Y404374*
X437389Y404266*
X438127Y403729*
Y404481*
X436577Y405286D02*
X436651Y405125D01*
X436873Y405018*
X437242Y404964*
X437463*
X437832Y405018*
X438054Y405125*
X438127Y405286*
Y405394*
X438054Y405555*
X437832Y405662*
X437463Y405716*
X437242*
X436873Y405662*
X436651Y405555*
X436577Y405394*
Y405286*
X436799Y406843D02*
X436651Y406790D01*
X436577Y406628*
Y406521*
X436651Y406360*
X436873Y406253*
X437242Y406199*
X437611*
X437906Y406253*
X438054Y406360*
X438127Y406521*
Y406575*
X438054Y406736*
X437906Y406843*
X437685Y406897*
X437611*
X437389Y406843*
X437242Y406736*
X437168Y406575*
Y406521*
X437242Y406360*
X437389Y406253*
X437611Y406199*
X442483Y402441D02*
X444033D01*
X442483D02*
Y402924D01*
X442557Y403085*
X442630Y403139*
X442778Y403193*
X442926*
X443073Y403139*
X443147Y403085*
X443221Y402924*
Y402441*
Y402817D02*
X444033Y403193D01*
X442852Y403729D02*
X442778D01*
X442630Y403783*
X442557Y403837*
X442483Y403944*
Y404159*
X442557Y404266*
X442630Y404320*
X442778Y404374*
X442926*
X443073Y404320*
X443295Y404213*
X444033Y403676*
Y404427*
X442483Y405233D02*
X442557Y405072D01*
X442778Y404964*
X443147Y404911*
X443369*
X443738Y404964*
X443959Y405072*
X444033Y405233*
Y405340*
X443959Y405501*
X443738Y405608*
X443369Y405662*
X443147*
X442778Y405608*
X442557Y405501*
X442483Y405340*
Y405233*
Y406843D02*
Y406306D01*
X443147Y406253*
X443073Y406306*
X443000Y406467*
Y406628*
X443073Y406790*
X443221Y406897*
X443442Y406951*
X443590Y406897*
X443812Y406843*
X443959Y406736*
X444033Y406575*
Y406414*
X443959Y406253*
X443885Y406199*
X443738Y406145*
X511774Y517106D02*
X513324D01*
X511774D02*
Y517589D01*
X511848Y517751*
X511922Y517804*
X512069Y517858*
X512217*
X512365Y517804*
X512438Y517751*
X512512Y517589*
Y517106*
Y517482D02*
X513324Y517858D01*
X511774Y518448D02*
Y519039D01*
X512365Y518717*
Y518878*
X512438Y518985*
X512512Y519039*
X512734Y519093*
X512881*
X513103Y519039*
X513250Y518932*
X513324Y518771*
Y518610*
X513250Y518448*
X513177Y518395*
X513029Y518341*
X512069Y519576D02*
X511996Y519683D01*
X511774Y519844*
X513324*
X511996Y520972D02*
X511848Y520918D01*
X511774Y520757*
Y520650*
X511848Y520489*
X512069Y520381*
X512438Y520327*
X512808*
X513103Y520381*
X513250Y520489*
X513324Y520650*
Y520703*
X513250Y520864*
X513103Y520972*
X512881Y521025*
X512808*
X512586Y520972*
X512438Y520864*
X512365Y520703*
Y520650*
X512438Y520489*
X512586Y520381*
X512808Y520327*
X518627Y516769D02*
Y515219D01*
Y516769D02*
X519111D01*
X519272Y516695*
X519325Y516622*
X519379Y516474*
Y516326*
X519325Y516179*
X519272Y516105*
X519111Y516031*
X518627*
X519003D02*
X519379Y515219D01*
X519970Y516769D02*
X520560D01*
X520238Y516179*
X520399*
X520506Y516105*
X520560Y516031*
X520614Y515810*
Y515662*
X520560Y515440*
X520453Y515293*
X520292Y515219*
X520131*
X519970Y515293*
X519916Y515367*
X519862Y515514*
X521097Y516474D02*
X521204Y516548D01*
X521365Y516769*
Y515219*
X522385Y516769D02*
X521849Y515736D01*
X522654*
X522385Y516769D02*
Y515219D01*
X516499Y505438D02*
X518049D01*
X516499D02*
Y505922D01*
X516572Y506083*
X516646Y506136*
X516794Y506190*
X516941*
X517089Y506136*
X517163Y506083*
X517237Y505922*
Y505438*
Y505814D02*
X518049Y506190D01*
X516499Y507210D02*
X517532Y506673D01*
Y507479*
X516499Y507210D02*
X518049D01*
X516499Y508284D02*
X516572Y508123D01*
X516794Y508015*
X517163Y507962*
X517384*
X517753Y508015*
X517975Y508123*
X518049Y508284*
Y508391*
X517975Y508552*
X517753Y508660*
X517384Y508713*
X517163*
X516794Y508660*
X516572Y508552*
X516499Y508391*
Y508284*
X516794Y509196D02*
X516720Y509304D01*
X516499Y509465*
X518049*
X516499Y488268D02*
X518049D01*
X516499D02*
Y488751D01*
X516572Y488912*
X516646Y488966*
X516794Y489019*
X516941*
X517089Y488966*
X517163Y488912*
X517237Y488751*
Y488268*
Y488644D02*
X518049Y489019D01*
X516499Y490039D02*
X517532Y489503D01*
Y490308*
X516499Y490039D02*
X518049D01*
X516499Y491113D02*
X516572Y490952D01*
X516794Y490845*
X517163Y490791*
X517384*
X517753Y490845*
X517975Y490952*
X518049Y491113*
Y491220*
X517975Y491382*
X517753Y491489*
X517384Y491543*
X517163*
X516794Y491489*
X516572Y491382*
X516499Y491220*
Y491113*
X516868Y492079D02*
X516794D01*
X516646Y492133*
X516572Y492187*
X516499Y492294*
Y492509*
X516572Y492616*
X516646Y492670*
X516794Y492724*
X516941*
X517089Y492670*
X517311Y492563*
X518049Y492026*
Y492777*
X523191Y473728D02*
X524742D01*
X523191D02*
Y474211D01*
X523265Y474372*
X523339Y474426*
X523487Y474479*
X523634*
X523782Y474426*
X523856Y474372*
X523930Y474211*
Y473728*
Y474103D02*
X524742Y474479D01*
X523191Y475499D02*
X524225Y474962D01*
Y475768*
X523191Y475499D02*
X524742D01*
X523191Y476573D02*
X523265Y476412D01*
X523487Y476305*
X523856Y476251*
X524077*
X524446Y476305*
X524668Y476412*
X524742Y476573*
Y476680*
X524668Y476841*
X524446Y476949*
X524077Y477003*
X523856*
X523487Y476949*
X523265Y476841*
X523191Y476680*
Y476573*
X523413Y478130D02*
X523265Y478076D01*
X523191Y477915*
Y477808*
X523265Y477647*
X523487Y477539*
X523856Y477486*
X524225*
X524520Y477539*
X524668Y477647*
X524742Y477808*
Y477861*
X524668Y478023*
X524520Y478130*
X524299Y478184*
X524225*
X524003Y478130*
X523856Y478023*
X523782Y477861*
Y477808*
X523856Y477647*
X524003Y477539*
X524225Y477486*
X523191Y458937D02*
X524742D01*
X523191D02*
Y459420D01*
X523265Y459581*
X523339Y459635*
X523487Y459689*
X523634*
X523782Y459635*
X523856Y459581*
X523930Y459420*
Y458937*
Y459313D02*
X524742Y459689D01*
X523191Y460709D02*
X524225Y460172D01*
Y460977*
X523191Y460709D02*
X524742D01*
X523191Y461782D02*
X523265Y461621D01*
X523487Y461514*
X523856Y461460*
X524077*
X524446Y461514*
X524668Y461621*
X524742Y461782*
Y461890*
X524668Y462051*
X524446Y462158*
X524077Y462212*
X523856*
X523487Y462158*
X523265Y462051*
X523191Y461890*
Y461782*
Y463447D02*
X524742Y462910D01*
X523191Y462695D02*
Y463447D01*
X516695Y442294D02*
X518246D01*
X516695D02*
Y442777D01*
X516769Y442938*
X516843Y442992*
X516991Y443046*
X517138*
X517286Y442992*
X517360Y442938*
X517434Y442777*
Y442294*
Y442670D02*
X518246Y443046D01*
X516695Y444066D02*
X517729Y443529D01*
Y444334*
X516695Y444066D02*
X518246D01*
X516991Y444817D02*
X516917Y444925D01*
X516695Y445086*
X518246*
X516991Y445569D02*
X516917Y445676D01*
X516695Y445838*
X518246*
X516695Y427683D02*
X518246D01*
X516695D02*
Y428166D01*
X516769Y428327*
X516843Y428380*
X516991Y428434*
X517138*
X517286Y428380*
X517360Y428327*
X517434Y428166*
Y427683*
Y428058D02*
X518246Y428434D01*
X516695Y429454D02*
X517729Y428917D01*
Y429723*
X516695Y429454D02*
X518246D01*
X516991Y430206D02*
X516917Y430313D01*
X516695Y430474*
X518246*
X517064Y431011D02*
X516991D01*
X516843Y431065*
X516769Y431118*
X516695Y431226*
Y431441*
X516769Y431548*
X516843Y431602*
X516991Y431655*
X517138*
X517286Y431602*
X517507Y431494*
X518246Y430957*
Y431709*
X518556Y538816D02*
Y537266D01*
Y538816D02*
X519039D01*
X519200Y538743*
X519254Y538669*
X519307Y538521*
Y538374*
X519254Y538226*
X519200Y538152*
X519039Y538078*
X518556*
X518932D02*
X519307Y537266D01*
X520327Y538816D02*
X519791Y537783D01*
X520596*
X520327Y538816D02*
Y537266D01*
X521401Y538816D02*
X521240Y538743D01*
X521133Y538521*
X521079Y538152*
Y537931*
X521133Y537562*
X521240Y537340*
X521401Y537266*
X521509*
X521670Y537340*
X521777Y537562*
X521831Y537931*
Y538152*
X521777Y538521*
X521670Y538743*
X521509Y538816*
X521401*
X522851D02*
X522314Y537783D01*
X523119*
X522851Y538816D02*
Y537266D01*
X519379Y532542D02*
X519325Y532689D01*
X519218Y532837*
X519111Y532911*
X518896*
X518788Y532837*
X518681Y532689*
X518627Y532542*
X518574Y532320*
Y531951*
X518627Y531730*
X518681Y531582*
X518788Y531435*
X518896Y531361*
X519111*
X519218Y531435*
X519325Y531582*
X519379Y531730*
X520399Y532911D02*
X519862Y531877D01*
X520668*
X520399Y532911D02*
Y531361D01*
X521151Y532616D02*
X521258Y532689D01*
X521419Y532911*
Y531361*
X522600Y532911D02*
X522063D01*
X522010Y532247*
X522063Y532320*
X522224Y532394*
X522385*
X522547Y532320*
X522654Y532173*
X522708Y531951*
X522654Y531804*
X522600Y531582*
X522493Y531435*
X522332Y531361*
X522171*
X522010Y531435*
X521956Y531508*
X521902Y531656*
X519433Y526636D02*
X519379Y526784D01*
X519272Y526932*
X519164Y527005*
X518950*
X518842Y526932*
X518735Y526784*
X518681Y526636*
X518627Y526415*
Y526046*
X518681Y525824*
X518735Y525677*
X518842Y525529*
X518950Y525455*
X519164*
X519272Y525529*
X519379Y525677*
X519433Y525824*
X520453Y527005D02*
X519916Y525972D01*
X520721*
X520453Y527005D02*
Y525455D01*
X521204Y526710D02*
X521312Y526784D01*
X521473Y527005*
Y525455*
X522600Y526784D02*
X522547Y526932D01*
X522385Y527005*
X522278*
X522117Y526932*
X522010Y526710*
X521956Y526341*
Y525972*
X522010Y525677*
X522117Y525529*
X522278Y525455*
X522332*
X522493Y525529*
X522600Y525677*
X522654Y525898*
Y525972*
X522600Y526193*
X522493Y526341*
X522332Y526415*
X522278*
X522117Y526341*
X522010Y526193*
X521956Y525972*
X561729Y402817D02*
X561675Y402965D01*
X561568Y403113*
X561460Y403187*
X561246*
X561138Y403113*
X561031Y402965*
X560977Y402817*
X560923Y402596*
Y402227*
X560977Y402005*
X561031Y401858*
X561138Y401710*
X561246Y401636*
X561460*
X561568Y401710*
X561675Y401858*
X561729Y402005*
X562749Y403187D02*
X562212Y402153D01*
X563017*
X562749Y403187D02*
Y401636D01*
X563500Y402891D02*
X563608Y402965D01*
X563769Y403187*
Y401636*
X564520Y403187D02*
X564359Y403113D01*
X564306Y402965*
Y402817*
X564359Y402670*
X564467Y402596*
X564681Y402522*
X564843Y402448*
X564950Y402301*
X565004Y402153*
Y401932*
X564950Y401784*
X564896Y401710*
X564735Y401636*
X564520*
X564359Y401710*
X564306Y401784*
X564252Y401932*
Y402153*
X564306Y402301*
X564413Y402448*
X564574Y402522*
X564789Y402596*
X564896Y402670*
X564950Y402817*
Y402965*
X564896Y403113*
X564735Y403187*
X564520*
X524151Y405850D02*
X524003Y405796D01*
X523856Y405689*
X523782Y405582*
Y405367*
X523856Y405259*
X524003Y405152*
X524151Y405098*
X524373Y405045*
X524742*
X524963Y405098*
X525111Y405152*
X525258Y405259*
X525332Y405367*
Y405582*
X525258Y405689*
X525111Y405796*
X524963Y405850*
X523782Y406870D02*
X524815Y406333D01*
Y407139*
X523782Y406870D02*
X525332D01*
X524077Y407622D02*
X524003Y407729D01*
X523782Y407890*
X525332*
X524299Y409071D02*
X524520Y409018D01*
X524668Y408910*
X524742Y408749*
Y408695*
X524668Y408534*
X524520Y408427*
X524299Y408373*
X524225*
X524003Y408427*
X523856Y408534*
X523782Y408695*
Y408749*
X523856Y408910*
X524003Y409018*
X524299Y409071*
X524668*
X525037Y409018*
X525258Y408910*
X525332Y408749*
Y408642*
X525258Y408481*
X525111Y408427*
X517768Y399053D02*
Y397502D01*
Y399053D02*
X518252D01*
X518413Y398979*
X518466Y398905*
X518520Y398757*
Y398610*
X518466Y398462*
X518413Y398388*
X518252Y398314*
X517768*
X518144D02*
X518520Y397502D01*
X519540Y399053D02*
X519003Y398019D01*
X519809*
X519540Y399053D02*
Y397502D01*
X520614Y399053D02*
X520453Y398979D01*
X520345Y398757*
X520292Y398388*
Y398167*
X520345Y397798*
X520453Y397576*
X520614Y397502*
X520721*
X520882Y397576*
X520990Y397798*
X521043Y398167*
Y398388*
X520990Y398757*
X520882Y398979*
X520721Y399053*
X520614*
X522224D02*
X521688D01*
X521634Y398388*
X521688Y398462*
X521849Y398536*
X522010*
X522171Y398462*
X522278Y398314*
X522332Y398093*
X522278Y397945*
X522224Y397724*
X522117Y397576*
X521956Y397502*
X521795*
X521634Y397576*
X521580Y397650*
X521526Y397798*
X512143Y533973D02*
X511996Y533919D01*
X511848Y533812*
X511774Y533704*
Y533490*
X511848Y533382*
X511996Y533275*
X512143Y533221*
X512365Y533168*
X512365D02*
X512734D01*
X512734D02*
X512955Y533221D01*
X513103Y533275*
X513250Y533382*
X513324Y533490*
Y533704*
X513250Y533812*
X513103Y533919*
X512955Y533973*
X511774Y534993D02*
X512808Y534456D01*
Y535261*
X511774Y534993D02*
X513324D01*
X512069Y535744D02*
X511996Y535852D01*
X511774Y536013*
X513324*
X511774Y537248D02*
X513324Y536711D01*
X511774Y536496D02*
Y537248D01*
X506763Y398684D02*
X506709Y398831D01*
X506602Y398979*
X506494Y399053*
X506280*
X506172Y398979*
X506065Y398831*
X506011Y398684*
X505957Y398462*
Y398093*
X506011Y397872*
X506065Y397724*
X506172Y397576*
X506280Y397502*
X506494*
X506602Y397576*
X506709Y397724*
X506763Y397872*
X507783Y399053D02*
X507246Y398019D01*
X508051*
X507783Y399053D02*
Y397502D01*
X508588Y398684D02*
Y398757D01*
X508642Y398905*
X508695Y398979*
X508803Y399053*
X509018*
X509125Y398979*
X509179Y398905*
X509232Y398757*
Y398610*
X509179Y398462*
X509071Y398241*
X508534Y397502*
X509286*
X510091Y399053D02*
X509930Y398979D01*
X509823Y398757*
X509769Y398388*
Y398167*
X509823Y397798*
X509930Y397576*
X510091Y397502*
X510199*
X510360Y397576*
X510467Y397798*
X510521Y398167*
Y398388*
X510467Y398757*
X510360Y398979*
X510199Y399053*
X510091*
X407586Y440785D02*
Y439235D01*
Y440785D02*
X408069D01*
X408230Y440711*
X408284Y440637*
X408338Y440490*
Y440342*
X408284Y440194*
X408230Y440121*
X408069Y440047*
X407586*
X407962D02*
X408338Y439235D01*
X408928Y440785D02*
X409519D01*
X409196Y440194*
X409358*
X409465Y440121*
X409519Y440047*
X409572Y439825*
Y439678*
X409519Y439456*
X409411Y439309*
X409250Y439235*
X409089*
X408928Y439309*
X408874Y439382*
X408821Y439530*
X410378Y440785D02*
X410217Y440711D01*
X410109Y440490*
X410055Y440121*
Y439899*
X410109Y439530*
X410217Y439309*
X410378Y439235*
X410485*
X410646Y439309*
X410753Y439530*
X410807Y439899*
Y440121*
X410753Y440490*
X410646Y440711*
X410485Y440785*
X410378*
X411344Y440416D02*
Y440490D01*
X411398Y440637*
X411451Y440711*
X411559Y440785*
X411773*
X411881Y440711*
X411935Y440637*
X411988Y440490*
Y440342*
X411935Y440194*
X411827Y439973*
X411290Y439235*
X412042*
X407586Y452990D02*
Y451439D01*
Y452990D02*
X408069D01*
X408230Y452916*
X408284Y452842*
X408338Y452694*
Y452547*
X408284Y452399*
X408230Y452325*
X408069Y452251*
X407586*
X407962D02*
X408338Y451439D01*
X408928Y452990D02*
X409519D01*
X409196Y452399*
X409358*
X409465Y452325*
X409519Y452251*
X409572Y452030*
Y451882*
X409519Y451661*
X409411Y451513*
X409250Y451439*
X409089*
X408928Y451513*
X408874Y451587*
X408821Y451735*
X410378Y452990D02*
X410217Y452916D01*
X410109Y452694*
X410055Y452325*
Y452104*
X410109Y451735*
X410217Y451513*
X410378Y451439*
X410485*
X410646Y451513*
X410753Y451735*
X410807Y452104*
Y452325*
X410753Y452694*
X410646Y452916*
X410485Y452990*
X410378*
X411398D02*
X411988D01*
X411666Y452399*
X411827*
X411935Y452325*
X411988Y452251*
X412042Y452030*
Y451882*
X411988Y451661*
X411881Y451513*
X411720Y451439*
X411559*
X411398Y451513*
X411344Y451587*
X411290Y451735*
X407559Y465194D02*
Y463644D01*
Y465194D02*
X408042D01*
X408203Y465121*
X408257Y465047*
X408311Y464899*
Y464751*
X408257Y464604*
X408203Y464530*
X408042Y464456*
X407559*
X407935D02*
X408311Y463644D01*
X408901Y465194D02*
X409492D01*
X409170Y464604*
X409331*
X409438Y464530*
X409492Y464456*
X409545Y464235*
Y464087*
X409492Y463866*
X409384Y463718*
X409223Y463644*
X409062*
X408901Y463718*
X408848Y463792*
X408794Y463939*
X410351Y465194D02*
X410190Y465121D01*
X410082Y464899*
X410029Y464530*
Y464309*
X410082Y463939*
X410190Y463718*
X410351Y463644*
X410458*
X410619Y463718*
X410727Y463939*
X410780Y464309*
Y464530*
X410727Y464899*
X410619Y465121*
X410458Y465194*
X410351*
X411800D02*
X411263Y464161D01*
X412069*
X411800Y465194D02*
Y463644D01*
X407559Y478580D02*
Y477030D01*
Y478580D02*
X408042D01*
X408203Y478506*
X408257Y478433*
X408311Y478285*
Y478137*
X408257Y477990*
X408203Y477916*
X408042Y477842*
X407559*
X407935D02*
X408311Y477030D01*
X408901Y478580D02*
X409492D01*
X409170Y477990*
X409331*
X409438Y477916*
X409492Y477842*
X409545Y477621*
Y477473*
X409492Y477251*
X409384Y477104*
X409223Y477030*
X409062*
X408901Y477104*
X408848Y477178*
X408794Y477325*
X410351Y478580D02*
X410190Y478506D01*
X410082Y478285*
X410029Y477916*
Y477694*
X410082Y477325*
X410190Y477104*
X410351Y477030*
X410458*
X410619Y477104*
X410727Y477325*
X410780Y477694*
Y477916*
X410727Y478285*
X410619Y478506*
X410458Y478580*
X410351*
X411961D02*
X411424D01*
X411371Y477916*
X411424Y477990*
X411586Y478063*
X411747*
X411908Y477990*
X412015Y477842*
X412069Y477621*
X412015Y477473*
X411961Y477251*
X411854Y477104*
X411693Y477030*
X411532*
X411371Y477104*
X411317Y477178*
X411263Y477325*
X407613Y490785D02*
Y489235D01*
Y490785D02*
X408096D01*
X408257Y490711*
X408311Y490637*
X408364Y490490*
Y490342*
X408311Y490194*
X408257Y490121*
X408096Y490047*
X407613*
X407989D02*
X408364Y489235D01*
X408955Y490785D02*
X409545D01*
X409223Y490194*
X409384*
X409492Y490121*
X409545Y490047*
X409599Y489825*
Y489678*
X409545Y489456*
X409438Y489309*
X409277Y489235*
X409116*
X408955Y489309*
X408901Y489382*
X408848Y489530*
X410404Y490785D02*
X410243Y490711D01*
X410136Y490490*
X410082Y490121*
Y489899*
X410136Y489530*
X410243Y489309*
X410404Y489235*
X410512*
X410673Y489309*
X410780Y489530*
X410834Y489899*
Y490121*
X410780Y490490*
X410673Y490711*
X410512Y490785*
X410404*
X411961Y490563D02*
X411908Y490711D01*
X411747Y490785*
X411639*
X411478Y490711*
X411371Y490490*
X411317Y490121*
Y489751*
X411371Y489456*
X411478Y489309*
X411639Y489235*
X411693*
X411854Y489309*
X411961Y489456*
X412015Y489678*
Y489751*
X411961Y489973*
X411854Y490121*
X411693Y490194*
X411639*
X411478Y490121*
X411371Y489973*
X411317Y489751*
X407586Y502990D02*
Y501439D01*
Y502990D02*
X408069D01*
X408230Y502916*
X408284Y502842*
X408338Y502694*
Y502547*
X408284Y502399*
X408230Y502325*
X408069Y502251*
X407586*
X407962D02*
X408338Y501439D01*
X408928Y502990D02*
X409519D01*
X409196Y502399*
X409358*
X409465Y502325*
X409519Y502251*
X409572Y502030*
Y501882*
X409519Y501661*
X409411Y501513*
X409250Y501439*
X409089*
X408928Y501513*
X408874Y501587*
X408821Y501735*
X410378Y502990D02*
X410217Y502916D01*
X410109Y502694*
X410055Y502325*
Y502104*
X410109Y501735*
X410217Y501513*
X410378Y501439*
X410485*
X410646Y501513*
X410753Y501735*
X410807Y502104*
Y502325*
X410753Y502694*
X410646Y502916*
X410485Y502990*
X410378*
X412042D02*
X411505Y501439D01*
X411290Y502990D02*
X412042D01*
X419033Y440254D02*
X418885Y440200D01*
X418738Y440093*
X418664Y439986*
Y439771*
X418738Y439664*
X418885Y439556*
X419033Y439503*
X419254Y439449*
X419624*
X419845Y439503*
X419993Y439556*
X420140Y439664*
X420214Y439771*
Y439986*
X420140Y440093*
X419993Y440200*
X419845Y440254*
X418664Y440845D02*
Y441435D01*
X419254Y441113*
Y441274*
X419328Y441382*
X419402Y441435*
X419624Y441489*
X419771*
X419993Y441435*
X420140Y441328*
X420214Y441167*
Y441006*
X420140Y440845*
X420066Y440791*
X419919Y440737*
X419033Y442026D02*
X418959D01*
X418812Y442079*
X418738Y442133*
X418664Y442241*
Y442455*
X418738Y442563*
X418812Y442616*
X418959Y442670*
X419107*
X419254Y442616*
X419476Y442509*
X420214Y441972*
Y442724*
X419033Y443261D02*
X418959D01*
X418812Y443314*
X418738Y443368*
X418664Y443475*
Y443690*
X418738Y443797*
X418812Y443851*
X418959Y443905*
X419107*
X419254Y443851*
X419476Y443744*
X420214Y443207*
Y443958*
X418836Y452459D02*
X418688Y452405D01*
X418541Y452298*
X418467Y452190*
Y451976*
X418541Y451868*
X418688Y451761*
X418836Y451707*
X419058Y451654*
X419427*
X419648Y451707*
X419796Y451761*
X419943Y451868*
X420017Y451976*
Y452190*
X419943Y452298*
X419796Y452405*
X419648Y452459*
X418467Y453049D02*
Y453640D01*
X419058Y453318*
Y453479*
X419131Y453586*
X419205Y453640*
X419427Y453694*
X419574*
X419796Y453640*
X419943Y453533*
X420017Y453372*
Y453210*
X419943Y453049*
X419870Y452996*
X419722Y452942*
X418836Y454230D02*
X418762D01*
X418615Y454284*
X418541Y454338*
X418467Y454445*
Y454660*
X418541Y454767*
X418615Y454821*
X418762Y454875*
X418910*
X419058Y454821*
X419279Y454714*
X420017Y454177*
Y454928*
X418467Y455519D02*
Y456110D01*
X419058Y455787*
Y455948*
X419131Y456056*
X419205Y456110*
X419427Y456163*
X419574*
X419796Y456110*
X419943Y456002*
X420017Y455841*
Y455680*
X419943Y455519*
X419870Y455465*
X419722Y455412*
X419033Y464637D02*
X418885Y464583D01*
X418738Y464476*
X418664Y464368*
Y464154*
X418738Y464046*
X418885Y463939*
X419033Y463885*
X419254Y463831*
X419624*
X419845Y463885*
X419993Y463939*
X420140Y464046*
X420214Y464154*
Y464368*
X420140Y464476*
X419993Y464583*
X419845Y464637*
X418664Y465227D02*
Y465818D01*
X419254Y465496*
Y465657*
X419328Y465764*
X419402Y465818*
X419624Y465872*
X419771*
X419993Y465818*
X420140Y465710*
X420214Y465549*
Y465388*
X420140Y465227*
X420066Y465174*
X419919Y465120*
X419033Y466408D02*
X418959D01*
X418812Y466462*
X418738Y466516*
X418664Y466623*
Y466838*
X418738Y466945*
X418812Y466999*
X418959Y467053*
X419107*
X419254Y466999*
X419476Y466892*
X420214Y466355*
Y467106*
X418664Y468126D02*
X419697Y467589D01*
Y468395*
X418664Y468126D02*
X420214D01*
X418574Y430770D02*
X418520Y430918D01*
X418413Y431065*
X418305Y431139*
X418091*
X417983Y431065*
X417876Y430918*
X417822Y430770*
X417768Y430549*
Y430180*
X417822Y429958*
X417876Y429811*
X417983Y429663*
X418091Y429589*
X418305*
X418413Y429663*
X418520Y429811*
X418574Y429958*
X419111Y430770D02*
Y430844D01*
X419164Y430992*
X419218Y431065*
X419325Y431139*
X419540*
X419647Y431065*
X419701Y430992*
X419755Y430844*
Y430696*
X419701Y430549*
X419594Y430327*
X419057Y429589*
X419809*
X420614Y431139D02*
X420453Y431065D01*
X420345Y430844*
X420292Y430475*
Y430253*
X420345Y429884*
X420453Y429663*
X420614Y429589*
X420721*
X420882Y429663*
X420990Y429884*
X421043Y430253*
Y430475*
X420990Y430844*
X420882Y431065*
X420721Y431139*
X420614*
X422224D02*
X421688D01*
X421634Y430475*
X421688Y430549*
X421849Y430623*
X422010*
X422171Y430549*
X422278Y430401*
X422332Y430180*
X422278Y430032*
X422224Y429811*
X422117Y429663*
X421956Y429589*
X421795*
X421634Y429663*
X421580Y429737*
X421526Y429884*
X418234Y424471D02*
X418180Y424619D01*
X418073Y424766*
X417965Y424840*
X417751*
X417643Y424766*
X417536Y424619*
X417482Y424471*
X417428Y424250*
Y423880*
X417482Y423659*
X417536Y423511*
X417643Y423364*
X417751Y423290*
X417965*
X418073Y423364*
X418180Y423511*
X418234Y423659*
X418771Y424471D02*
Y424545D01*
X418824Y424692*
X418878Y424766*
X418985Y424840*
X419200*
X419307Y424766*
X419361Y424692*
X419415Y424545*
Y424397*
X419361Y424250*
X419254Y424028*
X418717Y423290*
X419469*
X420274Y424840D02*
X420113Y424766D01*
X420005Y424545*
X419952Y424176*
Y423954*
X420005Y423585*
X420113Y423364*
X420274Y423290*
X420381*
X420542Y423364*
X420650Y423585*
X420703Y423954*
Y424176*
X420650Y424545*
X420542Y424766*
X420381Y424840*
X420274*
X421831Y424619D02*
X421777Y424766D01*
X421616Y424840*
X421509*
X421348Y424766*
X421240Y424545*
X421186Y424176*
Y423807*
X421240Y423511*
X421348Y423364*
X421509Y423290*
X421562*
X421723Y423364*
X421831Y423511*
X421884Y423733*
Y423807*
X421831Y424028*
X421723Y424176*
X421562Y424250*
X421509*
X421348Y424176*
X421240Y424028*
X421186Y423807*
X418207Y418172D02*
X418153Y418319D01*
X418046Y418467*
X417938Y418541*
X417724*
X417616Y418467*
X417509Y418319*
X417455Y418172*
X417402Y417950*
Y417581*
X417455Y417360*
X417509Y417212*
X417616Y417064*
X417724Y416991*
X417938*
X418046Y417064*
X418153Y417212*
X418207Y417360*
X418744Y418172D02*
Y418246D01*
X418797Y418393*
X418851Y418467*
X418958Y418541*
X419173*
X419281Y418467*
X419334Y418393*
X419388Y418246*
Y418098*
X419334Y417950*
X419227Y417729*
X418690Y416991*
X419442*
X420247Y418541D02*
X420086Y418467D01*
X419979Y418246*
X419925Y417876*
Y417655*
X419979Y417286*
X420086Y417064*
X420247Y416991*
X420354*
X420515Y417064*
X420623Y417286*
X420676Y417655*
Y417876*
X420623Y418246*
X420515Y418467*
X420354Y418541*
X420247*
X421911D02*
X421374Y416991D01*
X421160Y418541D02*
X421911D01*
X418207Y411873D02*
X418153Y412020D01*
X418046Y412168*
X417938Y412242*
X417724*
X417616Y412168*
X417509Y412020*
X417455Y411873*
X417402Y411651*
Y411282*
X417455Y411061*
X417509Y410913*
X417616Y410765*
X417724Y410691*
X417938*
X418046Y410765*
X418153Y410913*
X418207Y411061*
X418744Y411873D02*
Y411946D01*
X418797Y412094*
X418851Y412168*
X418958Y412242*
X419173*
X419281Y412168*
X419334Y412094*
X419388Y411946*
Y411799*
X419334Y411651*
X419227Y411430*
X418690Y410691*
X419442*
X420247Y412242D02*
X420086Y412168D01*
X419979Y411946*
X419925Y411577*
Y411356*
X419979Y410987*
X420086Y410765*
X420247Y410691*
X420354*
X420515Y410765*
X420623Y410987*
X420676Y411356*
Y411577*
X420623Y411946*
X420515Y412168*
X420354Y412242*
X420247*
X421428D02*
X421267Y412168D01*
X421213Y412020*
Y411873*
X421267Y411725*
X421374Y411651*
X421589Y411577*
X421750Y411503*
X421858Y411356*
X421911Y411208*
Y410987*
X421858Y410839*
X421804Y410765*
X421643Y410691*
X421428*
X421267Y410765*
X421213Y410839*
X421160Y410987*
Y411208*
X421213Y411356*
X421321Y411503*
X421482Y411577*
X421696Y411651*
X421804Y411725*
X421858Y411873*
Y412020*
X421804Y412168*
X421643Y412242*
X421428*
X510962Y412722D02*
X510814Y412668D01*
X510667Y412561*
X510593Y412453*
Y412239*
X510667Y412131*
X510814Y412024*
X510962Y411970*
X511184Y411917*
X511553*
X511774Y411970*
X511922Y412024*
X512069Y412131*
X512143Y412239*
Y412453*
X512069Y412561*
X511922Y412668*
X511774Y412722*
X510962Y413259D02*
X510888D01*
X510741Y413312*
X510667Y413366*
X510593Y413474*
Y413688*
X510667Y413796*
X510741Y413849*
X510888Y413903*
X511036*
X511184Y413849*
X511405Y413742*
X512143Y413205*
Y413957*
X510593Y414762D02*
X510667Y414601D01*
X510888Y414494*
X511257Y414440*
X511479*
X511848Y414494*
X512069Y414601*
X512143Y414762*
Y414869*
X512069Y415030*
X511848Y415138*
X511479Y415191*
X511257*
X510888Y415138*
X510667Y415030*
X510593Y414869*
Y414762*
X511110Y416373D02*
X511331Y416319D01*
X511479Y416212*
X511553Y416050*
Y415997*
X511479Y415836*
X511331Y415728*
X511110Y415675*
X511036*
X510814Y415728*
X510667Y415836*
X510593Y415997*
Y416050*
X510667Y416212*
X510814Y416319*
X511110Y416373*
X511479*
X511848Y416319*
X512069Y416212*
X512143Y416050*
Y415943*
X512069Y415782*
X511922Y415728*
X499742Y409393D02*
X499594Y409340D01*
X499446Y409232*
X499373Y409125*
Y408910*
X499446Y408803*
X499594Y408695*
X499742Y408642*
X499963Y408588*
X500332*
X500554Y408642*
X500701Y408695*
X500849Y408803*
X500923Y408910*
Y409125*
X500849Y409232*
X500701Y409340*
X500554Y409393*
X499742Y409930D02*
X499668D01*
X499520Y409984*
X499446Y410038*
X499373Y410145*
Y410360*
X499446Y410467*
X499520Y410521*
X499668Y410574*
X499815*
X499963Y410521*
X500185Y410413*
X500923Y409877*
Y410628*
X499668Y411111D02*
X499594Y411219D01*
X499373Y411380*
X500923*
X499373Y412185D02*
X499446Y412024D01*
X499668Y411917*
X500037Y411863*
X500258*
X500627Y411917*
X500849Y412024*
X500923Y412185*
Y412292*
X500849Y412453*
X500627Y412561*
X500258Y412615*
X500037*
X499668Y412561*
X499446Y412453*
X499373Y412292*
Y412185*
X504911Y423093D02*
X504857Y423241D01*
X504749Y423388*
X504642Y423462*
X504427*
X504320Y423388*
X504213Y423241*
X504159Y423093*
X504105Y422872*
Y422502*
X504159Y422281*
X504213Y422133*
X504320Y421986*
X504427Y421912*
X504642*
X504749Y421986*
X504857Y422133*
X504911Y422281*
X505447Y423093D02*
Y423167D01*
X505501Y423314*
X505555Y423388*
X505662Y423462*
X505877*
X505984Y423388*
X506038Y423314*
X506092Y423167*
Y423019*
X506038Y422872*
X505931Y422650*
X505394Y421912*
X506145*
X506628Y423167D02*
X506736Y423241D01*
X506897Y423462*
Y421912*
X507380Y423167D02*
X507487Y423241D01*
X507649Y423462*
Y421912*
X406253Y405942D02*
Y404392D01*
Y405942D02*
X406736D01*
X406897Y405869*
X406951Y405795*
X407004Y405647*
Y405500*
X406951Y405352*
X406897Y405278*
X406736Y405204*
X406253*
X406628D02*
X407004Y404392D01*
X407541Y405573D02*
Y405647D01*
X407595Y405795*
X407649Y405869*
X407756Y405942*
X407971*
X408078Y405869*
X408132Y405795*
X408185Y405647*
Y405500*
X408132Y405352*
X408024Y405130*
X407487Y404392*
X408239*
X408722Y405647D02*
X408830Y405721D01*
X408991Y405942*
Y404392*
X409581Y405942D02*
X410172D01*
X409850Y405352*
X410011*
X410118Y405278*
X410172Y405204*
X410225Y404983*
Y404835*
X410172Y404614*
X410064Y404466*
X409903Y404392*
X409742*
X409581Y404466*
X409528Y404540*
X409474Y404687*
X576725Y411257D02*
Y409707D01*
Y411257D02*
X577208D01*
X577369Y411184*
X577423Y411110*
X577477Y410962*
Y410814*
X577423Y410667*
X577369Y410593*
X577208Y410519*
X576725*
X577101D02*
X577477Y409707D01*
X578014Y410888D02*
Y410962D01*
X578067Y411110*
X578121Y411184*
X578228Y411257*
X578443*
X578550Y411184*
X578604Y411110*
X578658Y410962*
Y410814*
X578604Y410667*
X578497Y410445*
X577960Y409707*
X578712*
X579195Y410962D02*
X579302Y411036D01*
X579463Y411257*
Y409707*
X580698Y411257D02*
X580161Y409707D01*
X579946Y411257D02*
X580698D01*
X406432Y431139D02*
Y429589D01*
Y431139D02*
X406915D01*
X407076Y431065*
X407130Y430992*
X407183Y430844*
Y430696*
X407130Y430549*
X407076Y430475*
X406915Y430401*
X406432*
X406807D02*
X407183Y429589D01*
X407720Y430770D02*
Y430844D01*
X407774Y430992*
X407827Y431065*
X407935Y431139*
X408150*
X408257Y431065*
X408311Y430992*
X408364Y430844*
Y430696*
X408311Y430549*
X408203Y430327*
X407666Y429589*
X408418*
X409223Y431139D02*
X409062Y431065D01*
X408955Y430844*
X408901Y430475*
Y430253*
X408955Y429884*
X409062Y429663*
X409223Y429589*
X409331*
X409492Y429663*
X409599Y429884*
X409653Y430253*
Y430475*
X409599Y430844*
X409492Y431065*
X409331Y431139*
X409223*
X410834Y430623D02*
X410780Y430401D01*
X410673Y430253*
X410512Y430180*
X410458*
X410297Y430253*
X410190Y430401*
X410136Y430623*
Y430696*
X410190Y430918*
X410297Y431065*
X410458Y431139*
X410512*
X410673Y431065*
X410780Y430918*
X410834Y430623*
Y430253*
X410780Y429884*
X410673Y429663*
X410512Y429589*
X410404*
X410243Y429663*
X410190Y429811*
X406253Y424840D02*
Y423290D01*
Y424840D02*
X406736D01*
X406897Y424766*
X406951Y424692*
X407004Y424545*
Y424397*
X406951Y424250*
X406897Y424176*
X406736Y424102*
X406253*
X406628D02*
X407004Y423290D01*
X407541Y424471D02*
Y424545D01*
X407595Y424692*
X407649Y424766*
X407756Y424840*
X407971*
X408078Y424766*
X408132Y424692*
X408185Y424545*
Y424397*
X408132Y424250*
X408024Y424028*
X407487Y423290*
X408239*
X408722Y424545D02*
X408830Y424619D01*
X408991Y424840*
Y423290*
X409796Y424840D02*
X409635Y424766D01*
X409528Y424545*
X409474Y424176*
Y423954*
X409528Y423585*
X409635Y423364*
X409796Y423290*
X409903*
X410064Y423364*
X410172Y423585*
X410225Y423954*
Y424176*
X410172Y424545*
X410064Y424766*
X409903Y424840*
X409796*
X406494Y418541D02*
Y416991D01*
Y418541D02*
X406977D01*
X407139Y418467*
X407192Y418393*
X407246Y418246*
Y418098*
X407192Y417950*
X407139Y417876*
X406977Y417803*
X406494*
X406870D02*
X407246Y416991D01*
X407783Y418172D02*
Y418246D01*
X407836Y418393*
X407890Y418467*
X407997Y418541*
X408212*
X408320Y418467*
X408373Y418393*
X408427Y418246*
Y418098*
X408373Y417950*
X408266Y417729*
X407729Y416991*
X408481*
X408964Y418246D02*
X409071Y418319D01*
X409232Y418541*
Y416991*
X409715Y418246D02*
X409823Y418319D01*
X409984Y418541*
Y416991*
X406253Y412242D02*
Y410691D01*
Y412242D02*
X406736D01*
X406897Y412168*
X406951Y412094*
X407004Y411946*
Y411799*
X406951Y411651*
X406897Y411577*
X406736Y411503*
X406253*
X406628D02*
X407004Y410691D01*
X407541Y411873D02*
Y411946D01*
X407595Y412094*
X407649Y412168*
X407756Y412242*
X407971*
X408078Y412168*
X408132Y412094*
X408185Y411946*
Y411799*
X408132Y411651*
X408024Y411430*
X407487Y410691*
X408239*
X408722Y411946D02*
X408830Y412020D01*
X408991Y412242*
Y410691*
X409528Y411873D02*
Y411946D01*
X409581Y412094*
X409635Y412168*
X409742Y412242*
X409957*
X410064Y412168*
X410118Y412094*
X410172Y411946*
Y411799*
X410118Y411651*
X410011Y411430*
X409474Y410691*
X410225*
X515908Y405438D02*
X517458D01*
X515908D02*
Y405922D01*
X515982Y406083*
X516056Y406136*
X516203Y406190*
X516351*
X516499Y406136*
X516572Y406083*
X516646Y405922*
Y405438*
Y405814D02*
X517458Y406190D01*
X516277Y406727D02*
X516203D01*
X516056Y406781*
X515982Y406834*
X515908Y406942*
Y407156*
X515982Y407264*
X516056Y407317*
X516203Y407371*
X516351*
X516499Y407317*
X516720Y407210*
X517458Y406673*
Y407425*
X516203Y407908D02*
X516129Y408015D01*
X515908Y408176*
X517458*
X515908Y409196D02*
X516941Y408660D01*
Y409465*
X515908Y409196D02*
X517458D01*
X506423Y406927D02*
Y405376D01*
Y406927D02*
X506906D01*
X507067Y406853*
X507121Y406779*
X507174Y406631*
Y406484*
X507121Y406336*
X507067Y406262*
X506906Y406188*
X506423*
X506798D02*
X507174Y405376D01*
X507711Y406558D02*
Y406631D01*
X507765Y406779*
X507819Y406853*
X507926Y406927*
X508141*
X508248Y406853*
X508302Y406779*
X508355Y406631*
Y406484*
X508302Y406336*
X508194Y406115*
X507657Y405376*
X508409*
X508892Y406631D02*
X509000Y406705D01*
X509161Y406927*
Y405376*
X510342Y406927D02*
X509805D01*
X509751Y406262*
X509805Y406336*
X509966Y406410*
X510127*
X510288Y406336*
X510395Y406188*
X510449Y405967*
X510395Y405819*
X510342Y405598*
X510234Y405450*
X510073Y405376*
X509912*
X509751Y405450*
X509698Y405524*
X509644Y405672*
X515908Y416516D02*
X517458D01*
X515908D02*
Y416999D01*
X515982Y417160*
X516056Y417214*
X516203Y417267*
X516351*
X516499Y417214*
X516572Y417160*
X516646Y416999*
Y416516*
Y416892D02*
X517458Y417267D01*
X516277Y417804D02*
X516203D01*
X516056Y417858*
X515982Y417912*
X515908Y418019*
Y418234*
X515982Y418341*
X516056Y418395*
X516203Y418448*
X516351*
X516499Y418395*
X516720Y418287*
X517458Y417751*
Y418502*
X516203Y418985D02*
X516129Y419093D01*
X515908Y419254*
X517458*
X516129Y420381D02*
X515982Y420327D01*
X515908Y420166*
Y420059*
X515982Y419898*
X516203Y419791*
X516572Y419737*
X516941*
X517237Y419791*
X517384Y419898*
X517458Y420059*
Y420113*
X517384Y420274*
X517237Y420381*
X517015Y420435*
X516941*
X516720Y420381*
X516572Y420274*
X516499Y420113*
Y420059*
X516572Y419898*
X516720Y419791*
X516941Y419737*
G54D29*
X464795Y432277D02*
Y428402D01*
X468016Y431355D02*
X467882Y431724D01*
X467614Y432093*
X467345Y432277*
X466808*
X466540Y432093*
X466271Y431724*
X466137Y431355*
X466003Y430801*
Y429878*
X466137Y429325*
X466271Y428955*
X466540Y428586*
X466808Y428402*
X467345*
X467614Y428586*
X467882Y428955*
X468016Y429325*
X470566Y432277D02*
X469224Y429694D01*
X471237*
X470566Y432277D02*
Y428402D01*
X473251Y432277D02*
X472848Y432093D01*
X472580Y431539*
X472445Y430616*
Y430063*
X472580Y429140*
X472848Y428586*
X473251Y428402*
X473519*
X473922Y428586*
X474190Y429140*
X474324Y430063*
Y430616*
X474190Y431539*
X473922Y432093*
X473519Y432277*
X473251*
X475532Y431539D02*
X475801Y431724D01*
X476203Y432277*
Y428402*
X540557Y523049D02*
X544433D01*
X541480Y526271D02*
X541111Y526136D01*
X540742Y525868*
X540557Y525599*
X540557D02*
Y525063D01*
X540742Y524794*
X541111Y524526*
X541480Y524392*
X542034Y524257*
X542956*
X543510Y524392*
X543879Y524526*
X544248Y524794*
X544433Y525063*
Y525599*
X544433D02*
X544248Y525868D01*
X543879Y526136*
X543510Y526271*
X540557Y528821D02*
X543141Y527479D01*
Y529492*
X540557Y528821D02*
X544433D01*
X540557Y531505D02*
X540742Y531102D01*
X541296Y530834*
X542218Y530700*
X542772*
X543695Y530834*
X544248Y531102*
X544433Y531505*
Y531773*
X544248Y532176*
X543695Y532445*
X542772Y532579*
X542218*
X541296Y532445*
X540742Y532176*
X540557Y531773*
Y531505*
X541480Y533921D02*
X541296D01*
X540926Y534055*
X540742Y534189*
X540557Y534458*
Y534995*
X540742Y535263*
X540926Y535397*
X541296Y535531*
X541665*
X542034Y535397*
X542587Y535129*
X544433Y533787*
Y535666*
X540557Y523049D02*
X544433D01*
X541480Y526271D02*
X541111Y526136D01*
X540742Y525868*
X540557Y525599*
X540557D02*
Y525063D01*
X540742Y524794*
X541111Y524526*
X541480Y524392*
X542034Y524257*
X542956*
X543510Y524392*
X543879Y524526*
X544248Y524794*
X544433Y525063*
Y525599*
X544433D02*
X544248Y525868D01*
X543879Y526136*
X543510Y526271*
X540557Y528821D02*
X543141Y527479D01*
Y529492*
X540557Y528821D02*
X544433D01*
X540557Y531505D02*
X540742Y531102D01*
X541296Y530834*
X542218Y530700*
X542772*
X543695Y530834*
X544248Y531102*
X544433Y531505*
Y531773*
X544248Y532176*
X543695Y532445*
X542772Y532579*
X542218*
X541296Y532445*
X540742Y532176*
X540557Y531773*
Y531505*
X541480Y533921D02*
X541296D01*
X540926Y534055*
X540742Y534189*
X540557Y534458*
Y534995*
X540742Y535263*
X540926Y535397*
X541296Y535531*
X541665*
X542034Y535397*
X542587Y535129*
X544433Y533787*
Y535666*
X540557Y399230D02*
X544433D01*
X541480Y402452D02*
X541111Y402317D01*
X540742Y402049*
X540557Y401781*
Y401244*
X540742Y400975*
X541111Y400707*
X541480Y400573*
X542034Y400438*
X542956*
X543510Y400573*
X543879Y400707*
X544248Y400975*
X544433Y401244*
Y401781*
X544248Y402049*
X543879Y402317*
X543510Y402452*
X540557Y405002D02*
X543141Y403660D01*
Y405673*
X540557Y405002D02*
X544433D01*
X540557Y407686D02*
X540742Y407283D01*
X541296Y407015*
X542218Y406881*
X542772*
X543695Y407015*
X544248Y407283*
X544433Y407686*
Y407955*
X544248Y408357*
X543695Y408626*
X542772Y408760*
X542218*
X541296Y408626*
X540742Y408357*
X540557Y407955*
Y407686*
Y410236D02*
Y411713D01*
X542034Y410907*
Y411310*
X542218Y411578*
X542403Y411713*
X542956Y411847*
X543326*
X543879Y411713*
X544248Y411444*
X544433Y411042*
Y410639*
X544248Y410236*
X544064Y410102*
X543695Y409968*
X540557Y399230D02*
X544433D01*
X541480Y402452D02*
X541111Y402317D01*
X540742Y402049*
X540557Y401781*
Y401244*
X540742Y400975*
X541111Y400707*
X541480Y400573*
X542034Y400438*
X542956*
X543510Y400573*
X543879Y400707*
X544248Y400975*
X544433Y401244*
Y401781*
X544248Y402049*
X543879Y402317*
X543510Y402452*
X540557Y405002D02*
X543141Y403660D01*
Y405673*
X540557Y405002D02*
X544433D01*
X540557Y407686D02*
X540742Y407283D01*
X541296Y407015*
X542218Y406881*
X542772*
X543695Y407015*
X544248Y407283*
X544433Y407686*
Y407955*
X544248Y408357*
X543695Y408626*
X542772Y408760*
X542218*
X541296Y408626*
X540742Y408357*
X540557Y407955*
Y407686*
Y410236D02*
Y411713D01*
X542034Y410907*
Y411310*
X542218Y411578*
X542403Y411713*
X542956Y411847*
X543326*
X543879Y411713*
X544248Y411444*
X544433Y411042*
Y410639*
X544248Y410236*
X544064Y410102*
X543695Y409968*
X433471Y489639D02*
X436423D01*
X436977Y489504*
X437162Y489370*
X437346Y489102*
Y488833*
X437162Y488565*
X436977Y488431*
X436423Y488296*
X436054*
X434393Y490981D02*
X434209D01*
X433840Y491115*
X433655Y491249*
X433471Y491518*
Y492054*
X433655Y492323*
X433840Y492457*
X434209Y492591*
X434578*
X434947Y492457*
X435501Y492189*
X437346Y490846*
Y492725*
X433471Y494739D02*
X433655Y494336D01*
X434209Y494068*
X435132Y493933*
X435685*
X436608Y494068*
X437162Y494336*
X437346Y494739*
Y495007*
X437162Y495410*
X436608Y495678*
X435685Y495812*
X435132*
X434209Y495678*
X433655Y495410*
X433471Y495007*
Y494739*
X434763Y498765D02*
X435316Y498631D01*
X435685Y498363*
X435870Y497960*
Y497826*
X435685Y497423*
X435316Y497155*
X434763Y497020*
X434578*
X434024Y497155*
X433655Y497423*
X433471Y497826*
Y497960*
X433655Y498363*
X434024Y498631*
X434763Y498765*
X435685*
X436608Y498631*
X437162Y498363*
X437346Y497960*
Y497691*
X437162Y497289*
X436793Y497155*
G54D34*
X490207Y402885D02*
X490010Y402813D01*
X489813Y402670*
X489715Y402527*
Y402241*
X489813Y402097*
X490010Y401954*
X490207Y401883*
X490502Y401811*
X490994*
X491289Y401883*
X491486Y401954*
X491683Y402097*
X491781Y402241*
Y402527*
X491683Y402670*
X491486Y402813*
X491289Y402885*
X489715Y404245D02*
X491093Y403529D01*
Y404603*
X489715Y404245D02*
X491781D01*
X489715Y405676D02*
X489813Y405462D01*
X490108Y405319*
X490600Y405247*
X490896*
X491388Y405319*
X491683Y405462*
X491781Y405676*
Y405820*
X491683Y406034*
X491388Y406178*
X490896Y406249*
X490600*
X490108Y406178*
X489813Y406034*
X489715Y405820*
Y405676*
X490010Y407752D02*
X489813Y407681D01*
X489715Y407466*
Y407323*
X489813Y407108*
X490108Y406965*
X490600Y406893*
X491093*
X491486Y406965*
X491683Y407108*
X491781Y407323*
Y407394*
X491683Y407609*
X491486Y407752*
X491191Y407824*
X491093*
X490797Y407752*
X490600Y407609*
X490502Y407394*
Y407323*
X490600Y407108*
X490797Y406965*
X491093Y406893*
G54D42*
G54D47*
X448690Y408590D02*
X449982D01*
X448690D02*
Y408903D01*
X448751Y409037*
X448874Y409127*
X448997Y409171*
X449182Y409216*
X449489*
X449674Y409171*
X449797Y409127*
X449920Y409037*
X449982Y408903*
Y408590*
X448997Y409664D02*
X448936D01*
X448813Y409708*
X448751Y409753*
X448690Y409843*
Y410021*
X448751Y410111*
X448813Y410156*
X448936Y410200*
X449059*
X449182Y410156*
X449366Y410066*
X449982Y409619*
Y410245*
X448690Y410916D02*
X448751Y410782D01*
X448936Y410693*
X449243Y410648*
X449428*
X449735Y410693*
X449920Y410782*
X449982Y410916*
Y411006*
X449920Y411140*
X449735Y411229*
X449428Y411274*
X449243*
X448936Y411229*
X448751Y411140*
X448690Y411006*
Y410916*
X448936Y411677D02*
X448874Y411766D01*
X448690Y411901*
X449982*
X563113Y414499D02*
Y413207D01*
Y414499D02*
X563426D01*
X563560Y414438*
X563650Y414315*
X563695Y414192*
X563739Y414007*
Y413700*
X563695Y413515*
X563650Y413392*
X563560Y413269*
X563426Y413207*
X563113*
X564187Y414192D02*
Y414253D01*
X564231Y414376*
X564276Y414438*
X564366Y414499*
X564545*
X564634Y414438*
X564679Y414376*
X564724Y414253*
Y414130*
X564679Y414007*
X564589Y413823*
X564142Y413207*
X564768*
X565439Y414499D02*
X565305Y414438D01*
X565216Y414253*
X565171Y413946*
Y413761*
X565216Y413453*
X565305Y413269*
X565439Y413207*
X565529*
X565663Y413269*
X565753Y413453*
X565797Y413761*
Y413946*
X565753Y414253*
X565663Y414438*
X565529Y414499*
X565439*
X566289D02*
X566781D01*
X566513Y414007*
X566647*
X566737Y413946*
X566781Y413884*
X566826Y413700*
Y413577*
X566781Y413392*
X566692Y413269*
X566558Y413207*
X566424*
X566289Y413269*
X566245Y413330*
X566200Y413453*
G74*
X0Y0D02*
M02*
