*
*
G04 PADS VX.2.4 Build Number: 12858991 generated Gerber (RS-274-X) file*
G04 PC Version=2.1*
*
%IN "TMC4671+TMC6200-BOB_V10"*%
*
%MOIN*%
*
%FSLAX35Y35*%
*
*
*
*
G04 PC Standard Apertures*
*
*
G04 Thermal Relief Aperture macro.*
%AMTER*
1,1,$1,0,0*
1,0,$1-$2,0,0*
21,0,$3,$4,0,0,45*
21,0,$3,$4,0,0,135*
%
*
*
G04 Annular Aperture macro.*
%AMANN*
1,1,$1,0,0*
1,0,$2,0,0*
%
*
*
G04 Odd Aperture macro.*
%AMODD*
1,1,$1,0,0*
1,0,$1-0.005,0,0*
%
*
*
G04 PC Custom Aperture Macros*
*
*
*
*
*
*
G04 PC Aperture Table*
*
%ADD011C,0.00787*%
%ADD017C,0.00394*%
%ADD033C,0.00984*%
%ADD042C,0.001*%
*
*
*
*
G04 PC Circuitry*
G04 Layer Name TMC4671+TMC6200-BOB_V10 - circuitry*
%LPD*%
*
*
G04 PC Custom Flashes*
G04 Layer Name TMC4671+TMC6200-BOB_V10 - flashes*
%LPD*%
*
*
G04 PC Circuitry*
G04 Layer Name TMC4671+TMC6200-BOB_V10 - circuitry*
%LPD*%
*
G54D11*
G01X393701Y398701D02*
G75*
G03X398701Y393701I5000J-0D01*
G01X588701*
G03X593701Y398701I-0J5000*
G01Y538701*
G03X588701Y543701I-5000J-0*
G01X398701*
G03X393701Y538701I-0J-5000*
G01Y398701*
G54D17*
X396732Y508701D02*
X400669D01*
X398701Y506732D02*
Y510669D01*
X400401Y512269D02*
X399685Y509685D01*
X400401Y512269D02*
X401117Y509685D01*
X399953Y510546D02*
X400848D01*
X396732Y498701D02*
X400669D01*
X398701Y496732D02*
Y500669D01*
X400401Y502269D02*
X399685Y499685D01*
X400401Y502269D02*
X401117Y499685D01*
X399953Y500546D02*
X400848D01*
X396732Y488701D02*
X400669D01*
X398701Y486732D02*
Y490669D01*
X400401Y492269D02*
X399685Y489685D01*
X400401Y492269D02*
X401117Y489685D01*
X399953Y490546D02*
X400848D01*
X396732Y478701D02*
X400669D01*
X398701Y476732D02*
Y480669D01*
X400401Y482269D02*
X399685Y479685D01*
X400401Y482269D02*
X401117Y479685D01*
X399953Y480546D02*
X400848D01*
X396732Y468701D02*
X400669D01*
X398701Y466732D02*
Y470669D01*
X400401Y472269D02*
X399685Y469685D01*
X400401Y472269D02*
X401117Y469685D01*
X399953Y470546D02*
X400848D01*
X433071Y504094D02*
X437008D01*
X435039Y502126D02*
Y506063D01*
X436739Y507662D02*
X436024Y505079D01*
X436739Y507662D02*
X437455Y505079D01*
X436292Y505940D02*
X437187D01*
X433071Y494094D02*
X437008D01*
X435039Y492126D02*
Y496063D01*
X436739Y497662D02*
X436024Y495079D01*
X436739Y497662D02*
X437455Y495079D01*
X436292Y495940D02*
X437187D01*
X433071Y484094D02*
X437008D01*
X435039Y482126D02*
Y486063D01*
X436739Y487662D02*
X436024Y485079D01*
X436739Y487662D02*
X437455Y485079D01*
X436292Y485940D02*
X437187D01*
X452559Y398701D02*
X456496D01*
X454528Y396732D02*
Y400669D01*
X456228Y402269D02*
X455512Y399685D01*
X456228Y402269D02*
X456943Y399685D01*
X455780Y400546D02*
X456675D01*
X586732Y428701D02*
X590669D01*
X588701Y426732D02*
Y430669D01*
X590401Y432269D02*
X589685Y429685D01*
X590401Y432269D02*
X591117Y429685D01*
X589953Y430546D02*
X590848D01*
X586732Y418701D02*
X590669D01*
X588701Y416732D02*
Y420669D01*
X590401Y422269D02*
X589685Y419685D01*
X590401Y422269D02*
X591117Y419685D01*
X589953Y420546D02*
X590848D01*
X586732Y408701D02*
X590669D01*
X588701Y406732D02*
Y410669D01*
X590401Y412269D02*
X589685Y409685D01*
X590401Y412269D02*
X591117Y409685D01*
X589953Y410546D02*
X590848D01*
X586732Y398701D02*
X590669D01*
X588701Y396732D02*
Y400669D01*
X590401Y402269D02*
X589685Y399685D01*
X590401Y402269D02*
X591117Y399685D01*
X589953Y400546D02*
X590848D01*
X586732Y498701D02*
X590669D01*
X588701Y496732D02*
Y500669D01*
X590401Y502269D02*
X589685Y499685D01*
X590401Y502269D02*
X591117Y499685D01*
X589953Y500546D02*
X590848D01*
X586732Y488701D02*
X590669D01*
X588701Y486732D02*
Y490669D01*
X590401Y492269D02*
X589685Y489685D01*
X590401Y492269D02*
X591117Y489685D01*
X589953Y490546D02*
X590848D01*
X586732Y478701D02*
X590669D01*
X588701Y476732D02*
Y480669D01*
X590401Y482269D02*
X589685Y479685D01*
X590401Y482269D02*
X591117Y479685D01*
X589953Y480546D02*
X590848D01*
X586732Y468701D02*
X590669D01*
X588701Y466732D02*
Y470669D01*
X590401Y472269D02*
X589685Y469685D01*
X590401Y472269D02*
X591117Y469685D01*
X589953Y470546D02*
X590848D01*
X586732Y458701D02*
X590669D01*
X588701Y456732D02*
Y460669D01*
X590401Y462269D02*
X589685Y459685D01*
X590401Y462269D02*
X591117Y459685D01*
X589953Y460546D02*
X590848D01*
X586732Y448701D02*
X590669D01*
X588701Y446732D02*
Y450669D01*
X590401Y452269D02*
X589685Y449685D01*
X590401Y452269D02*
X591117Y449685D01*
X589953Y450546D02*
X590848D01*
X586732Y438701D02*
X590669D01*
X588701Y436732D02*
Y440669D01*
X590401Y442269D02*
X589685Y439685D01*
X590401Y442269D02*
X591117Y439685D01*
X589953Y440546D02*
X590848D01*
X586732Y538701D02*
X590669D01*
X588701Y536732D02*
Y540669D01*
X590401Y542269D02*
X589685Y539685D01*
X590401Y542269D02*
X591117Y539685D01*
X589953Y540546D02*
X590848D01*
X586732Y528701D02*
X590669D01*
X588701Y526732D02*
Y530669D01*
X590401Y532269D02*
X589685Y529685D01*
X590401Y532269D02*
X591117Y529685D01*
X589953Y530546D02*
X590848D01*
X586732Y518701D02*
X590669D01*
X588701Y516732D02*
Y520669D01*
X590401Y522269D02*
X589685Y519685D01*
X590401Y522269D02*
X591117Y519685D01*
X589953Y520546D02*
X590848D01*
X586732Y508701D02*
X590669D01*
X588701Y506732D02*
Y510669D01*
X590401Y512269D02*
X589685Y509685D01*
X590401Y512269D02*
X591117Y509685D01*
X589953Y510546D02*
X590848D01*
X569291Y531890D02*
X573228D01*
X571260Y529921D02*
Y533858D01*
X572244Y535458D02*
Y532874D01*
Y535458D02*
X573049D01*
X573318Y535335*
X573407Y535212*
X573497Y534966*
Y534719*
X573407Y534473*
X573318Y534350*
X573049Y534227*
X572244D02*
X573049D01*
X573318Y534104*
X573407Y533981*
X573497Y533735*
Y533366*
X573407Y533120*
X573318Y532997*
X573049Y532874*
X572244*
X569291Y522047D02*
X573228D01*
X571260Y520079D02*
Y524016D01*
X572244Y525615D02*
Y523031D01*
Y525615D02*
X573049D01*
X573318Y525492*
X573407Y525369*
X573497Y525123*
Y524877*
X573407Y524631*
X573318Y524508*
X573049Y524385*
X572244D02*
X573049D01*
X573318Y524262*
X573407Y524139*
X573497Y523893*
Y523524*
X573407Y523278*
X573318Y523155*
X573049Y523031*
X572244*
X396732Y538701D02*
X400669D01*
X398701Y536732D02*
Y540669D01*
X400401Y542269D02*
X399685Y539685D01*
X400401Y542269D02*
X401117Y539685D01*
X399953Y540546D02*
X400848D01*
X396732Y528701D02*
X400669D01*
X398701Y526732D02*
Y530669D01*
X400401Y532269D02*
X399685Y529685D01*
X400401Y532269D02*
X401117Y529685D01*
X399953Y530546D02*
X400848D01*
X396732Y518701D02*
X400669D01*
X398701Y516732D02*
Y520669D01*
X400401Y522269D02*
X399685Y519685D01*
X400401Y522269D02*
X401117Y519685D01*
X399953Y520546D02*
X400848D01*
X396732Y458701D02*
X400669D01*
X398701Y456732D02*
Y460669D01*
X400401Y462269D02*
X399685Y459685D01*
X400401Y462269D02*
X401117Y459685D01*
X399953Y460546D02*
X400848D01*
X396732Y448701D02*
X400669D01*
X398701Y446732D02*
Y450669D01*
X400401Y452269D02*
X399685Y449685D01*
X400401Y452269D02*
X401117Y449685D01*
X399953Y450546D02*
X400848D01*
X396732Y438701D02*
X400669D01*
X398701Y436732D02*
Y440669D01*
X400401Y442269D02*
X399685Y439685D01*
X400401Y442269D02*
X401117Y439685D01*
X399953Y440546D02*
X400848D01*
X396732Y428701D02*
X400669D01*
X398701Y426732D02*
Y430669D01*
X400401Y432269D02*
X399685Y429685D01*
X400401Y432269D02*
X401117Y429685D01*
X399953Y430546D02*
X400848D01*
X396732Y418701D02*
X400669D01*
X398701Y416732D02*
Y420669D01*
X400401Y422269D02*
X399685Y419685D01*
X400401Y422269D02*
X401117Y419685D01*
X399953Y420546D02*
X400848D01*
X396732Y408701D02*
X400669D01*
X398701Y406732D02*
Y410669D01*
X400401Y412269D02*
X399685Y409685D01*
X400401Y412269D02*
X401117Y409685D01*
X399953Y410546D02*
X400848D01*
X396732Y398701D02*
X400669D01*
X398701Y396732D02*
Y400669D01*
X400401Y402269D02*
X399685Y399685D01*
X400401Y402269D02*
X401117Y399685D01*
X399953Y400546D02*
X400848D01*
X424803Y411614D02*
X428740D01*
X426772Y409646D02*
Y413583D01*
X424803Y424213D02*
X428740D01*
X426772Y422244D02*
Y426181D01*
X394685Y433661D02*
X398622D01*
X396654Y431693D02*
Y435630D01*
X411811Y397638D02*
X415748D01*
X413780Y395669D02*
Y399606D01*
X394685Y423622D02*
X398622D01*
X396654Y421654D02*
Y425591D01*
X394882Y413583D02*
X398819D01*
X396850Y411614D02*
Y415551D01*
X404724Y397244D02*
X408661D01*
X406693Y395276D02*
Y399213D01*
X419291Y397638D02*
X423228D01*
X421260Y395669D02*
Y399606D01*
X394685Y403740D02*
X398622D01*
X396654Y401772D02*
Y405709D01*
X424803Y417913D02*
X428740D01*
X426772Y415945D02*
Y419882D01*
X416142Y404331D02*
X420079D01*
X418110Y402362D02*
Y406299D01*
X496260Y422835D02*
X500197D01*
X498228Y420866D02*
Y424803D01*
X503346Y432677D02*
X507283D01*
X505315Y430709D02*
Y434646D01*
X498819Y433465D02*
X502756D01*
X500787Y431496D02*
Y435433D01*
X504134Y416339D02*
X508071D01*
X506102Y414370D02*
Y418307D01*
X503543Y413189D02*
X507480D01*
X505512Y411220D02*
Y415157D01*
X497047Y418898D02*
X500984D01*
X499016Y416929D02*
Y420866D01*
X501969Y410236D02*
X505906D01*
X503937Y408268D02*
Y412205D01*
X505315Y410236D02*
X509252D01*
X507283Y408268D02*
Y412205D01*
X498425Y403937D02*
X502362D01*
X500394Y401969D02*
Y405906D01*
X495276Y402953D02*
X499213D01*
X497244Y400984D02*
Y404921D01*
X486614Y396850D02*
X490551D01*
X488583Y394882D02*
Y398819D01*
X433268Y417323D02*
X437205D01*
X435236Y415354D02*
Y419291D01*
X462992Y424803D02*
X466929D01*
X464961Y422835D02*
Y426772D01*
X475197Y424803D02*
X479134D01*
X477165Y422835D02*
Y426772D01*
X475984Y399606D02*
X479921D01*
X477953Y397638D02*
Y401575D01*
X489567Y420472D02*
X493504D01*
X491535Y418504D02*
Y422441D01*
X489370Y432677D02*
X493307D01*
X491339Y430709D02*
Y434646D01*
X459843Y410827D02*
X463780D01*
X461811Y408858D02*
Y412795D01*
X435433Y428740D02*
X439370D01*
X437402Y426772D02*
Y430709D01*
X448031Y419685D02*
X451969D01*
X450000Y417717D02*
Y421654D01*
X444291Y422244D02*
X448228D01*
X446260Y420276D02*
Y424213D01*
X446654Y424803D02*
X450591D01*
X448622Y422835D02*
Y426772D01*
X443307Y426181D02*
X447244D01*
X445276Y424213D02*
Y428150D01*
X448425Y432677D02*
X452362D01*
X450394Y430709D02*
Y434646D01*
X445079Y433268D02*
X449016D01*
X447047Y431299D02*
Y435236D01*
X437402Y432480D02*
X441339D01*
X439370Y430512D02*
Y434449D01*
X443307Y413386D02*
X447244D01*
X445276Y411417D02*
Y415354D01*
X441142Y397638D02*
X445079D01*
X443110Y395669D02*
Y399606D01*
X435236Y397835D02*
X439173D01*
X437205Y395866D02*
Y399803D01*
X435236Y422244D02*
X439173D01*
X437205Y420276D02*
Y424213D01*
X468898Y427362D02*
X472835D01*
X470866Y425394D02*
Y429331D01*
X464961Y430906D02*
X468898D01*
X466929Y428937D02*
Y432874D01*
X472835Y430906D02*
X476772D01*
X474803Y428937D02*
Y432874D01*
X451575Y419488D02*
X455512D01*
X453543Y417520D02*
Y421457D01*
X460433Y399606D02*
X464370D01*
X462402Y397638D02*
Y401575D01*
X493110Y397441D02*
X497047D01*
X495079Y395472D02*
Y399409D01*
X498622Y397441D02*
X502559D01*
X500591Y395472D02*
Y399409D01*
X518504Y411024D02*
X522441D01*
X520472Y409055D02*
Y412992D01*
X518504Y403937D02*
X522441D01*
X520472Y401969D02*
Y405906D01*
X518504Y407480D02*
X522441D01*
X520472Y405512D02*
Y409449D01*
X580315Y414567D02*
X584252D01*
X582283Y412598D02*
Y416535D01*
X556693Y413976D02*
X560630D01*
X558661Y412008D02*
Y415945D01*
X584055Y403740D02*
X587992D01*
X586024Y401772D02*
Y405709D01*
X570276Y407677D02*
X574213D01*
X572244Y405709D02*
Y409646D01*
X523622Y415748D02*
X527559D01*
X525591Y413780D02*
Y417717D01*
X534646Y408661D02*
X538583D01*
X536614Y406693D02*
Y410630D01*
X569291Y413976D02*
X573228D01*
X571260Y412008D02*
Y415945D01*
X557874Y397244D02*
X561811D01*
X559843Y395276D02*
Y399213D01*
X568898Y397047D02*
X572835D01*
X570866Y395079D02*
Y399016D01*
X564370Y397047D02*
X568307D01*
X566339Y395079D02*
Y399016D01*
X558465Y421457D02*
X562402D01*
X560433Y419488D02*
Y423425D01*
X540157Y419882D02*
X544094D01*
X542126Y417913D02*
Y421850D01*
X562795Y427756D02*
X566732D01*
X564764Y425787D02*
Y429724D01*
X526575Y419882D02*
X530512D01*
X528543Y417913D02*
Y421850D01*
X572441Y421457D02*
X576378D01*
X574409Y419488D02*
Y423425D01*
X541732Y413583D02*
X545669D01*
X543701Y411614D02*
Y415551D01*
X522638Y419882D02*
X526575D01*
X524606Y417913D02*
Y421850D01*
X536220Y419882D02*
X540157D01*
X538189Y417913D02*
Y421850D01*
X568307Y427756D02*
X572244D01*
X570276Y425787D02*
Y429724D01*
X537795Y413583D02*
X541732D01*
X539764Y411614D02*
Y415551D01*
X421457Y434449D02*
X425394D01*
X423425Y432480D02*
Y436417D01*
X407087Y435039D02*
X411024D01*
X409055Y433071D02*
Y437008D01*
X395079Y503543D02*
X399016D01*
X397047Y501575D02*
Y505512D01*
X400984Y491535D02*
X404921D01*
X402953Y489567D02*
Y493504D01*
X395079Y483661D02*
X399016D01*
X397047Y481693D02*
Y485630D01*
X400394Y463583D02*
X404331D01*
X402362Y461614D02*
Y465551D01*
X400394Y453740D02*
X404331D01*
X402362Y451772D02*
Y455709D01*
X394882Y443701D02*
X398819D01*
X396850Y441732D02*
Y445669D01*
X426969Y456693D02*
X430906D01*
X428937Y454724D02*
Y458661D01*
X421654Y473425D02*
X425591D01*
X423622Y471457D02*
Y475394D01*
X421063Y449213D02*
X425000D01*
X423031Y447244D02*
Y451181D01*
X422047Y439370D02*
X425984D01*
X424016Y437402D02*
Y441339D01*
X421457Y488780D02*
X425394D01*
X423425Y486811D02*
Y490748D01*
X423031Y479528D02*
X426969D01*
X425000Y477559D02*
Y481496D01*
X421654Y461024D02*
X425591D01*
X423622Y459055D02*
Y462992D01*
X426181Y475197D02*
X430118D01*
X428150Y473228D02*
Y477165D01*
X428543Y449213D02*
X432480D01*
X430512Y447244D02*
Y451181D01*
X412992Y507874D02*
X416929D01*
X414961Y505906D02*
Y509843D01*
X421457Y500984D02*
X425394D01*
X423425Y499016D02*
Y502953D01*
X412992Y445669D02*
X416929D01*
X414961Y443701D02*
Y447638D01*
X412992Y457874D02*
X416929D01*
X414961Y455906D02*
Y459843D01*
X421260Y457283D02*
X425197D01*
X423228Y455315D02*
Y459252D01*
X412992Y483465D02*
X416929D01*
X414961Y481496D02*
Y485433D01*
X421654Y507283D02*
X425591D01*
X423622Y505315D02*
Y509252D01*
X412992Y495669D02*
X416929D01*
X414961Y493701D02*
Y497638D01*
X416339Y434646D02*
X420276D01*
X418307Y432677D02*
Y436614D01*
X421654Y469488D02*
X425591D01*
X423622Y467520D02*
Y471457D01*
X421260Y442913D02*
X425197D01*
X423228Y440945D02*
Y444882D01*
X421654Y482874D02*
X425591D01*
X423622Y480906D02*
Y484843D01*
X421654Y495079D02*
X425591D01*
X423622Y493110D02*
Y497047D01*
X427953Y510630D02*
X431890D01*
X429921Y508661D02*
Y512598D01*
X421654Y464567D02*
X425591D01*
X423622Y462598D02*
Y466535D01*
X412992Y470079D02*
X416929D01*
X414961Y468110D02*
Y472047D01*
X424803Y441929D02*
X428740D01*
X426772Y439961D02*
Y443898D01*
X399409Y474016D02*
X403346D01*
X401378Y472047D02*
Y475984D01*
X505906Y444882D02*
X509843D01*
X507874Y442913D02*
Y446850D01*
X476969Y487598D02*
X480906D01*
X478937Y485630D02*
Y489567D01*
X510827Y490551D02*
X514764D01*
X512795Y488583D02*
Y492520D01*
X485236Y506102D02*
X489173D01*
X487205Y504134D02*
Y508071D01*
X477953Y513189D02*
X481890D01*
X479921Y511220D02*
Y515157D01*
X484055Y494685D02*
X487992D01*
X486024Y492717D02*
Y496654D01*
X471063Y493701D02*
X475000D01*
X473031Y491732D02*
Y495669D01*
X452165Y460827D02*
X456102D01*
X454134Y458858D02*
Y462795D01*
X508858Y500591D02*
X512795D01*
X510827Y498622D02*
Y502559D01*
X437795Y512402D02*
X441732D01*
X439764Y510433D02*
Y514370D01*
X504528Y510236D02*
X508465D01*
X506496Y508268D02*
Y512205D01*
X432480Y510039D02*
X436417D01*
X434449Y508071D02*
Y512008D01*
X495866Y444291D02*
X499803D01*
X497835Y442323D02*
Y446260D01*
X434055Y448819D02*
X437992D01*
X436024Y446850D02*
Y450787D01*
X452756Y446654D02*
X456693D01*
X454724Y444685D02*
Y448622D01*
X501772Y487008D02*
X505709D01*
X503740Y485039D02*
Y488976D01*
X499803Y470276D02*
X503740D01*
X501772Y468307D02*
Y472244D01*
X437598Y480906D02*
X441535D01*
X439567Y478937D02*
Y482874D01*
X434252Y468110D02*
X438189D01*
X436220Y466142D02*
Y470079D01*
X475197Y436614D02*
X479134D01*
X477165Y434646D02*
Y438583D01*
X450197Y496457D02*
X454134D01*
X452165Y494488D02*
Y498425D01*
X501575Y483268D02*
X505512D01*
X503543Y481299D02*
Y485236D01*
X454921Y512992D02*
X458858D01*
X456890Y511024D02*
Y514961D01*
X498228Y482087D02*
X502165D01*
X500197Y480118D02*
Y484055D01*
X495472Y480118D02*
X499409D01*
X497441Y478150D02*
Y482087D01*
X488780Y444488D02*
X492717D01*
X490748Y442520D02*
Y446457D01*
X501772Y490551D02*
X505709D01*
X503740Y488583D02*
Y492520D01*
X502362Y507087D02*
X506299D01*
X504331Y505118D02*
Y509055D01*
X499409Y462402D02*
X503346D01*
X501378Y460433D02*
Y464370D01*
X468110Y464764D02*
X472047D01*
X470079Y462795D02*
Y466732D01*
X484252Y462008D02*
X488189D01*
X486220Y460039D02*
Y463976D01*
X484055Y465945D02*
X487992D01*
X486024Y463976D02*
Y467913D01*
X465748Y467323D02*
X469685D01*
X467717Y465354D02*
Y469291D01*
X462598Y468701D02*
X466535D01*
X464567Y466732D02*
Y470669D01*
X462205Y472244D02*
X466142D01*
X464173Y470276D02*
Y474213D01*
X464370Y475000D02*
X468307D01*
X466339Y473031D02*
Y476969D01*
X432677Y437008D02*
X436614D01*
X434646Y435039D02*
Y438976D01*
X434449Y434055D02*
X438386D01*
X436417Y432087D02*
Y436024D01*
X437402Y487992D02*
X441339D01*
X439370Y486024D02*
Y489961D01*
X456496Y463780D02*
X460433D01*
X458465Y461811D02*
Y465748D01*
X477559Y497244D02*
X481496D01*
X479528Y495276D02*
Y499213D01*
X491142Y476378D02*
X495079D01*
X493110Y474409D02*
Y478346D01*
X470079Y481890D02*
X474016D01*
X472047Y479921D02*
Y483858D01*
X469488Y501181D02*
X473425D01*
X471457Y499213D02*
Y503150D01*
X484252Y481890D02*
X488189D01*
X486220Y479921D02*
Y483858D01*
X468898Y434449D02*
X472835D01*
X470866Y432480D02*
Y436417D01*
X462992Y436614D02*
X466929D01*
X464961Y434646D02*
Y438583D01*
X503543Y472835D02*
X507480D01*
X505512Y470866D02*
Y474803D01*
X456496Y449803D02*
X460433D01*
X458465Y447835D02*
Y451772D01*
X475197Y457677D02*
X479134D01*
X477165Y455709D02*
Y459646D01*
X485827Y513386D02*
X489764D01*
X487795Y511417D02*
Y515354D01*
X501772Y497441D02*
X505709D01*
X503740Y495472D02*
Y499409D01*
X502362Y513386D02*
X506299D01*
X504331Y511417D02*
Y515354D01*
X437205Y508071D02*
X441142D01*
X439173Y506102D02*
Y510039D01*
X449213Y509843D02*
X453150D01*
X451181Y507874D02*
Y511811D01*
X450197Y491732D02*
X454134D01*
X452165Y489764D02*
Y493701D01*
X450197Y487008D02*
X454134D01*
X452165Y485039D02*
Y488976D01*
X437795Y500984D02*
X441732D01*
X439764Y499016D02*
Y502953D01*
X497441Y449016D02*
X501378D01*
X499409Y447047D02*
Y450984D01*
X449606Y480512D02*
X453543D01*
X451575Y478543D02*
Y482480D01*
X470472Y507874D02*
X474409D01*
X472441Y505906D02*
Y509843D01*
X562795Y471457D02*
X566732D01*
X564764Y469488D02*
Y473425D01*
X514173Y453346D02*
X518110D01*
X516142Y451378D02*
Y455315D01*
X515354Y437402D02*
X519291D01*
X517323Y435433D02*
Y439370D01*
X555315Y509449D02*
X559252D01*
X557283Y507480D02*
Y511417D01*
X530906Y508661D02*
X534843D01*
X532874Y506693D02*
Y510630D01*
X578150Y481102D02*
X582087D01*
X580118Y479134D02*
Y483071D01*
X515157Y500394D02*
X519094D01*
X517126Y498425D02*
Y502362D01*
X554724Y443307D02*
X558661D01*
X556693Y441339D02*
Y445276D01*
X562598Y491142D02*
X566535D01*
X564567Y489173D02*
Y493110D01*
X530906Y440945D02*
X534843D01*
X532874Y438976D02*
Y442913D01*
X550000Y442717D02*
X553937D01*
X551969Y440748D02*
Y444685D01*
X526575Y442717D02*
X530512D01*
X528543Y440748D02*
Y444685D01*
X522244Y445276D02*
X526181D01*
X524213Y443307D02*
Y447244D01*
X568110Y491142D02*
X572047D01*
X570079Y489173D02*
Y493110D01*
X562795Y443307D02*
X566732D01*
X564764Y441339D02*
Y445276D01*
X568307Y443307D02*
X572244D01*
X570276Y441339D02*
Y445276D01*
X535236Y506102D02*
X539173D01*
X537205Y504134D02*
Y508071D01*
X522244Y440945D02*
X526181D01*
X524213Y438976D02*
Y442913D01*
X521850Y468898D02*
X525787D01*
X523819Y466929D02*
Y470866D01*
X574803Y456102D02*
X578740D01*
X576772Y454134D02*
Y458071D01*
X530906Y445276D02*
X534843D01*
X532874Y443307D02*
Y447244D01*
X535236Y442717D02*
X539173D01*
X537205Y440748D02*
Y444685D01*
X522244Y504331D02*
X526181D01*
X524213Y502362D02*
Y506299D01*
X572244Y484843D02*
X576181D01*
X574213Y482874D02*
Y486811D01*
X559055Y497441D02*
X562992D01*
X561024Y495472D02*
Y499409D01*
X539567Y445276D02*
X543504D01*
X541535Y443307D02*
Y447244D01*
X572441Y434055D02*
X576378D01*
X574409Y432087D02*
Y436024D01*
X558465Y434055D02*
X562402D01*
X560433Y432087D02*
Y436024D01*
X522244Y484055D02*
X526181D01*
X524213Y482087D02*
Y486024D01*
X526575Y506102D02*
X530512D01*
X528543Y504134D02*
Y508071D01*
X526181Y484055D02*
X530118D01*
X528150Y482087D02*
Y486024D01*
X568504Y451969D02*
X572441D01*
X570472Y450000D02*
Y453937D01*
X562205Y463386D02*
X566142D01*
X564173Y461417D02*
Y465354D01*
X567126Y463583D02*
X571063D01*
X569094Y461614D02*
Y465551D01*
X568504Y475591D02*
X572441D01*
X570472Y473622D02*
Y477559D01*
X539567Y508661D02*
X543504D01*
X541535Y506693D02*
Y510630D01*
X550000Y506102D02*
X553937D01*
X551969Y504134D02*
Y508071D01*
X577165Y443307D02*
X581102D01*
X579134Y441339D02*
Y445276D01*
X579528Y463583D02*
X583465D01*
X581496Y461614D02*
Y465551D01*
X574803Y463583D02*
X578740D01*
X576772Y461614D02*
Y465551D01*
X574803Y471457D02*
X578740D01*
X576772Y469488D02*
Y473425D01*
X562205Y456102D02*
X566142D01*
X564173Y454134D02*
Y458071D01*
X572244Y497441D02*
X576181D01*
X574213Y495472D02*
Y499409D01*
X576969Y504724D02*
X580906D01*
X578937Y502756D02*
Y506693D01*
X529134Y451969D02*
X533071D01*
X531102Y450000D02*
Y453937D01*
X533071Y451969D02*
X537008D01*
X535039Y450000D02*
Y453937D01*
X542717Y451969D02*
X546654D01*
X544685Y450000D02*
Y453937D01*
X546654Y451969D02*
X550591D01*
X548622Y450000D02*
Y453937D01*
X536024Y484055D02*
X539961D01*
X537992Y482087D02*
Y486024D01*
X539961Y484055D02*
X543898D01*
X541929Y482087D02*
Y486024D01*
X530906Y504331D02*
X534843D01*
X532874Y502362D02*
Y506299D01*
X514567Y464961D02*
X518504D01*
X516535Y462992D02*
Y466929D01*
X547244Y484843D02*
X551181D01*
X549213Y482874D02*
Y486811D01*
X528937Y477165D02*
X532874D01*
X530906Y475197D02*
Y479134D01*
X533268Y474606D02*
X537205D01*
X535236Y472638D02*
Y476575D01*
X537598Y472835D02*
X541535D01*
X539567Y470866D02*
Y474803D01*
X528937Y472835D02*
X532874D01*
X530906Y470866D02*
Y474803D01*
X546260Y477165D02*
X550197D01*
X548228Y475197D02*
Y479134D01*
X541929Y474606D02*
X545866D01*
X543898Y472638D02*
Y476575D01*
X537598Y477165D02*
X541535D01*
X539567Y475197D02*
Y479134D01*
X522244Y508661D02*
X526181D01*
X524213Y506693D02*
Y510630D01*
X554724Y504724D02*
X558661D01*
X556693Y502756D02*
Y506693D01*
X559055Y484843D02*
X562992D01*
X561024Y482874D02*
Y486811D01*
X556693Y474606D02*
X560630D01*
X558661Y472638D02*
Y476575D01*
X401378Y533268D02*
X405315D01*
X403346Y531299D02*
Y535236D01*
X410039Y539764D02*
X413976D01*
X412008Y537795D02*
Y541732D01*
X424016Y530315D02*
X427953D01*
X425984Y528346D02*
Y532283D01*
X418110Y518701D02*
X422047D01*
X420079Y516732D02*
Y520669D01*
X395276Y514173D02*
X399213D01*
X397244Y512205D02*
Y516142D01*
X426969Y540354D02*
X430906D01*
X428937Y538386D02*
Y542323D01*
X421063Y534646D02*
X425000D01*
X423031Y532677D02*
Y536614D01*
X402756Y522835D02*
X406693D01*
X404724Y520866D02*
Y524803D01*
X416535Y534449D02*
X420472D01*
X418504Y532480D02*
Y536417D01*
X504528Y540354D02*
X508465D01*
X506496Y538386D02*
Y542323D01*
X443110Y527362D02*
X447047D01*
X445079Y525394D02*
Y529331D01*
X506299Y532677D02*
X510236D01*
X508268Y530709D02*
Y534646D01*
X510433Y526378D02*
X514370D01*
X512402Y524409D02*
Y528346D01*
X489370Y534646D02*
X493307D01*
X491339Y532677D02*
Y536614D01*
X458661Y516929D02*
X462598D01*
X460630Y514961D02*
Y518898D01*
X448819Y514370D02*
X452756D01*
X450787Y512402D02*
Y516339D01*
X479134Y527953D02*
X483071D01*
X481102Y525984D02*
Y529921D01*
X463386Y523031D02*
X467323D01*
X465354Y521063D02*
Y525000D01*
X500787Y523819D02*
X504724D01*
X502756Y521850D02*
Y525787D01*
X472835Y528346D02*
X476772D01*
X474803Y526378D02*
Y530315D01*
X472835Y524803D02*
X476772D01*
X474803Y522835D02*
Y526772D01*
X472835Y521260D02*
X476772D01*
X474803Y519291D02*
Y523228D01*
X463583Y526969D02*
X467520D01*
X465551Y525000D02*
Y528937D01*
X463780Y519094D02*
X467717D01*
X465748Y517126D02*
Y521063D01*
X496063Y535433D02*
X500000D01*
X498031Y533465D02*
Y537402D01*
X446457Y531693D02*
X450394D01*
X448425Y529724D02*
Y533661D01*
X455118Y516929D02*
X459055D01*
X457087Y514961D02*
Y518898D01*
X452953Y531890D02*
X456890D01*
X454921Y529921D02*
Y533858D01*
X534449Y532480D02*
X538386D01*
X536417Y530512D02*
Y534449D01*
X533661Y518701D02*
X537598D01*
X535630Y516732D02*
Y520669D01*
X543701Y539567D02*
X547638D01*
X545669Y537598D02*
Y541535D01*
X537205Y539370D02*
X541142D01*
X539173Y537402D02*
Y541339D01*
X522047Y522047D02*
X525984D01*
X524016Y520079D02*
Y524016D01*
X515354Y521260D02*
X519291D01*
X517323Y519291D02*
Y523228D01*
X537795Y522441D02*
X541732D01*
X539764Y520472D02*
Y524409D01*
X544685Y527362D02*
X548622D01*
X546654Y525394D02*
Y529331D01*
X541732Y522441D02*
X545669D01*
X543701Y520472D02*
Y524409D01*
X645472Y477116D02*
X644936Y477854D01*
X644130Y478223*
X643057*
X642251Y477854*
X641714Y477116*
Y476378*
X641983Y475640*
X642251Y475271*
X642788Y474902*
X644399Y474163*
X644936Y473794*
X645204Y473425*
X645472Y472687*
Y471580*
X644936Y470842*
X644130Y470472*
X643057*
X642251Y470842*
X641714Y471580*
X647888Y478223D02*
Y470472D01*
X654062Y478223D02*
X650304Y470472D01*
Y478223D02*
X654062D01*
X650304Y470472D02*
X654062D01*
X656478Y478223D02*
Y470472D01*
Y478223D02*
X659968D01*
X656478Y474532D02*
X658626D01*
X656478Y470472D02*
X659968D01*
X702917Y478223D02*
X702380Y477854D01*
X701843Y477116*
X701575Y476378*
X701306Y475271*
Y473425*
X701575Y472318*
X701843Y471580*
X702380Y470842*
X702917Y470472*
X703991*
X704528Y470842*
X705064Y471580*
X705333Y472318*
X705601Y473425*
Y475271*
X705333Y476378*
X705064Y477116*
X704528Y477854*
X703991Y478223*
X702917*
X703722Y471949D02*
X705333Y469734D01*
X709896Y478223D02*
Y470472D01*
X708017Y478223D02*
X711775D01*
X714191D02*
X716339Y474532D01*
Y470472*
X718486Y478223D02*
X716339Y474532D01*
X740497Y477116D02*
X739961Y477854D01*
X739155Y478223*
X738082*
X737276Y477854*
X736739Y477116*
Y476378*
X737008Y475640*
X737276Y475271*
X737813Y474902*
X739424Y474163*
X739961Y473794*
X740229Y473425*
X740497Y472687*
Y471580*
X739961Y470842*
X739155Y470472*
X738082*
X737276Y470842*
X736739Y471580*
X742913Y478223D02*
X745061Y474532D01*
Y470472*
X747208Y478223D02*
X745061Y474532D01*
X749624Y478223D02*
Y470472D01*
Y478223D02*
X751772Y470472D01*
X753919Y478223D02*
X751772Y470472D01*
X753919Y478223D02*
Y470472D01*
X775394Y478223D02*
Y470472D01*
Y478223D02*
X777810D01*
X778615Y477854*
X778883Y477485*
X779152Y476747*
Y475640*
X778883Y474902*
X778615Y474532*
X777810Y474163*
X775394*
X781568Y478223D02*
Y470472D01*
X784789*
X789352Y478223D02*
X787205Y470472D01*
X789352Y478223D02*
X791500Y470472D01*
X788010Y473056D02*
X790694D01*
X795795Y478223D02*
Y470472D01*
X793916Y478223D02*
X797674D01*
X800089D02*
Y470472D01*
Y478223D02*
X803579D01*
X800089Y474532D02*
X802237D01*
X800089Y470472D02*
X803579D01*
X805995Y478223D02*
Y470472D01*
Y478223D02*
X807874D01*
X808679Y477854*
X809216Y477116*
X809485Y476378*
X809753Y475271*
Y473425*
X809485Y472318*
X809216Y471580*
X808679Y470842*
X807874Y470472*
X805995*
X833644Y478223D02*
Y470472D01*
X831764Y478223D02*
X835523D01*
X839549D02*
X839012Y477854D01*
X838475Y477116*
X838207Y476378*
X837938Y475271*
Y473425*
X838207Y472318*
X838475Y471580*
X839012Y470842*
X839549Y470472*
X840623*
X841160Y470842*
X841696Y471580*
X841965Y472318*
X842233Y473425*
Y475271*
X841965Y476378*
X841696Y477116*
X841160Y477854*
X840623Y478223*
X839549*
X844649D02*
Y470472D01*
X847870*
X617752Y454601D02*
X616947Y454232D01*
X616410Y453125*
X616142Y451280*
Y450172*
X616410Y448327*
X616947Y447219*
X617752Y446850*
X618289*
X619094Y447219*
X619631Y448327*
X619900Y450172*
Y451280*
X619631Y453125*
X619094Y454232*
X618289Y454601*
X617752*
X622584Y447589D02*
X622316Y447219D01*
X622584Y446850*
X622853Y447219*
X622584Y447589*
X625805Y454601D02*
X628758D01*
X627147Y451649*
X627953*
X628490Y451280*
X628758Y450910*
X629026Y449803*
Y449065*
X628758Y447958*
X628221Y447219*
X627416Y446850*
X626611*
X625805Y447219*
X625537Y447589*
X625268Y448327*
X702246Y452756D02*
Y453125D01*
X702514Y453863*
X702783Y454232*
X703320Y454601*
X704393*
X704930Y454232*
X705199Y453863*
X705467Y453125*
Y452387*
X705199Y451649*
X704662Y450541*
X701977Y446850*
X705736*
X711373Y453494D02*
X711104Y454232D01*
X710299Y454601*
X709762*
X708957Y454232*
X708420Y453125*
X708151Y451280*
Y449434*
X708420Y447958*
X708957Y447219*
X709762Y446850*
X710030*
X710836Y447219*
X711373Y447958*
X711641Y449065*
Y449434*
X711373Y450541*
X710836Y451280*
X710030Y451649*
X709762*
X708957Y451280*
X708420Y450541*
X708151Y449434*
X715399Y454601D02*
X714594Y454232D01*
X714325Y453494*
Y452756*
X714594Y452018*
X715131Y451649*
X716204Y451280*
X717010Y450910*
X717547Y450172*
X717815Y449434*
Y448327*
X717547Y447589*
X717278Y447219*
X716473Y446850*
X715399*
X714594Y447219*
X714325Y447589*
X714057Y448327*
Y449434*
X714325Y450172*
X714862Y450910*
X715668Y451280*
X715668D02*
X716741Y451649D01*
X717278Y452018*
X717547Y452756*
Y453494*
X717278Y454232*
X716473Y454601*
X715399*
X740157Y452756D02*
X751969D01*
X746063Y446850D02*
Y458661D01*
X772575Y454601D02*
X774723Y450910D01*
Y446850*
X776870Y454601D02*
X774723Y450910D01*
X779286Y454601D02*
Y446850D01*
Y454601D02*
X782776D01*
X779286Y450910D02*
X781433D01*
X779286Y446850D02*
X782776D01*
X788950Y453494D02*
X788413Y454232D01*
X787607Y454601*
X786534*
X785728Y454232*
X785191Y453494*
Y452756*
X785460Y452018*
X785728Y451649*
X786265Y451280*
X787876Y450541*
X788413Y450172*
X788681Y449803*
X788950Y449065*
Y447958*
X788413Y447219*
X787607Y446850*
X786534*
X785728Y447219*
X785191Y447958*
X826127Y453494D02*
Y446850D01*
X823712Y450172D02*
X828543D01*
X835791Y456078D02*
X830959Y444267D01*
X838207Y450172D02*
X843039D01*
X847065Y454601D02*
X846260Y454232D01*
X845723Y453125*
X845455Y451280*
Y450172*
X845723Y448327*
X846260Y447219*
X847065Y446850*
X847602*
X848407Y447219*
X848944Y448327*
X849213Y450172*
Y451280*
X848944Y453125*
X848407Y454232*
X847602Y454601*
X847065*
X851897Y447589D02*
X851628Y447219D01*
X851897Y446850*
X852165Y447219*
X851897Y447589*
X854581Y453125D02*
X855118Y453494D01*
X855923Y454601*
Y446850*
X616142Y429503D02*
X616679Y429872D01*
X617484Y430979*
Y423228*
X620168Y423967D02*
X619900Y423597D01*
X620168Y423228*
X620437Y423597*
X620168Y423967*
X622853Y429503D02*
X623389Y429872D01*
X624195Y430979*
Y423228*
X705333Y430979D02*
X708286D01*
X706675Y428027*
X707480*
X708017Y427657*
X708286Y427288*
X708554Y426181*
Y425443*
X708286Y424336*
X707749Y423597*
X706943Y423228*
X706138*
X705333Y423597*
X705064Y423967*
X704796Y424705*
X713654Y430979D02*
X710970Y425812D01*
X714996*
X713654Y430979D02*
Y423228D01*
X740157Y429134D02*
X751969D01*
X746063Y423228D02*
Y435039D01*
X750734Y438287D02*
X749016Y432087D01*
X750734Y438287D02*
X752452Y432087D01*
X749660Y434154D02*
X751807D01*
X772575Y430979D02*
X774723Y427288D01*
Y423228*
X776870Y430979D02*
X774723Y427288D01*
X779286Y430979D02*
Y423228D01*
Y430979D02*
X782776D01*
X779286Y427288D02*
X781433D01*
X779286Y423228D02*
X782776D01*
X788950Y429872D02*
X788413Y430610D01*
X787607Y430979*
X786534*
X785728Y430610*
X785191Y429872*
Y429134*
X785460Y428396*
X785728Y428027*
X786265Y427657*
X787876Y426919*
X788413Y426550*
X788681Y426181*
X788950Y425443*
Y424336*
X788413Y423597*
X787607Y423228*
X786534*
X785728Y423597*
X785191Y424336*
X826127Y429872D02*
Y423228D01*
X823712Y426550D02*
X828543D01*
X835791Y432456D02*
X830959Y420645D01*
X838207Y426550D02*
X843039D01*
X847065Y430979D02*
X846260Y430610D01*
X845723Y429503*
X845455Y427657*
Y426550*
X845723Y424705*
X846260Y423597*
X847065Y423228*
X847602*
X848407Y423597*
X848944Y424705*
X849213Y426550*
Y427657*
X848944Y429503*
X848407Y430610*
X847602Y430979*
X847065*
X851897Y423967D02*
X851628Y423597D01*
X851897Y423228*
X852165Y423597*
X851897Y423967*
X854581Y429503D02*
X855118Y429872D01*
X855923Y430979*
Y423228*
X617752Y407357D02*
X616947Y406988D01*
X616410Y405881*
X616142Y404035*
Y402928*
X616410Y401083*
X616947Y399975*
X617752Y399606*
X618289*
X619094Y399975*
X619631Y401083*
X619900Y402928*
Y404035*
X619631Y405881*
X619094Y406988*
X618289Y407357*
X617752*
X622584Y400344D02*
X622316Y399975D01*
X622584Y399606*
X622853Y399975*
X622584Y400344*
X626611Y407357D02*
X625805Y406988D01*
X625537Y406250*
Y405512*
X625805Y404774*
X626342Y404405*
X627416Y404035*
X628221Y403666*
X628758Y402928*
X629026Y402190*
Y401083*
X628758Y400344*
X628490Y399975*
X627684Y399606*
X626611*
X625805Y399975*
X625537Y400344*
X625268Y401083*
Y402190*
X625537Y402928*
X626074Y403666*
X626879Y404035*
X627953Y404405*
X628490Y404774*
X628758Y405512*
Y406250*
X628490Y406988*
X627684Y407357*
X626611*
X708286Y405512D02*
Y405881D01*
X708554Y406619*
X708822Y406988*
X709359Y407357*
X710433*
X710970Y406988*
X711238Y406619*
X711507Y405881*
Y405143*
X711238Y404405*
X710702Y403297*
X708017Y399606*
X711775*
X740157Y405512D02*
X751969D01*
X746063Y399606D02*
Y411417D01*
X749016Y414665D02*
Y408465D01*
Y414665D02*
X750948D01*
X751593Y414370*
X751807Y414075*
X752022Y413484*
Y412894*
X751807Y412303*
X751593Y412008*
X750948Y411713*
X749016D02*
X750948D01*
X751593Y411417*
X751807Y411122*
X752022Y410531*
Y409646*
X751807Y409055*
X751593Y408760*
X750948Y408465*
X749016*
X772575Y407357D02*
X774723Y403666D01*
Y399606*
X776870Y407357D02*
X774723Y403666D01*
X779286Y407357D02*
Y399606D01*
Y407357D02*
X782776D01*
X779286Y403666D02*
X781433D01*
X779286Y399606D02*
X782776D01*
X788950Y406250D02*
X788413Y406988D01*
X787607Y407357*
X786534*
X785728Y406988*
X785191Y406250*
Y405512*
X785460Y404774*
X785728Y404405*
X786265Y404035*
X787876Y403297*
X788413Y402928*
X788681Y402559*
X788950Y401821*
Y400714*
X788413Y399975*
X787607Y399606*
X786534*
X785728Y399975*
X785191Y400714*
X826127Y406250D02*
Y399606D01*
X823712Y402928D02*
X828543D01*
X835791Y408834D02*
X830959Y397023D01*
X838207Y402928D02*
X843039D01*
X847065Y407357D02*
X846260Y406988D01*
X845723Y405881*
X845455Y404035*
Y402928*
X845723Y401083*
X846260Y399975*
X847065Y399606*
X847602*
X848407Y399975*
X848944Y401083*
X849213Y402928*
Y404035*
X848944Y405881*
X848407Y406988*
X847602Y407357*
X847065*
X851897Y400344D02*
X851628Y399975D01*
X851897Y399606*
X852165Y399975*
X851897Y400344*
X854581Y405881D02*
X855118Y406250D01*
X855923Y407357*
Y399606*
G54D33*
X610236Y488189D02*
X864173D01*
X610236Y464567D02*
X864173D01*
X610236Y440945D02*
X864173D01*
X610236Y417323D02*
X864173D01*
X610236Y393701D02*
X864173D01*
X610236Y488189D02*
Y393701D01*
X692913Y488189D02*
Y393701D01*
X728346Y488189D02*
Y393701D01*
X763780Y488189D02*
Y393701D01*
X816929Y488189D02*
Y393701D01*
X864173Y488189D02*
Y393701D01*
G54D42*
G74*
X0Y0D02*
M02*
