M48
;FILE_FORMAT=2:4
INCH,LZ
FMAT,2
ICI,OFF
;TYPE=PLATED
T1C.01181
T2C.0315
T3C.04331
%
M72
G90
G93X0Y0
T1C.01181F095S3
X039665Y040374
X039685Y041358
X040669Y039724
X041378Y039764
X041811Y040433
X042126Y039764
X042677Y041791
X042677Y041161
X043524Y041732
X04372Y039783
X044311Y039764
X044528Y041339
X045Y041969
X045354Y041949
X046181Y041083
X04624Y039961
X047795Y039961
X048858Y039685
X049154Y042047
X049508Y039744
X049724Y040295
X049902Y04189
X050039Y040394
X050059Y039744
X050394Y041024
X050551Y041319
X05061Y041634
X050728Y041024
X052047Y041102
X052047Y040394
X052047Y040748
X052461Y041988
X052559Y041575
X052854Y041988
X053661Y040866
X053819Y041988
X053976Y041358
X054213Y041988
X05437Y041358
X055866Y041398
X055984Y039724
X056043Y042146
X056634Y039705
X057087Y039705
X057126Y041398
X057224Y040768
X057441Y042146
X058228Y041457
X058602Y040374
X057913Y044331
X057441Y043406
X057028Y042776
X057028Y044331
X056476Y042776
X056476Y044331
X056043Y043406
X055669Y044331
X055197Y044272
X054154Y044528
X05372Y044272
X053287Y044094
X053287Y044528
X052854Y044272
X052421Y044528
X052421Y044094
X051732Y04374
X050787Y044488
X050531Y043268
X050079Y043346
X049823Y042283
X049783Y044429
X049134Y043268
X049075Y044449
X047717Y043661
X047717Y04248
X04748Y043091
X047087Y043445
X047087Y042736
X046693Y043091
X046496Y043661
X046496Y04248
X045472Y044665
X045039Y043268
X044862Y04248
X044705Y043327
X044626Y042224
X044528Y042618
X043937Y043248
X04374Y042874
X04372Y042224
X043642Y043406
X043465Y043701
X042677Y044193
X042677Y042421
X042402Y043937
X042343Y043445
X042323Y044291
X041831Y043465
X041496Y044567
X040906Y043504
X039685Y04437
X039665Y042362
X039665Y043366
X040236Y046358
X040236Y045374
X041496Y045787
X041496Y047008
X042303Y044921
X042323Y045728
X042362Y046102
X042362Y046949
X042362Y046457
X042894Y045669
X043051Y044921
X043602Y044882
X043622Y046811
X045413Y046083
X045846Y046378
X045846Y04498
X046457Y04687
X046772Y046732
X047008Y046476
X047717Y045768
X048602Y046594
X048622Y046201
X049941Y044902
X050138Y04624
X050177Y047028
X051614Y045335
X051654Y046496
X052382Y04689
X05311Y045197
X053504Y045197
X054469Y045197
X054862Y045197
X056417Y04561
X056417Y046339
X056476Y047146
X056909Y046358
X057047Y045197
X057677Y046358
X057677Y04561
X057677Y047146
X05815Y046358
X058012Y04811
X057421Y048484
X057047Y047559
X057008Y049114
X056457Y049114
X056102Y048484
X055866Y047461
X054921Y048484
X054823Y047717
X05439Y047461
X054193Y048406
X053957Y047283
X053957Y047717
X053799Y048406
X053524Y047461
X053091Y047717
X053091Y047283
X052815Y048406
X052421Y048406
X05128Y049055
X050551Y047283
X050374Y049055
X050374Y048701
X050354Y048327
X05002Y048209
X049744Y048012
X049311Y047638
X048622Y048189
X048602Y049469
X047894Y04876
X047303Y04937
X047205Y048189
X046634Y0475
X046417Y047224
X045217Y049646
X045217Y049173
X045217Y048701
X045157Y048051
X043957Y048091
X043937Y048799
X042815Y04752
X0425Y047953
X042362Y048287
X042362Y049508
X042362Y047343
X042343Y048878
X041496Y048346
X041496Y049567
X040295Y049154
X040138Y047402
X039705Y048366
X039705Y050354
X039724Y051417
X041496Y050787
X042008Y05187
X042343Y050098
X042362Y050728
X042992Y051063
X043445Y051004
X043917Y050807
X043976Y05124
X043976Y050098
X045079Y051437
X045118Y050984
X045689Y051299
X045709Y051693
X046063Y051693
X046575Y051909
X047146Y050118
X047244Y050787
X04748Y052126
X047953Y049724
X047992Y051319
X04872Y05061
X04878Y051339
X050374Y049744
X050433Y050709
X050433Y051339
X05065Y051024
X051083Y050059
X051713Y050039
X051732Y052126
X052421Y050866
X052421Y050433
X052854Y05061
X053287Y050866
X053287Y050433
X053563Y05187
X05372Y05061
X054154Y050866
X055197Y05061
X055669Y050472
X055728Y050945
X056102Y049744
X057421Y049744
X057894Y050472
X054665Y052736
X054567Y053957
X05437Y052244
X053976Y052244
X053917Y053937
X053642Y053248
X052402Y052205
X05124Y052638
X050827Y053268
X05065Y054035
X050276Y052382
X049803Y053543
X049134Y053465
X04811Y052795
X04748Y05248
X04748Y052835
X046555Y052697
X046535Y052303
X045492Y053189
X044843Y053169
X044508Y052736
X042894Y054035
X042598Y053031
X042303Y053465
X04185Y053445
X041201Y053976
X040472Y052283
X040335Y053327
T2C.0315F197S55
X057126Y053189
X057126Y052205
T3C.04331F139S55
X03987Y04187
X03987Y04087
X03987Y03987
X03987Y04387
X03987Y04287
X045453Y03987
X05887Y04087
X05887Y04287
X05887Y04387
X05887Y03987
X05887Y04187
X05887Y04687
X05887Y04587
X05887Y04487
X05887Y04887
X05887Y04787
X043504Y048409
X043504Y049409
X03987Y04587
X03987Y04487
X03987Y04687
X03987Y04887
X03987Y04787
X03987Y05187
X03987Y05087
X03987Y04987
X03987Y05287
X03987Y05387
X043504Y050409
X05887Y05187
X05887Y05087
X05887Y05287
X05887Y04987
X05887Y05387
M30
