*
*
G04 PADS VX.2.4 Build Number: 12858991 generated Gerber (RS-274-X) file*
G04 PC Version=2.1*
*
%IN "TMC4671+TMC6200-BOB_V10"*%
*
%MOIN*%
*
%FSLAX35Y35*%
*
*
*
*
G04 PC Standard Apertures*
*
*
G04 Thermal Relief Aperture macro.*
%AMTER*
1,1,$1,0,0*
1,0,$1-$2,0,0*
21,0,$3,$4,0,0,45*
21,0,$3,$4,0,0,135*
%
*
*
G04 Annular Aperture macro.*
%AMANN*
1,1,$1,0,0*
1,0,$2,0,0*
%
*
*
G04 Odd Aperture macro.*
%AMODD*
1,1,$1,0,0*
1,0,$1-0.005,0,0*
%
*
*
G04 PC Custom Aperture Macros*
*
*
*
*
*
*
G04 PC Aperture Table*
*
%ADD020C,0.01181*%
%ADD035C,0.06299*%
%ADD042C,0.001*%
*
*
*
*
G04 PC Circuitry*
G04 Layer Name TMC4671+TMC6200-BOB_V10 - circuitry*
%LPD*%
*
*
G04 PC Custom Flashes*
G04 Layer Name TMC4671+TMC6200-BOB_V10 - flashes*
%LPD*%
*
*
G04 PC Circuitry*
G04 Layer Name TMC4671+TMC6200-BOB_V10 - circuitry*
%LPD*%
*
G54D20*
G01X426772Y411614D03*
Y424213D03*
X396654Y433661D03*
X413780Y397638D03*
X396654Y423622D03*
X396850Y413583D03*
X406693Y397244D03*
X421260Y397638D03*
X396654Y403740D03*
X426772Y417913D03*
X418110Y404331D03*
X498228Y422835D03*
X505315Y432677D03*
X500787Y433465D03*
X506102Y416339D03*
X505512Y413189D03*
X499016Y418898D03*
X503937Y410236D03*
X507283D03*
X500394Y403937D03*
X497244Y402953D03*
X488583Y396850D03*
X435236Y417323D03*
X464961Y424803D03*
X477165D03*
X477953Y399606D03*
X491535Y420472D03*
X491339Y432677D03*
X461811Y410827D03*
X437402Y428740D03*
X450000Y419685D03*
X446260Y422244D03*
X448622Y424803D03*
X445276Y426181D03*
X450394Y432677D03*
X447047Y433268D03*
X439370Y432480D03*
X445276Y413386D03*
X443110Y397638D03*
X437205Y397835D03*
Y422244D03*
X470866Y427362D03*
X466929Y430906D03*
X474803D03*
X453543Y419488D03*
X462402Y399606D03*
X495079Y397441D03*
X500591D03*
X520472Y411024D03*
Y403937D03*
Y407480D03*
X582283Y414567D03*
X558661Y413976D03*
X586024Y403740D03*
X572244Y407677D03*
X525591Y415748D03*
X536614Y408661D03*
X571260Y413976D03*
X559843Y397244D03*
X570866Y397047D03*
X566339D03*
X560433Y421457D03*
X542126Y419882D03*
X564764Y427756D03*
X528543Y419882D03*
X574409Y421457D03*
X543701Y413583D03*
X524606Y419882D03*
X538189D03*
X570276Y427756D03*
X539764Y413583D03*
X423425Y434449D03*
X409055Y435039D03*
X397047Y503543D03*
X402953Y491535D03*
X397047Y483661D03*
X402362Y463583D03*
Y453740D03*
X396850Y443701D03*
X428937Y456693D03*
X423622Y473425D03*
X423031Y449213D03*
X424016Y439370D03*
X423425Y488780D03*
X425000Y479528D03*
X423622Y461024D03*
X428150Y475197D03*
X430512Y449213D03*
X414961Y507874D03*
X423425Y500984D03*
X414961Y445669D03*
Y457874D03*
X423228Y457283D03*
X414961Y483465D03*
X423622Y507283D03*
X414961Y495669D03*
X418307Y434646D03*
X423622Y469488D03*
X423228Y442913D03*
X423622Y482874D03*
Y495079D03*
X429921Y510630D03*
X423622Y464567D03*
X414961Y470079D03*
X426772Y441929D03*
X401378Y474016D03*
X507874Y444882D03*
X478937Y487598D03*
X512795Y490551D03*
X487205Y506102D03*
X479921Y513189D03*
X486024Y494685D03*
X473031Y493701D03*
X454134Y460827D03*
X510827Y500591D03*
X439764Y512402D03*
X506496Y510236D03*
X434449Y510039D03*
X497835Y444291D03*
X436024Y448819D03*
X454724Y446654D03*
X503740Y487008D03*
X501772Y470276D03*
X439567Y480906D03*
X436220Y468110D03*
X477165Y436614D03*
X452165Y496457D03*
X503543Y483268D03*
X456890Y512992D03*
X500197Y482087D03*
X497441Y480118D03*
X490748Y444488D03*
X503740Y490551D03*
X504331Y507087D03*
X501378Y462402D03*
X470079Y464764D03*
X486220Y462008D03*
X486024Y465945D03*
X467717Y467323D03*
X464567Y468701D03*
X464173Y472244D03*
X466339Y475000D03*
X434646Y437008D03*
X436417Y434055D03*
X439370Y487992D03*
X458465Y463780D03*
X479528Y497244D03*
X493110Y476378D03*
X472047Y481890D03*
X471457Y501181D03*
X486220Y481890D03*
X470866Y434449D03*
X464961Y436614D03*
X505512Y472835D03*
X458465Y449803D03*
X477165Y457677D03*
X487795Y513386D03*
X503740Y497441D03*
X504331Y513386D03*
X439173Y508071D03*
X451181Y509843D03*
X452165Y491732D03*
Y487008D03*
X439764Y500984D03*
X499409Y449016D03*
X451575Y480512D03*
X472441Y507874D03*
X564764Y471457D03*
X516142Y453346D03*
X517323Y437402D03*
X557283Y509449D03*
X532874Y508661D03*
X580118Y481102D03*
X517126Y500394D03*
X556693Y443307D03*
X564567Y491142D03*
X532874Y440945D03*
X551969Y442717D03*
X528543D03*
X524213Y445276D03*
X570079Y491142D03*
X564764Y443307D03*
X570276D03*
X537205Y506102D03*
X524213Y440945D03*
X523819Y468898D03*
X576772Y456102D03*
X532874Y445276D03*
X537205Y442717D03*
X524213Y504331D03*
X574213Y484843D03*
X561024Y497441D03*
X541535Y445276D03*
X574409Y434055D03*
X560433D03*
X524213Y484055D03*
X528543Y506102D03*
X528150Y484055D03*
X570472Y451969D03*
X564173Y463386D03*
X569094Y463583D03*
X570472Y475591D03*
X541535Y508661D03*
X551969Y506102D03*
X579134Y443307D03*
X581496Y463583D03*
X576772D03*
Y471457D03*
X564173Y456102D03*
X574213Y497441D03*
X578937Y504724D03*
X531102Y451969D03*
X535039D03*
X544685D03*
X548622D03*
X537992Y484055D03*
X541929D03*
X532874Y504331D03*
X516535Y464961D03*
X549213Y484843D03*
X530906Y477165D03*
X535236Y474606D03*
X539567Y472835D03*
X530906D03*
X548228Y477165D03*
X543898Y474606D03*
X539567Y477165D03*
X524213Y508661D03*
X556693Y504724D03*
X561024Y484843D03*
X558661Y474606D03*
X403346Y533268D03*
X412008Y539764D03*
X425984Y530315D03*
X420079Y518701D03*
X397244Y514173D03*
X428937Y540354D03*
X423031Y534646D03*
X404724Y522835D03*
X418504Y534449D03*
X506496Y540354D03*
X445079Y527362D03*
X508268Y532677D03*
X512402Y526378D03*
X491339Y534646D03*
X460630Y516929D03*
X450787Y514370D03*
X481102Y527953D03*
X465354Y523031D03*
X502756Y523819D03*
X474803Y528346D03*
Y524803D03*
Y521260D03*
X465551Y526969D03*
X465748Y519094D03*
X498031Y535433D03*
X448425Y531693D03*
X457087Y516929D03*
X454921Y531890D03*
X536417Y532480D03*
X535630Y518701D03*
X545669Y539567D03*
X539173Y539370D03*
X524016Y522047D03*
X517323Y521260D03*
X539764Y522441D03*
X546654Y527362D03*
X543701Y522441D03*
G54D35*
X398701Y508701D03*
Y498701D03*
Y488701D03*
Y478701D03*
Y468701D03*
X435039Y504094D03*
Y494094D03*
Y484094D03*
X454528Y398701D03*
X588701Y428701D03*
Y418701D03*
Y408701D03*
Y398701D03*
Y498701D03*
Y488701D03*
Y478701D03*
Y468701D03*
Y458701D03*
Y448701D03*
Y438701D03*
Y538701D03*
Y528701D03*
Y518701D03*
Y508701D03*
X571260Y531890D03*
Y522047D03*
X398701Y538701D03*
Y528701D03*
Y518701D03*
Y458701D03*
Y448701D03*
Y438701D03*
Y428701D03*
Y418701D03*
Y408701D03*
Y398701D03*
G54D42*
X0Y0D02*
M02*
