*
*
G04 PADS VX.2.4 Build Number: 12858991 generated Gerber (RS-274-X) file*
G04 PC Version=2.1*
*
%IN "TMC4671+TMC6200-BOB_V10"*%
*
%MOIN*%
*
%FSLAX35Y35*%
*
*
*
*
G04 PC Standard Apertures*
*
*
G04 Thermal Relief Aperture macro.*
%AMTER*
1,1,$1,0,0*
1,0,$1-$2,0,0*
21,0,$3,$4,0,0,45*
21,0,$3,$4,0,0,135*
%
*
*
G04 Annular Aperture macro.*
%AMANN*
1,1,$1,0,0*
1,0,$2,0,0*
%
*
*
G04 Odd Aperture macro.*
%AMODD*
1,1,$1,0,0*
1,0,$1-0.005,0,0*
%
*
*
G04 PC Custom Aperture Macros*
*
*
*
*
*
*
G04 PC Aperture Table*
*
%ADD011C,0.00787*%
%ADD013C,0.05906*%
%ADD021C,0.02362*%
%ADD042C,0.001*%
*
*
*
*
G04 PC Circuitry*
G04 Layer Name TMC4671+TMC6200-BOB_V10 - circuitry*
%LPD*%
*
*
G04 PC Custom Flashes*
G04 Layer Name TMC4671+TMC6200-BOB_V10 - flashes*
%LPD*%
*
*
G04 PC Circuitry*
G04 Layer Name TMC4671+TMC6200-BOB_V10 - circuitry*
%LPD*%
*
G54D11*
G01X465024Y425588D02*
G75*
G03X466102Y425945I185J1250D01*
G01X465024Y425588D02*
X465745Y424867D01*
X466102Y425945D02*
G03X465745Y424867I894J-894D01*
G01X466102Y425945D02*
X466102D01*
X465455Y425157D02*
X465736D01*
X465315Y425297D02*
Y425579D01*
X467439Y430306D02*
G03X466929Y429291I754J-1015D01*
G01X467439Y430306D02*
X466419D01*
X466929Y429291D02*
G03X466419Y430306I-1263J0D01*
G01X466654Y430079D02*
X467204D01*
X466929Y429291D02*
Y430306D01*
X474203Y430395D02*
G03X473189Y430906I-1014J-753D01*
G01X474203Y430395D02*
Y431416D01*
X473189Y430906D02*
G03X474203Y431416I-0J1263D01*
G01X473189Y430906D02*
X474203D01*
X473189D02*
X473189D01*
X473976Y430630D02*
Y431181D01*
X471376Y433849D02*
G03X470866Y432835I754J-1014D01*
G01X471376Y433849D02*
X470356D01*
X470866Y432835D02*
G03X470356Y433849I-1263J-0D01*
G01X470591Y433622D02*
X471141D01*
X470866Y432835D02*
Y433849D01*
X470356Y427962D02*
G03X470866Y428976I-753J1014D01*
G01X470356Y427962D02*
X471376D01*
X470866Y428976D02*
G03X471376Y427962I1264J0D01*
G01X470866Y428976D02*
X470866D01*
X470591Y428189D02*
X471141D01*
X470866Y427962D02*
Y428976D01*
X467529Y431416D02*
G03X468543Y430906I1014J753D01*
G01X467529Y431416D02*
Y430395D01*
X468543Y430906D02*
G03X467529Y430395I0J-1264D01*
G01Y430906D02*
X468543D01*
X467756Y430630D02*
Y431181D01*
X474293Y431505D02*
G03X474803Y432520I-753J1015D01*
G01X474293Y431505D02*
X475313D01*
X474803Y432520D02*
G03X475313Y431505I1264J-0D01*
G01X474803Y432520D02*
X474803D01*
X474528Y431732D02*
X475078D01*
X474803Y431505D02*
Y432520D01*
X477102Y435829D02*
G03X476024Y435473I-185J-1250D01*
G01X477102Y435829D02*
X476381Y436551D01*
X476024Y435473D02*
G03X476381Y436551I-894J893D01*
G01X476390Y436260D02*
X476671D01*
X476024Y435473D02*
X476024D01*
X476811Y435838D02*
Y436120D01*
X475313Y430306D02*
G03X474803Y429291I754J-1015D01*
G01X475313Y430306D02*
X474293D01*
X474803Y429291D02*
G03X474293Y430306I-1263J0D01*
G01X474528Y430079D02*
X475078D01*
X474803Y429291D02*
Y430306D01*
X476381Y424867D02*
G03X476024Y425945I-1251J184D01*
G01X476381Y424867D02*
X477102Y425588D01*
X476024Y425945D02*
G03X477102Y425588I893J893D01*
G01X476024Y425945D02*
X476024D01*
X476390Y425157D02*
X476671D01*
X476024Y425945D02*
X476024D01*
X476811Y425297D02*
Y425579D01*
X465745Y436551D02*
G03X466102Y435473I1251J-185D01*
G01X465745Y436551D02*
X465024Y435829D01*
X466102Y435473D02*
G03X465024Y435829I-893J-894D01*
G01X465455Y436260D02*
X465736D01*
X465315Y435838D02*
Y436120D01*
X466419Y431505D02*
G03X466929Y432520I-753J1015D01*
G01X466419Y431505D02*
X467439D01*
X466929Y432520D02*
G03X467439Y431505I1264J-0D01*
G01X466929Y432520D02*
X466929D01*
X466654Y431732D02*
X467204D01*
X466929Y431505D02*
Y432520D01*
X464961Y424803D02*
X466929Y426772D01*
Y430906*
X474803D02*
X470866D01*
Y434449*
Y427362D02*
Y430906D01*
X466929*
X474803D02*
Y434252D01*
X477165Y436614*
X474803Y430906D02*
Y427165D01*
X477165Y424803*
X464961Y436614D02*
X466929Y434646D01*
Y430906*
X584646Y414567D02*
G03X584646I-2363J0D01*
G01X574606Y407677D02*
G03X574606I-2362J0D01*
G01X577559Y421457D02*
G03X577559I-3150J0D01*
G01X563583D02*
G03X563583I-3150J0D01*
G01X577559Y434055D02*
G03X577559I-3150J0D01*
G01X582283Y443307D02*
G03X582283I-3149J0D01*
G01X563583Y434055D02*
G03X563583I-3150J0D01*
G01X573622Y451969D02*
G03X573622I-3150J0D01*
G01X579921Y456102D02*
G03X579921I-3149J0D01*
G01Y471457D02*
G03X579921I-3149J0D01*
G01X583268Y481102D02*
G03X583268I-3150J0D01*
G01X567323Y456102D02*
G03X567323I-3150J0D01*
G01X567913Y471457D02*
G03X567913I-3149J0D01*
G01X573622Y475591D02*
G03X573622I-3150J0D01*
G01X577362Y484843D02*
G03X577362I-3149J0D01*
G01X561417Y474606D02*
G03X561417I-2756J0D01*
G01X564173Y484843D02*
G03X564173I-3149J0D01*
G01X577362Y497441D02*
G03X577362I-3149J0D01*
G01X582087Y504724D02*
G03X582087I-3150J0D01*
G01X576181Y531890D02*
G03X576181I-4921J0D01*
G01X564173Y497441D02*
G03X564173I-3149J0D01*
G01X552362Y484843D02*
G03X552362I-3149J0D01*
G01X526575Y468898D02*
G03X526575I-2756J0D01*
G01X538780Y532480D02*
G03X538780I-2363J0D01*
G01X526378Y522047D02*
G03X526378I-2362J0D01*
G01X520079Y437402D02*
G03X520079I-2756J0D01*
G01X519882Y500394D02*
G03X519882I-2756J0D01*
G01X519685Y521260D02*
G03X519685I-2362J0D01*
G01X508465Y416339D02*
G03X508465I-2363J0D01*
G01X501772Y418898D02*
G03X501772I-2756J0D01*
G01X503543Y433465D02*
G03X503543I-2756J0D01*
G01X502165Y449016D02*
G03X502165I-2756J0D01*
G01X503740Y462402D02*
G03X503740I-2362J0D01*
G01X504134Y470276D02*
G03X504134I-2362J0D01*
G01X506102Y490551D02*
G03X506102I-2362J0D01*
G01X510630Y532677D02*
G03X510630I-2362J0D01*
G01X505118Y523819D02*
G03X505118I-2362J0D01*
G01X494291Y420472D02*
G03X494291I-2756J0D01*
G01X494095Y432677D02*
G03X494095I-2756J0D01*
G01X493504Y444488D02*
G03X493504I-2756J0D01*
G01X483465Y527953D02*
G03X483465I-2363J0D01*
G01X465551Y399606D02*
G03X465551I-3149J0D01*
G01X464173Y410827D02*
G03X464173I-2362J0D01*
G01X453937Y480512D02*
G03X453937I-2362J0D01*
G01X467717Y523031D02*
G03X467717I-2363J0D01*
G01X453543Y509843D02*
G03X453543I-2362J0D01*
G01X457283Y531890D02*
G03X457283I-2362J0D01*
G01X437598Y417323D02*
G03X437598I-2362J0D01*
G01X438386Y448819D02*
G03X438386I-2362J0D01*
G01X438583Y468110D02*
G03X438583I-2363J0D01*
G01X432874Y449213D02*
G03X432874I-2362J0D01*
G01X431299Y456693D02*
G03X431299I-2362J0D01*
G01X439173Y494094D02*
G03X439173I-4134J0D01*
G01X420669Y434646D02*
G03X420669I-2362J0D01*
G01X425394Y449213D02*
G03X425394I-2363J0D01*
G01X432283Y510630D02*
G03X432283I-2362J0D01*
G01X427362Y479528D02*
G03X427362I-2362J0D01*
G01X425787Y488780D02*
G03X425787I-2362J0D01*
G01Y500984D02*
G03X425787I-2362J0D01*
G01X425394Y534646D02*
G03X425394I-2363J0D01*
G01X417323Y445669D02*
G03X417323I-2362J0D01*
G01Y457874D02*
G03X417323I-2362J0D01*
G01Y470079D02*
G03X417323I-2362J0D01*
G01Y483465D02*
G03X417323I-2362J0D01*
G01Y495669D02*
G03X417323I-2362J0D01*
G01Y507874D02*
G03X417323I-2362J0D01*
G01X591732Y524513D02*
G03X591486Y524643I-157J0D01*
G01X587837Y533546D02*
G03X591486Y524643I864J-4845D01*
G01X587837Y533546D02*
G03Y533856I-27J155D01*
G01X584643Y541486D02*
G03X587837Y533856I4058J-2785D01*
G01X584643Y541486D02*
G03X584513Y541732I-130J89D01*
G01X401888*
G03X401771Y541469I-0J-157*
G01X395932Y535631D02*
G03X401771Y541469I2769J3070D01*
G01X395932Y535631D02*
G03X395669Y535514I-105J-117D01*
G01Y531888*
G03X395932Y531771I158J-0*
G01Y525631D02*
G03Y531771I2769J3070D01*
G01Y525631D02*
G03X395669Y525514I-105J-117D01*
G01Y511888*
G03X395932Y511771I158J-0*
G01Y505631D02*
G03Y511771I2769J3070D01*
G01Y505631D02*
G03X395669Y505514I-105J-117D01*
G01Y501888*
G03X395932Y501771I158J-0*
G01Y495631D02*
G03Y501771I2769J3070D01*
G01Y495631D02*
G03X395669Y495514I-105J-117D01*
G01Y491888*
G03X395932Y491771I158J-0*
G01Y485631D02*
G03Y491771I2769J3070D01*
G01Y485631D02*
G03X395669Y485514I-105J-117D01*
G01Y481888*
G03X395932Y481771I158J-0*
G01Y475631D02*
G03Y481771I2769J3070D01*
G01Y475631D02*
G03X395669Y475514I-105J-117D01*
G01Y471888*
G03X395932Y471771I158J-0*
G01Y465631D02*
G03Y471771I2769J3070D01*
G01Y465631D02*
G03X395669Y465514I-105J-117D01*
G01Y461888*
G03X395932Y461771I158J-0*
G01Y455631D02*
G03Y461771I2769J3070D01*
G01Y455631D02*
G03X395669Y455514I-105J-117D01*
G01Y451888*
G03X395932Y451771I158J-0*
G01Y445631D02*
G03Y451771I2769J3070D01*
G01Y445631D02*
G03X395669Y445514I-105J-117D01*
G01Y441888*
G03X395932Y441771I158J-0*
G01Y435631D02*
G03Y441771I2769J3070D01*
G01Y435631D02*
G03X395669Y435514I-105J-117D01*
G01Y431888*
G03X395932Y431771I158J-0*
G01Y425631D02*
G03Y431771I2769J3070D01*
G01Y425631D02*
G03X395669Y425514I-105J-117D01*
G01Y421888*
G03X395932Y421771I158J-0*
G01Y415631D02*
G03Y421771I2769J3070D01*
G01Y415631D02*
G03X395669Y415514I-105J-117D01*
G01Y411888*
G03X395932Y411771I158J-0*
G01Y405631D02*
G03Y411771I2769J3070D01*
G01Y405631D02*
G03X395669Y405514I-105J-117D01*
G01Y401888*
G03X395932Y401771I158J-0*
G01X401771Y395932D02*
G03X395932Y401771I-3070J2769D01*
G01X401771Y395932D02*
G03X401888Y395669I117J-105D01*
G01X440343*
G03X440501Y395827I0J158*
X440475Y395913I-158J-0*
G01X445746D02*
G03X440475I-2636J1725D01*
G01X445746D02*
G03X445720Y395827I131J-86D01*
X445877Y395669I157J-0*
G01X451341*
G03X451458Y395932I-0J158*
G01X457597D02*
G03X451458I-3069J2769D01*
G01X457597D02*
G03X457714Y395669I117J-105D01*
G01X485438*
G03X485595Y395827I-0J158*
X485588Y395876I-157J-0*
G01X491578D02*
G03X485588I-2995J974D01*
G01X491578D02*
G03X491570Y395827I149J-49D01*
X491727Y395669I157J-0*
G01X557759*
G03X557889Y395915I0J158*
G01X557480Y397244D02*
G03X557889Y395915I2363J0D01*
G01X562205Y397244D02*
G03X557480I-2362J0D01*
G01X561796Y395915D02*
G03X562205Y397244I-1953J1329D01*
G01X561796Y395915D02*
G03X561926Y395669I130J-88D01*
G01X585514*
G03X585631Y395932I-0J158*
G01X591469Y401771D02*
G03X585631Y395932I-2768J-3070D01*
G01X591469Y401771D02*
G03X591732Y401888I106J117D01*
G01Y405514*
G03X591469Y405631I-157J-0*
G01Y411771D02*
G03Y405631I-2768J-3070D01*
G01Y411771D02*
G03X591732Y411888I106J117D01*
G01Y415514*
G03X591469Y415631I-157J-0*
G01Y421771D02*
G03Y415631I-2768J-3070D01*
G01Y421771D02*
G03X591732Y421888I106J117D01*
G01Y425514*
G03X591469Y425631I-157J-0*
G01Y431771D02*
G03Y425631I-2768J-3070D01*
G01Y431771D02*
G03X591732Y431888I106J117D01*
G01Y434513*
G03X591486Y434643I-157J0*
G01X587837Y443546D02*
G03X591486Y434643I864J-4845D01*
G01X587837Y443546D02*
G03Y443856I-27J155D01*
G01Y453546D02*
G03Y443856I864J-4845D01*
G01Y453546D02*
G03Y453856I-27J155D01*
G01Y463546D02*
G03Y453856I864J-4845D01*
G01Y463546D02*
G03Y463856I-27J155D01*
G01Y473546D02*
G03Y463856I864J-4845D01*
G01Y473546D02*
G03Y473856I-27J155D01*
G01Y483546D02*
G03Y473856I864J-4845D01*
G01Y483546D02*
G03Y483856I-27J155D01*
G01X591486Y492758D02*
G03X587837Y483856I-2785J-4057D01*
G01X591486Y492758D02*
G03X591732Y492888I89J130D01*
G01Y524513*
X584646Y414567D02*
G03X584646I-2363J0D01*
G01X574606Y407677D02*
G03X574606I-2362J0D01*
G01X577559Y421457D02*
G03X577559I-3150J0D01*
G01X563583D02*
G03X563583I-3150J0D01*
G01X567651Y426015D02*
G03X567388I-131J-87D01*
G01Y429497D02*
G03Y426015I-2624J-1741D01*
G01Y429497D02*
G03X567651I132J87D01*
G01Y426015D02*
G03Y429497I2625J1741D01*
G01X577559Y434055D02*
G03X577559I-3150J0D01*
G01X582283Y443307D02*
G03X582283I-3149J0D01*
G01X563583Y434055D02*
G03X563583I-3150J0D01*
G01X567651Y441566D02*
G03X567388I-131J-87D01*
G01Y445048D02*
G03Y441566I-2624J-1741D01*
G01Y445048D02*
G03X567651I132J87D01*
G01Y441566D02*
G03Y445048I2625J1741D01*
G01X573622Y451969D02*
G03X573622I-3150J0D01*
G01X579921Y456102D02*
G03X579921I-3149J0D01*
G01X579246Y461378D02*
G03X579021I-112J-110D01*
G01Y465787D02*
G03Y461378I-2249J-2204D01*
G01Y465787D02*
G03X579246I113J110D01*
G01Y461378D02*
G03Y465787I2250J2205D01*
G01X579921Y471457D02*
G03X579921I-3149J0D01*
G01X583268Y481102D02*
G03X583268I-3150J0D01*
G01X567323Y456102D02*
G03X567323I-3150J0D01*
G01X566835Y461388D02*
G03X566601Y461379I-113J-109D01*
G01X566433Y465580D02*
G03X566601Y461379I-2260J-2194D01*
G01X566433Y465580D02*
G03X566667Y465590I113J110D01*
G01X566835Y461388D02*
G03X566667Y465590I2259J2195D01*
G01X567913Y471457D02*
G03X567913I-3149J0D01*
G01X573622Y475591D02*
G03X573622I-3150J0D01*
G01X577362Y484843D02*
G03X577362I-3149J0D01*
G01X554436Y441110D02*
G03X554196Y441093I-113J-109D01*
G01X553728Y444838D02*
G03X554196Y441093I-1759J-2121D01*
G01X553728Y444838D02*
G03X553965Y444881I100J121D01*
G01X554436Y441110D02*
G03X553965Y444881I2257J2197D01*
G01X561417Y474606D02*
G03X561417I-2756J0D01*
G01X564173Y484843D02*
G03X564173I-3149J0D01*
G01X567454Y489401D02*
G03X567192I-131J-87D01*
G01Y492883D02*
G03Y489401I-2625J-1741D01*
G01Y492883D02*
G03X567454I131J87D01*
G01Y489401D02*
G03Y492883I2625J1741D01*
G01X577362Y497441D02*
G03X577362I-3149J0D01*
G01X582087Y504724D02*
G03X582087I-3150J0D01*
G01X576181Y531890D02*
G03X576181I-4921J0D01*
G01X564173Y497441D02*
G03X564173I-3149J0D01*
G01X541826Y411052D02*
G03X541639I-94J-127D01*
G01Y416114D02*
G03Y411052I-1875J-2531D01*
G01Y416114D02*
G03X541826I93J126D01*
G01Y411052D02*
G03Y416114I1875J2531D01*
G01X522835Y411024D02*
X522835D01*
X522152Y409363D02*
G03X522835Y411024I-1680J1661D01*
G01X522152Y409363D02*
G03Y409141I112J-111D01*
G01X522835Y407480D02*
G03X522152Y409141I-2363J0D01*
G01X522835Y407480D02*
X522835D01*
X522152Y405819D02*
G03X522835Y407480I-1680J1661D01*
G01X522152Y405819D02*
G03Y405598I112J-110D01*
G01X518793D02*
G03X522152I1679J-1661D01*
G01X518793D02*
G03Y405819I-112J111D01*
G01X518110Y407480D02*
G03X518793Y405819I2362J0D01*
G01X518110Y407480D02*
X518110D01*
X518793Y409141D02*
G03X518110Y407480I1679J-1661D01*
G01X518793Y409141D02*
G03Y409363I-112J111D01*
G01X522835Y411024D02*
G03X518793Y409363I-2363J-0D01*
G01X540514Y442296D02*
G03X540307Y442174I-52J-149D01*
G01X535985Y439813D02*
G03X540307Y442174I1220J2904D01*
G01X535985Y439813D02*
G03X535779Y439728I-61J-146D01*
G01X529969D02*
G03X535779I2905J1217D01*
G01X529969D02*
G03X529763Y439813I-145J-61D01*
G01X527324D02*
G03X529763I1219J2904D01*
G01X527324D02*
G03X527118Y439728I-61J-146D01*
G01X521832Y443007D02*
G03X527118Y439728I2381J-2062D01*
G01X521832Y443007D02*
G03Y443213I-119J103D01*
G01X527315Y445818D02*
G03X521832Y443213I-3102J-542D01*
G01X527315Y445818D02*
G03X527521Y445696I155J27D01*
G01X529565D02*
G03X527521I-1022J-2979D01*
G01X529565D02*
G03X529771Y445818I51J149D01*
G01X535977D02*
G03X529771I-3103J-542D01*
G01X535977D02*
G03X536183Y445696I155J27D01*
G01X538227D02*
G03X536183I-1022J-2979D01*
G01X538227D02*
G03X538433Y445818I51J149D01*
G01X540514Y442296D02*
G03X538433Y445818I1021J2980D01*
G01X547206Y474186D02*
G03X547000Y474064I-51J-149D01*
G01X542678Y471702D02*
G03X547000Y474064I1220J2904D01*
G01X542678Y471702D02*
G03X542472Y471618I-61J-145D01*
G01X536662D02*
G03X542472I2905J1217D01*
G01X536662D02*
G03X536456Y471702I-145J-61D01*
G01X534017D02*
G03X536456I1219J2904D01*
G01X534017D02*
G03X533811Y471618I-61J-145D01*
G01X528525Y474897D02*
G03X533811Y471618I2381J-2062D01*
G01X528525Y474897D02*
G03Y475103I-119J103D01*
G01X534008Y477707D02*
G03X528525Y475103I-3102J-542D01*
G01X534008Y477707D02*
G03X534214Y477586I155J28D01*
G01X536258D02*
G03X534214I-1022J-2980D01*
G01X536258D02*
G03X536464Y477707I51J149D01*
G01X542670D02*
G03X536464I-3103J-542D01*
G01X542670D02*
G03X542876Y477586I155J28D01*
G01X544919D02*
G03X542876I-1021J-2980D01*
G01X544919D02*
G03X545126Y477707I52J149D01*
G01X547206Y474186D02*
G03X545126Y477707I1022J2979D01*
G01X552362Y484843D02*
G03X552362I-3149J0D01*
G01X553710Y503713D02*
G03X553475Y503795I-149J-50D01*
G01X554479Y507239D02*
G03X553475Y503795I-2510J-1137D01*
G01X554479Y507239D02*
G03X554721Y507181I144J64D01*
G01X553710Y503713D02*
G03X554721Y507181I2983J1011D01*
G01X526575Y468898D02*
G03X526575I-2756J0D01*
G01X540514Y505682D02*
G03X540307Y505560I-52J-149D01*
G01X535985Y503198D02*
G03X540307Y505560I1220J2904D01*
G01X535985Y503198D02*
G03X535779Y503114I-61J-145D01*
G01X529969D02*
G03X535779I2905J1217D01*
G01X529969D02*
G03X529763Y503198I-145J-61D01*
G01X527324D02*
G03X529763I1219J2904D01*
G01X527324D02*
G03X527118Y503114I-61J-145D01*
G01X521832Y506393D02*
G03X527118Y503114I2381J-2062D01*
G01X521832Y506393D02*
G03Y506599I-119J103D01*
G01X527315Y509203D02*
G03X521832Y506599I-3102J-542D01*
G01X527315Y509203D02*
G03X527521Y509082I155J28D01*
G01X529565D02*
G03X527521I-1022J-2980D01*
G01X529565D02*
G03X529771Y509203I51J149D01*
G01X535977D02*
G03X529771I-3103J-542D01*
G01X535977D02*
G03X536183Y509082I155J28D01*
G01X538227D02*
G03X536183I-1022J-2980D01*
G01X538227D02*
G03X538433Y509203I51J149D01*
G01X540514Y505682D02*
G03X538433Y509203I1021J2979D01*
G01X541826Y519910D02*
G03X541639I-94J-126D01*
G01Y524972D02*
G03Y519910I-1875J-2531D01*
G01Y524972D02*
G03X541826I93J126D01*
G01Y519910D02*
G03Y524972I1875J2531D01*
G01X538780Y532480D02*
G03X538780I-2363J0D01*
G01X526378Y522047D02*
G03X526378I-2362J0D01*
G01X520079Y437402D02*
G03X520079I-2756J0D01*
G01X519882Y500394D02*
G03X519882I-2756J0D01*
G01X519685Y521260D02*
G03X519685I-2362J0D01*
G01X499450Y401772D02*
G03X499253Y401710I-63J-145D01*
G01X494882Y402953D02*
G03X499253Y401710I2362J-0D01*
G01X498188Y405118D02*
G03X494882Y402953I-944J-2165D01*
G01X498188Y405118D02*
G03X498385Y405180I63J145D01*
G01X499450Y401772D02*
G03X498385Y405180I944J2165D01*
G01X505715Y408470D02*
G03X505506I-105J-118D01*
G01Y412002D02*
G03Y408470I-1569J-1766D01*
G01Y412002D02*
G03X505715I104J118D01*
G01Y408470D02*
G03Y412002I1568J1766D01*
G01X508465Y416339D02*
G03X508465I-2363J0D01*
G01X501772Y418898D02*
G03X501772I-2756J0D01*
G01X503543Y433465D02*
G03X503543I-2756J0D01*
G01X502165Y449016D02*
G03X502165I-2756J0D01*
G01X503740Y462402D02*
G03X503740I-2362J0D01*
G01X504134Y470276D02*
G03X504134I-2362J0D01*
G01X502533Y481133D02*
G03X502324Y481059I-68J-143D01*
G01X499922Y479740D02*
G03X502324Y481059I275J2347D01*
G01X499922Y479740D02*
G03X499750Y479617I-19J-156D01*
G01X497716Y482464D02*
G03X499749Y479617I-275J-2346D01*
G01X497716Y482464D02*
G03X497888Y482587I18J157D01*
G01X501207Y484222D02*
G03X497888Y482587I-1010J-2135D01*
G01X501207Y484222D02*
G03X501416Y484296I68J142D01*
G01X502533Y481133D02*
G03X501416Y484296I1010J2135D01*
G01X506102Y490551D02*
G03X506102I-2362J0D01*
G01X506750Y507888D02*
G03X506614Y507691I17J-157D01*
G01X506693Y507087D02*
G03X506614Y507691I-2362J-0D01*
G01X506693Y507087D02*
X506693D01*
X504077Y509435D02*
G03X506693Y507087I254J-2348D01*
G01X504077Y509435D02*
G03X504212Y509632I-17J157D01*
G01X504134Y510236D02*
G03X504212Y509632I2362J0D01*
G01X504134Y510236D02*
X504134D01*
X506750Y507888D02*
G03X504134Y510236I-254J2348D01*
G01X510630Y532677D02*
G03X510630I-2362J0D01*
G01X505118Y523819D02*
G03X505118I-2362J0D01*
G01X494291Y420472D02*
G03X494291I-2756J0D01*
G01X494095Y432677D02*
G03X494095I-2756J0D01*
G01X493504Y444488D02*
G03X493504I-2756J0D01*
G01X484658Y463780D02*
G03X483858Y462008I1562J-1772D01*
G01X484658Y463780D02*
G03X484646Y464026I-104J118D01*
G01X483661Y465945D02*
G03X484646Y464026I2363J-0D01*
G01X488386Y465945D02*
G03X483661I-2362J-0D01*
G01X487586Y464173D02*
G03X488386Y465945I-1562J1772D01*
G01X487586Y464173D02*
G03X487598Y463927I104J-118D01*
G01X483858Y462008D02*
G03X487598Y463927I2362J-0D01*
G01X483465Y527953D02*
G03X483465I-2363J0D01*
G01X467717Y464764D02*
X467717D01*
Y464805D02*
G03Y464764I2362J-41D01*
G01Y464805D02*
G03Y464808I-158J3D01*
G01X467717*
G03X467569Y464965I-158J0*
G01X465548Y466386D02*
G03X467569Y464965I2169J937D01*
G01X465548Y466386D02*
G03X465351Y466472I-145J-62D01*
G01X462723Y470177D02*
G03X465351Y466472I1844J-1476D01*
G01X462723Y470177D02*
G03X462698Y470399I-123J99D01*
G01X463854Y474585D02*
G03X462698Y470399I319J-2341D01*
G01X463854Y474585D02*
G03X463989Y474757I-22J156D01*
G01X463976Y475000D02*
G03X463989Y474757I2363J-0D01*
G01X466658Y472660D02*
G03X463976Y475000I-319J2340D01*
G01X466658Y472659D02*
G03X466523Y472487I22J-156D01*
G01X466535Y472244D02*
G03X466523Y472487I-2362J0D01*
G01X466017Y470768D02*
G03X466535Y472244I-1844J1476D01*
G01X466017Y470768D02*
G03X466042Y470546I123J-99D01*
G01X466736Y469637D02*
G03X466042Y470546I-2169J-936D01*
G01X466736Y469637D02*
G03X466932Y469551I144J63D01*
G01X470079Y467323D02*
G03X466932Y469551I-2362J-0D01*
G01X470079Y467323D02*
X470079D01*
X470078Y467281D02*
G03X470079Y467323I-2361J42D01*
G01X470078Y467281D02*
G03Y467279I158J-2D01*
G01X470078*
G03X470226Y467121I158J-0*
G01X467717Y464764D02*
G03X470226Y467121I2362J-0D01*
G01X477165Y528346D02*
X477165D01*
X476483Y526686D02*
G03X477165Y528346I-1680J1660D01*
G01X476483Y526686D02*
G03Y526464I112J-111D01*
G01X477165Y524803D02*
G03X476483Y526464I-2362J0D01*
G01X477165Y524803D02*
X477165D01*
X476483Y523142D02*
G03X477165Y524803I-1680J1661D01*
G01X476483Y523142D02*
G03Y522921I112J-111D01*
G01X473123D02*
G03X476483I1680J-1661D01*
G01X473123D02*
G03Y523142I-112J110D01*
G01X472441Y524803D02*
G03X473123Y523142I2362J0D01*
G01X472441Y524803D02*
X472441D01*
X473123Y526464D02*
G03X472441Y524803I1680J-1661D01*
G01X473123Y526464D02*
G03Y526686I-112J111D01*
G01X477165Y528346D02*
G03X473123Y526686I-2362J0D01*
G01X465551Y399606D02*
G03X465551I-3149J0D01*
G01X464173Y410827D02*
G03X464173I-2362J0D01*
G01X447663Y420032D02*
G03X447665Y420055I-155J23D01*
G01X447665*
G03X447430Y420192I-157J0*
G01X444440Y423750D02*
G03X447430Y420192I1820J-1506D01*
G01X444440Y423750D02*
G03X444378Y423996I-122J100D01*
G01X442913Y426181D02*
G03X444378Y423996I2363J0D01*
G01X447470Y427055D02*
G03X442913Y426181I-2194J-874D01*
G01X447470Y427055D02*
G03X447679Y426969I146J58D01*
G01X448769Y422446D02*
G03X447679Y426969I-147J2357D01*
G01X448769Y422446D02*
G03X448622Y422288I10J-158D01*
G01X448622*
G03Y422286I157J0*
G01Y422244D02*
G03Y422286I-2362J0D01*
G01Y422244D02*
X448622D01*
X448596Y421897D02*
G03X448622Y422244I-2336J347D01*
G01X448596Y421897D02*
G03X448595Y421874I156J-23D01*
G01X448595*
G03X448830Y421737I157J0*
G01X447663Y420032D02*
G03X448830Y421737I2337J-347D01*
G01X448522Y431236D02*
G03X448313Y431273I-125J-96D01*
G01X448919Y434709D02*
G03X448313Y431273I-1872J-1441D01*
G01X448919Y434709D02*
G03X449128Y434672I125J96D01*
G01X448522Y431236D02*
G03X449128Y434672I1872J1441D01*
G01X453937Y480512D02*
G03X453937I-2362J0D01*
G01X452987Y494242D02*
G03Y493947I55J-148D01*
G01Y489518D02*
G03Y493947I-822J2214D01*
G01Y489518D02*
G03Y489222I55J-148D01*
G01X451343D02*
G03X452987I822J-2214D01*
G01X451343D02*
G03Y489518I-55J148D01*
G01Y493947D02*
G03Y489518I822J-2215D01*
G01Y493947D02*
G03Y494242I-55J147D01*
G01X452987D02*
G03X451343I-822J2215D01*
G01X458969Y515249D02*
G03X458748I-111J-112D01*
G01X458464Y515010D02*
G03X458748Y515249I-1377J1919D01*
G01X458464Y515010D02*
G03X458452Y514764I92J-128D01*
G01X459252Y512992D02*
G03X458452Y514764I-2362J0D01*
G01X454528Y512992D02*
G03X459252I2362J0D01*
G01X455512Y514911D02*
G03X454528Y512992I1378J-1919D01*
G01X455512Y514911D02*
G03X455524Y515157I-92J128D01*
G01X454724Y516929D02*
G03X455525Y515157I2363J0D01*
G01X458748Y518609D02*
G03X454724Y516929I-1661J-1680D01*
G01X458748Y518609D02*
G03X458969I110J112D01*
G01Y515249D02*
G03Y518609I1661J1680D01*
G01X467717Y523031D02*
G03X467717I-2363J0D01*
G01X453543Y509843D02*
G03X453543I-2362J0D01*
G01X457283Y531890D02*
G03X457283I-2362J0D01*
G01X437598Y417323D02*
G03X437598I-2362J0D01*
G01X439586Y430128D02*
G03X439443Y429971I14J-157D01*
X439463Y429894I157J0*
G01X435039Y428740D02*
G03X439463Y429894I2363J0D01*
G01X437186Y431093D02*
G03X435039Y428740I216J-2353D01*
G01X437186Y431093D02*
G03X437309Y431326I-14J156D01*
G01X437155Y431660D02*
G03X437309Y431326I2215J820D01*
G01X437155Y431660D02*
G03X436970Y431759I-148J-55D01*
G01X434055Y434055D02*
G03X436970Y431759I2362J0D01*
G01X434055Y434055D02*
X434055D01*
X434108Y434552D02*
G03X434055Y434055I2309J-497D01*
G01X434108Y434552D02*
G03X433997Y434736I-154J33D01*
G01X432283Y437008D02*
G03X433997Y434736I2363J-0D01*
G01X437008Y437008D02*
G03X432283I-2362J-0D01*
G01X437008D02*
X437008D01*
X436955Y436511D02*
G03X437008Y437008I-2309J497D01*
G01X436955Y436511D02*
G03X437066Y436327I154J-33D01*
G01X438633Y434875D02*
G03X437066Y436327I-2216J-820D01*
G01X438633Y434875D02*
G03X438817Y434777I147J55D01*
G01X439586Y430128D02*
G03X438817Y434777I-216J2352D01*
G01X438386Y448819D02*
G03X438386I-2362J0D01*
G01X438583Y468110D02*
G03X438583I-2363J0D01*
G01X426550Y439577D02*
G03X426377Y439421I-15J-156D01*
G01X426377*
G03Y439417I158J-0*
G01X426378Y439370D02*
G03X426377Y439417I-2362J0D01*
G01X424238Y441722D02*
G03X426378Y439370I-222J-2352D01*
G01X424238Y441722D02*
G03X424410Y441879I14J157D01*
G01X424410*
G03Y441882I-158J-0*
G01X424409Y441929D02*
G03X424410Y441882I2363J0D01*
G01X426550Y439577D02*
G03X424409Y441929I222J2352D01*
G01X432874Y449213D02*
G03X432874I-2362J0D01*
G01X431299Y456693D02*
G03X431299I-2362J0D01*
G01X439115Y485644D02*
G03X438950Y485436I-17J-157D01*
G01X436784Y487842D02*
G03X438950Y485436I-1745J-3748D01*
G01X436784Y487842D02*
G03X437008Y487985I66J143D01*
G01Y487992*
X439115Y485644D02*
G03X437008Y487992I255J2348D01*
G01X439173Y494094D02*
G03X439173I-4134J0D01*
G01X440652Y510213D02*
G03X440615Y509942I59J-146D01*
G01X439081Y505710D02*
G03X440615Y509942I92J2361D01*
G01X439081Y505710D02*
G03X438927Y505500I-6J-157D01*
G01X439173Y504094D02*
G03X438927Y505500I-4134J0D01*
G01X436594Y507925D02*
G03X439173Y504094I-1555J-3831D01*
G01X436594Y507925D02*
G03X436811Y508071I60J146D01*
G01X436811*
X438285Y510260D02*
G03X436811Y508071I888J-2189D01*
G01X438285Y510260D02*
G03X438322Y510530I-59J146D01*
G01X440652Y510213D02*
G03X438322Y510530I-888J2189D01*
G01X420669Y434646D02*
G03X420669I-2362J0D01*
G01X425394Y449213D02*
G03X425394I-2363J0D01*
G01X425984Y464567D02*
X425984D01*
X425302Y462906D02*
G03X425984Y464567I-1680J1661D01*
G01X425302Y462906D02*
G03Y462685I112J-111D01*
G01X421942D02*
G03X425302I1680J-1661D01*
G01X421942D02*
G03Y462906I-112J110D01*
G01X425984Y464567D02*
G03X421942Y462906I-2362J-0D01*
G01X426254Y473788D02*
G03X425970Y473694I-127J-94D01*
G01X425970*
G03X425971Y473677I157J-0*
G01X425984Y473425D02*
G03X425971Y473677I-2362J0D01*
G01X425518Y474834D02*
G03X425984Y473425I-1896J-1409D01*
G01X425518Y474834D02*
G03X425802Y474928I126J94D01*
G01X425802*
G03X425801Y474945I-158J0*
G01X425787Y475197D02*
G03X425801Y474945I2363J-0D01*
G01X426254Y473788D02*
G03X425787Y475197I1896J1409D01*
G01X432283Y510630D02*
G03X432283I-2362J0D01*
G01X427362Y479528D02*
G03X427362I-2362J0D01*
G01X425787Y488780D02*
G03X425787I-2362J0D01*
G01Y500984D02*
G03X425787I-2362J0D01*
G01X425394Y534646D02*
G03X425394I-2363J0D01*
G01X417323Y445669D02*
G03X417323I-2362J0D01*
G01Y457874D02*
G03X417323I-2362J0D01*
G01Y470079D02*
G03X417323I-2362J0D01*
G01Y483465D02*
G03X417323I-2362J0D01*
G01Y495669D02*
G03X417323I-2362J0D01*
G01Y507874D02*
G03X417323I-2362J0D01*
G01X589931Y523936D02*
X591732D01*
X546751Y523227D02*
X591732D01*
X546849Y522518D02*
X591732D01*
X546787Y521810D02*
X591732D01*
X546551Y521101D02*
X591732D01*
X546093Y520392D02*
X591732D01*
X545223Y519684D02*
X591732D01*
X517923Y518975D02*
X591732D01*
X462577Y518266D02*
X591732D01*
X462907Y517558D02*
X591732D01*
X462991Y516849D02*
X591732D01*
X462857Y516140D02*
X591732D01*
X462457Y515432D02*
X591732D01*
X461475Y514723D02*
X591732D01*
X459019Y514014D02*
X591732D01*
X459231Y513306D02*
X591732D01*
X506575Y512597D02*
X591732D01*
X508184Y511888D02*
X591732D01*
X543427Y511180D02*
X591732D01*
X544113Y510471D02*
X591732D01*
X544486Y509762D02*
X591732D01*
X544661Y509054D02*
X591732D01*
X553570Y508345D02*
X591732D01*
X580137Y507637D02*
X591732D01*
X581188Y506928D02*
X591732D01*
X581709Y506219D02*
X591732D01*
X581987Y505511D02*
X591732D01*
X582086Y504802D02*
X591732D01*
X582023Y504093D02*
X591732D01*
X581787Y503385D02*
X591732D01*
X581329Y502676D02*
X591732D01*
X580460Y501967D02*
X591732D01*
X533568Y501259D02*
X591732D01*
X574717Y500550D02*
X591732D01*
X576252Y499841D02*
X591732D01*
X576869Y499133D02*
X591732D01*
X577205Y498424D02*
X591732D01*
X577350Y497715D02*
X591732D01*
X577332Y497007D02*
X591732D01*
X577148Y496298D02*
X591732D01*
X576760Y495589D02*
X591732D01*
X576047Y494881D02*
X591732D01*
X570938Y494172D02*
X591732D01*
X589941Y493463D02*
X591732D01*
X589931Y433936D02*
X591732D01*
X577448Y433227D02*
X591732D01*
X590287Y432518D02*
X591732D01*
X591231Y425432D02*
X591732D01*
X589826Y424723D02*
X591732D01*
X576247Y424014D02*
X591732D01*
X576959Y423306D02*
X591732D01*
X590082Y422597D02*
X591732D01*
X591333Y421888D02*
X591732D01*
X591330Y415511D02*
X591732D01*
X590075Y414802D02*
X591732D01*
X584598Y414093D02*
X591732D01*
X584328Y413385D02*
X591732D01*
X589836Y412676D02*
X591732D01*
X591234Y411967D02*
X591732D01*
X590280Y404881D02*
X591732D01*
X522823Y404172D02*
X591732D01*
X522787Y403463D02*
X591732D01*
X589510Y402755D02*
X591732D01*
X591130Y402046D02*
X591732D01*
X591422Y405589D02*
X591713D01*
X591425Y431810D02*
X591712D01*
X591487Y524644D02*
X591662D01*
X591487Y434644D02*
X591662D01*
X591491Y492755D02*
X591658D01*
X584644Y463699D02*
X587967D01*
X578897Y453778D02*
X587947D01*
X579060Y473621D02*
X587945D01*
X522517Y402755D02*
X587891D01*
X575771Y533857D02*
X587831D01*
X582235Y443857D02*
X587831D01*
X582110Y483542D02*
X587817D01*
X571126Y424723D02*
X587575D01*
X583699Y412676D02*
X587566D01*
X546473Y523936D02*
X587471D01*
X577557Y433936D02*
X587471D01*
X572207Y493463D02*
X587461D01*
X584634Y414802D02*
X587327D01*
X577345Y422597D02*
X587320D01*
X522638Y404881D02*
X587121D01*
X577159Y432518D02*
X587115D01*
X580209Y484251D02*
X586599D01*
X576017Y533148D02*
X586594D01*
X582279Y443148D02*
X586594D01*
X578063Y474329D02*
X586440D01*
X577622Y453070D02*
X586435D01*
X584536Y464408D02*
X586294D01*
X584590Y462991D02*
X586289D01*
X521888Y402046D02*
X586272D01*
X572401Y425432D02*
X586170D01*
X546405Y411967D02*
X586167D01*
X579475Y454487D02*
X586159D01*
X579565Y472912D02*
X586154D01*
X584449Y415511D02*
X586072D01*
X577529Y421888D02*
X586069D01*
X575390Y534566D02*
X586033D01*
X582021Y444566D02*
X586033D01*
X582749Y482833D02*
X586029D01*
X573349Y405589D02*
X585979D01*
X576618Y431810D02*
X585976D01*
X545951Y524644D02*
X585914D01*
X577503Y434644D02*
X585914D01*
X572784Y492755D02*
X585911D01*
X498968Y401337D02*
X585517D01*
X577360Y484959D02*
X585504D01*
X576150Y532440D02*
X585501D01*
X582162Y442440D02*
X585501D01*
X572979Y426140D02*
X585455D01*
X545826Y411259D02*
X585453D01*
X573573Y475038D02*
X585414D01*
X573598Y452361D02*
X585411D01*
X583972Y416219D02*
X585395D01*
X577547Y421180D02*
X585393D01*
X574162Y406298D02*
X585337D01*
X575502Y431101D02*
X585335D01*
X584247Y465117D02*
X585328D01*
X584365Y462282D02*
X585325D01*
X562040Y396377D02*
X585282D01*
X579788Y455196D02*
X585246D01*
X579831Y472203D02*
X585244D01*
X574833Y535274D02*
X585168D01*
X581594Y445274D02*
X585168D01*
X583097Y482125D02*
X585166D01*
X544901Y525353D02*
X585094D01*
X577279Y435353D02*
X585094D01*
X573096Y492046D02*
X585091D01*
X497667Y400629D02*
X585044D01*
X573292Y426849D02*
X585005D01*
X544551Y410550D02*
X585004D01*
X582362Y416928D02*
X584966D01*
X577401Y420471D02*
X584965D01*
X574509Y407007D02*
X584930D01*
X571999Y430392D02*
X584929D01*
X562199Y397085D02*
X584896D01*
X577252Y485668D02*
X584825D01*
X576179Y531731D02*
X584823D01*
X581861Y441731D02*
X584823D01*
X573618Y475747D02*
X584765D01*
X573606Y451652D02*
X584763D01*
X489288Y399920D02*
X584751D01*
X573419Y427558D02*
X584728D01*
X573191Y409841D02*
X584727D01*
X583707Y465825D02*
X584707D01*
X508076Y417637D02*
X584706D01*
X577065Y419762D02*
X584706D01*
X583922Y461574D02*
X584705D01*
X574606Y407715D02*
X584686D01*
X572766Y429684D02*
X584685D01*
X562140Y397794D02*
X584668D01*
X579915Y455904D02*
X584651D01*
X401751Y541652D02*
X584651D01*
X579921Y471495D02*
X584650D01*
X561150Y399211D02*
X584599D01*
X573992Y535983D02*
X584598D01*
X580795Y445983D02*
X584598D01*
X583252Y481416D02*
X584596D01*
X573384Y428266D02*
X584590D01*
X574105Y409133D02*
X584590D01*
X574898Y418345D02*
X584582D01*
X576446Y419054D02*
X584582D01*
X574485Y408424D02*
X584576D01*
X573180Y428975D02*
X584576D01*
X561842Y398503D02*
X584572D01*
X503497Y526062D02*
X584547D01*
X576837Y436062D02*
X584547D01*
X573222Y491337D02*
X584545D01*
X576963Y486377D02*
X584363D01*
X576104Y531022D02*
X584361D01*
X581302Y441022D02*
X584361D01*
X573501Y476455D02*
X584322D01*
X402173Y540944D02*
X584320D01*
X573451Y450944D02*
X584320D01*
X582596Y466534D02*
X584282D01*
X583088Y460865D02*
X584281D01*
X579880Y456613D02*
X584244D01*
X579849Y470786D02*
X584243D01*
X572337Y536692D02*
X584208D01*
X544349Y446692D02*
X584208D01*
X583243Y480707D02*
X584207D01*
X483147Y526770D02*
X584174D01*
X576006Y436770D02*
X584174D01*
X573186Y490629D02*
X584173D01*
X576424Y487085D02*
X584052D01*
X575922Y530314D02*
X584051D01*
X580113Y440314D02*
X584051D01*
X573201Y477164D02*
X584026D01*
X402539Y540235D02*
X584025D01*
X573102Y450235D02*
X584025D01*
X526023Y467243D02*
X584000D01*
X502112Y460156D02*
X584000D01*
X579676Y457322D02*
X583977D01*
X579603Y470077D02*
X583976D01*
X402625Y537400D02*
X583954D01*
X543860Y447400D02*
X583954D01*
X583068Y479999D02*
X583954D01*
X573443Y527479D02*
X583934D01*
X520078Y437479D02*
X583934D01*
X572982Y489920D02*
X583933D01*
X575312Y487794D02*
X583864D01*
X575619Y529605D02*
X583863D01*
X537693Y439605D02*
X583863D01*
X572643Y477873D02*
X583850D01*
X402751Y539526D02*
X583849D01*
X572461Y449526D02*
X583849D01*
X526407Y467951D02*
X583837D01*
X425382Y459448D02*
X583836D01*
X579262Y458030D02*
X583825D01*
X579130Y469369D02*
X583825D01*
X402792Y538109D02*
X583815D01*
X542911Y448109D02*
X583815D01*
X582694Y479290D02*
X583815D01*
X574502Y528188D02*
X583806D01*
X534397Y438188D02*
X583806D01*
X572567Y489211D02*
X583806D01*
X571798Y488503D02*
X583783D01*
X575166Y528896D02*
X583783D01*
X535266Y438896D02*
X583783D01*
X582006Y478581D02*
X583781D01*
X402833Y538818D02*
X583781D01*
X502158Y448818D02*
X583781D01*
X578221Y468660D02*
X583780D01*
X578495Y458739D02*
X583780D01*
X508390Y416928D02*
X582205D01*
X546717Y412676D02*
X580868D01*
X545424Y416219D02*
X580595D01*
X577871Y466534D02*
X580397D01*
X546844Y413385D02*
X580238D01*
X546191Y415511D02*
X580118D01*
X577306Y484251D02*
X580027D01*
X546809Y414093D02*
X579969D01*
X546605Y414802D02*
X579933D01*
X578363Y460865D02*
X579904D01*
X578983Y465825D02*
X579285D01*
X571460Y478581D02*
X578230D01*
X571255Y440314D02*
X578154D01*
X577081Y483542D02*
X578126D01*
X557893Y507637D02*
X577737D01*
X550553Y479290D02*
X577542D01*
X576638Y482833D02*
X577487D01*
X571937Y445983D02*
X577473D01*
X558215Y501967D02*
X577415D01*
X549604Y479999D02*
X577168D01*
X575804Y482125D02*
X577139D01*
X502115Y480707D02*
X576993D01*
X505010Y481416D02*
X576984D01*
X572444Y441022D02*
X576966D01*
X558943Y506928D02*
X576686D01*
X572735Y445274D02*
X576674D01*
X559085Y502676D02*
X576545D01*
X573003Y441731D02*
X576407D01*
X573163Y444566D02*
X576247D01*
X559465Y506219D02*
X576165D01*
X573303Y442440D02*
X576106D01*
X559543Y503385D02*
X576087D01*
X573377Y443857D02*
X576033D01*
X573421Y443148D02*
X575988D01*
X573423Y453070D02*
X575922D01*
X559743Y505511D02*
X575887D01*
X559779Y504093D02*
X575851D01*
X559842Y504802D02*
X575788D01*
X570194Y466534D02*
X575672D01*
X573359Y474329D02*
X575480D01*
X566213Y468660D02*
X575323D01*
X570686Y460865D02*
X575180D01*
X565896Y458739D02*
X575049D01*
X573050Y453778D02*
X574646D01*
X571306Y465825D02*
X574560D01*
X572930Y473621D02*
X574483D01*
X567122Y469369D02*
X574414D01*
X571520Y461574D02*
X574346D01*
X566664Y458030D02*
X574281D01*
X572364Y454487D02*
X574068D01*
X571845Y465117D02*
X574021D01*
X572130Y472912D02*
X573978D01*
X567595Y470077D02*
X573940D01*
X560921Y418345D02*
X573921D01*
X571963Y462282D02*
X573903D01*
X567077Y457322D02*
X573868D01*
X567189Y455196D02*
X573755D01*
X572134Y464408D02*
X573732D01*
X567824Y472203D02*
X573712D01*
X561528Y500550D02*
X573708D01*
X567841Y470786D02*
X573694D01*
X572188Y462991D02*
X573678D01*
X567281Y456613D02*
X573664D01*
X567317Y455904D02*
X573628D01*
X572242Y463699D02*
X573624D01*
X567913Y471495D02*
X573622D01*
X561526Y431101D02*
X573317D01*
X562123Y487794D02*
X573113D01*
X562029Y436770D02*
X572813D01*
X562615Y482125D02*
X572621D01*
X562271Y424014D02*
X572572D01*
X562858Y494881D02*
X572378D01*
X562469Y419054D02*
X572373D01*
X562642Y431810D02*
X572201D01*
X563063Y499841D02*
X572173D01*
X563235Y487085D02*
X572001D01*
X562861Y436062D02*
X571982D01*
X562983Y423306D02*
X571860D01*
X563449Y482833D02*
X571787D01*
X563088Y419762D02*
X571754D01*
X563571Y495589D02*
X571665D01*
X563182Y432518D02*
X571660D01*
X563680Y499133D02*
X571556D01*
X563303Y435353D02*
X571540D01*
X563369Y422597D02*
X571474D01*
X563774Y486377D02*
X571462D01*
X563425Y420471D02*
X571418D01*
X563472Y433227D02*
X571371D01*
X563892Y483542D02*
X571344D01*
X563527Y434644D02*
X571315D01*
X522517Y409841D02*
X571297D01*
X563553Y421888D02*
X571290D01*
X563959Y496298D02*
X571278D01*
X563571Y421180D02*
X571272D01*
X563580Y433936D02*
X571262D01*
X564016Y498424D02*
X571220D01*
X564063Y485668D02*
X571173D01*
X522161Y405589D02*
X571139D01*
X564117Y484251D02*
X571119D01*
X564143Y497007D02*
X571093D01*
X564161Y497715D02*
X571075D01*
X564171Y484959D02*
X571065D01*
X522161Y409133D02*
X570383D01*
X522517Y406298D02*
X570326D01*
X424212Y536692D02*
X570182D01*
X522638Y408424D02*
X570003D01*
X522787Y407007D02*
X569979D01*
X522823Y407715D02*
X569882D01*
X551042Y478581D02*
X569485D01*
X565614Y424723D02*
X569426D01*
X565743Y440314D02*
X569296D01*
X565426Y494172D02*
X569220D01*
X483417Y527479D02*
X569077D01*
X567557Y472912D02*
X568815D01*
X566425Y445983D02*
X568614D01*
X566877Y454487D02*
X568581D01*
X566487Y430392D02*
X568553D01*
X424979Y535983D02*
X568528D01*
X502118Y449526D02*
X568484D01*
X566286Y488503D02*
X568360D01*
X551298Y477873D02*
X568302D01*
X566889Y425432D02*
X568150D01*
X566932Y441022D02*
X568108D01*
X483453Y528188D02*
X568017D01*
X567052Y473621D02*
X568015D01*
X564264Y466534D02*
X567995D01*
X566695Y493463D02*
X567950D01*
X566299Y453778D02*
X567895D01*
X501881Y450235D02*
X567843D01*
X567224Y445274D02*
X567816D01*
X567254Y429684D02*
X567785D01*
X559688Y477164D02*
X567744D01*
X425309Y535274D02*
X567687D01*
X567056Y489211D02*
X567590D01*
X566055Y474329D02*
X567586D01*
X565023Y453070D02*
X567522D01*
X566061Y460865D02*
X567503D01*
X501379Y450944D02*
X567494D01*
X560705Y476455D02*
X567444D01*
X561383Y475038D02*
X567372D01*
X483268Y528896D02*
X567354D01*
X400622Y452361D02*
X567347D01*
X500212Y451652D02*
X567339D01*
X561170Y475747D02*
X567327D01*
X537527Y534566D02*
X567130D01*
X482791Y529605D02*
X566901D01*
X566165Y465825D02*
X566883D01*
X538337Y533857D02*
X566749D01*
X537358Y530314D02*
X566598D01*
X538683Y533148D02*
X566502D01*
X538276Y531022D02*
X566416D01*
X538779Y532440D02*
X566369D01*
X538658Y531731D02*
X566341D01*
X525236Y466534D02*
X564082D01*
X450983Y424723D02*
X563914D01*
X557673Y440314D02*
X563784D01*
X452905Y494172D02*
X563708D01*
X561403Y474329D02*
X563472D01*
X395669Y453070D02*
X563323D01*
X526565Y468660D02*
X563315D01*
X558354Y445983D02*
X563102D01*
X492880Y430392D02*
X563041D01*
X504916Y488503D02*
X562848D01*
X450899Y425432D02*
X562638D01*
X558861Y441022D02*
X562596D01*
X561235Y473621D02*
X562475D01*
X430118Y458739D02*
X562450D01*
X453773Y493463D02*
X562438D01*
X526534Y469369D02*
X562406D01*
X559153Y445274D02*
X562304D01*
X503172Y460865D02*
X562285D01*
X439567Y429684D02*
X562273D01*
X488383Y465825D02*
X562181D01*
X505686Y489211D02*
X562078D01*
X450569Y426140D02*
X562060D01*
X395669Y453778D02*
X562048D01*
X559420Y441731D02*
X562037D01*
X560835Y472912D02*
X561971D01*
X541089Y470077D02*
X561932D01*
X559580Y444566D02*
X561877D01*
X504592Y492755D02*
X561862D01*
X439752Y428975D02*
X561860D01*
X449803Y426849D02*
X561748D01*
X559721Y442440D02*
X561736D01*
X560011Y472203D02*
X561704D01*
X541959Y470786D02*
X561686D01*
X430884Y458030D02*
X561683D01*
X506016Y489920D02*
X561664D01*
X559794Y443857D02*
X561663D01*
X446385Y428266D02*
X561656D01*
X447195Y427558D02*
X561620D01*
X559839Y443148D02*
X561618D01*
X544386Y471495D02*
X561614D01*
X503590Y461574D02*
X561597D01*
X505569Y492046D02*
X561550D01*
X488236Y465117D02*
X561542D01*
X429782Y454487D02*
X561469D01*
X506101Y490629D02*
X561459D01*
X505968Y491337D02*
X561423D01*
X431214Y457322D02*
X561269D01*
X503737Y462282D02*
X561223D01*
X502624Y464408D02*
X561194D01*
X430764Y455196D02*
X561157D01*
X431298Y456613D02*
X561065D01*
X503666Y462991D02*
X561048D01*
X503352Y463699D02*
X561039D01*
X431164Y455904D02*
X561030D01*
X519877Y500550D02*
X560519D01*
X507349Y418345D02*
X559945D01*
X550312Y487794D02*
X559924D01*
X550804Y482125D02*
X559432D01*
X502205Y431101D02*
X559340D01*
X453925Y494881D02*
X559189D01*
X519826Y499841D02*
X558984D01*
X520006Y436770D02*
X558837D01*
X551424Y487085D02*
X558812D01*
X551638Y482833D02*
X558598D01*
X450849Y424014D02*
X558595D01*
X490667Y399211D02*
X558535D01*
X454363Y495589D02*
X558476D01*
X501767Y419054D02*
X558397D01*
X519576Y499133D02*
X558367D01*
X551963Y486377D02*
X558273D01*
X502991Y431810D02*
X558224D01*
X552081Y483542D02*
X558155D01*
X454522Y496298D02*
X558089D01*
X519053Y498424D02*
X558031D01*
X519731Y436062D02*
X558005D01*
X552252Y485668D02*
X557984D01*
X552306Y484251D02*
X557930D01*
X454463Y497007D02*
X557904D01*
X517775Y497715D02*
X557886D01*
X450449Y423306D02*
X557883D01*
X552360Y484959D02*
X557876D01*
X491264Y398503D02*
X557843D01*
X501632Y419762D02*
X557778D01*
X503376Y432518D02*
X557684D01*
X491696Y396377D02*
X557645D01*
X551378Y477164D02*
X557635D01*
X519166Y435353D02*
X557563D01*
X491588Y397794D02*
X557545D01*
X493291Y422597D02*
X557497D01*
X491724Y397085D02*
X557486D01*
X501278Y420471D02*
X557442D01*
X503533Y433227D02*
X557394D01*
X503278Y434644D02*
X557339D01*
X493900Y421888D02*
X557313D01*
X545934Y472203D02*
X557312D01*
X500561Y421180D02*
X557296D01*
X503503Y433936D02*
X557286D01*
X551297Y476455D02*
X556618D01*
X546553Y472912D02*
X556488D01*
X551040Y475747D02*
X556153D01*
X546889Y473621D02*
X556088D01*
X550551Y475038D02*
X555940D01*
X549599Y474329D02*
X555919D01*
X553318Y440314D02*
X555713D01*
X554258Y507637D02*
X555493D01*
X534956Y501967D02*
X555170D01*
X544605Y445983D02*
X555032D01*
X554142Y441022D02*
X554525D01*
X535554Y502676D02*
X554300D01*
X552995Y445274D02*
X554233D01*
X552425Y503385D02*
X553842D01*
X538796D02*
X551512D01*
X544685Y445274D02*
X550942D01*
X539241Y440314D02*
X550619D01*
X544669Y508345D02*
X550367D01*
X539630Y504093D02*
X550082D01*
X544604Y444566D02*
X549925D01*
X539860Y441022D02*
X549795D01*
X544514Y507637D02*
X549679D01*
X540073Y504802D02*
X549539D01*
X544347Y443857D02*
X549460D01*
X540196Y441731D02*
X549395D01*
X544165Y506928D02*
X549339D01*
X540298Y505511D02*
X549277D01*
X543858Y443148D02*
X549247D01*
X542906Y442440D02*
X549227D01*
X543524Y506219D02*
X549215D01*
X454393Y487794D02*
X548113D01*
X505611Y482125D02*
X547621D01*
X454526Y487085D02*
X547001D01*
X540943Y479999D02*
X546853D01*
X505865Y482833D02*
X546787D01*
X454442Y486377D02*
X546462D01*
X505890Y483542D02*
X546344D01*
X454111Y485668D02*
X546173D01*
X505691Y484251D02*
X546119D01*
X505192Y484959D02*
X546065D01*
X541892Y479290D02*
X545903D01*
X542380Y478581D02*
X545415D01*
X542636Y477873D02*
X545159D01*
X542417Y471495D02*
X543409D01*
X540614Y410550D02*
X542851D01*
X540964Y525353D02*
X542501D01*
X541286Y519684D02*
X542178D01*
X541487Y416219D02*
X541978D01*
X534250Y448109D02*
X540160D01*
X534766Y511180D02*
X539644D01*
X535199Y447400D02*
X539210D01*
X535452Y510471D02*
X538958D01*
X522787Y410550D02*
X538914D01*
X535687Y446692D02*
X538722D01*
X535825Y509762D02*
X538585D01*
X504552Y525353D02*
X538564D01*
X535943Y445983D02*
X538466D01*
X519082Y519684D02*
X538241D01*
X532281Y479999D02*
X538191D01*
X532428Y470077D02*
X538044D01*
X508462Y416219D02*
X538041D01*
X522823Y411259D02*
X537638D01*
X504969Y524644D02*
X537513D01*
X525701Y520392D02*
X537371D01*
X508315Y415511D02*
X537273D01*
X533231Y479290D02*
X537242D01*
X533298Y470786D02*
X537175D01*
X522638Y411967D02*
X537060D01*
X525435Y523936D02*
X536991D01*
X526180Y521101D02*
X536913D01*
X507896Y414802D02*
X536860D01*
X533719Y478581D02*
X536754D01*
X522161Y412676D02*
X536748D01*
X535725Y471495D02*
X536717D01*
X535724Y439605D02*
X536716D01*
X526062Y523227D02*
X536714D01*
X526366Y521810D02*
X536678D01*
X506836Y414093D02*
X536656D01*
X520551Y413385D02*
X536620D01*
X526331Y522518D02*
X536615D01*
X533975Y477873D02*
X536498D01*
X481181Y530314D02*
X535476D01*
X509687Y534566D02*
X535308D01*
X533756Y471495D02*
X534748D01*
X509953Y531022D02*
X534559D01*
X510314Y533857D02*
X534498D01*
X510432Y531731D02*
X534177D01*
X510582Y533148D02*
X534152D01*
X510618Y532440D02*
X534055D01*
X524907Y501259D02*
X532180D01*
X525588Y448109D02*
X531498D01*
X525735Y438188D02*
X531352D01*
X526104Y511180D02*
X530983D01*
X526294Y501967D02*
X530792D01*
X526538Y447400D02*
X530549D01*
X526605Y438896D02*
X530482D01*
X526790Y510471D02*
X530296D01*
X526892Y502676D02*
X530194D01*
X527026Y446692D02*
X530061D01*
X529032Y439605D02*
X530024D01*
X527163Y509762D02*
X529923D01*
X527282Y445983D02*
X529805D01*
X501302Y479999D02*
X529530D01*
X526310Y470077D02*
X529383D01*
X499653Y479290D02*
X528580D01*
X468701Y475038D02*
X528559D01*
X525826Y470786D02*
X528513D01*
X468604Y474329D02*
X528133D01*
X468580Y475747D02*
X528093D01*
X499235Y478581D02*
X528092D01*
X524741Y471495D02*
X528055D01*
X527063Y439605D02*
X528055D01*
X468256Y473621D02*
X527856D01*
X468199Y476455D02*
X527837D01*
X498175Y477873D02*
X527836D01*
X503137Y472203D02*
X527820D01*
X467443Y472912D02*
X527757D01*
X467286Y477164D02*
X527756D01*
X519743Y501259D02*
X523518D01*
X503795Y471495D02*
X522897D01*
X502012Y448109D02*
X522837D01*
X519964Y438188D02*
X522690D01*
X505115Y523936D02*
X522597D01*
X488311Y466534D02*
X522401D01*
X519520Y520392D02*
X522330D01*
X508662Y511180D02*
X522321D01*
X519389Y501967D02*
X522131D01*
X518631Y523227D02*
X521969D01*
X501642Y447400D02*
X521888D01*
X493156Y443148D02*
X521866D01*
X519680Y521101D02*
X521851D01*
X519638Y438896D02*
X521820D01*
X504078Y470786D02*
X521812D01*
X519322Y522518D02*
X521701D01*
X506528Y506219D02*
X521692D01*
X519620Y521810D02*
X521665D01*
X508847Y510471D02*
X521635D01*
X487997Y467243D02*
X521615D01*
X506688Y506928D02*
X521583D01*
X518671Y502676D02*
X521533D01*
X492592Y442440D02*
X521440D01*
X493431Y443857D02*
X521401D01*
X500891Y446692D02*
X521399D01*
X518978Y439605D02*
X521362D01*
X504126Y470077D02*
X521328D01*
X506090Y505511D02*
X521292D01*
X508810Y509762D02*
X521262D01*
X506628Y507637D02*
X521234D01*
X502194Y467951D02*
X521230D01*
X439112Y503385D02*
X521208D01*
X429126Y441731D02*
X521163D01*
X493503Y444566D02*
X521144D01*
X493063Y445983D02*
X521143D01*
X428495Y440314D02*
X521127D01*
X503953Y469369D02*
X521104D01*
X504931Y504802D02*
X521098D01*
X508541Y509054D02*
X521088D01*
X507912Y508345D02*
X521079D01*
X503495Y468660D02*
X521073D01*
X439173Y504093D02*
X521072D01*
X428953Y441022D02*
X521064D01*
X493389Y445274D02*
X521063D01*
X395669Y413385D02*
X520394D01*
X501809Y402046D02*
X519057D01*
X463281Y412676D02*
X518784D01*
X509372Y409133D02*
X518784D01*
X502082Y405589D02*
X518784D01*
X502439Y402755D02*
X518427D01*
X509612Y409841D02*
X518427D01*
X500473Y406298D02*
X518427D01*
X508891Y411967D02*
X518307D01*
X508799Y408424D02*
X518307D01*
X502559Y404881D02*
X518307D01*
X509625Y410550D02*
X518158D01*
X402472Y407007D02*
X518158D01*
X502708Y403463D02*
X518158D01*
X509413Y411259D02*
X518122D01*
X402715Y407715D02*
X518122D01*
X502744Y404172D02*
X518122D01*
X475403Y518975D02*
X516723D01*
X454164Y497715D02*
X516477D01*
X505043Y523227D02*
X516015D01*
X427194Y439605D02*
X515668D01*
X438922Y502676D02*
X515581D01*
X476563Y519684D02*
X515563D01*
X502795Y435353D02*
X515479D01*
X504728Y522518D02*
X515324D01*
X453473Y498424D02*
X515199D01*
X477000Y520392D02*
X515126D01*
X503998Y521810D02*
X515026D01*
X436065Y438896D02*
X515007D01*
X477160Y521101D02*
X514966D01*
X501709Y436062D02*
X514915D01*
X438584Y501967D02*
X514863D01*
X436692Y438188D02*
X514681D01*
X424892Y499133D02*
X514676D01*
X436996Y436770D02*
X514640D01*
X436960Y437479D02*
X514568D01*
X438047Y501259D02*
X514509D01*
X425492Y499841D02*
X514426D01*
X437167Y500550D02*
X514374D01*
X425392Y534566D02*
X506849D01*
X457118Y531022D02*
X506582D01*
X459219Y512597D02*
X506417D01*
X456229Y533857D02*
X506221D01*
X457278Y531731D02*
X506103D01*
X456920Y533148D02*
X505953D01*
X457219Y532440D02*
X505917D01*
X505452Y408424D02*
X505768D01*
X505573Y411967D02*
X505648D01*
X395669Y414093D02*
X505369D01*
X501716Y418345D02*
X504856D01*
X458978Y511888D02*
X504808D01*
X458405Y511180D02*
X504330D01*
X400075Y414802D02*
X504308D01*
X453542Y509762D02*
X504182D01*
X453458Y510471D02*
X504146D01*
X501466Y417637D02*
X504129D01*
X436751Y415511D02*
X503890D01*
X500943Y416928D02*
X503815D01*
X499665Y416219D02*
X503743D01*
X439112Y504802D02*
X503731D01*
X453408Y509054D02*
X503023D01*
X454295Y492755D02*
X502889D01*
X438924Y505511D02*
X502571D01*
X453994Y488503D02*
X502564D01*
X402825Y408424D02*
X502422D01*
X453008Y508345D02*
X502332D01*
X463880Y411967D02*
X502330D01*
X440640Y506219D02*
X502134D01*
X452026Y507637D02*
X502033D01*
X482518Y526062D02*
X502014D01*
X441240Y506928D02*
X501974D01*
X454507Y492046D02*
X501911D01*
X453342Y484959D02*
X501895D01*
X463457Y409133D02*
X501848D01*
X464133Y411259D02*
X501807D01*
X453017Y489211D02*
X501795D01*
X463958Y409841D02*
X501608D01*
X464157Y410550D02*
X501596D01*
X477100Y521810D02*
X501514D01*
X454494Y491337D02*
X501513D01*
X453680Y489920D02*
X501464D01*
X501144Y484251D02*
X501384D01*
X454254Y490629D02*
X501379D01*
X487270Y467951D02*
X501349D01*
X477100Y525353D02*
X500960D01*
X476802Y522518D02*
X500784D01*
X487687Y460156D02*
X500644D01*
X477160Y524644D02*
X500543D01*
X476563Y523227D02*
X500469D01*
X466535Y472203D02*
X500407D01*
X477000Y523936D02*
X500397D01*
X402065Y406298D02*
X500315D01*
X487818Y464408D02*
X500131D01*
X469664Y468660D02*
X500048D01*
X437664Y436062D02*
X499865D01*
X466413Y471495D02*
X499748D01*
X468897Y469369D02*
X499590D01*
X488288Y460865D02*
X499584D01*
X466032Y470786D02*
X499465D01*
X466487Y470077D02*
X499418D01*
X487869Y463699D02*
X499404D01*
X493599Y431101D02*
X499370D01*
X439170Y484251D02*
X499250D01*
X488542Y461574D02*
X499166D01*
X488368Y462991D02*
X499090D01*
X488567Y462282D02*
X499019D01*
X491998Y435353D02*
X498780D01*
X401422Y405589D02*
X498705D01*
X401595Y451652D02*
X498607D01*
X493954Y431810D02*
X498584D01*
X437325Y416219D02*
X498367D01*
X439136Y483542D02*
X498336D01*
X493269Y434644D02*
X498297D01*
X494090Y432518D02*
X498199D01*
X493790Y433936D02*
X498072D01*
X494039Y433227D02*
X498042D01*
X452011Y482833D02*
X497956D01*
X492403Y446692D02*
X497928D01*
X494199Y421180D02*
X497471D01*
X437056Y450944D02*
X497440D01*
X437912Y447400D02*
X497177D01*
X437565Y416928D02*
X497088D01*
X437914Y450235D02*
X496938D01*
X465381Y400629D02*
X496822D01*
X438277Y448109D02*
X496807D01*
X494291Y420471D02*
X496753D01*
X426686Y477873D02*
X496707D01*
X438277Y449526D02*
X496701D01*
X438386Y448818D02*
X496661D01*
X451176Y417637D02*
X496565D01*
X494198Y419762D02*
X496399D01*
X493288Y418345D02*
X496316D01*
X493898Y419054D02*
X496264D01*
X453301Y482125D02*
X496194D01*
X400280Y404881D02*
X495879D01*
X452936Y478581D02*
X495647D01*
X465033Y401337D02*
X495521D01*
X453757Y481416D02*
X495467D01*
X453597Y479290D02*
X495229D01*
X395669Y404172D02*
X495221D01*
X453929Y480707D02*
X495153D01*
X453881Y479999D02*
X495082D01*
X464394Y402046D02*
X495063D01*
X395669Y403463D02*
X494938D01*
X462492Y402755D02*
X494890D01*
X448157Y435353D02*
X490679D01*
X450994Y430392D02*
X489797D01*
X451945Y418345D02*
X489783D01*
X449467Y422597D02*
X489780D01*
X451701Y434644D02*
X489409D01*
X452276Y419054D02*
X489173D01*
X450851Y421888D02*
X489171D01*
X437051Y446692D02*
X489093D01*
X452153Y431101D02*
X489078D01*
X429078Y442440D02*
X488904D01*
X452393Y433936D02*
X488887D01*
X452361Y419762D02*
X488873D01*
X451829Y421180D02*
X488872D01*
X452228Y420471D02*
X488780D01*
X452591Y431810D02*
X488723D01*
X452691Y433227D02*
X488638D01*
X452751Y432518D02*
X488587D01*
X417302Y445983D02*
X488433D01*
X428795Y443148D02*
X488340D01*
X417290Y445274D02*
X488107D01*
X428137Y443857D02*
X488065D01*
X417049Y444566D02*
X487993D01*
X465536Y399920D02*
X487877D01*
X465526Y399211D02*
X486498D01*
X465352Y398503D02*
X485901D01*
X464978Y397794D02*
X485578D01*
X457946Y396377D02*
X485469D01*
X464290Y397085D02*
X485442D01*
X469994Y467951D02*
X484777D01*
X425819Y460156D02*
X484754D01*
X472188Y463699D02*
X484572D01*
X472414Y464408D02*
X484230D01*
X425979Y460865D02*
X484153D01*
X471640Y462991D02*
X484072D01*
X470082Y467243D02*
X484050D01*
X425919Y461574D02*
X483899D01*
X425621Y462282D02*
X483874D01*
X472414Y465117D02*
X483811D01*
X471643Y466534D02*
X483736D01*
X472189Y465825D02*
X483664D01*
X476111Y530314D02*
X481024D01*
X476802Y526062D02*
X479687D01*
X476802Y529605D02*
X479414D01*
X476563Y526770D02*
X479057D01*
X477100Y528896D02*
X478937D01*
X477000Y527479D02*
X478788D01*
X477160Y528188D02*
X478752D01*
X461811Y518975D02*
X474203D01*
X456681Y530314D02*
X473495D01*
X395669Y519684D02*
X473044D01*
X402356Y526770D02*
X473044D01*
X467708Y523227D02*
X473044D01*
X455521Y529605D02*
X472804D01*
X401883Y526062D02*
X472804D01*
X467660Y522518D02*
X472804D01*
X395669Y520392D02*
X472606D01*
X402650Y527479D02*
X472606D01*
X467537Y523936D02*
X472606D01*
X402830Y528896D02*
X472506D01*
X465791Y525353D02*
X472506D01*
X467376Y521810D02*
X472506D01*
X402803Y528188D02*
X472446D01*
X467080Y524644D02*
X472446D01*
X466716Y521101D02*
X472446D01*
X425382Y462991D02*
X468518D01*
X425819Y463699D02*
X467970D01*
X425979Y464408D02*
X467743D01*
X425919Y465117D02*
X466872D01*
X436820Y465825D02*
X465890D01*
X429457Y477164D02*
X465392D01*
X401126Y525353D02*
X464918D01*
X430149Y476455D02*
X464478D01*
X430447Y475747D02*
X464097D01*
X395669Y521101D02*
X463993D01*
X430506Y475038D02*
X463977D01*
X399497Y524644D02*
X463628D01*
X437980Y466534D02*
X463626D01*
X395669Y521810D02*
X463333D01*
X395669Y523936D02*
X463172D01*
X430347Y474329D02*
X463063D01*
X395669Y522518D02*
X463049D01*
X395669Y523227D02*
X463000D01*
X438418Y467243D02*
X462708D01*
X437528Y470077D02*
X462647D01*
X438577Y467951D02*
X462327D01*
X417214Y470786D02*
X462315D01*
X455337Y402755D02*
X462311D01*
X438220Y469369D02*
X462301D01*
X429909Y473621D02*
X462254D01*
X438518Y468660D02*
X462205D01*
X424984Y471495D02*
X461933D01*
X428750Y472912D02*
X461907D01*
X425644Y472203D02*
X461811D01*
X458333Y397085D02*
X460513D01*
X456956Y402046D02*
X460410D01*
X399836Y412676D02*
X460341D01*
X402812Y409133D02*
X460165D01*
X458561Y397794D02*
X459826D01*
X458497Y514723D02*
X459785D01*
X457712Y401337D02*
X459770D01*
X401234Y411967D02*
X459742D01*
X402674Y409841D02*
X459664D01*
X401948Y411259D02*
X459489D01*
X402398Y410550D02*
X459465D01*
X458657Y398503D02*
X459452D01*
X458267Y518975D02*
X459449D01*
X458184Y400629D02*
X459422D01*
X458630Y399211D02*
X459277D01*
X458478Y399920D02*
X459268D01*
X395669Y518975D02*
X455906D01*
X453128Y511180D02*
X455375D01*
X440200Y514723D02*
X455282D01*
X395669Y515432D02*
X455260D01*
X395669Y518266D02*
X455139D01*
X395669Y516140D02*
X454860D01*
X395669Y517558D02*
X454810D01*
X452362Y511888D02*
X454801D01*
X441490Y514014D02*
X454760D01*
X395669Y516849D02*
X454726D01*
X442118Y512597D02*
X454561D01*
X441946Y513306D02*
X454548D01*
X402735Y529605D02*
X454321D01*
X399510Y402755D02*
X453718D01*
X425258Y533857D02*
X453614D01*
X402507Y530314D02*
X453162D01*
X424859Y533148D02*
X452922D01*
X402121Y531022D02*
X452724D01*
X423876Y532440D02*
X452624D01*
X401513Y531731D02*
X452564D01*
X401130Y402046D02*
X452099D01*
X439173Y494172D02*
X451426D01*
X401885Y401337D02*
X451344D01*
X441393Y489211D02*
X451314D01*
X438976Y482833D02*
X451138D01*
X445996Y396377D02*
X451109D01*
X439082Y484959D02*
X450989D01*
X444098Y400629D02*
X450871D01*
X402825Y498424D02*
X450858D01*
X446211Y397085D02*
X450722D01*
X440735Y489920D02*
X450650D01*
X445281Y399920D02*
X450578D01*
X439125Y493463D02*
X450558D01*
X446256Y397794D02*
X450494D01*
X445839Y399211D02*
X450425D01*
X439098Y494881D02*
X450406D01*
X446139Y398503D02*
X450398D01*
X441495Y507637D02*
X450336D01*
X441676Y488503D02*
X450336D01*
X439793Y485668D02*
X450220D01*
X427164Y478581D02*
X450213D01*
X437034Y497715D02*
X450166D01*
X437293Y490629D02*
X450077D01*
X438950Y492755D02*
X450036D01*
X442070Y511888D02*
X450000D01*
X438894Y495589D02*
X449968D01*
X441724Y487794D02*
X449938D01*
X441094Y486377D02*
X449889D01*
X437973Y497007D02*
X449868D01*
X438674Y482125D02*
X449849D01*
X438119Y491337D02*
X449836D01*
X438630Y492046D02*
X449824D01*
X438537Y496298D02*
X449808D01*
X441551Y487085D02*
X449804D01*
X440475Y430392D02*
X449794D01*
X427350Y479290D02*
X449553D01*
X438188Y481416D02*
X449392D01*
X441519Y508345D02*
X449354D01*
X435599Y479999D02*
X449269D01*
X441786Y511180D02*
X449234D01*
X437409Y480707D02*
X449221D01*
X448595Y421888D02*
X449149D01*
X441321Y509054D02*
X448954D01*
X441125Y510471D02*
X448904D01*
X437578Y417637D02*
X448824D01*
X440822Y509762D02*
X448820D01*
X447988Y431101D02*
X448634D01*
X437366Y418345D02*
X448055D01*
X436844Y419054D02*
X447724D01*
X402696Y419762D02*
X447639D01*
X441288Y431101D02*
X446106D01*
X438391Y435353D02*
X445937D01*
X441635Y431810D02*
X445189D01*
X440317Y434644D02*
X445128D01*
X441732Y432518D02*
X444807D01*
X441231Y433936D02*
X444781D01*
X402436Y420471D02*
X444699D01*
X441611Y433227D02*
X444685D01*
X395669Y424014D02*
X444334D01*
X439716Y428266D02*
X444166D01*
X402009Y421180D02*
X444151D01*
X395669Y423306D02*
X444150D01*
X401333Y421888D02*
X443925D01*
X400082Y422597D02*
X443924D01*
X399826Y424723D02*
X443417D01*
X439447Y427558D02*
X443356D01*
X401231Y425432D02*
X443035D01*
X438817Y426849D02*
X443010D01*
X401946Y426140D02*
X442914D01*
X402358Y400629D02*
X442123D01*
X402651Y399920D02*
X440940D01*
X402803Y399211D02*
X440382D01*
X402119Y396377D02*
X440224D01*
X402830Y398503D02*
X440082D01*
X402506Y397085D02*
X440009D01*
X402734Y397794D02*
X439964D01*
X395669Y514723D02*
X439327D01*
X432278Y510471D02*
X438369D01*
X395669Y514014D02*
X438038D01*
X425494Y489920D02*
X438005D01*
X432219Y511180D02*
X437742D01*
X395669Y513306D02*
X437581D01*
X432118Y509762D02*
X437524D01*
X431920Y511888D02*
X437458D01*
X431229Y512597D02*
X437410D01*
X425748Y489211D02*
X437347D01*
X402066Y431101D02*
X437225D01*
X425771Y488503D02*
X437064D01*
X431681Y509054D02*
X437025D01*
X430521Y508345D02*
X436827D01*
X402397Y426849D02*
X435986D01*
X402473Y430392D02*
X435713D01*
X401425Y431810D02*
X435684D01*
X425621Y465825D02*
X435620D01*
X402674Y427558D02*
X435357D01*
X402716Y429684D02*
X435236D01*
X402812Y428266D02*
X435087D01*
X402826Y428975D02*
X435051D01*
X417090Y446692D02*
X434997D01*
X432119Y450944D02*
X434991D01*
X417323Y470077D02*
X434913D01*
X419334Y432518D02*
X434623D01*
X427315Y479999D02*
X434479D01*
X424930Y466534D02*
X434461D01*
X417214Y469369D02*
X434221D01*
X420196Y433227D02*
X434205D01*
X432027Y447400D02*
X434135D01*
X432641Y450235D02*
X434133D01*
X420669Y434644D02*
X434100D01*
X420560Y433936D02*
X434058D01*
X402569Y467243D02*
X434023D01*
X416849Y468660D02*
X433923D01*
X415988Y467951D02*
X433864D01*
X432600Y448109D02*
X433771D01*
X432853Y449526D02*
X433770D01*
X401330Y415511D02*
X433721D01*
X432841Y448818D02*
X433661D01*
X402820Y419054D02*
X433629D01*
X426330Y438896D02*
X433227D01*
X425572Y487794D02*
X433195D01*
X402007Y416219D02*
X433148D01*
X402819Y418345D02*
X433107D01*
X416141Y497715D02*
X433045D01*
X420561Y435353D02*
X432960D01*
X425747Y500550D02*
X432912D01*
X417311Y507637D02*
X432908D01*
X402435Y416928D02*
X432907D01*
X402695Y417637D02*
X432895D01*
X424895Y490629D02*
X432786D01*
X427046Y480707D02*
X432669D01*
X426061Y438188D02*
X432599D01*
X420198Y436062D02*
X432481D01*
X425431Y437479D02*
X432331D01*
X419339Y436770D02*
X432295D01*
X425071Y487085D02*
X432186D01*
X416908Y497007D02*
X432105D01*
X425771Y501259D02*
X432032D01*
X417125Y506928D02*
X432029D01*
X401885Y491337D02*
X431959D01*
X426419Y481416D02*
X431891D01*
X402119Y486377D02*
X431593D01*
X417238Y496298D02*
X431542D01*
X425573Y501967D02*
X431495D01*
X416646Y506219D02*
X431493D01*
X401130Y492046D02*
X431449D01*
X416906Y482125D02*
X431405D01*
X415812Y485668D02*
X431217D01*
X417321Y495589D02*
X431185D01*
X425074Y502676D02*
X431157D01*
X401330Y505511D02*
X431156D01*
X399510Y492755D02*
X431129D01*
X417237Y482833D02*
X431103D01*
X416790Y484959D02*
X430997D01*
X417187Y494881D02*
X430981D01*
X395669Y503385D02*
X430967D01*
X400075Y504802D02*
X430966D01*
X415805Y493463D02*
X430954D01*
X417322Y483542D02*
X430943D01*
X417188Y484251D02*
X430908D01*
X416788Y494172D02*
X430906D01*
X395669Y504093D02*
X430905D01*
X417275Y508345D02*
X429321D01*
X424547Y447400D02*
X428997D01*
X424639Y450944D02*
X428904D01*
X400082Y512597D02*
X428614D01*
X425120Y448109D02*
X428423D01*
X425161Y450235D02*
X428382D01*
X425360Y448818D02*
X428183D01*
X425373Y449526D02*
X428171D01*
X417007Y509054D02*
X428162D01*
X395669Y454487D02*
X428092D01*
X401333Y511888D02*
X427922D01*
X424222Y458739D02*
X427756D01*
X416380Y509762D02*
X427724D01*
X402009Y511180D02*
X427624D01*
X402436Y510471D02*
X427564D01*
X425928Y472912D02*
X427550D01*
X400892Y455196D02*
X427110D01*
X417318Y458030D02*
X426990D01*
X402538Y477164D02*
X426842D01*
X416264Y455904D02*
X426710D01*
X417257Y457322D02*
X426660D01*
X416958Y456613D02*
X426576D01*
X425976Y473621D02*
X426390D01*
X402172Y476455D02*
X426151D01*
X424059Y475747D02*
X425852D01*
X425348Y475038D02*
X425793D01*
X416476Y443857D02*
X425407D01*
X395669Y443148D02*
X424748D01*
X400464Y442440D02*
X424465D01*
X424094Y441731D02*
X424307D01*
X401513D02*
X423937D01*
X416137Y481416D02*
X423581D01*
X402751Y477873D02*
X423314D01*
X401593Y475747D02*
X423186D01*
X417159Y458739D02*
X423022D01*
X402315Y480707D02*
X422954D01*
X402833Y478581D02*
X422836D01*
X402626Y479999D02*
X422685D01*
X402792Y479290D02*
X422650D01*
X402650Y437479D02*
X422600D01*
X402121Y441022D02*
X422328D01*
X402221Y466534D02*
X422314D01*
X416851Y471495D02*
X422261D01*
X400464Y532440D02*
X422187D01*
X402803Y438188D02*
X421971D01*
X402812Y499133D02*
X421958D01*
X402358Y490629D02*
X421955D01*
X400617Y475038D02*
X421896D01*
X416722Y459448D02*
X421862D01*
X395669Y462991D02*
X421862D01*
X402314Y536692D02*
X421851D01*
X402507Y440314D02*
X421850D01*
X402506Y487085D02*
X421779D01*
X399836Y502676D02*
X421776D01*
X402830Y438896D02*
X421702D01*
X402735Y439605D02*
X421665D01*
X401671Y465825D02*
X421623D01*
X400765Y462282D02*
X421623D01*
X415993Y472203D02*
X421600D01*
X416568Y447400D02*
X421516D01*
X395669Y474329D02*
X421440D01*
X415570Y460156D02*
X421425D01*
X395669Y463699D02*
X421425D01*
X402173Y450944D02*
X421424D01*
X402674Y499841D02*
X421358D01*
X402651Y489920D02*
X421357D01*
X400761Y465117D02*
X421325D01*
X401673Y461574D02*
X421325D01*
X395669Y472912D02*
X421316D01*
X402734Y487794D02*
X421278D01*
X401234Y501967D02*
X421277D01*
X395669Y473621D02*
X421268D01*
X395669Y464408D02*
X421265D01*
X402223Y460865D02*
X421265D01*
X395669Y533148D02*
X421204D01*
X402398Y500550D02*
X421103D01*
X402803Y489211D02*
X421103D01*
X401816Y535983D02*
X421084D01*
X402830Y488503D02*
X421079D01*
X401948Y501259D02*
X421079D01*
X402792Y448109D02*
X420943D01*
X402539Y450235D02*
X420902D01*
X395669Y533857D02*
X420805D01*
X401013Y535274D02*
X420754D01*
X402833Y448818D02*
X420703D01*
X402751Y449526D02*
X420690D01*
X395669Y534566D02*
X420671D01*
X400287Y432518D02*
X417280D01*
X402356Y436770D02*
X417275D01*
X395669Y433227D02*
X416418D01*
X401883Y436062D02*
X416416D01*
X395669Y433936D02*
X416054D01*
X401126Y435353D02*
X416053D01*
X399497Y434644D02*
X415945D01*
X402570Y460156D02*
X414351D01*
X395669Y493463D02*
X414116D01*
X401510Y485668D02*
X414109D01*
X402766Y467951D02*
X413934D01*
X400896Y472203D02*
X413928D01*
X401818Y481416D02*
X413784D01*
X402715Y497715D02*
X413780D01*
X401745Y455904D02*
X413657D01*
X402696Y509762D02*
X413542D01*
X395669Y443857D02*
X413445D01*
X402625Y447400D02*
X413353D01*
X402007Y506219D02*
X413275D01*
X402767Y459448D02*
X413199D01*
X395669Y494172D02*
X413134D01*
X400459Y484959D02*
X413131D01*
X402834Y468660D02*
X413072D01*
X401748Y471495D02*
X413070D01*
X401017Y482125D02*
X413015D01*
X402472Y497007D02*
X413013D01*
X402269Y456613D02*
X412963D01*
X402820Y509054D02*
X412914D01*
X395669Y444566D02*
X412872D01*
X402314Y446692D02*
X412831D01*
X402435Y506928D02*
X412796D01*
X402834Y458739D02*
X412762D01*
X400280Y494881D02*
X412734D01*
X395669Y484251D02*
X412733D01*
X402780Y469369D02*
X412708D01*
X402270Y470786D02*
X412707D01*
X398805Y482833D02*
X412684D01*
X402065Y496298D02*
X412684D01*
X402598Y457322D02*
X412664D01*
X402819Y508345D02*
X412646D01*
X401013Y445274D02*
X412632D01*
X401816Y445983D02*
X412619D01*
X402695Y507637D02*
X412610D01*
X402780Y458030D02*
X412604D01*
X401422Y495589D02*
X412600D01*
X395669Y483542D02*
X412600D01*
X402599Y470077D02*
X412598D01*
X395669Y482833D02*
X398597D01*
X395669Y524644D02*
X397904D01*
X395669Y434644D02*
X397904D01*
X395669Y492755D02*
X397891D01*
X395669Y402755D02*
X397891D01*
X395669Y424723D02*
X397575D01*
X395669Y502676D02*
X397566D01*
X395669Y412676D02*
X397566D01*
X395669Y504802D02*
X397327D01*
X395669Y414802D02*
X397327D01*
X395669Y512597D02*
X397320D01*
X395669Y422597D02*
X397320D01*
X395669Y494881D02*
X397121D01*
X395669Y404881D02*
X397121D01*
X395669Y432518D02*
X397115D01*
X395669Y484959D02*
X396943D01*
X395669Y532440D02*
X396937D01*
X395669Y442440D02*
X396937D01*
X395669Y475038D02*
X396784D01*
X395669Y452361D02*
X396779D01*
X395669Y465117D02*
X396641D01*
X395669Y462282D02*
X396636D01*
X395669Y455196D02*
X396509D01*
X395669Y472203D02*
X396505D01*
X395669Y535274D02*
X396388D01*
X395669Y445274D02*
X396388D01*
X395669Y482125D02*
X396384D01*
X395669Y525353D02*
X396276D01*
X395669Y435353D02*
X396276D01*
X395669Y492046D02*
X396272D01*
X395669Y402046D02*
X396272D01*
X395669Y425432D02*
X396170D01*
X395669Y501967D02*
X396167D01*
X395669Y411967D02*
X396167D01*
X395669Y505511D02*
X396072D01*
X395669Y415511D02*
X396072D01*
X395669Y511888D02*
X396069D01*
X395669Y421888D02*
X396069D01*
X395688Y495589D02*
X395979D01*
X395688Y405589D02*
X395979D01*
X395690Y431810D02*
X395976D01*
X395794Y485668D02*
X395859D01*
X395810Y531731D02*
X395843D01*
X395810Y441731D02*
X395843D01*
G54D13*
X588701Y498701D03*
Y518701D03*
Y508701D03*
X571260Y522047D03*
X398701Y518701D03*
G54D21*
X426772Y411614D03*
Y424213D03*
X396654Y433661D03*
X413780Y397638D03*
X396654Y423622D03*
X396850Y413583D03*
X406693Y397244D03*
X421260Y397638D03*
X396654Y403740D03*
X426772Y417913D03*
X418110Y404331D03*
X498228Y422835D03*
X505315Y432677D03*
X505512Y413189D03*
X464961Y424803D03*
X477165D03*
X477953Y399606D03*
X445276Y413386D03*
X437205Y397835D03*
Y422244D03*
X470866Y427362D03*
X466929Y430906D03*
X474803D03*
X453543Y419488D03*
X495079Y397441D03*
X500591D03*
X558661Y413976D03*
X586024Y403740D03*
X525591Y415748D03*
X536614Y408661D03*
X571260Y413976D03*
X570866Y397047D03*
X566339D03*
X542126Y419882D03*
X528543D03*
X524606D03*
X538189D03*
X423425Y434449D03*
X409055Y435039D03*
X397047Y503543D03*
X402953Y491535D03*
X397047Y483661D03*
X402362Y463583D03*
Y453740D03*
X396850Y443701D03*
X423228Y457283D03*
X423622Y507283D03*
Y469488D03*
X423228Y442913D03*
X423622Y482874D03*
Y495079D03*
X401378Y474016D03*
X507874Y444882D03*
X478937Y487598D03*
X512795Y490551D03*
X487205Y506102D03*
X479921Y513189D03*
X486024Y494685D03*
X473031Y493701D03*
X454134Y460827D03*
X510827Y500591D03*
X434449Y510039D03*
X497835Y444291D03*
X454724Y446654D03*
X503740Y487008D03*
X439567Y480906D03*
X477165Y436614D03*
X458465Y463780D03*
X479528Y497244D03*
X493110Y476378D03*
X472047Y481890D03*
X471457Y501181D03*
X486220Y481890D03*
X470866Y434449D03*
X464961Y436614D03*
X505512Y472835D03*
X458465Y449803D03*
X477165Y457677D03*
X487795Y513386D03*
X503740Y497441D03*
X504331Y513386D03*
X439764Y500984D03*
X472441Y507874D03*
X516142Y453346D03*
X557283Y509449D03*
X524213Y484055D03*
X528150D03*
X531102Y451969D03*
X535039D03*
X544685D03*
X548622D03*
X537992Y484055D03*
X541929D03*
X516535Y464961D03*
X403346Y533268D03*
X412008Y539764D03*
X425984Y530315D03*
X420079Y518701D03*
X397244Y514173D03*
X428937Y540354D03*
X404724Y522835D03*
X418504Y534449D03*
X506496Y540354D03*
X445079Y527362D03*
X512402Y526378D03*
X491339Y534646D03*
X450787Y514370D03*
X465551Y526969D03*
X465748Y519094D03*
X498031Y535433D03*
X448425Y531693D03*
X535630Y518701D03*
X545669Y539567D03*
X539173Y539370D03*
X546654Y527362D03*
G54D42*
G74*
X0Y0D02*
M02*
