G04*
G04 #@! TF.GenerationSoftware,Altium Limited,Altium Designer,21.0.8 (223)*
G04*
G04 Layer_Color=16711935*
%FSLAX25Y25*%
%MOIN*%
G70*
G04*
G04 #@! TF.SameCoordinates,386B6A0C-B290-4CC1-8F2B-2C95A909E97D*
G04*
G04*
G04 #@! TF.FilePolarity,Positive*
G04*
G01*
G75*
%ADD52C,0.00787*%
%ADD100C,0.01000*%
%ADD101C,0.00394*%
D52*
X735615Y441090D02*
Y460776D01*
X703529Y441090D02*
X735615D01*
X703529D02*
Y460776D01*
X735615D01*
X816647Y336283D02*
Y342583D01*
X813497D02*
X816647D01*
X813497Y336283D02*
Y342583D01*
Y336283D02*
X816647D01*
X810647D02*
Y342583D01*
X807497D02*
X810647D01*
X807497Y336283D02*
Y342583D01*
Y336283D02*
X810647D01*
X804640Y336346D02*
Y342646D01*
X801490D02*
X804640D01*
X801490Y336346D02*
Y342646D01*
Y336346D02*
X804640D01*
X674230Y317890D02*
Y349976D01*
Y317890D02*
X693915D01*
Y349976D01*
X674230D02*
X693915D01*
X735529Y287090D02*
X767616D01*
X735529D02*
Y306776D01*
X767616D01*
Y287090D02*
Y306776D01*
X735529Y287090D02*
Y306776D01*
X767616D01*
Y287090D02*
Y306776D01*
X735529Y287090D02*
X767616D01*
X693415Y367094D02*
Y424772D01*
X673730Y367094D02*
X693415D01*
X673730D02*
Y424772D01*
X693415D01*
X673730Y367094D02*
X693415D01*
X673730D02*
Y424772D01*
X693415D01*
Y367094D02*
Y424772D01*
X802714Y294075D02*
Y311791D01*
X820430D01*
Y294075D02*
Y311791D01*
X802714Y294075D02*
X820430D01*
X782651Y337134D02*
Y349732D01*
X792493D01*
Y337134D02*
Y349732D01*
X782651Y337134D02*
X792493D01*
X839257Y373748D02*
Y413118D01*
X799887D02*
X839257D01*
X799887Y373748D02*
Y413118D01*
Y373748D02*
X839257D01*
X689793Y319169D02*
Y348697D01*
X670108Y319169D02*
X689793D01*
X670108D02*
Y348697D01*
X689793D01*
X672572Y311433D02*
Y356433D01*
X667745Y346138D02*
X670108D01*
X667745Y321728D02*
Y346138D01*
Y321728D02*
X670108D01*
X667745Y349681D02*
X670108Y348697D01*
X667745D02*
Y349681D01*
Y348697D02*
X670108Y347713D01*
X667745Y318185D02*
X670108Y319169D01*
X667745Y318185D02*
Y319169D01*
X670108Y320153D01*
X778395Y310063D02*
X793749D01*
Y288803D02*
Y310063D01*
X778395Y288803D02*
X793749D01*
X778395D02*
Y310063D01*
X321203Y285409D02*
X364117D01*
X321203D02*
Y305095D01*
X364117D01*
Y285409D02*
Y305095D01*
X218818Y325390D02*
X238503D01*
Y357476D01*
X218818D02*
X238503D01*
X218818Y325390D02*
Y357476D01*
X239003Y367094D02*
Y424772D01*
X219318D02*
X239003D01*
X219318Y367094D02*
Y424772D01*
Y367094D02*
X239003D01*
X219318Y424772D02*
X239003D01*
X219318Y367094D02*
Y424772D01*
Y367094D02*
X239003D01*
Y424772D01*
X370101Y430008D02*
X375219D01*
Y426858D02*
Y430008D01*
X370101Y426858D02*
X375219D01*
X370101D02*
Y430008D01*
X322802Y437075D02*
Y454791D01*
X340518D01*
Y437075D02*
Y454791D01*
X322802Y437075D02*
X340518D01*
X347302D02*
X365018D01*
Y454791D01*
X347302D02*
X365018D01*
X347302Y437075D02*
Y454791D01*
X457412Y348571D02*
X469617D01*
X457412Y333571D02*
Y348571D01*
Y333571D02*
X469617D01*
Y348571D01*
X271081Y398043D02*
Y411823D01*
X261239Y398043D02*
X271081D01*
X261239D02*
Y411823D01*
X271081D01*
X469617Y356071D02*
Y371071D01*
X457412Y356071D02*
X469617D01*
X457412D02*
Y371071D01*
X469617D01*
X250511Y288858D02*
Y292008D01*
X256810D01*
Y288858D02*
Y292008D01*
X250511Y288858D02*
X256810D01*
X326361Y379276D02*
X338959D01*
Y359591D02*
Y379276D01*
X326361Y359591D02*
X338959D01*
X326361D02*
Y379276D01*
D100*
X477081Y309090D02*
Y328776D01*
X496766D01*
Y309090D02*
Y328776D01*
X477081Y309090D02*
X496766D01*
X496377Y353590D02*
Y373276D01*
X476692Y353590D02*
X496377D01*
X476692D02*
Y373276D01*
X496377D01*
X476692Y350776D02*
X496377D01*
X476692Y331090D02*
Y350776D01*
Y331090D02*
X496377D01*
Y350776D01*
X476581Y375590D02*
Y395276D01*
X496266D01*
Y375590D02*
Y395276D01*
X476581Y375590D02*
X496266D01*
X476581Y398091D02*
Y417776D01*
X496266D01*
Y398091D02*
Y417776D01*
X476581Y398091D02*
X496266D01*
X477054Y439776D02*
X496739D01*
X477054Y420090D02*
Y439776D01*
Y420090D02*
X496739D01*
Y439776D01*
D101*
X813399Y353984D02*
X816745D01*
X813399Y347882D02*
Y353984D01*
Y347882D02*
X816745D01*
Y353984D01*
X807399D02*
X810745D01*
X807399Y347882D02*
Y353984D01*
Y347882D02*
X810745D01*
Y353984D01*
X801399D02*
X804745D01*
X801399Y347882D02*
Y353984D01*
Y347882D02*
X804745D01*
Y353984D01*
X771289Y329748D02*
X773257Y331716D01*
Y329748D02*
Y369118D01*
X733887D02*
X773257D01*
X733887Y329748D02*
Y369118D01*
Y329748D02*
X773257D01*
X740923Y424284D02*
X747222D01*
Y430583D01*
X740923D02*
X747222D01*
X740923Y424284D02*
Y430583D01*
X816635Y426894D02*
X824509D01*
Y421972D02*
Y426894D01*
X816635Y421972D02*
X824509D01*
X816635D02*
Y426894D01*
X813509Y361972D02*
Y366894D01*
X805635D02*
X813509D01*
X805635Y361972D02*
Y366894D01*
Y361972D02*
X813509D01*
X754777Y404098D02*
X763832Y395043D01*
X754777D02*
X780368D01*
Y408823D01*
X754777D02*
X780368D01*
X754777Y395043D02*
Y408823D01*
X783151Y398634D02*
X792993D01*
Y411232D01*
X783151D02*
X792993D01*
X783151Y398634D02*
Y411232D01*
X741151Y405732D02*
X750993D01*
X741151Y393134D02*
Y405732D01*
Y393134D02*
X750993D01*
Y405732D01*
X782560Y390823D02*
X793584D01*
X782560Y377043D02*
Y390823D01*
Y377043D02*
X793584D01*
Y390823D01*
X828773Y331512D02*
Y341354D01*
Y331512D02*
X841371D01*
Y341354D01*
X828773D02*
X841371D01*
X828773Y344012D02*
Y353854D01*
Y344012D02*
X841371D01*
Y353854D01*
X828773D02*
X841371D01*
X828773Y356512D02*
Y366354D01*
Y356512D02*
X841371D01*
Y366354D01*
X828773D02*
X841371D01*
X702572Y293740D02*
Y307126D01*
Y293740D02*
X727572D01*
X702572Y307126D02*
X727572D01*
X811123Y326260D02*
Y329606D01*
X805021D02*
X811123D01*
X805021Y326260D02*
Y329606D01*
Y326260D02*
X811123D01*
X708816Y325736D02*
X720328D01*
Y332130D01*
X708816D02*
X720328D01*
X708816Y325736D02*
Y332130D01*
X722997Y326284D02*
Y332583D01*
X726147D01*
Y326284D02*
Y332583D01*
X722997Y326284D02*
X726147D01*
X721521Y426260D02*
X727623D01*
X721521D02*
Y429606D01*
X727623D01*
Y426260D02*
Y429606D01*
X704497Y399284D02*
X707647D01*
Y405583D01*
X704497D02*
X707647D01*
X704497Y399284D02*
Y405583D01*
X717222Y426358D02*
Y429508D01*
X710923D02*
X717222D01*
X710923Y426358D02*
Y429508D01*
Y426358D02*
X717222D01*
X709927Y402756D02*
Y418110D01*
X729218D01*
Y402756D02*
Y418110D01*
X709927Y402756D02*
X729218D01*
X709927Y407756D02*
X714926Y402756D01*
X704021Y349106D02*
X710123D01*
Y345760D02*
Y349106D01*
X704021Y345760D02*
X710123D01*
X704021D02*
Y349106D01*
Y343106D02*
X710123D01*
Y339760D02*
Y343106D01*
X704021Y339760D02*
X710123D01*
X704021D02*
Y343106D01*
X742635Y377472D02*
Y382394D01*
Y377472D02*
X750509D01*
Y382394D01*
X742635D02*
X750509D01*
X722997Y375083D02*
X726147D01*
X722997Y368783D02*
Y375083D01*
Y368783D02*
X726147D01*
Y375083D01*
X781997Y369583D02*
X785147D01*
X781997Y363283D02*
Y369583D01*
Y363283D02*
X785147D01*
Y369583D01*
X771722Y318358D02*
Y321508D01*
X765423D02*
X771722D01*
X765423Y318358D02*
Y321508D01*
Y318358D02*
X771722D01*
X804923Y320858D02*
Y324008D01*
Y320858D02*
X811222D01*
Y324008D01*
X804923D02*
X811222D01*
X784423Y334008D02*
X790722D01*
Y330858D02*
Y334008D01*
X784423Y330858D02*
X790722D01*
X784423D02*
Y334008D01*
Y352858D02*
X790722D01*
X784423D02*
Y356008D01*
X790722D01*
Y352858D02*
Y356008D01*
X685127Y362492D02*
X692017D01*
Y357374D02*
Y362492D01*
X685127Y357374D02*
X692017D01*
X685127D02*
Y362492D01*
Y360425D02*
X687194Y362492D01*
X730423Y378358D02*
Y381508D01*
Y378358D02*
X736722D01*
Y381508D01*
X730423D02*
X736722D01*
X783021Y313760D02*
X789123Y313760D01*
X783021Y317106D02*
X783021Y313760D01*
X783021Y317106D02*
X789123Y317106D01*
X789123Y313760D01*
X783021Y319760D02*
X789123D01*
X783021D02*
Y323106D01*
X789123D01*
Y319760D02*
Y323106D01*
X381011Y430008D02*
X387310D01*
Y426858D02*
Y430008D01*
X381011Y426858D02*
X387310D01*
X381011D02*
Y430008D01*
X414361Y316512D02*
X426959D01*
X414361D02*
Y326354D01*
X426959D01*
Y316512D02*
Y326354D01*
X414361Y329512D02*
X426959D01*
X414361D02*
Y339354D01*
X426959D01*
Y329512D02*
Y339354D01*
X414361Y360512D02*
X426959D01*
X414361D02*
Y370354D01*
X426959D01*
Y360512D02*
Y370354D01*
X414361Y347512D02*
X426959D01*
X414361D02*
Y357354D01*
X426959D01*
Y347512D02*
Y357354D01*
X414361Y378512D02*
X426959D01*
X414361D02*
Y388354D01*
X426959D01*
Y378512D02*
Y388354D01*
X417511Y345008D02*
X423810D01*
Y341858D02*
Y345008D01*
X417511Y341858D02*
X423810D01*
X417511D02*
Y345008D01*
X358085Y362283D02*
X361235D01*
Y368583D01*
X358085D02*
X361235D01*
X358085Y362283D02*
Y368583D01*
X284011Y328358D02*
X290310D01*
X284011D02*
Y331508D01*
X290310D01*
Y328358D02*
Y331508D01*
X303739Y313732D02*
X313581D01*
X303739Y301134D02*
Y313732D01*
Y301134D02*
X313581D01*
Y313732D01*
X278085Y315528D02*
Y321827D01*
X281235D01*
Y315528D02*
Y321827D01*
X278085Y315528D02*
X281235D01*
X354581Y390134D02*
Y402732D01*
X344739Y390134D02*
X354581D01*
X344739D02*
Y402732D01*
X354581D01*
X459703Y330394D02*
X467617D01*
Y325472D02*
Y330394D01*
X459703Y325472D02*
X467617D01*
X459703D02*
Y330394D01*
X284452Y309114D02*
X288192Y305374D01*
X284452D02*
X295869D01*
Y310492D01*
X284452D02*
X295869D01*
X284452Y305374D02*
Y310492D01*
X459703Y378894D02*
X467617D01*
Y373972D02*
Y378894D01*
X459703Y373972D02*
X467617D01*
X459703D02*
Y378894D01*
X417511Y372858D02*
Y376008D01*
Y372858D02*
X423810D01*
Y376008D01*
X417511D02*
X423810D01*
X417511Y403858D02*
Y407008D01*
Y403858D02*
X423810D01*
Y407008D01*
X417511D02*
X423810D01*
X340010Y414598D02*
X343751Y418339D01*
X340010Y406528D02*
Y418339D01*
Y406528D02*
X346310D01*
Y418339D01*
X340010D02*
X346310D01*
X323511Y430008D02*
X329810D01*
Y426858D02*
Y430008D01*
X323511Y426858D02*
X329810D01*
X323511D02*
Y430008D01*
X340810Y426858D02*
Y430008D01*
X334510D02*
X340810D01*
X334510Y426858D02*
Y430008D01*
Y426858D02*
X340810D01*
X374310Y358358D02*
Y361508D01*
X368010D02*
X374310D01*
X368010Y358358D02*
Y361508D01*
Y358358D02*
X374310D01*
X362349Y373122D02*
Y396744D01*
X385971D01*
Y373122D02*
Y396744D01*
X362349Y373122D02*
X385971D01*
X362349Y375091D02*
X364318Y373122D01*
X372235Y409283D02*
Y415583D01*
X369085Y409283D02*
X372235D01*
X369085D02*
Y415583D01*
X372235D01*
X360735Y409283D02*
Y415583D01*
X357585Y409283D02*
X360735D01*
X357585D02*
Y415583D01*
X360735D01*
X318081Y319028D02*
X320640Y321587D01*
Y319028D02*
Y330839D01*
X308829D02*
X320640D01*
X308829Y319028D02*
Y330839D01*
Y319028D02*
X320640D01*
X278585Y304634D02*
Y310933D01*
X281735D01*
Y304634D02*
Y310933D01*
X278585Y304634D02*
X281735D01*
X269735D02*
Y310933D01*
X266585Y304634D02*
X269735D01*
X266585D02*
Y310933D01*
X269735D01*
X390735Y409283D02*
Y415583D01*
X387585Y409283D02*
X390735D01*
X387585D02*
Y415583D01*
X390735D01*
X292511Y319358D02*
Y322508D01*
Y319358D02*
X298810D01*
Y322508D01*
X292511D02*
X298810D01*
X250511Y294358D02*
X256810D01*
X250511D02*
Y297508D01*
X256810D01*
Y294358D02*
Y297508D01*
X337884Y315358D02*
Y318508D01*
X331585D02*
X337884D01*
X331585Y315358D02*
Y318508D01*
Y315358D02*
X337884D01*
X319010Y341358D02*
X325310D01*
X319010D02*
Y344508D01*
X325310D01*
Y341358D02*
Y344508D01*
X264991Y359154D02*
X266566Y360728D01*
X264991Y335138D02*
Y360728D01*
Y335138D02*
X306329D01*
Y360728D01*
X264991D02*
X306329D01*
X314585Y384784D02*
Y391083D01*
X317735D01*
Y384784D02*
Y391083D01*
X314585Y384784D02*
X317735D01*
X264065Y429411D02*
X273907D01*
Y442009D01*
X264065D02*
X273907D01*
X264065Y429411D02*
Y442009D01*
X258085Y367083D02*
X261235D01*
X258085Y360784D02*
Y367083D01*
Y360784D02*
X261235D01*
Y367083D01*
X311203Y358472D02*
X319117D01*
X311203D02*
Y363394D01*
X319117D01*
Y358472D02*
Y363394D01*
X299085Y376083D02*
X302235D01*
X299085Y369783D02*
Y376083D01*
Y369783D02*
X302235D01*
Y376083D01*
X288735Y369783D02*
Y376083D01*
X285585Y369783D02*
X288735D01*
X285585D02*
Y376083D01*
X288735D01*
X323511Y420858D02*
X329810D01*
X323511D02*
Y424008D01*
X329810D01*
Y420858D02*
Y424008D01*
X285550Y434953D02*
X294605Y444008D01*
X285550Y418417D02*
Y444008D01*
Y418417D02*
X299329D01*
Y444008D01*
X285550D02*
X299329D01*
X272585Y304634D02*
X275735D01*
Y310933D01*
X272585D02*
X275735D01*
X272585Y304634D02*
Y310933D01*
X260585D02*
X263735D01*
X260585Y304634D02*
Y310933D01*
Y304634D02*
X263735D01*
Y310933D01*
X254585D02*
X257735D01*
X254585Y304634D02*
Y310933D01*
Y304634D02*
X257735D01*
Y310933D01*
X290585Y376083D02*
X293735D01*
X290585Y369783D02*
Y376083D01*
Y369783D02*
X293735D01*
Y376083D01*
X271585D02*
X274735D01*
X271585Y369783D02*
Y376083D01*
Y369783D02*
X274735D01*
Y376083D01*
X251239Y421134D02*
Y433732D01*
X261081D01*
Y421134D02*
Y433732D01*
X251239Y421134D02*
X261081D01*
X329510Y391508D02*
X335810D01*
Y388358D02*
Y391508D01*
X329510Y388358D02*
X335810D01*
X329510D02*
Y391508D01*
X308861Y366012D02*
Y375854D01*
Y366012D02*
X321459D01*
Y375854D01*
X308861D02*
X321459D01*
X426959Y409512D02*
Y419354D01*
X414361D02*
X426959D01*
X414361Y409512D02*
Y419354D01*
Y409512D02*
X426959D01*
Y422512D02*
Y432354D01*
X414361D02*
X426959D01*
X414361Y422512D02*
Y432354D01*
Y422512D02*
X426959D01*
X359739Y354732D02*
X369581D01*
X359739Y342134D02*
Y354732D01*
Y342134D02*
X369581D01*
Y354732D01*
X372739Y342134D02*
X382581D01*
Y354732D01*
X372739D02*
X382581D01*
X372739Y342134D02*
Y354732D01*
X426959Y391512D02*
Y401354D01*
X414361D02*
X426959D01*
X414361Y391512D02*
Y401354D01*
Y391512D02*
X426959D01*
X465699Y422890D02*
X470621D01*
X465699Y414976D02*
Y422890D01*
Y414976D02*
X470621D01*
Y422890D01*
X363810Y329358D02*
Y332508D01*
X357510D02*
X363810D01*
X357510Y329358D02*
Y332508D01*
Y329358D02*
X363810D01*
Y315358D02*
Y318508D01*
X357510D02*
X363810D01*
X357510Y315358D02*
Y318508D01*
Y315358D02*
X363810D01*
Y322358D02*
Y325508D01*
X357510D02*
X363810D01*
X357510Y322358D02*
Y325508D01*
Y322358D02*
X363810D01*
X275511Y455358D02*
Y458508D01*
Y455358D02*
X281810D01*
Y458508D01*
X275511D02*
X281810D01*
X257310Y443358D02*
Y446508D01*
X251010D02*
X257310D01*
X251010Y443358D02*
Y446508D01*
Y443358D02*
X257310D01*
X348810Y322358D02*
Y325508D01*
X342511D02*
X348810D01*
X342511Y322358D02*
Y325508D01*
Y322358D02*
X348810D01*
Y315358D02*
Y318508D01*
X342511D02*
X348810D01*
X342511Y315358D02*
Y318508D01*
Y315358D02*
X348810D01*
Y329358D02*
Y332508D01*
X342511D02*
X348810D01*
X342511Y329358D02*
Y332508D01*
Y329358D02*
X348810D01*
X381585Y415583D02*
X384735D01*
X381585Y409283D02*
Y415583D01*
Y409283D02*
X384735D01*
Y415583D01*
X390010Y315358D02*
Y318508D01*
Y315358D02*
X396310D01*
Y318508D01*
X390010D02*
X396310D01*
X257310Y449358D02*
Y452508D01*
X251010D02*
X257310D01*
X251010Y449358D02*
Y452508D01*
Y449358D02*
X257310D01*
X363585Y409283D02*
X366735D01*
Y415583D01*
X363585D02*
X366735D01*
X363585Y409283D02*
Y415583D01*
X354310Y420858D02*
Y424008D01*
X348010D02*
X354310D01*
X348010Y420858D02*
Y424008D01*
Y420858D02*
X354310D01*
X348010Y426858D02*
Y430008D01*
Y426858D02*
X354310D01*
Y430008D01*
X348010D02*
X354310D01*
X251010Y457457D02*
X252062Y458508D01*
X251010Y455358D02*
Y458508D01*
Y455358D02*
X257310D01*
Y458508D01*
X251010D02*
X257310D01*
X263510Y457457D02*
X264562Y458508D01*
X263510Y455358D02*
Y458508D01*
Y455358D02*
X269810D01*
Y458508D01*
X263510D02*
X269810D01*
X252010Y338008D02*
X258310D01*
Y334858D02*
Y338008D01*
X252010Y334858D02*
X258310D01*
X252010D02*
Y338008D01*
X319010Y346858D02*
X325310D01*
X319010D02*
Y350008D01*
X325310D01*
Y346858D02*
Y350008D01*
X252010Y333008D02*
X258310D01*
Y329858D02*
Y333008D01*
X252010Y329858D02*
X258310D01*
X252010D02*
Y333008D01*
X329510Y386508D02*
X335810D01*
Y383358D02*
Y386508D01*
X329510Y383358D02*
X335810D01*
X329510D02*
Y386508D01*
X331585Y329358D02*
X337884D01*
X331585D02*
Y332508D01*
X337884D01*
Y329358D02*
Y332508D01*
X331585Y322358D02*
X337884D01*
X331585D02*
Y325508D01*
X337884D01*
Y322358D02*
Y325508D01*
X379235Y409283D02*
Y415583D01*
X376085Y409283D02*
X379235D01*
X376085D02*
Y415583D01*
X379235D01*
X358910Y426858D02*
X365210D01*
X358910D02*
Y430008D01*
X365210D01*
Y426858D02*
Y430008D01*
X254585Y315646D02*
X257735D01*
Y321945D01*
X254585D02*
X257735D01*
X254585Y315646D02*
Y321945D01*
X266585Y315646D02*
X269735D01*
Y321945D01*
X266585D02*
X269735D01*
X266585Y315646D02*
Y321945D01*
M02*
