G04*
G04 #@! TF.GenerationSoftware,Altium Limited,Altium Designer,21.0.8 (223)*
G04*
G04 Layer_Physical_Order=4*
G04 Layer_Color=16711680*
%FSLAX25Y25*%
%MOIN*%
G70*
G04*
G04 #@! TF.SameCoordinates,B676E1CA-0217-40F3-8002-BB03906CADE6*
G04*
G04*
G04 #@! TF.FilePolarity,Positive*
G04*
G01*
G75*
%ADD11C,0.00787*%
%ADD15C,0.01181*%
%ADD19R,0.08661X0.06299*%
%ADD20R,0.07087X0.02756*%
G04:AMPARAMS|DCode=37|XSize=236.22mil|YSize=236.22mil|CornerRadius=11.81mil|HoleSize=0mil|Usage=FLASHONLY|Rotation=0.000|XOffset=0mil|YOffset=0mil|HoleType=Round|Shape=RoundedRectangle|*
%AMROUNDEDRECTD37*
21,1,0.23622,0.21260,0,0,0.0*
21,1,0.21260,0.23622,0,0,0.0*
1,1,0.02362,0.10630,-0.10630*
1,1,0.02362,-0.10630,-0.10630*
1,1,0.02362,-0.10630,0.10630*
1,1,0.02362,0.10630,0.10630*
%
%ADD37ROUNDEDRECTD37*%
G04:AMPARAMS|DCode=39|XSize=314.96mil|YSize=236.22mil|CornerRadius=11.81mil|HoleSize=0mil|Usage=FLASHONLY|Rotation=180.000|XOffset=0mil|YOffset=0mil|HoleType=Round|Shape=RoundedRectangle|*
%AMROUNDEDRECTD39*
21,1,0.31496,0.21260,0,0,180.0*
21,1,0.29134,0.23622,0,0,180.0*
1,1,0.02362,-0.14567,0.10630*
1,1,0.02362,0.14567,0.10630*
1,1,0.02362,0.14567,-0.10630*
1,1,0.02362,-0.14567,-0.10630*
%
%ADD39ROUNDEDRECTD39*%
%ADD107C,0.02362*%
%ADD109C,0.01575*%
%ADD110C,0.02756*%
%ADD113O,0.05906X0.03937*%
%ADD114O,0.03937X0.05906*%
%ADD115C,0.03347*%
%ADD116C,0.23622*%
%ADD117C,0.02362*%
%ADD118C,0.01968*%
%ADD119C,0.03150*%
G36*
X174000Y176363D02*
Y144792D01*
X173000Y144377D01*
X172952Y144425D01*
X172334Y144681D01*
X171666D01*
X171048Y144425D01*
X170575Y143952D01*
X170319Y143334D01*
Y142666D01*
X170575Y142048D01*
X171048Y141575D01*
X171666Y141319D01*
X172334D01*
X172952Y141575D01*
X173000Y141623D01*
X174000Y141208D01*
Y138701D01*
X173000Y138357D01*
X172887Y138433D01*
X172500Y138510D01*
X166500D01*
X166113Y138433D01*
X165786Y138214D01*
X164049Y136478D01*
X163851Y136181D01*
X163666D01*
X163048Y135925D01*
X162575Y135452D01*
X162319Y134834D01*
Y134166D01*
X162575Y133548D01*
X163048Y133075D01*
X163666Y132819D01*
X164334D01*
X164952Y133075D01*
X165425Y133548D01*
X165681Y134166D01*
Y134354D01*
X165697Y134377D01*
X165774Y134764D01*
Y135345D01*
X166918Y136490D01*
X168198D01*
X168613Y135490D01*
X168575Y135452D01*
X168319Y134834D01*
Y134166D01*
X168422Y133918D01*
X168421Y133917D01*
X168387Y133863D01*
X168340Y133801D01*
X168280Y133731D01*
X168200Y133647D01*
X168188Y133616D01*
X167786Y133214D01*
X167567Y132887D01*
X167490Y132500D01*
Y114199D01*
X166490Y114100D01*
X166433Y114386D01*
X166214Y114714D01*
X160440Y120488D01*
X160113Y120707D01*
X160019Y120726D01*
X159925Y120952D01*
X159452Y121425D01*
X158834Y121681D01*
X158166D01*
X157548Y121425D01*
X157075Y120952D01*
X156819Y120334D01*
Y119666D01*
X156955Y119336D01*
X156107Y118770D01*
X155952Y118925D01*
X155334Y119181D01*
X154666D01*
X154048Y118925D01*
X153711Y118946D01*
X153192Y119612D01*
X153181Y119666D01*
Y120334D01*
X152925Y120952D01*
X152452Y121425D01*
X151834Y121681D01*
X151166D01*
X150548Y121425D01*
X150075Y120952D01*
X149819Y120334D01*
Y119807D01*
X149440Y119523D01*
X148895Y119317D01*
X144356Y123856D01*
X143963Y124118D01*
X143500Y124211D01*
X143500Y124211D01*
X137500D01*
X137500Y124211D01*
X137037Y124118D01*
X136644Y123856D01*
X136644Y123856D01*
X133499Y120711D01*
X115395D01*
X115211Y121069D01*
X115088Y121711D01*
X115425Y122048D01*
X115681Y122666D01*
Y123334D01*
X115425Y123952D01*
X114952Y124425D01*
X114334Y124681D01*
X113666D01*
X113048Y124425D01*
X112575Y123952D01*
X112319Y123334D01*
Y122666D01*
X112575Y122048D01*
X112912Y121711D01*
X112789Y121069D01*
X112605Y120711D01*
X75000D01*
X75000Y120711D01*
X74537Y120618D01*
X74144Y120356D01*
X47644Y93856D01*
X47381Y93463D01*
X47289Y93000D01*
X47289Y93000D01*
Y82113D01*
X47280Y82090D01*
X47279Y81960D01*
X47272Y81649D01*
X47075Y81452D01*
X46819Y80834D01*
Y80166D01*
X47075Y79548D01*
X47548Y79075D01*
X48166Y78819D01*
X48834D01*
X49452Y79075D01*
X49925Y79548D01*
X50181Y80166D01*
Y80834D01*
X49925Y81452D01*
X49745Y81632D01*
X49720Y82112D01*
X49711Y82131D01*
Y92498D01*
X75502Y118289D01*
X78241D01*
X78550Y117572D01*
X78577Y117289D01*
X56644Y95356D01*
X56381Y94963D01*
X56289Y94500D01*
X56289Y94500D01*
Y82202D01*
X55797Y81859D01*
X55492Y81712D01*
X55376Y81676D01*
X55119Y81758D01*
X54952Y81925D01*
X54334Y82181D01*
X53666D01*
X53048Y81925D01*
X52575Y81452D01*
X52319Y80834D01*
Y80166D01*
X52575Y79548D01*
X53048Y79075D01*
X53666Y78819D01*
X54334D01*
X54952Y79075D01*
X55119Y79242D01*
X55750Y79444D01*
X56381Y79242D01*
X56548Y79075D01*
X57166Y78819D01*
X57834D01*
X58452Y79075D01*
X58619Y79242D01*
X59250Y79444D01*
X59881Y79242D01*
X60048Y79075D01*
X60666Y78819D01*
X61334D01*
X61952Y79075D01*
X62425Y79548D01*
X62681Y80166D01*
Y80834D01*
X62425Y81452D01*
X62245Y81632D01*
X62220Y82112D01*
X62211Y82131D01*
Y92498D01*
X82002Y112289D01*
X133999D01*
X137003Y109285D01*
X137013Y109262D01*
X137105Y109169D01*
X137319Y108944D01*
Y108666D01*
X137575Y108048D01*
X138048Y107575D01*
X138666Y107319D01*
X139334D01*
X139952Y107575D01*
X140425Y108048D01*
X140681Y108666D01*
Y109334D01*
X140425Y109952D01*
X139952Y110425D01*
X139334Y110681D01*
X139080D01*
X138723Y111002D01*
X138703Y111009D01*
X135356Y114356D01*
X134963Y114619D01*
X134500Y114711D01*
X134500Y114711D01*
X123502D01*
X123244Y115085D01*
X122993Y115711D01*
X123181Y116166D01*
Y116834D01*
X122993Y117289D01*
X123244Y117915D01*
X123502Y118289D01*
X134000D01*
X134000Y118289D01*
X134463Y118382D01*
X134856Y118644D01*
X137431Y121219D01*
X137581Y121167D01*
X138319Y120334D01*
Y119666D01*
X138575Y119048D01*
X139048Y118575D01*
X139666Y118319D01*
X140334D01*
X140952Y118575D01*
X141425Y119048D01*
X141681Y119666D01*
Y120334D01*
X141493Y120789D01*
X141744Y121415D01*
X142002Y121789D01*
X142999D01*
X148144Y116644D01*
X148144Y116644D01*
X148537Y116382D01*
X149000Y116289D01*
X153386D01*
X153410Y116280D01*
X153540Y116279D01*
X153851Y116272D01*
X154048Y116075D01*
X154666Y115819D01*
X155334D01*
X155952Y116075D01*
X156425Y116548D01*
X156681Y117166D01*
Y117834D01*
X156545Y118164D01*
X157393Y118730D01*
X157548Y118575D01*
X158166Y118319D01*
X158834D01*
X159452Y118575D01*
X159475Y118597D01*
X164490Y113582D01*
Y45418D01*
X151776Y32704D01*
X150842Y32731D01*
X150612Y32961D01*
Y37039D01*
X150842Y37269D01*
X151173Y38068D01*
Y38932D01*
X150842Y39731D01*
X150612Y39961D01*
Y44039D01*
X150842Y44269D01*
X151173Y45068D01*
Y45932D01*
X150842Y46731D01*
X150231Y47342D01*
X149689Y47567D01*
X149888Y48567D01*
X150698D01*
X151004Y48694D01*
X151357Y49047D01*
X151484Y49354D01*
X151484Y59731D01*
X151484Y60205D01*
X151484Y60205D01*
X151445Y60298D01*
X151438Y60398D01*
X151438Y60398D01*
X151438Y60398D01*
X151384Y60445D01*
X151357Y60511D01*
X151357D01*
X151357Y60511D01*
X151264Y60549D01*
X151188Y60615D01*
X151117Y60610D01*
X151051Y60638D01*
X151051Y60638D01*
X150663Y60638D01*
X146911D01*
Y77558D01*
X146952Y77575D01*
X147425Y78048D01*
X147681Y78666D01*
Y78758D01*
X149159Y80235D01*
X149179D01*
X149796Y80491D01*
X150269Y80964D01*
X150525Y81582D01*
Y82251D01*
X150269Y82869D01*
X149796Y83342D01*
X149179Y83597D01*
X148510D01*
X147892Y83342D01*
X147419Y82869D01*
X147163Y82251D01*
Y82231D01*
X145575Y80644D01*
X145048Y80425D01*
X144575Y79952D01*
X144319Y79334D01*
Y79117D01*
X144196Y78934D01*
X144089Y78394D01*
Y60638D01*
X139949D01*
X139643Y60511D01*
X139516Y60205D01*
Y49000D01*
X139643Y48694D01*
X139949Y48567D01*
X148112Y48567D01*
X148311Y47567D01*
X147769Y47342D01*
X147158Y46731D01*
X146827Y45932D01*
Y45068D01*
X147158Y44269D01*
X147388Y44039D01*
Y39961D01*
X147158Y39731D01*
X146827Y38932D01*
Y38068D01*
X147158Y37269D01*
X147388Y37039D01*
Y32961D01*
X147158Y32731D01*
X146827Y31932D01*
Y31607D01*
X144332Y29112D01*
X135241D01*
X135000Y29916D01*
X134990Y30112D01*
X135425Y30548D01*
X135681Y31166D01*
Y31834D01*
X135425Y32452D01*
X134952Y32925D01*
X134334Y33181D01*
X133666D01*
X133048Y32925D01*
X132575Y32452D01*
X132319Y31834D01*
Y31166D01*
X132575Y30548D01*
X133010Y30112D01*
X133000Y29916D01*
X132759Y29112D01*
X94142D01*
X93770Y29360D01*
X93000Y29513D01*
X86000D01*
X85229Y29360D01*
X84858Y29112D01*
X74668D01*
X62659Y41121D01*
X62658Y41124D01*
X62365Y41440D01*
X62141Y41726D01*
X61976Y41991D01*
X61910Y42136D01*
X61952Y43075D01*
X62425Y43548D01*
X62681Y44166D01*
Y44834D01*
X62425Y45452D01*
X61952Y45925D01*
X61334Y46181D01*
X60740D01*
X60569Y46380D01*
X60226Y47081D01*
X67072Y53928D01*
X67072Y53928D01*
X67248Y54190D01*
X67309Y54500D01*
X67309Y54500D01*
Y61221D01*
X67318Y61234D01*
X68139Y61691D01*
X90165D01*
X90428Y61428D01*
X90428Y61428D01*
X90690Y61252D01*
X91000Y61191D01*
X91000Y61191D01*
X93624D01*
X93661Y61174D01*
X93753Y61170D01*
X93824Y61161D01*
X93893Y61147D01*
X93959Y61127D01*
X94024Y61102D01*
X94060Y61084D01*
X94075Y61048D01*
X94242Y60881D01*
X94444Y60250D01*
X94242Y59619D01*
X94075Y59452D01*
X93819Y58834D01*
Y58166D01*
X94075Y57548D01*
X94548Y57075D01*
X95166Y56819D01*
X95834D01*
X96452Y57075D01*
X96925Y57548D01*
X97181Y58166D01*
Y58834D01*
X96925Y59452D01*
X96758Y59619D01*
X96556Y60250D01*
X96758Y60881D01*
X96925Y61048D01*
X97181Y61666D01*
Y62334D01*
X96925Y62952D01*
X96452Y63425D01*
X95834Y63681D01*
X95605D01*
X95269Y63703D01*
X95097Y63918D01*
X94950Y64144D01*
X94859Y64340D01*
X94794Y64605D01*
X94800Y64614D01*
X94845Y64672D01*
X94908Y64739D01*
X94922Y64777D01*
X95835Y65691D01*
X119500D01*
X119500Y65691D01*
X119810Y65752D01*
X120072Y65928D01*
X126572Y72428D01*
X126572Y72428D01*
X126748Y72690D01*
X126809Y73000D01*
X126809Y73000D01*
Y95165D01*
X130245Y98601D01*
X130284Y98615D01*
X130351Y98678D01*
X130408Y98722D01*
X130466Y98760D01*
X130527Y98793D01*
X130592Y98821D01*
X130629Y98834D01*
X130666Y98819D01*
X131334D01*
X131952Y99075D01*
X132425Y99548D01*
X132681Y100166D01*
Y100834D01*
X132425Y101452D01*
X131952Y101925D01*
X131334Y102181D01*
X130666D01*
X130048Y101925D01*
X129575Y101452D01*
X129319Y100834D01*
Y100166D01*
X129334Y100129D01*
X129321Y100092D01*
X129293Y100028D01*
X129260Y99967D01*
X129222Y99908D01*
X129178Y99851D01*
X129115Y99784D01*
X129101Y99746D01*
X125428Y96072D01*
X125252Y95810D01*
X125191Y95500D01*
X125191Y95500D01*
Y73335D01*
X119165Y67309D01*
X95500D01*
X95190Y67248D01*
X94928Y67072D01*
X93806Y65950D01*
X93769Y65937D01*
X93768Y65935D01*
X93766Y65935D01*
X93699Y65872D01*
X93643Y65829D01*
X93586Y65792D01*
X93527Y65761D01*
X93465Y65736D01*
X93419Y65721D01*
X93334Y65756D01*
X92666D01*
X92048Y65500D01*
X91575Y65027D01*
X91319Y64409D01*
Y64088D01*
X91204Y63898D01*
X90613Y63403D01*
X90415Y63309D01*
X68139D01*
X67318Y63766D01*
X67309Y63779D01*
Y77895D01*
X67666Y78819D01*
X68334D01*
X68952Y79075D01*
X69425Y79548D01*
X69681Y80166D01*
Y80834D01*
X69425Y81452D01*
X68952Y81925D01*
X68334Y82181D01*
X67666D01*
X67048Y81925D01*
X66575Y81452D01*
X66319Y80834D01*
Y80166D01*
X66334Y80129D01*
X66321Y80092D01*
X66293Y80028D01*
X66260Y79966D01*
X66222Y79908D01*
X66178Y79851D01*
X66115Y79784D01*
X66101Y79746D01*
X65928Y79572D01*
X65752Y79310D01*
X65691Y79000D01*
X65691Y79000D01*
Y62598D01*
X65682Y62585D01*
X65691Y62539D01*
Y62461D01*
X65682Y62415D01*
X65691Y62402D01*
Y54835D01*
X57665Y46809D01*
X44376D01*
X44339Y46826D01*
X44247Y46830D01*
X44176Y46839D01*
X44107Y46853D01*
X44041Y46873D01*
X43976Y46898D01*
X43940Y46916D01*
X43925Y46952D01*
X43452Y47425D01*
X42834Y47681D01*
X42166D01*
X41548Y47425D01*
X41075Y46952D01*
X40819Y46334D01*
Y45666D01*
X41075Y45048D01*
X40596Y44112D01*
X37069D01*
X37066Y44113D01*
X36644Y44136D01*
X36300Y44196D01*
X36011Y44293D01*
X35773Y44420D01*
X35579Y44579D01*
X35421Y44773D01*
X35293Y45011D01*
X35196Y45300D01*
X35136Y45644D01*
X35113Y46066D01*
X35112Y46069D01*
Y86332D01*
X55265Y106485D01*
X55614Y107008D01*
X55737Y107625D01*
Y130164D01*
X55967Y130394D01*
X56298Y131193D01*
Y132057D01*
X55967Y132856D01*
X55356Y133467D01*
X55115Y133567D01*
X55314Y134567D01*
X65321D01*
X74194Y125694D01*
X74500Y125567D01*
X101500Y125567D01*
X101806Y125694D01*
X101933Y126000D01*
X101933Y176363D01*
X174000Y176363D01*
D02*
G37*
G36*
X259764Y140327D02*
X254055D01*
X251894Y138165D01*
Y134681D01*
X220819D01*
X216499Y139001D01*
X216504Y176311D01*
X259764Y176311D01*
X259764Y140327D01*
D02*
G37*
G36*
X170342Y133370D02*
X170300Y133353D01*
X170252Y133329D01*
X170199Y133296D01*
X170139Y133255D01*
X170004Y133147D01*
X169845Y133005D01*
X169665Y132829D01*
X168513Y133348D01*
X168601Y133440D01*
X168677Y133529D01*
X168742Y133615D01*
X168796Y133698D01*
X168838Y133779D01*
X168868Y133856D01*
X168887Y133930D01*
X168895Y134001D01*
X168892Y134070D01*
X168877Y134135D01*
X170342Y133370D01*
D02*
G37*
G36*
X101500Y176363D02*
X101500Y126000D01*
X74500Y126000D01*
X65500Y135000D01*
X43500D01*
Y158500D01*
X65500D01*
Y176363D01*
X101500D01*
D02*
G37*
G36*
X154156Y116673D02*
X154142Y116681D01*
X154114Y116687D01*
X154073Y116693D01*
X153951Y116703D01*
X153546Y116712D01*
X153411Y116713D01*
Y118287D01*
X154156Y118327D01*
Y116673D01*
D02*
G37*
G36*
X120657Y115673D02*
X120642Y115681D01*
X120614Y115687D01*
X120573Y115693D01*
X120451Y115703D01*
X120046Y115712D01*
X119911Y115713D01*
Y117287D01*
X120657Y117327D01*
Y115673D01*
D02*
G37*
G36*
X307032Y176363D02*
X307078Y175868D01*
X305150Y175405D01*
X303318Y174646D01*
X301627Y173610D01*
X300119Y172322D01*
X298831Y170814D01*
X297795Y169123D01*
X297036Y167291D01*
X296573Y165363D01*
X296418Y163386D01*
X296573Y161409D01*
X297036Y159481D01*
X297795Y157649D01*
X298831Y155958D01*
X300119Y154450D01*
X301627Y153162D01*
X303318Y152126D01*
X305150Y151367D01*
X307078Y150904D01*
X309055Y150749D01*
X311032Y150904D01*
X312960Y151367D01*
X314792Y152126D01*
X316483Y153162D01*
X317991Y154450D01*
X319279Y155958D01*
X320315Y157649D01*
X321074Y159481D01*
X321537Y161409D01*
X322032Y161363D01*
Y113248D01*
X275236Y113248D01*
Y126673D01*
X280945D01*
X282000Y127728D01*
Y134665D01*
X281417Y135248D01*
X262480D01*
X262480Y176363D01*
X307032D01*
D02*
G37*
G36*
X138988Y110181D02*
X137819Y109012D01*
X137814Y109027D01*
X137799Y109052D01*
X137774Y109085D01*
X137694Y109178D01*
X137415Y109471D01*
X137320Y109567D01*
X138433Y110680D01*
X138988Y110181D01*
D02*
G37*
G36*
X130988Y99319D02*
X130869Y99316D01*
X130754Y99305D01*
X130644Y99287D01*
X130537Y99260D01*
X130435Y99225D01*
X130338Y99183D01*
X130244Y99132D01*
X130155Y99074D01*
X130070Y99007D01*
X129990Y98933D01*
X129433Y99490D01*
X129508Y99570D01*
X129574Y99655D01*
X129632Y99744D01*
X129683Y99838D01*
X129726Y99935D01*
X129760Y100037D01*
X129787Y100144D01*
X129806Y100254D01*
X129816Y100369D01*
X129819Y100488D01*
X130988Y99319D01*
D02*
G37*
G36*
X214000Y176363D02*
X214000Y154933D01*
X214000Y137363D01*
X219611Y131752D01*
X272520D01*
X272520Y109752D01*
X272520Y90748D01*
X213248Y90748D01*
X206854Y84354D01*
Y51146D01*
X215248Y42752D01*
X273020Y42752D01*
Y803D01*
X181500D01*
Y176363D01*
X214000D01*
D02*
G37*
G36*
X322032Y68748D02*
X262118Y68748D01*
Y87252D01*
X275236Y87252D01*
X275236Y104173D01*
X281445Y104173D01*
X282500Y105228D01*
X282500Y109252D01*
X301250Y109252D01*
X322032Y109252D01*
X322032Y68748D01*
D02*
G37*
G36*
X61827Y81344D02*
X60173D01*
X60181Y81358D01*
X60187Y81386D01*
X60193Y81427D01*
X60203Y81549D01*
X60212Y81954D01*
X60213Y82089D01*
X61787D01*
X61827Y81344D01*
D02*
G37*
G36*
X58327D02*
X56673D01*
X56681Y81358D01*
X56687Y81386D01*
X56693Y81427D01*
X56703Y81549D01*
X56712Y81954D01*
X56713Y82089D01*
X58287D01*
X58327Y81344D01*
D02*
G37*
G36*
X49327D02*
X47673D01*
X47681Y81358D01*
X47687Y81386D01*
X47693Y81427D01*
X47703Y81549D01*
X47712Y81954D01*
X47713Y82089D01*
X49287D01*
X49327Y81344D01*
D02*
G37*
G36*
X67988Y79319D02*
X67869Y79316D01*
X67754Y79305D01*
X67644Y79287D01*
X67537Y79260D01*
X67435Y79225D01*
X67338Y79183D01*
X67244Y79132D01*
X67155Y79074D01*
X67070Y79008D01*
X66990Y78933D01*
X66433Y79490D01*
X66508Y79570D01*
X66574Y79655D01*
X66632Y79744D01*
X66683Y79838D01*
X66725Y79935D01*
X66760Y80037D01*
X66787Y80144D01*
X66805Y80254D01*
X66816Y80369D01*
X66819Y80488D01*
X67988Y79319D01*
D02*
G37*
G36*
X259402Y87252D02*
X259402Y73827D01*
X253693D01*
X252827Y74693D01*
X237266D01*
X236000Y73427D01*
X236000Y69020D01*
X237020Y68000D01*
X252500Y68000D01*
X253500Y67000D01*
X259402Y67000D01*
Y51327D01*
X253693D01*
X252827Y52193D01*
X237266D01*
X236000Y50927D01*
X236000Y48588D01*
X236000Y46602D01*
X235647Y46248D01*
X215752Y46248D01*
X210000Y52000D01*
X210000Y82500D01*
X214752Y87252D01*
X259402Y87252D01*
D02*
G37*
G36*
X94590Y65033D02*
X94516Y64953D01*
X94449Y64869D01*
X94390Y64780D01*
X94338Y64687D01*
X94293Y64589D01*
X94256Y64487D01*
X94226Y64380D01*
X94204Y64269D01*
X94188Y64154D01*
X94180Y64034D01*
X93065Y65254D01*
X93183Y65252D01*
X93296Y65258D01*
X93406Y65273D01*
X93512Y65296D01*
X93613Y65328D01*
X93711Y65369D01*
X93804Y65418D01*
X93893Y65475D01*
X93979Y65542D01*
X94060Y65617D01*
X94590Y65033D01*
D02*
G37*
G36*
X66902Y63532D02*
X66925Y63398D01*
X66965Y63279D01*
X67020Y63177D01*
X67090Y63090D01*
X67177Y63020D01*
X67279Y62965D01*
X67398Y62925D01*
X67532Y62902D01*
X67681Y62894D01*
Y62106D01*
X67532Y62098D01*
X67398Y62075D01*
X67279Y62035D01*
X67177Y61980D01*
X67090Y61910D01*
X67020Y61823D01*
X66965Y61721D01*
X66925Y61602D01*
X66902Y61468D01*
X66894Y61319D01*
X66106Y62500D01*
X66894Y63681D01*
X66902Y63532D01*
D02*
G37*
G36*
X94656Y61173D02*
X94570Y61256D01*
X94481Y61329D01*
X94390Y61394D01*
X94296Y61450D01*
X94200Y61498D01*
X94100Y61537D01*
X93999Y61567D01*
X93894Y61589D01*
X93787Y61602D01*
X93678Y61606D01*
Y62394D01*
X93787Y62398D01*
X93894Y62411D01*
X93999Y62433D01*
X94100Y62463D01*
X94200Y62502D01*
X94296Y62550D01*
X94390Y62606D01*
X94481Y62671D01*
X94570Y62744D01*
X94656Y62827D01*
Y61173D01*
D02*
G37*
G36*
X151051Y60205D02*
Y49354D01*
X150698Y49000D01*
X139949Y49000D01*
Y60205D01*
X151051D01*
X151051Y60205D01*
D02*
G37*
G36*
X43430Y46744D02*
X43518Y46671D01*
X43610Y46606D01*
X43704Y46550D01*
X43800Y46502D01*
X43900Y46463D01*
X44001Y46433D01*
X44106Y46411D01*
X44213Y46398D01*
X44322Y46394D01*
Y45606D01*
X44213Y45602D01*
X44106Y45589D01*
X44001Y45567D01*
X43900Y45537D01*
X43800Y45498D01*
X43704Y45450D01*
X43610Y45394D01*
X43518Y45329D01*
X43430Y45256D01*
X43343Y45173D01*
Y46827D01*
X43430Y46744D01*
D02*
G37*
G36*
X61835Y43665D02*
X61631Y43427D01*
X61483Y43179D01*
X61391Y42920D01*
X61357Y42652D01*
X61379Y42374D01*
X61458Y42085D01*
X61594Y41786D01*
X61786Y41478D01*
X62035Y41159D01*
X62341Y40830D01*
X60181Y39649D01*
X59840Y39966D01*
X59485Y40250D01*
X59117Y40500D01*
X58734Y40718D01*
X58338Y40901D01*
X57928Y41052D01*
X57504Y41169D01*
X57066Y41252D01*
X56614Y41302D01*
X56149Y41319D01*
Y43681D01*
X56614Y43698D01*
X57065Y43747D01*
X57502Y43830D01*
X57925Y43946D01*
X58334Y44095D01*
X58728Y44277D01*
X59109Y44492D01*
X59475Y44740D01*
X59827Y45021D01*
X60165Y45335D01*
X61835Y43665D01*
D02*
G37*
G36*
X34705Y45594D02*
X34776Y45193D01*
X34894Y44839D01*
X35059Y44532D01*
X35272Y44272D01*
X35531Y44059D01*
X35839Y43894D01*
X36193Y43776D01*
X36595Y43705D01*
X37043Y43681D01*
Y41319D01*
X36595Y41295D01*
X36193Y41224D01*
X35839Y41106D01*
X35531Y40941D01*
X35272Y40728D01*
X35059Y40468D01*
X34894Y40161D01*
X34776Y39807D01*
X34705Y39406D01*
X34681Y38957D01*
X32319Y42500D01*
X34681Y46043D01*
X34705Y45594D01*
D02*
G37*
G36*
X53282Y38106D02*
X53242Y38047D01*
X53206Y37979D01*
X53176Y37903D01*
X53150Y37819D01*
X53128Y37726D01*
X53112Y37624D01*
X53100Y37514D01*
X53091Y37268D01*
X51910D01*
X51907Y37396D01*
X51888Y37624D01*
X51872Y37726D01*
X51850Y37819D01*
X51824Y37903D01*
X51794Y37979D01*
X51758Y38047D01*
X51718Y38106D01*
X51673Y38157D01*
X53327D01*
X53282Y38106D01*
D02*
G37*
G36*
X41282D02*
X41242Y38047D01*
X41206Y37979D01*
X41176Y37903D01*
X41150Y37819D01*
X41128Y37726D01*
X41112Y37624D01*
X41100Y37514D01*
X41091Y37268D01*
X39909D01*
X39907Y37396D01*
X39888Y37624D01*
X39872Y37726D01*
X39850Y37819D01*
X39824Y37903D01*
X39794Y37979D01*
X39758Y38047D01*
X39718Y38106D01*
X39673Y38157D01*
X41327D01*
X41282Y38106D01*
D02*
G37*
G36*
X150308Y32565D02*
X150429Y32466D01*
X150555Y32379D01*
X150686Y32304D01*
X150821Y32240D01*
X150961Y32188D01*
X151106Y32147D01*
X151255Y32118D01*
X151409Y32101D01*
X151568Y32095D01*
X151571Y30914D01*
X151412Y30908D01*
X151259Y30891D01*
X151109Y30862D01*
X150965Y30821D01*
X150825Y30769D01*
X150690Y30705D01*
X150560Y30629D01*
X150435Y30542D01*
X150314Y30443D01*
X150198Y30332D01*
X150192Y32675D01*
X150308Y32565D01*
D02*
G37*
G36*
X56133Y40886D02*
X56582Y40870D01*
X57001Y40824D01*
X57405Y40747D01*
X57795Y40639D01*
X58172Y40501D01*
X58536Y40332D01*
X58888Y40132D01*
X59228Y39901D01*
X59557Y39638D01*
X59886Y39332D01*
X59890Y39330D01*
X72860Y26360D01*
X73383Y26011D01*
X74000Y25888D01*
X84858D01*
X85229Y25640D01*
X85882Y25510D01*
X85784Y24510D01*
X59918D01*
X53510Y30918D01*
Y37223D01*
X53523Y37252D01*
X53532Y37483D01*
X53541Y37566D01*
X53553Y37643D01*
X53563Y37686D01*
X53925Y38048D01*
X54181Y38666D01*
Y39334D01*
X53925Y39952D01*
X54404Y40888D01*
X56129D01*
X56133Y40886D01*
D02*
G37*
G36*
X322032Y64752D02*
Y15802D01*
X321537Y15756D01*
X321074Y17685D01*
X320315Y19517D01*
X319279Y21208D01*
X317991Y22715D01*
X316483Y24003D01*
X314792Y25039D01*
X312960Y25798D01*
X311032Y26261D01*
X309055Y26417D01*
X307078Y26261D01*
X305150Y25798D01*
X303318Y25039D01*
X301627Y24003D01*
X300119Y22715D01*
X298831Y21208D01*
X297795Y19517D01*
X297036Y17685D01*
X296573Y15756D01*
X296418Y13780D01*
X296573Y11803D01*
X297036Y9874D01*
X297795Y8042D01*
X298831Y6352D01*
X300119Y4843D01*
X301627Y3556D01*
X303318Y2520D01*
X305150Y1761D01*
X307078Y1298D01*
X307032Y803D01*
X275736D01*
Y1465D01*
X275736Y37673D01*
X281445D01*
X282500Y38728D01*
Y44803D01*
X281055Y46248D01*
X262118D01*
Y64752D01*
X322032Y64752D01*
D02*
G37*
G36*
X56205Y12094D02*
X56276Y11693D01*
X56394Y11339D01*
X56559Y11032D01*
X56772Y10772D01*
X57032Y10559D01*
X57339Y10394D01*
X57693Y10276D01*
X58095Y10205D01*
X58543Y10181D01*
X55000Y7819D01*
X51457Y10181D01*
X51906Y10205D01*
X52307Y10276D01*
X52661Y10394D01*
X52969Y10559D01*
X53228Y10772D01*
X53441Y11032D01*
X53606Y11339D01*
X53724Y11693D01*
X53795Y12094D01*
X53819Y12543D01*
X56181D01*
X56205Y12094D01*
D02*
G37*
G36*
X44205D02*
X44276Y11693D01*
X44394Y11339D01*
X44559Y11032D01*
X44772Y10772D01*
X45031Y10559D01*
X45339Y10394D01*
X45693Y10276D01*
X46095Y10205D01*
X46543Y10181D01*
X43000Y7819D01*
X39457Y10181D01*
X39906Y10205D01*
X40307Y10276D01*
X40661Y10394D01*
X40968Y10559D01*
X41228Y10772D01*
X41441Y11032D01*
X41606Y11339D01*
X41724Y11693D01*
X41795Y12094D01*
X41819Y12543D01*
X44181D01*
X44205Y12094D01*
D02*
G37*
G36*
X65067Y176363D02*
Y158933D01*
X43500D01*
X43194Y158806D01*
X43067Y158500D01*
Y135000D01*
X43194Y134694D01*
X43500Y134567D01*
X52936D01*
X53135Y133567D01*
X52894Y133467D01*
X52283Y132856D01*
X51952Y132057D01*
Y131193D01*
X52283Y130394D01*
X52513Y130164D01*
Y108293D01*
X32360Y88140D01*
X32011Y87617D01*
X31888Y87000D01*
Y42500D01*
Y11500D01*
X32011Y10883D01*
X32360Y10360D01*
X34860Y7860D01*
X35383Y7511D01*
X36000Y7388D01*
X69207D01*
X69604Y6388D01*
X69331Y6115D01*
X69032Y5392D01*
Y4608D01*
X69331Y3885D01*
X69885Y3331D01*
X70608Y3032D01*
X71392D01*
X72115Y3331D01*
X72669Y3885D01*
X72969Y4608D01*
Y5392D01*
X72669Y6115D01*
X72396Y6388D01*
X72793Y7388D01*
X73616D01*
X74233Y7511D01*
X74756Y7860D01*
X76140Y9244D01*
X76489Y9767D01*
X76612Y10384D01*
Y12999D01*
X76681Y13166D01*
Y13834D01*
X76425Y14452D01*
X75952Y14925D01*
X75334Y15181D01*
X74666D01*
X74048Y14925D01*
X73575Y14452D01*
X73319Y13834D01*
Y13166D01*
X73388Y12999D01*
Y11051D01*
X72948Y10612D01*
X58569D01*
X58566Y10614D01*
X58144Y10636D01*
X57800Y10696D01*
X57511Y10793D01*
X57273Y10921D01*
X57079Y11079D01*
X56920Y11273D01*
X56793Y11511D01*
X56696Y11800D01*
X56636Y12144D01*
X56613Y12566D01*
X56612Y12569D01*
Y14499D01*
X56681Y14666D01*
Y15334D01*
X56425Y15952D01*
X55952Y16425D01*
X55334Y16681D01*
X54666D01*
X54048Y16425D01*
X53575Y15952D01*
X53319Y15334D01*
Y14666D01*
X53388Y14499D01*
Y12569D01*
X53386Y12566D01*
X53364Y12144D01*
X53304Y11800D01*
X53207Y11511D01*
X53079Y11273D01*
X52921Y11079D01*
X52727Y10921D01*
X52489Y10793D01*
X52200Y10696D01*
X51856Y10636D01*
X51434Y10614D01*
X51431Y10612D01*
X46569D01*
X46566Y10614D01*
X46144Y10636D01*
X45800Y10696D01*
X45511Y10793D01*
X45273Y10921D01*
X45079Y11079D01*
X44921Y11273D01*
X44793Y11511D01*
X44696Y11800D01*
X44636Y12144D01*
X44614Y12566D01*
X44612Y12569D01*
Y14499D01*
X44681Y14666D01*
Y15334D01*
X44425Y15952D01*
X43952Y16425D01*
X43334Y16681D01*
X42666D01*
X42048Y16425D01*
X41575Y15952D01*
X41319Y15334D01*
Y14666D01*
X41388Y14499D01*
Y12569D01*
X41387Y12566D01*
X41364Y12144D01*
X41304Y11800D01*
X41207Y11511D01*
X41080Y11273D01*
X40921Y11079D01*
X40727Y10921D01*
X40489Y10793D01*
X40200Y10696D01*
X39856Y10636D01*
X39434Y10614D01*
X39431Y10612D01*
X36668D01*
X35112Y12168D01*
Y38931D01*
X35113Y38934D01*
X35136Y39356D01*
X35196Y39700D01*
X35293Y39989D01*
X35421Y40227D01*
X35579Y40421D01*
X35773Y40580D01*
X36011Y40707D01*
X36300Y40804D01*
X36644Y40864D01*
X37066Y40887D01*
X37069Y40888D01*
X38596D01*
X39075Y39952D01*
X38819Y39334D01*
Y38666D01*
X39075Y38048D01*
X39437Y37686D01*
X39446Y37643D01*
X39458Y37571D01*
X39474Y37374D01*
X39477Y37260D01*
X39490Y37229D01*
Y30500D01*
X39490Y30500D01*
X39567Y30114D01*
X39786Y29786D01*
X49786Y19786D01*
X50113Y19567D01*
X50500Y19490D01*
X149000D01*
X149387Y19567D01*
X149714Y19786D01*
X172214Y42286D01*
X172433Y42614D01*
X172510Y43000D01*
Y129907D01*
X173019Y130312D01*
X174000Y129876D01*
Y803D01*
X12929D01*
X11242Y1025D01*
X9599Y1465D01*
X8028Y2116D01*
X6555Y2967D01*
X5205Y4002D01*
X4002Y5205D01*
X2967Y6555D01*
X2116Y8028D01*
X1465Y9599D01*
X1025Y11242D01*
X803Y12929D01*
Y13780D01*
X803Y163386D01*
X803Y164236D01*
X1025Y165923D01*
X1465Y167566D01*
X2116Y169138D01*
X2967Y170611D01*
X4002Y171960D01*
X5205Y173163D01*
X6555Y174199D01*
X8028Y175049D01*
X9599Y175700D01*
X11242Y176140D01*
X12929Y176363D01*
X13780D01*
X65067D01*
D02*
G37*
%LPC*%
G36*
X140106Y138681D02*
X139437D01*
X138819Y138425D01*
X138347Y137952D01*
X138091Y137334D01*
Y136666D01*
X138347Y136048D01*
X138819Y135575D01*
X139437Y135319D01*
X140106D01*
X140724Y135575D01*
X141197Y136048D01*
X141453Y136666D01*
Y137334D01*
X141197Y137952D01*
X140724Y138425D01*
X140106Y138681D01*
D02*
G37*
G36*
X114334D02*
X113666D01*
X113048Y138425D01*
X112575Y137952D01*
X112319Y137334D01*
Y136666D01*
X112575Y136048D01*
X113048Y135575D01*
X113666Y135319D01*
X114334D01*
X114952Y135575D01*
X115425Y136048D01*
X115681Y136666D01*
Y137334D01*
X115425Y137952D01*
X114952Y138425D01*
X114334Y138681D01*
D02*
G37*
G36*
X134334Y128681D02*
X133666D01*
X133048Y128425D01*
X132575Y127952D01*
X132319Y127334D01*
Y126666D01*
X132575Y126048D01*
X133048Y125575D01*
X133666Y125319D01*
X134334D01*
X134952Y125575D01*
X135425Y126048D01*
X135681Y126666D01*
Y127334D01*
X135425Y127952D01*
X134952Y128425D01*
X134334Y128681D01*
D02*
G37*
G36*
X97334Y111181D02*
X96666D01*
X96048Y110925D01*
X95575Y110452D01*
X95319Y109834D01*
Y109166D01*
X95575Y108548D01*
X96048Y108075D01*
X96666Y107819D01*
X97334D01*
X97952Y108075D01*
X98425Y108548D01*
X98681Y109166D01*
Y109834D01*
X98425Y110452D01*
X97952Y110925D01*
X97334Y111181D01*
D02*
G37*
G36*
X106932Y106673D02*
X106068D01*
X105269Y106342D01*
X104805Y105879D01*
X104515Y105738D01*
X103596Y105781D01*
X103452Y105925D01*
X102834Y106181D01*
X102166D01*
X101548Y105925D01*
X101075Y105452D01*
X100819Y104834D01*
Y104166D01*
X101075Y103548D01*
X100526Y102738D01*
X95144Y97356D01*
X94881Y96963D01*
X94789Y96500D01*
X94789Y96500D01*
Y73501D01*
X92285Y70997D01*
X92262Y70987D01*
X92169Y70895D01*
X91944Y70681D01*
X91666D01*
X91048Y70425D01*
X90575Y69952D01*
X90319Y69334D01*
Y68666D01*
X90575Y68048D01*
X91048Y67575D01*
X91666Y67319D01*
X92334D01*
X92952Y67575D01*
X93425Y68048D01*
X93681Y68666D01*
Y68920D01*
X94002Y69277D01*
X94009Y69297D01*
X96856Y72144D01*
X96856Y72144D01*
X97119Y72537D01*
X97211Y73000D01*
Y95999D01*
X103205Y101993D01*
X103205Y101993D01*
X103468Y102386D01*
X103560Y102849D01*
Y103183D01*
X103596Y103219D01*
X104515Y103262D01*
X104805Y103121D01*
X105269Y102658D01*
X106068Y102327D01*
X106932D01*
X107731Y102658D01*
X108342Y103269D01*
X108673Y104068D01*
Y104932D01*
X108342Y105731D01*
X107731Y106342D01*
X106932Y106673D01*
D02*
G37*
G36*
X134334Y107181D02*
X133666D01*
X133048Y106925D01*
X132575Y106452D01*
X132319Y105834D01*
Y105166D01*
X132575Y104548D01*
X133048Y104075D01*
X133666Y103819D01*
X134334D01*
X134952Y104075D01*
X135425Y104548D01*
X135681Y105166D01*
Y105834D01*
X135425Y106452D01*
X134952Y106925D01*
X134334Y107181D01*
D02*
G37*
G36*
X127834D02*
X127166D01*
X126548Y106925D01*
X126075Y106452D01*
X125819Y105834D01*
Y105166D01*
X126075Y104548D01*
X126548Y104075D01*
X127166Y103819D01*
X127834D01*
X128452Y104075D01*
X128925Y104548D01*
X129181Y105166D01*
Y105834D01*
X128925Y106452D01*
X128452Y106925D01*
X127834Y107181D01*
D02*
G37*
G36*
X133834Y97681D02*
X133166D01*
X132548Y97425D01*
X132075Y96952D01*
X131819Y96334D01*
Y95666D01*
X131834Y95629D01*
X131821Y95592D01*
X131793Y95527D01*
X131760Y95467D01*
X131722Y95408D01*
X131678Y95351D01*
X131615Y95284D01*
X131601Y95245D01*
X128928Y92572D01*
X128752Y92310D01*
X128691Y92000D01*
X128691Y92000D01*
Y60835D01*
X122665Y54809D01*
X95876D01*
X95839Y54826D01*
X95747Y54830D01*
X95676Y54839D01*
X95607Y54853D01*
X95541Y54873D01*
X95476Y54898D01*
X95440Y54916D01*
X95425Y54952D01*
X94952Y55425D01*
X94334Y55681D01*
X93666D01*
X93048Y55425D01*
X92575Y54952D01*
X92319Y54334D01*
Y53666D01*
X92575Y53048D01*
X92583Y53040D01*
X92723Y52882D01*
X92164Y52045D01*
X91834Y52181D01*
X91166D01*
X90548Y51925D01*
X90075Y51452D01*
X89819Y50834D01*
Y50166D01*
X90075Y49548D01*
X90548Y49075D01*
X91166Y48819D01*
X91834D01*
X92452Y49075D01*
X92925Y49548D01*
X92940Y49584D01*
X92976Y49602D01*
X93041Y49627D01*
X93107Y49647D01*
X93176Y49661D01*
X93247Y49670D01*
X93339Y49674D01*
X93376Y49691D01*
X104447D01*
X104759Y48791D01*
X104762Y48691D01*
X101582Y45510D01*
X77777D01*
X77748Y45523D01*
X77517Y45532D01*
X77434Y45541D01*
X77357Y45553D01*
X77314Y45563D01*
X76952Y45925D01*
X76334Y46181D01*
X75666D01*
X75048Y45925D01*
X74575Y45452D01*
X74319Y44834D01*
Y44166D01*
X74575Y43548D01*
X75048Y43075D01*
X75666Y42819D01*
X76334D01*
X76952Y43075D01*
X77314Y43437D01*
X77357Y43446D01*
X77429Y43458D01*
X77626Y43475D01*
X77740Y43477D01*
X77771Y43490D01*
X102000D01*
X102386Y43567D01*
X102714Y43786D01*
X105918Y46990D01*
X131798D01*
X131812Y46980D01*
X132383Y45990D01*
X132319Y45834D01*
Y45166D01*
X132575Y44548D01*
X133048Y44075D01*
X133666Y43819D01*
X134334D01*
X134952Y44075D01*
X135425Y44548D01*
X135681Y45166D01*
Y45834D01*
X135425Y46452D01*
X134952Y46925D01*
X134871Y46959D01*
Y48041D01*
X134952Y48075D01*
X135425Y48548D01*
X135681Y49166D01*
Y49834D01*
X135425Y50452D01*
X134952Y50925D01*
X134334Y51181D01*
X133666D01*
X133048Y50925D01*
X132575Y50452D01*
X132319Y49834D01*
Y49323D01*
X132295Y49285D01*
X132253Y49226D01*
X132125Y49075D01*
X132062Y49010D01*
X127499D01*
X127195Y49664D01*
X127154Y50010D01*
X133572Y56428D01*
X133572Y56428D01*
X133748Y56690D01*
X133809Y57000D01*
X133809Y57000D01*
Y88165D01*
X135246Y89601D01*
X135284Y89615D01*
X135351Y89678D01*
X135408Y89722D01*
X135467Y89760D01*
X135527Y89793D01*
X135592Y89821D01*
X135629Y89834D01*
X135666Y89819D01*
X136334D01*
X136952Y90075D01*
X137425Y90548D01*
X137681Y91166D01*
Y91834D01*
X137425Y92452D01*
X136952Y92925D01*
X136334Y93181D01*
X135666D01*
X135048Y92925D01*
X134575Y92452D01*
X134319Y91834D01*
Y91166D01*
X134334Y91129D01*
X134321Y91092D01*
X134293Y91027D01*
X134260Y90966D01*
X134222Y90908D01*
X134178Y90851D01*
X134115Y90784D01*
X134101Y90746D01*
X132428Y89072D01*
X132252Y88810D01*
X132191Y88500D01*
X132191Y88500D01*
Y57335D01*
X126165Y51309D01*
X93773D01*
X93767Y51319D01*
X94316Y52319D01*
X94334D01*
X94952Y52575D01*
X95425Y53048D01*
X95440Y53084D01*
X95476Y53102D01*
X95541Y53127D01*
X95607Y53147D01*
X95676Y53161D01*
X95747Y53170D01*
X95839Y53174D01*
X95876Y53191D01*
X123000D01*
X123000Y53191D01*
X123310Y53252D01*
X123572Y53428D01*
X130072Y59928D01*
X130072Y59928D01*
X130248Y60190D01*
X130309Y60500D01*
X130309Y60500D01*
Y91665D01*
X132746Y94101D01*
X132784Y94115D01*
X132851Y94178D01*
X132908Y94222D01*
X132966Y94260D01*
X133027Y94293D01*
X133092Y94321D01*
X133129Y94334D01*
X133166Y94319D01*
X133834D01*
X134452Y94575D01*
X134925Y95048D01*
X135181Y95666D01*
Y96334D01*
X134925Y96952D01*
X134452Y97425D01*
X133834Y97681D01*
D02*
G37*
G36*
X90932Y96173D02*
X90068D01*
X89269Y95842D01*
X88658Y95231D01*
X88327Y94432D01*
Y93568D01*
X88658Y92769D01*
X89269Y92158D01*
X90068Y91827D01*
X90932D01*
X91731Y92158D01*
X92342Y92769D01*
X92673Y93568D01*
Y94432D01*
X92342Y95231D01*
X91731Y95842D01*
X90932Y96173D01*
D02*
G37*
G36*
X81834Y82181D02*
X81166D01*
X80548Y81925D01*
X80075Y81452D01*
X79819Y80834D01*
Y80166D01*
X80075Y79548D01*
X80548Y79075D01*
X81166Y78819D01*
X81834D01*
X82452Y79075D01*
X82925Y79548D01*
X83181Y80166D01*
Y80834D01*
X82925Y81452D01*
X82452Y81925D01*
X81834Y82181D01*
D02*
G37*
G36*
X73334D02*
X72666D01*
X72048Y81925D01*
X71575Y81452D01*
X71319Y80834D01*
Y80166D01*
X71575Y79548D01*
X72048Y79075D01*
X72666Y78819D01*
X73334D01*
X73952Y79075D01*
X74425Y79548D01*
X74681Y80166D01*
Y80834D01*
X74425Y81452D01*
X73952Y81925D01*
X73334Y82181D01*
D02*
G37*
G36*
X40834Y73181D02*
X40166D01*
X39548Y72925D01*
X39075Y72452D01*
X38819Y71834D01*
Y71166D01*
X39075Y70548D01*
X39548Y70075D01*
X40166Y69819D01*
X40834D01*
X41452Y70075D01*
X41925Y70548D01*
X42181Y71166D01*
Y71834D01*
X41925Y72452D01*
X41452Y72925D01*
X40834Y73181D01*
D02*
G37*
G36*
X42334Y54681D02*
X41666D01*
X41048Y54425D01*
X40575Y53952D01*
X40319Y53334D01*
Y52666D01*
X40575Y52048D01*
X41048Y51575D01*
X41666Y51319D01*
X42334D01*
X42952Y51575D01*
X43425Y52048D01*
X43681Y52666D01*
Y53334D01*
X43425Y53952D01*
X42952Y54425D01*
X42334Y54681D01*
D02*
G37*
G36*
X134334Y40181D02*
X133666D01*
X133048Y39925D01*
X132575Y39452D01*
X132319Y38834D01*
Y38166D01*
X132575Y37548D01*
X133048Y37075D01*
X133666Y36819D01*
X134334D01*
X134952Y37075D01*
X135425Y37548D01*
X135681Y38166D01*
Y38834D01*
X135425Y39452D01*
X134952Y39925D01*
X134334Y40181D01*
D02*
G37*
G36*
X83334Y37181D02*
X82666D01*
X82048Y36925D01*
X81575Y36452D01*
X81319Y35834D01*
Y35166D01*
X81575Y34548D01*
X82048Y34075D01*
X82666Y33819D01*
X83334D01*
X83952Y34075D01*
X84425Y34548D01*
X84681Y35166D01*
Y35834D01*
X84425Y36452D01*
X83952Y36925D01*
X83334Y37181D01*
D02*
G37*
%LPD*%
G36*
X93680Y69567D02*
X93181Y69012D01*
X92012Y70181D01*
X92027Y70186D01*
X92052Y70201D01*
X92085Y70226D01*
X92178Y70306D01*
X92471Y70585D01*
X92567Y70680D01*
X93680Y69567D01*
D02*
G37*
G36*
X133488Y94819D02*
X133369Y94816D01*
X133254Y94806D01*
X133144Y94787D01*
X133037Y94760D01*
X132935Y94726D01*
X132838Y94683D01*
X132744Y94632D01*
X132655Y94574D01*
X132570Y94507D01*
X132490Y94433D01*
X131933Y94990D01*
X132008Y95070D01*
X132074Y95155D01*
X132132Y95244D01*
X132183Y95338D01*
X132226Y95435D01*
X132260Y95537D01*
X132287Y95644D01*
X132306Y95754D01*
X132316Y95869D01*
X132319Y95988D01*
X133488Y94819D01*
D02*
G37*
G36*
X135988Y90319D02*
X135869Y90316D01*
X135754Y90306D01*
X135644Y90287D01*
X135537Y90260D01*
X135435Y90225D01*
X135338Y90183D01*
X135244Y90132D01*
X135155Y90074D01*
X135070Y90008D01*
X134990Y89933D01*
X134433Y90490D01*
X134508Y90570D01*
X134574Y90655D01*
X134632Y90744D01*
X134683Y90838D01*
X134725Y90935D01*
X134760Y91037D01*
X134787Y91144D01*
X134806Y91254D01*
X134816Y91369D01*
X134819Y91488D01*
X135988Y90319D01*
D02*
G37*
G36*
X94930Y54744D02*
X95019Y54671D01*
X95110Y54606D01*
X95204Y54550D01*
X95300Y54502D01*
X95400Y54463D01*
X95501Y54433D01*
X95606Y54411D01*
X95713Y54398D01*
X95822Y54394D01*
Y53606D01*
X95713Y53602D01*
X95606Y53589D01*
X95501Y53567D01*
X95400Y53537D01*
X95300Y53498D01*
X95204Y53450D01*
X95110Y53394D01*
X95019Y53329D01*
X94930Y53255D01*
X94844Y53173D01*
Y54827D01*
X94930Y54744D01*
D02*
G37*
G36*
X92430Y51244D02*
X92519Y51171D01*
X92610Y51106D01*
X92704Y51050D01*
X92800Y51002D01*
X92900Y50963D01*
X93001Y50933D01*
X93106Y50911D01*
X93213Y50898D01*
X93322Y50894D01*
Y50106D01*
X93213Y50102D01*
X93106Y50089D01*
X93001Y50067D01*
X92900Y50037D01*
X92800Y49998D01*
X92704Y49950D01*
X92610Y49894D01*
X92519Y49829D01*
X92430Y49755D01*
X92343Y49673D01*
Y51327D01*
X92430Y51244D01*
D02*
G37*
G36*
X133988Y48319D02*
X133921Y48315D01*
X133851Y48302D01*
X133778Y48279D01*
X133702Y48247D01*
X133624Y48205D01*
X133543Y48155D01*
X133460Y48094D01*
X133374Y48025D01*
X133193Y47858D01*
X132358Y48693D01*
X132446Y48785D01*
X132595Y48960D01*
X132655Y49043D01*
X132705Y49124D01*
X132747Y49202D01*
X132779Y49278D01*
X132802Y49351D01*
X132815Y49421D01*
X132819Y49488D01*
X133988Y48319D01*
D02*
G37*
G36*
X76894Y45282D02*
X76953Y45242D01*
X77021Y45206D01*
X77097Y45176D01*
X77181Y45150D01*
X77274Y45128D01*
X77376Y45112D01*
X77486Y45100D01*
X77732Y45091D01*
Y43909D01*
X77605Y43907D01*
X77376Y43888D01*
X77274Y43872D01*
X77181Y43850D01*
X77097Y43824D01*
X77021Y43794D01*
X76953Y43758D01*
X76894Y43718D01*
X76844Y43673D01*
Y45327D01*
X76894Y45282D01*
D02*
G37*
%LPC*%
G36*
X249000Y174616D02*
Y173000D01*
X250616D01*
X250547Y173348D01*
X250067Y174067D01*
X249348Y174547D01*
X249000Y174616D01*
D02*
G37*
G36*
X248000D02*
X247652Y174547D01*
X246933Y174067D01*
X246453Y173348D01*
X246384Y173000D01*
X248000D01*
Y174616D01*
D02*
G37*
G36*
X241000D02*
Y173000D01*
X242616D01*
X242547Y173348D01*
X242067Y174067D01*
X241348Y174547D01*
X241000Y174616D01*
D02*
G37*
G36*
X240000D02*
X239652Y174547D01*
X238933Y174067D01*
X238453Y173348D01*
X238384Y173000D01*
X240000D01*
Y174616D01*
D02*
G37*
G36*
X233000D02*
Y173000D01*
X234616D01*
X234547Y173348D01*
X234067Y174067D01*
X233348Y174547D01*
X233000Y174616D01*
D02*
G37*
G36*
X232000D02*
X231652Y174547D01*
X230933Y174067D01*
X230453Y173348D01*
X230384Y173000D01*
X232000D01*
Y174616D01*
D02*
G37*
G36*
X250616Y172000D02*
X249000D01*
Y170384D01*
X249348Y170453D01*
X250067Y170933D01*
X250547Y171652D01*
X250616Y172000D01*
D02*
G37*
G36*
X248000D02*
X246384D01*
X246453Y171652D01*
X246933Y170933D01*
X247652Y170453D01*
X248000Y170384D01*
Y172000D01*
D02*
G37*
G36*
X242616D02*
X241000D01*
Y170384D01*
X241348Y170453D01*
X242067Y170933D01*
X242547Y171652D01*
X242616Y172000D01*
D02*
G37*
G36*
X240000D02*
X238384D01*
X238453Y171652D01*
X238933Y170933D01*
X239652Y170453D01*
X240000Y170384D01*
Y172000D01*
D02*
G37*
G36*
X234616D02*
X233000D01*
Y170384D01*
X233348Y170453D01*
X234067Y170933D01*
X234547Y171652D01*
X234616Y172000D01*
D02*
G37*
G36*
X232000D02*
X230384D01*
X230453Y171652D01*
X230933Y170933D01*
X231652Y170453D01*
X232000Y170384D01*
Y172000D01*
D02*
G37*
G36*
X249000Y166616D02*
Y165000D01*
X250616D01*
X250547Y165348D01*
X250067Y166067D01*
X249348Y166547D01*
X249000Y166616D01*
D02*
G37*
G36*
X248000D02*
X247652Y166547D01*
X246933Y166067D01*
X246453Y165348D01*
X246384Y165000D01*
X248000D01*
Y166616D01*
D02*
G37*
G36*
X241000D02*
Y165000D01*
X242616D01*
X242547Y165348D01*
X242067Y166067D01*
X241348Y166547D01*
X241000Y166616D01*
D02*
G37*
G36*
X240000D02*
X239652Y166547D01*
X238933Y166067D01*
X238453Y165348D01*
X238384Y165000D01*
X240000D01*
Y166616D01*
D02*
G37*
G36*
X233000D02*
Y165000D01*
X234616D01*
X234547Y165348D01*
X234067Y166067D01*
X233348Y166547D01*
X233000Y166616D01*
D02*
G37*
G36*
X232000D02*
X231652Y166547D01*
X230933Y166067D01*
X230453Y165348D01*
X230384Y165000D01*
X232000D01*
Y166616D01*
D02*
G37*
G36*
X250616Y164000D02*
X249000D01*
Y162384D01*
X249348Y162453D01*
X250067Y162933D01*
X250547Y163652D01*
X250616Y164000D01*
D02*
G37*
G36*
X248000D02*
X246384D01*
X246453Y163652D01*
X246933Y162933D01*
X247652Y162453D01*
X248000Y162384D01*
Y164000D01*
D02*
G37*
G36*
X242616D02*
X241000D01*
Y162384D01*
X241348Y162453D01*
X242067Y162933D01*
X242547Y163652D01*
X242616Y164000D01*
D02*
G37*
G36*
X240000D02*
X238384D01*
X238453Y163652D01*
X238933Y162933D01*
X239652Y162453D01*
X240000Y162384D01*
Y164000D01*
D02*
G37*
G36*
X234616D02*
X233000D01*
Y162384D01*
X233348Y162453D01*
X234067Y162933D01*
X234547Y163652D01*
X234616Y164000D01*
D02*
G37*
G36*
X232000D02*
X230384D01*
X230453Y163652D01*
X230933Y162933D01*
X231652Y162453D01*
X232000Y162384D01*
Y164000D01*
D02*
G37*
G36*
X249000Y158616D02*
Y157000D01*
X250616D01*
X250547Y157348D01*
X250067Y158067D01*
X249348Y158547D01*
X249000Y158616D01*
D02*
G37*
G36*
X248000D02*
X247652Y158547D01*
X246933Y158067D01*
X246453Y157348D01*
X246384Y157000D01*
X248000D01*
Y158616D01*
D02*
G37*
G36*
X241000D02*
Y157000D01*
X242616D01*
X242547Y157348D01*
X242067Y158067D01*
X241348Y158547D01*
X241000Y158616D01*
D02*
G37*
G36*
X240000D02*
X239652Y158547D01*
X238933Y158067D01*
X238453Y157348D01*
X238384Y157000D01*
X240000D01*
Y158616D01*
D02*
G37*
G36*
X233000D02*
Y157000D01*
X234616D01*
X234547Y157348D01*
X234067Y158067D01*
X233348Y158547D01*
X233000Y158616D01*
D02*
G37*
G36*
X232000D02*
X231652Y158547D01*
X230933Y158067D01*
X230453Y157348D01*
X230384Y157000D01*
X232000D01*
Y158616D01*
D02*
G37*
G36*
X250616Y156000D02*
X249000D01*
Y154384D01*
X249348Y154453D01*
X250067Y154933D01*
X250547Y155652D01*
X250616Y156000D01*
D02*
G37*
G36*
X248000D02*
X246384D01*
X246453Y155652D01*
X246933Y154933D01*
X247652Y154453D01*
X248000Y154384D01*
Y156000D01*
D02*
G37*
G36*
X242616D02*
X241000D01*
Y154384D01*
X241348Y154453D01*
X242067Y154933D01*
X242547Y155652D01*
X242616Y156000D01*
D02*
G37*
G36*
X240000D02*
X238384D01*
X238453Y155652D01*
X238933Y154933D01*
X239652Y154453D01*
X240000Y154384D01*
Y156000D01*
D02*
G37*
G36*
X234616D02*
X233000D01*
Y154384D01*
X233348Y154453D01*
X234067Y154933D01*
X234547Y155652D01*
X234616Y156000D01*
D02*
G37*
G36*
X232000D02*
X230384D01*
X230453Y155652D01*
X230933Y154933D01*
X231652Y154453D01*
X232000Y154384D01*
Y156000D01*
D02*
G37*
G36*
X307500Y139616D02*
Y138000D01*
X309116D01*
X309047Y138348D01*
X308567Y139067D01*
X307848Y139547D01*
X307500Y139616D01*
D02*
G37*
G36*
X299500D02*
Y138000D01*
X301116D01*
X301047Y138348D01*
X300567Y139067D01*
X299848Y139547D01*
X299500Y139616D01*
D02*
G37*
G36*
X315500D02*
Y138000D01*
X317116D01*
X317047Y138348D01*
X316567Y139067D01*
X315848Y139547D01*
X315500Y139616D01*
D02*
G37*
G36*
X291500D02*
Y138000D01*
X293116D01*
X293047Y138348D01*
X292567Y139067D01*
X291848Y139547D01*
X291500Y139616D01*
D02*
G37*
G36*
X306500Y139616D02*
X306152Y139547D01*
X305433Y139067D01*
X304953Y138348D01*
X304884Y138000D01*
X306500D01*
Y139616D01*
D02*
G37*
G36*
X298500D02*
X298152Y139547D01*
X297433Y139067D01*
X296953Y138348D01*
X296884Y138000D01*
X298500D01*
Y139616D01*
D02*
G37*
G36*
X314500D02*
X314152Y139547D01*
X313433Y139067D01*
X312953Y138348D01*
X312884Y138000D01*
X314500D01*
Y139616D01*
D02*
G37*
G36*
X290500D02*
X290152Y139547D01*
X289433Y139067D01*
X288953Y138348D01*
X288884Y138000D01*
X290500D01*
Y139616D01*
D02*
G37*
G36*
X317116Y137000D02*
X315500D01*
Y135384D01*
X315848Y135453D01*
X316567Y135933D01*
X317047Y136652D01*
X317116Y137000D01*
D02*
G37*
G36*
X309116D02*
X307500D01*
Y135384D01*
X307848Y135453D01*
X308567Y135933D01*
X309047Y136652D01*
X309116Y137000D01*
D02*
G37*
G36*
X301116D02*
X299500D01*
Y135384D01*
X299848Y135453D01*
X300567Y135933D01*
X301047Y136652D01*
X301116Y137000D01*
D02*
G37*
G36*
X293116D02*
X291500D01*
Y135384D01*
X291848Y135453D01*
X292567Y135933D01*
X293047Y136652D01*
X293116Y137000D01*
D02*
G37*
G36*
X314500D02*
X312884D01*
X312953Y136652D01*
X313433Y135933D01*
X314152Y135453D01*
X314500Y135384D01*
Y137000D01*
D02*
G37*
G36*
X306500D02*
X304884D01*
X304953Y136652D01*
X305433Y135933D01*
X306152Y135453D01*
X306500Y135384D01*
Y137000D01*
D02*
G37*
G36*
X298500D02*
X296884D01*
X296953Y136652D01*
X297433Y135933D01*
X298152Y135453D01*
X298500Y135384D01*
Y137000D01*
D02*
G37*
G36*
X290500D02*
X288884D01*
X288953Y136652D01*
X289433Y135933D01*
X290152Y135453D01*
X290500Y135384D01*
Y137000D01*
D02*
G37*
G36*
X307500Y131616D02*
Y130000D01*
X309116D01*
X309047Y130348D01*
X308567Y131067D01*
X307848Y131547D01*
X307500Y131616D01*
D02*
G37*
G36*
X299500D02*
Y130000D01*
X301116D01*
X301047Y130348D01*
X300567Y131067D01*
X299848Y131547D01*
X299500Y131616D01*
D02*
G37*
G36*
X315500D02*
Y130000D01*
X317116D01*
X317047Y130348D01*
X316567Y131067D01*
X315848Y131547D01*
X315500Y131616D01*
D02*
G37*
G36*
X291500D02*
Y130000D01*
X293116D01*
X293047Y130348D01*
X292567Y131067D01*
X291848Y131547D01*
X291500Y131616D01*
D02*
G37*
G36*
X306500Y131616D02*
X306152Y131547D01*
X305433Y131067D01*
X304953Y130348D01*
X304884Y130000D01*
X306500D01*
Y131616D01*
D02*
G37*
G36*
X298500D02*
X298152Y131547D01*
X297433Y131067D01*
X296953Y130348D01*
X296884Y130000D01*
X298500D01*
Y131616D01*
D02*
G37*
G36*
X314500D02*
X314152Y131547D01*
X313433Y131067D01*
X312953Y130348D01*
X312884Y130000D01*
X314500D01*
Y131616D01*
D02*
G37*
G36*
X290500D02*
X290152Y131547D01*
X289433Y131067D01*
X288953Y130348D01*
X288884Y130000D01*
X290500D01*
Y131616D01*
D02*
G37*
G36*
X317116Y129000D02*
X315500D01*
Y127384D01*
X315848Y127453D01*
X316567Y127933D01*
X317047Y128652D01*
X317116Y129000D01*
D02*
G37*
G36*
X309116D02*
X307500D01*
Y127384D01*
X307848Y127453D01*
X308567Y127933D01*
X309047Y128652D01*
X309116Y129000D01*
D02*
G37*
G36*
X301116D02*
X299500D01*
Y127384D01*
X299848Y127453D01*
X300567Y127933D01*
X301047Y128652D01*
X301116Y129000D01*
D02*
G37*
G36*
X293116D02*
X291500D01*
Y127384D01*
X291848Y127453D01*
X292567Y127933D01*
X293047Y128652D01*
X293116Y129000D01*
D02*
G37*
G36*
X314500D02*
X312884D01*
X312953Y128652D01*
X313433Y127933D01*
X314152Y127453D01*
X314500Y127384D01*
Y129000D01*
D02*
G37*
G36*
X306500D02*
X304884D01*
X304953Y128652D01*
X305433Y127933D01*
X306152Y127453D01*
X306500Y127384D01*
Y129000D01*
D02*
G37*
G36*
X298500D02*
X296884D01*
X296953Y128652D01*
X297433Y127933D01*
X298152Y127453D01*
X298500Y127384D01*
Y129000D01*
D02*
G37*
G36*
X290500D02*
X288884D01*
X288953Y128652D01*
X289433Y127933D01*
X290152Y127453D01*
X290500Y127384D01*
Y129000D01*
D02*
G37*
G36*
X307500Y123616D02*
Y122000D01*
X309116D01*
X309047Y122348D01*
X308567Y123067D01*
X307848Y123547D01*
X307500Y123616D01*
D02*
G37*
G36*
X299500D02*
Y122000D01*
X301116D01*
X301047Y122348D01*
X300567Y123067D01*
X299848Y123547D01*
X299500Y123616D01*
D02*
G37*
G36*
X315500D02*
Y122000D01*
X317116D01*
X317047Y122348D01*
X316567Y123067D01*
X315848Y123547D01*
X315500Y123616D01*
D02*
G37*
G36*
X291500D02*
Y122000D01*
X293116D01*
X293047Y122348D01*
X292567Y123067D01*
X291848Y123547D01*
X291500Y123616D01*
D02*
G37*
G36*
X306500Y123616D02*
X306152Y123547D01*
X305433Y123067D01*
X304953Y122348D01*
X304884Y122000D01*
X306500D01*
Y123616D01*
D02*
G37*
G36*
X298500D02*
X298152Y123547D01*
X297433Y123067D01*
X296953Y122348D01*
X296884Y122000D01*
X298500D01*
Y123616D01*
D02*
G37*
G36*
X314500D02*
X314152Y123547D01*
X313433Y123067D01*
X312953Y122348D01*
X312884Y122000D01*
X314500D01*
Y123616D01*
D02*
G37*
G36*
X290500D02*
X290152Y123547D01*
X289433Y123067D01*
X288953Y122348D01*
X288884Y122000D01*
X290500D01*
Y123616D01*
D02*
G37*
G36*
X317116Y121000D02*
X315500D01*
Y119384D01*
X315848Y119453D01*
X316567Y119933D01*
X317047Y120652D01*
X317116Y121000D01*
D02*
G37*
G36*
X309116D02*
X307500D01*
Y119384D01*
X307848Y119453D01*
X308567Y119933D01*
X309047Y120652D01*
X309116Y121000D01*
D02*
G37*
G36*
X301116D02*
X299500D01*
Y119384D01*
X299848Y119453D01*
X300567Y119933D01*
X301047Y120652D01*
X301116Y121000D01*
D02*
G37*
G36*
X293116D02*
X291500D01*
Y119384D01*
X291848Y119453D01*
X292567Y119933D01*
X293047Y120652D01*
X293116Y121000D01*
D02*
G37*
G36*
X314500D02*
X312884D01*
X312953Y120652D01*
X313433Y119933D01*
X314152Y119453D01*
X314500Y119384D01*
Y121000D01*
D02*
G37*
G36*
X306500D02*
X304884D01*
X304953Y120652D01*
X305433Y119933D01*
X306152Y119453D01*
X306500Y119384D01*
Y121000D01*
D02*
G37*
G36*
X298500D02*
X296884D01*
X296953Y120652D01*
X297433Y119933D01*
X298152Y119453D01*
X298500Y119384D01*
Y121000D01*
D02*
G37*
G36*
X290500D02*
X288884D01*
X288953Y120652D01*
X289433Y119933D01*
X290152Y119453D01*
X290500Y119384D01*
Y121000D01*
D02*
G37*
G36*
X210000Y174616D02*
Y173000D01*
X211616D01*
X211547Y173348D01*
X211067Y174067D01*
X210348Y174547D01*
X210000Y174616D01*
D02*
G37*
G36*
X209000D02*
X208652Y174547D01*
X207933Y174067D01*
X207453Y173348D01*
X207384Y173000D01*
X209000D01*
Y174616D01*
D02*
G37*
G36*
X202000D02*
Y173000D01*
X203616D01*
X203547Y173348D01*
X203067Y174067D01*
X202348Y174547D01*
X202000Y174616D01*
D02*
G37*
G36*
X201000D02*
X200652Y174547D01*
X199933Y174067D01*
X199453Y173348D01*
X199384Y173000D01*
X201000D01*
Y174616D01*
D02*
G37*
G36*
X194000D02*
Y173000D01*
X195616D01*
X195547Y173348D01*
X195067Y174067D01*
X194348Y174547D01*
X194000Y174616D01*
D02*
G37*
G36*
X193000D02*
X192652Y174547D01*
X191933Y174067D01*
X191453Y173348D01*
X191384Y173000D01*
X193000D01*
Y174616D01*
D02*
G37*
G36*
X211616Y172000D02*
X210000D01*
Y170384D01*
X210348Y170453D01*
X211067Y170933D01*
X211547Y171652D01*
X211616Y172000D01*
D02*
G37*
G36*
X209000D02*
X207384D01*
X207453Y171652D01*
X207933Y170933D01*
X208652Y170453D01*
X209000Y170384D01*
Y172000D01*
D02*
G37*
G36*
X203616D02*
X202000D01*
Y170384D01*
X202348Y170453D01*
X203067Y170933D01*
X203547Y171652D01*
X203616Y172000D01*
D02*
G37*
G36*
X201000D02*
X199384D01*
X199453Y171652D01*
X199933Y170933D01*
X200652Y170453D01*
X201000Y170384D01*
Y172000D01*
D02*
G37*
G36*
X195616D02*
X194000D01*
Y170384D01*
X194348Y170453D01*
X195067Y170933D01*
X195547Y171652D01*
X195616Y172000D01*
D02*
G37*
G36*
X193000D02*
X191384D01*
X191453Y171652D01*
X191933Y170933D01*
X192652Y170453D01*
X193000Y170384D01*
Y172000D01*
D02*
G37*
G36*
X210000Y166616D02*
Y165000D01*
X211616D01*
X211547Y165348D01*
X211067Y166067D01*
X210348Y166547D01*
X210000Y166616D01*
D02*
G37*
G36*
X209000D02*
X208652Y166547D01*
X207933Y166067D01*
X207453Y165348D01*
X207384Y165000D01*
X209000D01*
Y166616D01*
D02*
G37*
G36*
X202000D02*
Y165000D01*
X203616D01*
X203547Y165348D01*
X203067Y166067D01*
X202348Y166547D01*
X202000Y166616D01*
D02*
G37*
G36*
X201000D02*
X200652Y166547D01*
X199933Y166067D01*
X199453Y165348D01*
X199384Y165000D01*
X201000D01*
Y166616D01*
D02*
G37*
G36*
X194000D02*
Y165000D01*
X195616D01*
X195547Y165348D01*
X195067Y166067D01*
X194348Y166547D01*
X194000Y166616D01*
D02*
G37*
G36*
X193000D02*
X192652Y166547D01*
X191933Y166067D01*
X191453Y165348D01*
X191384Y165000D01*
X193000D01*
Y166616D01*
D02*
G37*
G36*
X211616Y164000D02*
X210000D01*
Y162384D01*
X210348Y162453D01*
X211067Y162933D01*
X211547Y163652D01*
X211616Y164000D01*
D02*
G37*
G36*
X209000D02*
X207384D01*
X207453Y163652D01*
X207933Y162933D01*
X208652Y162453D01*
X209000Y162384D01*
Y164000D01*
D02*
G37*
G36*
X203616D02*
X202000D01*
Y162384D01*
X202348Y162453D01*
X203067Y162933D01*
X203547Y163652D01*
X203616Y164000D01*
D02*
G37*
G36*
X201000D02*
X199384D01*
X199453Y163652D01*
X199933Y162933D01*
X200652Y162453D01*
X201000Y162384D01*
Y164000D01*
D02*
G37*
G36*
X195616D02*
X194000D01*
Y162384D01*
X194348Y162453D01*
X195067Y162933D01*
X195547Y163652D01*
X195616Y164000D01*
D02*
G37*
G36*
X193000D02*
X191384D01*
X191453Y163652D01*
X191933Y162933D01*
X192652Y162453D01*
X193000Y162384D01*
Y164000D01*
D02*
G37*
G36*
X210000Y158616D02*
Y157000D01*
X211616D01*
X211547Y157348D01*
X211067Y158067D01*
X210348Y158547D01*
X210000Y158616D01*
D02*
G37*
G36*
X209000D02*
X208652Y158547D01*
X207933Y158067D01*
X207453Y157348D01*
X207384Y157000D01*
X209000D01*
Y158616D01*
D02*
G37*
G36*
X202000D02*
Y157000D01*
X203616D01*
X203547Y157348D01*
X203067Y158067D01*
X202348Y158547D01*
X202000Y158616D01*
D02*
G37*
G36*
X201000D02*
X200652Y158547D01*
X199933Y158067D01*
X199453Y157348D01*
X199384Y157000D01*
X201000D01*
Y158616D01*
D02*
G37*
G36*
X194000D02*
Y157000D01*
X195616D01*
X195547Y157348D01*
X195067Y158067D01*
X194348Y158547D01*
X194000Y158616D01*
D02*
G37*
G36*
X193000D02*
X192652Y158547D01*
X191933Y158067D01*
X191453Y157348D01*
X191384Y157000D01*
X193000D01*
Y158616D01*
D02*
G37*
G36*
X211616Y156000D02*
X210000D01*
Y154384D01*
X210348Y154453D01*
X211067Y154933D01*
X211547Y155652D01*
X211616Y156000D01*
D02*
G37*
G36*
X209000D02*
X207384D01*
X207453Y155652D01*
X207933Y154933D01*
X208652Y154453D01*
X209000Y154384D01*
Y156000D01*
D02*
G37*
G36*
X203616D02*
X202000D01*
Y154384D01*
X202348Y154453D01*
X203067Y154933D01*
X203547Y155652D01*
X203616Y156000D01*
D02*
G37*
G36*
X201000D02*
X199384D01*
X199453Y155652D01*
X199933Y154933D01*
X200652Y154453D01*
X201000Y154384D01*
Y156000D01*
D02*
G37*
G36*
X195616D02*
X194000D01*
Y154384D01*
X194348Y154453D01*
X195067Y154933D01*
X195547Y155652D01*
X195616Y156000D01*
D02*
G37*
G36*
X193000D02*
X191384D01*
X191453Y155652D01*
X191933Y154933D01*
X192652Y154453D01*
X193000Y154384D01*
Y156000D01*
D02*
G37*
G36*
X307500Y98616D02*
Y97000D01*
X309116D01*
X309047Y97348D01*
X308567Y98067D01*
X307848Y98547D01*
X307500Y98616D01*
D02*
G37*
G36*
X299500D02*
Y97000D01*
X301116D01*
X301047Y97348D01*
X300567Y98067D01*
X299848Y98547D01*
X299500Y98616D01*
D02*
G37*
G36*
X315500D02*
Y97000D01*
X317116D01*
X317047Y97348D01*
X316567Y98067D01*
X315848Y98547D01*
X315500Y98616D01*
D02*
G37*
G36*
X291500D02*
Y97000D01*
X293116D01*
X293047Y97348D01*
X292567Y98067D01*
X291848Y98547D01*
X291500Y98616D01*
D02*
G37*
G36*
X306500Y98616D02*
X306152Y98547D01*
X305433Y98067D01*
X304953Y97348D01*
X304884Y97000D01*
X306500D01*
Y98616D01*
D02*
G37*
G36*
X298500D02*
X298152Y98547D01*
X297433Y98067D01*
X296953Y97348D01*
X296884Y97000D01*
X298500D01*
Y98616D01*
D02*
G37*
G36*
X314500D02*
X314152Y98547D01*
X313433Y98067D01*
X312953Y97348D01*
X312884Y97000D01*
X314500D01*
Y98616D01*
D02*
G37*
G36*
X290500D02*
X290152Y98547D01*
X289433Y98067D01*
X288953Y97348D01*
X288884Y97000D01*
X290500D01*
Y98616D01*
D02*
G37*
G36*
X317116Y96000D02*
X315500D01*
Y94384D01*
X315848Y94453D01*
X316567Y94933D01*
X317047Y95652D01*
X317116Y96000D01*
D02*
G37*
G36*
X309116D02*
X307500D01*
Y94384D01*
X307848Y94453D01*
X308567Y94933D01*
X309047Y95652D01*
X309116Y96000D01*
D02*
G37*
G36*
X301116D02*
X299500D01*
Y94384D01*
X299848Y94453D01*
X300567Y94933D01*
X301047Y95652D01*
X301116Y96000D01*
D02*
G37*
G36*
X293116D02*
X291500D01*
Y94384D01*
X291848Y94453D01*
X292567Y94933D01*
X293047Y95652D01*
X293116Y96000D01*
D02*
G37*
G36*
X314500D02*
X312884D01*
X312953Y95652D01*
X313433Y94933D01*
X314152Y94453D01*
X314500Y94384D01*
Y96000D01*
D02*
G37*
G36*
X306500D02*
X304884D01*
X304953Y95652D01*
X305433Y94933D01*
X306152Y94453D01*
X306500Y94384D01*
Y96000D01*
D02*
G37*
G36*
X298500D02*
X296884D01*
X296953Y95652D01*
X297433Y94933D01*
X298152Y94453D01*
X298500Y94384D01*
Y96000D01*
D02*
G37*
G36*
X290500D02*
X288884D01*
X288953Y95652D01*
X289433Y94933D01*
X290152Y94453D01*
X290500Y94384D01*
Y96000D01*
D02*
G37*
G36*
X307500Y90616D02*
Y89000D01*
X309116D01*
X309047Y89348D01*
X308567Y90067D01*
X307848Y90547D01*
X307500Y90616D01*
D02*
G37*
G36*
X299500D02*
Y89000D01*
X301116D01*
X301047Y89348D01*
X300567Y90067D01*
X299848Y90547D01*
X299500Y90616D01*
D02*
G37*
G36*
X315500D02*
Y89000D01*
X317116D01*
X317047Y89348D01*
X316567Y90067D01*
X315848Y90547D01*
X315500Y90616D01*
D02*
G37*
G36*
X291500D02*
Y89000D01*
X293116D01*
X293047Y89348D01*
X292567Y90067D01*
X291848Y90547D01*
X291500Y90616D01*
D02*
G37*
G36*
X306500Y90616D02*
X306152Y90547D01*
X305433Y90067D01*
X304953Y89348D01*
X304884Y89000D01*
X306500D01*
Y90616D01*
D02*
G37*
G36*
X298500D02*
X298152Y90547D01*
X297433Y90067D01*
X296953Y89348D01*
X296884Y89000D01*
X298500D01*
Y90616D01*
D02*
G37*
G36*
X314500D02*
X314152Y90547D01*
X313433Y90067D01*
X312953Y89348D01*
X312884Y89000D01*
X314500D01*
Y90616D01*
D02*
G37*
G36*
X290500D02*
X290152Y90547D01*
X289433Y90067D01*
X288953Y89348D01*
X288884Y89000D01*
X290500D01*
Y90616D01*
D02*
G37*
G36*
X317116Y88000D02*
X315500D01*
Y86384D01*
X315848Y86453D01*
X316567Y86933D01*
X317047Y87652D01*
X317116Y88000D01*
D02*
G37*
G36*
X309116D02*
X307500D01*
Y86384D01*
X307848Y86453D01*
X308567Y86933D01*
X309047Y87652D01*
X309116Y88000D01*
D02*
G37*
G36*
X301116D02*
X299500D01*
Y86384D01*
X299848Y86453D01*
X300567Y86933D01*
X301047Y87652D01*
X301116Y88000D01*
D02*
G37*
G36*
X293116D02*
X291500D01*
Y86384D01*
X291848Y86453D01*
X292567Y86933D01*
X293047Y87652D01*
X293116Y88000D01*
D02*
G37*
G36*
X314500D02*
X312884D01*
X312953Y87652D01*
X313433Y86933D01*
X314152Y86453D01*
X314500Y86384D01*
Y88000D01*
D02*
G37*
G36*
X306500D02*
X304884D01*
X304953Y87652D01*
X305433Y86933D01*
X306152Y86453D01*
X306500Y86384D01*
Y88000D01*
D02*
G37*
G36*
X298500D02*
X296884D01*
X296953Y87652D01*
X297433Y86933D01*
X298152Y86453D01*
X298500Y86384D01*
Y88000D01*
D02*
G37*
G36*
X290500D02*
X288884D01*
X288953Y87652D01*
X289433Y86933D01*
X290152Y86453D01*
X290500Y86384D01*
Y88000D01*
D02*
G37*
G36*
X307500Y82616D02*
Y81000D01*
X309116D01*
X309047Y81348D01*
X308567Y82067D01*
X307848Y82547D01*
X307500Y82616D01*
D02*
G37*
G36*
X299500D02*
Y81000D01*
X301116D01*
X301047Y81348D01*
X300567Y82067D01*
X299848Y82547D01*
X299500Y82616D01*
D02*
G37*
G36*
X315500D02*
Y81000D01*
X317116D01*
X317047Y81348D01*
X316567Y82067D01*
X315848Y82547D01*
X315500Y82616D01*
D02*
G37*
G36*
X291500D02*
Y81000D01*
X293116D01*
X293047Y81348D01*
X292567Y82067D01*
X291848Y82547D01*
X291500Y82616D01*
D02*
G37*
G36*
X306500Y82616D02*
X306152Y82547D01*
X305433Y82067D01*
X304953Y81348D01*
X304884Y81000D01*
X306500D01*
Y82616D01*
D02*
G37*
G36*
X298500D02*
X298152Y82547D01*
X297433Y82067D01*
X296953Y81348D01*
X296884Y81000D01*
X298500D01*
Y82616D01*
D02*
G37*
G36*
X314500D02*
X314152Y82547D01*
X313433Y82067D01*
X312953Y81348D01*
X312884Y81000D01*
X314500D01*
Y82616D01*
D02*
G37*
G36*
X290500D02*
X290152Y82547D01*
X289433Y82067D01*
X288953Y81348D01*
X288884Y81000D01*
X290500D01*
Y82616D01*
D02*
G37*
G36*
X317116Y80000D02*
X315500D01*
Y78384D01*
X315848Y78453D01*
X316567Y78933D01*
X317047Y79652D01*
X317116Y80000D01*
D02*
G37*
G36*
X309116D02*
X307500D01*
Y78384D01*
X307848Y78453D01*
X308567Y78933D01*
X309047Y79652D01*
X309116Y80000D01*
D02*
G37*
G36*
X301116D02*
X299500D01*
Y78384D01*
X299848Y78453D01*
X300567Y78933D01*
X301047Y79652D01*
X301116Y80000D01*
D02*
G37*
G36*
X293116D02*
X291500D01*
Y78384D01*
X291848Y78453D01*
X292567Y78933D01*
X293047Y79652D01*
X293116Y80000D01*
D02*
G37*
G36*
X314500D02*
X312884D01*
X312953Y79652D01*
X313433Y78933D01*
X314152Y78453D01*
X314500Y78384D01*
Y80000D01*
D02*
G37*
G36*
X306500D02*
X304884D01*
X304953Y79652D01*
X305433Y78933D01*
X306152Y78453D01*
X306500Y78384D01*
Y80000D01*
D02*
G37*
G36*
X298500D02*
X296884D01*
X296953Y79652D01*
X297433Y78933D01*
X298152Y78453D01*
X298500Y78384D01*
Y80000D01*
D02*
G37*
G36*
X290500D02*
X288884D01*
X288953Y79652D01*
X289433Y78933D01*
X290152Y78453D01*
X290500Y78384D01*
Y80000D01*
D02*
G37*
G36*
X299000Y57616D02*
Y56000D01*
X300616D01*
X300547Y56348D01*
X300067Y57067D01*
X299348Y57547D01*
X299000Y57616D01*
D02*
G37*
G36*
X307000D02*
Y56000D01*
X308616D01*
X308547Y56348D01*
X308067Y57067D01*
X307348Y57547D01*
X307000Y57616D01*
D02*
G37*
G36*
X315000D02*
Y56000D01*
X316616D01*
X316547Y56348D01*
X316067Y57067D01*
X315348Y57547D01*
X315000Y57616D01*
D02*
G37*
G36*
X291000D02*
Y56000D01*
X292616D01*
X292547Y56348D01*
X292067Y57067D01*
X291348Y57547D01*
X291000Y57616D01*
D02*
G37*
G36*
X298000Y57616D02*
X297652Y57547D01*
X296933Y57067D01*
X296453Y56348D01*
X296384Y56000D01*
X298000D01*
Y57616D01*
D02*
G37*
G36*
X306000D02*
X305652Y57547D01*
X304933Y57067D01*
X304453Y56348D01*
X304384Y56000D01*
X306000D01*
Y57616D01*
D02*
G37*
G36*
X314000D02*
X313652Y57547D01*
X312933Y57067D01*
X312453Y56348D01*
X312384Y56000D01*
X314000D01*
Y57616D01*
D02*
G37*
G36*
X290000D02*
X289652Y57547D01*
X288933Y57067D01*
X288453Y56348D01*
X288384Y56000D01*
X290000D01*
Y57616D01*
D02*
G37*
G36*
X314000Y55000D02*
X312384D01*
X312453Y54652D01*
X312933Y53933D01*
X313652Y53453D01*
X314000Y53384D01*
Y55000D01*
D02*
G37*
G36*
X306000D02*
X304384D01*
X304453Y54652D01*
X304933Y53933D01*
X305652Y53453D01*
X306000Y53384D01*
Y55000D01*
D02*
G37*
G36*
X298000D02*
X296384D01*
X296453Y54652D01*
X296933Y53933D01*
X297652Y53453D01*
X298000Y53384D01*
Y55000D01*
D02*
G37*
G36*
X290000D02*
X288384D01*
X288453Y54652D01*
X288933Y53933D01*
X289652Y53453D01*
X290000Y53384D01*
Y55000D01*
D02*
G37*
G36*
X316616D02*
X315000D01*
Y53384D01*
X315348Y53453D01*
X316067Y53933D01*
X316547Y54652D01*
X316616Y55000D01*
D02*
G37*
G36*
X308616D02*
X307000D01*
Y53384D01*
X307348Y53453D01*
X308067Y53933D01*
X308547Y54652D01*
X308616Y55000D01*
D02*
G37*
G36*
X300616D02*
X299000D01*
Y53384D01*
X299348Y53453D01*
X300067Y53933D01*
X300547Y54652D01*
X300616Y55000D01*
D02*
G37*
G36*
X292616D02*
X291000D01*
Y53384D01*
X291348Y53453D01*
X292067Y53933D01*
X292547Y54652D01*
X292616Y55000D01*
D02*
G37*
G36*
X299000Y49616D02*
Y48000D01*
X300616D01*
X300547Y48348D01*
X300067Y49067D01*
X299348Y49547D01*
X299000Y49616D01*
D02*
G37*
G36*
X307000D02*
Y48000D01*
X308616D01*
X308547Y48348D01*
X308067Y49067D01*
X307348Y49547D01*
X307000Y49616D01*
D02*
G37*
G36*
X315000D02*
Y48000D01*
X316616D01*
X316547Y48348D01*
X316067Y49067D01*
X315348Y49547D01*
X315000Y49616D01*
D02*
G37*
G36*
X291000D02*
Y48000D01*
X292616D01*
X292547Y48348D01*
X292067Y49067D01*
X291348Y49547D01*
X291000Y49616D01*
D02*
G37*
G36*
X298000Y49616D02*
X297652Y49547D01*
X296933Y49067D01*
X296453Y48348D01*
X296384Y48000D01*
X298000D01*
Y49616D01*
D02*
G37*
G36*
X306000D02*
X305652Y49547D01*
X304933Y49067D01*
X304453Y48348D01*
X304384Y48000D01*
X306000D01*
Y49616D01*
D02*
G37*
G36*
X314000D02*
X313652Y49547D01*
X312933Y49067D01*
X312453Y48348D01*
X312384Y48000D01*
X314000D01*
Y49616D01*
D02*
G37*
G36*
X290000D02*
X289652Y49547D01*
X288933Y49067D01*
X288453Y48348D01*
X288384Y48000D01*
X290000D01*
Y49616D01*
D02*
G37*
G36*
X314000Y47000D02*
X312384D01*
X312453Y46652D01*
X312933Y45933D01*
X313652Y45453D01*
X314000Y45384D01*
Y47000D01*
D02*
G37*
G36*
X306000D02*
X304384D01*
X304453Y46652D01*
X304933Y45933D01*
X305652Y45453D01*
X306000Y45384D01*
Y47000D01*
D02*
G37*
G36*
X298000D02*
X296384D01*
X296453Y46652D01*
X296933Y45933D01*
X297652Y45453D01*
X298000Y45384D01*
Y47000D01*
D02*
G37*
G36*
X290000D02*
X288384D01*
X288453Y46652D01*
X288933Y45933D01*
X289652Y45453D01*
X290000Y45384D01*
Y47000D01*
D02*
G37*
G36*
X316616D02*
X315000D01*
Y45384D01*
X315348Y45453D01*
X316067Y45933D01*
X316547Y46652D01*
X316616Y47000D01*
D02*
G37*
G36*
X308616D02*
X307000D01*
Y45384D01*
X307348Y45453D01*
X308067Y45933D01*
X308547Y46652D01*
X308616Y47000D01*
D02*
G37*
G36*
X300616D02*
X299000D01*
Y45384D01*
X299348Y45453D01*
X300067Y45933D01*
X300547Y46652D01*
X300616Y47000D01*
D02*
G37*
G36*
X292616D02*
X291000D01*
Y45384D01*
X291348Y45453D01*
X292067Y45933D01*
X292547Y46652D01*
X292616Y47000D01*
D02*
G37*
G36*
X299000Y41616D02*
Y40000D01*
X300616D01*
X300547Y40348D01*
X300067Y41067D01*
X299348Y41547D01*
X299000Y41616D01*
D02*
G37*
G36*
X307000D02*
Y40000D01*
X308616D01*
X308547Y40348D01*
X308067Y41067D01*
X307348Y41547D01*
X307000Y41616D01*
D02*
G37*
G36*
X315000D02*
Y40000D01*
X316616D01*
X316547Y40348D01*
X316067Y41067D01*
X315348Y41547D01*
X315000Y41616D01*
D02*
G37*
G36*
X291000D02*
Y40000D01*
X292616D01*
X292547Y40348D01*
X292067Y41067D01*
X291348Y41547D01*
X291000Y41616D01*
D02*
G37*
G36*
X298000Y41616D02*
X297652Y41547D01*
X296933Y41067D01*
X296453Y40348D01*
X296384Y40000D01*
X298000D01*
Y41616D01*
D02*
G37*
G36*
X306000D02*
X305652Y41547D01*
X304933Y41067D01*
X304453Y40348D01*
X304384Y40000D01*
X306000D01*
Y41616D01*
D02*
G37*
G36*
X314000D02*
X313652Y41547D01*
X312933Y41067D01*
X312453Y40348D01*
X312384Y40000D01*
X314000D01*
Y41616D01*
D02*
G37*
G36*
X290000D02*
X289652Y41547D01*
X288933Y41067D01*
X288453Y40348D01*
X288384Y40000D01*
X290000D01*
Y41616D01*
D02*
G37*
G36*
X314000Y39000D02*
X312384D01*
X312453Y38652D01*
X312933Y37933D01*
X313652Y37453D01*
X314000Y37384D01*
Y39000D01*
D02*
G37*
G36*
X306000D02*
X304384D01*
X304453Y38652D01*
X304933Y37933D01*
X305652Y37453D01*
X306000Y37384D01*
Y39000D01*
D02*
G37*
G36*
X298000D02*
X296384D01*
X296453Y38652D01*
X296933Y37933D01*
X297652Y37453D01*
X298000Y37384D01*
Y39000D01*
D02*
G37*
G36*
X290000D02*
X288384D01*
X288453Y38652D01*
X288933Y37933D01*
X289652Y37453D01*
X290000Y37384D01*
Y39000D01*
D02*
G37*
G36*
X316616D02*
X315000D01*
Y37384D01*
X315348Y37453D01*
X316067Y37933D01*
X316547Y38652D01*
X316616Y39000D01*
D02*
G37*
G36*
X308616D02*
X307000D01*
Y37384D01*
X307348Y37453D01*
X308067Y37933D01*
X308547Y38652D01*
X308616Y39000D01*
D02*
G37*
G36*
X300616D02*
X299000D01*
Y37384D01*
X299348Y37453D01*
X300067Y37933D01*
X300547Y38652D01*
X300616Y39000D01*
D02*
G37*
G36*
X292616D02*
X291000D01*
Y37384D01*
X291348Y37453D01*
X292067Y37933D01*
X292547Y38652D01*
X292616Y39000D01*
D02*
G37*
G36*
X14831Y140232D02*
X10500D01*
Y137083D01*
X14831D01*
Y140232D01*
D02*
G37*
G36*
X9500D02*
X5169D01*
Y137083D01*
X9500D01*
Y140232D01*
D02*
G37*
G36*
X28000Y135433D02*
X27612Y135433D01*
X19000Y135433D01*
X18694Y135306D01*
X13789Y130402D01*
X11052D01*
X10984Y130415D01*
X9016D01*
X8092Y130231D01*
X7308Y129708D01*
X6785Y128924D01*
X6601Y128000D01*
X6785Y127076D01*
X7308Y126292D01*
X7626Y126080D01*
Y124920D01*
X7308Y124708D01*
X6785Y123924D01*
X6601Y123000D01*
X6785Y122076D01*
X7308Y121292D01*
X7626Y121080D01*
Y119920D01*
X7308Y119708D01*
X6785Y118924D01*
X6601Y118000D01*
X6785Y117076D01*
X7308Y116292D01*
X7626Y116080D01*
Y114920D01*
X7308Y114708D01*
X6785Y113924D01*
X6601Y113000D01*
X6785Y112076D01*
X7308Y111292D01*
X7626Y111080D01*
Y109920D01*
X7308Y109708D01*
X6785Y108924D01*
X6601Y108000D01*
X6785Y107076D01*
X7308Y106292D01*
X7626Y106080D01*
Y104920D01*
X7308Y104708D01*
X6785Y103924D01*
X6601Y103000D01*
X6785Y102076D01*
X7308Y101292D01*
X7626Y101080D01*
Y99920D01*
X7308Y99708D01*
X6785Y98924D01*
X6601Y98000D01*
X6785Y97076D01*
X7308Y96292D01*
X7508Y96159D01*
X7504Y94959D01*
X7236Y94780D01*
X6690Y93963D01*
X6598Y93500D01*
X10000D01*
X13402D01*
X13309Y93963D01*
X12764Y94780D01*
X12496Y94959D01*
X12413Y95164D01*
X12508Y95431D01*
X12850Y96079D01*
X14637Y96186D01*
X14854Y96187D01*
X15739D01*
X15769Y96158D01*
X16568Y95827D01*
X17432D01*
X18231Y96158D01*
X18458Y96384D01*
X22992D01*
X23167Y96419D01*
X26935D01*
Y99975D01*
X23167D01*
X22992Y100010D01*
X18899D01*
X18454Y100795D01*
X18812Y101305D01*
X22992D01*
X23167Y101340D01*
X26935D01*
Y104896D01*
X23167D01*
X22992Y104931D01*
X18946D01*
X18554Y105931D01*
X18873Y106227D01*
X22992D01*
X23167Y106261D01*
X26935D01*
Y109817D01*
X23167D01*
X22992Y109852D01*
X18984D01*
X18589Y110852D01*
X18906Y111148D01*
X22992D01*
X23167Y111183D01*
X26935D01*
Y114739D01*
X23167D01*
X22992Y114773D01*
X19047D01*
X18638Y115773D01*
X18938Y116069D01*
X22992D01*
X23167Y116104D01*
X26935D01*
Y119660D01*
X23167D01*
X22992Y119695D01*
X18812D01*
X18454Y120205D01*
X18899Y120990D01*
X22992D01*
X23167Y121025D01*
X26935D01*
Y123852D01*
X26935Y124174D01*
X27237Y124765D01*
X27734Y125067D01*
X28000D01*
X28306Y125194D01*
X28433Y125500D01*
X28433Y134612D01*
X28433Y135000D01*
X28433Y135000D01*
X28306Y135306D01*
X28000Y135433D01*
X28000Y135433D01*
D02*
G37*
G36*
X14831Y136083D02*
X10500D01*
Y132933D01*
X14831D01*
Y136083D01*
D02*
G37*
G36*
X9500D02*
X5169D01*
Y132933D01*
X9500D01*
Y136083D01*
D02*
G37*
G36*
X48334Y132681D02*
X47666D01*
X47048Y132425D01*
X46575Y131952D01*
X46319Y131334D01*
Y130666D01*
X46575Y130048D01*
X47048Y129575D01*
X47666Y129319D01*
X48334D01*
X48952Y129575D01*
X49425Y130048D01*
X49681Y130666D01*
Y131334D01*
X49425Y131952D01*
X48952Y132425D01*
X48334Y132681D01*
D02*
G37*
G36*
X35834Y116681D02*
X35166D01*
X34548Y116425D01*
X34075Y115952D01*
X33819Y115334D01*
Y114666D01*
X34075Y114048D01*
X34548Y113575D01*
X35166Y113319D01*
X35834D01*
X36452Y113575D01*
X36925Y114048D01*
X37181Y114666D01*
Y115334D01*
X36925Y115952D01*
X36452Y116425D01*
X35834Y116681D01*
D02*
G37*
G36*
X27035Y95153D02*
X23492D01*
Y93775D01*
X27035D01*
Y95153D01*
D02*
G37*
G36*
X22492D02*
X18949D01*
Y93775D01*
X22492D01*
Y95153D01*
D02*
G37*
G36*
X27035Y92775D02*
X23492D01*
Y91398D01*
X27035D01*
Y92775D01*
D02*
G37*
G36*
X22492D02*
X18949D01*
Y91398D01*
X22492D01*
Y92775D01*
D02*
G37*
G36*
X13402Y92500D02*
X10500D01*
Y90483D01*
X10984D01*
X11947Y90675D01*
X12764Y91220D01*
X13309Y92037D01*
X13402Y92500D01*
D02*
G37*
G36*
X9500D02*
X6598D01*
X6690Y92037D01*
X7236Y91220D01*
X8053Y90675D01*
X9016Y90483D01*
X9500D01*
Y92500D01*
D02*
G37*
G36*
X14831Y88067D02*
X10500D01*
Y84917D01*
X14831D01*
Y88067D01*
D02*
G37*
G36*
X9500D02*
X5169D01*
Y84917D01*
X9500D01*
Y88067D01*
D02*
G37*
G36*
X14831Y83917D02*
X10500D01*
Y80768D01*
X14831D01*
Y83917D01*
D02*
G37*
G36*
X9500D02*
X5169D01*
Y80768D01*
X9500D01*
Y83917D01*
D02*
G37*
G36*
X25834Y65063D02*
X25166D01*
X24548Y64807D01*
X24075Y64334D01*
X23819Y63716D01*
Y63047D01*
X24075Y62430D01*
X24548Y61957D01*
X25166Y61701D01*
X25834D01*
X26452Y61957D01*
X26925Y62430D01*
X27181Y63047D01*
Y63716D01*
X26925Y64334D01*
X26452Y64807D01*
X25834Y65063D01*
D02*
G37*
G36*
X10984Y65915D02*
X9016D01*
X8092Y65731D01*
X7308Y65208D01*
X6785Y64424D01*
X6601Y63500D01*
X6785Y62576D01*
X7308Y61792D01*
X7626Y61580D01*
Y60420D01*
X7308Y60208D01*
X6785Y59424D01*
X6601Y58500D01*
X6785Y57576D01*
X7308Y56792D01*
X7626Y56580D01*
Y55420D01*
X7308Y55208D01*
X6785Y54424D01*
X6601Y53500D01*
X6785Y52576D01*
X7308Y51792D01*
X7508Y51659D01*
X7504Y50459D01*
X7236Y50280D01*
X6690Y49463D01*
X6598Y49000D01*
X10000D01*
X13402D01*
X13309Y49463D01*
X12764Y50280D01*
X12496Y50459D01*
X12492Y51659D01*
X12692Y51792D01*
X13215Y52576D01*
X13399Y53500D01*
X13215Y54424D01*
X12692Y55208D01*
X12375Y55420D01*
Y56580D01*
X12692Y56792D01*
X13215Y57576D01*
X13399Y58500D01*
X13215Y59424D01*
X12692Y60208D01*
X12375Y60420D01*
Y61580D01*
X12692Y61792D01*
X13215Y62576D01*
X13399Y63500D01*
X13215Y64424D01*
X12692Y65208D01*
X11908Y65731D01*
X10984Y65915D01*
D02*
G37*
G36*
X13402Y48000D02*
X10500D01*
Y45983D01*
X10984D01*
X11947Y46175D01*
X12764Y46720D01*
X13309Y47537D01*
X13402Y48000D01*
D02*
G37*
G36*
X9500D02*
X6598D01*
X6690Y47537D01*
X7236Y46720D01*
X8053Y46175D01*
X9016Y45983D01*
X9500D01*
Y48000D01*
D02*
G37*
G36*
X166990Y33961D02*
X166010D01*
X165106Y33586D01*
X164414Y32894D01*
X164039Y31989D01*
Y31011D01*
X164414Y30106D01*
X165106Y29414D01*
X166010Y29039D01*
X166990D01*
X167894Y29414D01*
X168586Y30106D01*
X168961Y31011D01*
Y31989D01*
X168586Y32894D01*
X167894Y33586D01*
X166990Y33961D01*
D02*
G37*
G36*
X133834Y18181D02*
X133166D01*
X132548Y17925D01*
X132075Y17452D01*
X131819Y16834D01*
Y16166D01*
X132075Y15548D01*
X132548Y15075D01*
X133166Y14819D01*
X133834D01*
X134452Y15075D01*
X134925Y15548D01*
X135181Y16166D01*
Y16834D01*
X134925Y17452D01*
X134452Y17925D01*
X133834Y18181D01*
D02*
G37*
G36*
X128834D02*
X128166D01*
X127548Y17925D01*
X127075Y17452D01*
X126819Y16834D01*
Y16166D01*
X127075Y15548D01*
X127548Y15075D01*
X128166Y14819D01*
X128834D01*
X129452Y15075D01*
X129925Y15548D01*
X130181Y16166D01*
Y16834D01*
X129925Y17452D01*
X129452Y17925D01*
X128834Y18181D01*
D02*
G37*
G36*
X123834D02*
X123166D01*
X122548Y17925D01*
X122075Y17452D01*
X121819Y16834D01*
Y16166D01*
X122075Y15548D01*
X122548Y15075D01*
X123166Y14819D01*
X123834D01*
X124452Y15075D01*
X124925Y15548D01*
X125181Y16166D01*
Y16834D01*
X124925Y17452D01*
X124452Y17925D01*
X123834Y18181D01*
D02*
G37*
G36*
X118834D02*
X118166D01*
X117548Y17925D01*
X117075Y17452D01*
X116819Y16834D01*
Y16166D01*
X117075Y15548D01*
X117548Y15075D01*
X118166Y14819D01*
X118834D01*
X119452Y15075D01*
X119925Y15548D01*
X120181Y16166D01*
Y16834D01*
X119925Y17452D01*
X119452Y17925D01*
X118834Y18181D01*
D02*
G37*
G36*
X113000Y12402D02*
X112537Y12309D01*
X111720Y11764D01*
X111175Y10947D01*
X110983Y9984D01*
Y9500D01*
X113000D01*
Y12402D01*
D02*
G37*
G36*
X114000D02*
Y9000D01*
Y5598D01*
X114463Y5691D01*
X115280Y6236D01*
X115459Y6504D01*
X116659Y6508D01*
X116792Y6308D01*
X117576Y5785D01*
X118500Y5601D01*
X119424Y5785D01*
X120208Y6308D01*
X120420Y6626D01*
X121580D01*
X121792Y6308D01*
X122576Y5785D01*
X123500Y5601D01*
X124424Y5785D01*
X125208Y6308D01*
X125420Y6626D01*
X126580D01*
X126792Y6308D01*
X127576Y5785D01*
X128500Y5601D01*
X129424Y5785D01*
X130208Y6308D01*
X130420Y6626D01*
X131580D01*
X131792Y6308D01*
X132576Y5785D01*
X133500Y5601D01*
X134424Y5785D01*
X135208Y6308D01*
X135731Y7092D01*
X135915Y8016D01*
Y9984D01*
X135731Y10908D01*
X135208Y11692D01*
X134424Y12215D01*
X133500Y12399D01*
X132576Y12215D01*
X131792Y11692D01*
X131580Y11374D01*
X130420D01*
X130208Y11692D01*
X129424Y12215D01*
X128500Y12399D01*
X127576Y12215D01*
X126792Y11692D01*
X126580Y11374D01*
X125420D01*
X125208Y11692D01*
X124424Y12215D01*
X123500Y12399D01*
X122576Y12215D01*
X121792Y11692D01*
X121580Y11374D01*
X120420D01*
X120208Y11692D01*
X119424Y12215D01*
X118500Y12399D01*
X117576Y12215D01*
X116792Y11692D01*
X116659Y11492D01*
X115459Y11496D01*
X115280Y11764D01*
X114463Y12309D01*
X114000Y12402D01*
D02*
G37*
G36*
X113000Y8500D02*
X110983D01*
Y8016D01*
X111175Y7053D01*
X111720Y6236D01*
X112537Y5691D01*
X113000Y5598D01*
Y8500D01*
D02*
G37*
%LPD*%
G36*
X28000Y135000D02*
X28000Y125500D01*
X27392D01*
X27035Y125847D01*
X27035Y126000D01*
Y127225D01*
X22992D01*
X18949D01*
Y126000D01*
X18592Y125500D01*
X14500D01*
X13969Y126031D01*
X9016D01*
Y129969D01*
X13969D01*
X19000Y135000D01*
X28000Y135000D01*
D02*
G37*
G36*
X12080Y124646D02*
X12236Y124590D01*
X12438Y124540D01*
X12686Y124497D01*
X13322Y124431D01*
X14143Y124391D01*
X15149Y124378D01*
Y121622D01*
X14623Y121619D01*
X12686Y121503D01*
X12438Y121460D01*
X12236Y121410D01*
X12080Y121354D01*
X11971Y121291D01*
Y124709D01*
X12080Y124646D01*
D02*
G37*
G36*
Y119646D02*
X12236Y119590D01*
X12438Y119540D01*
X12686Y119497D01*
X13322Y119431D01*
X14143Y119391D01*
X15149Y119378D01*
Y116622D01*
X14623Y116619D01*
X12686Y116503D01*
X12438Y116460D01*
X12236Y116410D01*
X12080Y116354D01*
X11971Y116291D01*
Y119709D01*
X12080Y119646D01*
D02*
G37*
G36*
Y114646D02*
X12236Y114590D01*
X12438Y114540D01*
X12686Y114497D01*
X13322Y114431D01*
X14143Y114391D01*
X15149Y114378D01*
Y111622D01*
X14623Y111619D01*
X12686Y111503D01*
X12438Y111460D01*
X12236Y111410D01*
X12080Y111354D01*
X11971Y111291D01*
Y114709D01*
X12080Y114646D01*
D02*
G37*
G36*
Y109646D02*
X12236Y109590D01*
X12438Y109540D01*
X12686Y109497D01*
X13322Y109431D01*
X14143Y109391D01*
X15149Y109378D01*
Y106622D01*
X14623Y106619D01*
X12686Y106503D01*
X12438Y106460D01*
X12236Y106410D01*
X12080Y106354D01*
X11971Y106291D01*
Y109709D01*
X12080Y109646D01*
D02*
G37*
G36*
Y104646D02*
X12236Y104590D01*
X12438Y104540D01*
X12686Y104497D01*
X13322Y104431D01*
X14143Y104391D01*
X15149Y104378D01*
Y101622D01*
X14623Y101619D01*
X12686Y101503D01*
X12438Y101460D01*
X12236Y101410D01*
X12080Y101354D01*
X11971Y101291D01*
Y104709D01*
X12080Y104646D01*
D02*
G37*
G36*
Y99646D02*
X12236Y99590D01*
X12438Y99540D01*
X12686Y99497D01*
X13322Y99431D01*
X14143Y99391D01*
X15149Y99378D01*
Y96622D01*
X14623Y96619D01*
X12686Y96503D01*
X12438Y96460D01*
X12236Y96410D01*
X12080Y96354D01*
X11971Y96291D01*
Y99709D01*
X12080Y99646D01*
D02*
G37*
%LPC*%
G36*
X27035Y129602D02*
X23492D01*
Y128225D01*
X27035D01*
Y129602D01*
D02*
G37*
G36*
X22492D02*
X18949D01*
Y128225D01*
X22492D01*
Y129602D01*
D02*
G37*
%LPD*%
D11*
X58000Y46000D02*
X66500Y54500D01*
Y79000D02*
X68000Y80500D01*
X66500Y54500D02*
Y62500D01*
Y79000D01*
Y62500D02*
X90500D01*
X91000Y62000D02*
X95500D01*
X90500Y62500D02*
X91000Y62000D01*
X93075Y64075D02*
X95500Y66500D01*
X119500D01*
X93000Y64075D02*
X93075D01*
X42500Y46000D02*
X58000D01*
X91500Y50500D02*
X126500D01*
X133000Y57000D02*
Y88500D01*
X126500Y50500D02*
X133000Y57000D01*
X129500Y60500D02*
Y92000D01*
X94000Y54000D02*
X123000D01*
X129500Y60500D01*
X126000Y95500D02*
X131000Y100500D01*
X119500Y66500D02*
X126000Y73000D01*
Y95500D01*
X133000Y88500D02*
X136000Y91500D01*
X129500Y92000D02*
X133500Y96000D01*
D15*
X158726Y119774D02*
X159726D01*
X158500Y120000D02*
X158726Y119774D01*
X40500Y30500D02*
X50500Y20500D01*
X40500Y30500D02*
Y39000D01*
X149000Y20500D02*
X171500Y43000D01*
X148000Y23500D02*
X168500Y44000D01*
X52500Y30500D02*
Y39000D01*
X52500Y30500D02*
X59500Y23500D01*
X50500Y20500D02*
X149000D01*
X59500Y23500D02*
X148000D01*
X159726Y119774D02*
X165500Y114000D01*
Y45000D02*
Y114000D01*
X164764Y134764D02*
Y135764D01*
X164500Y134500D02*
X164764Y134764D01*
Y135764D02*
X166500Y137500D01*
X152005Y31505D02*
X165500Y45000D01*
X149005Y31505D02*
X152005D01*
X149000Y31500D02*
X149005Y31505D01*
X76000Y44500D02*
X102000D01*
X105500Y48000D01*
X132500D02*
X134000Y49500D01*
X105500Y48000D02*
X132500D01*
X168500Y44000D02*
Y132500D01*
X171500Y43000D02*
Y130500D01*
X173500Y132500D01*
X168500Y132500D02*
X170500Y134500D01*
Y134500D01*
X173500Y132500D02*
Y136500D01*
X172500Y137500D02*
X173500Y136500D01*
X166500Y137500D02*
X172500D01*
D19*
X10000Y84417D02*
D03*
Y136583D02*
D03*
D20*
X22992Y127724D02*
D03*
Y122803D02*
D03*
Y117882D02*
D03*
Y112961D02*
D03*
Y108039D02*
D03*
Y103118D02*
D03*
Y98197D02*
D03*
Y93276D02*
D03*
D37*
X240500Y164500D02*
D03*
X201500D02*
D03*
D39*
X303000Y129500D02*
D03*
X302500Y47500D02*
D03*
X303000Y88500D02*
D03*
D107*
X166575Y148858D02*
D03*
X161575D02*
D03*
Y138858D02*
D03*
X156575Y148858D02*
D03*
Y138858D02*
D03*
Y43858D02*
D03*
X151575Y173858D02*
D03*
Y153858D02*
D03*
Y148858D02*
D03*
Y133858D02*
D03*
Y3858D02*
D03*
X146575Y163858D02*
D03*
Y158858D02*
D03*
Y138858D02*
D03*
X141575Y163858D02*
D03*
Y158858D02*
D03*
Y133858D02*
D03*
X136575Y173858D02*
D03*
Y168858D02*
D03*
Y163858D02*
D03*
Y158858D02*
D03*
Y153858D02*
D03*
Y148858D02*
D03*
Y78858D02*
D03*
Y73858D02*
D03*
Y68858D02*
D03*
Y63858D02*
D03*
Y58858D02*
D03*
Y53858D02*
D03*
Y13858D02*
D03*
Y3858D02*
D03*
X131575D02*
D03*
X126575Y173858D02*
D03*
Y168858D02*
D03*
Y163858D02*
D03*
Y158858D02*
D03*
Y153858D02*
D03*
Y148858D02*
D03*
Y68858D02*
D03*
Y63858D02*
D03*
Y3858D02*
D03*
X121575Y163858D02*
D03*
Y158858D02*
D03*
Y83858D02*
D03*
Y63858D02*
D03*
Y58858D02*
D03*
Y3858D02*
D03*
X116575Y163858D02*
D03*
Y158858D02*
D03*
Y108858D02*
D03*
Y83858D02*
D03*
Y63858D02*
D03*
Y58858D02*
D03*
Y3858D02*
D03*
X111575Y173858D02*
D03*
Y168858D02*
D03*
Y163858D02*
D03*
Y158858D02*
D03*
Y153858D02*
D03*
Y148858D02*
D03*
Y128858D02*
D03*
Y108858D02*
D03*
Y83858D02*
D03*
Y13858D02*
D03*
Y3858D02*
D03*
X106575Y108858D02*
D03*
X91575Y8858D02*
D03*
X86575Y108858D02*
D03*
Y8858D02*
D03*
X81575Y13858D02*
D03*
Y8858D02*
D03*
X76575Y93858D02*
D03*
X66575Y128858D02*
D03*
Y3858D02*
D03*
X61575Y128858D02*
D03*
Y3858D02*
D03*
X56575D02*
D03*
X51575D02*
D03*
X46575D02*
D03*
X41575Y88858D02*
D03*
Y3858D02*
D03*
X26575Y173858D02*
D03*
Y168858D02*
D03*
Y158858D02*
D03*
Y83858D02*
D03*
Y78858D02*
D03*
Y73858D02*
D03*
Y68858D02*
D03*
Y43858D02*
D03*
Y38858D02*
D03*
Y33858D02*
D03*
Y28858D02*
D03*
Y23858D02*
D03*
Y18858D02*
D03*
Y8858D02*
D03*
Y3858D02*
D03*
X21575Y148858D02*
D03*
Y143858D02*
D03*
Y138858D02*
D03*
Y83858D02*
D03*
Y78858D02*
D03*
Y73858D02*
D03*
Y68858D02*
D03*
Y43858D02*
D03*
Y38858D02*
D03*
Y33858D02*
D03*
Y28858D02*
D03*
X16575Y148858D02*
D03*
Y143858D02*
D03*
Y138858D02*
D03*
Y88858D02*
D03*
Y83858D02*
D03*
Y78858D02*
D03*
Y73858D02*
D03*
Y68858D02*
D03*
Y43858D02*
D03*
Y38858D02*
D03*
Y33858D02*
D03*
Y28858D02*
D03*
X11575Y148858D02*
D03*
Y143858D02*
D03*
Y78858D02*
D03*
Y33858D02*
D03*
Y28858D02*
D03*
X6575Y148858D02*
D03*
Y143858D02*
D03*
Y78858D02*
D03*
Y33858D02*
D03*
Y28858D02*
D03*
X45000Y49000D02*
D03*
X172000Y143000D02*
D03*
X158500Y120000D02*
D03*
X82000Y65000D02*
D03*
X92000Y69000D02*
D03*
X74000Y65000D02*
D03*
X93000Y64075D02*
D03*
X78000Y65000D02*
D03*
X70000D02*
D03*
X63000Y55000D02*
D03*
X82000Y59925D02*
D03*
X70000D02*
D03*
X74000D02*
D03*
X78000D02*
D03*
X63000Y60000D02*
D03*
X70000Y55000D02*
D03*
X74000D02*
D03*
X78000D02*
D03*
X82000D02*
D03*
X59000D02*
D03*
X55000D02*
D03*
X51000D02*
D03*
Y60000D02*
D03*
X55000D02*
D03*
X59000D02*
D03*
X55000Y65000D02*
D03*
X51000D02*
D03*
X59000D02*
D03*
X63000D02*
D03*
Y70000D02*
D03*
X59000D02*
D03*
X55000D02*
D03*
X70000D02*
D03*
X74000D02*
D03*
X78000D02*
D03*
X82000D02*
D03*
X51000D02*
D03*
X71000Y5000D02*
D03*
X148844Y81916D02*
D03*
X146000Y79000D02*
D03*
X139772Y137000D02*
D03*
X134000Y127000D02*
D03*
Y105500D02*
D03*
X139000Y109000D02*
D03*
X248500Y71346D02*
D03*
Y48847D02*
D03*
X240209D02*
D03*
Y71346D02*
D03*
X164000Y134500D02*
D03*
X95500Y58500D02*
D03*
Y62000D02*
D03*
X131000Y100500D02*
D03*
X136000Y91500D02*
D03*
X133500Y96000D02*
D03*
X158500Y74500D02*
D03*
X134000Y49500D02*
D03*
X94000Y54000D02*
D03*
X91500Y50500D02*
D03*
X114000Y127000D02*
D03*
X97000Y109500D02*
D03*
X110000Y57500D02*
D03*
Y63000D02*
D03*
X133500Y16500D02*
D03*
X134000Y27500D02*
D03*
Y45500D02*
D03*
Y38500D02*
D03*
Y31500D02*
D03*
X118500Y16500D02*
D03*
X128500D02*
D03*
X123500D02*
D03*
X109000Y38500D02*
D03*
X46000Y167000D02*
D03*
X109000Y45500D02*
D03*
X102500Y104500D02*
D03*
X67000Y13500D02*
D03*
X65000Y30500D02*
D03*
X40500Y39000D02*
D03*
X75000Y13500D02*
D03*
X37000Y15000D02*
D03*
X43000D02*
D03*
X55000D02*
D03*
X49000D02*
D03*
X61000D02*
D03*
X93000Y16500D02*
D03*
X86000D02*
D03*
Y27500D02*
D03*
X93000D02*
D03*
X127500Y105500D02*
D03*
Y116500D02*
D03*
X76000Y44500D02*
D03*
X74000Y40000D02*
D03*
X70500D02*
D03*
X61000Y44500D02*
D03*
X42000Y53000D02*
D03*
X29500Y46000D02*
D03*
Y51000D02*
D03*
X113500Y16500D02*
D03*
X109000Y31500D02*
D03*
X83000Y35500D02*
D03*
X52500Y39000D02*
D03*
X147500Y150000D02*
D03*
Y171000D02*
D03*
X123000D02*
D03*
X114000Y123000D02*
D03*
X140000Y120000D02*
D03*
X134000Y116500D02*
D03*
X121500D02*
D03*
X81500Y94000D02*
D03*
X73000D02*
D03*
X68000D02*
D03*
X54000D02*
D03*
X35500Y115000D02*
D03*
X47000Y119500D02*
D03*
X25500Y48500D02*
D03*
Y63382D02*
D03*
X40500Y85500D02*
D03*
X121500Y138500D02*
D03*
X40500Y71500D02*
D03*
X54000Y80500D02*
D03*
X57500D02*
D03*
X61000D02*
D03*
X81500D02*
D03*
X68000D02*
D03*
X73000D02*
D03*
X48500D02*
D03*
X37500Y119000D02*
D03*
X48000Y131000D02*
D03*
X170000Y134500D02*
D03*
X151500Y120000D02*
D03*
X155000Y117500D02*
D03*
X114000Y137000D02*
D03*
X150500Y95000D02*
D03*
X159500D02*
D03*
X150500Y104000D02*
D03*
X159500D02*
D03*
X155000Y95000D02*
D03*
X150500Y99500D02*
D03*
X155000Y104000D02*
D03*
X159500Y99500D02*
D03*
X155000D02*
D03*
X42500Y46000D02*
D03*
D109*
X92000Y69000D02*
X96000Y73000D01*
X134000Y119500D02*
X137500Y123000D01*
X75000Y119500D02*
X134000D01*
X137500Y123000D02*
X143500D01*
X134500Y113500D02*
X139000Y109000D01*
X81500Y113500D02*
X134500D01*
X96000Y73000D02*
Y96500D01*
X102349Y102849D01*
Y104349D02*
X102500Y104500D01*
X102349Y102849D02*
Y104349D01*
X48500Y93000D02*
X75000Y119500D01*
X149000Y117500D02*
X155000D01*
X143500Y123000D02*
X149000Y117500D01*
X61000Y93000D02*
X81500Y113500D01*
X79500Y116500D02*
X121500D01*
X57500Y94500D02*
X79500Y116500D01*
X48500Y80500D02*
Y93000D01*
X57500Y80500D02*
Y94500D01*
X61000Y80500D02*
Y93000D01*
D110*
X10000Y98000D02*
X17000D01*
X10000Y103000D02*
X17000D01*
X10000Y108000D02*
X17000D01*
X10000Y113000D02*
X17000D01*
X10000Y118000D02*
X17000D01*
X10000Y123000D02*
X17000D01*
X17357Y98197D02*
X22992D01*
X17160Y98000D02*
X17357Y98197D01*
X17000Y98000D02*
X17160D01*
X17278Y103118D02*
X22992D01*
X17160Y103000D02*
X17278Y103118D01*
X17000Y103000D02*
X17160D01*
X17039Y108039D02*
X22992D01*
X17000Y108000D02*
X17039Y108039D01*
Y112961D02*
X22992D01*
X17000Y113000D02*
X17039Y112961D01*
X17278Y117882D02*
X22992D01*
X17160Y118000D02*
X17278Y117882D01*
X17000Y118000D02*
X17160D01*
X17357Y122803D02*
X22992D01*
X17160Y123000D02*
X17357Y122803D01*
X17000Y123000D02*
X17160D01*
D113*
X10000Y128000D02*
D03*
Y48500D02*
D03*
Y53500D02*
D03*
Y58500D02*
D03*
Y63500D02*
D03*
Y93000D02*
D03*
Y98000D02*
D03*
Y103000D02*
D03*
Y108000D02*
D03*
Y113000D02*
D03*
Y118000D02*
D03*
Y123000D02*
D03*
D114*
X113500Y9000D02*
D03*
X118500D02*
D03*
X133500D02*
D03*
X128500D02*
D03*
X123500D02*
D03*
D115*
X232500Y156500D02*
D03*
X240500D02*
D03*
X248500D02*
D03*
Y164500D02*
D03*
X240500D02*
D03*
X232500D02*
D03*
Y172500D02*
D03*
X248500D02*
D03*
X240500D02*
D03*
X193500Y156500D02*
D03*
X201500D02*
D03*
X209500D02*
D03*
Y164500D02*
D03*
X201500D02*
D03*
X193500D02*
D03*
Y172500D02*
D03*
X209500D02*
D03*
X201500D02*
D03*
X315000Y137500D02*
D03*
X307000D02*
D03*
X299000D02*
D03*
X291000D02*
D03*
Y129500D02*
D03*
X299000D02*
D03*
X307000D02*
D03*
X315000D02*
D03*
Y121500D02*
D03*
X291000D02*
D03*
X299000D02*
D03*
X307000D02*
D03*
X306500Y39500D02*
D03*
X298500D02*
D03*
X290500D02*
D03*
X314500D02*
D03*
Y47500D02*
D03*
X306500D02*
D03*
X298500D02*
D03*
X290500D02*
D03*
Y55500D02*
D03*
X298500D02*
D03*
X306500D02*
D03*
X314500D02*
D03*
X307000Y80500D02*
D03*
X299000D02*
D03*
X291000D02*
D03*
X315000D02*
D03*
Y88500D02*
D03*
X307000D02*
D03*
X299000D02*
D03*
X291000D02*
D03*
Y96500D02*
D03*
X299000D02*
D03*
X307000D02*
D03*
X315000D02*
D03*
X219000Y142500D02*
D03*
X239000D02*
D03*
X234000D02*
D03*
X229000D02*
D03*
X224000D02*
D03*
X221500Y137500D02*
D03*
X226500D02*
D03*
X231500D02*
D03*
X236500D02*
D03*
X190000Y53000D02*
D03*
Y48000D02*
D03*
Y43000D02*
D03*
Y38000D02*
D03*
Y33000D02*
D03*
X185000D02*
D03*
Y38000D02*
D03*
Y43000D02*
D03*
Y48000D02*
D03*
Y53000D02*
D03*
Y58000D02*
D03*
X190000D02*
D03*
X185000Y63000D02*
D03*
X185500Y146000D02*
D03*
X190500Y141000D02*
D03*
X185500D02*
D03*
X233500Y85500D02*
D03*
Y80500D02*
D03*
Y75500D02*
D03*
Y52500D02*
D03*
Y57500D02*
D03*
Y62500D02*
D03*
Y67500D02*
D03*
X217000Y80500D02*
D03*
Y75500D02*
D03*
Y70500D02*
D03*
Y65500D02*
D03*
Y60500D02*
D03*
X212500Y63000D02*
D03*
Y68000D02*
D03*
Y73000D02*
D03*
Y78000D02*
D03*
Y83000D02*
D03*
X185000Y82500D02*
D03*
X190500D02*
D03*
X185000Y102500D02*
D03*
X190500D02*
D03*
X251000Y97000D02*
D03*
X246000Y101000D02*
D03*
X251000D02*
D03*
X177000Y100500D02*
D03*
Y92500D02*
D03*
X185500Y136000D02*
D03*
Y131000D02*
D03*
Y126000D02*
D03*
Y121000D02*
D03*
Y116000D02*
D03*
X190500D02*
D03*
Y121000D02*
D03*
Y126000D02*
D03*
Y131000D02*
D03*
Y136000D02*
D03*
Y146000D02*
D03*
X265638Y49000D02*
D03*
Y53000D02*
D03*
Y58000D02*
D03*
Y62000D02*
D03*
X270638D02*
D03*
Y58000D02*
D03*
Y53000D02*
D03*
Y49000D02*
D03*
X265638Y71500D02*
D03*
Y75500D02*
D03*
Y80500D02*
D03*
Y84500D02*
D03*
X270638D02*
D03*
Y80500D02*
D03*
Y75500D02*
D03*
Y71500D02*
D03*
X271000Y138000D02*
D03*
Y142000D02*
D03*
Y147000D02*
D03*
Y151000D02*
D03*
X266000D02*
D03*
Y147000D02*
D03*
Y142000D02*
D03*
Y138000D02*
D03*
X250500Y33000D02*
D03*
X245500D02*
D03*
Y11000D02*
D03*
X264000Y129000D02*
D03*
X246000Y125000D02*
D03*
X251000D02*
D03*
X269000Y129000D02*
D03*
X264000Y125000D02*
D03*
X269000D02*
D03*
X251000Y121000D02*
D03*
X256909Y136921D02*
D03*
X177000Y112500D02*
D03*
X264000Y102500D02*
D03*
X269000D02*
D03*
X264000Y97500D02*
D03*
X269000D02*
D03*
X264000Y93500D02*
D03*
X245500Y16000D02*
D03*
Y23000D02*
D03*
Y28000D02*
D03*
X250500Y11000D02*
D03*
X255000D02*
D03*
X260000D02*
D03*
X265000D02*
D03*
X270000D02*
D03*
X250500Y28000D02*
D03*
Y23000D02*
D03*
Y16000D02*
D03*
X255000D02*
D03*
X260000D02*
D03*
X265000D02*
D03*
X270000D02*
D03*
X265000Y27000D02*
D03*
Y31000D02*
D03*
Y36000D02*
D03*
Y40000D02*
D03*
X270000Y27000D02*
D03*
Y31000D02*
D03*
Y36000D02*
D03*
Y40000D02*
D03*
X269000Y93500D02*
D03*
X264000Y106500D02*
D03*
X269000D02*
D03*
X278091Y107579D02*
D03*
X251000Y105000D02*
D03*
Y109000D02*
D03*
Y113000D02*
D03*
Y117000D02*
D03*
X246000Y105000D02*
D03*
Y109000D02*
D03*
Y113000D02*
D03*
Y117000D02*
D03*
Y121000D02*
D03*
X264000Y116000D02*
D03*
Y120000D02*
D03*
X269000D02*
D03*
Y116000D02*
D03*
X278590Y41079D02*
D03*
X256547Y47921D02*
D03*
Y70421D02*
D03*
X278091Y130079D02*
D03*
X166500Y31500D02*
D03*
X142500Y52000D02*
D03*
X148500D02*
D03*
X162000D02*
D03*
X155500D02*
D03*
X21000Y89000D02*
D03*
X25500Y132000D02*
D03*
X21000D02*
D03*
X17000Y98000D02*
D03*
Y103000D02*
D03*
Y108000D02*
D03*
Y113000D02*
D03*
Y118000D02*
D03*
Y123000D02*
D03*
Y128000D02*
D03*
X149000Y45500D02*
D03*
Y38500D02*
D03*
Y31500D02*
D03*
X90500Y94000D02*
D03*
X101500D02*
D03*
X91780Y145780D02*
D03*
Y150279D02*
D03*
Y154780D02*
D03*
X87279D02*
D03*
X82780D02*
D03*
X78280D02*
D03*
Y150279D02*
D03*
Y141279D02*
D03*
Y136779D02*
D03*
X82780D02*
D03*
X87279D02*
D03*
X91780D02*
D03*
Y141279D02*
D03*
X25500Y89000D02*
D03*
X17000Y93000D02*
D03*
X108500Y82500D02*
D03*
X106500Y99500D02*
D03*
Y104500D02*
D03*
X33500Y153000D02*
D03*
X58000Y161500D02*
D03*
X63000D02*
D03*
X53000Y161000D02*
D03*
X46000D02*
D03*
X54125Y131625D02*
D03*
X177000Y68500D02*
D03*
Y96500D02*
D03*
Y72500D02*
D03*
Y88500D02*
D03*
Y76500D02*
D03*
Y104500D02*
D03*
Y108500D02*
D03*
Y84500D02*
D03*
Y80500D02*
D03*
Y64500D02*
D03*
X40000Y153000D02*
D03*
D116*
X309055Y163386D02*
D03*
Y13780D02*
D03*
X13780Y163386D02*
D03*
X163386D02*
D03*
Y13780D02*
D03*
X13780D02*
D03*
D117*
X55000Y9000D02*
X73616D01*
X75000Y10384D01*
X59000Y42500D02*
X74000Y27500D01*
X86000D01*
X75000Y10384D02*
Y13500D01*
X134000Y27500D02*
X145000D01*
X93000D02*
X134000D01*
X149000Y38500D02*
Y45500D01*
Y31500D02*
Y38500D01*
X145000Y27500D02*
X149000Y31500D01*
X55000Y9000D02*
Y15000D01*
X43000Y9000D02*
X55000D01*
X36000D02*
X43000D01*
X33500Y11500D02*
X36000Y9000D01*
X33500Y42500D02*
Y87000D01*
X59000Y42500D02*
X61000Y44500D01*
X33500Y42500D02*
X59000D01*
X33500Y11500D02*
Y42500D01*
X43000Y9000D02*
Y15000D01*
X54125Y107625D02*
Y131625D01*
X33500Y87000D02*
X54125Y107625D01*
D118*
X146000Y79000D02*
Y79072D01*
X148844Y81916D01*
X146000Y78894D02*
Y79000D01*
X145500Y78394D02*
X146000Y78894D01*
X145500Y54000D02*
Y78394D01*
D119*
X86000Y27500D02*
X93000D01*
M02*
