M48
;Layer_Color=9474304
;FILE_FORMAT=2:4
INCH,TZ
;TYPE=PLATED
T1F00S00C0.0118
T2F00S00C0.0177
T3F00S00C0.0394
T4F00S00C0.1339
%
T01
X3000Y1000
X3889Y970
Y1320
X3500Y2000
X4000Y3000
X3000
X2000
X1223Y3375
X873
X1500Y4000
X2172Y4261
X2522
X3500Y4000
X4500
X4400Y4988
Y6012
X4000Y7000
X3500Y8000
X3000Y9000
X2000
Y7000
X1223Y7115
X873
X1500Y6000
X2172Y6229
X2522
X1000Y5000
X5488Y4924
Y4550
Y4176
X6512
Y4550
Y4924
X6500Y5500
Y5800
Y6100
Y6400
X5400Y6850
Y7450
Y8000
X7050Y7974
Y8526
X7600Y7750
Y7400
X8100Y7350
Y7000
X9043Y6790
X9450Y6500
X9936
X10450
Y6950
X10300Y6100
X10600
X10100Y5750
X9450Y5650
X9150
X8700Y5350
Y5050
X9200Y4800
X8500Y4000
X7500
X7200Y4550
X8200Y5350
X8000Y3000
X9000
X9961Y2502
Y2152
X9500Y2000
X8500
X8121Y1320
Y970
X9085Y843
Y1193
X10000Y1000
X11000
X12000
X12825Y843
Y1193
X13735
Y843
X13500Y2000
X12500
X11939Y2142
Y2492
X13000Y3000
X14611Y2502
Y2152
X15000Y1000
X11050Y4320
X11250Y4700
X10850Y5150
X8700Y7750
X9000Y11350
X8850Y11850
X9000Y13000
X8038Y13188
X6939Y12989
X6850Y13900
X7300Y14350
X7350Y14900
X6650Y15350
X5100Y14712
Y13688
X5000Y13000
X4000
X3000
X2500Y12985
X2200
Y13478
X2500
Y13970
X2200
Y14462
X2500
Y14954
X2200
Y15446
X2500
X1000Y15000
X1500Y14000
X1000Y13000
X5500Y12000
X7500
X7450Y12300
X7050Y11450
X7000Y11000
X7050Y10626
Y10074
X6400Y10550
X6150Y10350
X5900Y10150
X5500Y10000
X3500
X8000Y11350
X10100Y11200
X10950
X11150Y11550
X10400Y11850
X13500Y12000
X13550Y10300
X13250
X12950
X12630Y10380
X14000Y10450
X13850Y9750
Y9050
Y8350
X13200Y8335
X12900
X12600
X13050Y8835
X15500Y8000
Y12000
X14000Y15000
X13000
X7225Y2629
Y2279
X7000Y1000
X6000
X5000
X4765Y2279
Y2629
X16579Y2502
Y2152
X17500Y2000
X17475Y1193
Y843
X18000Y1000
X16000
X15700Y4320
X18500Y4000
X18000Y7000
X16500Y8000
Y12000
X18300Y13050
X19500Y12000
Y10000
X22500
X23500
X24500
X25000Y11000
X24000
X23000
Y13000
X24000
X25000
X24500Y14000
X23500
X22500
X22000Y13000
X23000Y9000
X23500Y8000
X24500
X25000Y7000
X24000
X23000
X22000
X22500Y8000
X22471Y4253
X21800Y4250
X21500Y2000
X22000Y1000
X21000
X23304Y3174
X24776
X24680Y4253
X25416
X26153
X26889
X27625
X28361
X29221Y4248
X29800Y4650
X30100
X28874Y2566
X29132Y1877
X29712Y1424
X30448
X31183Y1376
X25000Y5000
X24000
X31900Y3900
X32200
X32450Y6900
X32750
X32000Y7000
X34700Y9100
X35000
Y9600
X34700
Y10100
X35000
Y10600
X34700
Y11400
X35000
Y11900
X34700
Y12400
X35000
Y12900
X34700
X32750Y13597
X32450
X32000Y15000
X31704Y855
X31900Y19650
X32200
X31317Y20895
X30862Y17784
X30150Y15900
X29850
X24500Y16000
X23500
X22500
X21500
X21129Y17825
X21600Y18703
X22336
X23073
X23809
X24545
X25281
X25030Y17497
X25000Y17000
X24000
X24294Y17497
X23558
X22821
X23000Y17000
X19900Y17300
X19550Y17250
X19200Y17300
X19550Y16813
X16500Y16000
Y18000
Y20000
X17500
X18000Y21000
X17000
X21000
X22000
X21500Y20000
X15500
X14500
X15000Y19000
X14000
X13000
X12500Y20000
X12475Y20767
Y21117
X13000Y21000
X11000
X10000
X8735Y21117
Y20767
X8000Y21000
X8500Y20000
X9611Y19828
Y19478
X11579
Y19828
X10500Y17850
X8650Y16600
X8150Y16750
X7050Y17250
X6450Y16050
Y15700
X5100Y15638
Y16662
X2500Y16430
X2200
Y15938
X2500
Y16922
X2200
Y17415
X2500
X1000Y17000
X1500Y16000
X1000Y19000
X8000
X14500Y18000
X15000Y17000
X14000
X14500Y16000
X13500
X12500
T02
X3000Y7050
X2600Y9350
X4650Y9550
X5150Y10650
X4650Y12300
X3450Y12000
X1448Y12702
X800Y12700
X8500Y12550
X10050
X10750
X11400Y11800
Y11300
X11150Y10250
Y9750
Y9250
Y8750
X10400
Y9250
Y9750
Y10250
X9650
Y9750
Y9250
Y8750
X8900
Y9250
Y9750
Y10250
X8150
Y9750
Y9250
Y8750
X7600Y7000
X8700Y6650
Y4450
X8850Y3900
X7050Y5250
X11750Y5650
X12900
Y4900
X13350Y4770
Y4400
Y5150
X13600Y3900
X12950Y3900
X12300Y6550
Y7050
Y7550
X14750Y9100
Y9700
X14500Y11150
X14649Y12721
X12950Y12100
X12400Y12300
X13000Y13800
Y14300
X14750Y15300
X16350Y15350
X17350Y14750
Y14200
Y13650
X17450Y12700
X19099Y13326
X19049Y14326
X18649Y14026
X18050Y14800
X19350Y15150
X19750
X20150
X20550
X20950
X21049Y14276
X20049Y14326
Y13876
X19949Y13076
Y12576
X20049Y11576
Y11126
X20040Y10235
X19949Y9826
X20049Y8826
Y8376
X19949Y7576
Y7076
X20049Y6064
Y5626
X19949Y4826
Y4326
X21399
Y4826
X21049Y6026
X21399Y7076
Y7576
X21049Y8776
X21399Y9826
Y10326
X21065Y11510
X21400Y12600
X21399Y13076
X22449Y11876
X22449Y14626
Y9114
Y6376
X22000Y3500
Y3000
X22750Y2100
Y1300
Y500
X23550
X24350
Y1300
X23550
Y2100
X24350
X25450
Y1300
Y500
X26250
Y1300
Y2100
X27050
Y1300
Y500
X27850
Y1000
Y1500
Y2000
Y2500
Y3000
X27350
X26850
X26350
X25850
X25350
X28350
Y2500
Y2000
Y1500
Y1000
Y500
X28850
X29350
X29850
X30350
X30850
Y1000
X30350
X29850
X29350
X28850
Y1500
X30167Y2650
Y3150
Y3650
X30683
X31167
Y3150
X30683
Y2650
X31167
X30500Y9700
X30000
X29500
X29000
Y10200
Y10700
X29500
Y10200
X30000
X30500
Y10700
X30000
Y11300
X29500
X29000
Y11800
Y12300
X29500
X30000
Y11800
X29500
X30500
Y12300
Y11300
X31000
Y11800
Y10700
Y10200
X19099Y10576
X19049Y11576
X18649Y11276
X18649Y8871
X19049Y8571
X19099Y7826
X19049Y5821
X18649Y6121
X17600Y5700
X17100Y6550
X15953Y5370
X17600Y3900
X18050Y4100
X18650Y3000
X19099Y5076
X15900Y14100
X33450Y14350
Y14850
X33967
X34450
Y14350
X33967
Y13850
X34450
X33450
X33483Y12650
X33967
Y12150
X33483
Y11650
X33967
X32967
Y12150
Y12650
X32000Y11800
Y11300
X31500
Y11800
Y10700
X32000
Y10200
X31500
X32967Y10350
Y9850
Y9350
X33483
X33967
Y9850
X33483
Y10350
X33967
X33967Y8150
X34450
Y7650
X33967
Y7150
X34450
X33450
Y7650
Y8150
X35700Y8200
Y9000
Y9800
X36500
X37300
X38100
Y9000
X37300
X36500
Y8200
X37300
X38100
Y5600
X37300
X36500
X35700
Y4800
X36500
X37300
X38100
Y4000
X37300
X36500
X35700
X35800Y1800
X34700Y350
X32200Y950
Y1400
Y1850
X31317Y5400
X35700Y12200
X36500
X37300
X38100
Y13000
X37300
X36500
X35700
Y13800
X36500
X37300
X38100
Y16400
Y17200
Y18000
X37300
X36500
X35700
Y17200
X36500
X37300
Y16400
X36500
X35700
X31367Y16650
X32200Y20200
Y20650
Y21100
X35800
X30750Y21000
Y20500
X30250
Y21000
Y21500
X30750
X29750
Y21000
Y20500
X29250
Y21000
Y21500
X28500
Y20700
Y19900
X27700
X26900
X26100
Y20700
X26900
X27700
Y21500
X26900
X26100
X24950
Y20700
Y19900
X24150
X23350
X22550
Y20700
X23350
X24150
Y21500
X23350
X22550
X21850Y19000
Y17200
X21400Y16750
X20550Y17800
X18750Y18400
X18350
X17950
X17550
X17150
X16450Y20650
Y21250
X26000Y19000
X26500
X27000
X27500
X28000
X28500
X29250
Y19500
Y20000
X13500Y21250
X12600Y18270
X12850Y17800
Y17400
Y17000
Y16600
X10247Y16800
X8250Y17750
X8600Y18250
X6450Y18100
Y18500
Y18900
X6200Y17800
X5800
X5400
X5000
X4750Y18100
Y18500
Y18900
X3750Y19000
X3250
Y19500
X3750
Y18500
X3250
Y18000
X3750
X1448Y17698
X800Y17700
X3000Y20550
Y21050
X6500Y20950
Y20600
X7250Y20950
T03
X800Y7950
Y8900
Y9850
Y10800
T04
X1500Y1500
X19500
X37500
Y20500
X19500
X1500
M30
