G04*
G04 #@! TF.GenerationSoftware,Altium Limited,Altium Designer,21.6.4 (81)*
G04*
G04 Layer_Color=8388736*
%FSLAX25Y25*%
%MOIN*%
G70*
G04*
G04 #@! TF.SameCoordinates,3BA059D2-C19B-422F-8E39-1BAB5BDEDA6E*
G04*
G04*
G04 #@! TF.FilePolarity,Positive*
G04*
G01*
G75*
%ADD13C,0.01000*%
D13*
Y15000D02*
X32Y14019D01*
X128Y13042D01*
X288Y12074D01*
X511Y11118D01*
X796Y10178D01*
X1142Y9260D01*
X1547Y8366D01*
X2010Y7500D01*
X2528Y6667D01*
X3100Y5869D01*
X3722Y5110D01*
X4393Y4393D01*
X5110Y3722D01*
X5869Y3100D01*
X6667Y2528D01*
X7500Y2010D01*
X8366Y1547D01*
X9260Y1142D01*
X10178Y796D01*
X11118Y511D01*
X12074Y288D01*
X13042Y128D01*
X14019Y32D01*
X15000Y0D01*
X375000D02*
X375981Y32D01*
X376958Y128D01*
X377926Y288D01*
X378882Y511D01*
X379822Y796D01*
X380740Y1142D01*
X381634Y1547D01*
X382500Y2010D01*
X383334Y2528D01*
X384131Y3100D01*
X384890Y3722D01*
X385607Y4393D01*
X386278Y5110D01*
X386900Y5869D01*
X387472Y6667D01*
X387990Y7500D01*
X388453Y8366D01*
X388858Y9260D01*
X389204Y10178D01*
X389489Y11118D01*
X389712Y12074D01*
X389872Y13042D01*
X389968Y14019D01*
X390000Y15000D01*
X15000Y220000D02*
X14019Y219968D01*
X13042Y219872D01*
X12074Y219712D01*
X11118Y219489D01*
X10178Y219204D01*
X9260Y218858D01*
X8366Y218453D01*
X7500Y217990D01*
X6667Y217472D01*
X5869Y216900D01*
X5110Y216278D01*
X4393Y215607D01*
X3722Y214890D01*
X3100Y214131D01*
X2528Y213334D01*
X2010Y212500D01*
X1547Y211634D01*
X1142Y210740D01*
X796Y209822D01*
X511Y208882D01*
X288Y207926D01*
X128Y206958D01*
X32Y205981D01*
X0Y205000D01*
X390000D02*
X389968Y205981D01*
X389872Y206958D01*
X389712Y207926D01*
X389489Y208882D01*
X389204Y209822D01*
X388858Y210740D01*
X388453Y211634D01*
X387990Y212500D01*
X387472Y213334D01*
X386900Y214131D01*
X386278Y214890D01*
X385607Y215607D01*
X384890Y216278D01*
X384131Y216900D01*
X383334Y217472D01*
X382500Y217990D01*
X381634Y218453D01*
X380740Y218858D01*
X379822Y219204D01*
X378882Y219489D01*
X377926Y219712D01*
X376958Y219872D01*
X375981Y219968D01*
X375000Y220000D01*
X-0Y205000D02*
X0Y15000D01*
X15000Y0D02*
X375000D01*
X390000Y15000D02*
Y205000D01*
X15000Y220000D02*
X375000D01*
M02*
