G04*
G04 #@! TF.GenerationSoftware,Altium Limited,Altium Designer,21.0.8 (223)*
G04*
G04 Layer_Physical_Order=2*
G04 Layer_Color=36540*
%FSLAX25Y25*%
%MOIN*%
G70*
G04*
G04 #@! TF.SameCoordinates,B676E1CA-0217-40F3-8002-BB03906CADE6*
G04*
G04*
G04 #@! TF.FilePolarity,Positive*
G04*
G01*
G75*
%ADD107C,0.02362*%
%ADD109C,0.01575*%
%ADD113O,0.05906X0.03937*%
%ADD114O,0.03937X0.05906*%
%ADD115C,0.03347*%
%ADD116C,0.23622*%
G36*
X309055Y176363D02*
X309906D01*
X311592Y176140D01*
X313235Y175700D01*
X314807Y175049D01*
X316280Y174199D01*
X317630Y173163D01*
X318832Y171960D01*
X319868Y170611D01*
X320719Y169138D01*
X321370Y167566D01*
X321810Y165923D01*
X322032Y164236D01*
X322032Y163386D01*
X322032Y13780D01*
Y12929D01*
X321810Y11242D01*
X321370Y9599D01*
X320719Y8028D01*
X319868Y6555D01*
X318832Y5205D01*
X317630Y4002D01*
X316280Y2967D01*
X314807Y2116D01*
X313235Y1465D01*
X311592Y1025D01*
X309906Y803D01*
X12929D01*
X11242Y1025D01*
X9599Y1465D01*
X8028Y2116D01*
X6555Y2967D01*
X5205Y4002D01*
X4002Y5205D01*
X2967Y6555D01*
X2116Y8028D01*
X1465Y9599D01*
X1025Y11242D01*
X803Y12929D01*
Y13780D01*
X803Y163386D01*
X803Y164236D01*
X1025Y165923D01*
X1465Y167566D01*
X2116Y169138D01*
X2967Y170611D01*
X4002Y171960D01*
X5205Y173163D01*
X6555Y174199D01*
X8028Y175049D01*
X9599Y175700D01*
X11242Y176140D01*
X12929Y176363D01*
X13780D01*
X309055Y176363D01*
D02*
G37*
%LPC*%
G36*
X249000Y174616D02*
Y173000D01*
X250616D01*
X250547Y173348D01*
X250067Y174067D01*
X249348Y174547D01*
X249000Y174616D01*
D02*
G37*
G36*
X248000D02*
X247652Y174547D01*
X246933Y174067D01*
X246453Y173348D01*
X246384Y173000D01*
X248000D01*
Y174616D01*
D02*
G37*
G36*
X241000D02*
Y173000D01*
X242616D01*
X242547Y173348D01*
X242067Y174067D01*
X241348Y174547D01*
X241000Y174616D01*
D02*
G37*
G36*
X240000D02*
X239652Y174547D01*
X238933Y174067D01*
X238453Y173348D01*
X238384Y173000D01*
X240000D01*
Y174616D01*
D02*
G37*
G36*
X233000D02*
Y173000D01*
X234616D01*
X234547Y173348D01*
X234067Y174067D01*
X233348Y174547D01*
X233000Y174616D01*
D02*
G37*
G36*
X232000D02*
X231652Y174547D01*
X230933Y174067D01*
X230453Y173348D01*
X230384Y173000D01*
X232000D01*
Y174616D01*
D02*
G37*
G36*
X250616Y172000D02*
X249000D01*
Y170384D01*
X249348Y170453D01*
X250067Y170933D01*
X250547Y171652D01*
X250616Y172000D01*
D02*
G37*
G36*
X248000D02*
X246384D01*
X246453Y171652D01*
X246933Y170933D01*
X247652Y170453D01*
X248000Y170384D01*
Y172000D01*
D02*
G37*
G36*
X242616D02*
X241000D01*
Y170384D01*
X241348Y170453D01*
X242067Y170933D01*
X242547Y171652D01*
X242616Y172000D01*
D02*
G37*
G36*
X240000D02*
X238384D01*
X238453Y171652D01*
X238933Y170933D01*
X239652Y170453D01*
X240000Y170384D01*
Y172000D01*
D02*
G37*
G36*
X234616D02*
X233000D01*
Y170384D01*
X233348Y170453D01*
X234067Y170933D01*
X234547Y171652D01*
X234616Y172000D01*
D02*
G37*
G36*
X232000D02*
X230384D01*
X230453Y171652D01*
X230933Y170933D01*
X231652Y170453D01*
X232000Y170384D01*
Y172000D01*
D02*
G37*
G36*
X209500Y175009D02*
X208540Y174818D01*
X207726Y174274D01*
X207182Y173460D01*
X206991Y172500D01*
X207182Y171540D01*
X207726Y170726D01*
X208540Y170182D01*
X209500Y169991D01*
X210460Y170182D01*
X211274Y170726D01*
X211818Y171540D01*
X212009Y172500D01*
X211818Y173460D01*
X211274Y174274D01*
X210460Y174818D01*
X209500Y175009D01*
D02*
G37*
G36*
X201500D02*
X200540Y174818D01*
X199726Y174274D01*
X199182Y173460D01*
X198991Y172500D01*
X199182Y171540D01*
X199726Y170726D01*
X200540Y170182D01*
X201500Y169991D01*
X202460Y170182D01*
X203274Y170726D01*
X203818Y171540D01*
X204009Y172500D01*
X203818Y173460D01*
X203274Y174274D01*
X202460Y174818D01*
X201500Y175009D01*
D02*
G37*
G36*
X193500D02*
X192540Y174818D01*
X191726Y174274D01*
X191182Y173460D01*
X190991Y172500D01*
X191182Y171540D01*
X191726Y170726D01*
X192540Y170182D01*
X193500Y169991D01*
X194460Y170182D01*
X195274Y170726D01*
X195818Y171540D01*
X196009Y172500D01*
X195818Y173460D01*
X195274Y174274D01*
X194460Y174818D01*
X193500Y175009D01*
D02*
G37*
G36*
X249000Y166616D02*
Y165000D01*
X250616D01*
X250547Y165348D01*
X250067Y166067D01*
X249348Y166547D01*
X249000Y166616D01*
D02*
G37*
G36*
X248000D02*
X247652Y166547D01*
X246933Y166067D01*
X246453Y165348D01*
X246384Y165000D01*
X248000D01*
Y166616D01*
D02*
G37*
G36*
X241000D02*
Y165000D01*
X242616D01*
X242547Y165348D01*
X242067Y166067D01*
X241348Y166547D01*
X241000Y166616D01*
D02*
G37*
G36*
X240000D02*
X239652Y166547D01*
X238933Y166067D01*
X238453Y165348D01*
X238384Y165000D01*
X240000D01*
Y166616D01*
D02*
G37*
G36*
X233000D02*
Y165000D01*
X234616D01*
X234547Y165348D01*
X234067Y166067D01*
X233348Y166547D01*
X233000Y166616D01*
D02*
G37*
G36*
X232000D02*
X231652Y166547D01*
X230933Y166067D01*
X230453Y165348D01*
X230384Y165000D01*
X232000D01*
Y166616D01*
D02*
G37*
G36*
X250616Y164000D02*
X249000D01*
Y162384D01*
X249348Y162453D01*
X250067Y162933D01*
X250547Y163652D01*
X250616Y164000D01*
D02*
G37*
G36*
X248000D02*
X246384D01*
X246453Y163652D01*
X246933Y162933D01*
X247652Y162453D01*
X248000Y162384D01*
Y164000D01*
D02*
G37*
G36*
X242616D02*
X241000D01*
Y162384D01*
X241348Y162453D01*
X242067Y162933D01*
X242547Y163652D01*
X242616Y164000D01*
D02*
G37*
G36*
X240000D02*
X238384D01*
X238453Y163652D01*
X238933Y162933D01*
X239652Y162453D01*
X240000Y162384D01*
Y164000D01*
D02*
G37*
G36*
X234616D02*
X233000D01*
Y162384D01*
X233348Y162453D01*
X234067Y162933D01*
X234547Y163652D01*
X234616Y164000D01*
D02*
G37*
G36*
X232000D02*
X230384D01*
X230453Y163652D01*
X230933Y162933D01*
X231652Y162453D01*
X232000Y162384D01*
Y164000D01*
D02*
G37*
G36*
X209500Y167009D02*
X208540Y166818D01*
X207726Y166274D01*
X207182Y165460D01*
X206991Y164500D01*
X207182Y163540D01*
X207726Y162726D01*
X208540Y162182D01*
X209500Y161991D01*
X210460Y162182D01*
X211274Y162726D01*
X211818Y163540D01*
X212009Y164500D01*
X211818Y165460D01*
X211274Y166274D01*
X210460Y166818D01*
X209500Y167009D01*
D02*
G37*
G36*
X201500D02*
X200540Y166818D01*
X199726Y166274D01*
X199182Y165460D01*
X198991Y164500D01*
X199182Y163540D01*
X199726Y162726D01*
X200540Y162182D01*
X201500Y161991D01*
X202460Y162182D01*
X203274Y162726D01*
X203818Y163540D01*
X204009Y164500D01*
X203818Y165460D01*
X203274Y166274D01*
X202460Y166818D01*
X201500Y167009D01*
D02*
G37*
G36*
X193500D02*
X192540Y166818D01*
X191726Y166274D01*
X191182Y165460D01*
X190991Y164500D01*
X191182Y163540D01*
X191726Y162726D01*
X192540Y162182D01*
X193500Y161991D01*
X194460Y162182D01*
X195274Y162726D01*
X195818Y163540D01*
X196009Y164500D01*
X195818Y165460D01*
X195274Y166274D01*
X194460Y166818D01*
X193500Y167009D01*
D02*
G37*
G36*
X249000Y158616D02*
Y157000D01*
X250616D01*
X250547Y157348D01*
X250067Y158067D01*
X249348Y158547D01*
X249000Y158616D01*
D02*
G37*
G36*
X248000D02*
X247652Y158547D01*
X246933Y158067D01*
X246453Y157348D01*
X246384Y157000D01*
X248000D01*
Y158616D01*
D02*
G37*
G36*
X241000D02*
Y157000D01*
X242616D01*
X242547Y157348D01*
X242067Y158067D01*
X241348Y158547D01*
X241000Y158616D01*
D02*
G37*
G36*
X240000D02*
X239652Y158547D01*
X238933Y158067D01*
X238453Y157348D01*
X238384Y157000D01*
X240000D01*
Y158616D01*
D02*
G37*
G36*
X233000D02*
Y157000D01*
X234616D01*
X234547Y157348D01*
X234067Y158067D01*
X233348Y158547D01*
X233000Y158616D01*
D02*
G37*
G36*
X232000D02*
X231652Y158547D01*
X230933Y158067D01*
X230453Y157348D01*
X230384Y157000D01*
X232000D01*
Y158616D01*
D02*
G37*
G36*
X91780Y156995D02*
X90932Y156827D01*
X90213Y156346D01*
X89807Y155740D01*
X89649Y155703D01*
X89410D01*
X89252Y155740D01*
X88846Y156346D01*
X88127Y156827D01*
X87279Y156995D01*
X86432Y156827D01*
X85713Y156346D01*
X85307Y155740D01*
X85149Y155703D01*
X84910D01*
X84752Y155740D01*
X84346Y156346D01*
X83627Y156827D01*
X82780Y156995D01*
X81932Y156827D01*
X81213Y156346D01*
X80807Y155740D01*
X80649Y155703D01*
X80410D01*
X80252Y155740D01*
X79846Y156346D01*
X79128Y156827D01*
X78280Y156995D01*
X77432Y156827D01*
X76713Y156346D01*
X76232Y155628D01*
X76064Y154780D01*
X76232Y153932D01*
X76713Y153213D01*
X77319Y152807D01*
X77356Y152649D01*
Y152410D01*
X77319Y152252D01*
X76713Y151846D01*
X76232Y151128D01*
X76064Y150279D01*
X76232Y149432D01*
X76713Y148713D01*
X77432Y148232D01*
X78280Y148064D01*
X79128Y148232D01*
X79846Y148713D01*
X80327Y149432D01*
X80495Y150279D01*
X80327Y151128D01*
X79846Y151846D01*
X79240Y152252D01*
X79203Y152410D01*
Y152649D01*
X79240Y152807D01*
X79846Y153213D01*
X80252Y153819D01*
X80410Y153856D01*
X80649D01*
X80807Y153819D01*
X81213Y153213D01*
X81932Y152732D01*
X82780Y152564D01*
X83627Y152732D01*
X84346Y153213D01*
X84752Y153819D01*
X84910Y153856D01*
X85149D01*
X85307Y153819D01*
X85713Y153213D01*
X86432Y152732D01*
X87279Y152564D01*
X88127Y152732D01*
X88846Y153213D01*
X89252Y153819D01*
X89410Y153856D01*
X89649D01*
X89807Y153819D01*
X90213Y153213D01*
X90819Y152807D01*
X90856Y152649D01*
Y152410D01*
X90819Y152252D01*
X90213Y151846D01*
X89732Y151128D01*
X89564Y150279D01*
X89732Y149432D01*
X90213Y148713D01*
X90819Y148307D01*
X90856Y148149D01*
Y147910D01*
X90819Y147752D01*
X90213Y147346D01*
X89732Y146627D01*
X89564Y145780D01*
X89732Y144932D01*
X90213Y144213D01*
X90819Y143807D01*
X90856Y143649D01*
Y143410D01*
X90819Y143252D01*
X90213Y142846D01*
X89732Y142128D01*
X89564Y141279D01*
X89732Y140432D01*
X90213Y139713D01*
X90819Y139307D01*
X90856Y139149D01*
Y138910D01*
X90819Y138752D01*
X90213Y138346D01*
X89807Y137740D01*
X89649Y137703D01*
X89410D01*
X89252Y137740D01*
X88846Y138346D01*
X88127Y138827D01*
X87279Y138995D01*
X86432Y138827D01*
X85713Y138346D01*
X85307Y137740D01*
X85149Y137703D01*
X84910D01*
X84752Y137740D01*
X84346Y138346D01*
X83627Y138827D01*
X82780Y138995D01*
X81932Y138827D01*
X81213Y138346D01*
X80807Y137740D01*
X80649Y137703D01*
X80410D01*
X80252Y137740D01*
X79846Y138346D01*
X79240Y138752D01*
X79203Y138910D01*
Y139149D01*
X79240Y139307D01*
X79846Y139713D01*
X80327Y140432D01*
X80495Y141279D01*
X80327Y142128D01*
X79846Y142846D01*
X79128Y143327D01*
X78280Y143495D01*
X77432Y143327D01*
X76713Y142846D01*
X76232Y142128D01*
X76064Y141279D01*
X76232Y140432D01*
X76713Y139713D01*
X77319Y139307D01*
X77356Y139149D01*
Y138910D01*
X77319Y138752D01*
X76713Y138346D01*
X76232Y137627D01*
X76064Y136779D01*
X76232Y135932D01*
X76713Y135213D01*
X77432Y134732D01*
X78280Y134564D01*
X79128Y134732D01*
X79846Y135213D01*
X80252Y135819D01*
X80410Y135856D01*
X80649D01*
X80807Y135819D01*
X81213Y135213D01*
X81932Y134732D01*
X82780Y134564D01*
X83627Y134732D01*
X84346Y135213D01*
X84752Y135819D01*
X84910Y135856D01*
X85149D01*
X85307Y135819D01*
X85713Y135213D01*
X86432Y134732D01*
X87279Y134564D01*
X88127Y134732D01*
X88846Y135213D01*
X89252Y135819D01*
X89410Y135856D01*
X89649D01*
X89807Y135819D01*
X90213Y135213D01*
X90932Y134732D01*
X91780Y134564D01*
X92628Y134732D01*
X93346Y135213D01*
X93827Y135932D01*
X93995Y136779D01*
X93827Y137627D01*
X93346Y138346D01*
X92740Y138752D01*
X92703Y138910D01*
Y139149D01*
X92740Y139307D01*
X93346Y139713D01*
X93827Y140432D01*
X93995Y141279D01*
X93827Y142128D01*
X93346Y142846D01*
X92740Y143252D01*
X92703Y143410D01*
Y143649D01*
X92740Y143807D01*
X93346Y144213D01*
X93827Y144932D01*
X93995Y145780D01*
X93827Y146627D01*
X93346Y147346D01*
X92740Y147752D01*
X92703Y147910D01*
Y148149D01*
X92740Y148307D01*
X93346Y148713D01*
X93827Y149432D01*
X93995Y150279D01*
X93827Y151128D01*
X93346Y151846D01*
X92740Y152252D01*
X92703Y152410D01*
Y152649D01*
X92740Y152807D01*
X93346Y153213D01*
X93827Y153932D01*
X93995Y154780D01*
X93827Y155628D01*
X93346Y156346D01*
X92628Y156827D01*
X91780Y156995D01*
D02*
G37*
G36*
X250616Y156000D02*
X249000D01*
Y154384D01*
X249348Y154453D01*
X250067Y154933D01*
X250547Y155652D01*
X250616Y156000D01*
D02*
G37*
G36*
X248000D02*
X246384D01*
X246453Y155652D01*
X246933Y154933D01*
X247652Y154453D01*
X248000Y154384D01*
Y156000D01*
D02*
G37*
G36*
X242616D02*
X241000D01*
Y154384D01*
X241348Y154453D01*
X242067Y154933D01*
X242547Y155652D01*
X242616Y156000D01*
D02*
G37*
G36*
X240000D02*
X238384D01*
X238453Y155652D01*
X238933Y154933D01*
X239652Y154453D01*
X240000Y154384D01*
Y156000D01*
D02*
G37*
G36*
X234616D02*
X233000D01*
Y154384D01*
X233348Y154453D01*
X234067Y154933D01*
X234547Y155652D01*
X234616Y156000D01*
D02*
G37*
G36*
X232000D02*
X230384D01*
X230453Y155652D01*
X230933Y154933D01*
X231652Y154453D01*
X232000Y154384D01*
Y156000D01*
D02*
G37*
G36*
X209500Y159009D02*
X208540Y158818D01*
X207726Y158274D01*
X207182Y157460D01*
X206991Y156500D01*
X207182Y155540D01*
X207726Y154726D01*
X208540Y154182D01*
X209500Y153991D01*
X210460Y154182D01*
X211274Y154726D01*
X211818Y155540D01*
X212009Y156500D01*
X211818Y157460D01*
X211274Y158274D01*
X210460Y158818D01*
X209500Y159009D01*
D02*
G37*
G36*
X201500D02*
X200540Y158818D01*
X199726Y158274D01*
X199182Y157460D01*
X198991Y156500D01*
X199182Y155540D01*
X199726Y154726D01*
X200540Y154182D01*
X201500Y153991D01*
X202460Y154182D01*
X203274Y154726D01*
X203818Y155540D01*
X204009Y156500D01*
X203818Y157460D01*
X203274Y158274D01*
X202460Y158818D01*
X201500Y159009D01*
D02*
G37*
G36*
X193500D02*
X192540Y158818D01*
X191726Y158274D01*
X191182Y157460D01*
X190991Y156500D01*
X191182Y155540D01*
X191726Y154726D01*
X192540Y154182D01*
X193500Y153991D01*
X194460Y154182D01*
X195274Y154726D01*
X195818Y155540D01*
X196009Y156500D01*
X195818Y157460D01*
X195274Y158274D01*
X194460Y158818D01*
X193500Y159009D01*
D02*
G37*
G36*
X271000Y153509D02*
X270040Y153318D01*
X269226Y152774D01*
X268778Y152103D01*
X268713Y152083D01*
X268287D01*
X268222Y152103D01*
X267774Y152774D01*
X266960Y153318D01*
X266000Y153509D01*
X265040Y153318D01*
X264226Y152774D01*
X263682Y151960D01*
X263491Y151000D01*
X263682Y150040D01*
X264226Y149226D01*
Y148774D01*
X263682Y147960D01*
X263491Y147000D01*
X263682Y146040D01*
X264226Y145226D01*
X264897Y144778D01*
X264917Y144713D01*
Y144287D01*
X264897Y144222D01*
X264226Y143774D01*
X263682Y142960D01*
X263491Y142000D01*
X263682Y141040D01*
X264226Y140226D01*
Y139774D01*
X263682Y138960D01*
X263491Y138000D01*
X263682Y137040D01*
X264226Y136226D01*
X265040Y135682D01*
X266000Y135491D01*
X266960Y135682D01*
X267774Y136226D01*
X268222Y136897D01*
X268287Y136917D01*
X268713D01*
X268778Y136897D01*
X269226Y136226D01*
X270040Y135682D01*
X271000Y135491D01*
X271960Y135682D01*
X272774Y136226D01*
X273318Y137040D01*
X273509Y138000D01*
X273318Y138960D01*
X272774Y139774D01*
Y140226D01*
X273318Y141040D01*
X273509Y142000D01*
X273318Y142960D01*
X272774Y143774D01*
X272103Y144222D01*
X272083Y144287D01*
Y144713D01*
X272103Y144778D01*
X272774Y145226D01*
X273318Y146040D01*
X273509Y147000D01*
X273318Y147960D01*
X272774Y148774D01*
Y149226D01*
X273318Y150040D01*
X273509Y151000D01*
X273318Y151960D01*
X272774Y152774D01*
X271960Y153318D01*
X271000Y153509D01*
D02*
G37*
G36*
X190500Y148509D02*
X189540Y148318D01*
X188726Y147774D01*
X188278Y147103D01*
X188213Y147083D01*
X187787D01*
X187722Y147103D01*
X187274Y147774D01*
X186460Y148318D01*
X185500Y148509D01*
X184540Y148318D01*
X183726Y147774D01*
X183182Y146960D01*
X182991Y146000D01*
X183182Y145040D01*
X183726Y144226D01*
X184397Y143778D01*
X184417Y143713D01*
Y143287D01*
X184397Y143222D01*
X183726Y142774D01*
X183182Y141960D01*
X182991Y141000D01*
X183182Y140040D01*
X183726Y139226D01*
X184397Y138778D01*
X184417Y138713D01*
Y138287D01*
X184397Y138222D01*
X183726Y137774D01*
X183182Y136960D01*
X182991Y136000D01*
X183182Y135040D01*
X183726Y134226D01*
X184397Y133778D01*
X184417Y133713D01*
Y133287D01*
X184397Y133222D01*
X183726Y132774D01*
X183182Y131960D01*
X182991Y131000D01*
X183182Y130040D01*
X183726Y129226D01*
X184397Y128778D01*
X184417Y128713D01*
Y128287D01*
X184397Y128222D01*
X183726Y127774D01*
X183182Y126960D01*
X182991Y126000D01*
X183182Y125040D01*
X183726Y124226D01*
X184397Y123778D01*
X184417Y123713D01*
Y123287D01*
X184397Y123222D01*
X183726Y122774D01*
X183182Y121960D01*
X182991Y121000D01*
X183182Y120040D01*
X183726Y119226D01*
X184397Y118778D01*
X184417Y118713D01*
Y118287D01*
X184397Y118222D01*
X183726Y117774D01*
X183182Y116960D01*
X182991Y116000D01*
X183182Y115040D01*
X183726Y114226D01*
X184540Y113682D01*
X185500Y113491D01*
X186460Y113682D01*
X187274Y114226D01*
X187722Y114897D01*
X187787Y114917D01*
X188213D01*
X188278Y114897D01*
X188726Y114226D01*
X189540Y113682D01*
X190500Y113491D01*
X191460Y113682D01*
X192274Y114226D01*
X192818Y115040D01*
X193009Y116000D01*
X192818Y116960D01*
X192274Y117774D01*
X191603Y118222D01*
X191583Y118287D01*
Y118713D01*
X191603Y118778D01*
X192274Y119226D01*
X192818Y120040D01*
X193009Y121000D01*
X192818Y121960D01*
X192274Y122774D01*
X191603Y123222D01*
X191583Y123287D01*
Y123713D01*
X191603Y123778D01*
X192274Y124226D01*
X192818Y125040D01*
X193009Y126000D01*
X192818Y126960D01*
X192274Y127774D01*
X191603Y128222D01*
X191583Y128287D01*
Y128713D01*
X191603Y128778D01*
X192274Y129226D01*
X192818Y130040D01*
X193009Y131000D01*
X192818Y131960D01*
X192274Y132774D01*
X191603Y133222D01*
X191583Y133287D01*
Y133713D01*
X191603Y133778D01*
X192274Y134226D01*
X192818Y135040D01*
X193009Y136000D01*
X192818Y136960D01*
X192274Y137774D01*
X191603Y138222D01*
X191583Y138287D01*
Y138713D01*
X191603Y138778D01*
X192274Y139226D01*
X192818Y140040D01*
X193009Y141000D01*
X192818Y141960D01*
X192274Y142774D01*
X191603Y143222D01*
X191583Y143287D01*
Y143713D01*
X191603Y143778D01*
X192274Y144226D01*
X192818Y145040D01*
X193009Y146000D01*
X192818Y146960D01*
X192274Y147774D01*
X191460Y148318D01*
X190500Y148509D01*
D02*
G37*
G36*
X172000Y144714D02*
X171344Y144584D01*
X170788Y144212D01*
X170416Y143656D01*
X170286Y143000D01*
X170416Y142344D01*
X170788Y141788D01*
X171344Y141416D01*
X172000Y141286D01*
X172656Y141416D01*
X173212Y141788D01*
X173584Y142344D01*
X173714Y143000D01*
X173584Y143656D01*
X173212Y144212D01*
X172656Y144584D01*
X172000Y144714D01*
D02*
G37*
G36*
X139772Y138714D02*
X139116Y138584D01*
X138560Y138212D01*
X138188Y137656D01*
X138058Y137000D01*
X138188Y136344D01*
X138560Y135788D01*
X139116Y135416D01*
X139772Y135286D01*
X140428Y135416D01*
X140984Y135788D01*
X141355Y136344D01*
X141486Y137000D01*
X141355Y137656D01*
X140984Y138212D01*
X140428Y138584D01*
X139772Y138714D01*
D02*
G37*
G36*
X114000D02*
X113344Y138584D01*
X112788Y138212D01*
X112416Y137656D01*
X112286Y137000D01*
X112416Y136344D01*
X112788Y135788D01*
X113344Y135416D01*
X114000Y135286D01*
X114656Y135416D01*
X115212Y135788D01*
X115584Y136344D01*
X115714Y137000D01*
X115584Y137656D01*
X115212Y138212D01*
X114656Y138584D01*
X114000Y138714D01*
D02*
G37*
G36*
X315000Y140009D02*
X314040Y139818D01*
X313226Y139274D01*
X312682Y138460D01*
X312491Y137500D01*
X312682Y136540D01*
X313226Y135726D01*
X314040Y135182D01*
X315000Y134991D01*
X315960Y135182D01*
X316774Y135726D01*
X317318Y136540D01*
X317509Y137500D01*
X317318Y138460D01*
X316774Y139274D01*
X315960Y139818D01*
X315000Y140009D01*
D02*
G37*
G36*
X307000D02*
X306040Y139818D01*
X305226Y139274D01*
X304682Y138460D01*
X304491Y137500D01*
X304682Y136540D01*
X305226Y135726D01*
X306040Y135182D01*
X307000Y134991D01*
X307960Y135182D01*
X308774Y135726D01*
X309318Y136540D01*
X309509Y137500D01*
X309318Y138460D01*
X308774Y139274D01*
X307960Y139818D01*
X307000Y140009D01*
D02*
G37*
G36*
X299000D02*
X298040Y139818D01*
X297226Y139274D01*
X296682Y138460D01*
X296491Y137500D01*
X296682Y136540D01*
X297226Y135726D01*
X298040Y135182D01*
X299000Y134991D01*
X299960Y135182D01*
X300774Y135726D01*
X301318Y136540D01*
X301509Y137500D01*
X301318Y138460D01*
X300774Y139274D01*
X299960Y139818D01*
X299000Y140009D01*
D02*
G37*
G36*
X291000D02*
X290040Y139818D01*
X289226Y139274D01*
X288682Y138460D01*
X288491Y137500D01*
X288682Y136540D01*
X289226Y135726D01*
X290040Y135182D01*
X291000Y134991D01*
X291960Y135182D01*
X292774Y135726D01*
X293318Y136540D01*
X293509Y137500D01*
X293318Y138460D01*
X292774Y139274D01*
X291960Y139818D01*
X291000Y140009D01*
D02*
G37*
G36*
X256909Y139137D02*
X256062Y138968D01*
X255343Y138488D01*
X254862Y137769D01*
X254694Y136921D01*
X254862Y136073D01*
X255343Y135354D01*
X256062Y134874D01*
X256909Y134705D01*
X257757Y134874D01*
X258476Y135354D01*
X258957Y136073D01*
X259125Y136921D01*
X258957Y137769D01*
X258476Y138488D01*
X257757Y138968D01*
X256909Y139137D01*
D02*
G37*
G36*
X25500Y134216D02*
X24652Y134047D01*
X23933Y133567D01*
X23528Y132960D01*
X23370Y132923D01*
X23130D01*
X22972Y132960D01*
X22567Y133567D01*
X21848Y134047D01*
X21000Y134216D01*
X20152Y134047D01*
X19433Y133567D01*
X18953Y132848D01*
X18784Y132000D01*
X18953Y131152D01*
X19433Y130433D01*
X20152Y129953D01*
X21000Y129784D01*
X21848Y129953D01*
X22567Y130433D01*
X22972Y131040D01*
X23130Y131077D01*
X23370D01*
X23528Y131040D01*
X23933Y130433D01*
X24652Y129953D01*
X25500Y129784D01*
X26348Y129953D01*
X27067Y130433D01*
X27547Y131152D01*
X27716Y132000D01*
X27547Y132848D01*
X27067Y133567D01*
X26348Y134047D01*
X25500Y134216D01*
D02*
G37*
G36*
X170000Y136214D02*
X169344Y136084D01*
X168788Y135712D01*
X168416Y135156D01*
X168286Y134500D01*
X168416Y133844D01*
X168788Y133288D01*
X169344Y132916D01*
X170000Y132786D01*
X170656Y132916D01*
X171212Y133288D01*
X171584Y133844D01*
X171714Y134500D01*
X171584Y135156D01*
X171212Y135712D01*
X170656Y136084D01*
X170000Y136214D01*
D02*
G37*
G36*
X164000D02*
X163344Y136084D01*
X162788Y135712D01*
X162416Y135156D01*
X162286Y134500D01*
X162416Y133844D01*
X162788Y133288D01*
X163344Y132916D01*
X164000Y132786D01*
X164656Y132916D01*
X165212Y133288D01*
X165584Y133844D01*
X165714Y134500D01*
X165584Y135156D01*
X165212Y135712D01*
X164656Y136084D01*
X164000Y136214D01*
D02*
G37*
G36*
X269000Y131509D02*
X268040Y131318D01*
X267226Y130774D01*
X266778Y130103D01*
X266713Y130083D01*
X266287D01*
X266222Y130103D01*
X265774Y130774D01*
X264960Y131318D01*
X264000Y131509D01*
X263040Y131318D01*
X262226Y130774D01*
X261682Y129960D01*
X261491Y129000D01*
X261682Y128040D01*
X262226Y127226D01*
Y126774D01*
X261682Y125960D01*
X261491Y125000D01*
X261682Y124040D01*
X262226Y123226D01*
X262897Y122778D01*
X262917Y122713D01*
Y122287D01*
X262897Y122222D01*
X262226Y121774D01*
X261682Y120960D01*
X261491Y120000D01*
X261682Y119040D01*
X262226Y118226D01*
Y117774D01*
X261682Y116960D01*
X261491Y116000D01*
X261682Y115040D01*
X262226Y114226D01*
X263040Y113682D01*
X264000Y113491D01*
X264960Y113682D01*
X265774Y114226D01*
X266222Y114897D01*
X266287Y114917D01*
X266713D01*
X266778Y114897D01*
X267226Y114226D01*
X268040Y113682D01*
X269000Y113491D01*
X269960Y113682D01*
X270774Y114226D01*
X271318Y115040D01*
X271509Y116000D01*
X271318Y116960D01*
X270774Y117774D01*
Y118226D01*
X271318Y119040D01*
X271509Y120000D01*
X271318Y120960D01*
X270774Y121774D01*
X270103Y122222D01*
X270083Y122287D01*
Y122713D01*
X270103Y122778D01*
X270774Y123226D01*
X271318Y124040D01*
X271509Y125000D01*
X271318Y125960D01*
X270774Y126774D01*
Y127226D01*
X271318Y128040D01*
X271509Y129000D01*
X271318Y129960D01*
X270774Y130774D01*
X269960Y131318D01*
X269000Y131509D01*
D02*
G37*
G36*
X54125Y133841D02*
X53277Y133672D01*
X52558Y133192D01*
X52078Y132473D01*
X51909Y131625D01*
X52078Y130777D01*
X52558Y130058D01*
X53277Y129578D01*
X54125Y129409D01*
X54973Y129578D01*
X55692Y130058D01*
X56172Y130777D01*
X56341Y131625D01*
X56172Y132473D01*
X55692Y133192D01*
X54973Y133672D01*
X54125Y133841D01*
D02*
G37*
G36*
X48000Y132714D02*
X47344Y132584D01*
X46788Y132212D01*
X46416Y131656D01*
X46286Y131000D01*
X46416Y130344D01*
X46788Y129788D01*
X47344Y129416D01*
X48000Y129286D01*
X48656Y129416D01*
X49212Y129788D01*
X49584Y130344D01*
X49714Y131000D01*
X49584Y131656D01*
X49212Y132212D01*
X48656Y132584D01*
X48000Y132714D01*
D02*
G37*
G36*
X278091Y132295D02*
X277243Y132126D01*
X276524Y131646D01*
X276043Y130927D01*
X275875Y130079D01*
X276043Y129231D01*
X276524Y128512D01*
X277243Y128032D01*
X278091Y127863D01*
X278939Y128032D01*
X279657Y128512D01*
X280138Y129231D01*
X280306Y130079D01*
X280138Y130927D01*
X279657Y131646D01*
X278939Y132126D01*
X278091Y132295D01*
D02*
G37*
G36*
X315000Y132009D02*
X314040Y131818D01*
X313226Y131274D01*
X312682Y130460D01*
X312491Y129500D01*
X312682Y128540D01*
X313226Y127726D01*
X314040Y127182D01*
X315000Y126991D01*
X315960Y127182D01*
X316774Y127726D01*
X317318Y128540D01*
X317509Y129500D01*
X317318Y130460D01*
X316774Y131274D01*
X315960Y131818D01*
X315000Y132009D01*
D02*
G37*
G36*
X307000D02*
X306040Y131818D01*
X305226Y131274D01*
X304682Y130460D01*
X304491Y129500D01*
X304682Y128540D01*
X305226Y127726D01*
X306040Y127182D01*
X307000Y126991D01*
X307960Y127182D01*
X308774Y127726D01*
X309318Y128540D01*
X309509Y129500D01*
X309318Y130460D01*
X308774Y131274D01*
X307960Y131818D01*
X307000Y132009D01*
D02*
G37*
G36*
X299000D02*
X298040Y131818D01*
X297226Y131274D01*
X296682Y130460D01*
X296491Y129500D01*
X296682Y128540D01*
X297226Y127726D01*
X298040Y127182D01*
X299000Y126991D01*
X299960Y127182D01*
X300774Y127726D01*
X301318Y128540D01*
X301509Y129500D01*
X301318Y130460D01*
X300774Y131274D01*
X299960Y131818D01*
X299000Y132009D01*
D02*
G37*
G36*
X291000D02*
X290040Y131818D01*
X289226Y131274D01*
X288682Y130460D01*
X288491Y129500D01*
X288682Y128540D01*
X289226Y127726D01*
X290040Y127182D01*
X291000Y126991D01*
X291960Y127182D01*
X292774Y127726D01*
X293318Y128540D01*
X293509Y129500D01*
X293318Y130460D01*
X292774Y131274D01*
X291960Y131818D01*
X291000Y132009D01*
D02*
G37*
G36*
X251000Y127509D02*
X250040Y127318D01*
X249226Y126774D01*
X248778Y126103D01*
X248713Y126083D01*
X248287D01*
X248222Y126103D01*
X247774Y126774D01*
X246960Y127318D01*
X246000Y127509D01*
X245040Y127318D01*
X244226Y126774D01*
X243682Y125960D01*
X243491Y125000D01*
X243682Y124040D01*
X244226Y123226D01*
Y122774D01*
X243682Y121960D01*
X243491Y121000D01*
X243682Y120040D01*
X244226Y119226D01*
Y118774D01*
X243682Y117960D01*
X243491Y117000D01*
X243682Y116040D01*
X244226Y115226D01*
Y114774D01*
X243682Y113960D01*
X243491Y113000D01*
X243682Y112040D01*
X244226Y111226D01*
Y110774D01*
X243682Y109960D01*
X243491Y109000D01*
X243682Y108040D01*
X244226Y107226D01*
Y106774D01*
X243682Y105960D01*
X243491Y105000D01*
X243682Y104040D01*
X244226Y103226D01*
Y102774D01*
X243682Y101960D01*
X243491Y101000D01*
X243682Y100040D01*
X244226Y99226D01*
X245040Y98682D01*
X246000Y98491D01*
X246960Y98682D01*
X247774Y99226D01*
X248222Y99897D01*
X248287Y99917D01*
X248713D01*
X248778Y99897D01*
X249226Y99226D01*
Y98774D01*
X248682Y97960D01*
X248491Y97000D01*
X248682Y96040D01*
X249226Y95226D01*
X250040Y94682D01*
X251000Y94491D01*
X251960Y94682D01*
X252774Y95226D01*
X253318Y96040D01*
X253509Y97000D01*
X253318Y97960D01*
X252774Y98774D01*
Y99226D01*
X253318Y100040D01*
X253509Y101000D01*
X253318Y101960D01*
X252774Y102774D01*
Y103226D01*
X253318Y104040D01*
X253509Y105000D01*
X253318Y105960D01*
X252774Y106774D01*
Y107226D01*
X253318Y108040D01*
X253509Y109000D01*
X253318Y109960D01*
X252774Y110774D01*
Y111226D01*
X253318Y112040D01*
X253509Y113000D01*
X253318Y113960D01*
X252774Y114774D01*
Y115226D01*
X253318Y116040D01*
X253509Y117000D01*
X253318Y117960D01*
X252774Y118774D01*
Y119226D01*
X253318Y120040D01*
X253509Y121000D01*
X253318Y121960D01*
X252774Y122774D01*
Y123226D01*
X253318Y124040D01*
X253509Y125000D01*
X253318Y125960D01*
X252774Y126774D01*
X251960Y127318D01*
X251000Y127509D01*
D02*
G37*
G36*
X17000Y130216D02*
X16152Y130047D01*
X15433Y129567D01*
X14953Y128848D01*
X14784Y128000D01*
X14953Y127152D01*
X15433Y126433D01*
X16152Y125953D01*
X17000Y125784D01*
X17848Y125953D01*
X18567Y126433D01*
X19047Y127152D01*
X19216Y128000D01*
X19047Y128848D01*
X18567Y129567D01*
X17848Y130047D01*
X17000Y130216D01*
D02*
G37*
G36*
X134000Y128714D02*
X133344Y128584D01*
X132788Y128212D01*
X132416Y127656D01*
X132286Y127000D01*
X132416Y126344D01*
X132788Y125788D01*
X133344Y125416D01*
X134000Y125286D01*
X134656Y125416D01*
X135212Y125788D01*
X135584Y126344D01*
X135714Y127000D01*
X135584Y127656D01*
X135212Y128212D01*
X134656Y128584D01*
X134000Y128714D01*
D02*
G37*
G36*
X114000Y124714D02*
X113344Y124584D01*
X112788Y124212D01*
X112416Y123656D01*
X112286Y123000D01*
X112416Y122344D01*
X112788Y121788D01*
X113344Y121416D01*
X114000Y121286D01*
X114656Y121416D01*
X115212Y121788D01*
X115584Y122344D01*
X115714Y123000D01*
X115584Y123656D01*
X115212Y124212D01*
X114656Y124584D01*
X114000Y124714D01*
D02*
G37*
G36*
X17000Y125216D02*
X16152Y125047D01*
X15433Y124567D01*
X14953Y123848D01*
X14784Y123000D01*
X14953Y122152D01*
X15433Y121433D01*
X16152Y120953D01*
X17000Y120784D01*
X17848Y120953D01*
X18567Y121433D01*
X19047Y122152D01*
X19216Y123000D01*
X19047Y123848D01*
X18567Y124567D01*
X17848Y125047D01*
X17000Y125216D01*
D02*
G37*
G36*
X315000Y124009D02*
X314040Y123818D01*
X313226Y123274D01*
X312682Y122460D01*
X312491Y121500D01*
X312682Y120540D01*
X313226Y119726D01*
X314040Y119182D01*
X315000Y118991D01*
X315960Y119182D01*
X316774Y119726D01*
X317318Y120540D01*
X317509Y121500D01*
X317318Y122460D01*
X316774Y123274D01*
X315960Y123818D01*
X315000Y124009D01*
D02*
G37*
G36*
X307000D02*
X306040Y123818D01*
X305226Y123274D01*
X304682Y122460D01*
X304491Y121500D01*
X304682Y120540D01*
X305226Y119726D01*
X306040Y119182D01*
X307000Y118991D01*
X307960Y119182D01*
X308774Y119726D01*
X309318Y120540D01*
X309509Y121500D01*
X309318Y122460D01*
X308774Y123274D01*
X307960Y123818D01*
X307000Y124009D01*
D02*
G37*
G36*
X299000D02*
X298040Y123818D01*
X297226Y123274D01*
X296682Y122460D01*
X296491Y121500D01*
X296682Y120540D01*
X297226Y119726D01*
X298040Y119182D01*
X299000Y118991D01*
X299960Y119182D01*
X300774Y119726D01*
X301318Y120540D01*
X301509Y121500D01*
X301318Y122460D01*
X300774Y123274D01*
X299960Y123818D01*
X299000Y124009D01*
D02*
G37*
G36*
X291000D02*
X290040Y123818D01*
X289226Y123274D01*
X288682Y122460D01*
X288491Y121500D01*
X288682Y120540D01*
X289226Y119726D01*
X290040Y119182D01*
X291000Y118991D01*
X291960Y119182D01*
X292774Y119726D01*
X293318Y120540D01*
X293509Y121500D01*
X293318Y122460D01*
X292774Y123274D01*
X291960Y123818D01*
X291000Y124009D01*
D02*
G37*
G36*
X158500Y121714D02*
X157844Y121584D01*
X157288Y121212D01*
X156916Y120656D01*
X156786Y120000D01*
X156916Y119344D01*
X157288Y118788D01*
X157844Y118416D01*
X158500Y118286D01*
X159156Y118416D01*
X159712Y118788D01*
X160084Y119344D01*
X160214Y120000D01*
X160084Y120656D01*
X159712Y121212D01*
X159156Y121584D01*
X158500Y121714D01*
D02*
G37*
G36*
X151500D02*
X150844Y121584D01*
X150288Y121212D01*
X149916Y120656D01*
X149786Y120000D01*
X149916Y119344D01*
X150288Y118788D01*
X150844Y118416D01*
X151500Y118286D01*
X152156Y118416D01*
X152712Y118788D01*
X153084Y119344D01*
X153214Y120000D01*
X153084Y120656D01*
X152712Y121212D01*
X152156Y121584D01*
X151500Y121714D01*
D02*
G37*
G36*
X140000D02*
X139344Y121584D01*
X138788Y121212D01*
X138416Y120656D01*
X138286Y120000D01*
X138416Y119344D01*
X138788Y118788D01*
X139344Y118416D01*
X140000Y118286D01*
X140656Y118416D01*
X141212Y118788D01*
X141584Y119344D01*
X141714Y120000D01*
X141584Y120656D01*
X141212Y121212D01*
X140656Y121584D01*
X140000Y121714D01*
D02*
G37*
G36*
X155000Y119214D02*
X154344Y119084D01*
X153788Y118712D01*
X153416Y118156D01*
X153286Y117500D01*
X153416Y116844D01*
X153788Y116288D01*
X154344Y115916D01*
X155000Y115786D01*
X155656Y115916D01*
X156212Y116288D01*
X156584Y116844D01*
X156714Y117500D01*
X156584Y118156D01*
X156212Y118712D01*
X155656Y119084D01*
X155000Y119214D01*
D02*
G37*
G36*
X17000Y120216D02*
X16152Y120047D01*
X15433Y119567D01*
X14953Y118848D01*
X14784Y118000D01*
X14953Y117152D01*
X15433Y116433D01*
X16152Y115953D01*
X17000Y115784D01*
X17848Y115953D01*
X18567Y116433D01*
X19047Y117152D01*
X19216Y118000D01*
X19047Y118848D01*
X18567Y119567D01*
X17848Y120047D01*
X17000Y120216D01*
D02*
G37*
G36*
X121500Y118214D02*
X120844Y118084D01*
X120288Y117712D01*
X119916Y117156D01*
X119786Y116500D01*
X119916Y115844D01*
X120288Y115288D01*
X120844Y114916D01*
X121500Y114786D01*
X122156Y114916D01*
X122712Y115288D01*
X123084Y115844D01*
X123214Y116500D01*
X123084Y117156D01*
X122712Y117712D01*
X122156Y118084D01*
X121500Y118214D01*
D02*
G37*
G36*
X35500Y116714D02*
X34844Y116584D01*
X34288Y116212D01*
X33916Y115656D01*
X33786Y115000D01*
X33916Y114344D01*
X34288Y113788D01*
X34844Y113416D01*
X35500Y113286D01*
X36156Y113416D01*
X36712Y113788D01*
X37084Y114344D01*
X37214Y115000D01*
X37084Y115656D01*
X36712Y116212D01*
X36156Y116584D01*
X35500Y116714D01*
D02*
G37*
G36*
X17000Y115216D02*
X16152Y115047D01*
X15433Y114567D01*
X14953Y113848D01*
X14784Y113000D01*
X14953Y112152D01*
X15433Y111433D01*
X16152Y110953D01*
X17000Y110784D01*
X17848Y110953D01*
X18567Y111433D01*
X19047Y112152D01*
X19216Y113000D01*
X19047Y113848D01*
X18567Y114567D01*
X17848Y115047D01*
X17000Y115216D01*
D02*
G37*
G36*
X97000Y111214D02*
X96344Y111084D01*
X95788Y110712D01*
X95416Y110156D01*
X95286Y109500D01*
X95416Y108844D01*
X95788Y108288D01*
X96344Y107916D01*
X97000Y107786D01*
X97656Y107916D01*
X98212Y108288D01*
X98584Y108844D01*
X98714Y109500D01*
X98584Y110156D01*
X98212Y110712D01*
X97656Y111084D01*
X97000Y111214D01*
D02*
G37*
G36*
X269000Y109009D02*
X268040Y108818D01*
X267226Y108274D01*
X266778Y107603D01*
X266713Y107583D01*
X266287D01*
X266222Y107603D01*
X265774Y108274D01*
X264960Y108818D01*
X264000Y109009D01*
X263040Y108818D01*
X262226Y108274D01*
X261682Y107460D01*
X261491Y106500D01*
X261682Y105540D01*
X262226Y104726D01*
Y104274D01*
X261682Y103460D01*
X261491Y102500D01*
X261682Y101540D01*
X262226Y100726D01*
X262897Y100278D01*
X262917Y100213D01*
Y99787D01*
X262897Y99722D01*
X262226Y99274D01*
X261682Y98460D01*
X261491Y97500D01*
X261682Y96540D01*
X262226Y95726D01*
Y95274D01*
X261682Y94460D01*
X261491Y93500D01*
X261682Y92540D01*
X262226Y91726D01*
X263040Y91182D01*
X264000Y90991D01*
X264960Y91182D01*
X265774Y91726D01*
X266222Y92397D01*
X266287Y92417D01*
X266713D01*
X266778Y92397D01*
X267226Y91726D01*
X268040Y91182D01*
X269000Y90991D01*
X269960Y91182D01*
X270774Y91726D01*
X271318Y92540D01*
X271509Y93500D01*
X271318Y94460D01*
X270774Y95274D01*
Y95726D01*
X271318Y96540D01*
X271509Y97500D01*
X271318Y98460D01*
X270774Y99274D01*
X270103Y99722D01*
X270083Y99787D01*
Y100213D01*
X270103Y100278D01*
X270774Y100726D01*
X271318Y101540D01*
X271509Y102500D01*
X271318Y103460D01*
X270774Y104274D01*
Y104726D01*
X271318Y105540D01*
X271509Y106500D01*
X271318Y107460D01*
X270774Y108274D01*
X269960Y108818D01*
X269000Y109009D01*
D02*
G37*
G36*
X139000Y110714D02*
X138344Y110584D01*
X137788Y110212D01*
X137416Y109656D01*
X137286Y109000D01*
X137416Y108344D01*
X137788Y107788D01*
X138344Y107416D01*
X139000Y107286D01*
X139656Y107416D01*
X140212Y107788D01*
X140584Y108344D01*
X140714Y109000D01*
X140584Y109656D01*
X140212Y110212D01*
X139656Y110584D01*
X139000Y110714D01*
D02*
G37*
G36*
X17000Y110216D02*
X16152Y110047D01*
X15433Y109567D01*
X14953Y108848D01*
X14784Y108000D01*
X14953Y107152D01*
X15433Y106433D01*
X16152Y105953D01*
X17000Y105784D01*
X17848Y105953D01*
X18567Y106433D01*
X19047Y107152D01*
X19216Y108000D01*
X19047Y108848D01*
X18567Y109567D01*
X17848Y110047D01*
X17000Y110216D01*
D02*
G37*
G36*
X278091Y109795D02*
X277243Y109626D01*
X276524Y109146D01*
X276043Y108427D01*
X275875Y107579D01*
X276043Y106731D01*
X276524Y106012D01*
X277243Y105532D01*
X278091Y105363D01*
X278939Y105532D01*
X279657Y106012D01*
X280138Y106731D01*
X280306Y107579D01*
X280138Y108427D01*
X279657Y109146D01*
X278939Y109626D01*
X278091Y109795D01*
D02*
G37*
G36*
X106500Y106716D02*
X105652Y106547D01*
X104933Y106067D01*
X104502Y105421D01*
X104171Y105356D01*
X103946Y105362D01*
X103712Y105712D01*
X103156Y106084D01*
X102500Y106214D01*
X101844Y106084D01*
X101288Y105712D01*
X100916Y105156D01*
X100786Y104500D01*
X100916Y103844D01*
X101288Y103288D01*
X101844Y102916D01*
X102500Y102786D01*
X103156Y102916D01*
X103712Y103288D01*
X103946Y103638D01*
X104171Y103644D01*
X104502Y103579D01*
X104933Y102933D01*
X105652Y102453D01*
X106500Y102284D01*
X107348Y102453D01*
X108067Y102933D01*
X108547Y103652D01*
X108716Y104500D01*
X108547Y105348D01*
X108067Y106067D01*
X107348Y106547D01*
X106500Y106716D01*
D02*
G37*
G36*
X134000Y107214D02*
X133344Y107084D01*
X132788Y106712D01*
X132416Y106156D01*
X132286Y105500D01*
X132416Y104844D01*
X132788Y104288D01*
X133344Y103916D01*
X134000Y103786D01*
X134656Y103916D01*
X135212Y104288D01*
X135584Y104844D01*
X135714Y105500D01*
X135584Y106156D01*
X135212Y106712D01*
X134656Y107084D01*
X134000Y107214D01*
D02*
G37*
G36*
X127500D02*
X126844Y107084D01*
X126288Y106712D01*
X125916Y106156D01*
X125786Y105500D01*
X125916Y104844D01*
X126288Y104288D01*
X126844Y103916D01*
X127500Y103786D01*
X128156Y103916D01*
X128712Y104288D01*
X129084Y104844D01*
X129214Y105500D01*
X129084Y106156D01*
X128712Y106712D01*
X128156Y107084D01*
X127500Y107214D01*
D02*
G37*
G36*
X17000Y105216D02*
X16152Y105047D01*
X15433Y104567D01*
X14953Y103848D01*
X14784Y103000D01*
X14953Y102152D01*
X15433Y101433D01*
X16152Y100953D01*
X17000Y100784D01*
X17848Y100953D01*
X18567Y101433D01*
X19047Y102152D01*
X19216Y103000D01*
X19047Y103848D01*
X18567Y104567D01*
X17848Y105047D01*
X17000Y105216D01*
D02*
G37*
G36*
X190500Y105009D02*
X189540Y104818D01*
X188726Y104274D01*
X188182Y103460D01*
X187991Y102500D01*
X188182Y101540D01*
X188726Y100726D01*
X189540Y100182D01*
X190500Y99991D01*
X191460Y100182D01*
X192274Y100726D01*
X192818Y101540D01*
X193009Y102500D01*
X192818Y103460D01*
X192274Y104274D01*
X191460Y104818D01*
X190500Y105009D01*
D02*
G37*
G36*
X185000D02*
X184040Y104818D01*
X183226Y104274D01*
X182682Y103460D01*
X182491Y102500D01*
X182682Y101540D01*
X183226Y100726D01*
X184040Y100182D01*
X185000Y99991D01*
X185960Y100182D01*
X186774Y100726D01*
X187318Y101540D01*
X187509Y102500D01*
X187318Y103460D01*
X186774Y104274D01*
X185960Y104818D01*
X185000Y105009D01*
D02*
G37*
G36*
X131000Y102214D02*
X130344Y102084D01*
X129788Y101712D01*
X129416Y101156D01*
X129286Y100500D01*
X129416Y99844D01*
X129788Y99288D01*
X130344Y98916D01*
X131000Y98786D01*
X131656Y98916D01*
X132212Y99288D01*
X132584Y99844D01*
X132714Y100500D01*
X132584Y101156D01*
X132212Y101712D01*
X131656Y102084D01*
X131000Y102214D01*
D02*
G37*
G36*
X17000Y100216D02*
X16152Y100047D01*
X15433Y99567D01*
X14953Y98848D01*
X14784Y98000D01*
X14953Y97152D01*
X15433Y96433D01*
X16152Y95953D01*
X17000Y95784D01*
X17848Y95953D01*
X18567Y96433D01*
X19047Y97152D01*
X19216Y98000D01*
X19047Y98848D01*
X18567Y99567D01*
X17848Y100047D01*
X17000Y100216D01*
D02*
G37*
G36*
X133500Y97714D02*
X132844Y97584D01*
X132288Y97212D01*
X131916Y96656D01*
X131786Y96000D01*
X131916Y95344D01*
X132288Y94788D01*
X132844Y94416D01*
X133500Y94286D01*
X134156Y94416D01*
X134712Y94788D01*
X135084Y95344D01*
X135214Y96000D01*
X135084Y96656D01*
X134712Y97212D01*
X134156Y97584D01*
X133500Y97714D01*
D02*
G37*
G36*
X315000Y99009D02*
X314040Y98818D01*
X313226Y98274D01*
X312682Y97460D01*
X312491Y96500D01*
X312682Y95540D01*
X313226Y94726D01*
X314040Y94182D01*
X315000Y93991D01*
X315960Y94182D01*
X316774Y94726D01*
X317318Y95540D01*
X317509Y96500D01*
X317318Y97460D01*
X316774Y98274D01*
X315960Y98818D01*
X315000Y99009D01*
D02*
G37*
G36*
X307000D02*
X306040Y98818D01*
X305226Y98274D01*
X304682Y97460D01*
X304491Y96500D01*
X304682Y95540D01*
X305226Y94726D01*
X306040Y94182D01*
X307000Y93991D01*
X307960Y94182D01*
X308774Y94726D01*
X309318Y95540D01*
X309509Y96500D01*
X309318Y97460D01*
X308774Y98274D01*
X307960Y98818D01*
X307000Y99009D01*
D02*
G37*
G36*
X299000D02*
X298040Y98818D01*
X297226Y98274D01*
X296682Y97460D01*
X296491Y96500D01*
X296682Y95540D01*
X297226Y94726D01*
X298040Y94182D01*
X299000Y93991D01*
X299960Y94182D01*
X300774Y94726D01*
X301318Y95540D01*
X301509Y96500D01*
X301318Y97460D01*
X300774Y98274D01*
X299960Y98818D01*
X299000Y99009D01*
D02*
G37*
G36*
X291000D02*
X290040Y98818D01*
X289226Y98274D01*
X288682Y97460D01*
X288491Y96500D01*
X288682Y95540D01*
X289226Y94726D01*
X290040Y94182D01*
X291000Y93991D01*
X291960Y94182D01*
X292774Y94726D01*
X293318Y95540D01*
X293509Y96500D01*
X293318Y97460D01*
X292774Y98274D01*
X291960Y98818D01*
X291000Y99009D01*
D02*
G37*
G36*
X10984Y130415D02*
X9016D01*
X8092Y130231D01*
X7308Y129708D01*
X6785Y128924D01*
X6601Y128000D01*
X6785Y127076D01*
X7308Y126292D01*
X8092Y125769D01*
X8162Y125755D01*
Y125245D01*
X8092Y125231D01*
X7308Y124708D01*
X6785Y123924D01*
X6601Y123000D01*
X6785Y122076D01*
X7308Y121292D01*
X8092Y120769D01*
X8162Y120755D01*
Y120245D01*
X8092Y120231D01*
X7308Y119708D01*
X6785Y118924D01*
X6601Y118000D01*
X6785Y117076D01*
X7308Y116292D01*
X8092Y115769D01*
X8162Y115755D01*
Y115245D01*
X8092Y115231D01*
X7308Y114708D01*
X6785Y113924D01*
X6601Y113000D01*
X6785Y112076D01*
X7308Y111292D01*
X8092Y110769D01*
X8162Y110755D01*
Y110245D01*
X8092Y110231D01*
X7308Y109708D01*
X6785Y108924D01*
X6601Y108000D01*
X6785Y107076D01*
X7308Y106292D01*
X8092Y105769D01*
X8162Y105755D01*
Y105245D01*
X8092Y105231D01*
X7308Y104708D01*
X6785Y103924D01*
X6601Y103000D01*
X6785Y102076D01*
X7308Y101292D01*
X8092Y100769D01*
X8162Y100755D01*
Y100245D01*
X8092Y100231D01*
X7308Y99708D01*
X6785Y98924D01*
X6601Y98000D01*
X6785Y97076D01*
X7308Y96292D01*
X8006Y95826D01*
X8036Y95506D01*
X7988Y95282D01*
X7236Y94780D01*
X6690Y93963D01*
X6598Y93500D01*
X10000D01*
X13402D01*
X13309Y93963D01*
X12764Y94780D01*
X12012Y95282D01*
X11964Y95506D01*
X11994Y95826D01*
X12692Y96292D01*
X13215Y97076D01*
X13399Y98000D01*
X13215Y98924D01*
X12692Y99708D01*
X11908Y100231D01*
X11838Y100245D01*
Y100755D01*
X11908Y100769D01*
X12692Y101292D01*
X13215Y102076D01*
X13399Y103000D01*
X13215Y103924D01*
X12692Y104708D01*
X11908Y105231D01*
X11838Y105245D01*
Y105755D01*
X11908Y105769D01*
X12692Y106292D01*
X13215Y107076D01*
X13399Y108000D01*
X13215Y108924D01*
X12692Y109708D01*
X11908Y110231D01*
X11838Y110245D01*
Y110755D01*
X11908Y110769D01*
X12692Y111292D01*
X13215Y112076D01*
X13399Y113000D01*
X13215Y113924D01*
X12692Y114708D01*
X11908Y115231D01*
X11838Y115245D01*
Y115755D01*
X11908Y115769D01*
X12692Y116292D01*
X13215Y117076D01*
X13399Y118000D01*
X13215Y118924D01*
X12692Y119708D01*
X11908Y120231D01*
X11838Y120245D01*
Y120755D01*
X11908Y120769D01*
X12692Y121292D01*
X13215Y122076D01*
X13399Y123000D01*
X13215Y123924D01*
X12692Y124708D01*
X11908Y125231D01*
X11838Y125245D01*
Y125755D01*
X11908Y125769D01*
X12692Y126292D01*
X13215Y127076D01*
X13399Y128000D01*
X13215Y128924D01*
X12692Y129708D01*
X11908Y130231D01*
X10984Y130415D01*
D02*
G37*
G36*
X90500Y96216D02*
X89652Y96047D01*
X88933Y95567D01*
X88453Y94848D01*
X88284Y94000D01*
X88453Y93152D01*
X88933Y92433D01*
X89652Y91953D01*
X90500Y91784D01*
X91348Y91953D01*
X92067Y92433D01*
X92547Y93152D01*
X92716Y94000D01*
X92547Y94848D01*
X92067Y95567D01*
X91348Y96047D01*
X90500Y96216D01*
D02*
G37*
G36*
X13402Y92500D02*
X10500D01*
Y90483D01*
X10984D01*
X11947Y90675D01*
X12764Y91220D01*
X13309Y92037D01*
X13402Y92500D01*
D02*
G37*
G36*
X9500D02*
X6598D01*
X6690Y92037D01*
X7236Y91220D01*
X8053Y90675D01*
X9016Y90483D01*
X9500D01*
Y92500D01*
D02*
G37*
G36*
X136000Y93214D02*
X135344Y93084D01*
X134788Y92712D01*
X134416Y92156D01*
X134286Y91500D01*
X134416Y90844D01*
X134788Y90288D01*
X135344Y89916D01*
X136000Y89786D01*
X136656Y89916D01*
X137212Y90288D01*
X137584Y90844D01*
X137714Y91500D01*
X137584Y92156D01*
X137212Y92712D01*
X136656Y93084D01*
X136000Y93214D01*
D02*
G37*
G36*
X315000Y91009D02*
X314040Y90818D01*
X313226Y90274D01*
X312682Y89460D01*
X312491Y88500D01*
X312682Y87540D01*
X313226Y86726D01*
X314040Y86182D01*
X315000Y85991D01*
X315960Y86182D01*
X316774Y86726D01*
X317318Y87540D01*
X317509Y88500D01*
X317318Y89460D01*
X316774Y90274D01*
X315960Y90818D01*
X315000Y91009D01*
D02*
G37*
G36*
X307000D02*
X306040Y90818D01*
X305226Y90274D01*
X304682Y89460D01*
X304491Y88500D01*
X304682Y87540D01*
X305226Y86726D01*
X306040Y86182D01*
X307000Y85991D01*
X307960Y86182D01*
X308774Y86726D01*
X309318Y87540D01*
X309509Y88500D01*
X309318Y89460D01*
X308774Y90274D01*
X307960Y90818D01*
X307000Y91009D01*
D02*
G37*
G36*
X299000D02*
X298040Y90818D01*
X297226Y90274D01*
X296682Y89460D01*
X296491Y88500D01*
X296682Y87540D01*
X297226Y86726D01*
X298040Y86182D01*
X299000Y85991D01*
X299960Y86182D01*
X300774Y86726D01*
X301318Y87540D01*
X301509Y88500D01*
X301318Y89460D01*
X300774Y90274D01*
X299960Y90818D01*
X299000Y91009D01*
D02*
G37*
G36*
X291000D02*
X290040Y90818D01*
X289226Y90274D01*
X288682Y89460D01*
X288491Y88500D01*
X288682Y87540D01*
X289226Y86726D01*
X290040Y86182D01*
X291000Y85991D01*
X291960Y86182D01*
X292774Y86726D01*
X293318Y87540D01*
X293509Y88500D01*
X293318Y89460D01*
X292774Y90274D01*
X291960Y90818D01*
X291000Y91009D01*
D02*
G37*
G36*
X270638Y87009D02*
X269678Y86818D01*
X268864Y86274D01*
X268416Y85603D01*
X268351Y85583D01*
X267924D01*
X267860Y85603D01*
X267412Y86274D01*
X266598Y86818D01*
X265638Y87009D01*
X264678Y86818D01*
X263864Y86274D01*
X263320Y85460D01*
X263129Y84500D01*
X263320Y83540D01*
X263864Y82726D01*
Y82274D01*
X263320Y81460D01*
X263129Y80500D01*
X263320Y79540D01*
X263864Y78726D01*
X264534Y78278D01*
X264555Y78213D01*
Y77787D01*
X264534Y77722D01*
X263864Y77274D01*
X263320Y76460D01*
X263129Y75500D01*
X263320Y74540D01*
X263864Y73726D01*
Y73274D01*
X263320Y72460D01*
X263129Y71500D01*
X263320Y70540D01*
X263864Y69726D01*
X264678Y69182D01*
X265638Y68991D01*
X266598Y69182D01*
X267412Y69726D01*
X267860Y70397D01*
X267924Y70417D01*
X268351D01*
X268416Y70397D01*
X268864Y69726D01*
X269678Y69182D01*
X270638Y68991D01*
X271598Y69182D01*
X272412Y69726D01*
X272956Y70540D01*
X273147Y71500D01*
X272956Y72460D01*
X272412Y73274D01*
Y73726D01*
X272956Y74540D01*
X273147Y75500D01*
X272956Y76460D01*
X272412Y77274D01*
X271741Y77722D01*
X271721Y77787D01*
Y78213D01*
X271741Y78278D01*
X272412Y78726D01*
X272956Y79540D01*
X273147Y80500D01*
X272956Y81460D01*
X272412Y82274D01*
Y82726D01*
X272956Y83540D01*
X273147Y84500D01*
X272956Y85460D01*
X272412Y86274D01*
X271598Y86818D01*
X270638Y87009D01*
D02*
G37*
G36*
X61000Y82214D02*
X60344Y82084D01*
X59788Y81712D01*
X59528Y81323D01*
X59508Y81315D01*
X58992D01*
X58972Y81323D01*
X58712Y81712D01*
X58156Y82084D01*
X57500Y82214D01*
X56844Y82084D01*
X56288Y81712D01*
X56028Y81323D01*
X56008Y81315D01*
X55492D01*
X55472Y81323D01*
X55212Y81712D01*
X54656Y82084D01*
X54000Y82214D01*
X53344Y82084D01*
X52788Y81712D01*
X52416Y81156D01*
X52286Y80500D01*
X52416Y79844D01*
X52788Y79288D01*
X53344Y78916D01*
X54000Y78786D01*
X54656Y78916D01*
X55212Y79288D01*
X55472Y79677D01*
X55492Y79685D01*
X56008D01*
X56028Y79677D01*
X56288Y79288D01*
X56844Y78916D01*
X57500Y78786D01*
X58156Y78916D01*
X58712Y79288D01*
X58972Y79677D01*
X58992Y79685D01*
X59508D01*
X59528Y79677D01*
X59788Y79288D01*
X60344Y78916D01*
X61000Y78786D01*
X61656Y78916D01*
X62212Y79288D01*
X62584Y79844D01*
X62714Y80500D01*
X62584Y81156D01*
X62212Y81712D01*
X61656Y82084D01*
X61000Y82214D01*
D02*
G37*
G36*
X148844Y83631D02*
X148188Y83500D01*
X147632Y83128D01*
X147260Y82572D01*
X147130Y81916D01*
X147260Y81261D01*
X147632Y80704D01*
X148188Y80333D01*
X148844Y80202D01*
X149500Y80333D01*
X150056Y80704D01*
X150428Y81261D01*
X150558Y81916D01*
X150428Y82572D01*
X150056Y83128D01*
X149500Y83500D01*
X148844Y83631D01*
D02*
G37*
G36*
X190500Y85009D02*
X189540Y84818D01*
X188726Y84274D01*
X188182Y83460D01*
X187991Y82500D01*
X188182Y81540D01*
X188726Y80726D01*
X189540Y80182D01*
X190500Y79991D01*
X191460Y80182D01*
X192274Y80726D01*
X192818Y81540D01*
X193009Y82500D01*
X192818Y83460D01*
X192274Y84274D01*
X191460Y84818D01*
X190500Y85009D01*
D02*
G37*
G36*
X185000D02*
X184040Y84818D01*
X183226Y84274D01*
X182682Y83460D01*
X182491Y82500D01*
X182682Y81540D01*
X183226Y80726D01*
X184040Y80182D01*
X185000Y79991D01*
X185960Y80182D01*
X186774Y80726D01*
X187318Y81540D01*
X187509Y82500D01*
X187318Y83460D01*
X186774Y84274D01*
X185960Y84818D01*
X185000Y85009D01*
D02*
G37*
G36*
X81500Y82214D02*
X80844Y82084D01*
X80288Y81712D01*
X79916Y81156D01*
X79786Y80500D01*
X79916Y79844D01*
X80288Y79288D01*
X80844Y78916D01*
X81500Y78786D01*
X82156Y78916D01*
X82712Y79288D01*
X83084Y79844D01*
X83214Y80500D01*
X83084Y81156D01*
X82712Y81712D01*
X82156Y82084D01*
X81500Y82214D01*
D02*
G37*
G36*
X73000D02*
X72344Y82084D01*
X71788Y81712D01*
X71416Y81156D01*
X71286Y80500D01*
X71416Y79844D01*
X71788Y79288D01*
X72344Y78916D01*
X73000Y78786D01*
X73656Y78916D01*
X74212Y79288D01*
X74584Y79844D01*
X74714Y80500D01*
X74584Y81156D01*
X74212Y81712D01*
X73656Y82084D01*
X73000Y82214D01*
D02*
G37*
G36*
X68000D02*
X67344Y82084D01*
X66788Y81712D01*
X66416Y81156D01*
X66286Y80500D01*
X66416Y79844D01*
X66788Y79288D01*
X67344Y78916D01*
X68000Y78786D01*
X68656Y78916D01*
X69212Y79288D01*
X69584Y79844D01*
X69714Y80500D01*
X69584Y81156D01*
X69212Y81712D01*
X68656Y82084D01*
X68000Y82214D01*
D02*
G37*
G36*
X48500D02*
X47844Y82084D01*
X47288Y81712D01*
X46916Y81156D01*
X46786Y80500D01*
X46916Y79844D01*
X47288Y79288D01*
X47844Y78916D01*
X48500Y78786D01*
X49156Y78916D01*
X49712Y79288D01*
X50084Y79844D01*
X50214Y80500D01*
X50084Y81156D01*
X49712Y81712D01*
X49156Y82084D01*
X48500Y82214D01*
D02*
G37*
G36*
X315000Y83009D02*
X314040Y82818D01*
X313226Y82274D01*
X312682Y81460D01*
X312491Y80500D01*
X312682Y79540D01*
X313226Y78726D01*
X314040Y78182D01*
X315000Y77991D01*
X315960Y78182D01*
X316774Y78726D01*
X317318Y79540D01*
X317509Y80500D01*
X317318Y81460D01*
X316774Y82274D01*
X315960Y82818D01*
X315000Y83009D01*
D02*
G37*
G36*
X307000D02*
X306040Y82818D01*
X305226Y82274D01*
X304682Y81460D01*
X304491Y80500D01*
X304682Y79540D01*
X305226Y78726D01*
X306040Y78182D01*
X307000Y77991D01*
X307960Y78182D01*
X308774Y78726D01*
X309318Y79540D01*
X309509Y80500D01*
X309318Y81460D01*
X308774Y82274D01*
X307960Y82818D01*
X307000Y83009D01*
D02*
G37*
G36*
X299000D02*
X298040Y82818D01*
X297226Y82274D01*
X296682Y81460D01*
X296491Y80500D01*
X296682Y79540D01*
X297226Y78726D01*
X298040Y78182D01*
X299000Y77991D01*
X299960Y78182D01*
X300774Y78726D01*
X301318Y79540D01*
X301509Y80500D01*
X301318Y81460D01*
X300774Y82274D01*
X299960Y82818D01*
X299000Y83009D01*
D02*
G37*
G36*
X291000D02*
X290040Y82818D01*
X289226Y82274D01*
X288682Y81460D01*
X288491Y80500D01*
X288682Y79540D01*
X289226Y78726D01*
X290040Y78182D01*
X291000Y77991D01*
X291960Y78182D01*
X292774Y78726D01*
X293318Y79540D01*
X293509Y80500D01*
X293318Y81460D01*
X292774Y82274D01*
X291960Y82818D01*
X291000Y83009D01*
D02*
G37*
G36*
X146000Y80714D02*
X145344Y80584D01*
X144788Y80212D01*
X144416Y79656D01*
X144286Y79000D01*
X144416Y78344D01*
X144788Y77788D01*
X145344Y77416D01*
X146000Y77286D01*
X146656Y77416D01*
X147212Y77788D01*
X147584Y78344D01*
X147714Y79000D01*
X147584Y79656D01*
X147212Y80212D01*
X146656Y80584D01*
X146000Y80714D01*
D02*
G37*
G36*
X40500Y73214D02*
X39844Y73084D01*
X39288Y72712D01*
X38916Y72156D01*
X38786Y71500D01*
X38916Y70844D01*
X39288Y70288D01*
X39844Y69916D01*
X40500Y69786D01*
X41156Y69916D01*
X41712Y70288D01*
X42084Y70844D01*
X42214Y71500D01*
X42084Y72156D01*
X41712Y72712D01*
X41156Y73084D01*
X40500Y73214D01*
D02*
G37*
G36*
X248500Y73061D02*
X247844Y72930D01*
X247288Y72558D01*
X246916Y72002D01*
X246786Y71346D01*
X246916Y70691D01*
X247288Y70135D01*
X247844Y69763D01*
X248500Y69632D01*
X249156Y69763D01*
X249712Y70135D01*
X250084Y70691D01*
X250214Y71346D01*
X250084Y72002D01*
X249712Y72558D01*
X249156Y72930D01*
X248500Y73061D01*
D02*
G37*
G36*
X240209D02*
X239553Y72930D01*
X238997Y72558D01*
X238625Y72002D01*
X238495Y71346D01*
X238625Y70691D01*
X238997Y70135D01*
X239553Y69763D01*
X240209Y69632D01*
X240865Y69763D01*
X241421Y70135D01*
X241792Y70691D01*
X241923Y71346D01*
X241792Y72002D01*
X241421Y72558D01*
X240865Y72930D01*
X240209Y73061D01*
D02*
G37*
G36*
X256547Y72637D02*
X255699Y72468D01*
X254980Y71988D01*
X254500Y71269D01*
X254331Y70421D01*
X254500Y69573D01*
X254980Y68854D01*
X255699Y68374D01*
X256547Y68205D01*
X257395Y68374D01*
X258114Y68854D01*
X258594Y69573D01*
X258763Y70421D01*
X258594Y71269D01*
X258114Y71988D01*
X257395Y72468D01*
X256547Y72637D01*
D02*
G37*
G36*
X92000Y70714D02*
X91344Y70584D01*
X90788Y70212D01*
X90416Y69656D01*
X90286Y69000D01*
X90416Y68344D01*
X90788Y67788D01*
X91344Y67416D01*
X92000Y67286D01*
X92656Y67416D01*
X93212Y67788D01*
X93584Y68344D01*
X93714Y69000D01*
X93584Y69656D01*
X93212Y70212D01*
X92656Y70584D01*
X92000Y70714D01*
D02*
G37*
G36*
X270638Y64509D02*
X269678Y64318D01*
X268864Y63774D01*
X268416Y63103D01*
X268351Y63083D01*
X267924D01*
X267860Y63103D01*
X267412Y63774D01*
X266598Y64318D01*
X265638Y64509D01*
X264678Y64318D01*
X263864Y63774D01*
X263320Y62960D01*
X263129Y62000D01*
X263320Y61040D01*
X263864Y60226D01*
Y59774D01*
X263320Y58960D01*
X263129Y58000D01*
X263320Y57040D01*
X263864Y56226D01*
X264534Y55778D01*
X264555Y55713D01*
Y55287D01*
X264534Y55222D01*
X263864Y54774D01*
X263320Y53960D01*
X263129Y53000D01*
X263320Y52040D01*
X263864Y51226D01*
Y50774D01*
X263320Y49960D01*
X263129Y49000D01*
X263320Y48040D01*
X263864Y47226D01*
X264678Y46682D01*
X265638Y46491D01*
X266598Y46682D01*
X267412Y47226D01*
X267860Y47897D01*
X267924Y47917D01*
X268351D01*
X268416Y47897D01*
X268864Y47226D01*
X269678Y46682D01*
X270638Y46491D01*
X271598Y46682D01*
X272412Y47226D01*
X272956Y48040D01*
X273147Y49000D01*
X272956Y49960D01*
X272412Y50774D01*
Y51226D01*
X272956Y52040D01*
X273147Y53000D01*
X272956Y53960D01*
X272412Y54774D01*
X271741Y55222D01*
X271721Y55287D01*
Y55713D01*
X271741Y55778D01*
X272412Y56226D01*
X272956Y57040D01*
X273147Y58000D01*
X272956Y58960D01*
X272412Y59774D01*
Y60226D01*
X272956Y61040D01*
X273147Y62000D01*
X272956Y62960D01*
X272412Y63774D01*
X271598Y64318D01*
X270638Y64509D01*
D02*
G37*
G36*
X177000Y114716D02*
X176152Y114547D01*
X175433Y114067D01*
X174953Y113348D01*
X174784Y112500D01*
X174953Y111652D01*
X175396Y110989D01*
X175449Y110803D01*
Y110423D01*
X175226Y110274D01*
X174682Y109460D01*
X174491Y108500D01*
X174682Y107540D01*
X175226Y106726D01*
X175449Y106577D01*
Y106197D01*
X175396Y106011D01*
X174953Y105348D01*
X174784Y104500D01*
X174953Y103652D01*
X175433Y102933D01*
X175707Y102750D01*
Y102250D01*
X175433Y102067D01*
X174953Y101348D01*
X174784Y100500D01*
X174953Y99652D01*
X175396Y98989D01*
X175449Y98803D01*
Y98423D01*
X175226Y98274D01*
X174682Y97460D01*
X174491Y96500D01*
X174682Y95540D01*
X175226Y94726D01*
X175449Y94577D01*
Y94197D01*
X175396Y94011D01*
X174953Y93348D01*
X174784Y92500D01*
X174953Y91652D01*
X175433Y90933D01*
X175707Y90750D01*
Y90250D01*
X175433Y90067D01*
X174953Y89348D01*
X174784Y88500D01*
X174953Y87652D01*
X175433Y86933D01*
X175707Y86750D01*
Y86250D01*
X175433Y86067D01*
X174953Y85348D01*
X174784Y84500D01*
X174953Y83652D01*
X175433Y82933D01*
X175707Y82750D01*
Y82250D01*
X175433Y82067D01*
X174953Y81348D01*
X174784Y80500D01*
X174953Y79652D01*
X175433Y78933D01*
X175707Y78750D01*
Y78250D01*
X175433Y78067D01*
X174953Y77348D01*
X174784Y76500D01*
X174953Y75652D01*
X175433Y74933D01*
X175707Y74750D01*
Y74250D01*
X175433Y74067D01*
X174953Y73348D01*
X174784Y72500D01*
X174953Y71652D01*
X175396Y70989D01*
X175449Y70803D01*
Y70423D01*
X175226Y70274D01*
X174682Y69460D01*
X174491Y68500D01*
X174682Y67540D01*
X175226Y66726D01*
X175449Y66577D01*
Y66197D01*
X175396Y66011D01*
X174953Y65348D01*
X174784Y64500D01*
X174953Y63652D01*
X175433Y62933D01*
X176152Y62453D01*
X177000Y62284D01*
X177848Y62453D01*
X178567Y62933D01*
X179047Y63652D01*
X179216Y64500D01*
X179047Y65348D01*
X178604Y66011D01*
X178551Y66197D01*
Y66577D01*
X178774Y66726D01*
X179318Y67540D01*
X179509Y68500D01*
X179318Y69460D01*
X178774Y70274D01*
X178551Y70423D01*
Y70803D01*
X178604Y70989D01*
X179047Y71652D01*
X179216Y72500D01*
X179047Y73348D01*
X178567Y74067D01*
X178293Y74250D01*
Y74750D01*
X178567Y74933D01*
X179047Y75652D01*
X179216Y76500D01*
X179047Y77348D01*
X178567Y78067D01*
X178293Y78250D01*
Y78750D01*
X178567Y78933D01*
X179047Y79652D01*
X179216Y80500D01*
X179047Y81348D01*
X178567Y82067D01*
X178293Y82250D01*
Y82750D01*
X178567Y82933D01*
X179047Y83652D01*
X179216Y84500D01*
X179047Y85348D01*
X178567Y86067D01*
X178293Y86250D01*
Y86750D01*
X178567Y86933D01*
X179047Y87652D01*
X179216Y88500D01*
X179047Y89348D01*
X178567Y90067D01*
X178293Y90250D01*
Y90750D01*
X178567Y90933D01*
X179047Y91652D01*
X179216Y92500D01*
X179047Y93348D01*
X178604Y94011D01*
X178551Y94197D01*
Y94577D01*
X178774Y94726D01*
X179318Y95540D01*
X179509Y96500D01*
X179318Y97460D01*
X178774Y98274D01*
X178551Y98423D01*
Y98803D01*
X178604Y98989D01*
X179047Y99652D01*
X179216Y100500D01*
X179047Y101348D01*
X178567Y102067D01*
X178293Y102250D01*
Y102750D01*
X178567Y102933D01*
X179047Y103652D01*
X179216Y104500D01*
X179047Y105348D01*
X178604Y106011D01*
X178551Y106197D01*
Y106577D01*
X178774Y106726D01*
X179318Y107540D01*
X179509Y108500D01*
X179318Y109460D01*
X178774Y110274D01*
X178551Y110423D01*
Y110803D01*
X178604Y110989D01*
X179047Y111652D01*
X179216Y112500D01*
X179047Y113348D01*
X178567Y114067D01*
X177848Y114547D01*
X177000Y114716D01*
D02*
G37*
G36*
X25500Y65096D02*
X24844Y64965D01*
X24288Y64594D01*
X23916Y64038D01*
X23786Y63382D01*
X23916Y62726D01*
X24288Y62170D01*
X24844Y61798D01*
X25500Y61668D01*
X26156Y61798D01*
X26712Y62170D01*
X27084Y62726D01*
X27214Y63382D01*
X27084Y64038D01*
X26712Y64594D01*
X26156Y64965D01*
X25500Y65096D01*
D02*
G37*
G36*
X93000Y65789D02*
X92344Y65658D01*
X91788Y65287D01*
X91416Y64731D01*
X91286Y64075D01*
X91416Y63419D01*
X91788Y62863D01*
X92344Y62491D01*
X93000Y62361D01*
X93362Y62433D01*
X93791Y62026D01*
X93786Y62000D01*
X93916Y61344D01*
X94288Y60788D01*
X94677Y60528D01*
X94685Y60508D01*
Y59992D01*
X94677Y59972D01*
X94288Y59712D01*
X93916Y59156D01*
X93786Y58500D01*
X93916Y57844D01*
X94288Y57288D01*
X94844Y56916D01*
X95500Y56786D01*
X96156Y56916D01*
X96712Y57288D01*
X97084Y57844D01*
X97214Y58500D01*
X97084Y59156D01*
X96712Y59712D01*
X96323Y59972D01*
X96315Y59992D01*
Y60508D01*
X96323Y60528D01*
X96712Y60788D01*
X97084Y61344D01*
X97214Y62000D01*
X97084Y62656D01*
X96712Y63212D01*
X96156Y63584D01*
X95500Y63714D01*
X95138Y63642D01*
X94709Y64049D01*
X94714Y64075D01*
X94584Y64731D01*
X94212Y65287D01*
X93656Y65658D01*
X93000Y65789D01*
D02*
G37*
G36*
X314500Y58009D02*
X313540Y57818D01*
X312726Y57274D01*
X312182Y56460D01*
X311991Y55500D01*
X312182Y54540D01*
X312726Y53726D01*
X313540Y53182D01*
X314500Y52991D01*
X315460Y53182D01*
X316274Y53726D01*
X316818Y54540D01*
X317009Y55500D01*
X316818Y56460D01*
X316274Y57274D01*
X315460Y57818D01*
X314500Y58009D01*
D02*
G37*
G36*
X306500D02*
X305540Y57818D01*
X304726Y57274D01*
X304182Y56460D01*
X303991Y55500D01*
X304182Y54540D01*
X304726Y53726D01*
X305540Y53182D01*
X306500Y52991D01*
X307460Y53182D01*
X308274Y53726D01*
X308818Y54540D01*
X309009Y55500D01*
X308818Y56460D01*
X308274Y57274D01*
X307460Y57818D01*
X306500Y58009D01*
D02*
G37*
G36*
X298500D02*
X297540Y57818D01*
X296726Y57274D01*
X296182Y56460D01*
X295991Y55500D01*
X296182Y54540D01*
X296726Y53726D01*
X297540Y53182D01*
X298500Y52991D01*
X299460Y53182D01*
X300274Y53726D01*
X300818Y54540D01*
X301009Y55500D01*
X300818Y56460D01*
X300274Y57274D01*
X299460Y57818D01*
X298500Y58009D01*
D02*
G37*
G36*
X290500D02*
X289540Y57818D01*
X288726Y57274D01*
X288182Y56460D01*
X287991Y55500D01*
X288182Y54540D01*
X288726Y53726D01*
X289540Y53182D01*
X290500Y52991D01*
X291460Y53182D01*
X292274Y53726D01*
X292818Y54540D01*
X293009Y55500D01*
X292818Y56460D01*
X292274Y57274D01*
X291460Y57818D01*
X290500Y58009D01*
D02*
G37*
G36*
X94000Y55714D02*
X93344Y55584D01*
X92788Y55212D01*
X92416Y54656D01*
X92286Y54000D01*
X92416Y53344D01*
X92788Y52788D01*
X93344Y52416D01*
X94000Y52286D01*
X94656Y52416D01*
X95212Y52788D01*
X95584Y53344D01*
X95714Y54000D01*
X95584Y54656D01*
X95212Y55212D01*
X94656Y55584D01*
X94000Y55714D01*
D02*
G37*
G36*
X42000Y54714D02*
X41344Y54584D01*
X40788Y54212D01*
X40416Y53656D01*
X40286Y53000D01*
X40416Y52344D01*
X40788Y51788D01*
X41344Y51416D01*
X42000Y51286D01*
X42656Y51416D01*
X43212Y51788D01*
X43584Y52344D01*
X43714Y53000D01*
X43584Y53656D01*
X43212Y54212D01*
X42656Y54584D01*
X42000Y54714D01*
D02*
G37*
G36*
X148500Y54216D02*
X147652Y54047D01*
X146933Y53567D01*
X146453Y52848D01*
X146284Y52000D01*
X146453Y51152D01*
X146933Y50433D01*
X147652Y49953D01*
X148500Y49784D01*
X149348Y49953D01*
X150067Y50433D01*
X150547Y51152D01*
X150716Y52000D01*
X150547Y52848D01*
X150067Y53567D01*
X149348Y54047D01*
X148500Y54216D01*
D02*
G37*
G36*
X142500D02*
X141652Y54047D01*
X140933Y53567D01*
X140453Y52848D01*
X140284Y52000D01*
X140453Y51152D01*
X140933Y50433D01*
X141652Y49953D01*
X142500Y49784D01*
X143348Y49953D01*
X144067Y50433D01*
X144547Y51152D01*
X144716Y52000D01*
X144547Y52848D01*
X144067Y53567D01*
X143348Y54047D01*
X142500Y54216D01*
D02*
G37*
G36*
X10984Y65915D02*
X9016D01*
X8092Y65731D01*
X7308Y65208D01*
X6785Y64424D01*
X6601Y63500D01*
X6785Y62576D01*
X7308Y61792D01*
X8092Y61269D01*
X8162Y61255D01*
Y60745D01*
X8092Y60731D01*
X7308Y60208D01*
X6785Y59424D01*
X6601Y58500D01*
X6785Y57576D01*
X7308Y56792D01*
X8092Y56269D01*
X8162Y56255D01*
Y55745D01*
X8092Y55731D01*
X7308Y55208D01*
X6785Y54424D01*
X6601Y53500D01*
X6785Y52576D01*
X7308Y51792D01*
X8006Y51326D01*
X8036Y51006D01*
X7988Y50782D01*
X7236Y50280D01*
X6690Y49463D01*
X6598Y49000D01*
X10000D01*
X13402D01*
X13309Y49463D01*
X12764Y50280D01*
X12012Y50782D01*
X11964Y51006D01*
X11994Y51326D01*
X12692Y51792D01*
X13215Y52576D01*
X13399Y53500D01*
X13215Y54424D01*
X12692Y55208D01*
X11908Y55731D01*
X11838Y55745D01*
Y56255D01*
X11908Y56269D01*
X12692Y56792D01*
X13215Y57576D01*
X13399Y58500D01*
X13215Y59424D01*
X12692Y60208D01*
X11908Y60731D01*
X11838Y60745D01*
Y61255D01*
X11908Y61269D01*
X12692Y61792D01*
X13215Y62576D01*
X13399Y63500D01*
X13215Y64424D01*
X12692Y65208D01*
X11908Y65731D01*
X10984Y65915D01*
D02*
G37*
G36*
X91500Y52214D02*
X90844Y52084D01*
X90288Y51712D01*
X89916Y51156D01*
X89786Y50500D01*
X89916Y49844D01*
X90288Y49288D01*
X90844Y48916D01*
X91500Y48786D01*
X92156Y48916D01*
X92712Y49288D01*
X93084Y49844D01*
X93214Y50500D01*
X93084Y51156D01*
X92712Y51712D01*
X92156Y52084D01*
X91500Y52214D01*
D02*
G37*
G36*
X134000Y51214D02*
X133344Y51084D01*
X132788Y50712D01*
X132416Y50156D01*
X132286Y49500D01*
X132416Y48844D01*
X132788Y48288D01*
X133344Y47916D01*
X134000Y47786D01*
X134656Y47916D01*
X135212Y48288D01*
X135584Y48844D01*
X135714Y49500D01*
X135584Y50156D01*
X135212Y50712D01*
X134656Y51084D01*
X134000Y51214D01*
D02*
G37*
G36*
X248500Y50560D02*
X247844Y50430D01*
X247288Y50059D01*
X246916Y49502D01*
X246786Y48847D01*
X246916Y48191D01*
X247288Y47635D01*
X247844Y47263D01*
X248500Y47132D01*
X249156Y47263D01*
X249712Y47635D01*
X250084Y48191D01*
X250214Y48847D01*
X250084Y49502D01*
X249712Y50059D01*
X249156Y50430D01*
X248500Y50560D01*
D02*
G37*
G36*
X240209D02*
X239553Y50430D01*
X238997Y50059D01*
X238625Y49502D01*
X238495Y48847D01*
X238625Y48191D01*
X238997Y47635D01*
X239553Y47263D01*
X240209Y47132D01*
X240865Y47263D01*
X241421Y47635D01*
X241792Y48191D01*
X241923Y48847D01*
X241792Y49502D01*
X241421Y50059D01*
X240865Y50430D01*
X240209Y50560D01*
D02*
G37*
G36*
X13402Y48000D02*
X10500D01*
Y45983D01*
X10984D01*
X11947Y46175D01*
X12764Y46720D01*
X13309Y47537D01*
X13402Y48000D01*
D02*
G37*
G36*
X9500D02*
X6598D01*
X6690Y47537D01*
X7236Y46720D01*
X8053Y46175D01*
X9016Y45983D01*
X9500D01*
Y48000D01*
D02*
G37*
G36*
X256547Y50137D02*
X255699Y49968D01*
X254980Y49488D01*
X254500Y48769D01*
X254331Y47921D01*
X254500Y47073D01*
X254980Y46354D01*
X255699Y45874D01*
X256547Y45706D01*
X257395Y45874D01*
X258114Y46354D01*
X258594Y47073D01*
X258763Y47921D01*
X258594Y48769D01*
X258114Y49488D01*
X257395Y49968D01*
X256547Y50137D01*
D02*
G37*
G36*
X314500Y50009D02*
X313540Y49818D01*
X312726Y49274D01*
X312182Y48460D01*
X311991Y47500D01*
X312182Y46540D01*
X312726Y45726D01*
X313540Y45182D01*
X314500Y44991D01*
X315460Y45182D01*
X316274Y45726D01*
X316818Y46540D01*
X317009Y47500D01*
X316818Y48460D01*
X316274Y49274D01*
X315460Y49818D01*
X314500Y50009D01*
D02*
G37*
G36*
X306500D02*
X305540Y49818D01*
X304726Y49274D01*
X304182Y48460D01*
X303991Y47500D01*
X304182Y46540D01*
X304726Y45726D01*
X305540Y45182D01*
X306500Y44991D01*
X307460Y45182D01*
X308274Y45726D01*
X308818Y46540D01*
X309009Y47500D01*
X308818Y48460D01*
X308274Y49274D01*
X307460Y49818D01*
X306500Y50009D01*
D02*
G37*
G36*
X298500D02*
X297540Y49818D01*
X296726Y49274D01*
X296182Y48460D01*
X295991Y47500D01*
X296182Y46540D01*
X296726Y45726D01*
X297540Y45182D01*
X298500Y44991D01*
X299460Y45182D01*
X300274Y45726D01*
X300818Y46540D01*
X301009Y47500D01*
X300818Y48460D01*
X300274Y49274D01*
X299460Y49818D01*
X298500Y50009D01*
D02*
G37*
G36*
X290500D02*
X289540Y49818D01*
X288726Y49274D01*
X288182Y48460D01*
X287991Y47500D01*
X288182Y46540D01*
X288726Y45726D01*
X289540Y45182D01*
X290500Y44991D01*
X291460Y45182D01*
X292274Y45726D01*
X292818Y46540D01*
X293009Y47500D01*
X292818Y48460D01*
X292274Y49274D01*
X291460Y49818D01*
X290500Y50009D01*
D02*
G37*
G36*
X42500Y47714D02*
X41844Y47584D01*
X41288Y47212D01*
X40916Y46656D01*
X40786Y46000D01*
X40916Y45344D01*
X41288Y44788D01*
X41844Y44416D01*
X42500Y44286D01*
X43156Y44416D01*
X43712Y44788D01*
X44084Y45344D01*
X44214Y46000D01*
X44084Y46656D01*
X43712Y47212D01*
X43156Y47584D01*
X42500Y47714D01*
D02*
G37*
G36*
X134000Y47214D02*
X133344Y47084D01*
X132788Y46712D01*
X132416Y46156D01*
X132286Y45500D01*
X132416Y44844D01*
X132788Y44288D01*
X133344Y43916D01*
X134000Y43786D01*
X134656Y43916D01*
X135212Y44288D01*
X135584Y44844D01*
X135714Y45500D01*
X135584Y46156D01*
X135212Y46712D01*
X134656Y47084D01*
X134000Y47214D01*
D02*
G37*
G36*
X149000Y47716D02*
X148152Y47547D01*
X147433Y47067D01*
X146953Y46348D01*
X146784Y45500D01*
X146953Y44652D01*
X147433Y43933D01*
X148152Y43453D01*
X149000Y43284D01*
X149848Y43453D01*
X150567Y43933D01*
X151047Y44652D01*
X151216Y45500D01*
X151047Y46348D01*
X150567Y47067D01*
X149848Y47547D01*
X149000Y47716D01*
D02*
G37*
G36*
X76000Y46214D02*
X75344Y46084D01*
X74788Y45712D01*
X74416Y45156D01*
X74286Y44500D01*
X74416Y43844D01*
X74788Y43288D01*
X75344Y42916D01*
X76000Y42786D01*
X76656Y42916D01*
X77212Y43288D01*
X77584Y43844D01*
X77714Y44500D01*
X77584Y45156D01*
X77212Y45712D01*
X76656Y46084D01*
X76000Y46214D01*
D02*
G37*
G36*
X61000D02*
X60344Y46084D01*
X59788Y45712D01*
X59416Y45156D01*
X59286Y44500D01*
X59416Y43844D01*
X59788Y43288D01*
X60344Y42916D01*
X61000Y42786D01*
X61656Y42916D01*
X62212Y43288D01*
X62584Y43844D01*
X62714Y44500D01*
X62584Y45156D01*
X62212Y45712D01*
X61656Y46084D01*
X61000Y46214D01*
D02*
G37*
G36*
X270000Y42509D02*
X269040Y42318D01*
X268226Y41774D01*
X267778Y41103D01*
X267713Y41083D01*
X267287D01*
X267222Y41103D01*
X266774Y41774D01*
X265960Y42318D01*
X265000Y42509D01*
X264040Y42318D01*
X263226Y41774D01*
X262682Y40960D01*
X262491Y40000D01*
X262682Y39040D01*
X263226Y38226D01*
Y37774D01*
X262682Y36960D01*
X262491Y36000D01*
X262682Y35040D01*
X263226Y34226D01*
X263897Y33778D01*
X263917Y33713D01*
Y33287D01*
X263897Y33222D01*
X263226Y32774D01*
X262682Y31960D01*
X262491Y31000D01*
X262682Y30040D01*
X263226Y29226D01*
Y28774D01*
X262682Y27960D01*
X262491Y27000D01*
X262682Y26040D01*
X263226Y25226D01*
X264040Y24682D01*
X265000Y24491D01*
X265960Y24682D01*
X266774Y25226D01*
X267222Y25897D01*
X267287Y25917D01*
X267713D01*
X267778Y25897D01*
X268226Y25226D01*
X269040Y24682D01*
X270000Y24491D01*
X270960Y24682D01*
X271774Y25226D01*
X272318Y26040D01*
X272509Y27000D01*
X272318Y27960D01*
X271774Y28774D01*
Y29226D01*
X272318Y30040D01*
X272509Y31000D01*
X272318Y31960D01*
X271774Y32774D01*
X271103Y33222D01*
X271083Y33287D01*
Y33713D01*
X271103Y33778D01*
X271774Y34226D01*
X272318Y35040D01*
X272509Y36000D01*
X272318Y36960D01*
X271774Y37774D01*
Y38226D01*
X272318Y39040D01*
X272509Y40000D01*
X272318Y40960D01*
X271774Y41774D01*
X270960Y42318D01*
X270000Y42509D01*
D02*
G37*
G36*
X278590Y43295D02*
X277743Y43126D01*
X277024Y42645D01*
X276543Y41927D01*
X276375Y41079D01*
X276543Y40231D01*
X277024Y39512D01*
X277743Y39032D01*
X278590Y38863D01*
X279438Y39032D01*
X280157Y39512D01*
X280638Y40231D01*
X280806Y41079D01*
X280638Y41927D01*
X280157Y42645D01*
X279438Y43126D01*
X278590Y43295D01*
D02*
G37*
G36*
X52500Y40714D02*
X51844Y40584D01*
X51288Y40212D01*
X50916Y39656D01*
X50786Y39000D01*
X50916Y38344D01*
X51288Y37788D01*
X51844Y37416D01*
X52500Y37286D01*
X53156Y37416D01*
X53712Y37788D01*
X54084Y38344D01*
X54214Y39000D01*
X54084Y39656D01*
X53712Y40212D01*
X53156Y40584D01*
X52500Y40714D01*
D02*
G37*
G36*
X40500D02*
X39844Y40584D01*
X39288Y40212D01*
X38916Y39656D01*
X38786Y39000D01*
X38916Y38344D01*
X39288Y37788D01*
X39844Y37416D01*
X40500Y37286D01*
X41156Y37416D01*
X41712Y37788D01*
X42084Y38344D01*
X42214Y39000D01*
X42084Y39656D01*
X41712Y40212D01*
X41156Y40584D01*
X40500Y40714D01*
D02*
G37*
G36*
X314500Y42009D02*
X313540Y41818D01*
X312726Y41274D01*
X312182Y40460D01*
X311991Y39500D01*
X312182Y38540D01*
X312726Y37726D01*
X313540Y37182D01*
X314500Y36991D01*
X315460Y37182D01*
X316274Y37726D01*
X316818Y38540D01*
X317009Y39500D01*
X316818Y40460D01*
X316274Y41274D01*
X315460Y41818D01*
X314500Y42009D01*
D02*
G37*
G36*
X306500D02*
X305540Y41818D01*
X304726Y41274D01*
X304182Y40460D01*
X303991Y39500D01*
X304182Y38540D01*
X304726Y37726D01*
X305540Y37182D01*
X306500Y36991D01*
X307460Y37182D01*
X308274Y37726D01*
X308818Y38540D01*
X309009Y39500D01*
X308818Y40460D01*
X308274Y41274D01*
X307460Y41818D01*
X306500Y42009D01*
D02*
G37*
G36*
X298500D02*
X297540Y41818D01*
X296726Y41274D01*
X296182Y40460D01*
X295991Y39500D01*
X296182Y38540D01*
X296726Y37726D01*
X297540Y37182D01*
X298500Y36991D01*
X299460Y37182D01*
X300274Y37726D01*
X300818Y38540D01*
X301009Y39500D01*
X300818Y40460D01*
X300274Y41274D01*
X299460Y41818D01*
X298500Y42009D01*
D02*
G37*
G36*
X290500D02*
X289540Y41818D01*
X288726Y41274D01*
X288182Y40460D01*
X287991Y39500D01*
X288182Y38540D01*
X288726Y37726D01*
X289540Y37182D01*
X290500Y36991D01*
X291460Y37182D01*
X292274Y37726D01*
X292818Y38540D01*
X293009Y39500D01*
X292818Y40460D01*
X292274Y41274D01*
X291460Y41818D01*
X290500Y42009D01*
D02*
G37*
G36*
X134000Y40214D02*
X133344Y40084D01*
X132788Y39712D01*
X132416Y39156D01*
X132286Y38500D01*
X132416Y37844D01*
X132788Y37288D01*
X133344Y36916D01*
X134000Y36786D01*
X134656Y36916D01*
X135212Y37288D01*
X135584Y37844D01*
X135714Y38500D01*
X135584Y39156D01*
X135212Y39712D01*
X134656Y40084D01*
X134000Y40214D01*
D02*
G37*
G36*
X149000Y40716D02*
X148152Y40547D01*
X147433Y40067D01*
X146953Y39348D01*
X146784Y38500D01*
X146953Y37652D01*
X147433Y36933D01*
X148152Y36453D01*
X149000Y36284D01*
X149848Y36453D01*
X150567Y36933D01*
X151047Y37652D01*
X151216Y38500D01*
X151047Y39348D01*
X150567Y40067D01*
X149848Y40547D01*
X149000Y40716D01*
D02*
G37*
G36*
X250500Y35509D02*
X249540Y35318D01*
X248726Y34774D01*
X248278Y34103D01*
X248213Y34083D01*
X247787D01*
X247722Y34103D01*
X247274Y34774D01*
X246460Y35318D01*
X245500Y35509D01*
X244540Y35318D01*
X243726Y34774D01*
X243182Y33960D01*
X242991Y33000D01*
X243182Y32040D01*
X243726Y31226D01*
X244397Y30778D01*
X244417Y30713D01*
Y30287D01*
X244397Y30222D01*
X243726Y29774D01*
X243182Y28960D01*
X242991Y28000D01*
X243182Y27040D01*
X243726Y26226D01*
X244397Y25778D01*
X244417Y25713D01*
Y25287D01*
X244397Y25222D01*
X243726Y24774D01*
X243182Y23960D01*
X242991Y23000D01*
X243182Y22040D01*
X243726Y21226D01*
X244540Y20682D01*
X245500Y20491D01*
X246460Y20682D01*
X247274Y21226D01*
X247722Y21897D01*
X247787Y21917D01*
X248213D01*
X248278Y21897D01*
X248726Y21226D01*
X249540Y20682D01*
X250500Y20491D01*
X251460Y20682D01*
X252274Y21226D01*
X252818Y22040D01*
X253009Y23000D01*
X252818Y23960D01*
X252274Y24774D01*
X251603Y25222D01*
X251583Y25287D01*
Y25713D01*
X251603Y25778D01*
X252274Y26226D01*
X252818Y27040D01*
X253009Y28000D01*
X252818Y28960D01*
X252274Y29774D01*
X251603Y30222D01*
X251583Y30287D01*
Y30713D01*
X251603Y30778D01*
X252274Y31226D01*
X252818Y32040D01*
X253009Y33000D01*
X252818Y33960D01*
X252274Y34774D01*
X251460Y35318D01*
X250500Y35509D01*
D02*
G37*
G36*
X83000Y37214D02*
X82344Y37084D01*
X81788Y36712D01*
X81416Y36156D01*
X81286Y35500D01*
X81416Y34844D01*
X81788Y34288D01*
X82344Y33916D01*
X83000Y33786D01*
X83656Y33916D01*
X84212Y34288D01*
X84584Y34844D01*
X84714Y35500D01*
X84584Y36156D01*
X84212Y36712D01*
X83656Y37084D01*
X83000Y37214D01*
D02*
G37*
G36*
X185000Y65509D02*
X184040Y65318D01*
X183226Y64774D01*
X182682Y63960D01*
X182491Y63000D01*
X182682Y62040D01*
X183226Y61226D01*
X183897Y60778D01*
X183917Y60713D01*
Y60287D01*
X183897Y60222D01*
X183226Y59774D01*
X182682Y58960D01*
X182491Y58000D01*
X182682Y57040D01*
X183226Y56226D01*
X183897Y55778D01*
X183917Y55713D01*
Y55287D01*
X183897Y55222D01*
X183226Y54774D01*
X182682Y53960D01*
X182491Y53000D01*
X182682Y52040D01*
X183226Y51226D01*
X183897Y50778D01*
X183917Y50713D01*
Y50287D01*
X183897Y50222D01*
X183226Y49774D01*
X182682Y48960D01*
X182491Y48000D01*
X182682Y47040D01*
X183226Y46226D01*
X183897Y45778D01*
X183917Y45713D01*
Y45287D01*
X183897Y45222D01*
X183226Y44774D01*
X182682Y43960D01*
X182491Y43000D01*
X182682Y42040D01*
X183226Y41226D01*
X183897Y40778D01*
X183917Y40713D01*
Y40287D01*
X183897Y40222D01*
X183226Y39774D01*
X182682Y38960D01*
X182491Y38000D01*
X182682Y37040D01*
X183226Y36226D01*
X183897Y35778D01*
X183917Y35713D01*
Y35287D01*
X183897Y35222D01*
X183226Y34774D01*
X182682Y33960D01*
X182491Y33000D01*
X182682Y32040D01*
X183226Y31226D01*
X184040Y30682D01*
X185000Y30491D01*
X185960Y30682D01*
X186774Y31226D01*
X187222Y31897D01*
X187287Y31917D01*
X187713D01*
X187778Y31897D01*
X188226Y31226D01*
X189040Y30682D01*
X190000Y30491D01*
X190960Y30682D01*
X191774Y31226D01*
X192318Y32040D01*
X192509Y33000D01*
X192318Y33960D01*
X191774Y34774D01*
X191103Y35222D01*
X191083Y35287D01*
Y35713D01*
X191103Y35778D01*
X191774Y36226D01*
X192318Y37040D01*
X192509Y38000D01*
X192318Y38960D01*
X191774Y39774D01*
X191103Y40222D01*
X191083Y40287D01*
Y40713D01*
X191103Y40778D01*
X191774Y41226D01*
X192318Y42040D01*
X192509Y43000D01*
X192318Y43960D01*
X191774Y44774D01*
X191103Y45222D01*
X191083Y45287D01*
Y45713D01*
X191103Y45778D01*
X191774Y46226D01*
X192318Y47040D01*
X192509Y48000D01*
X192318Y48960D01*
X191774Y49774D01*
X191103Y50222D01*
X191083Y50287D01*
Y50713D01*
X191103Y50778D01*
X191774Y51226D01*
X192318Y52040D01*
X192509Y53000D01*
X192318Y53960D01*
X191774Y54774D01*
X191103Y55222D01*
X191083Y55287D01*
Y55713D01*
X191103Y55778D01*
X191774Y56226D01*
X192318Y57040D01*
X192509Y58000D01*
X192318Y58960D01*
X191774Y59774D01*
X190960Y60318D01*
X190000Y60509D01*
X189040Y60318D01*
X188226Y59774D01*
X187778Y59103D01*
X187713Y59083D01*
X187287D01*
X187222Y59103D01*
X186774Y59774D01*
X186103Y60222D01*
X186083Y60287D01*
Y60713D01*
X186103Y60778D01*
X186774Y61226D01*
X187318Y62040D01*
X187509Y63000D01*
X187318Y63960D01*
X186774Y64774D01*
X185960Y65318D01*
X185000Y65509D01*
D02*
G37*
G36*
X134000Y33214D02*
X133344Y33084D01*
X132788Y32712D01*
X132416Y32156D01*
X132286Y31500D01*
X132416Y30844D01*
X132788Y30288D01*
X133344Y29916D01*
X134000Y29786D01*
X134656Y29916D01*
X135212Y30288D01*
X135584Y30844D01*
X135714Y31500D01*
X135584Y32156D01*
X135212Y32712D01*
X134656Y33084D01*
X134000Y33214D01*
D02*
G37*
G36*
X149000Y33716D02*
X148152Y33547D01*
X147433Y33067D01*
X146953Y32348D01*
X146784Y31500D01*
X146953Y30652D01*
X147433Y29933D01*
X148152Y29453D01*
X149000Y29284D01*
X149848Y29453D01*
X150567Y29933D01*
X151047Y30652D01*
X151216Y31500D01*
X151047Y32348D01*
X150567Y33067D01*
X149848Y33547D01*
X149000Y33716D01*
D02*
G37*
G36*
X166500Y34009D02*
X165540Y33818D01*
X164726Y33274D01*
X164673Y33195D01*
X164670Y33194D01*
X164626Y33174D01*
X164565Y33153D01*
X164488Y33133D01*
X164405Y33118D01*
X164279Y33106D01*
X158000D01*
X157386Y32983D01*
X156865Y32635D01*
X156865Y32635D01*
X148335Y24106D01*
X102000D01*
X101385Y23983D01*
X100865Y23635D01*
X100865Y23635D01*
X96865Y19635D01*
X96517Y19115D01*
X96394Y18500D01*
X96394Y18500D01*
Y9665D01*
X93335Y6606D01*
X72140D01*
X71768Y6854D01*
X71000Y7007D01*
X70232Y6854D01*
X69581Y6419D01*
X69146Y5768D01*
X68993Y5000D01*
X69146Y4232D01*
X69581Y3581D01*
X70232Y3146D01*
X71000Y2993D01*
X71768Y3146D01*
X72125Y3384D01*
X72318Y3394D01*
X94000D01*
X94000Y3394D01*
X94614Y3517D01*
X95135Y3865D01*
X99135Y7865D01*
X99135Y7865D01*
X99483Y8386D01*
X99606Y9000D01*
Y17835D01*
X102665Y20894D01*
X149000D01*
X149000Y20894D01*
X149615Y21017D01*
X150135Y21365D01*
X158665Y29894D01*
X164313D01*
X164394Y29884D01*
X164488Y29867D01*
X164565Y29847D01*
X164626Y29826D01*
X164670Y29806D01*
X164673Y29805D01*
X164726Y29726D01*
X165540Y29182D01*
X166500Y28991D01*
X167460Y29182D01*
X168274Y29726D01*
X168818Y30540D01*
X169009Y31500D01*
X168818Y32460D01*
X168274Y33274D01*
X167460Y33818D01*
X166500Y34009D01*
D02*
G37*
G36*
X134000Y29214D02*
X133344Y29084D01*
X132788Y28712D01*
X132416Y28156D01*
X132286Y27500D01*
X132416Y26844D01*
X132788Y26288D01*
X133344Y25916D01*
X134000Y25786D01*
X134656Y25916D01*
X135212Y26288D01*
X135584Y26844D01*
X135714Y27500D01*
X135584Y28156D01*
X135212Y28712D01*
X134656Y29084D01*
X134000Y29214D01*
D02*
G37*
G36*
X93000D02*
X92344Y29084D01*
X91788Y28712D01*
X91416Y28156D01*
X91286Y27500D01*
X91416Y26844D01*
X91788Y26288D01*
X92344Y25916D01*
X93000Y25786D01*
X93656Y25916D01*
X94212Y26288D01*
X94584Y26844D01*
X94714Y27500D01*
X94584Y28156D01*
X94212Y28712D01*
X93656Y29084D01*
X93000Y29214D01*
D02*
G37*
G36*
X86000D02*
X85344Y29084D01*
X84788Y28712D01*
X84416Y28156D01*
X84286Y27500D01*
X84416Y26844D01*
X84788Y26288D01*
X85344Y25916D01*
X86000Y25786D01*
X86656Y25916D01*
X87212Y26288D01*
X87584Y26844D01*
X87714Y27500D01*
X87584Y28156D01*
X87212Y28712D01*
X86656Y29084D01*
X86000Y29214D01*
D02*
G37*
G36*
X270000Y18509D02*
X269040Y18318D01*
X268226Y17774D01*
X267778Y17103D01*
X267713Y17083D01*
X267287D01*
X267222Y17103D01*
X266774Y17774D01*
X265960Y18318D01*
X265000Y18509D01*
X264040Y18318D01*
X263226Y17774D01*
X262778Y17103D01*
X262713Y17083D01*
X262287D01*
X262222Y17103D01*
X261774Y17774D01*
X260960Y18318D01*
X260000Y18509D01*
X259040Y18318D01*
X258226Y17774D01*
X257778Y17103D01*
X257713Y17083D01*
X257287D01*
X257222Y17103D01*
X256774Y17774D01*
X255960Y18318D01*
X255000Y18509D01*
X254040Y18318D01*
X253226Y17774D01*
X253000Y17436D01*
X252500D01*
X252274Y17774D01*
X251460Y18318D01*
X250500Y18509D01*
X249540Y18318D01*
X248726Y17774D01*
X248278Y17103D01*
X248213Y17083D01*
X247787D01*
X247722Y17103D01*
X247274Y17774D01*
X246460Y18318D01*
X245500Y18509D01*
X244540Y18318D01*
X243726Y17774D01*
X243182Y16960D01*
X242991Y16000D01*
X243182Y15040D01*
X243726Y14226D01*
X244397Y13778D01*
X244417Y13713D01*
Y13287D01*
X244397Y13222D01*
X243726Y12774D01*
X243182Y11960D01*
X242991Y11000D01*
X243182Y10040D01*
X243726Y9226D01*
X244540Y8682D01*
X245500Y8491D01*
X246460Y8682D01*
X247274Y9226D01*
X247722Y9897D01*
X247787Y9917D01*
X248213D01*
X248278Y9897D01*
X248726Y9226D01*
X249540Y8682D01*
X250500Y8491D01*
X251460Y8682D01*
X252274Y9226D01*
X252500Y9564D01*
X253000D01*
X253226Y9226D01*
X254040Y8682D01*
X255000Y8491D01*
X255960Y8682D01*
X256774Y9226D01*
X257222Y9897D01*
X257287Y9917D01*
X257713D01*
X257778Y9897D01*
X258226Y9226D01*
X259040Y8682D01*
X260000Y8491D01*
X260960Y8682D01*
X261774Y9226D01*
X262222Y9897D01*
X262287Y9917D01*
X262713D01*
X262778Y9897D01*
X263226Y9226D01*
X264040Y8682D01*
X265000Y8491D01*
X265960Y8682D01*
X266774Y9226D01*
X267222Y9897D01*
X267287Y9917D01*
X267713D01*
X267778Y9897D01*
X268226Y9226D01*
X269040Y8682D01*
X270000Y8491D01*
X270960Y8682D01*
X271774Y9226D01*
X272318Y10040D01*
X272509Y11000D01*
X272318Y11960D01*
X271774Y12774D01*
X271103Y13222D01*
X271083Y13287D01*
Y13713D01*
X271103Y13778D01*
X271774Y14226D01*
X272318Y15040D01*
X272509Y16000D01*
X272318Y16960D01*
X271774Y17774D01*
X270960Y18318D01*
X270000Y18509D01*
D02*
G37*
G36*
X133500Y18214D02*
X132844Y18084D01*
X132288Y17712D01*
X131916Y17156D01*
X131786Y16500D01*
X131916Y15844D01*
X132288Y15288D01*
X132844Y14916D01*
X133500Y14786D01*
X134156Y14916D01*
X134712Y15288D01*
X135084Y15844D01*
X135214Y16500D01*
X135084Y17156D01*
X134712Y17712D01*
X134156Y18084D01*
X133500Y18214D01*
D02*
G37*
G36*
X128500D02*
X127844Y18084D01*
X127288Y17712D01*
X126916Y17156D01*
X126786Y16500D01*
X126916Y15844D01*
X127288Y15288D01*
X127844Y14916D01*
X128500Y14786D01*
X129156Y14916D01*
X129712Y15288D01*
X130084Y15844D01*
X130214Y16500D01*
X130084Y17156D01*
X129712Y17712D01*
X129156Y18084D01*
X128500Y18214D01*
D02*
G37*
G36*
X123500D02*
X122844Y18084D01*
X122288Y17712D01*
X121916Y17156D01*
X121786Y16500D01*
X121916Y15844D01*
X122288Y15288D01*
X122844Y14916D01*
X123500Y14786D01*
X124156Y14916D01*
X124712Y15288D01*
X125084Y15844D01*
X125214Y16500D01*
X125084Y17156D01*
X124712Y17712D01*
X124156Y18084D01*
X123500Y18214D01*
D02*
G37*
G36*
X118500D02*
X117844Y18084D01*
X117288Y17712D01*
X116916Y17156D01*
X116786Y16500D01*
X116916Y15844D01*
X117288Y15288D01*
X117844Y14916D01*
X118500Y14786D01*
X119156Y14916D01*
X119712Y15288D01*
X120084Y15844D01*
X120214Y16500D01*
X120084Y17156D01*
X119712Y17712D01*
X119156Y18084D01*
X118500Y18214D01*
D02*
G37*
G36*
X55000Y16714D02*
X54344Y16584D01*
X53788Y16212D01*
X53416Y15656D01*
X53286Y15000D01*
X53416Y14344D01*
X53788Y13788D01*
X54344Y13416D01*
X55000Y13286D01*
X55656Y13416D01*
X56212Y13788D01*
X56584Y14344D01*
X56714Y15000D01*
X56584Y15656D01*
X56212Y16212D01*
X55656Y16584D01*
X55000Y16714D01*
D02*
G37*
G36*
X43000D02*
X42344Y16584D01*
X41788Y16212D01*
X41416Y15656D01*
X41286Y15000D01*
X41416Y14344D01*
X41788Y13788D01*
X42344Y13416D01*
X43000Y13286D01*
X43656Y13416D01*
X44212Y13788D01*
X44584Y14344D01*
X44714Y15000D01*
X44584Y15656D01*
X44212Y16212D01*
X43656Y16584D01*
X43000Y16714D01*
D02*
G37*
G36*
X75000Y15214D02*
X74344Y15084D01*
X73788Y14712D01*
X73416Y14156D01*
X73286Y13500D01*
X73416Y12844D01*
X73788Y12288D01*
X74344Y11916D01*
X75000Y11786D01*
X75656Y11916D01*
X76212Y12288D01*
X76584Y12844D01*
X76714Y13500D01*
X76584Y14156D01*
X76212Y14712D01*
X75656Y15084D01*
X75000Y15214D01*
D02*
G37*
G36*
X113000Y12402D02*
X112537Y12309D01*
X111720Y11764D01*
X111175Y10947D01*
X110983Y9984D01*
Y9500D01*
X113000D01*
Y12402D01*
D02*
G37*
G36*
X114000D02*
Y9000D01*
Y5598D01*
X114463Y5691D01*
X115280Y6236D01*
X115782Y6988D01*
X116006Y7036D01*
X116326Y7006D01*
X116792Y6308D01*
X117576Y5785D01*
X118500Y5601D01*
X119424Y5785D01*
X120208Y6308D01*
X120731Y7092D01*
X120745Y7162D01*
X121255D01*
X121269Y7092D01*
X121792Y6308D01*
X122576Y5785D01*
X123500Y5601D01*
X124424Y5785D01*
X125208Y6308D01*
X125731Y7092D01*
X125745Y7162D01*
X126255D01*
X126269Y7092D01*
X126792Y6308D01*
X127576Y5785D01*
X128500Y5601D01*
X129424Y5785D01*
X130208Y6308D01*
X130731Y7092D01*
X130745Y7162D01*
X131255D01*
X131269Y7092D01*
X131792Y6308D01*
X132576Y5785D01*
X133500Y5601D01*
X134424Y5785D01*
X135208Y6308D01*
X135731Y7092D01*
X135915Y8016D01*
Y9984D01*
X135731Y10908D01*
X135208Y11692D01*
X134424Y12215D01*
X133500Y12399D01*
X132576Y12215D01*
X131792Y11692D01*
X131269Y10908D01*
X131255Y10838D01*
X130745D01*
X130731Y10908D01*
X130208Y11692D01*
X129424Y12215D01*
X128500Y12399D01*
X127576Y12215D01*
X126792Y11692D01*
X126269Y10908D01*
X126255Y10838D01*
X125745D01*
X125731Y10908D01*
X125208Y11692D01*
X124424Y12215D01*
X123500Y12399D01*
X122576Y12215D01*
X121792Y11692D01*
X121269Y10908D01*
X121255Y10838D01*
X120745D01*
X120731Y10908D01*
X120208Y11692D01*
X119424Y12215D01*
X118500Y12399D01*
X117576Y12215D01*
X116792Y11692D01*
X116326Y10994D01*
X116006Y10964D01*
X115782Y11012D01*
X115280Y11764D01*
X114463Y12309D01*
X114000Y12402D01*
D02*
G37*
G36*
X113000Y8500D02*
X110983D01*
Y8016D01*
X111175Y7053D01*
X111720Y6236D01*
X112537Y5691D01*
X113000Y5598D01*
Y8500D01*
D02*
G37*
%LPD*%
G36*
X165305Y30329D02*
X165225Y30402D01*
X165133Y30467D01*
X165031Y30525D01*
X164919Y30574D01*
X164796Y30617D01*
X164662Y30651D01*
X164517Y30678D01*
X164362Y30697D01*
X164196Y30709D01*
X164020Y30713D01*
Y32287D01*
X164196Y32291D01*
X164517Y32322D01*
X164662Y32349D01*
X164796Y32383D01*
X164919Y32426D01*
X165031Y32476D01*
X165133Y32533D01*
X165225Y32598D01*
X165305Y32671D01*
Y30329D01*
D02*
G37*
G36*
X71858Y5819D02*
X71886Y5813D01*
X71927Y5807D01*
X72049Y5797D01*
X72454Y5788D01*
X72589Y5787D01*
Y4213D01*
X71843Y4173D01*
Y5827D01*
X71858Y5819D01*
D02*
G37*
D107*
X166575Y148858D02*
D03*
X161575D02*
D03*
Y138858D02*
D03*
X156575Y148858D02*
D03*
Y138858D02*
D03*
Y43858D02*
D03*
X151575Y173858D02*
D03*
Y153858D02*
D03*
Y148858D02*
D03*
Y133858D02*
D03*
Y3858D02*
D03*
X146575Y163858D02*
D03*
Y158858D02*
D03*
Y138858D02*
D03*
X141575Y163858D02*
D03*
Y158858D02*
D03*
Y133858D02*
D03*
X136575Y173858D02*
D03*
Y168858D02*
D03*
Y163858D02*
D03*
Y158858D02*
D03*
Y153858D02*
D03*
Y148858D02*
D03*
Y78858D02*
D03*
Y73858D02*
D03*
Y68858D02*
D03*
Y63858D02*
D03*
Y58858D02*
D03*
Y53858D02*
D03*
Y13858D02*
D03*
Y3858D02*
D03*
X131575D02*
D03*
X126575Y173858D02*
D03*
Y168858D02*
D03*
Y163858D02*
D03*
Y158858D02*
D03*
Y153858D02*
D03*
Y148858D02*
D03*
Y68858D02*
D03*
Y63858D02*
D03*
Y3858D02*
D03*
X121575Y163858D02*
D03*
Y158858D02*
D03*
Y83858D02*
D03*
Y63858D02*
D03*
Y58858D02*
D03*
Y3858D02*
D03*
X116575Y163858D02*
D03*
Y158858D02*
D03*
Y108858D02*
D03*
Y83858D02*
D03*
Y63858D02*
D03*
Y58858D02*
D03*
Y3858D02*
D03*
X111575Y173858D02*
D03*
Y168858D02*
D03*
Y163858D02*
D03*
Y158858D02*
D03*
Y153858D02*
D03*
Y148858D02*
D03*
Y128858D02*
D03*
Y108858D02*
D03*
Y83858D02*
D03*
Y13858D02*
D03*
Y3858D02*
D03*
X106575Y108858D02*
D03*
X91575Y8858D02*
D03*
X86575Y108858D02*
D03*
Y8858D02*
D03*
X81575Y13858D02*
D03*
Y8858D02*
D03*
X76575Y93858D02*
D03*
X66575Y128858D02*
D03*
Y3858D02*
D03*
X61575Y128858D02*
D03*
Y3858D02*
D03*
X56575D02*
D03*
X51575D02*
D03*
X46575D02*
D03*
X41575Y88858D02*
D03*
Y3858D02*
D03*
X26575Y173858D02*
D03*
Y168858D02*
D03*
Y158858D02*
D03*
Y83858D02*
D03*
Y78858D02*
D03*
Y73858D02*
D03*
Y68858D02*
D03*
Y43858D02*
D03*
Y38858D02*
D03*
Y33858D02*
D03*
Y28858D02*
D03*
Y23858D02*
D03*
Y18858D02*
D03*
Y8858D02*
D03*
Y3858D02*
D03*
X21575Y148858D02*
D03*
Y143858D02*
D03*
Y138858D02*
D03*
Y83858D02*
D03*
Y78858D02*
D03*
Y73858D02*
D03*
Y68858D02*
D03*
Y43858D02*
D03*
Y38858D02*
D03*
Y33858D02*
D03*
Y28858D02*
D03*
X16575Y148858D02*
D03*
Y143858D02*
D03*
Y138858D02*
D03*
Y88858D02*
D03*
Y83858D02*
D03*
Y78858D02*
D03*
Y73858D02*
D03*
Y68858D02*
D03*
Y43858D02*
D03*
Y38858D02*
D03*
Y33858D02*
D03*
Y28858D02*
D03*
X11575Y148858D02*
D03*
Y143858D02*
D03*
Y78858D02*
D03*
Y33858D02*
D03*
Y28858D02*
D03*
X6575Y148858D02*
D03*
Y143858D02*
D03*
Y78858D02*
D03*
Y33858D02*
D03*
Y28858D02*
D03*
X45000Y49000D02*
D03*
X82000Y65000D02*
D03*
X74000D02*
D03*
X78000D02*
D03*
X70000D02*
D03*
X63000Y55000D02*
D03*
X82000Y59925D02*
D03*
X70000D02*
D03*
X74000D02*
D03*
X78000D02*
D03*
X63000Y60000D02*
D03*
X70000Y55000D02*
D03*
X74000D02*
D03*
X78000D02*
D03*
X82000D02*
D03*
X59000D02*
D03*
X55000D02*
D03*
X51000D02*
D03*
Y60000D02*
D03*
X55000D02*
D03*
X59000D02*
D03*
X55000Y65000D02*
D03*
X51000D02*
D03*
X59000D02*
D03*
X63000D02*
D03*
Y70000D02*
D03*
X59000D02*
D03*
X55000D02*
D03*
X70000D02*
D03*
X74000D02*
D03*
X78000D02*
D03*
X82000D02*
D03*
X51000D02*
D03*
X71000Y5000D02*
D03*
X158500Y74500D02*
D03*
X114000Y127000D02*
D03*
X110000Y57500D02*
D03*
Y63000D02*
D03*
X109000Y38500D02*
D03*
X46000Y167000D02*
D03*
X109000Y45500D02*
D03*
X67000Y13500D02*
D03*
X65000Y30500D02*
D03*
X37000Y15000D02*
D03*
X49000D02*
D03*
X61000D02*
D03*
X93000Y16500D02*
D03*
X86000D02*
D03*
X127500Y116500D02*
D03*
X74000Y40000D02*
D03*
X70500D02*
D03*
X29500Y46000D02*
D03*
Y51000D02*
D03*
X113500Y16500D02*
D03*
X109000Y31500D02*
D03*
X147500Y150000D02*
D03*
Y171000D02*
D03*
X123000D02*
D03*
X134000Y116500D02*
D03*
X81500Y94000D02*
D03*
X73000D02*
D03*
X68000D02*
D03*
X54000D02*
D03*
X47000Y119500D02*
D03*
X25500Y48500D02*
D03*
X40500Y85500D02*
D03*
X121500Y138500D02*
D03*
X37500Y119000D02*
D03*
X150500Y95000D02*
D03*
X159500D02*
D03*
X150500Y104000D02*
D03*
X159500D02*
D03*
X155000Y95000D02*
D03*
X150500Y99500D02*
D03*
X155000Y104000D02*
D03*
X159500Y99500D02*
D03*
X155000D02*
D03*
D109*
X71000Y5000D02*
X94000D01*
X98000Y9000D02*
Y18500D01*
X94000Y5000D02*
X98000Y9000D01*
X102000Y22500D02*
X149000D01*
X98000Y18500D02*
X102000Y22500D01*
X158000Y31500D02*
X166500D01*
X149000Y22500D02*
X158000Y31500D01*
D113*
X10000Y48500D02*
D03*
Y93000D02*
D03*
D114*
X113500Y9000D02*
D03*
D115*
X232500Y156500D02*
D03*
X240500D02*
D03*
X248500D02*
D03*
Y164500D02*
D03*
X240500D02*
D03*
X232500D02*
D03*
Y172500D02*
D03*
X248500D02*
D03*
X240500D02*
D03*
X219000Y142500D02*
D03*
X239000D02*
D03*
X234000D02*
D03*
X229000D02*
D03*
X224000D02*
D03*
X221500Y137500D02*
D03*
X226500D02*
D03*
X231500D02*
D03*
X236500D02*
D03*
X233500Y85500D02*
D03*
Y80500D02*
D03*
Y75500D02*
D03*
Y52500D02*
D03*
Y57500D02*
D03*
Y62500D02*
D03*
Y67500D02*
D03*
X217000Y80500D02*
D03*
Y75500D02*
D03*
Y70500D02*
D03*
Y65500D02*
D03*
Y60500D02*
D03*
X212500Y63000D02*
D03*
Y68000D02*
D03*
Y73000D02*
D03*
Y78000D02*
D03*
Y83000D02*
D03*
X166500Y31500D02*
D03*
X162000Y52000D02*
D03*
X155500D02*
D03*
X21000Y89000D02*
D03*
X101500Y94000D02*
D03*
X25500Y89000D02*
D03*
X17000Y93000D02*
D03*
X108500Y82500D02*
D03*
X106500Y99500D02*
D03*
X33500Y153000D02*
D03*
X58000Y161500D02*
D03*
X63000D02*
D03*
X53000Y161000D02*
D03*
X46000D02*
D03*
X40000Y153000D02*
D03*
D116*
X309055Y163386D02*
D03*
Y13780D02*
D03*
X13780Y163386D02*
D03*
X163386D02*
D03*
Y13780D02*
D03*
X13780D02*
D03*
M02*
