G04*
G04 #@! TF.GenerationSoftware,Altium Limited,Altium Designer,21.6.4 (81)*
G04*
G04 Layer_Color=255*
%FSLAX25Y25*%
%MOIN*%
G70*
G04*
G04 #@! TF.SameCoordinates,3BA059D2-C19B-422F-8E39-1BAB5BDEDA6E*
G04*
G04*
G04 #@! TF.FilePolarity,Positive*
G04*
G01*
G75*
%ADD25R,0.07087X0.02756*%
%ADD26R,0.08661X0.06299*%
G04:AMPARAMS|DCode=32|XSize=236.22mil|YSize=236.22mil|CornerRadius=11.81mil|HoleSize=0mil|Usage=FLASHONLY|Rotation=90.000|XOffset=0mil|YOffset=0mil|HoleType=Round|Shape=RoundedRectangle|*
%AMROUNDEDRECTD32*
21,1,0.23622,0.21260,0,0,90.0*
21,1,0.21260,0.23622,0,0,90.0*
1,1,0.02362,0.10630,0.10630*
1,1,0.02362,0.10630,-0.10630*
1,1,0.02362,-0.10630,-0.10630*
1,1,0.02362,-0.10630,0.10630*
%
%ADD32ROUNDEDRECTD32*%
G04:AMPARAMS|DCode=33|XSize=236.22mil|YSize=236.22mil|CornerRadius=11.81mil|HoleSize=0mil|Usage=FLASHONLY|Rotation=180.000|XOffset=0mil|YOffset=0mil|HoleType=Round|Shape=RoundedRectangle|*
%AMROUNDEDRECTD33*
21,1,0.23622,0.21260,0,0,180.0*
21,1,0.21260,0.23622,0,0,180.0*
1,1,0.02362,-0.10630,0.10630*
1,1,0.02362,0.10630,0.10630*
1,1,0.02362,0.10630,-0.10630*
1,1,0.02362,-0.10630,-0.10630*
%
%ADD33ROUNDEDRECTD33*%
G04:AMPARAMS|DCode=34|XSize=314.96mil|YSize=236.22mil|CornerRadius=11.81mil|HoleSize=0mil|Usage=FLASHONLY|Rotation=0.000|XOffset=0mil|YOffset=0mil|HoleType=Round|Shape=RoundedRectangle|*
%AMROUNDEDRECTD34*
21,1,0.31496,0.21260,0,0,0.0*
21,1,0.29134,0.23622,0,0,0.0*
1,1,0.02362,0.14567,-0.10630*
1,1,0.02362,-0.14567,-0.10630*
1,1,0.02362,-0.14567,0.10630*
1,1,0.02362,0.14567,0.10630*
%
%ADD34ROUNDEDRECTD34*%
%ADD130C,0.03347*%
%ADD131C,0.23622*%
%ADD132C,0.07874*%
D25*
X24213Y174146D02*
D03*
Y169224D02*
D03*
Y164303D02*
D03*
Y159382D02*
D03*
Y154461D02*
D03*
Y149539D02*
D03*
Y144618D02*
D03*
Y139697D02*
D03*
Y134776D02*
D03*
Y129854D02*
D03*
D26*
X11220Y120602D02*
D03*
Y183398D02*
D03*
D32*
X262500Y13000D02*
D03*
D33*
X235500D02*
D03*
D34*
X237500Y207000D02*
D03*
X273000D02*
D03*
X369000Y48000D02*
D03*
Y90000D02*
D03*
Y130000D02*
D03*
Y172000D02*
D03*
D130*
X254500Y13000D02*
D03*
Y21000D02*
D03*
Y5000D02*
D03*
X262500D02*
D03*
Y13000D02*
D03*
Y21000D02*
D03*
X270500D02*
D03*
Y13000D02*
D03*
Y5000D02*
D03*
X235500D02*
D03*
X227500D02*
D03*
X243500D02*
D03*
Y13000D02*
D03*
X235500D02*
D03*
X227500D02*
D03*
Y21000D02*
D03*
X235500D02*
D03*
X243500D02*
D03*
X225500Y199000D02*
D03*
X233500D02*
D03*
X241500D02*
D03*
X249500D02*
D03*
Y207000D02*
D03*
X241500D02*
D03*
X233500D02*
D03*
X225500D02*
D03*
Y215000D02*
D03*
X249500D02*
D03*
X241500D02*
D03*
X233500D02*
D03*
X261000Y199000D02*
D03*
X269000D02*
D03*
X277000D02*
D03*
X285000D02*
D03*
Y207000D02*
D03*
X277000D02*
D03*
X269000D02*
D03*
X261000D02*
D03*
Y215000D02*
D03*
X285000D02*
D03*
X277000D02*
D03*
X269000D02*
D03*
X365000Y56000D02*
D03*
X373000D02*
D03*
X381000D02*
D03*
X357000D02*
D03*
Y48000D02*
D03*
X365000D02*
D03*
X373000D02*
D03*
X381000D02*
D03*
Y40000D02*
D03*
X373000D02*
D03*
X365000D02*
D03*
X357000D02*
D03*
X365000Y98000D02*
D03*
X373000D02*
D03*
X381000D02*
D03*
X357000D02*
D03*
Y90000D02*
D03*
X365000D02*
D03*
X373000D02*
D03*
X381000D02*
D03*
Y82000D02*
D03*
X373000D02*
D03*
X365000D02*
D03*
X357000D02*
D03*
Y122000D02*
D03*
X365000D02*
D03*
X373000D02*
D03*
X381000D02*
D03*
Y130000D02*
D03*
X373000D02*
D03*
X365000D02*
D03*
X357000D02*
D03*
Y138000D02*
D03*
X381000D02*
D03*
X373000D02*
D03*
X365000D02*
D03*
Y180000D02*
D03*
X373000D02*
D03*
X381000D02*
D03*
X357000D02*
D03*
Y172000D02*
D03*
X365000D02*
D03*
X373000D02*
D03*
X381000D02*
D03*
Y164000D02*
D03*
X373000D02*
D03*
X365000D02*
D03*
X357000D02*
D03*
D131*
X195000Y205000D02*
D03*
Y15000D02*
D03*
X375000Y205000D02*
D03*
X15000D02*
D03*
X375000Y15000D02*
D03*
X15000D02*
D03*
D132*
X8000Y108000D02*
D03*
Y79500D02*
D03*
Y98500D02*
D03*
Y89000D02*
D03*
M02*
