G04*
G04 #@! TF.GenerationSoftware,Altium Limited,Altium Designer,21.0.8 (223)*
G04*
G04 Layer_Color=8388736*
%FSLAX25Y25*%
%MOIN*%
G70*
G04*
G04 #@! TF.SameCoordinates,B676E1CA-0217-40F3-8002-BB03906CADE6*
G04*
G04*
G04 #@! TF.FilePolarity,Positive*
G04*
G01*
G75*
%ADD120C,0.01000*%
D120*
X309055Y0D02*
X310038Y35D01*
X311016Y140D01*
X311984Y315D01*
X312937Y558D01*
X313871Y869D01*
X314779Y1245D01*
X315659Y1685D01*
X316505Y2187D01*
X317313Y2748D01*
X318079Y3366D01*
X318799Y4036D01*
X319469Y4756D01*
X320086Y5522D01*
X320647Y6330D01*
X321149Y7176D01*
X321589Y8055D01*
X321966Y8964D01*
X322276Y9897D01*
X322520Y10851D01*
X322694Y11818D01*
X322799Y12797D01*
X322835Y13780D01*
X13780Y177165D02*
X12797Y177130D01*
X11818Y177025D01*
X10851Y176850D01*
X9897Y176607D01*
X8964Y176297D01*
X8055Y175920D01*
X7176Y175480D01*
X6330Y174978D01*
X5522Y174417D01*
X4756Y173800D01*
X4036Y173129D01*
X3366Y172409D01*
X2748Y171644D01*
X2187Y170836D01*
X1685Y169990D01*
X1245Y169110D01*
X869Y168201D01*
X558Y167268D01*
X315Y166315D01*
X140Y165347D01*
X35Y164369D01*
X0Y163386D01*
X322835D02*
X322799Y164369D01*
X322694Y165347D01*
X322520Y166315D01*
X322276Y167268D01*
X321966Y168201D01*
X321589Y169110D01*
X321149Y169990D01*
X320647Y170836D01*
X320086Y171644D01*
X319469Y172409D01*
X318799Y173129D01*
X318079Y173800D01*
X317313Y174417D01*
X316505Y174978D01*
X315659Y175480D01*
X314779Y175920D01*
X313871Y176296D01*
X312937Y176607D01*
X311984Y176850D01*
X311016Y177025D01*
X310038Y177130D01*
X309055Y177165D01*
X0Y13780D02*
X35Y12797D01*
X140Y11818D01*
X315Y10851D01*
X558Y9897D01*
X869Y8964D01*
X1245Y8055D01*
X1685Y7176D01*
X2187Y6330D01*
X2748Y5522D01*
X3366Y4756D01*
X4036Y4036D01*
X4756Y3366D01*
X5522Y2748D01*
X6330Y2187D01*
X7176Y1685D01*
X8055Y1245D01*
X8964Y869D01*
X9897Y558D01*
X10851Y315D01*
X11818Y140D01*
X12797Y35D01*
X13780Y0D01*
Y177165D02*
X309055Y177165D01*
X-0Y163386D02*
X0Y13780D01*
X13780Y0D02*
X309055D01*
X322835Y163386D02*
X322835Y13780D01*
M02*
