G04*
G04 #@! TF.GenerationSoftware,Altium Limited,Altium Designer,21.6.4 (81)*
G04*
G04 Layer_Color=16711935*
%FSLAX25Y25*%
%MOIN*%
G70*
G04*
G04 #@! TF.SameCoordinates,3BA059D2-C19B-422F-8E39-1BAB5BDEDA6E*
G04*
G04*
G04 #@! TF.FilePolarity,Positive*
G04*
G01*
G75*
%ADD10C,0.00394*%
%ADD11C,0.00787*%
D10*
X283079Y171701D02*
Y184299D01*
X292921D01*
Y171701D02*
Y184299D01*
X283079Y171701D02*
X292921D01*
X270079D02*
Y184299D01*
X279921D01*
Y171701D02*
Y184299D01*
X270079Y171701D02*
X279921D01*
X257079D02*
Y184299D01*
X266921D01*
Y171701D02*
Y184299D01*
X257079Y171701D02*
X266921D01*
X283079Y48799D02*
X292921D01*
X283079Y36201D02*
Y48799D01*
Y36201D02*
X292921D01*
Y48799D01*
X270079D02*
X279921D01*
X270079Y36201D02*
Y48799D01*
Y36201D02*
X279921D01*
Y48799D01*
X257079D02*
X266921D01*
X257079Y36201D02*
Y48799D01*
Y36201D02*
X266921D01*
Y48799D01*
X309079Y139299D02*
X318921D01*
X309079Y126701D02*
Y139299D01*
Y126701D02*
X318921D01*
Y139299D01*
X259331Y112331D02*
X290335D01*
X300669Y122665D01*
Y143335D01*
X290335Y153669D02*
X300669Y143335D01*
X259331Y153669D02*
X290335D01*
X259331Y112331D02*
Y153669D01*
Y66331D02*
X290335D01*
X300669Y76665D01*
Y97335D01*
X290335Y107669D02*
X300669Y97335D01*
X259331Y107669D02*
X290335D01*
X259331Y66331D02*
Y107669D01*
X309079Y80701D02*
X318921D01*
Y93299D01*
X309079D02*
X318921D01*
X309079Y80701D02*
Y93299D01*
X343150Y2925D02*
Y6075D01*
X336850D02*
X343150D01*
X336850Y2925D02*
Y6075D01*
Y2925D02*
X343150D01*
X331339Y8095D02*
X348661D01*
X331339D02*
Y19906D01*
X348661D01*
Y8095D02*
Y19906D01*
X346102Y8095D02*
X348661Y10654D01*
X346102Y200594D02*
X348661Y203153D01*
Y200594D02*
Y212405D01*
X331339D02*
X348661D01*
X331339Y200594D02*
Y212405D01*
Y200594D02*
X348661D01*
X343150Y213925D02*
Y217075D01*
X336850D02*
X343150D01*
X336850Y213925D02*
Y217075D01*
Y213925D02*
X343150D01*
X227425Y46850D02*
Y53150D01*
X230575D01*
Y46850D02*
Y53150D01*
X227425Y46850D02*
X230575D01*
X69638Y132425D02*
X75150D01*
X69638D02*
Y136362D01*
X75150D01*
Y132425D02*
Y136362D01*
X33441Y110291D02*
X38559D01*
X33441D02*
Y121709D01*
X38559D01*
Y110291D02*
Y121709D01*
X34819Y110291D02*
X38559Y114032D01*
X148807Y130169D02*
X156681D01*
X148807D02*
Y138043D01*
X156681D01*
Y130169D02*
Y138043D01*
X154713Y130169D02*
X156681Y132138D01*
X58850Y81575D02*
X65150D01*
Y78425D02*
Y81575D01*
X58850Y78425D02*
X65150D01*
X58850D02*
Y81575D01*
X70925Y199350D02*
Y205650D01*
X74075D01*
Y199350D02*
Y205650D01*
X70925Y199350D02*
X74075D01*
X185543Y151929D02*
X188417Y154803D01*
Y151929D02*
Y162071D01*
X171583D02*
X188417D01*
X171583Y151929D02*
Y162071D01*
Y151929D02*
X188417D01*
X227462Y35387D02*
X230611D01*
Y41686D01*
X227462D02*
X230611D01*
X227462Y35387D02*
Y41686D01*
X119425Y189150D02*
X122575D01*
X119425Y182850D02*
Y189150D01*
Y182850D02*
X122575D01*
Y189150D01*
X118350Y175925D02*
X124650D01*
X118350D02*
Y179075D01*
X124650D01*
Y175925D02*
Y179075D01*
X95425Y182850D02*
X98575D01*
Y189150D01*
X95425D02*
X98575D01*
X95425Y182850D02*
Y189150D01*
X99594Y178905D02*
X111406D01*
Y167095D02*
Y178905D01*
X99594Y167095D02*
X111406D01*
X99594D02*
Y178905D01*
Y176347D02*
X102154Y178905D01*
X118350Y172075D02*
X124650D01*
Y168925D02*
Y172075D01*
X118350Y168925D02*
X124650D01*
X118350D02*
Y172075D01*
X107425Y182850D02*
X110575D01*
Y189150D01*
X107425D02*
X110575D01*
X107425Y182850D02*
Y189150D01*
X113425Y182850D02*
X116575D01*
Y189150D01*
X113425D02*
X116575D01*
X113425Y182850D02*
Y189150D01*
X89425D02*
X92575D01*
X89425Y182850D02*
Y189150D01*
Y182850D02*
X92575D01*
Y189150D01*
X86350Y175925D02*
X92650D01*
X86350D02*
Y179075D01*
X92650D01*
Y175925D02*
Y179075D01*
X101425Y189150D02*
X104575D01*
X101425Y182850D02*
Y189150D01*
Y182850D02*
X104575D01*
Y189150D01*
X86350Y168925D02*
X92650D01*
X86350D02*
Y172075D01*
X92650D01*
Y168925D02*
Y172075D01*
X134850Y85425D02*
X141150D01*
X134850D02*
Y88575D01*
X141150D01*
Y85425D02*
Y88575D01*
X44925Y106650D02*
X48075D01*
X44925Y100350D02*
Y106650D01*
Y100350D02*
X48075D01*
Y106650D01*
X129350Y105425D02*
X135650D01*
X129350D02*
Y108575D01*
X135650D01*
Y105425D02*
Y108575D01*
X134850Y95575D02*
X141150D01*
Y92425D02*
Y95575D01*
X134850Y92425D02*
X141150D01*
X134850D02*
Y95575D01*
X98925Y115350D02*
Y121650D01*
X102075D01*
Y115350D02*
Y121650D01*
X98925Y115350D02*
X102075D01*
X68925Y56850D02*
X72075D01*
Y63150D01*
X68925D02*
X72075D01*
X68925Y56850D02*
Y63150D01*
X221563Y85106D02*
Y91405D01*
X218413Y85106D02*
X221563D01*
X218413D02*
Y91405D01*
X221563D01*
X216563Y85106D02*
Y91405D01*
X213413Y85106D02*
X216563D01*
X213413D02*
Y91405D01*
X216563D01*
X206405Y80094D02*
Y91905D01*
X194595Y80094D02*
X206405D01*
X194595D02*
Y91905D01*
X206405D01*
X203559Y72331D02*
X209858D01*
Y69181D02*
Y72331D01*
X203559Y69181D02*
X209858D01*
X203559D02*
Y72331D01*
Y77331D02*
X209858D01*
Y74181D02*
Y77331D01*
X203559Y74181D02*
X209858D01*
X203559D02*
Y77331D01*
Y44831D02*
X209858D01*
X203559Y41681D02*
X209858D01*
X203559D02*
Y44831D01*
X209858Y41681D02*
Y44831D01*
X203559Y49831D02*
X209858D01*
X203559Y46681D02*
X209858D01*
X203559D02*
Y49831D01*
X209858Y46681D02*
Y49831D01*
X221563Y57606D02*
Y63906D01*
X218413Y57606D02*
Y63906D01*
X221563D01*
X218413Y57606D02*
X221563D01*
X216563D02*
Y63906D01*
X213413Y57606D02*
Y63906D01*
X216563D01*
X213413Y57606D02*
X216563D01*
X206405Y52595D02*
Y64406D01*
X194595Y52595D02*
X206405D01*
X194595D02*
Y64406D01*
X206405D01*
X202925Y156350D02*
X206075D01*
Y162650D01*
X202925D02*
X206075D01*
X202925Y156350D02*
Y162650D01*
X38291Y55689D02*
X42031Y51949D01*
X38291D02*
X49709D01*
Y58051D01*
X38291D02*
X49709D01*
X38291Y51949D02*
Y58051D01*
X151791Y164181D02*
X155532Y160441D01*
X151791D02*
X163209D01*
Y165559D01*
X151791D02*
X163209D01*
X151791Y160441D02*
Y165559D01*
X75831Y106220D02*
X77406Y107795D01*
X75831Y82205D02*
Y107795D01*
Y82205D02*
X117169D01*
Y107795D01*
X75831D02*
X117169D01*
X68563Y167394D02*
X78405D01*
Y153614D02*
Y167394D01*
X68563Y153614D02*
X78405D01*
X68563D02*
Y167394D01*
X206405Y107595D02*
Y119405D01*
X194595Y107595D02*
X206405D01*
X194595D02*
Y119405D01*
X206405D01*
X59740Y202799D02*
X68795Y193744D01*
X43205Y202799D02*
X68795D01*
X43205Y189020D02*
Y202799D01*
Y189020D02*
X68795D01*
Y202799D01*
X133693Y144575D02*
X139992D01*
Y141425D02*
Y144575D01*
X133693Y141425D02*
X139992D01*
X133693D02*
Y144575D01*
X152803Y210925D02*
X159102D01*
X152803D02*
Y214075D01*
X159102D01*
Y210925D02*
Y214075D01*
X158051Y210925D02*
X159102Y211976D01*
X140398Y213024D02*
X141449Y214075D01*
X140398Y210925D02*
Y214075D01*
Y210925D02*
X146697D01*
Y214075D01*
X140398D02*
X146697D01*
X203925Y167350D02*
X207075D01*
Y173650D01*
X203925D02*
X207075D01*
X203925Y167350D02*
Y173650D01*
X74925Y45350D02*
Y51650D01*
X78075D01*
Y45350D02*
Y51650D01*
X74925Y45350D02*
X78075D01*
X189791Y173638D02*
X193532Y169898D01*
X189791D02*
X201209D01*
Y176197D01*
X189791D02*
X201209D01*
X189791Y169898D02*
Y176197D01*
X74350Y125925D02*
Y129075D01*
Y125925D02*
X80650D01*
Y129075D01*
X74350D02*
X80650D01*
X56516Y32032D02*
X58484D01*
Y35969D01*
X56516D02*
X58484D01*
X56516Y32032D02*
Y35969D01*
X51516Y32063D02*
X53484D01*
Y36000D01*
X51516D02*
X53484D01*
X51516Y32063D02*
Y36000D01*
X59311Y39791D02*
X63051Y43532D01*
Y39791D02*
Y51209D01*
X56949D02*
X63051D01*
X56949Y39791D02*
Y51209D01*
Y39791D02*
X63051D01*
X61516Y32032D02*
X63484D01*
Y35969D01*
X61516D02*
X63484D01*
X61516Y32032D02*
Y35969D01*
X66516Y32032D02*
X68484D01*
Y35969D01*
X66516D02*
X68484D01*
X66516Y32032D02*
Y35969D01*
X90850Y50425D02*
X97150D01*
X90850D02*
Y53575D01*
X97150D01*
Y50425D02*
Y53575D01*
X163425Y38846D02*
X166575D01*
X163425Y32547D02*
Y38846D01*
Y32547D02*
X166575D01*
Y38846D01*
X151425D02*
X154575D01*
X151425Y32547D02*
Y38846D01*
Y32547D02*
X154575D01*
Y38846D01*
X145425D02*
X148575D01*
X145425Y32547D02*
Y38846D01*
Y32547D02*
X148575D01*
Y38846D01*
X139425Y32547D02*
X142575D01*
Y38846D01*
X139425D02*
X142575D01*
X139425Y32547D02*
Y38846D01*
X157425Y32547D02*
X160575D01*
Y38846D01*
X157425D02*
X160575D01*
X157425Y32547D02*
Y38846D01*
X137350Y49622D02*
X143650D01*
X137350D02*
Y52772D01*
X143650D01*
Y49622D02*
Y52772D01*
X137350Y45772D02*
X143650D01*
Y42622D02*
Y45772D01*
X137350Y42622D02*
X143650D01*
X137350D02*
Y45772D01*
X159846Y42791D02*
X162406Y45350D01*
Y42791D02*
Y54602D01*
X150594D02*
X162406D01*
X150594Y42791D02*
Y54602D01*
Y42791D02*
X162406D01*
X169350Y53575D02*
X175650D01*
Y50425D02*
Y53575D01*
X169350Y50425D02*
X175650D01*
X169350D02*
Y53575D01*
X169425Y32547D02*
X172575D01*
Y38846D01*
X169425D02*
X172575D01*
X169425Y32547D02*
Y38846D01*
X169850Y45772D02*
X176150D01*
Y42622D02*
Y45772D01*
X169850Y42622D02*
X176150D01*
X169850D02*
Y45772D01*
X74350Y174075D02*
X80650D01*
Y170925D02*
Y174075D01*
X74350Y170925D02*
X80650D01*
X74350D02*
Y174075D01*
X209858Y129181D02*
Y132331D01*
X203559Y129181D02*
Y132331D01*
Y129181D02*
X209858D01*
X203559Y132331D02*
X209858D01*
X213425Y140350D02*
X216575D01*
X213425Y146650D02*
X216575D01*
X213425Y140350D02*
Y146650D01*
X216575Y140350D02*
Y146650D01*
X213413Y112606D02*
X216563D01*
X213413Y118905D02*
X216563D01*
X213413Y112606D02*
Y118905D01*
X216563Y112606D02*
Y118905D01*
X218413Y112606D02*
X221563D01*
X218413Y118905D02*
X221563D01*
X218413Y112606D02*
Y118905D01*
X221563Y112606D02*
Y118905D01*
X209858Y101681D02*
Y104831D01*
X203559Y101681D02*
Y104831D01*
Y101681D02*
X209858D01*
X203559Y104831D02*
X209858D01*
Y96681D02*
Y99831D01*
X203559Y96681D02*
Y99831D01*
Y96681D02*
X209858D01*
X203559Y99831D02*
X209858D01*
X194595Y146906D02*
X206405D01*
X194595Y135094D02*
Y146906D01*
Y135094D02*
X206405D01*
Y146906D01*
X208425Y156350D02*
Y162650D01*
X211575D01*
Y156350D02*
Y162650D01*
X208425Y156350D02*
X211575D01*
X104095Y42791D02*
X115905D01*
X104095D02*
Y54602D01*
X115905D01*
Y42791D02*
Y54602D01*
X113347Y42791D02*
X115905Y45350D01*
X78075Y56850D02*
Y63150D01*
X74925Y56850D02*
X78075D01*
X74925D02*
Y63150D01*
X78075D01*
X44925Y111850D02*
Y118150D01*
X48075D01*
Y111850D02*
Y118150D01*
X44925Y111850D02*
X48075D01*
X92925Y32547D02*
Y38846D01*
X96075D01*
Y32547D02*
Y38846D01*
X92925Y32547D02*
X96075D01*
X110925D02*
Y38846D01*
X114075D01*
Y32547D02*
Y38846D01*
X110925Y32547D02*
X114075D01*
X122925D02*
Y38846D01*
X126075D01*
Y32547D02*
Y38846D01*
X122925Y32547D02*
X126075D01*
X120075D02*
Y38846D01*
X116925Y32547D02*
X120075D01*
X116925D02*
Y38846D01*
X120075D01*
X108075Y32547D02*
Y38846D01*
X104925Y32547D02*
X108075D01*
X104925D02*
Y38846D01*
X108075D01*
X102075Y32547D02*
Y38846D01*
X98925Y32547D02*
X102075D01*
X98925D02*
Y38846D01*
X102075D01*
X162850Y149075D02*
X169150D01*
Y145925D02*
Y149075D01*
X162850Y145925D02*
X169150D01*
X162850D02*
Y149075D01*
Y134925D02*
X169150D01*
X162850D02*
Y138075D01*
X169150D01*
Y134925D02*
Y138075D01*
X153000Y204925D02*
X159299D01*
X153000D02*
Y208075D01*
X159299D01*
Y204925D02*
Y208075D01*
X140201D02*
X146500D01*
Y204925D02*
Y208075D01*
X140201Y204925D02*
X146500D01*
X140201D02*
Y208075D01*
X47850Y84425D02*
X54150D01*
X47850D02*
Y87575D01*
X54150D01*
Y84425D02*
Y87575D01*
X159075Y173350D02*
Y179650D01*
X155925Y173350D02*
X159075D01*
X155925D02*
Y179650D01*
X159075D01*
X151201Y145925D02*
X157500D01*
X151201D02*
Y149075D01*
X157500D01*
Y145925D02*
Y149075D01*
X58815Y73020D02*
X65114D01*
X58815D02*
Y76170D01*
X65114D01*
Y73020D02*
Y76170D01*
X58850Y70075D02*
X65150D01*
Y66925D02*
Y70075D01*
X58850Y66925D02*
X65150D01*
X58850D02*
Y70075D01*
X192350Y182925D02*
X198650D01*
X192350D02*
Y186075D01*
X198650D01*
Y182925D02*
Y186075D01*
X37532Y168016D02*
X41469D01*
X37532D02*
Y169984D01*
X41469D01*
Y168016D02*
Y169984D01*
X37532Y163016D02*
X41469D01*
X37532D02*
Y164984D01*
X41469D01*
Y163016D02*
Y164984D01*
X37532Y158016D02*
X41469D01*
X37532D02*
Y159984D01*
X41469D01*
Y158016D02*
Y159984D01*
X37532Y153016D02*
X41469D01*
X37532D02*
Y154984D01*
X41469D01*
Y153016D02*
Y154984D01*
X37532Y148516D02*
X41469D01*
X37532D02*
Y150484D01*
X41469D01*
Y148516D02*
Y150484D01*
X37532Y143516D02*
X41469D01*
X37532D02*
Y145484D01*
X41469D01*
Y143516D02*
Y145484D01*
X37532Y138516D02*
X41469D01*
X37532D02*
Y140484D01*
X41469D01*
Y138516D02*
Y140484D01*
X30531Y48484D02*
X34468D01*
Y46516D02*
Y48484D01*
X30531Y46516D02*
X34468D01*
X30531D02*
Y48484D01*
Y53484D02*
X34468D01*
Y51516D02*
Y53484D01*
X30531Y51516D02*
X34468D01*
X30531D02*
Y53484D01*
Y58484D02*
X34468D01*
Y56516D02*
Y58484D01*
X30531Y56516D02*
X34468D01*
X30531D02*
Y58484D01*
X16016Y104032D02*
Y107968D01*
X17984D01*
Y104032D02*
Y107968D01*
X16016Y104032D02*
X17984D01*
Y79031D02*
Y82968D01*
X16016Y79031D02*
X17984D01*
X16016D02*
Y82968D01*
X17984D01*
X133595Y136425D02*
Y139575D01*
Y136425D02*
X139894D01*
Y139575D01*
X133595D02*
X139894D01*
X68925Y100350D02*
X72075D01*
Y106650D01*
X68925D02*
X72075D01*
X68925Y100350D02*
Y106650D01*
Y79350D02*
X72075D01*
Y85650D01*
X68925D02*
X72075D01*
X68925Y79350D02*
Y85650D01*
X105925Y121650D02*
X109075D01*
X105925Y115350D02*
Y121650D01*
Y115350D02*
X109075D01*
Y121650D01*
X83425D02*
X86575D01*
X83425Y115350D02*
Y121650D01*
Y115350D02*
X86575D01*
Y121650D01*
X80425Y56850D02*
X83575D01*
Y63150D01*
X80425D02*
X83575D01*
X80425Y56850D02*
Y63150D01*
X85425D02*
X88575D01*
X85425Y56850D02*
Y63150D01*
Y56850D02*
X88575D01*
Y63150D01*
X118095Y116425D02*
Y119575D01*
Y116425D02*
X124394D01*
Y119575D01*
X118095D02*
X124394D01*
Y111425D02*
Y114575D01*
X118095D02*
X124394D01*
X118095Y111425D02*
Y114575D01*
Y111425D02*
X124394D01*
X68925Y75650D02*
X72075D01*
X68925Y69350D02*
Y75650D01*
Y69350D02*
X72075D01*
Y75650D01*
X90850Y42622D02*
Y45772D01*
Y42622D02*
X97150D01*
Y45772D01*
X90850D02*
X97150D01*
X121925Y50547D02*
X125075D01*
Y56846D01*
X121925D02*
X125075D01*
X121925Y50547D02*
Y56846D01*
X122850Y42622D02*
Y45772D01*
Y42622D02*
X129150D01*
Y45772D01*
X122850D02*
X129150D01*
X168650Y140425D02*
Y143575D01*
X162350D02*
X168650D01*
X162350Y140425D02*
Y143575D01*
Y140425D02*
X168650D01*
X151594Y151425D02*
Y154575D01*
Y151425D02*
X157894D01*
Y154575D01*
X151594D02*
X157894D01*
X203559Y124181D02*
Y127331D01*
Y124181D02*
X209858D01*
Y127331D01*
X203559D02*
X209858D01*
X218425Y146650D02*
X221575D01*
X218425Y140350D02*
Y146650D01*
Y140350D02*
X221575D01*
Y146650D01*
X40150Y208925D02*
Y212075D01*
X33850D02*
X40150D01*
X33850Y208925D02*
Y212075D01*
Y208925D02*
X40150D01*
Y203925D02*
Y207075D01*
X33850D02*
X40150D01*
X33850Y203925D02*
Y207075D01*
Y203925D02*
X40150D01*
X184425Y179150D02*
X187575D01*
X184425Y172850D02*
Y179150D01*
Y172850D02*
X187575D01*
Y179150D01*
X197925Y156350D02*
X201075D01*
Y162650D01*
X197925D02*
X201075D01*
X197925Y156350D02*
Y162650D01*
X192925Y156350D02*
X196075D01*
Y162650D01*
X192925D02*
X196075D01*
X192925Y156350D02*
Y162650D01*
X45291Y158449D02*
Y164551D01*
X56709D01*
Y158449D02*
Y164551D01*
X45291Y158449D02*
X56709D01*
X45291Y162189D02*
X49031Y158449D01*
X45291Y138949D02*
Y145051D01*
X56709D01*
Y138949D02*
Y145051D01*
X45291Y138949D02*
X56709D01*
X45291Y142689D02*
X49031Y138949D01*
D11*
X320595Y21854D02*
Y41146D01*
X297406D02*
X320595D01*
X297406Y21854D02*
Y41146D01*
Y21854D02*
X320595D01*
X325406Y88854D02*
X348594D01*
X325406D02*
Y108146D01*
X348594D01*
Y88854D02*
Y108146D01*
X320595Y179354D02*
Y198646D01*
X297406D02*
X320595D01*
X297406Y179354D02*
Y198646D01*
Y179354D02*
X320595D01*
X325406Y111854D02*
X348594D01*
X325406D02*
Y131146D01*
X348594D01*
Y111854D02*
Y131146D01*
X325905Y66854D02*
Y86146D01*
Y66854D02*
X349095D01*
Y86146D01*
X325905D02*
X349095D01*
X299905Y176146D02*
X323095D01*
Y156854D02*
Y176146D01*
X299905Y156854D02*
X323095D01*
X299905D02*
Y176146D01*
X325905Y133854D02*
Y153146D01*
Y133854D02*
X349095D01*
Y153146D01*
X325905D02*
X349095D01*
X299406Y63646D02*
X322594D01*
Y44354D02*
Y63646D01*
X299406Y44354D02*
X322594D01*
X299406D02*
Y63646D01*
X331142Y59216D02*
X348858D01*
X331142Y23784D02*
Y59216D01*
Y23784D02*
X348858D01*
Y59216D01*
X331142Y161284D02*
X348858D01*
Y196716D01*
X331142D02*
X348858D01*
X331142Y161284D02*
Y196716D01*
X591Y121193D02*
Y182807D01*
X20276D01*
Y121193D02*
Y182807D01*
X591Y121193D02*
X20276D01*
X84543Y198839D02*
Y218524D01*
Y198839D02*
X127457D01*
Y218524D01*
X84543D02*
X127457D01*
X591Y182807D02*
X20276D01*
Y121193D02*
Y182807D01*
X591Y121193D02*
X20276D01*
X591D02*
Y182807D01*
X23843Y83807D02*
Y101524D01*
X41559D01*
Y83807D02*
Y101524D01*
X23843Y83807D02*
X41559D01*
X246033Y30505D02*
Y40741D01*
X233041D02*
X246033D01*
X233041Y30505D02*
Y40741D01*
Y30505D02*
X246033D01*
X39035Y1657D02*
X80965D01*
X39035D02*
Y21342D01*
X80965D01*
Y1657D02*
Y21342D01*
X182071Y164929D02*
Y181071D01*
X165929Y164929D02*
X182071D01*
X165929D02*
Y181071D01*
X182071D01*
X29850Y73425D02*
Y76575D01*
X36150D01*
Y73425D02*
Y76575D01*
X29850Y73425D02*
X36150D01*
X128201Y113157D02*
Y132843D01*
Y113157D02*
X140799D01*
Y132843D01*
X128201D02*
X140799D01*
X134543Y1173D02*
X177457D01*
X134543D02*
Y20858D01*
X177457D01*
Y1173D02*
Y20858D01*
X130957Y1173D02*
Y20858D01*
X88043D02*
X130957D01*
X88043Y1173D02*
Y20858D01*
Y1173D02*
X130957D01*
X1476Y31043D02*
X21161D01*
Y73957D01*
X1476D02*
X21161D01*
X1476Y31043D02*
Y73957D01*
M02*
