G04*
G04 #@! TF.GenerationSoftware,Altium Limited,Altium Designer,21.6.4 (81)*
G04*
G04 Layer_Color=65535*
%FSLAX25Y25*%
%MOIN*%
G70*
G04*
G04 #@! TF.SameCoordinates,3BA059D2-C19B-422F-8E39-1BAB5BDEDA6E*
G04*
G04*
G04 #@! TF.FilePolarity,Positive*
G04*
G01*
G75*
%ADD10C,0.00394*%
%ADD11C,0.00787*%
%ADD12C,0.00984*%
%ADD13C,0.01000*%
%ADD14C,0.00591*%
G36*
X170736Y112471D02*
Y112297D01*
Y112122D01*
Y111948D01*
Y111774D01*
X170910D01*
Y111599D01*
Y111425D01*
Y111250D01*
Y111076D01*
Y110901D01*
Y110727D01*
X171084D01*
Y110553D01*
Y110378D01*
Y110204D01*
Y110029D01*
Y109855D01*
X171259D01*
Y109680D01*
Y109506D01*
Y109332D01*
X171782D01*
Y109157D01*
X172131D01*
Y108983D01*
X172654D01*
Y108809D01*
X173003D01*
Y108634D01*
X173701D01*
Y108809D01*
X173875D01*
Y108983D01*
X174224D01*
Y109157D01*
X174399D01*
Y109332D01*
X174747D01*
Y109506D01*
X174922D01*
Y109680D01*
X175271D01*
Y109855D01*
X175445D01*
Y110029D01*
X175794D01*
Y110204D01*
X175968D01*
Y110378D01*
X176143D01*
Y110204D01*
X176491D01*
Y110029D01*
X176666D01*
Y109855D01*
X176840D01*
Y109680D01*
X177015D01*
Y109506D01*
X177189D01*
Y109332D01*
X177364D01*
Y109157D01*
X177538D01*
Y108983D01*
X177713D01*
Y108809D01*
X177887D01*
Y108634D01*
X178061D01*
Y108460D01*
X178236D01*
Y108285D01*
Y108111D01*
X178410D01*
Y107936D01*
X178236D01*
Y107762D01*
Y107588D01*
X178061D01*
Y107413D01*
X177887D01*
Y107239D01*
X177713D01*
Y107064D01*
Y106890D01*
X177538D01*
Y106715D01*
X177364D01*
Y106541D01*
Y106367D01*
X177189D01*
Y106192D01*
X177015D01*
Y106018D01*
Y105843D01*
X176840D01*
Y105669D01*
X176666D01*
Y105494D01*
Y105320D01*
Y105146D01*
X176840D01*
Y104971D01*
Y104797D01*
X177015D01*
Y104622D01*
Y104448D01*
Y104274D01*
X177189D01*
Y104099D01*
Y103925D01*
X177364D01*
Y103750D01*
Y103576D01*
X177538D01*
Y103402D01*
Y103227D01*
X177887D01*
Y103053D01*
X178759D01*
Y102878D01*
X179631D01*
Y102704D01*
X180503D01*
Y102529D01*
X180678D01*
Y102355D01*
Y102181D01*
Y102006D01*
Y101832D01*
Y101657D01*
Y101483D01*
Y101309D01*
Y101134D01*
Y100960D01*
Y100785D01*
Y100611D01*
Y100436D01*
Y100262D01*
Y100087D01*
Y99913D01*
Y99739D01*
Y99564D01*
Y99390D01*
X180503D01*
Y99215D01*
X179806D01*
Y99041D01*
X178759D01*
Y98867D01*
X177887D01*
Y98692D01*
X177538D01*
Y98518D01*
Y98343D01*
Y98169D01*
X177364D01*
Y97995D01*
Y97820D01*
X177189D01*
Y97646D01*
Y97471D01*
Y97297D01*
X177015D01*
Y97122D01*
Y96948D01*
X176840D01*
Y96774D01*
Y96599D01*
Y96425D01*
Y96250D01*
Y96076D01*
X177015D01*
Y95902D01*
Y95727D01*
X177189D01*
Y95553D01*
X177364D01*
Y95378D01*
Y95204D01*
X177538D01*
Y95029D01*
X177713D01*
Y94855D01*
Y94681D01*
X177887D01*
Y94506D01*
X178061D01*
Y94332D01*
X178236D01*
Y94157D01*
Y93983D01*
X178410D01*
Y93809D01*
X178236D01*
Y93634D01*
Y93460D01*
X178061D01*
Y93285D01*
X177887D01*
Y93111D01*
X177713D01*
Y92936D01*
X177538D01*
Y92762D01*
X177364D01*
Y92588D01*
X177189D01*
Y92413D01*
X177015D01*
Y92239D01*
X176840D01*
Y92064D01*
X176666D01*
Y91890D01*
X176491D01*
Y91715D01*
X176143D01*
Y91541D01*
X175968D01*
Y91715D01*
X175619D01*
Y91890D01*
X175445D01*
Y92064D01*
X175271D01*
Y92239D01*
X174922D01*
Y92413D01*
X174747D01*
Y92588D01*
X174399D01*
Y92762D01*
X174224D01*
Y92936D01*
X173875D01*
Y93111D01*
X173352D01*
Y92936D01*
X173003D01*
Y92762D01*
X172654D01*
Y92588D01*
X172306D01*
Y92762D01*
Y92936D01*
X172131D01*
Y93111D01*
Y93285D01*
Y93460D01*
X171957D01*
Y93634D01*
Y93809D01*
X171782D01*
Y93983D01*
Y94157D01*
X171608D01*
Y94332D01*
Y94506D01*
Y94681D01*
X171433D01*
Y94855D01*
Y95029D01*
X171259D01*
Y95204D01*
Y95378D01*
Y95553D01*
X171084D01*
Y95727D01*
Y95902D01*
X170910D01*
Y96076D01*
Y96250D01*
X170736D01*
Y96425D01*
Y96599D01*
Y96774D01*
X170561D01*
Y96948D01*
Y97122D01*
X170387D01*
Y97297D01*
Y97471D01*
Y97646D01*
X170212D01*
Y97820D01*
Y97995D01*
X170561D01*
Y98169D01*
X170736D01*
Y98343D01*
X170910D01*
Y98518D01*
X171259D01*
Y98692D01*
X171433D01*
Y98867D01*
Y99041D01*
X171608D01*
Y99215D01*
X171782D01*
Y99390D01*
Y99564D01*
X171957D01*
Y99739D01*
Y99913D01*
X172131D01*
Y100087D01*
Y100262D01*
Y100436D01*
Y100611D01*
Y100785D01*
Y100960D01*
Y101134D01*
Y101309D01*
Y101483D01*
Y101657D01*
Y101832D01*
Y102006D01*
X171957D01*
Y102181D01*
Y102355D01*
X171782D01*
Y102529D01*
Y102704D01*
X171608D01*
Y102878D01*
X171433D01*
Y103053D01*
X171259D01*
Y103227D01*
X171084D01*
Y103402D01*
X170910D01*
Y103576D01*
X170736D01*
Y103750D01*
X170387D01*
Y103925D01*
X169864D01*
Y104099D01*
X168119D01*
Y103925D01*
X167596D01*
Y103750D01*
X167247D01*
Y103576D01*
X167073D01*
Y103402D01*
X166899D01*
Y103227D01*
X166724D01*
Y103053D01*
X166550D01*
Y102878D01*
X166375D01*
Y102704D01*
X166201D01*
Y102529D01*
Y102355D01*
X166026D01*
Y102181D01*
Y102006D01*
Y101832D01*
X165852D01*
Y101657D01*
Y101483D01*
Y101309D01*
Y101134D01*
Y100960D01*
Y100785D01*
Y100611D01*
Y100436D01*
Y100262D01*
Y100087D01*
X166026D01*
Y99913D01*
Y99739D01*
Y99564D01*
X166201D01*
Y99390D01*
Y99215D01*
X166375D01*
Y99041D01*
X166550D01*
Y98867D01*
Y98692D01*
X166899D01*
Y98518D01*
X167073D01*
Y98343D01*
X167247D01*
Y98169D01*
X167422D01*
Y97995D01*
X167771D01*
Y97820D01*
Y97646D01*
Y97471D01*
X167596D01*
Y97297D01*
Y97122D01*
X167422D01*
Y96948D01*
Y96774D01*
Y96599D01*
X167247D01*
Y96425D01*
Y96250D01*
X167073D01*
Y96076D01*
Y95902D01*
X166899D01*
Y95727D01*
Y95553D01*
Y95378D01*
X166724D01*
Y95204D01*
Y95029D01*
X166550D01*
Y94855D01*
Y94681D01*
Y94506D01*
X166375D01*
Y94332D01*
Y94157D01*
X166201D01*
Y93983D01*
Y93809D01*
X166026D01*
Y93634D01*
Y93460D01*
Y93285D01*
X165852D01*
Y93111D01*
Y92936D01*
X165678D01*
Y92762D01*
Y92588D01*
X165329D01*
Y92762D01*
X164980D01*
Y92936D01*
X164805D01*
Y93111D01*
X164108D01*
Y92936D01*
X163759D01*
Y92762D01*
X163584D01*
Y92588D01*
X163410D01*
Y92413D01*
X163061D01*
Y92239D01*
X162887D01*
Y92064D01*
X162538D01*
Y91890D01*
X162364D01*
Y91715D01*
X162015D01*
Y91541D01*
X161840D01*
Y91715D01*
X161666D01*
Y91890D01*
X161492D01*
Y92064D01*
X161317D01*
Y92239D01*
X161143D01*
Y92413D01*
X160968D01*
Y92588D01*
X160794D01*
Y92762D01*
X160619D01*
Y92936D01*
X160445D01*
Y93111D01*
X160271D01*
Y93285D01*
X160096D01*
Y93460D01*
X159922D01*
Y93634D01*
X159747D01*
Y93809D01*
X159573D01*
Y93983D01*
X159747D01*
Y94157D01*
X159922D01*
Y94332D01*
Y94506D01*
X160096D01*
Y94681D01*
X160271D01*
Y94855D01*
Y95029D01*
X160445D01*
Y95204D01*
X160619D01*
Y95378D01*
Y95553D01*
X160794D01*
Y95727D01*
X160968D01*
Y95902D01*
X161143D01*
Y96076D01*
Y96250D01*
X161317D01*
Y96425D01*
Y96599D01*
X161143D01*
Y96774D01*
Y96948D01*
X160968D01*
Y97122D01*
Y97297D01*
Y97471D01*
X160794D01*
Y97646D01*
Y97820D01*
X160619D01*
Y97995D01*
Y98169D01*
Y98343D01*
X160445D01*
Y98518D01*
Y98692D01*
X160096D01*
Y98867D01*
X159224D01*
Y99041D01*
X158352D01*
Y99215D01*
X157480D01*
Y99390D01*
X157306D01*
Y99564D01*
Y99739D01*
Y99913D01*
Y100087D01*
Y100262D01*
Y100436D01*
Y100611D01*
Y100785D01*
Y100960D01*
Y101134D01*
Y101309D01*
Y101483D01*
Y101657D01*
Y101832D01*
Y102006D01*
Y102181D01*
Y102355D01*
Y102529D01*
X157480D01*
Y102704D01*
X158352D01*
Y102878D01*
X159224D01*
Y103053D01*
X160271D01*
Y103227D01*
X160445D01*
Y103402D01*
X160619D01*
Y103576D01*
Y103750D01*
X160794D01*
Y103925D01*
Y104099D01*
Y104274D01*
X160968D01*
Y104448D01*
Y104622D01*
X161143D01*
Y104797D01*
Y104971D01*
Y105146D01*
X161317D01*
Y105320D01*
Y105494D01*
Y105669D01*
X161143D01*
Y105843D01*
X160968D01*
Y106018D01*
Y106192D01*
X160794D01*
Y106367D01*
X160619D01*
Y106541D01*
Y106715D01*
X160445D01*
Y106890D01*
X160271D01*
Y107064D01*
Y107239D01*
X160096D01*
Y107413D01*
X159922D01*
Y107588D01*
Y107762D01*
X159747D01*
Y107936D01*
X159573D01*
Y108111D01*
X159747D01*
Y108285D01*
X159922D01*
Y108460D01*
X160096D01*
Y108634D01*
X160271D01*
Y108809D01*
X160445D01*
Y108983D01*
X160619D01*
Y109157D01*
X160794D01*
Y109332D01*
X160968D01*
Y109506D01*
X161143D01*
Y109680D01*
X161317D01*
Y109855D01*
X161492D01*
Y110029D01*
X161666D01*
Y110204D01*
X161840D01*
Y110378D01*
X162015D01*
Y110204D01*
X162364D01*
Y110029D01*
X162538D01*
Y109855D01*
X162887D01*
Y109680D01*
X163061D01*
Y109506D01*
X163236D01*
Y109332D01*
X163584D01*
Y109157D01*
X163759D01*
Y108983D01*
X164108D01*
Y108809D01*
X164282D01*
Y108634D01*
X164980D01*
Y108809D01*
X165329D01*
Y108983D01*
X165852D01*
Y109157D01*
X166201D01*
Y109332D01*
X166724D01*
Y109506D01*
Y109680D01*
X166899D01*
Y109855D01*
Y110029D01*
Y110204D01*
Y110378D01*
Y110553D01*
X167073D01*
Y110727D01*
Y110901D01*
Y111076D01*
Y111250D01*
Y111425D01*
Y111599D01*
X167247D01*
Y111774D01*
Y111948D01*
Y112122D01*
Y112297D01*
Y112471D01*
X167422D01*
Y112646D01*
X170736D01*
Y112471D01*
D02*
G37*
G36*
X158875Y89099D02*
X159224D01*
Y88925D01*
X159398D01*
Y88750D01*
X159573D01*
Y88576D01*
Y88402D01*
Y88227D01*
Y88053D01*
X159747D01*
Y87878D01*
Y87704D01*
Y87529D01*
Y87355D01*
Y87181D01*
X159573D01*
Y87006D01*
Y86832D01*
Y86657D01*
Y86483D01*
X159398D01*
Y86308D01*
X159224D01*
Y86134D01*
X158875D01*
Y85960D01*
X158178D01*
Y86134D01*
X157829D01*
Y85960D01*
Y85785D01*
Y85611D01*
Y85436D01*
Y85262D01*
Y85088D01*
Y84913D01*
Y84739D01*
Y84564D01*
Y84390D01*
Y84215D01*
Y84041D01*
X158003D01*
Y84215D01*
X158526D01*
Y84390D01*
X158701D01*
Y84215D01*
X159050D01*
Y84041D01*
X159398D01*
Y83867D01*
Y83692D01*
X159573D01*
Y83518D01*
Y83343D01*
Y83169D01*
X159747D01*
Y82995D01*
Y82820D01*
Y82646D01*
Y82471D01*
Y82297D01*
Y82122D01*
Y81948D01*
Y81774D01*
Y81599D01*
Y81425D01*
Y81250D01*
X159573D01*
Y81076D01*
X158875D01*
Y81250D01*
Y81425D01*
Y81599D01*
Y81774D01*
Y81948D01*
Y82122D01*
Y82297D01*
Y82471D01*
Y82646D01*
Y82820D01*
Y82995D01*
Y83169D01*
Y83343D01*
X158701D01*
Y83518D01*
X158003D01*
Y83343D01*
X157829D01*
Y83169D01*
Y82995D01*
Y82820D01*
Y82646D01*
Y82471D01*
Y82297D01*
Y82122D01*
Y81948D01*
Y81774D01*
Y81599D01*
Y81425D01*
Y81250D01*
Y81076D01*
X157131D01*
Y81250D01*
Y81425D01*
Y81599D01*
Y81774D01*
Y81948D01*
Y82122D01*
Y82297D01*
Y82471D01*
Y82646D01*
Y82820D01*
Y82995D01*
Y83169D01*
Y83343D01*
Y83518D01*
Y83692D01*
Y83867D01*
Y84041D01*
Y84215D01*
Y84390D01*
Y84564D01*
Y84739D01*
Y84913D01*
Y85088D01*
Y85262D01*
Y85436D01*
Y85611D01*
Y85785D01*
Y85960D01*
Y86134D01*
Y86308D01*
Y86483D01*
Y86657D01*
Y86832D01*
Y87006D01*
Y87181D01*
Y87355D01*
Y87529D01*
Y87704D01*
Y87878D01*
Y88053D01*
Y88227D01*
Y88402D01*
Y88576D01*
Y88750D01*
Y88925D01*
Y89099D01*
Y89274D01*
X157829D01*
Y89099D01*
X158178D01*
Y89274D01*
X158875D01*
Y89099D01*
D02*
G37*
G36*
X178410D02*
X178759D01*
Y88925D01*
Y88750D01*
X178585D01*
Y88576D01*
X178410D01*
Y88402D01*
X178236D01*
Y88576D01*
X177713D01*
Y88402D01*
X177538D01*
Y88227D01*
X177364D01*
Y88053D01*
Y87878D01*
Y87704D01*
Y87529D01*
Y87355D01*
Y87181D01*
Y87006D01*
Y86832D01*
Y86657D01*
Y86483D01*
Y86308D01*
Y86134D01*
Y85960D01*
X176666D01*
Y86134D01*
Y86308D01*
Y86483D01*
Y86657D01*
Y86832D01*
Y87006D01*
Y87181D01*
Y87355D01*
Y87529D01*
Y87704D01*
Y87878D01*
Y88053D01*
Y88227D01*
Y88402D01*
Y88576D01*
Y88750D01*
Y88925D01*
Y89099D01*
Y89274D01*
X177364D01*
Y89099D01*
Y88925D01*
X177538D01*
Y89099D01*
X177713D01*
Y89274D01*
X178410D01*
Y89099D01*
D02*
G37*
G36*
X164980D02*
X165329D01*
Y88925D01*
X165503D01*
Y88750D01*
Y88576D01*
X165678D01*
Y88402D01*
Y88227D01*
Y88053D01*
Y87878D01*
Y87704D01*
Y87529D01*
Y87355D01*
Y87181D01*
Y87006D01*
Y86832D01*
Y86657D01*
Y86483D01*
Y86308D01*
Y86134D01*
Y85960D01*
X164980D01*
Y86134D01*
Y86308D01*
Y86483D01*
Y86657D01*
Y86832D01*
Y87006D01*
Y87181D01*
Y87355D01*
Y87529D01*
Y87704D01*
Y87878D01*
Y88053D01*
Y88227D01*
X164805D01*
Y88402D01*
X164631D01*
Y88576D01*
X164108D01*
Y88402D01*
X163933D01*
Y88227D01*
Y88053D01*
X163759D01*
Y87878D01*
Y87704D01*
Y87529D01*
Y87355D01*
Y87181D01*
Y87006D01*
Y86832D01*
Y86657D01*
Y86483D01*
Y86308D01*
Y86134D01*
Y85960D01*
X163061D01*
Y86134D01*
Y86308D01*
Y86483D01*
Y86657D01*
Y86832D01*
Y87006D01*
Y87181D01*
Y87355D01*
Y87529D01*
Y87704D01*
Y87878D01*
Y88053D01*
Y88227D01*
Y88402D01*
Y88576D01*
Y88750D01*
Y88925D01*
Y89099D01*
Y89274D01*
X163759D01*
Y89099D01*
Y88925D01*
X163933D01*
Y89099D01*
X164282D01*
Y89274D01*
X164980D01*
Y89099D01*
D02*
G37*
G36*
X169166D02*
X169689D01*
Y88925D01*
X169864D01*
Y88750D01*
Y88576D01*
X169689D01*
Y88402D01*
X169166D01*
Y88576D01*
X168294D01*
Y88402D01*
Y88227D01*
Y88053D01*
X168991D01*
Y87878D01*
X169689D01*
Y87704D01*
X169864D01*
Y87529D01*
X170038D01*
Y87355D01*
Y87181D01*
Y87006D01*
Y86832D01*
Y86657D01*
Y86483D01*
X169864D01*
Y86308D01*
X169689D01*
Y86134D01*
X169340D01*
Y85960D01*
X168119D01*
Y86134D01*
X167771D01*
Y86308D01*
X167596D01*
Y86483D01*
X167422D01*
Y86657D01*
Y86832D01*
X167596D01*
Y87006D01*
X167945D01*
Y86832D01*
X168294D01*
Y86657D01*
X169166D01*
Y86832D01*
X169340D01*
Y87006D01*
Y87181D01*
X168991D01*
Y87355D01*
X167945D01*
Y87529D01*
X167771D01*
Y87704D01*
X167596D01*
Y87878D01*
Y88053D01*
Y88227D01*
Y88402D01*
Y88576D01*
Y88750D01*
X167771D01*
Y88925D01*
X167945D01*
Y89099D01*
X168294D01*
Y89274D01*
X169166D01*
Y89099D01*
D02*
G37*
G36*
X180503D02*
X180852D01*
Y88925D01*
X181201D01*
Y88750D01*
Y88576D01*
Y88402D01*
X180852D01*
Y88227D01*
X180678D01*
Y88402D01*
X180329D01*
Y88576D01*
X179806D01*
Y88402D01*
X179631D01*
Y88227D01*
X179457D01*
Y88053D01*
Y87878D01*
Y87704D01*
Y87529D01*
Y87355D01*
Y87181D01*
Y87006D01*
X179631D01*
Y86832D01*
X179806D01*
Y86657D01*
X180329D01*
Y86832D01*
X180678D01*
Y87006D01*
X180852D01*
Y86832D01*
X181026D01*
Y86657D01*
X181201D01*
Y86483D01*
Y86308D01*
X180852D01*
Y86134D01*
X180678D01*
Y85960D01*
X179631D01*
Y86134D01*
X179282D01*
Y86308D01*
X179108D01*
Y86483D01*
X178933D01*
Y86657D01*
Y86832D01*
X178759D01*
Y87006D01*
Y87181D01*
Y87355D01*
Y87529D01*
Y87704D01*
Y87878D01*
Y88053D01*
Y88227D01*
Y88402D01*
X178933D01*
Y88576D01*
Y88750D01*
X179108D01*
Y88925D01*
X179282D01*
Y89099D01*
X179806D01*
Y89274D01*
X180503D01*
Y89099D01*
D02*
G37*
G36*
X175968D02*
Y88925D01*
Y88750D01*
Y88576D01*
Y88402D01*
Y88227D01*
Y88053D01*
Y87878D01*
Y87704D01*
Y87529D01*
Y87355D01*
Y87181D01*
Y87006D01*
Y86832D01*
Y86657D01*
Y86483D01*
Y86308D01*
Y86134D01*
Y85960D01*
X175271D01*
Y86134D01*
X174922D01*
Y85960D01*
X174224D01*
Y86134D01*
X173875D01*
Y86308D01*
X173701D01*
Y86483D01*
X173526D01*
Y86657D01*
Y86832D01*
Y87006D01*
Y87181D01*
Y87355D01*
Y87529D01*
Y87704D01*
Y87878D01*
Y88053D01*
Y88227D01*
Y88402D01*
Y88576D01*
Y88750D01*
Y88925D01*
Y89099D01*
Y89274D01*
X174224D01*
Y89099D01*
Y88925D01*
Y88750D01*
Y88576D01*
Y88402D01*
Y88227D01*
Y88053D01*
Y87878D01*
Y87704D01*
Y87529D01*
Y87355D01*
Y87181D01*
Y87006D01*
Y86832D01*
X174573D01*
Y86657D01*
X175096D01*
Y86832D01*
X175271D01*
Y87006D01*
Y87181D01*
Y87355D01*
Y87529D01*
Y87704D01*
Y87878D01*
Y88053D01*
Y88227D01*
Y88402D01*
Y88576D01*
Y88750D01*
Y88925D01*
Y89099D01*
Y89274D01*
X175968D01*
Y89099D01*
D02*
G37*
G36*
X183119D02*
X183468D01*
Y88925D01*
X183643D01*
Y88750D01*
X183817D01*
Y88576D01*
X183992D01*
Y88402D01*
Y88227D01*
Y88053D01*
Y87878D01*
Y87704D01*
Y87529D01*
Y87355D01*
X182073D01*
Y87181D01*
Y87006D01*
X182247D01*
Y86832D01*
X182422D01*
Y86657D01*
X183119D01*
Y86832D01*
X183817D01*
Y86657D01*
X183992D01*
Y86483D01*
X183817D01*
Y86308D01*
X183643D01*
Y86134D01*
X183294D01*
Y85960D01*
X182247D01*
Y86134D01*
X181898D01*
Y86308D01*
X181724D01*
Y86483D01*
X181550D01*
Y86657D01*
Y86832D01*
Y87006D01*
X181375D01*
Y87181D01*
Y87355D01*
Y87529D01*
Y87704D01*
Y87878D01*
Y88053D01*
Y88227D01*
X181550D01*
Y88402D01*
Y88576D01*
X181724D01*
Y88750D01*
Y88925D01*
X182073D01*
Y89099D01*
X182247D01*
Y89274D01*
X183119D01*
Y89099D01*
D02*
G37*
G36*
X172131D02*
X172480D01*
Y88925D01*
X172654D01*
Y88750D01*
X172829D01*
Y88576D01*
Y88402D01*
X173003D01*
Y88227D01*
Y88053D01*
Y87878D01*
Y87704D01*
Y87529D01*
Y87355D01*
Y87181D01*
Y87006D01*
Y86832D01*
X172829D01*
Y86657D01*
Y86483D01*
X172654D01*
Y86308D01*
X172480D01*
Y86134D01*
X172131D01*
Y85960D01*
X171259D01*
Y86134D01*
X170910D01*
Y86308D01*
X170736D01*
Y86483D01*
X170561D01*
Y86657D01*
X170387D01*
Y86832D01*
Y87006D01*
Y87181D01*
Y87355D01*
Y87529D01*
Y87704D01*
Y87878D01*
Y88053D01*
Y88227D01*
Y88402D01*
Y88576D01*
X170561D01*
Y88750D01*
X170736D01*
Y88925D01*
X170910D01*
Y89099D01*
X171259D01*
Y89274D01*
X172131D01*
Y89099D01*
D02*
G37*
G36*
X161666D02*
X162015D01*
Y88925D01*
X162364D01*
Y88750D01*
Y88576D01*
X162538D01*
Y88402D01*
Y88227D01*
Y88053D01*
X162713D01*
Y87878D01*
Y87704D01*
Y87529D01*
Y87355D01*
X160794D01*
Y87181D01*
Y87006D01*
Y86832D01*
X160968D01*
Y86657D01*
X161840D01*
Y86832D01*
X162364D01*
Y86657D01*
X162538D01*
Y86483D01*
Y86308D01*
X162364D01*
Y86134D01*
X162015D01*
Y85960D01*
X160968D01*
Y86134D01*
X160619D01*
Y86308D01*
X160445D01*
Y86483D01*
X160271D01*
Y86657D01*
X160096D01*
Y86832D01*
Y87006D01*
Y87181D01*
Y87355D01*
X159922D01*
Y87529D01*
Y87704D01*
Y87878D01*
X160096D01*
Y88053D01*
Y88227D01*
Y88402D01*
Y88576D01*
X160271D01*
Y88750D01*
X160445D01*
Y88925D01*
X160619D01*
Y89099D01*
X160968D01*
Y89274D01*
X161666D01*
Y89099D01*
D02*
G37*
G36*
X155736D02*
X156085D01*
Y88925D01*
X156259D01*
Y88750D01*
X156433D01*
Y88576D01*
Y88402D01*
X156608D01*
Y88227D01*
Y88053D01*
Y87878D01*
Y87704D01*
Y87529D01*
Y87355D01*
Y87181D01*
Y87006D01*
Y86832D01*
X156433D01*
Y86657D01*
Y86483D01*
X156259D01*
Y86308D01*
X156085D01*
Y86134D01*
X155736D01*
Y85960D01*
X154864D01*
Y86134D01*
X154515D01*
Y86308D01*
X154340D01*
Y86483D01*
X154166D01*
Y86657D01*
Y86832D01*
X153991D01*
Y87006D01*
Y87181D01*
Y87355D01*
Y87529D01*
Y87704D01*
Y87878D01*
Y88053D01*
Y88227D01*
Y88402D01*
X154166D01*
Y88576D01*
Y88750D01*
X154340D01*
Y88925D01*
X154515D01*
Y89099D01*
X154864D01*
Y89274D01*
X155736D01*
Y89099D01*
D02*
G37*
G36*
X177887Y84041D02*
X178061D01*
Y83867D01*
X177887D01*
Y83692D01*
X177713D01*
Y83518D01*
X176666D01*
Y83343D01*
Y83169D01*
Y82995D01*
Y82820D01*
Y82646D01*
Y82471D01*
Y82297D01*
Y82122D01*
Y81948D01*
Y81774D01*
Y81599D01*
Y81425D01*
Y81250D01*
X176491D01*
Y81076D01*
X175794D01*
Y81250D01*
Y81425D01*
Y81599D01*
Y81774D01*
Y81948D01*
Y82122D01*
Y82297D01*
Y82471D01*
Y82646D01*
Y82820D01*
Y82995D01*
Y83169D01*
Y83343D01*
Y83518D01*
Y83692D01*
Y83867D01*
Y84041D01*
Y84215D01*
X176666D01*
Y84041D01*
X176840D01*
Y84215D01*
X177887D01*
Y84041D01*
D02*
G37*
G36*
X167945Y85436D02*
Y85262D01*
Y85088D01*
Y84913D01*
Y84739D01*
Y84564D01*
Y84390D01*
Y84215D01*
Y84041D01*
Y83867D01*
Y83692D01*
Y83518D01*
Y83343D01*
Y83169D01*
Y82995D01*
Y82820D01*
Y82646D01*
Y82471D01*
Y82297D01*
Y82122D01*
Y81948D01*
Y81774D01*
Y81599D01*
Y81425D01*
Y81250D01*
Y81076D01*
X167247D01*
Y81250D01*
X166899D01*
Y81076D01*
X165852D01*
Y81250D01*
X165678D01*
Y81425D01*
X165503D01*
Y81599D01*
Y81774D01*
X165329D01*
Y81948D01*
Y82122D01*
Y82297D01*
Y82471D01*
Y82646D01*
Y82820D01*
Y82995D01*
Y83169D01*
Y83343D01*
Y83518D01*
X165503D01*
Y83692D01*
Y83867D01*
X165678D01*
Y84041D01*
X165852D01*
Y84215D01*
X166375D01*
Y84390D01*
X166550D01*
Y84215D01*
X167073D01*
Y84041D01*
X167247D01*
Y84215D01*
Y84390D01*
Y84564D01*
Y84739D01*
Y84913D01*
Y85088D01*
Y85262D01*
Y85436D01*
Y85611D01*
X167945D01*
Y85436D01*
D02*
G37*
G36*
X164805Y84215D02*
X165329D01*
Y84041D01*
Y83867D01*
X165154D01*
Y83692D01*
Y83518D01*
X164108D01*
Y83343D01*
X163933D01*
Y83169D01*
Y82995D01*
Y82820D01*
Y82646D01*
Y82471D01*
Y82297D01*
Y82122D01*
Y81948D01*
Y81774D01*
Y81599D01*
Y81425D01*
Y81250D01*
Y81076D01*
X163236D01*
Y81250D01*
Y81425D01*
Y81599D01*
Y81774D01*
Y81948D01*
Y82122D01*
Y82297D01*
Y82471D01*
Y82646D01*
Y82820D01*
Y82995D01*
Y83169D01*
Y83343D01*
Y83518D01*
Y83692D01*
Y83867D01*
Y84041D01*
Y84215D01*
X163933D01*
Y84041D01*
X164108D01*
Y84215D01*
X164631D01*
Y84390D01*
X164805D01*
Y84215D01*
D02*
G37*
G36*
X172654Y84041D02*
Y83867D01*
X172480D01*
Y83692D01*
Y83518D01*
Y83343D01*
Y83169D01*
X172306D01*
Y82995D01*
Y82820D01*
Y82646D01*
X172131D01*
Y82471D01*
Y82297D01*
Y82122D01*
X171957D01*
Y81948D01*
Y81774D01*
Y81599D01*
X171782D01*
Y81425D01*
Y81250D01*
Y81076D01*
X171084D01*
Y81250D01*
X170910D01*
Y81425D01*
Y81599D01*
Y81774D01*
Y81948D01*
X170736D01*
Y82122D01*
Y82297D01*
Y82471D01*
X170561D01*
Y82646D01*
Y82820D01*
Y82995D01*
X170387D01*
Y82820D01*
Y82646D01*
X170212D01*
Y82471D01*
Y82297D01*
Y82122D01*
X170038D01*
Y81948D01*
Y81774D01*
Y81599D01*
X169864D01*
Y81425D01*
Y81250D01*
Y81076D01*
X169166D01*
Y81250D01*
Y81425D01*
X168991D01*
Y81599D01*
Y81774D01*
Y81948D01*
X168817D01*
Y82122D01*
Y82297D01*
Y82471D01*
X168643D01*
Y82646D01*
Y82820D01*
Y82995D01*
X168468D01*
Y83169D01*
Y83343D01*
Y83518D01*
X168294D01*
Y83692D01*
Y83867D01*
Y84041D01*
Y84215D01*
X168991D01*
Y84041D01*
Y83867D01*
Y83692D01*
X169166D01*
Y83518D01*
Y83343D01*
Y83169D01*
X169340D01*
Y82995D01*
Y82820D01*
Y82646D01*
Y82471D01*
X169689D01*
Y82646D01*
Y82820D01*
Y82995D01*
X169864D01*
Y83169D01*
Y83343D01*
Y83518D01*
X170038D01*
Y83692D01*
Y83867D01*
Y84041D01*
X170212D01*
Y84215D01*
X170736D01*
Y84041D01*
Y83867D01*
X170910D01*
Y83692D01*
Y83518D01*
Y83343D01*
X171084D01*
Y83169D01*
Y82995D01*
Y82820D01*
X171259D01*
Y82646D01*
Y82471D01*
Y82297D01*
X171433D01*
Y82471D01*
Y82646D01*
X171608D01*
Y82820D01*
Y82995D01*
Y83169D01*
Y83343D01*
X171782D01*
Y83518D01*
Y83692D01*
Y83867D01*
Y84041D01*
X171957D01*
Y84215D01*
X172654D01*
Y84041D01*
D02*
G37*
G36*
X179457Y84215D02*
X179980D01*
Y84041D01*
X180154D01*
Y83867D01*
X180329D01*
Y83692D01*
X180503D01*
Y83518D01*
Y83343D01*
X180678D01*
Y83169D01*
Y82995D01*
Y82820D01*
Y82646D01*
Y82471D01*
X180503D01*
Y82297D01*
X178759D01*
Y82122D01*
Y81948D01*
X178933D01*
Y81774D01*
X179806D01*
Y81948D01*
X180329D01*
Y81774D01*
X180503D01*
Y81599D01*
Y81425D01*
X180329D01*
Y81250D01*
X179980D01*
Y81076D01*
X178759D01*
Y81250D01*
X178410D01*
Y81425D01*
X178236D01*
Y81599D01*
Y81774D01*
X178061D01*
Y81948D01*
Y82122D01*
Y82297D01*
Y82471D01*
Y82646D01*
Y82820D01*
Y82995D01*
Y83169D01*
Y83343D01*
Y83518D01*
X178236D01*
Y83692D01*
Y83867D01*
X178410D01*
Y84041D01*
X178759D01*
Y84215D01*
X179282D01*
Y84390D01*
X179457D01*
Y84215D01*
D02*
G37*
G36*
X174050D02*
X174747D01*
Y84041D01*
X174922D01*
Y83867D01*
X175096D01*
Y83692D01*
X175271D01*
Y83518D01*
Y83343D01*
Y83169D01*
Y82995D01*
Y82820D01*
Y82646D01*
Y82471D01*
Y82297D01*
Y82122D01*
Y81948D01*
Y81774D01*
Y81599D01*
Y81425D01*
Y81250D01*
Y81076D01*
X174573D01*
Y81250D01*
X174399D01*
Y81076D01*
X173178D01*
Y81250D01*
X173003D01*
Y81425D01*
X172829D01*
Y81599D01*
X172654D01*
Y81774D01*
Y81948D01*
Y82122D01*
Y82297D01*
Y82471D01*
X172829D01*
Y82646D01*
X173003D01*
Y82820D01*
X173352D01*
Y82995D01*
X174573D01*
Y83169D01*
Y83343D01*
Y83518D01*
X174224D01*
Y83692D01*
X173875D01*
Y83518D01*
X173003D01*
Y83692D01*
X172829D01*
Y83867D01*
X173003D01*
Y84041D01*
X173178D01*
Y84215D01*
X173875D01*
Y84390D01*
X174050D01*
Y84215D01*
D02*
G37*
G36*
X161492D02*
X162189D01*
Y84041D01*
X162364D01*
Y83867D01*
X162538D01*
Y83692D01*
Y83518D01*
Y83343D01*
Y83169D01*
X162713D01*
Y82995D01*
Y82820D01*
Y82646D01*
Y82471D01*
Y82297D01*
Y82122D01*
Y81948D01*
Y81774D01*
Y81599D01*
Y81425D01*
Y81250D01*
X162538D01*
Y81076D01*
X160619D01*
Y81250D01*
X160271D01*
Y81425D01*
X160096D01*
Y81599D01*
Y81774D01*
Y81948D01*
Y82122D01*
Y82297D01*
Y82471D01*
X160271D01*
Y82646D01*
Y82820D01*
X160619D01*
Y82995D01*
X161840D01*
Y83169D01*
Y83343D01*
Y83518D01*
X161492D01*
Y83692D01*
X161143D01*
Y83518D01*
X160794D01*
Y83343D01*
X160619D01*
Y83518D01*
X160445D01*
Y83692D01*
X160271D01*
Y83867D01*
Y84041D01*
X160445D01*
Y84215D01*
X161143D01*
Y84390D01*
X161492D01*
Y84215D01*
D02*
G37*
G36*
X54272Y94313D02*
X54381Y94305D01*
X54498Y94291D01*
X54621Y94262D01*
X54753Y94232D01*
X54877Y94189D01*
X54884D01*
X54891Y94181D01*
X54928Y94167D01*
X54986Y94138D01*
X55059Y94101D01*
X55139Y94050D01*
X55219Y93992D01*
X55292Y93926D01*
X55358Y93853D01*
X55365Y93846D01*
X55380Y93817D01*
X55409Y93766D01*
X55445Y93708D01*
X55482Y93620D01*
X55518Y93525D01*
X55547Y93416D01*
X55576Y93292D01*
X54971Y93212D01*
Y93226D01*
X54964Y93256D01*
X54950Y93307D01*
X54928Y93372D01*
X54891Y93438D01*
X54848Y93511D01*
X54796Y93584D01*
X54724Y93649D01*
X54716Y93657D01*
X54687Y93671D01*
X54643Y93700D01*
X54578Y93730D01*
X54505Y93759D01*
X54410Y93788D01*
X54294Y93802D01*
X54170Y93810D01*
X54097D01*
X54024Y93802D01*
X53929Y93795D01*
X53834Y93773D01*
X53732Y93751D01*
X53637Y93715D01*
X53557Y93664D01*
X53550Y93657D01*
X53528Y93642D01*
X53499Y93613D01*
X53470Y93569D01*
X53433Y93525D01*
X53404Y93467D01*
X53382Y93401D01*
X53375Y93336D01*
Y93328D01*
Y93314D01*
X53382Y93292D01*
Y93263D01*
X53404Y93190D01*
X53448Y93117D01*
X53455Y93110D01*
X53462Y93103D01*
X53477Y93081D01*
X53506Y93059D01*
X53535Y93037D01*
X53579Y93008D01*
X53630Y92986D01*
X53688Y92957D01*
X53696D01*
X53710Y92949D01*
X53739Y92942D01*
X53790Y92920D01*
X53863Y92898D01*
X53958Y92876D01*
X54017Y92855D01*
X54082Y92840D01*
X54155Y92818D01*
X54235Y92796D01*
X54242D01*
X54264Y92789D01*
X54301Y92782D01*
X54344Y92767D01*
X54396Y92753D01*
X54461Y92738D01*
X54600Y92694D01*
X54753Y92651D01*
X54906Y92599D01*
X55044Y92549D01*
X55103Y92527D01*
X55154Y92505D01*
X55168Y92497D01*
X55197Y92483D01*
X55241Y92461D01*
X55307Y92425D01*
X55372Y92381D01*
X55438Y92322D01*
X55504Y92257D01*
X55562Y92184D01*
X55569Y92177D01*
X55584Y92147D01*
X55613Y92104D01*
X55642Y92038D01*
X55664Y91958D01*
X55693Y91870D01*
X55708Y91768D01*
X55715Y91652D01*
Y91637D01*
Y91601D01*
X55708Y91543D01*
X55693Y91462D01*
X55671Y91375D01*
X55635Y91280D01*
X55591Y91171D01*
X55533Y91069D01*
X55525Y91054D01*
X55496Y91025D01*
X55460Y90974D01*
X55402Y90916D01*
X55321Y90850D01*
X55234Y90777D01*
X55132Y90711D01*
X55008Y90646D01*
X55001D01*
X54993Y90639D01*
X54950Y90624D01*
X54877Y90602D01*
X54782Y90573D01*
X54665Y90544D01*
X54534Y90522D01*
X54396Y90507D01*
X54235Y90500D01*
X54170D01*
X54119Y90507D01*
X54060D01*
X53987Y90515D01*
X53914Y90522D01*
X53834Y90536D01*
X53659Y90573D01*
X53477Y90624D01*
X53302Y90697D01*
X53222Y90741D01*
X53149Y90792D01*
X53142Y90799D01*
X53134Y90806D01*
X53091Y90850D01*
X53025Y90916D01*
X52952Y91018D01*
X52872Y91141D01*
X52792Y91287D01*
X52726Y91470D01*
X52675Y91674D01*
X53288Y91768D01*
Y91761D01*
Y91754D01*
X53302Y91710D01*
X53317Y91637D01*
X53346Y91557D01*
X53382Y91470D01*
X53426Y91375D01*
X53492Y91280D01*
X53572Y91200D01*
X53586Y91193D01*
X53615Y91171D01*
X53674Y91141D01*
X53747Y91105D01*
X53842Y91069D01*
X53951Y91040D01*
X54082Y91018D01*
X54235Y91010D01*
X54308D01*
X54381Y91018D01*
X54476Y91032D01*
X54578Y91054D01*
X54687Y91083D01*
X54782Y91120D01*
X54869Y91178D01*
X54877Y91185D01*
X54906Y91207D01*
X54935Y91244D01*
X54979Y91295D01*
X55015Y91353D01*
X55052Y91426D01*
X55073Y91499D01*
X55081Y91586D01*
Y91593D01*
Y91623D01*
X55073Y91659D01*
X55059Y91710D01*
X55037Y91761D01*
X55001Y91812D01*
X54957Y91870D01*
X54891Y91914D01*
X54884Y91922D01*
X54862Y91929D01*
X54826Y91951D01*
X54767Y91973D01*
X54680Y92002D01*
X54629Y92024D01*
X54571Y92038D01*
X54505Y92060D01*
X54432Y92082D01*
X54352Y92104D01*
X54257Y92126D01*
X54250D01*
X54228Y92133D01*
X54191Y92140D01*
X54148Y92155D01*
X54089Y92169D01*
X54024Y92191D01*
X53885Y92228D01*
X53725Y92279D01*
X53572Y92322D01*
X53426Y92374D01*
X53360Y92403D01*
X53309Y92425D01*
X53295Y92432D01*
X53266Y92446D01*
X53222Y92476D01*
X53163Y92512D01*
X53098Y92563D01*
X53032Y92621D01*
X52967Y92687D01*
X52908Y92767D01*
X52901Y92774D01*
X52886Y92804D01*
X52865Y92855D01*
X52843Y92913D01*
X52821Y92986D01*
X52799Y93073D01*
X52785Y93161D01*
X52777Y93263D01*
Y93278D01*
Y93307D01*
X52785Y93350D01*
X52792Y93416D01*
X52806Y93482D01*
X52821Y93562D01*
X52850Y93635D01*
X52886Y93715D01*
X52894Y93722D01*
X52908Y93751D01*
X52930Y93788D01*
X52967Y93839D01*
X53010Y93890D01*
X53061Y93955D01*
X53120Y94014D01*
X53193Y94065D01*
X53200Y94072D01*
X53222Y94079D01*
X53251Y94101D01*
X53295Y94123D01*
X53353Y94152D01*
X53419Y94181D01*
X53499Y94211D01*
X53586Y94240D01*
X53601Y94247D01*
X53630Y94254D01*
X53681Y94269D01*
X53747Y94283D01*
X53827Y94298D01*
X53914Y94305D01*
X54017Y94320D01*
X54191D01*
X54272Y94313D01*
D02*
G37*
G36*
X46398Y95618D02*
X46464D01*
X46617Y95610D01*
X46777Y95588D01*
X46952Y95566D01*
X47113Y95530D01*
X47193Y95508D01*
X47259Y95486D01*
X47266D01*
X47273Y95479D01*
X47317Y95457D01*
X47383Y95428D01*
X47463Y95377D01*
X47550Y95311D01*
X47645Y95224D01*
X47732Y95122D01*
X47820Y95005D01*
Y94998D01*
X47827Y94991D01*
X47856Y94947D01*
X47886Y94874D01*
X47929Y94779D01*
X47966Y94670D01*
X48002Y94539D01*
X48024Y94400D01*
X48031Y94247D01*
Y94240D01*
Y94225D01*
Y94196D01*
X48024Y94160D01*
Y94109D01*
X48017Y94058D01*
X47988Y93934D01*
X47944Y93788D01*
X47886Y93635D01*
X47798Y93482D01*
X47740Y93409D01*
X47681Y93336D01*
X47674Y93328D01*
X47667Y93321D01*
X47645Y93299D01*
X47616Y93278D01*
X47579Y93248D01*
X47536Y93219D01*
X47477Y93183D01*
X47419Y93139D01*
X47346Y93103D01*
X47266Y93066D01*
X47178Y93022D01*
X47084Y92986D01*
X46974Y92957D01*
X46865Y92920D01*
X46741Y92898D01*
X46610Y92876D01*
X46624Y92869D01*
X46654Y92855D01*
X46697Y92826D01*
X46756Y92796D01*
X46887Y92716D01*
X46952Y92665D01*
X47011Y92621D01*
X47025Y92607D01*
X47062Y92570D01*
X47120Y92512D01*
X47193Y92439D01*
X47273Y92337D01*
X47368Y92228D01*
X47463Y92097D01*
X47565Y91951D01*
X48432Y90580D01*
X47601D01*
X46938Y91630D01*
Y91637D01*
X46923Y91652D01*
X46909Y91674D01*
X46887Y91703D01*
X46836Y91783D01*
X46770Y91885D01*
X46690Y91994D01*
X46610Y92111D01*
X46530Y92220D01*
X46457Y92322D01*
X46449Y92330D01*
X46428Y92359D01*
X46391Y92403D01*
X46340Y92454D01*
X46231Y92563D01*
X46172Y92614D01*
X46114Y92658D01*
X46107Y92665D01*
X46092Y92672D01*
X46063Y92687D01*
X46019Y92709D01*
X45976Y92731D01*
X45925Y92753D01*
X45808Y92789D01*
X45801D01*
X45786Y92796D01*
X45757D01*
X45720Y92804D01*
X45669Y92811D01*
X45611D01*
X45531Y92818D01*
X44671D01*
Y90580D01*
X44000D01*
Y95625D01*
X46340D01*
X46398Y95618D01*
D02*
G37*
G36*
X61095Y94240D02*
X61722D01*
Y93759D01*
X61095D01*
Y91608D01*
Y91593D01*
Y91564D01*
Y91521D01*
X61102Y91470D01*
X61110Y91353D01*
X61117Y91302D01*
X61124Y91265D01*
X61132Y91251D01*
X61153Y91222D01*
X61182Y91185D01*
X61234Y91149D01*
X61248Y91141D01*
X61285Y91127D01*
X61350Y91112D01*
X61445Y91105D01*
X61518D01*
X61554Y91112D01*
X61605D01*
X61664Y91120D01*
X61722Y91127D01*
X61802Y90580D01*
X61788D01*
X61758Y90573D01*
X61707Y90566D01*
X61642Y90558D01*
X61569Y90544D01*
X61489Y90536D01*
X61328Y90529D01*
X61270D01*
X61212Y90536D01*
X61139Y90544D01*
X61051Y90551D01*
X60964Y90573D01*
X60884Y90595D01*
X60803Y90631D01*
X60796Y90639D01*
X60774Y90653D01*
X60745Y90675D01*
X60701Y90711D01*
X60665Y90748D01*
X60621Y90799D01*
X60577Y90850D01*
X60548Y90916D01*
Y90923D01*
X60534Y90952D01*
X60526Y91003D01*
X60512Y91076D01*
X60497Y91171D01*
X60490Y91229D01*
Y91295D01*
X60483Y91375D01*
X60475Y91455D01*
Y91543D01*
Y91645D01*
Y93759D01*
X60016D01*
Y94240D01*
X60475D01*
Y95144D01*
X61095Y95516D01*
Y94240D01*
D02*
G37*
G36*
X58070Y94313D02*
X58128Y94305D01*
X58201Y94291D01*
X58281Y94276D01*
X58376Y94254D01*
X58463Y94232D01*
X58565Y94196D01*
X58660Y94160D01*
X58762Y94109D01*
X58864Y94050D01*
X58966Y93985D01*
X59061Y93904D01*
X59149Y93817D01*
X59156Y93810D01*
X59171Y93795D01*
X59192Y93766D01*
X59222Y93722D01*
X59258Y93671D01*
X59294Y93613D01*
X59338Y93540D01*
X59382Y93452D01*
X59426Y93358D01*
X59469Y93256D01*
X59506Y93139D01*
X59542Y93015D01*
X59571Y92876D01*
X59593Y92731D01*
X59608Y92578D01*
X59615Y92410D01*
Y92403D01*
Y92374D01*
Y92322D01*
X59608Y92250D01*
X56874D01*
Y92242D01*
Y92220D01*
X56881Y92191D01*
Y92147D01*
X56889Y92097D01*
X56903Y92038D01*
X56925Y91907D01*
X56969Y91761D01*
X57027Y91601D01*
X57107Y91455D01*
X57209Y91324D01*
X57217D01*
X57224Y91309D01*
X57268Y91273D01*
X57333Y91222D01*
X57421Y91171D01*
X57538Y91112D01*
X57669Y91061D01*
X57815Y91025D01*
X57895Y91018D01*
X57982Y91010D01*
X58040D01*
X58106Y91018D01*
X58186Y91032D01*
X58274Y91054D01*
X58376Y91083D01*
X58471Y91127D01*
X58565Y91185D01*
X58573Y91193D01*
X58609Y91222D01*
X58653Y91265D01*
X58704Y91324D01*
X58762Y91404D01*
X58828Y91506D01*
X58894Y91623D01*
X58952Y91761D01*
X59593Y91681D01*
Y91674D01*
X59586Y91659D01*
X59579Y91630D01*
X59564Y91586D01*
X59542Y91543D01*
X59520Y91484D01*
X59462Y91360D01*
X59389Y91222D01*
X59287Y91076D01*
X59171Y90937D01*
X59025Y90806D01*
X59017D01*
X59003Y90792D01*
X58981Y90777D01*
X58952Y90755D01*
X58908Y90733D01*
X58864Y90711D01*
X58806Y90682D01*
X58740Y90653D01*
X58667Y90624D01*
X58595Y90595D01*
X58412Y90551D01*
X58208Y90515D01*
X57982Y90500D01*
X57902D01*
X57851Y90507D01*
X57785Y90515D01*
X57705Y90529D01*
X57618Y90544D01*
X57523Y90558D01*
X57319Y90617D01*
X57209Y90660D01*
X57107Y90704D01*
X56998Y90762D01*
X56896Y90828D01*
X56801Y90901D01*
X56707Y90988D01*
X56699Y90996D01*
X56685Y91010D01*
X56663Y91040D01*
X56634Y91083D01*
X56597Y91134D01*
X56561Y91193D01*
X56517Y91265D01*
X56473Y91346D01*
X56429Y91440D01*
X56386Y91543D01*
X56349Y91659D01*
X56313Y91783D01*
X56284Y91914D01*
X56262Y92060D01*
X56247Y92213D01*
X56240Y92374D01*
Y92381D01*
Y92417D01*
Y92461D01*
X56247Y92527D01*
X56255Y92607D01*
X56262Y92694D01*
X56276Y92796D01*
X56298Y92898D01*
X56357Y93132D01*
X56393Y93248D01*
X56437Y93372D01*
X56495Y93489D01*
X56561Y93598D01*
X56634Y93708D01*
X56714Y93810D01*
X56721Y93817D01*
X56736Y93831D01*
X56765Y93853D01*
X56801Y93890D01*
X56845Y93926D01*
X56903Y93970D01*
X56969Y94021D01*
X57049Y94065D01*
X57129Y94116D01*
X57224Y94160D01*
X57326Y94203D01*
X57436Y94240D01*
X57552Y94276D01*
X57676Y94298D01*
X57807Y94313D01*
X57946Y94320D01*
X58019D01*
X58070Y94313D01*
D02*
G37*
G36*
X50619D02*
X50678Y94305D01*
X50750Y94291D01*
X50831Y94276D01*
X50925Y94254D01*
X51013Y94232D01*
X51115Y94196D01*
X51210Y94160D01*
X51312Y94109D01*
X51414Y94050D01*
X51516Y93985D01*
X51611Y93904D01*
X51698Y93817D01*
X51705Y93810D01*
X51720Y93795D01*
X51742Y93766D01*
X51771Y93722D01*
X51808Y93671D01*
X51844Y93613D01*
X51888Y93540D01*
X51932Y93452D01*
X51975Y93358D01*
X52019Y93256D01*
X52055Y93139D01*
X52092Y93015D01*
X52121Y92876D01*
X52143Y92731D01*
X52157Y92578D01*
X52165Y92410D01*
Y92403D01*
Y92374D01*
Y92322D01*
X52157Y92250D01*
X49424D01*
Y92242D01*
Y92220D01*
X49431Y92191D01*
Y92147D01*
X49438Y92097D01*
X49453Y92038D01*
X49475Y91907D01*
X49518Y91761D01*
X49577Y91601D01*
X49657Y91455D01*
X49759Y91324D01*
X49766D01*
X49774Y91309D01*
X49817Y91273D01*
X49883Y91222D01*
X49970Y91171D01*
X50087Y91112D01*
X50218Y91061D01*
X50364Y91025D01*
X50444Y91018D01*
X50532Y91010D01*
X50590D01*
X50656Y91018D01*
X50736Y91032D01*
X50823Y91054D01*
X50925Y91083D01*
X51020Y91127D01*
X51115Y91185D01*
X51122Y91193D01*
X51159Y91222D01*
X51202Y91265D01*
X51253Y91324D01*
X51312Y91404D01*
X51377Y91506D01*
X51443Y91623D01*
X51501Y91761D01*
X52143Y91681D01*
Y91674D01*
X52136Y91659D01*
X52128Y91630D01*
X52114Y91586D01*
X52092Y91543D01*
X52070Y91484D01*
X52012Y91360D01*
X51939Y91222D01*
X51837Y91076D01*
X51720Y90937D01*
X51574Y90806D01*
X51567D01*
X51552Y90792D01*
X51531Y90777D01*
X51501Y90755D01*
X51458Y90733D01*
X51414Y90711D01*
X51356Y90682D01*
X51290Y90653D01*
X51217Y90624D01*
X51144Y90595D01*
X50962Y90551D01*
X50758Y90515D01*
X50532Y90500D01*
X50452D01*
X50401Y90507D01*
X50335Y90515D01*
X50255Y90529D01*
X50167Y90544D01*
X50073Y90558D01*
X49869Y90617D01*
X49759Y90660D01*
X49657Y90704D01*
X49548Y90762D01*
X49446Y90828D01*
X49351Y90901D01*
X49256Y90988D01*
X49249Y90996D01*
X49234Y91010D01*
X49212Y91040D01*
X49183Y91083D01*
X49147Y91134D01*
X49110Y91193D01*
X49067Y91265D01*
X49023Y91346D01*
X48979Y91440D01*
X48935Y91543D01*
X48899Y91659D01*
X48862Y91783D01*
X48833Y91914D01*
X48811Y92060D01*
X48797Y92213D01*
X48790Y92374D01*
Y92381D01*
Y92417D01*
Y92461D01*
X48797Y92527D01*
X48804Y92607D01*
X48811Y92694D01*
X48826Y92796D01*
X48848Y92898D01*
X48906Y93132D01*
X48943Y93248D01*
X48986Y93372D01*
X49045Y93489D01*
X49110Y93598D01*
X49183Y93708D01*
X49263Y93810D01*
X49271Y93817D01*
X49285Y93831D01*
X49314Y93853D01*
X49351Y93890D01*
X49395Y93926D01*
X49453Y93970D01*
X49518Y94021D01*
X49599Y94065D01*
X49679Y94116D01*
X49774Y94160D01*
X49876Y94203D01*
X49985Y94240D01*
X50102Y94276D01*
X50226Y94298D01*
X50357Y94313D01*
X50495Y94320D01*
X50568D01*
X50619Y94313D01*
D02*
G37*
G36*
X93861Y136147D02*
X93912D01*
X93970Y136140D01*
X94109Y136110D01*
X94262Y136074D01*
X94422Y136015D01*
X94582Y135928D01*
X94663Y135877D01*
X94736Y135819D01*
X94743Y135811D01*
X94750Y135804D01*
X94772Y135782D01*
X94794Y135760D01*
X94830Y135724D01*
X94859Y135680D01*
X94940Y135578D01*
X95020Y135447D01*
X95093Y135286D01*
X95158Y135104D01*
X95202Y134900D01*
X94582Y134849D01*
Y134856D01*
X94575Y134864D01*
X94568Y134907D01*
X94546Y134973D01*
X94517Y135053D01*
X94488Y135141D01*
X94444Y135228D01*
X94393Y135308D01*
X94342Y135374D01*
X94327Y135389D01*
X94298Y135418D01*
X94247Y135461D01*
X94174Y135512D01*
X94080Y135556D01*
X93977Y135600D01*
X93853Y135629D01*
X93722Y135644D01*
X93671D01*
X93613Y135636D01*
X93547Y135622D01*
X93460Y135600D01*
X93372Y135571D01*
X93285Y135534D01*
X93197Y135476D01*
X93183Y135469D01*
X93146Y135440D01*
X93095Y135389D01*
X93030Y135316D01*
X92957Y135228D01*
X92877Y135126D01*
X92804Y134995D01*
X92731Y134849D01*
Y134842D01*
X92724Y134827D01*
X92716Y134805D01*
X92702Y134776D01*
X92694Y134732D01*
X92680Y134681D01*
X92665Y134623D01*
X92651Y134550D01*
X92629Y134470D01*
X92614Y134383D01*
X92600Y134288D01*
X92592Y134186D01*
X92578Y134069D01*
X92571Y133952D01*
X92563Y133821D01*
Y133690D01*
X92571Y133697D01*
X92600Y133741D01*
X92651Y133799D01*
X92716Y133872D01*
X92789Y133960D01*
X92884Y134040D01*
X92986Y134120D01*
X93103Y134193D01*
X93110D01*
X93117Y134200D01*
X93161Y134222D01*
X93227Y134244D01*
X93314Y134281D01*
X93416Y134310D01*
X93533Y134332D01*
X93657Y134353D01*
X93788Y134361D01*
X93846D01*
X93890Y134353D01*
X93948Y134346D01*
X94007Y134339D01*
X94080Y134324D01*
X94152Y134302D01*
X94320Y134251D01*
X94407Y134215D01*
X94495Y134164D01*
X94582Y134113D01*
X94677Y134055D01*
X94765Y133982D01*
X94845Y133901D01*
X94852Y133894D01*
X94867Y133879D01*
X94889Y133858D01*
X94911Y133821D01*
X94947Y133770D01*
X94984Y133719D01*
X95020Y133654D01*
X95064Y133581D01*
X95107Y133501D01*
X95144Y133413D01*
X95180Y133311D01*
X95217Y133209D01*
X95239Y133099D01*
X95261Y132976D01*
X95275Y132852D01*
X95282Y132720D01*
Y132713D01*
Y132699D01*
Y132677D01*
Y132640D01*
X95275Y132597D01*
Y132553D01*
X95253Y132436D01*
X95231Y132298D01*
X95195Y132152D01*
X95144Y131991D01*
X95071Y131838D01*
Y131831D01*
X95064Y131824D01*
X95049Y131802D01*
X95034Y131773D01*
X94991Y131700D01*
X94925Y131605D01*
X94845Y131503D01*
X94750Y131401D01*
X94634Y131299D01*
X94510Y131211D01*
X94502D01*
X94495Y131204D01*
X94473Y131190D01*
X94444Y131182D01*
X94371Y131146D01*
X94276Y131109D01*
X94152Y131066D01*
X94014Y131036D01*
X93861Y131007D01*
X93693Y131000D01*
X93657D01*
X93620Y131007D01*
X93562D01*
X93496Y131015D01*
X93423Y131029D01*
X93336Y131051D01*
X93248Y131073D01*
X93146Y131102D01*
X93044Y131139D01*
X92942Y131182D01*
X92833Y131241D01*
X92731Y131306D01*
X92629Y131379D01*
X92527Y131467D01*
X92432Y131569D01*
X92425Y131576D01*
X92410Y131598D01*
X92388Y131627D01*
X92359Y131678D01*
X92315Y131744D01*
X92279Y131816D01*
X92235Y131911D01*
X92191Y132013D01*
X92140Y132137D01*
X92097Y132276D01*
X92060Y132429D01*
X92024Y132597D01*
X91987Y132786D01*
X91965Y132990D01*
X91951Y133209D01*
X91944Y133442D01*
Y133449D01*
Y133457D01*
Y133479D01*
Y133508D01*
X91951Y133581D01*
Y133683D01*
X91958Y133799D01*
X91973Y133938D01*
X91987Y134091D01*
X92009Y134259D01*
X92038Y134426D01*
X92075Y134608D01*
X92119Y134783D01*
X92169Y134959D01*
X92235Y135126D01*
X92308Y135286D01*
X92388Y135440D01*
X92483Y135571D01*
X92490Y135578D01*
X92505Y135593D01*
X92534Y135622D01*
X92571Y135666D01*
X92614Y135709D01*
X92672Y135753D01*
X92745Y135811D01*
X92818Y135862D01*
X92906Y135914D01*
X93001Y135972D01*
X93110Y136015D01*
X93219Y136067D01*
X93343Y136103D01*
X93474Y136132D01*
X93613Y136147D01*
X93759Y136154D01*
X93817D01*
X93861Y136147D01*
D02*
G37*
G36*
X97739Y132604D02*
X95822D01*
Y133223D01*
X97739D01*
Y132604D01*
D02*
G37*
G36*
X100575Y131088D02*
X99955D01*
Y135031D01*
X99948Y135024D01*
X99911Y134995D01*
X99868Y134951D01*
X99795Y134900D01*
X99715Y134835D01*
X99613Y134762D01*
X99496Y134681D01*
X99365Y134601D01*
X99357D01*
X99350Y134594D01*
X99306Y134565D01*
X99234Y134528D01*
X99146Y134485D01*
X99044Y134434D01*
X98935Y134383D01*
X98825Y134332D01*
X98716Y134288D01*
Y134886D01*
X98723D01*
X98738Y134900D01*
X98767Y134907D01*
X98803Y134929D01*
X98847Y134951D01*
X98898Y134980D01*
X99022Y135053D01*
X99168Y135133D01*
X99314Y135236D01*
X99467Y135352D01*
X99620Y135476D01*
X99627Y135483D01*
X99634Y135491D01*
X99656Y135512D01*
X99686Y135534D01*
X99751Y135607D01*
X99839Y135695D01*
X99926Y135797D01*
X100021Y135914D01*
X100101Y136030D01*
X100174Y136154D01*
X100575D01*
Y131088D01*
D02*
G37*
G36*
X87607Y157212D02*
X87658D01*
X87796Y157198D01*
X87949Y157176D01*
X88110Y157140D01*
X88285Y157096D01*
X88445Y157037D01*
X88452D01*
X88467Y157030D01*
X88489Y157016D01*
X88518Y157001D01*
X88591Y156965D01*
X88686Y156899D01*
X88795Y156826D01*
X88904Y156731D01*
X89007Y156622D01*
X89101Y156498D01*
Y156491D01*
X89109Y156483D01*
X89123Y156462D01*
X89138Y156440D01*
X89174Y156367D01*
X89218Y156272D01*
X89269Y156155D01*
X89305Y156017D01*
X89342Y155871D01*
X89356Y155711D01*
X88715Y155660D01*
Y155667D01*
Y155681D01*
X88708Y155703D01*
X88700Y155740D01*
X88678Y155820D01*
X88649Y155929D01*
X88605Y156046D01*
X88540Y156163D01*
X88460Y156272D01*
X88358Y156374D01*
X88343Y156381D01*
X88307Y156410D01*
X88234Y156454D01*
X88139Y156498D01*
X88015Y156542D01*
X87869Y156585D01*
X87687Y156615D01*
X87483Y156622D01*
X87381D01*
X87337Y156615D01*
X87279Y156607D01*
X87147Y156593D01*
X87002Y156563D01*
X86856Y156527D01*
X86717Y156469D01*
X86659Y156432D01*
X86601Y156396D01*
X86586Y156389D01*
X86557Y156359D01*
X86513Y156308D01*
X86470Y156250D01*
X86418Y156170D01*
X86375Y156082D01*
X86346Y155980D01*
X86331Y155864D01*
Y155849D01*
Y155820D01*
X86338Y155769D01*
X86353Y155711D01*
X86375Y155638D01*
X86411Y155565D01*
X86455Y155492D01*
X86521Y155419D01*
X86528Y155412D01*
X86564Y155390D01*
X86594Y155368D01*
X86623Y155353D01*
X86666Y155332D01*
X86717Y155302D01*
X86783Y155280D01*
X86856Y155251D01*
X86936Y155222D01*
X87031Y155186D01*
X87133Y155157D01*
X87250Y155120D01*
X87381Y155091D01*
X87527Y155054D01*
X87534D01*
X87563Y155047D01*
X87607Y155040D01*
X87658Y155025D01*
X87723Y155011D01*
X87804Y154989D01*
X87884Y154967D01*
X87971Y154945D01*
X88161Y154894D01*
X88343Y154843D01*
X88431Y154814D01*
X88511Y154785D01*
X88584Y154763D01*
X88642Y154734D01*
X88649D01*
X88664Y154727D01*
X88686Y154712D01*
X88715Y154697D01*
X88795Y154654D01*
X88890Y154595D01*
X88999Y154515D01*
X89109Y154428D01*
X89211Y154325D01*
X89298Y154216D01*
X89305Y154202D01*
X89334Y154165D01*
X89364Y154100D01*
X89407Y154012D01*
X89444Y153910D01*
X89480Y153786D01*
X89502Y153647D01*
X89509Y153502D01*
Y153495D01*
Y153487D01*
Y153465D01*
Y153436D01*
X89495Y153356D01*
X89480Y153254D01*
X89451Y153137D01*
X89415Y153013D01*
X89356Y152882D01*
X89276Y152744D01*
Y152736D01*
X89269Y152729D01*
X89232Y152685D01*
X89181Y152620D01*
X89109Y152547D01*
X89014Y152459D01*
X88897Y152365D01*
X88766Y152277D01*
X88613Y152197D01*
X88605D01*
X88591Y152190D01*
X88569Y152182D01*
X88540Y152168D01*
X88496Y152153D01*
X88445Y152131D01*
X88328Y152102D01*
X88190Y152066D01*
X88022Y152029D01*
X87840Y152007D01*
X87643Y152000D01*
X87527D01*
X87468Y152007D01*
X87403D01*
X87330Y152015D01*
X87242Y152022D01*
X87060Y152051D01*
X86870Y152080D01*
X86681Y152131D01*
X86499Y152197D01*
X86491D01*
X86477Y152204D01*
X86455Y152219D01*
X86426Y152233D01*
X86338Y152277D01*
X86236Y152343D01*
X86120Y152430D01*
X85996Y152532D01*
X85879Y152656D01*
X85770Y152795D01*
Y152802D01*
X85755Y152816D01*
X85748Y152838D01*
X85726Y152867D01*
X85711Y152904D01*
X85690Y152948D01*
X85638Y153057D01*
X85588Y153196D01*
X85544Y153349D01*
X85515Y153524D01*
X85500Y153706D01*
X86127Y153764D01*
Y153757D01*
Y153750D01*
X86134Y153728D01*
Y153699D01*
X86149Y153633D01*
X86171Y153538D01*
X86200Y153443D01*
X86229Y153334D01*
X86280Y153232D01*
X86331Y153137D01*
X86338Y153130D01*
X86360Y153101D01*
X86397Y153050D01*
X86455Y152999D01*
X86528Y152933D01*
X86608Y152867D01*
X86717Y152802D01*
X86834Y152744D01*
X86841D01*
X86849Y152736D01*
X86870Y152729D01*
X86892Y152722D01*
X86965Y152700D01*
X87060Y152671D01*
X87177Y152641D01*
X87308Y152620D01*
X87454Y152605D01*
X87614Y152598D01*
X87680D01*
X87753Y152605D01*
X87840Y152612D01*
X87942Y152627D01*
X88059Y152641D01*
X88175Y152671D01*
X88285Y152707D01*
X88299Y152714D01*
X88336Y152729D01*
X88387Y152758D01*
X88452Y152787D01*
X88518Y152838D01*
X88591Y152889D01*
X88664Y152948D01*
X88722Y153021D01*
X88730Y153028D01*
X88744Y153057D01*
X88766Y153094D01*
X88795Y153152D01*
X88824Y153210D01*
X88846Y153283D01*
X88861Y153363D01*
X88868Y153451D01*
Y153458D01*
Y153495D01*
X88861Y153538D01*
X88853Y153596D01*
X88832Y153655D01*
X88810Y153728D01*
X88773Y153801D01*
X88722Y153866D01*
X88715Y153874D01*
X88693Y153895D01*
X88664Y153925D01*
X88613Y153968D01*
X88555Y154012D01*
X88474Y154063D01*
X88380Y154114D01*
X88270Y154158D01*
X88263Y154165D01*
X88226Y154172D01*
X88168Y154194D01*
X88132Y154202D01*
X88081Y154216D01*
X88030Y154238D01*
X87964Y154253D01*
X87891Y154274D01*
X87804Y154296D01*
X87716Y154318D01*
X87614Y154347D01*
X87498Y154376D01*
X87374Y154406D01*
X87366D01*
X87344Y154413D01*
X87308Y154420D01*
X87264Y154435D01*
X87206Y154449D01*
X87140Y154464D01*
X86994Y154508D01*
X86834Y154559D01*
X86666Y154610D01*
X86521Y154661D01*
X86455Y154690D01*
X86397Y154719D01*
X86389D01*
X86382Y154727D01*
X86338Y154756D01*
X86273Y154792D01*
X86200Y154850D01*
X86112Y154916D01*
X86025Y154996D01*
X85937Y155091D01*
X85865Y155193D01*
X85857Y155208D01*
X85835Y155244D01*
X85806Y155302D01*
X85777Y155375D01*
X85748Y155470D01*
X85719Y155579D01*
X85697Y155696D01*
X85690Y155820D01*
Y155827D01*
Y155834D01*
Y155856D01*
Y155886D01*
X85704Y155958D01*
X85719Y156053D01*
X85741Y156163D01*
X85777Y156287D01*
X85828Y156410D01*
X85901Y156534D01*
Y156542D01*
X85908Y156549D01*
X85945Y156593D01*
X85996Y156651D01*
X86061Y156724D01*
X86149Y156804D01*
X86258Y156892D01*
X86389Y156972D01*
X86535Y157045D01*
X86542D01*
X86557Y157052D01*
X86579Y157059D01*
X86608Y157074D01*
X86645Y157088D01*
X86696Y157103D01*
X86805Y157132D01*
X86943Y157161D01*
X87104Y157191D01*
X87271Y157212D01*
X87461Y157220D01*
X87556D01*
X87607Y157212D01*
D02*
G37*
G36*
X100321Y155820D02*
X100430Y155813D01*
X100547Y155798D01*
X100671Y155769D01*
X100802Y155740D01*
X100926Y155696D01*
X100933D01*
X100940Y155689D01*
X100977Y155674D01*
X101035Y155645D01*
X101108Y155608D01*
X101188Y155558D01*
X101268Y155499D01*
X101341Y155434D01*
X101407Y155361D01*
X101414Y155353D01*
X101429Y155324D01*
X101458Y155273D01*
X101494Y155215D01*
X101531Y155127D01*
X101567Y155033D01*
X101596Y154923D01*
X101626Y154799D01*
X101020Y154719D01*
Y154734D01*
X101013Y154763D01*
X100998Y154814D01*
X100977Y154879D01*
X100940Y154945D01*
X100897Y155018D01*
X100846Y155091D01*
X100773Y155157D01*
X100765Y155164D01*
X100736Y155178D01*
X100692Y155208D01*
X100627Y155237D01*
X100554Y155266D01*
X100459Y155295D01*
X100342Y155310D01*
X100218Y155317D01*
X100146D01*
X100073Y155310D01*
X99978Y155302D01*
X99883Y155280D01*
X99781Y155259D01*
X99686Y155222D01*
X99606Y155171D01*
X99599Y155164D01*
X99577Y155149D01*
X99548Y155120D01*
X99519Y155076D01*
X99482Y155033D01*
X99453Y154974D01*
X99431Y154909D01*
X99424Y154843D01*
Y154836D01*
Y154821D01*
X99431Y154799D01*
Y154770D01*
X99453Y154697D01*
X99497Y154624D01*
X99504Y154617D01*
X99511Y154610D01*
X99526Y154588D01*
X99555Y154566D01*
X99584Y154544D01*
X99628Y154515D01*
X99679Y154493D01*
X99737Y154464D01*
X99745D01*
X99759Y154457D01*
X99788Y154449D01*
X99839Y154428D01*
X99912Y154406D01*
X100007Y154384D01*
X100065Y154362D01*
X100131Y154347D01*
X100204Y154325D01*
X100284Y154304D01*
X100291D01*
X100313Y154296D01*
X100350Y154289D01*
X100393Y154274D01*
X100444Y154260D01*
X100510Y154245D01*
X100649Y154202D01*
X100802Y154158D01*
X100955Y154107D01*
X101093Y154056D01*
X101152Y154034D01*
X101203Y154012D01*
X101217Y154005D01*
X101246Y153990D01*
X101290Y153968D01*
X101356Y153932D01*
X101421Y153888D01*
X101487Y153830D01*
X101553Y153764D01*
X101611Y153691D01*
X101618Y153684D01*
X101633Y153655D01*
X101662Y153611D01*
X101691Y153545D01*
X101713Y153465D01*
X101742Y153378D01*
X101757Y153276D01*
X101764Y153159D01*
Y153145D01*
Y153108D01*
X101757Y153050D01*
X101742Y152970D01*
X101720Y152882D01*
X101684Y152787D01*
X101640Y152678D01*
X101582Y152576D01*
X101575Y152561D01*
X101545Y152532D01*
X101509Y152481D01*
X101451Y152423D01*
X101370Y152357D01*
X101283Y152284D01*
X101181Y152219D01*
X101057Y152153D01*
X101050D01*
X101042Y152146D01*
X100998Y152131D01*
X100926Y152109D01*
X100831Y152080D01*
X100714Y152051D01*
X100583Y152029D01*
X100444Y152015D01*
X100284Y152007D01*
X100218D01*
X100168Y152015D01*
X100109D01*
X100036Y152022D01*
X99963Y152029D01*
X99883Y152044D01*
X99708Y152080D01*
X99526Y152131D01*
X99351Y152204D01*
X99271Y152248D01*
X99198Y152299D01*
X99191Y152306D01*
X99183Y152313D01*
X99140Y152357D01*
X99074Y152423D01*
X99001Y152525D01*
X98921Y152649D01*
X98841Y152795D01*
X98775Y152977D01*
X98724Y153181D01*
X99336Y153276D01*
Y153269D01*
Y153261D01*
X99351Y153217D01*
X99366Y153145D01*
X99395Y153064D01*
X99431Y152977D01*
X99475Y152882D01*
X99541Y152787D01*
X99621Y152707D01*
X99635Y152700D01*
X99664Y152678D01*
X99723Y152649D01*
X99796Y152612D01*
X99891Y152576D01*
X100000Y152547D01*
X100131Y152525D01*
X100284Y152518D01*
X100357D01*
X100430Y152525D01*
X100525Y152540D01*
X100627Y152561D01*
X100736Y152591D01*
X100831Y152627D01*
X100918Y152685D01*
X100926Y152693D01*
X100955Y152714D01*
X100984Y152751D01*
X101028Y152802D01*
X101064Y152860D01*
X101101Y152933D01*
X101122Y153006D01*
X101130Y153094D01*
Y153101D01*
Y153130D01*
X101122Y153166D01*
X101108Y153217D01*
X101086Y153269D01*
X101050Y153320D01*
X101006Y153378D01*
X100940Y153422D01*
X100933Y153429D01*
X100911Y153436D01*
X100875Y153458D01*
X100816Y153480D01*
X100729Y153509D01*
X100678Y153531D01*
X100619Y153545D01*
X100554Y153567D01*
X100481Y153589D01*
X100401Y153611D01*
X100306Y153633D01*
X100299D01*
X100277Y153640D01*
X100240Y153647D01*
X100197Y153662D01*
X100138Y153677D01*
X100073Y153699D01*
X99934Y153735D01*
X99774Y153786D01*
X99621Y153830D01*
X99475Y153881D01*
X99409Y153910D01*
X99358Y153932D01*
X99344Y153939D01*
X99314Y153954D01*
X99271Y153983D01*
X99212Y154019D01*
X99147Y154070D01*
X99081Y154129D01*
X99016Y154194D01*
X98957Y154274D01*
X98950Y154282D01*
X98936Y154311D01*
X98914Y154362D01*
X98892Y154420D01*
X98870Y154493D01*
X98848Y154581D01*
X98833Y154668D01*
X98826Y154770D01*
Y154785D01*
Y154814D01*
X98833Y154858D01*
X98841Y154923D01*
X98855Y154989D01*
X98870Y155069D01*
X98899Y155142D01*
X98936Y155222D01*
X98943Y155229D01*
X98957Y155259D01*
X98979Y155295D01*
X99016Y155346D01*
X99059Y155397D01*
X99110Y155463D01*
X99169Y155521D01*
X99242Y155572D01*
X99249Y155579D01*
X99271Y155587D01*
X99300Y155608D01*
X99344Y155630D01*
X99402Y155660D01*
X99468Y155689D01*
X99548Y155718D01*
X99635Y155747D01*
X99650Y155754D01*
X99679Y155762D01*
X99730Y155776D01*
X99796Y155791D01*
X99876Y155805D01*
X99963Y155813D01*
X100065Y155827D01*
X100240D01*
X100321Y155820D01*
D02*
G37*
G36*
X107027Y152087D02*
X106408D01*
Y157132D01*
X107027D01*
Y152087D01*
D02*
G37*
G36*
X95910D02*
X95239D01*
Y157132D01*
X95910D01*
Y152087D01*
D02*
G37*
G36*
X92608Y157125D02*
X92732Y157118D01*
X92863Y157110D01*
X92987Y157096D01*
X93096Y157081D01*
X93111D01*
X93162Y157067D01*
X93227Y157052D01*
X93315Y157030D01*
X93410Y156994D01*
X93512Y156950D01*
X93621Y156899D01*
X93716Y156841D01*
X93730Y156833D01*
X93760Y156811D01*
X93803Y156768D01*
X93862Y156717D01*
X93927Y156651D01*
X93993Y156563D01*
X94066Y156469D01*
X94124Y156359D01*
X94131Y156345D01*
X94146Y156308D01*
X94175Y156243D01*
X94204Y156155D01*
X94226Y156053D01*
X94255Y155937D01*
X94270Y155805D01*
X94277Y155667D01*
Y155660D01*
Y155638D01*
Y155608D01*
X94270Y155558D01*
X94263Y155507D01*
X94255Y155441D01*
X94241Y155368D01*
X94226Y155288D01*
X94175Y155120D01*
X94146Y155033D01*
X94102Y154938D01*
X94051Y154843D01*
X94000Y154756D01*
X93935Y154668D01*
X93862Y154581D01*
X93854Y154573D01*
X93840Y154559D01*
X93818Y154537D01*
X93781Y154515D01*
X93738Y154479D01*
X93679Y154442D01*
X93607Y154398D01*
X93526Y154362D01*
X93432Y154318D01*
X93322Y154274D01*
X93205Y154238D01*
X93067Y154209D01*
X92921Y154180D01*
X92761Y154158D01*
X92579Y154143D01*
X92389Y154136D01*
X91099D01*
Y152087D01*
X90428D01*
Y157132D01*
X92498D01*
X92608Y157125D01*
D02*
G37*
G36*
X104119Y155820D02*
X104177Y155813D01*
X104250Y155798D01*
X104330Y155783D01*
X104425Y155762D01*
X104512Y155740D01*
X104614Y155703D01*
X104709Y155667D01*
X104811Y155616D01*
X104913Y155558D01*
X105015Y155492D01*
X105110Y155412D01*
X105198Y155324D01*
X105205Y155317D01*
X105219Y155302D01*
X105241Y155273D01*
X105271Y155229D01*
X105307Y155178D01*
X105343Y155120D01*
X105387Y155047D01*
X105431Y154960D01*
X105475Y154865D01*
X105518Y154763D01*
X105555Y154646D01*
X105591Y154522D01*
X105620Y154384D01*
X105642Y154238D01*
X105657Y154085D01*
X105664Y153917D01*
Y153910D01*
Y153881D01*
Y153830D01*
X105657Y153757D01*
X102923D01*
Y153750D01*
Y153728D01*
X102930Y153699D01*
Y153655D01*
X102938Y153604D01*
X102952Y153545D01*
X102974Y153414D01*
X103018Y153269D01*
X103076Y153108D01*
X103156Y152962D01*
X103258Y152831D01*
X103266D01*
X103273Y152816D01*
X103317Y152780D01*
X103382Y152729D01*
X103470Y152678D01*
X103586Y152620D01*
X103718Y152569D01*
X103864Y152532D01*
X103944Y152525D01*
X104031Y152518D01*
X104089D01*
X104155Y152525D01*
X104235Y152540D01*
X104323Y152561D01*
X104425Y152591D01*
X104520Y152634D01*
X104614Y152693D01*
X104622Y152700D01*
X104658Y152729D01*
X104702Y152773D01*
X104753Y152831D01*
X104811Y152911D01*
X104877Y153013D01*
X104942Y153130D01*
X105001Y153269D01*
X105642Y153188D01*
Y153181D01*
X105635Y153166D01*
X105628Y153137D01*
X105613Y153094D01*
X105591Y153050D01*
X105569Y152991D01*
X105511Y152867D01*
X105438Y152729D01*
X105336Y152583D01*
X105219Y152445D01*
X105074Y152313D01*
X105066D01*
X105052Y152299D01*
X105030Y152284D01*
X105001Y152262D01*
X104957Y152241D01*
X104913Y152219D01*
X104855Y152190D01*
X104789Y152160D01*
X104716Y152131D01*
X104643Y152102D01*
X104461Y152058D01*
X104257Y152022D01*
X104031Y152007D01*
X103951D01*
X103900Y152015D01*
X103834Y152022D01*
X103754Y152036D01*
X103667Y152051D01*
X103572Y152066D01*
X103368Y152124D01*
X103258Y152168D01*
X103156Y152211D01*
X103047Y152270D01*
X102945Y152335D01*
X102850Y152408D01*
X102755Y152496D01*
X102748Y152503D01*
X102734Y152518D01*
X102712Y152547D01*
X102682Y152591D01*
X102646Y152641D01*
X102610Y152700D01*
X102566Y152773D01*
X102522Y152853D01*
X102478Y152948D01*
X102435Y153050D01*
X102398Y153166D01*
X102362Y153290D01*
X102333Y153422D01*
X102311Y153567D01*
X102296Y153720D01*
X102289Y153881D01*
Y153888D01*
Y153925D01*
Y153968D01*
X102296Y154034D01*
X102303Y154114D01*
X102311Y154202D01*
X102325Y154304D01*
X102347Y154406D01*
X102406Y154639D01*
X102442Y154756D01*
X102486Y154879D01*
X102544Y154996D01*
X102610Y155105D01*
X102682Y155215D01*
X102763Y155317D01*
X102770Y155324D01*
X102785Y155339D01*
X102814Y155361D01*
X102850Y155397D01*
X102894Y155434D01*
X102952Y155477D01*
X103018Y155528D01*
X103098Y155572D01*
X103178Y155623D01*
X103273Y155667D01*
X103375Y155711D01*
X103484Y155747D01*
X103601Y155783D01*
X103725Y155805D01*
X103856Y155820D01*
X103995Y155827D01*
X104068D01*
X104119Y155820D01*
D02*
G37*
G36*
X159413Y200454D02*
Y199754D01*
X154368Y197800D01*
Y198529D01*
X158035Y199841D01*
X158042D01*
X158057Y199849D01*
X158078Y199856D01*
X158108Y199871D01*
X158151Y199878D01*
X158195Y199892D01*
X158304Y199929D01*
X158428Y199973D01*
X158567Y200016D01*
X158859Y200104D01*
X158851D01*
X158837Y200111D01*
X158815Y200118D01*
X158786Y200126D01*
X158705Y200148D01*
X158596Y200184D01*
X158472Y200221D01*
X158334Y200264D01*
X158188Y200315D01*
X158035Y200374D01*
X154368Y201744D01*
Y202422D01*
X159413Y200454D01*
D02*
G37*
G36*
X157823Y197487D02*
X157882Y197479D01*
X157947Y197472D01*
X158027Y197458D01*
X158108Y197443D01*
X158297Y197399D01*
X158494Y197326D01*
X158596Y197283D01*
X158691Y197224D01*
X158793Y197166D01*
X158888Y197093D01*
X158895Y197086D01*
X158917Y197071D01*
X158946Y197042D01*
X158982Y197006D01*
X159026Y196955D01*
X159084Y196896D01*
X159135Y196823D01*
X159194Y196743D01*
X159252Y196656D01*
X159303Y196554D01*
X159354Y196444D01*
X159405Y196328D01*
X159442Y196204D01*
X159471Y196065D01*
X159493Y195920D01*
X159500Y195766D01*
Y195701D01*
X159493Y195650D01*
X159485Y195591D01*
X159478Y195526D01*
X159471Y195446D01*
X159449Y195365D01*
X159405Y195183D01*
X159340Y195001D01*
X159296Y194906D01*
X159245Y194811D01*
X159186Y194724D01*
X159121Y194636D01*
X159114Y194629D01*
X159106Y194615D01*
X159077Y194600D01*
X159048Y194571D01*
X159012Y194534D01*
X158968Y194498D01*
X158909Y194454D01*
X158844Y194418D01*
X158778Y194374D01*
X158698Y194330D01*
X158523Y194250D01*
X158319Y194184D01*
X158210Y194163D01*
X158093Y194148D01*
X158042Y194797D01*
X158049D01*
X158064D01*
X158086Y194804D01*
X158122Y194811D01*
X158202Y194833D01*
X158312Y194862D01*
X158421Y194906D01*
X158545Y194965D01*
X158654Y195037D01*
X158756Y195125D01*
X158764Y195139D01*
X158793Y195169D01*
X158829Y195227D01*
X158873Y195307D01*
X158917Y195395D01*
X158953Y195504D01*
X158982Y195628D01*
X158990Y195766D01*
Y195810D01*
X158982Y195839D01*
X158975Y195927D01*
X158946Y196029D01*
X158909Y196153D01*
X158851Y196277D01*
X158764Y196408D01*
X158713Y196466D01*
X158654Y196525D01*
X158647Y196532D01*
X158640Y196539D01*
X158618Y196554D01*
X158596Y196576D01*
X158516Y196627D01*
X158414Y196685D01*
X158290Y196736D01*
X158137Y196787D01*
X157955Y196823D01*
X157860Y196838D01*
X157758D01*
X157750D01*
X157736D01*
X157707D01*
X157670Y196831D01*
X157626D01*
X157575Y196823D01*
X157459Y196802D01*
X157320Y196765D01*
X157182Y196714D01*
X157051Y196641D01*
X156927Y196539D01*
X156919D01*
X156912Y196525D01*
X156876Y196488D01*
X156825Y196423D01*
X156766Y196335D01*
X156715Y196218D01*
X156664Y196087D01*
X156628Y195934D01*
X156613Y195847D01*
Y195708D01*
X156621Y195650D01*
X156628Y195577D01*
X156650Y195489D01*
X156672Y195402D01*
X156708Y195307D01*
X156752Y195212D01*
X156759Y195205D01*
X156773Y195176D01*
X156810Y195132D01*
X156846Y195074D01*
X156897Y195016D01*
X156963Y194957D01*
X157029Y194892D01*
X157109Y194841D01*
X157029Y194257D01*
X154433Y194746D01*
Y197254D01*
X155024D01*
Y195234D01*
X156387Y194965D01*
X156380Y194972D01*
X156373Y194986D01*
X156358Y195008D01*
X156336Y195045D01*
X156314Y195088D01*
X156285Y195139D01*
X156227Y195256D01*
X156168Y195402D01*
X156117Y195562D01*
X156081Y195737D01*
X156066Y195825D01*
Y195985D01*
X156074Y196029D01*
X156081Y196087D01*
X156088Y196153D01*
X156103Y196226D01*
X156125Y196306D01*
X156176Y196481D01*
X156212Y196576D01*
X156263Y196670D01*
X156314Y196765D01*
X156373Y196860D01*
X156446Y196947D01*
X156526Y197035D01*
X156533Y197042D01*
X156548Y197057D01*
X156569Y197079D01*
X156606Y197108D01*
X156657Y197144D01*
X156708Y197181D01*
X156773Y197224D01*
X156846Y197268D01*
X156927Y197305D01*
X157014Y197348D01*
X157116Y197385D01*
X157218Y197421D01*
X157328Y197450D01*
X157451Y197472D01*
X157575Y197487D01*
X157707Y197494D01*
X157714D01*
X157736D01*
X157772D01*
X157823Y197487D01*
D02*
G37*
G36*
X145035Y202419D02*
X145093Y202412D01*
X145159Y202397D01*
X145231Y202383D01*
X145312Y202368D01*
X145487Y202310D01*
X145581Y202266D01*
X145669Y202222D01*
X145764Y202164D01*
X145859Y202098D01*
X145953Y202026D01*
X146041Y201938D01*
X146048Y201931D01*
X146063Y201916D01*
X146084Y201887D01*
X146114Y201851D01*
X146150Y201807D01*
X146186Y201748D01*
X146230Y201683D01*
X146267Y201603D01*
X146310Y201522D01*
X146354Y201428D01*
X146391Y201333D01*
X146427Y201224D01*
X146456Y201107D01*
X146478Y200983D01*
X146493Y200859D01*
X146500Y200721D01*
Y200655D01*
X146493Y200611D01*
X146485Y200553D01*
X146478Y200487D01*
X146464Y200414D01*
X146449Y200334D01*
X146405Y200159D01*
X146332Y199977D01*
X146289Y199882D01*
X146238Y199795D01*
X146172Y199707D01*
X146106Y199620D01*
X146099Y199612D01*
X146084Y199598D01*
X146063Y199576D01*
X146033Y199554D01*
X145997Y199518D01*
X145946Y199481D01*
X145895Y199437D01*
X145829Y199394D01*
X145756Y199350D01*
X145684Y199306D01*
X145509Y199226D01*
X145304Y199161D01*
X145195Y199139D01*
X145078Y199124D01*
X144998Y199744D01*
X145006D01*
X145020Y199751D01*
X145049Y199758D01*
X145086Y199766D01*
X145130Y199773D01*
X145180Y199787D01*
X145290Y199824D01*
X145421Y199875D01*
X145545Y199941D01*
X145662Y200013D01*
X145764Y200101D01*
X145771Y200115D01*
X145800Y200145D01*
X145837Y200203D01*
X145873Y200276D01*
X145917Y200363D01*
X145953Y200473D01*
X145982Y200597D01*
X145990Y200728D01*
Y200772D01*
X145982Y200801D01*
X145975Y200881D01*
X145953Y200983D01*
X145917Y201100D01*
X145866Y201224D01*
X145793Y201347D01*
X145691Y201464D01*
X145676Y201479D01*
X145633Y201515D01*
X145567Y201559D01*
X145479Y201617D01*
X145370Y201676D01*
X145246Y201719D01*
X145100Y201756D01*
X144940Y201770D01*
X144933D01*
X144918D01*
X144896D01*
X144867Y201763D01*
X144787Y201756D01*
X144692Y201734D01*
X144575Y201705D01*
X144459Y201654D01*
X144342Y201581D01*
X144233Y201486D01*
X144218Y201471D01*
X144189Y201435D01*
X144145Y201377D01*
X144094Y201296D01*
X144043Y201194D01*
X144000Y201070D01*
X143970Y200932D01*
X143956Y200779D01*
Y200713D01*
X143963Y200662D01*
X143970Y200597D01*
X143985Y200524D01*
X144000Y200436D01*
X144021Y200342D01*
X143475Y200414D01*
Y200451D01*
X143482Y200480D01*
Y200575D01*
X143467Y200655D01*
X143453Y200750D01*
X143431Y200859D01*
X143394Y200983D01*
X143343Y201100D01*
X143278Y201224D01*
Y201231D01*
X143271Y201238D01*
X143241Y201275D01*
X143190Y201326D01*
X143125Y201384D01*
X143030Y201442D01*
X142921Y201493D01*
X142797Y201530D01*
X142724Y201544D01*
X142644D01*
X142636D01*
X142629D01*
X142585D01*
X142527Y201530D01*
X142447Y201515D01*
X142359Y201486D01*
X142264Y201450D01*
X142170Y201391D01*
X142082Y201311D01*
X142075Y201304D01*
X142046Y201267D01*
X142009Y201216D01*
X141966Y201151D01*
X141929Y201063D01*
X141893Y200961D01*
X141864Y200845D01*
X141856Y200713D01*
Y200655D01*
X141871Y200589D01*
X141885Y200502D01*
X141915Y200407D01*
X141951Y200312D01*
X142009Y200210D01*
X142082Y200115D01*
X142090Y200108D01*
X142126Y200079D01*
X142177Y200035D01*
X142250Y199984D01*
X142345Y199933D01*
X142461Y199882D01*
X142600Y199838D01*
X142760Y199809D01*
X142651Y199190D01*
X142644D01*
X142622Y199197D01*
X142593Y199204D01*
X142549Y199212D01*
X142498Y199226D01*
X142439Y199248D01*
X142301Y199292D01*
X142141Y199365D01*
X141980Y199452D01*
X141827Y199562D01*
X141689Y199700D01*
X141681Y199707D01*
X141674Y199722D01*
X141659Y199744D01*
X141638Y199773D01*
X141608Y199809D01*
X141579Y199860D01*
X141550Y199911D01*
X141514Y199977D01*
X141455Y200123D01*
X141397Y200290D01*
X141360Y200487D01*
X141346Y200589D01*
Y200772D01*
X141353Y200852D01*
X141368Y200947D01*
X141390Y201063D01*
X141426Y201194D01*
X141470Y201326D01*
X141528Y201457D01*
Y201464D01*
X141535Y201471D01*
X141557Y201515D01*
X141601Y201581D01*
X141652Y201654D01*
X141725Y201741D01*
X141805Y201829D01*
X141900Y201916D01*
X142009Y201989D01*
X142024Y201996D01*
X142060Y202018D01*
X142126Y202047D01*
X142206Y202084D01*
X142301Y202120D01*
X142410Y202149D01*
X142534Y202171D01*
X142658Y202179D01*
X142673D01*
X142717D01*
X142775Y202171D01*
X142855Y202157D01*
X142950Y202135D01*
X143052Y202098D01*
X143154Y202055D01*
X143256Y201996D01*
X143271Y201989D01*
X143300Y201967D01*
X143351Y201923D01*
X143409Y201865D01*
X143475Y201792D01*
X143548Y201705D01*
X143613Y201603D01*
X143679Y201479D01*
Y201486D01*
X143686Y201501D01*
X143693Y201522D01*
X143701Y201552D01*
X143730Y201632D01*
X143773Y201734D01*
X143832Y201851D01*
X143905Y201967D01*
X144000Y202077D01*
X144109Y202179D01*
X144123Y202186D01*
X144167Y202215D01*
X144240Y202259D01*
X144335Y202303D01*
X144451Y202346D01*
X144590Y202390D01*
X144750Y202419D01*
X144925Y202426D01*
X144933D01*
X144955D01*
X144991D01*
X145035Y202419D01*
D02*
G37*
G36*
X146413Y196799D02*
Y196099D01*
X141368Y194145D01*
Y194874D01*
X145035Y196186D01*
X145042D01*
X145057Y196194D01*
X145078Y196201D01*
X145108Y196215D01*
X145151Y196223D01*
X145195Y196237D01*
X145304Y196274D01*
X145428Y196317D01*
X145567Y196361D01*
X145859Y196449D01*
X145851D01*
X145837Y196456D01*
X145815Y196463D01*
X145786Y196470D01*
X145705Y196492D01*
X145596Y196529D01*
X145472Y196565D01*
X145334Y196609D01*
X145188Y196660D01*
X145035Y196718D01*
X141368Y198089D01*
Y198767D01*
X146413Y196799D01*
D02*
G37*
G36*
X145035Y193795D02*
X145093Y193788D01*
X145159Y193773D01*
X145231Y193759D01*
X145312Y193744D01*
X145487Y193686D01*
X145581Y193642D01*
X145669Y193598D01*
X145764Y193540D01*
X145859Y193474D01*
X145953Y193401D01*
X146041Y193314D01*
X146048Y193307D01*
X146063Y193292D01*
X146084Y193263D01*
X146114Y193227D01*
X146150Y193183D01*
X146186Y193124D01*
X146230Y193059D01*
X146267Y192979D01*
X146310Y192898D01*
X146354Y192804D01*
X146391Y192709D01*
X146427Y192599D01*
X146456Y192483D01*
X146478Y192359D01*
X146493Y192235D01*
X146500Y192096D01*
Y192031D01*
X146493Y191987D01*
X146485Y191929D01*
X146478Y191863D01*
X146464Y191790D01*
X146449Y191710D01*
X146405Y191535D01*
X146332Y191353D01*
X146289Y191258D01*
X146238Y191171D01*
X146172Y191083D01*
X146106Y190996D01*
X146099Y190988D01*
X146084Y190974D01*
X146063Y190952D01*
X146033Y190930D01*
X145997Y190894D01*
X145946Y190857D01*
X145895Y190814D01*
X145829Y190770D01*
X145756Y190726D01*
X145684Y190682D01*
X145509Y190602D01*
X145304Y190536D01*
X145195Y190515D01*
X145078Y190500D01*
X144998Y191120D01*
X145006D01*
X145020Y191127D01*
X145049Y191134D01*
X145086Y191141D01*
X145130Y191149D01*
X145180Y191163D01*
X145290Y191200D01*
X145421Y191251D01*
X145545Y191316D01*
X145662Y191389D01*
X145764Y191477D01*
X145771Y191491D01*
X145800Y191521D01*
X145837Y191579D01*
X145873Y191652D01*
X145917Y191739D01*
X145953Y191849D01*
X145982Y191973D01*
X145990Y192104D01*
Y192148D01*
X145982Y192177D01*
X145975Y192257D01*
X145953Y192359D01*
X145917Y192476D01*
X145866Y192599D01*
X145793Y192724D01*
X145691Y192840D01*
X145676Y192855D01*
X145633Y192891D01*
X145567Y192935D01*
X145479Y192993D01*
X145370Y193052D01*
X145246Y193095D01*
X145100Y193132D01*
X144940Y193146D01*
X144933D01*
X144918D01*
X144896D01*
X144867Y193139D01*
X144787Y193132D01*
X144692Y193110D01*
X144575Y193081D01*
X144459Y193030D01*
X144342Y192957D01*
X144233Y192862D01*
X144218Y192847D01*
X144189Y192811D01*
X144145Y192753D01*
X144094Y192672D01*
X144043Y192570D01*
X144000Y192446D01*
X143970Y192308D01*
X143956Y192155D01*
Y192089D01*
X143963Y192038D01*
X143970Y191973D01*
X143985Y191900D01*
X144000Y191812D01*
X144021Y191717D01*
X143475Y191790D01*
Y191827D01*
X143482Y191856D01*
Y191951D01*
X143467Y192031D01*
X143453Y192126D01*
X143431Y192235D01*
X143394Y192359D01*
X143343Y192476D01*
X143278Y192599D01*
Y192607D01*
X143271Y192614D01*
X143241Y192650D01*
X143190Y192702D01*
X143125Y192760D01*
X143030Y192818D01*
X142921Y192869D01*
X142797Y192906D01*
X142724Y192920D01*
X142644D01*
X142636D01*
X142629D01*
X142585D01*
X142527Y192906D01*
X142447Y192891D01*
X142359Y192862D01*
X142264Y192825D01*
X142170Y192767D01*
X142082Y192687D01*
X142075Y192680D01*
X142046Y192643D01*
X142009Y192592D01*
X141966Y192527D01*
X141929Y192439D01*
X141893Y192337D01*
X141864Y192220D01*
X141856Y192089D01*
Y192031D01*
X141871Y191965D01*
X141885Y191878D01*
X141915Y191783D01*
X141951Y191688D01*
X142009Y191586D01*
X142082Y191491D01*
X142090Y191484D01*
X142126Y191455D01*
X142177Y191411D01*
X142250Y191360D01*
X142345Y191309D01*
X142461Y191258D01*
X142600Y191214D01*
X142760Y191185D01*
X142651Y190566D01*
X142644D01*
X142622Y190573D01*
X142593Y190580D01*
X142549Y190587D01*
X142498Y190602D01*
X142439Y190624D01*
X142301Y190668D01*
X142141Y190741D01*
X141980Y190828D01*
X141827Y190937D01*
X141689Y191076D01*
X141681Y191083D01*
X141674Y191098D01*
X141659Y191120D01*
X141638Y191149D01*
X141608Y191185D01*
X141579Y191236D01*
X141550Y191287D01*
X141514Y191353D01*
X141455Y191499D01*
X141397Y191666D01*
X141360Y191863D01*
X141346Y191965D01*
Y192148D01*
X141353Y192228D01*
X141368Y192323D01*
X141390Y192439D01*
X141426Y192570D01*
X141470Y192702D01*
X141528Y192833D01*
Y192840D01*
X141535Y192847D01*
X141557Y192891D01*
X141601Y192957D01*
X141652Y193030D01*
X141725Y193117D01*
X141805Y193205D01*
X141900Y193292D01*
X142009Y193365D01*
X142024Y193372D01*
X142060Y193394D01*
X142126Y193423D01*
X142206Y193460D01*
X142301Y193496D01*
X142410Y193525D01*
X142534Y193547D01*
X142658Y193554D01*
X142673D01*
X142717D01*
X142775Y193547D01*
X142855Y193533D01*
X142950Y193511D01*
X143052Y193474D01*
X143154Y193431D01*
X143256Y193372D01*
X143271Y193365D01*
X143300Y193343D01*
X143351Y193299D01*
X143409Y193241D01*
X143475Y193168D01*
X143548Y193081D01*
X143613Y192979D01*
X143679Y192855D01*
Y192862D01*
X143686Y192877D01*
X143693Y192898D01*
X143701Y192928D01*
X143730Y193008D01*
X143773Y193110D01*
X143832Y193227D01*
X143905Y193343D01*
X144000Y193452D01*
X144109Y193554D01*
X144123Y193562D01*
X144167Y193591D01*
X144240Y193635D01*
X144335Y193678D01*
X144451Y193722D01*
X144590Y193766D01*
X144750Y193795D01*
X144925Y193802D01*
X144933D01*
X144955D01*
X144991D01*
X145035Y193795D01*
D02*
G37*
G36*
X280321Y20972D02*
X281706D01*
Y20389D01*
X280321D01*
Y19018D01*
X279745D01*
Y20389D01*
X278374D01*
Y20972D01*
X279745D01*
Y22343D01*
X280321D01*
Y20972D01*
D02*
G37*
G36*
X282522Y17736D02*
X279978Y15942D01*
X280773Y15118D01*
X282522D01*
Y14448D01*
X277478D01*
Y15118D01*
X279985D01*
X277478Y17612D01*
Y18523D01*
X279526Y16409D01*
X282522Y18618D01*
Y17736D01*
D02*
G37*
G36*
Y12997D02*
X281473Y12334D01*
X281465D01*
X281451Y12319D01*
X281429Y12304D01*
X281400Y12283D01*
X281319Y12232D01*
X281217Y12166D01*
X281108Y12086D01*
X280991Y12006D01*
X280882Y11925D01*
X280780Y11852D01*
X280773Y11845D01*
X280744Y11823D01*
X280700Y11787D01*
X280649Y11736D01*
X280539Y11626D01*
X280488Y11568D01*
X280445Y11510D01*
X280437Y11502D01*
X280430Y11488D01*
X280416Y11459D01*
X280394Y11415D01*
X280372Y11371D01*
X280350Y11320D01*
X280313Y11204D01*
Y11196D01*
X280306Y11182D01*
Y11153D01*
X280299Y11116D01*
X280292Y11065D01*
Y11007D01*
X280284Y10927D01*
Y10066D01*
X282522D01*
Y9396D01*
X277478D01*
Y11736D01*
X277485Y11794D01*
Y11860D01*
X277492Y12013D01*
X277514Y12173D01*
X277536Y12348D01*
X277572Y12509D01*
X277594Y12589D01*
X277616Y12654D01*
Y12662D01*
X277624Y12669D01*
X277645Y12713D01*
X277675Y12778D01*
X277726Y12858D01*
X277791Y12946D01*
X277879Y13041D01*
X277981Y13128D01*
X278097Y13216D01*
X278105D01*
X278112Y13223D01*
X278156Y13252D01*
X278228Y13281D01*
X278323Y13325D01*
X278433Y13362D01*
X278564Y13398D01*
X278702Y13420D01*
X278855Y13427D01*
X278863D01*
X278877D01*
X278906D01*
X278943Y13420D01*
X278994D01*
X279045Y13412D01*
X279169Y13383D01*
X279315Y13340D01*
X279468Y13281D01*
X279621Y13194D01*
X279694Y13136D01*
X279767Y13077D01*
X279774Y13070D01*
X279781Y13063D01*
X279803Y13041D01*
X279825Y13012D01*
X279854Y12975D01*
X279883Y12931D01*
X279920Y12873D01*
X279963Y12815D01*
X280000Y12742D01*
X280036Y12662D01*
X280080Y12574D01*
X280117Y12479D01*
X280146Y12370D01*
X280182Y12261D01*
X280204Y12137D01*
X280226Y12006D01*
X280233Y12020D01*
X280248Y12049D01*
X280277Y12093D01*
X280306Y12151D01*
X280386Y12283D01*
X280437Y12348D01*
X280481Y12406D01*
X280496Y12421D01*
X280532Y12457D01*
X280591Y12516D01*
X280663Y12589D01*
X280765Y12669D01*
X280875Y12764D01*
X281006Y12858D01*
X281152Y12961D01*
X282522Y13828D01*
Y12997D01*
D02*
G37*
G36*
X281188Y8463D02*
X281276Y8448D01*
X281378Y8433D01*
X281487Y8404D01*
X281604Y8368D01*
X281720Y8317D01*
X281735Y8309D01*
X281771Y8288D01*
X281822Y8258D01*
X281895Y8215D01*
X281968Y8156D01*
X282049Y8098D01*
X282129Y8025D01*
X282194Y7945D01*
X282202Y7938D01*
X282223Y7909D01*
X282253Y7858D01*
X282282Y7792D01*
X282326Y7712D01*
X282369Y7617D01*
X282406Y7515D01*
X282442Y7391D01*
Y7376D01*
X282457Y7333D01*
X282464Y7260D01*
X282479Y7165D01*
X282493Y7048D01*
X282508Y6910D01*
X282515Y6757D01*
X282522Y6582D01*
Y4657D01*
X277478D01*
Y6640D01*
X277485Y6691D01*
Y6750D01*
X277500Y6881D01*
X277514Y7027D01*
X277543Y7180D01*
X277580Y7333D01*
X277631Y7471D01*
Y7479D01*
X277638Y7486D01*
X277660Y7530D01*
X277696Y7595D01*
X277747Y7668D01*
X277813Y7756D01*
X277893Y7850D01*
X277995Y7938D01*
X278105Y8018D01*
X278119Y8025D01*
X278163Y8047D01*
X278221Y8083D01*
X278309Y8120D01*
X278411Y8156D01*
X278520Y8193D01*
X278644Y8215D01*
X278768Y8222D01*
X278783D01*
X278819D01*
X278885Y8215D01*
X278965Y8200D01*
X279060Y8178D01*
X279162Y8142D01*
X279264Y8098D01*
X279373Y8040D01*
X279388Y8032D01*
X279417Y8011D01*
X279475Y7967D01*
X279533Y7909D01*
X279606Y7836D01*
X279686Y7748D01*
X279759Y7639D01*
X279832Y7515D01*
Y7522D01*
X279840Y7537D01*
X279847Y7559D01*
X279861Y7588D01*
X279891Y7675D01*
X279942Y7777D01*
X280007Y7887D01*
X280087Y8011D01*
X280182Y8120D01*
X280299Y8222D01*
X280313Y8229D01*
X280357Y8258D01*
X280423Y8302D01*
X280510Y8346D01*
X280627Y8390D01*
X280751Y8433D01*
X280897Y8463D01*
X281057Y8470D01*
X281064D01*
X281072D01*
X281115D01*
X281188Y8463D01*
D02*
G37*
G36*
X377498Y145603D02*
Y143467D01*
X376828D01*
Y145603D01*
X374881Y148511D01*
X375690D01*
X376682Y146981D01*
Y146973D01*
X376696Y146959D01*
X376711Y146937D01*
X376726Y146908D01*
X376755Y146871D01*
X376784Y146827D01*
X376849Y146718D01*
X376930Y146587D01*
X377017Y146441D01*
X377112Y146288D01*
X377199Y146128D01*
Y146135D01*
X377207Y146150D01*
X377221Y146171D01*
X377243Y146201D01*
X377265Y146237D01*
X377294Y146281D01*
X377360Y146390D01*
X377440Y146521D01*
X377535Y146674D01*
X377644Y146842D01*
X377761Y147024D01*
X378730Y148511D01*
X379510D01*
X377498Y145603D01*
D02*
G37*
G36*
X381654Y148526D02*
X381712Y148519D01*
X381785Y148511D01*
X381865Y148497D01*
X381945Y148482D01*
X382135Y148431D01*
X382324Y148358D01*
X382419Y148315D01*
X382514Y148264D01*
X382601Y148198D01*
X382681Y148125D01*
X382689Y148118D01*
X382703Y148110D01*
X382718Y148081D01*
X382747Y148052D01*
X382784Y148016D01*
X382820Y147965D01*
X382856Y147914D01*
X382900Y147848D01*
X382973Y147710D01*
X383046Y147535D01*
X383075Y147447D01*
X383090Y147345D01*
X383104Y147243D01*
X383112Y147134D01*
Y147119D01*
Y147083D01*
X383104Y147024D01*
X383097Y146944D01*
X383082Y146857D01*
X383053Y146755D01*
X383024Y146645D01*
X382980Y146536D01*
X382973Y146521D01*
X382959Y146485D01*
X382929Y146426D01*
X382886Y146346D01*
X382827Y146259D01*
X382754Y146150D01*
X382667Y146040D01*
X382565Y145916D01*
X382550Y145902D01*
X382514Y145858D01*
X382477Y145821D01*
X382441Y145785D01*
X382397Y145741D01*
X382339Y145683D01*
X382280Y145625D01*
X382208Y145559D01*
X382135Y145486D01*
X382047Y145406D01*
X381952Y145326D01*
X381850Y145231D01*
X381734Y145136D01*
X381617Y145034D01*
X381610Y145027D01*
X381595Y145012D01*
X381566Y144990D01*
X381530Y144961D01*
X381486Y144917D01*
X381435Y144874D01*
X381318Y144779D01*
X381194Y144670D01*
X381078Y144560D01*
X380976Y144465D01*
X380932Y144429D01*
X380895Y144393D01*
X380888Y144385D01*
X380866Y144363D01*
X380837Y144334D01*
X380801Y144290D01*
X380764Y144239D01*
X380720Y144188D01*
X380633Y144064D01*
X383119D01*
Y143467D01*
X379773D01*
Y143474D01*
Y143503D01*
Y143547D01*
X379780Y143605D01*
X379787Y143671D01*
X379802Y143744D01*
X379817Y143817D01*
X379846Y143897D01*
Y143904D01*
X379853Y143911D01*
X379868Y143955D01*
X379897Y144021D01*
X379940Y144108D01*
X379999Y144210D01*
X380072Y144327D01*
X380152Y144444D01*
X380254Y144568D01*
Y144575D01*
X380269Y144582D01*
X380305Y144626D01*
X380370Y144692D01*
X380465Y144786D01*
X380575Y144896D01*
X380713Y145027D01*
X380881Y145173D01*
X381063Y145326D01*
X381070Y145333D01*
X381100Y145355D01*
X381143Y145391D01*
X381194Y145435D01*
X381260Y145493D01*
X381340Y145559D01*
X381420Y145632D01*
X381515Y145712D01*
X381697Y145887D01*
X381880Y146062D01*
X381967Y146150D01*
X382047Y146237D01*
X382120Y146317D01*
X382178Y146397D01*
Y146405D01*
X382193Y146412D01*
X382208Y146434D01*
X382222Y146463D01*
X382273Y146543D01*
X382331Y146638D01*
X382383Y146755D01*
X382434Y146878D01*
X382463Y147017D01*
X382477Y147148D01*
Y147155D01*
Y147163D01*
X382470Y147206D01*
X382463Y147279D01*
X382441Y147360D01*
X382412Y147462D01*
X382361Y147564D01*
X382295Y147666D01*
X382208Y147768D01*
X382193Y147782D01*
X382157Y147812D01*
X382105Y147848D01*
X382025Y147899D01*
X381923Y147943D01*
X381807Y147986D01*
X381668Y148016D01*
X381515Y148023D01*
X381471D01*
X381442Y148016D01*
X381355Y148008D01*
X381253Y147986D01*
X381143Y147957D01*
X381019Y147906D01*
X380903Y147841D01*
X380793Y147753D01*
X380779Y147739D01*
X380750Y147702D01*
X380706Y147644D01*
X380662Y147556D01*
X380611Y147454D01*
X380567Y147323D01*
X380538Y147177D01*
X380524Y147010D01*
X379889Y147075D01*
Y147083D01*
X379897Y147104D01*
Y147141D01*
X379904Y147192D01*
X379919Y147250D01*
X379933Y147316D01*
X379955Y147396D01*
X379977Y147476D01*
X380035Y147651D01*
X380123Y147826D01*
X380174Y147914D01*
X380239Y148001D01*
X380305Y148081D01*
X380378Y148154D01*
X380385Y148161D01*
X380400Y148169D01*
X380421Y148191D01*
X380458Y148213D01*
X380502Y148242D01*
X380553Y148271D01*
X380611Y148307D01*
X380684Y148344D01*
X380764Y148380D01*
X380852Y148417D01*
X380946Y148446D01*
X381048Y148475D01*
X381158Y148497D01*
X381275Y148519D01*
X381398Y148526D01*
X381530Y148533D01*
X381603D01*
X381654Y148526D01*
D02*
G37*
G36*
X378428Y187614D02*
Y185478D01*
X377757D01*
Y187614D01*
X375810Y190522D01*
X376620D01*
X377611Y188991D01*
Y188984D01*
X377626Y188970D01*
X377640Y188948D01*
X377655Y188918D01*
X377684Y188882D01*
X377713Y188838D01*
X377779Y188729D01*
X377859Y188598D01*
X377946Y188452D01*
X378041Y188299D01*
X378129Y188138D01*
Y188146D01*
X378136Y188160D01*
X378151Y188182D01*
X378172Y188211D01*
X378194Y188248D01*
X378223Y188292D01*
X378289Y188401D01*
X378369Y188532D01*
X378464Y188685D01*
X378573Y188853D01*
X378690Y189035D01*
X379660Y190522D01*
X380439D01*
X378428Y187614D01*
D02*
G37*
G36*
X372370Y185478D02*
X371713D01*
X370656Y189320D01*
Y189327D01*
X370649Y189341D01*
X370642Y189363D01*
X370635Y189400D01*
X370613Y189480D01*
X370591Y189575D01*
X370562Y189677D01*
X370532Y189771D01*
X370511Y189852D01*
X370503Y189888D01*
X370496Y189910D01*
Y189903D01*
X370489Y189895D01*
X370481Y189852D01*
X370467Y189786D01*
X370445Y189706D01*
X370423Y189618D01*
X370394Y189516D01*
X370372Y189414D01*
X370343Y189320D01*
X369279Y185478D01*
X368579D01*
X367259Y190522D01*
X367952D01*
X368703Y187213D01*
Y187205D01*
X368710Y187191D01*
X368717Y187162D01*
X368724Y187125D01*
X368732Y187074D01*
X368746Y187023D01*
X368761Y186958D01*
X368776Y186885D01*
X368812Y186732D01*
X368848Y186557D01*
X368885Y186367D01*
X368921Y186178D01*
Y186185D01*
X368929Y186214D01*
X368943Y186250D01*
X368951Y186309D01*
X368965Y186367D01*
X368987Y186440D01*
X369023Y186600D01*
X369067Y186761D01*
X369082Y186841D01*
X369104Y186914D01*
X369118Y186979D01*
X369133Y187038D01*
X369147Y187082D01*
X369155Y187111D01*
X370110Y190522D01*
X370919D01*
X371633Y187964D01*
Y187956D01*
X371648Y187920D01*
X371662Y187869D01*
X371677Y187803D01*
X371699Y187716D01*
X371728Y187621D01*
X371757Y187512D01*
X371786Y187388D01*
X371823Y187249D01*
X371852Y187111D01*
X371918Y186812D01*
X371983Y186498D01*
X372034Y186178D01*
Y186185D01*
X372041Y186199D01*
Y186229D01*
X372056Y186265D01*
X372063Y186309D01*
X372078Y186360D01*
X372085Y186425D01*
X372107Y186498D01*
X372144Y186659D01*
X372187Y186848D01*
X372231Y187052D01*
X372289Y187278D01*
X373077Y190522D01*
X373755D01*
X372370Y185478D01*
D02*
G37*
G36*
X383122D02*
X382503D01*
Y189422D01*
X382495Y189414D01*
X382459Y189385D01*
X382415Y189341D01*
X382342Y189290D01*
X382262Y189225D01*
X382160Y189152D01*
X382043Y189072D01*
X381912Y188991D01*
X381905D01*
X381897Y188984D01*
X381854Y188955D01*
X381781Y188918D01*
X381693Y188875D01*
X381591Y188824D01*
X381482Y188773D01*
X381373Y188722D01*
X381263Y188678D01*
Y189276D01*
X381271D01*
X381285Y189290D01*
X381314Y189298D01*
X381351Y189320D01*
X381395Y189341D01*
X381446Y189371D01*
X381570Y189443D01*
X381715Y189524D01*
X381861Y189626D01*
X382014Y189742D01*
X382167Y189866D01*
X382174Y189874D01*
X382182Y189881D01*
X382204Y189903D01*
X382233Y189925D01*
X382298Y189997D01*
X382386Y190085D01*
X382473Y190187D01*
X382568Y190304D01*
X382648Y190420D01*
X382721Y190544D01*
X383122D01*
Y185478D01*
D02*
G37*
G36*
X374330Y185390D02*
X373835D01*
X375300Y190610D01*
X375796D01*
X374330Y185390D01*
D02*
G37*
G36*
X243102Y190534D02*
X241184D01*
Y191154D01*
X243102D01*
Y190534D01*
D02*
G37*
G36*
X237255Y192750D02*
X237365Y192743D01*
X237488Y192728D01*
X237612Y192707D01*
X237736Y192677D01*
X237853Y192641D01*
X237867Y192634D01*
X237904Y192619D01*
X237955Y192597D01*
X238021Y192568D01*
X238093Y192524D01*
X238166Y192481D01*
X238232Y192422D01*
X238290Y192364D01*
X238298Y192357D01*
X238312Y192335D01*
X238334Y192298D01*
X238363Y192254D01*
X238400Y192189D01*
X238429Y192123D01*
X238458Y192043D01*
X238480Y191948D01*
Y191941D01*
X238487Y191919D01*
X238494Y191875D01*
X238502Y191817D01*
Y191737D01*
X238509Y191642D01*
X238516Y191518D01*
Y191380D01*
Y190549D01*
Y190541D01*
Y190512D01*
Y190469D01*
Y190410D01*
Y190345D01*
Y190264D01*
X238524Y190089D01*
Y189907D01*
X238531Y189725D01*
X238538Y189645D01*
Y189572D01*
X238545Y189506D01*
X238553Y189455D01*
Y189448D01*
X238560Y189419D01*
X238567Y189375D01*
X238589Y189317D01*
X238604Y189251D01*
X238633Y189178D01*
X238669Y189098D01*
X238706Y189018D01*
X238057D01*
X238050Y189025D01*
X238042Y189054D01*
X238028Y189091D01*
X238006Y189149D01*
X237984Y189215D01*
X237970Y189295D01*
X237955Y189382D01*
X237940Y189477D01*
X237933D01*
X237926Y189462D01*
X237882Y189426D01*
X237817Y189375D01*
X237729Y189309D01*
X237620Y189244D01*
X237510Y189171D01*
X237394Y189105D01*
X237270Y189054D01*
X237255Y189047D01*
X237211Y189040D01*
X237146Y189018D01*
X237066Y188996D01*
X236964Y188974D01*
X236847Y188959D01*
X236716Y188945D01*
X236584Y188938D01*
X236526D01*
X236482Y188945D01*
X236431D01*
X236373Y188952D01*
X236242Y188974D01*
X236096Y189011D01*
X235936Y189061D01*
X235790Y189134D01*
X235659Y189229D01*
X235644Y189244D01*
X235608Y189280D01*
X235557Y189346D01*
X235498Y189433D01*
X235440Y189543D01*
X235389Y189667D01*
X235352Y189820D01*
X235345Y189893D01*
X235338Y189980D01*
Y189995D01*
Y190024D01*
X235345Y190075D01*
X235352Y190140D01*
X235367Y190221D01*
X235389Y190301D01*
X235418Y190388D01*
X235455Y190469D01*
X235462Y190476D01*
X235476Y190505D01*
X235506Y190549D01*
X235542Y190600D01*
X235586Y190658D01*
X235644Y190716D01*
X235702Y190775D01*
X235775Y190826D01*
X235783Y190833D01*
X235812Y190848D01*
X235848Y190877D01*
X235907Y190906D01*
X235972Y190935D01*
X236052Y190972D01*
X236133Y191001D01*
X236227Y191030D01*
X236234D01*
X236264Y191037D01*
X236308Y191052D01*
X236366Y191059D01*
X236439Y191074D01*
X236533Y191088D01*
X236643Y191110D01*
X236774Y191125D01*
X236781D01*
X236810Y191132D01*
X236847D01*
X236898Y191139D01*
X236956Y191146D01*
X237029Y191161D01*
X237109Y191168D01*
X237197Y191183D01*
X237372Y191219D01*
X237561Y191256D01*
X237729Y191299D01*
X237809Y191321D01*
X237882Y191343D01*
Y191351D01*
Y191365D01*
X237889Y191409D01*
Y191460D01*
Y191489D01*
Y191504D01*
Y191511D01*
Y191518D01*
Y191562D01*
X237882Y191635D01*
X237867Y191715D01*
X237846Y191803D01*
X237809Y191890D01*
X237766Y191970D01*
X237707Y192036D01*
X237700Y192043D01*
X237663Y192072D01*
X237605Y192101D01*
X237532Y192145D01*
X237430Y192182D01*
X237314Y192218D01*
X237168Y192240D01*
X237000Y192247D01*
X236927D01*
X236854Y192240D01*
X236752Y192225D01*
X236650Y192211D01*
X236541Y192182D01*
X236439Y192145D01*
X236351Y192094D01*
X236344Y192087D01*
X236315Y192065D01*
X236278Y192028D01*
X236234Y191970D01*
X236191Y191897D01*
X236140Y191803D01*
X236096Y191686D01*
X236052Y191555D01*
X235447Y191635D01*
Y191642D01*
X235455Y191649D01*
Y191671D01*
X235462Y191700D01*
X235484Y191766D01*
X235513Y191861D01*
X235549Y191956D01*
X235593Y192058D01*
X235651Y192160D01*
X235717Y192254D01*
X235724Y192262D01*
X235753Y192291D01*
X235797Y192335D01*
X235856Y192393D01*
X235936Y192451D01*
X236030Y192510D01*
X236140Y192575D01*
X236264Y192626D01*
X236271D01*
X236278Y192634D01*
X236300Y192641D01*
X236329Y192648D01*
X236402Y192670D01*
X236504Y192692D01*
X236621Y192714D01*
X236767Y192736D01*
X236920Y192750D01*
X237095Y192757D01*
X237175D01*
X237255Y192750D01*
D02*
G37*
G36*
X232932Y194055D02*
X232991D01*
X233122Y194041D01*
X233267Y194026D01*
X233421Y193997D01*
X233574Y193960D01*
X233712Y193909D01*
X233719D01*
X233727Y193902D01*
X233770Y193880D01*
X233836Y193844D01*
X233909Y193793D01*
X233997Y193727D01*
X234091Y193647D01*
X234179Y193545D01*
X234259Y193436D01*
X234266Y193421D01*
X234288Y193377D01*
X234325Y193319D01*
X234361Y193231D01*
X234398Y193129D01*
X234434Y193020D01*
X234456Y192896D01*
X234463Y192772D01*
Y192757D01*
Y192721D01*
X234456Y192656D01*
X234441Y192575D01*
X234419Y192481D01*
X234383Y192378D01*
X234339Y192276D01*
X234281Y192167D01*
X234274Y192153D01*
X234252Y192123D01*
X234208Y192065D01*
X234150Y192007D01*
X234077Y191934D01*
X233989Y191854D01*
X233880Y191781D01*
X233756Y191708D01*
X233763D01*
X233778Y191700D01*
X233800Y191693D01*
X233829Y191679D01*
X233916Y191649D01*
X234018Y191598D01*
X234128Y191533D01*
X234252Y191453D01*
X234361Y191358D01*
X234463Y191241D01*
X234470Y191227D01*
X234500Y191183D01*
X234543Y191117D01*
X234587Y191030D01*
X234631Y190913D01*
X234675Y190789D01*
X234704Y190643D01*
X234711Y190483D01*
Y190476D01*
Y190469D01*
Y190425D01*
X234704Y190352D01*
X234689Y190264D01*
X234675Y190162D01*
X234645Y190053D01*
X234609Y189936D01*
X234558Y189820D01*
X234551Y189805D01*
X234529Y189769D01*
X234500Y189718D01*
X234456Y189645D01*
X234398Y189572D01*
X234339Y189492D01*
X234266Y189411D01*
X234186Y189346D01*
X234179Y189339D01*
X234150Y189317D01*
X234099Y189287D01*
X234033Y189258D01*
X233953Y189215D01*
X233858Y189171D01*
X233756Y189134D01*
X233632Y189098D01*
X233617D01*
X233574Y189083D01*
X233501Y189076D01*
X233406Y189061D01*
X233289Y189047D01*
X233151Y189032D01*
X232998Y189025D01*
X232823Y189018D01*
X230898D01*
Y194062D01*
X232881D01*
X232932Y194055D01*
D02*
G37*
G36*
X240193Y192677D02*
X240820D01*
Y192196D01*
X240193D01*
Y190046D01*
Y190031D01*
Y190002D01*
Y189958D01*
X240200Y189907D01*
X240208Y189790D01*
X240215Y189740D01*
X240222Y189703D01*
X240230Y189688D01*
X240251Y189659D01*
X240281Y189623D01*
X240332Y189586D01*
X240346Y189579D01*
X240383Y189565D01*
X240448Y189550D01*
X240543Y189543D01*
X240616D01*
X240652Y189550D01*
X240703D01*
X240762Y189557D01*
X240820Y189565D01*
X240900Y189018D01*
X240886D01*
X240856Y189011D01*
X240805Y189003D01*
X240740Y188996D01*
X240667Y188981D01*
X240587Y188974D01*
X240426Y188967D01*
X240368D01*
X240310Y188974D01*
X240237Y188981D01*
X240149Y188989D01*
X240062Y189011D01*
X239982Y189032D01*
X239901Y189069D01*
X239894Y189076D01*
X239872Y189091D01*
X239843Y189112D01*
X239799Y189149D01*
X239763Y189185D01*
X239719Y189236D01*
X239675Y189287D01*
X239646Y189353D01*
Y189360D01*
X239632Y189390D01*
X239624Y189441D01*
X239610Y189514D01*
X239595Y189608D01*
X239588Y189667D01*
Y189732D01*
X239581Y189812D01*
X239573Y189893D01*
Y189980D01*
Y190082D01*
Y192196D01*
X239114D01*
Y192677D01*
X239573D01*
Y193581D01*
X240193Y193953D01*
Y192677D01*
D02*
G37*
G36*
X278519Y191795D02*
X279889D01*
Y191219D01*
X278519D01*
Y189834D01*
X277935D01*
Y191219D01*
X276565D01*
Y191795D01*
X277935D01*
Y193166D01*
X278519D01*
Y191795D01*
D02*
G37*
G36*
X272468Y192750D02*
X272577Y192743D01*
X272701Y192728D01*
X272825Y192707D01*
X272949Y192677D01*
X273066Y192641D01*
X273080Y192634D01*
X273117Y192619D01*
X273168Y192597D01*
X273233Y192568D01*
X273306Y192524D01*
X273379Y192481D01*
X273445Y192422D01*
X273503Y192364D01*
X273510Y192357D01*
X273525Y192335D01*
X273547Y192298D01*
X273576Y192254D01*
X273612Y192189D01*
X273641Y192123D01*
X273671Y192043D01*
X273692Y191948D01*
Y191941D01*
X273700Y191919D01*
X273707Y191875D01*
X273714Y191817D01*
Y191737D01*
X273722Y191642D01*
X273729Y191518D01*
Y191380D01*
Y190549D01*
Y190541D01*
Y190512D01*
Y190469D01*
Y190410D01*
Y190345D01*
Y190264D01*
X273736Y190089D01*
Y189907D01*
X273744Y189725D01*
X273751Y189645D01*
Y189572D01*
X273758Y189506D01*
X273765Y189455D01*
Y189448D01*
X273773Y189419D01*
X273780Y189375D01*
X273802Y189317D01*
X273816Y189251D01*
X273846Y189178D01*
X273882Y189098D01*
X273919Y189018D01*
X273270D01*
X273262Y189025D01*
X273255Y189054D01*
X273241Y189091D01*
X273219Y189149D01*
X273197Y189215D01*
X273182Y189295D01*
X273168Y189382D01*
X273153Y189477D01*
X273146D01*
X273138Y189462D01*
X273095Y189426D01*
X273029Y189375D01*
X272942Y189309D01*
X272832Y189244D01*
X272723Y189171D01*
X272606Y189105D01*
X272482Y189054D01*
X272468Y189047D01*
X272424Y189040D01*
X272358Y189018D01*
X272278Y188996D01*
X272176Y188974D01*
X272060Y188959D01*
X271928Y188945D01*
X271797Y188938D01*
X271739D01*
X271695Y188945D01*
X271644D01*
X271586Y188952D01*
X271455Y188974D01*
X271309Y189011D01*
X271148Y189061D01*
X271003Y189134D01*
X270871Y189229D01*
X270857Y189244D01*
X270820Y189280D01*
X270769Y189346D01*
X270711Y189433D01*
X270653Y189543D01*
X270602Y189667D01*
X270565Y189820D01*
X270558Y189893D01*
X270551Y189980D01*
Y189995D01*
Y190024D01*
X270558Y190075D01*
X270565Y190140D01*
X270580Y190221D01*
X270602Y190301D01*
X270631Y190388D01*
X270667Y190469D01*
X270674Y190476D01*
X270689Y190505D01*
X270718Y190549D01*
X270755Y190600D01*
X270798Y190658D01*
X270857Y190716D01*
X270915Y190775D01*
X270988Y190826D01*
X270995Y190833D01*
X271024Y190848D01*
X271061Y190877D01*
X271119Y190906D01*
X271185Y190935D01*
X271265Y190972D01*
X271345Y191001D01*
X271440Y191030D01*
X271447D01*
X271476Y191037D01*
X271520Y191052D01*
X271579Y191059D01*
X271651Y191074D01*
X271746Y191088D01*
X271855Y191110D01*
X271987Y191125D01*
X271994D01*
X272023Y191132D01*
X272060D01*
X272111Y191139D01*
X272169Y191146D01*
X272242Y191161D01*
X272322Y191168D01*
X272410Y191183D01*
X272585Y191219D01*
X272774Y191256D01*
X272942Y191299D01*
X273022Y191321D01*
X273095Y191343D01*
Y191351D01*
Y191365D01*
X273102Y191409D01*
Y191460D01*
Y191489D01*
Y191504D01*
Y191511D01*
Y191518D01*
Y191562D01*
X273095Y191635D01*
X273080Y191715D01*
X273058Y191803D01*
X273022Y191890D01*
X272978Y191970D01*
X272920Y192036D01*
X272913Y192043D01*
X272876Y192072D01*
X272818Y192101D01*
X272745Y192145D01*
X272643Y192182D01*
X272526Y192218D01*
X272380Y192240D01*
X272213Y192247D01*
X272140D01*
X272067Y192240D01*
X271965Y192225D01*
X271863Y192211D01*
X271753Y192182D01*
X271651Y192145D01*
X271564Y192094D01*
X271557Y192087D01*
X271527Y192065D01*
X271491Y192028D01*
X271447Y191970D01*
X271404Y191897D01*
X271353Y191803D01*
X271309Y191686D01*
X271265Y191555D01*
X270660Y191635D01*
Y191642D01*
X270667Y191649D01*
Y191671D01*
X270674Y191700D01*
X270696Y191766D01*
X270725Y191861D01*
X270762Y191956D01*
X270806Y192058D01*
X270864Y192160D01*
X270930Y192254D01*
X270937Y192262D01*
X270966Y192291D01*
X271010Y192335D01*
X271068Y192393D01*
X271148Y192451D01*
X271243Y192510D01*
X271353Y192575D01*
X271476Y192626D01*
X271484D01*
X271491Y192634D01*
X271513Y192641D01*
X271542Y192648D01*
X271615Y192670D01*
X271717Y192692D01*
X271834Y192714D01*
X271979Y192736D01*
X272132Y192750D01*
X272307Y192757D01*
X272388D01*
X272468Y192750D01*
D02*
G37*
G36*
X268145Y194055D02*
X268203D01*
X268334Y194041D01*
X268480Y194026D01*
X268633Y193997D01*
X268786Y193960D01*
X268925Y193909D01*
X268932D01*
X268939Y193902D01*
X268983Y193880D01*
X269049Y193844D01*
X269122Y193793D01*
X269209Y193727D01*
X269304Y193647D01*
X269391Y193545D01*
X269472Y193436D01*
X269479Y193421D01*
X269501Y193377D01*
X269537Y193319D01*
X269574Y193231D01*
X269610Y193129D01*
X269647Y193020D01*
X269669Y192896D01*
X269676Y192772D01*
Y192757D01*
Y192721D01*
X269669Y192656D01*
X269654Y192575D01*
X269632Y192481D01*
X269596Y192378D01*
X269552Y192276D01*
X269494Y192167D01*
X269486Y192153D01*
X269464Y192123D01*
X269421Y192065D01*
X269362Y192007D01*
X269289Y191934D01*
X269202Y191854D01*
X269093Y191781D01*
X268969Y191708D01*
X268976D01*
X268990Y191700D01*
X269012Y191693D01*
X269041Y191679D01*
X269129Y191649D01*
X269231Y191598D01*
X269340Y191533D01*
X269464Y191453D01*
X269574Y191358D01*
X269676Y191241D01*
X269683Y191227D01*
X269712Y191183D01*
X269756Y191117D01*
X269800Y191030D01*
X269843Y190913D01*
X269887Y190789D01*
X269916Y190643D01*
X269924Y190483D01*
Y190476D01*
Y190469D01*
Y190425D01*
X269916Y190352D01*
X269902Y190264D01*
X269887Y190162D01*
X269858Y190053D01*
X269822Y189936D01*
X269771Y189820D01*
X269763Y189805D01*
X269741Y189769D01*
X269712Y189718D01*
X269669Y189645D01*
X269610Y189572D01*
X269552Y189492D01*
X269479Y189411D01*
X269399Y189346D01*
X269391Y189339D01*
X269362Y189317D01*
X269311Y189287D01*
X269246Y189258D01*
X269165Y189215D01*
X269071Y189171D01*
X268969Y189134D01*
X268845Y189098D01*
X268830D01*
X268786Y189083D01*
X268713Y189076D01*
X268619Y189061D01*
X268502Y189047D01*
X268364Y189032D01*
X268211Y189025D01*
X268036Y189018D01*
X266111D01*
Y194062D01*
X268094D01*
X268145Y194055D01*
D02*
G37*
G36*
X275406Y192677D02*
X276033D01*
Y192196D01*
X275406D01*
Y190046D01*
Y190031D01*
Y190002D01*
Y189958D01*
X275413Y189907D01*
X275420Y189790D01*
X275428Y189740D01*
X275435Y189703D01*
X275442Y189688D01*
X275464Y189659D01*
X275493Y189623D01*
X275544Y189586D01*
X275559Y189579D01*
X275595Y189565D01*
X275661Y189550D01*
X275756Y189543D01*
X275829D01*
X275865Y189550D01*
X275916D01*
X275974Y189557D01*
X276033Y189565D01*
X276113Y189018D01*
X276098D01*
X276069Y189011D01*
X276018Y189003D01*
X275952Y188996D01*
X275880Y188981D01*
X275799Y188974D01*
X275639Y188967D01*
X275581D01*
X275522Y188974D01*
X275449Y188981D01*
X275362Y188989D01*
X275274Y189011D01*
X275194Y189032D01*
X275114Y189069D01*
X275107Y189076D01*
X275085Y189091D01*
X275056Y189112D01*
X275012Y189149D01*
X274976Y189185D01*
X274932Y189236D01*
X274888Y189287D01*
X274859Y189353D01*
Y189360D01*
X274844Y189390D01*
X274837Y189441D01*
X274822Y189514D01*
X274808Y189608D01*
X274801Y189667D01*
Y189732D01*
X274793Y189812D01*
X274786Y189893D01*
Y189980D01*
Y190082D01*
Y192196D01*
X274327D01*
Y192677D01*
X274786D01*
Y193581D01*
X275406Y193953D01*
Y192677D01*
D02*
G37*
G36*
X377632Y106124D02*
X379520Y103478D01*
X378696D01*
X377420Y105271D01*
X377413Y105278D01*
X377399Y105300D01*
X377384Y105329D01*
X377355Y105366D01*
X377289Y105468D01*
X377216Y105577D01*
X377209Y105570D01*
X377187Y105541D01*
X377158Y105497D01*
X377122Y105439D01*
X377041Y105322D01*
X377005Y105271D01*
X376976Y105227D01*
X375700Y103478D01*
X374898D01*
X376845Y106088D01*
X375124Y108522D01*
X375919D01*
X376837Y107225D01*
Y107217D01*
X376852Y107210D01*
X376867Y107188D01*
X376888Y107159D01*
X376932Y107086D01*
X376998Y106999D01*
X377063Y106897D01*
X377129Y106795D01*
X377187Y106700D01*
X377238Y106612D01*
X377246Y106627D01*
X377267Y106656D01*
X377304Y106714D01*
X377355Y106787D01*
X377413Y106868D01*
X377486Y106970D01*
X377559Y107072D01*
X377646Y107181D01*
X378653Y108522D01*
X379381D01*
X377632Y106124D01*
D02*
G37*
G36*
X370881Y103478D02*
X370182D01*
X368228Y108522D01*
X368957D01*
X370269Y104856D01*
Y104848D01*
X370276Y104834D01*
X370284Y104812D01*
X370298Y104783D01*
X370305Y104739D01*
X370320Y104695D01*
X370356Y104586D01*
X370400Y104462D01*
X370444Y104323D01*
X370532Y104032D01*
Y104039D01*
X370539Y104054D01*
X370546Y104075D01*
X370553Y104105D01*
X370575Y104185D01*
X370612Y104294D01*
X370648Y104418D01*
X370692Y104557D01*
X370743Y104702D01*
X370801Y104856D01*
X372172Y108522D01*
X372850D01*
X370881Y103478D01*
D02*
G37*
G36*
X381656Y108537D02*
X381714Y108530D01*
X381787Y108522D01*
X381867Y108508D01*
X381948Y108493D01*
X382137Y108442D01*
X382327Y108369D01*
X382421Y108326D01*
X382516Y108274D01*
X382604Y108209D01*
X382684Y108136D01*
X382691Y108129D01*
X382706Y108121D01*
X382720Y108092D01*
X382750Y108063D01*
X382786Y108027D01*
X382822Y107976D01*
X382859Y107925D01*
X382903Y107859D01*
X382976Y107720D01*
X383048Y107545D01*
X383078Y107458D01*
X383092Y107356D01*
X383107Y107254D01*
X383114Y107144D01*
Y107130D01*
Y107094D01*
X383107Y107035D01*
X383099Y106955D01*
X383085Y106868D01*
X383056Y106765D01*
X383027Y106656D01*
X382983Y106547D01*
X382976Y106532D01*
X382961Y106496D01*
X382932Y106437D01*
X382888Y106357D01*
X382830Y106270D01*
X382757Y106160D01*
X382669Y106051D01*
X382567Y105927D01*
X382553Y105912D01*
X382516Y105869D01*
X382480Y105832D01*
X382443Y105796D01*
X382400Y105752D01*
X382341Y105694D01*
X382283Y105635D01*
X382210Y105570D01*
X382137Y105497D01*
X382050Y105417D01*
X381955Y105337D01*
X381853Y105242D01*
X381736Y105147D01*
X381620Y105045D01*
X381612Y105038D01*
X381598Y105023D01*
X381569Y105001D01*
X381532Y104972D01*
X381488Y104928D01*
X381437Y104885D01*
X381321Y104790D01*
X381197Y104681D01*
X381080Y104571D01*
X380978Y104476D01*
X380934Y104440D01*
X380898Y104403D01*
X380891Y104396D01*
X380869Y104374D01*
X380839Y104345D01*
X380803Y104301D01*
X380767Y104250D01*
X380723Y104199D01*
X380635Y104075D01*
X383121D01*
Y103478D01*
X379775D01*
Y103485D01*
Y103514D01*
Y103558D01*
X379783Y103616D01*
X379790Y103682D01*
X379804Y103755D01*
X379819Y103828D01*
X379848Y103908D01*
Y103915D01*
X379855Y103922D01*
X379870Y103966D01*
X379899Y104032D01*
X379943Y104119D01*
X380001Y104221D01*
X380074Y104338D01*
X380154Y104455D01*
X380256Y104578D01*
Y104586D01*
X380271Y104593D01*
X380307Y104637D01*
X380373Y104702D01*
X380468Y104797D01*
X380577Y104906D01*
X380716Y105038D01*
X380883Y105183D01*
X381066Y105337D01*
X381073Y105344D01*
X381102Y105366D01*
X381146Y105402D01*
X381197Y105446D01*
X381262Y105504D01*
X381343Y105570D01*
X381423Y105643D01*
X381518Y105723D01*
X381700Y105898D01*
X381882Y106073D01*
X381969Y106160D01*
X382050Y106248D01*
X382123Y106328D01*
X382181Y106408D01*
Y106415D01*
X382195Y106423D01*
X382210Y106445D01*
X382225Y106474D01*
X382276Y106554D01*
X382334Y106649D01*
X382385Y106765D01*
X382436Y106889D01*
X382465Y107028D01*
X382480Y107159D01*
Y107166D01*
Y107174D01*
X382472Y107217D01*
X382465Y107290D01*
X382443Y107370D01*
X382414Y107473D01*
X382363Y107575D01*
X382297Y107677D01*
X382210Y107779D01*
X382195Y107793D01*
X382159Y107823D01*
X382108Y107859D01*
X382028Y107910D01*
X381926Y107954D01*
X381809Y107998D01*
X381671Y108027D01*
X381518Y108034D01*
X381474D01*
X381445Y108027D01*
X381357Y108019D01*
X381255Y107998D01*
X381146Y107968D01*
X381022Y107917D01*
X380905Y107852D01*
X380796Y107764D01*
X380781Y107750D01*
X380752Y107713D01*
X380708Y107655D01*
X380665Y107567D01*
X380613Y107465D01*
X380570Y107334D01*
X380541Y107188D01*
X380526Y107021D01*
X379892Y107086D01*
Y107094D01*
X379899Y107115D01*
Y107152D01*
X379906Y107203D01*
X379921Y107261D01*
X379936Y107327D01*
X379957Y107407D01*
X379979Y107487D01*
X380038Y107662D01*
X380125Y107837D01*
X380176Y107925D01*
X380242Y108012D01*
X380307Y108092D01*
X380380Y108165D01*
X380388Y108172D01*
X380402Y108180D01*
X380424Y108202D01*
X380460Y108223D01*
X380504Y108253D01*
X380555Y108282D01*
X380613Y108318D01*
X380686Y108355D01*
X380767Y108391D01*
X380854Y108428D01*
X380949Y108457D01*
X381051Y108486D01*
X381160Y108508D01*
X381277Y108530D01*
X381401Y108537D01*
X381532Y108544D01*
X381605D01*
X381656Y108537D01*
D02*
G37*
G36*
X373404Y103390D02*
X372908D01*
X374373Y108610D01*
X374869D01*
X373404Y103390D01*
D02*
G37*
G36*
X378556Y64124D02*
X380444Y61478D01*
X379620D01*
X378344Y63271D01*
X378337Y63278D01*
X378322Y63300D01*
X378308Y63329D01*
X378279Y63366D01*
X378213Y63468D01*
X378140Y63577D01*
X378133Y63570D01*
X378111Y63541D01*
X378082Y63497D01*
X378045Y63439D01*
X377965Y63322D01*
X377929Y63271D01*
X377900Y63227D01*
X376624Y61478D01*
X375822D01*
X377768Y64087D01*
X376048Y66522D01*
X376842D01*
X377761Y65225D01*
Y65217D01*
X377776Y65210D01*
X377790Y65188D01*
X377812Y65159D01*
X377856Y65086D01*
X377922Y64999D01*
X377987Y64897D01*
X378053Y64795D01*
X378111Y64700D01*
X378162Y64612D01*
X378169Y64627D01*
X378191Y64656D01*
X378228Y64714D01*
X378279Y64787D01*
X378337Y64868D01*
X378410Y64970D01*
X378483Y65072D01*
X378570Y65181D01*
X379576Y66522D01*
X380305D01*
X378556Y64124D01*
D02*
G37*
G36*
X373263Y63606D02*
Y63599D01*
Y63570D01*
Y63533D01*
Y63482D01*
X373256Y63417D01*
Y63344D01*
X373249Y63256D01*
X373241Y63169D01*
X373219Y62972D01*
X373190Y62768D01*
X373147Y62571D01*
X373117Y62476D01*
X373088Y62389D01*
Y62382D01*
X373081Y62367D01*
X373066Y62345D01*
X373052Y62316D01*
X373008Y62236D01*
X372942Y62134D01*
X372855Y62017D01*
X372753Y61901D01*
X372622Y61777D01*
X372461Y61667D01*
X372454D01*
X372439Y61653D01*
X372417Y61645D01*
X372381Y61624D01*
X372337Y61602D01*
X372279Y61580D01*
X372221Y61558D01*
X372148Y61529D01*
X372068Y61500D01*
X371980Y61478D01*
X371885Y61456D01*
X371776Y61434D01*
X371667Y61419D01*
X371550Y61405D01*
X371288Y61390D01*
X371222D01*
X371171Y61397D01*
X371113D01*
X371040Y61405D01*
X370959Y61412D01*
X370879Y61419D01*
X370697Y61449D01*
X370500Y61492D01*
X370311Y61551D01*
X370128Y61631D01*
X370121D01*
X370107Y61645D01*
X370085Y61660D01*
X370056Y61674D01*
X369975Y61733D01*
X369881Y61813D01*
X369771Y61915D01*
X369669Y62032D01*
X369567Y62177D01*
X369487Y62338D01*
Y62345D01*
X369480Y62360D01*
X369472Y62389D01*
X369458Y62425D01*
X369443Y62469D01*
X369429Y62527D01*
X369407Y62593D01*
X369392Y62673D01*
X369378Y62761D01*
X369356Y62855D01*
X369341Y62958D01*
X369327Y63067D01*
X369312Y63191D01*
X369305Y63322D01*
X369297Y63460D01*
Y63606D01*
Y66522D01*
X369968D01*
Y63606D01*
Y63599D01*
Y63577D01*
Y63541D01*
Y63497D01*
X369975Y63446D01*
Y63380D01*
X369983Y63242D01*
X369997Y63082D01*
X370019Y62921D01*
X370048Y62768D01*
X370063Y62702D01*
X370085Y62637D01*
X370092Y62622D01*
X370107Y62586D01*
X370143Y62535D01*
X370187Y62462D01*
X370238Y62389D01*
X370311Y62309D01*
X370398Y62229D01*
X370500Y62163D01*
X370515Y62156D01*
X370551Y62134D01*
X370617Y62112D01*
X370704Y62083D01*
X370806Y62046D01*
X370938Y62024D01*
X371076Y62002D01*
X371229Y61995D01*
X371302D01*
X371346Y62002D01*
X371411D01*
X371477Y62010D01*
X371638Y62039D01*
X371812Y62075D01*
X371980Y62134D01*
X372141Y62214D01*
X372213Y62265D01*
X372279Y62323D01*
X372286Y62331D01*
X372294Y62338D01*
X372308Y62360D01*
X372330Y62389D01*
X372352Y62433D01*
X372381Y62476D01*
X372410Y62542D01*
X372439Y62608D01*
X372469Y62688D01*
X372490Y62783D01*
X372520Y62892D01*
X372541Y63009D01*
X372563Y63140D01*
X372578Y63278D01*
X372592Y63439D01*
Y63606D01*
Y66522D01*
X373263D01*
Y63606D01*
D02*
G37*
G36*
X383119Y61478D02*
X382500D01*
Y65422D01*
X382492Y65414D01*
X382456Y65385D01*
X382412Y65341D01*
X382339Y65290D01*
X382259Y65225D01*
X382157Y65152D01*
X382040Y65072D01*
X381909Y64991D01*
X381902D01*
X381894Y64984D01*
X381851Y64955D01*
X381778Y64919D01*
X381690Y64875D01*
X381588Y64824D01*
X381479Y64773D01*
X381370Y64722D01*
X381260Y64678D01*
Y65276D01*
X381268D01*
X381282Y65290D01*
X381311Y65298D01*
X381348Y65320D01*
X381392Y65341D01*
X381442Y65371D01*
X381567Y65443D01*
X381712Y65524D01*
X381858Y65626D01*
X382011Y65742D01*
X382164Y65866D01*
X382172Y65873D01*
X382179Y65881D01*
X382201Y65903D01*
X382230Y65925D01*
X382295Y65997D01*
X382383Y66085D01*
X382470Y66187D01*
X382565Y66304D01*
X382645Y66420D01*
X382718Y66544D01*
X383119D01*
Y61478D01*
D02*
G37*
G36*
X374327Y61390D02*
X373832D01*
X375297Y66610D01*
X375793D01*
X374327Y61390D01*
D02*
G37*
G36*
X103955Y212570D02*
X104049Y212555D01*
X104166Y212533D01*
X104297Y212497D01*
X104428Y212453D01*
X104560Y212395D01*
X104567D01*
X104574Y212387D01*
X104618Y212366D01*
X104683Y212322D01*
X104756Y212271D01*
X104844Y212198D01*
X104931Y212118D01*
X105019Y212023D01*
X105092Y211914D01*
X105099Y211899D01*
X105121Y211863D01*
X105150Y211797D01*
X105186Y211717D01*
X105223Y211622D01*
X105252Y211513D01*
X105274Y211389D01*
X105281Y211265D01*
Y211250D01*
Y211207D01*
X105274Y211148D01*
X105259Y211068D01*
X105238Y210973D01*
X105201Y210871D01*
X105157Y210769D01*
X105099Y210667D01*
X105092Y210652D01*
X105070Y210623D01*
X105026Y210572D01*
X104968Y210514D01*
X104895Y210448D01*
X104807Y210375D01*
X104705Y210310D01*
X104581Y210244D01*
X104589D01*
X104603Y210237D01*
X104625Y210230D01*
X104654Y210222D01*
X104735Y210193D01*
X104837Y210149D01*
X104953Y210091D01*
X105070Y210018D01*
X105179Y209924D01*
X105281Y209814D01*
X105289Y209800D01*
X105318Y209756D01*
X105361Y209683D01*
X105405Y209588D01*
X105449Y209472D01*
X105493Y209333D01*
X105522Y209173D01*
X105529Y208998D01*
Y208990D01*
Y208968D01*
Y208932D01*
X105522Y208888D01*
X105515Y208830D01*
X105500Y208764D01*
X105485Y208691D01*
X105471Y208611D01*
X105412Y208436D01*
X105369Y208342D01*
X105325Y208254D01*
X105267Y208159D01*
X105201Y208065D01*
X105128Y207970D01*
X105041Y207882D01*
X105033Y207875D01*
X105019Y207860D01*
X104990Y207839D01*
X104953Y207809D01*
X104910Y207773D01*
X104851Y207736D01*
X104786Y207693D01*
X104705Y207656D01*
X104625Y207612D01*
X104530Y207569D01*
X104436Y207532D01*
X104326Y207496D01*
X104210Y207467D01*
X104086Y207445D01*
X103962Y207430D01*
X103823Y207423D01*
X103758D01*
X103714Y207430D01*
X103656Y207438D01*
X103590Y207445D01*
X103517Y207459D01*
X103437Y207474D01*
X103262Y207518D01*
X103080Y207591D01*
X102985Y207634D01*
X102898Y207685D01*
X102810Y207751D01*
X102723Y207817D01*
X102715Y207824D01*
X102701Y207839D01*
X102679Y207860D01*
X102657Y207890D01*
X102620Y207926D01*
X102584Y207977D01*
X102540Y208028D01*
X102497Y208094D01*
X102453Y208167D01*
X102409Y208240D01*
X102329Y208414D01*
X102263Y208619D01*
X102241Y208728D01*
X102227Y208844D01*
X102846Y208925D01*
Y208917D01*
X102854Y208903D01*
X102861Y208874D01*
X102868Y208837D01*
X102876Y208793D01*
X102890Y208742D01*
X102927Y208633D01*
X102978Y208502D01*
X103043Y208378D01*
X103116Y208261D01*
X103204Y208159D01*
X103218Y208152D01*
X103247Y208123D01*
X103306Y208086D01*
X103379Y208050D01*
X103466Y208006D01*
X103575Y207970D01*
X103699Y207941D01*
X103831Y207933D01*
X103874D01*
X103903Y207941D01*
X103984Y207948D01*
X104086Y207970D01*
X104202Y208006D01*
X104326Y208057D01*
X104450Y208130D01*
X104567Y208232D01*
X104581Y208247D01*
X104618Y208291D01*
X104662Y208356D01*
X104720Y208444D01*
X104778Y208553D01*
X104822Y208677D01*
X104859Y208823D01*
X104873Y208983D01*
Y208990D01*
Y209005D01*
Y209027D01*
X104866Y209056D01*
X104859Y209136D01*
X104837Y209231D01*
X104807Y209348D01*
X104756Y209464D01*
X104683Y209581D01*
X104589Y209690D01*
X104574Y209705D01*
X104538Y209734D01*
X104479Y209778D01*
X104399Y209829D01*
X104297Y209880D01*
X104173Y209924D01*
X104035Y209953D01*
X103882Y209967D01*
X103816D01*
X103765Y209960D01*
X103699Y209953D01*
X103627Y209938D01*
X103539Y209924D01*
X103444Y209902D01*
X103517Y210448D01*
X103554D01*
X103583Y210441D01*
X103677D01*
X103758Y210456D01*
X103852Y210470D01*
X103962Y210492D01*
X104086Y210528D01*
X104202Y210580D01*
X104326Y210645D01*
X104334D01*
X104341Y210652D01*
X104377Y210682D01*
X104428Y210733D01*
X104487Y210798D01*
X104545Y210893D01*
X104596Y211002D01*
X104632Y211126D01*
X104647Y211199D01*
Y211279D01*
Y211287D01*
Y211294D01*
Y211338D01*
X104632Y211396D01*
X104618Y211476D01*
X104589Y211564D01*
X104552Y211659D01*
X104494Y211753D01*
X104414Y211841D01*
X104406Y211848D01*
X104370Y211877D01*
X104319Y211914D01*
X104253Y211957D01*
X104166Y211994D01*
X104064Y212030D01*
X103947Y212059D01*
X103816Y212067D01*
X103758D01*
X103692Y212052D01*
X103605Y212038D01*
X103510Y212008D01*
X103415Y211972D01*
X103313Y211914D01*
X103218Y211841D01*
X103211Y211833D01*
X103182Y211797D01*
X103138Y211746D01*
X103087Y211673D01*
X103036Y211578D01*
X102985Y211462D01*
X102941Y211323D01*
X102912Y211163D01*
X102292Y211272D01*
Y211279D01*
X102300Y211301D01*
X102307Y211330D01*
X102314Y211374D01*
X102329Y211425D01*
X102351Y211484D01*
X102394Y211622D01*
X102467Y211782D01*
X102555Y211943D01*
X102664Y212096D01*
X102803Y212234D01*
X102810Y212242D01*
X102825Y212249D01*
X102846Y212263D01*
X102876Y212285D01*
X102912Y212315D01*
X102963Y212344D01*
X103014Y212373D01*
X103080Y212409D01*
X103226Y212468D01*
X103393Y212526D01*
X103590Y212562D01*
X103692Y212577D01*
X103874D01*
X103955Y212570D01*
D02*
G37*
G36*
X101381Y209114D02*
Y209107D01*
Y209085D01*
Y209056D01*
Y209012D01*
X101374Y208954D01*
Y208896D01*
X101359Y208757D01*
X101345Y208597D01*
X101315Y208429D01*
X101272Y208276D01*
X101221Y208130D01*
Y208123D01*
X101214Y208116D01*
X101192Y208072D01*
X101155Y208014D01*
X101104Y207933D01*
X101031Y207853D01*
X100951Y207766D01*
X100849Y207678D01*
X100732Y207605D01*
X100718Y207598D01*
X100674Y207576D01*
X100608Y207547D01*
X100514Y207518D01*
X100397Y207481D01*
X100266Y207452D01*
X100120Y207430D01*
X99960Y207423D01*
X99894D01*
X99850Y207430D01*
X99792Y207438D01*
X99734Y207445D01*
X99581Y207474D01*
X99420Y207518D01*
X99252Y207583D01*
X99165Y207627D01*
X99085Y207678D01*
X99012Y207736D01*
X98939Y207802D01*
X98932Y207809D01*
X98924Y207817D01*
X98910Y207846D01*
X98888Y207875D01*
X98859Y207911D01*
X98830Y207962D01*
X98800Y208021D01*
X98764Y208086D01*
X98735Y208159D01*
X98706Y208247D01*
X98677Y208334D01*
X98647Y208436D01*
X98633Y208546D01*
X98611Y208670D01*
X98604Y208793D01*
Y208932D01*
X99209Y209019D01*
Y209012D01*
Y208998D01*
Y208968D01*
X99216Y208925D01*
X99223Y208881D01*
Y208830D01*
X99245Y208706D01*
X99267Y208575D01*
X99311Y208444D01*
X99354Y208327D01*
X99384Y208276D01*
X99420Y208232D01*
X99427Y208225D01*
X99457Y208203D01*
X99500Y208167D01*
X99559Y208130D01*
X99639Y208086D01*
X99726Y208057D01*
X99836Y208028D01*
X99952Y208021D01*
X99996D01*
X100040Y208028D01*
X100105Y208035D01*
X100171Y208050D01*
X100244Y208065D01*
X100317Y208094D01*
X100390Y208130D01*
X100397Y208137D01*
X100419Y208152D01*
X100448Y208181D01*
X100492Y208210D01*
X100528Y208261D01*
X100572Y208312D01*
X100608Y208371D01*
X100638Y208444D01*
Y208451D01*
X100652Y208480D01*
X100659Y208531D01*
X100674Y208597D01*
X100689Y208684D01*
X100696Y208793D01*
X100710Y208925D01*
Y209078D01*
Y212555D01*
X101381D01*
Y209114D01*
D02*
G37*
G36*
X112396Y207510D02*
X111777D01*
Y211454D01*
X111769Y211447D01*
X111733Y211418D01*
X111689Y211374D01*
X111616Y211323D01*
X111536Y211258D01*
X111434Y211185D01*
X111317Y211104D01*
X111186Y211024D01*
X111179D01*
X111172Y211017D01*
X111128Y210988D01*
X111055Y210951D01*
X110968Y210908D01*
X110865Y210857D01*
X110756Y210806D01*
X110647Y210754D01*
X110537Y210711D01*
Y211309D01*
X110545D01*
X110559Y211323D01*
X110588Y211330D01*
X110625Y211352D01*
X110669Y211374D01*
X110720Y211403D01*
X110844Y211476D01*
X110989Y211556D01*
X111135Y211659D01*
X111288Y211775D01*
X111441Y211899D01*
X111449Y211906D01*
X111456Y211914D01*
X111478Y211935D01*
X111507Y211957D01*
X111573Y212030D01*
X111660Y212118D01*
X111748Y212220D01*
X111842Y212336D01*
X111923Y212453D01*
X111995Y212577D01*
X112396D01*
Y207510D01*
D02*
G37*
G36*
X107935Y212570D02*
X108030Y212555D01*
X108139Y212533D01*
X108256Y212504D01*
X108379Y212468D01*
X108496Y212409D01*
X108503D01*
X108511Y212402D01*
X108547Y212380D01*
X108606Y212344D01*
X108678Y212293D01*
X108759Y212220D01*
X108846Y212140D01*
X108926Y212045D01*
X109007Y211935D01*
X109014Y211921D01*
X109043Y211884D01*
X109072Y211819D01*
X109123Y211724D01*
X109167Y211615D01*
X109225Y211491D01*
X109276Y211345D01*
X109320Y211185D01*
Y211177D01*
X109327Y211163D01*
X109335Y211141D01*
X109342Y211104D01*
X109349Y211061D01*
X109356Y211010D01*
X109371Y210944D01*
X109378Y210871D01*
X109393Y210791D01*
X109400Y210703D01*
X109407Y210601D01*
X109422Y210499D01*
X109429Y210383D01*
Y210266D01*
X109437Y210135D01*
Y209996D01*
Y209989D01*
Y209960D01*
Y209909D01*
Y209851D01*
X109429Y209770D01*
Y209683D01*
X109422Y209588D01*
X109415Y209486D01*
X109393Y209253D01*
X109356Y209012D01*
X109313Y208779D01*
X109283Y208670D01*
X109247Y208560D01*
Y208553D01*
X109240Y208538D01*
X109225Y208509D01*
X109211Y208473D01*
X109196Y208422D01*
X109167Y208371D01*
X109108Y208247D01*
X109036Y208116D01*
X108941Y207970D01*
X108832Y207839D01*
X108700Y207715D01*
X108693D01*
X108686Y207700D01*
X108664Y207685D01*
X108635Y207671D01*
X108598Y207649D01*
X108562Y207620D01*
X108452Y207569D01*
X108321Y207518D01*
X108168Y207467D01*
X107986Y207438D01*
X107789Y207423D01*
X107716D01*
X107665Y207430D01*
X107607Y207438D01*
X107534Y207452D01*
X107454Y207467D01*
X107366Y207489D01*
X107279Y207518D01*
X107184Y207547D01*
X107089Y207591D01*
X106994Y207642D01*
X106900Y207700D01*
X106805Y207773D01*
X106717Y207853D01*
X106637Y207941D01*
X106630Y207948D01*
X106615Y207970D01*
X106594Y208006D01*
X106557Y208065D01*
X106521Y208130D01*
X106484Y208218D01*
X106433Y208320D01*
X106389Y208436D01*
X106346Y208568D01*
X106302Y208721D01*
X106258Y208888D01*
X106222Y209078D01*
X106185Y209282D01*
X106163Y209501D01*
X106149Y209741D01*
X106141Y209996D01*
Y210004D01*
Y210033D01*
Y210084D01*
Y210142D01*
X106149Y210222D01*
Y210310D01*
X106156Y210405D01*
X106163Y210514D01*
X106185Y210740D01*
X106222Y210981D01*
X106265Y211221D01*
X106295Y211330D01*
X106324Y211440D01*
Y211447D01*
X106331Y211462D01*
X106346Y211491D01*
X106360Y211527D01*
X106375Y211578D01*
X106404Y211629D01*
X106462Y211753D01*
X106535Y211884D01*
X106630Y212023D01*
X106739Y212161D01*
X106870Y212278D01*
X106878D01*
X106885Y212293D01*
X106907Y212307D01*
X106936Y212322D01*
X106973Y212351D01*
X107016Y212373D01*
X107126Y212431D01*
X107257Y212482D01*
X107410Y212533D01*
X107592Y212562D01*
X107789Y212577D01*
X107855D01*
X107935Y212570D01*
D02*
G37*
G36*
X107473Y13570D02*
X107568Y13555D01*
X107685Y13533D01*
X107816Y13497D01*
X107947Y13453D01*
X108078Y13395D01*
X108086D01*
X108093Y13387D01*
X108137Y13366D01*
X108202Y13322D01*
X108275Y13271D01*
X108363Y13198D01*
X108450Y13118D01*
X108538Y13023D01*
X108611Y12914D01*
X108618Y12899D01*
X108640Y12863D01*
X108669Y12797D01*
X108705Y12717D01*
X108742Y12622D01*
X108771Y12513D01*
X108793Y12389D01*
X108800Y12265D01*
Y12250D01*
Y12207D01*
X108793Y12148D01*
X108778Y12068D01*
X108756Y11973D01*
X108720Y11871D01*
X108676Y11769D01*
X108618Y11667D01*
X108611Y11653D01*
X108589Y11623D01*
X108545Y11572D01*
X108487Y11514D01*
X108414Y11448D01*
X108326Y11375D01*
X108224Y11310D01*
X108100Y11244D01*
X108108D01*
X108122Y11237D01*
X108144Y11230D01*
X108173Y11222D01*
X108253Y11193D01*
X108355Y11150D01*
X108472Y11091D01*
X108589Y11018D01*
X108698Y10924D01*
X108800Y10814D01*
X108807Y10800D01*
X108837Y10756D01*
X108880Y10683D01*
X108924Y10588D01*
X108968Y10471D01*
X109012Y10333D01*
X109041Y10173D01*
X109048Y9998D01*
Y9990D01*
Y9968D01*
Y9932D01*
X109041Y9888D01*
X109033Y9830D01*
X109019Y9764D01*
X109004Y9691D01*
X108990Y9611D01*
X108931Y9436D01*
X108888Y9341D01*
X108844Y9254D01*
X108786Y9159D01*
X108720Y9065D01*
X108647Y8970D01*
X108560Y8882D01*
X108552Y8875D01*
X108538Y8860D01*
X108509Y8839D01*
X108472Y8809D01*
X108428Y8773D01*
X108370Y8737D01*
X108304Y8693D01*
X108224Y8656D01*
X108144Y8613D01*
X108049Y8569D01*
X107955Y8532D01*
X107845Y8496D01*
X107729Y8467D01*
X107605Y8445D01*
X107481Y8430D01*
X107342Y8423D01*
X107276D01*
X107233Y8430D01*
X107175Y8438D01*
X107109Y8445D01*
X107036Y8459D01*
X106956Y8474D01*
X106781Y8518D01*
X106599Y8591D01*
X106504Y8634D01*
X106416Y8685D01*
X106329Y8751D01*
X106241Y8817D01*
X106234Y8824D01*
X106219Y8839D01*
X106198Y8860D01*
X106176Y8890D01*
X106139Y8926D01*
X106103Y8977D01*
X106059Y9028D01*
X106015Y9094D01*
X105972Y9167D01*
X105928Y9240D01*
X105848Y9414D01*
X105782Y9619D01*
X105760Y9728D01*
X105746Y9844D01*
X106365Y9925D01*
Y9917D01*
X106373Y9903D01*
X106380Y9874D01*
X106387Y9837D01*
X106395Y9793D01*
X106409Y9742D01*
X106446Y9633D01*
X106497Y9502D01*
X106562Y9378D01*
X106635Y9261D01*
X106722Y9159D01*
X106737Y9152D01*
X106766Y9123D01*
X106825Y9086D01*
X106897Y9050D01*
X106985Y9006D01*
X107094Y8970D01*
X107218Y8941D01*
X107350Y8933D01*
X107393D01*
X107422Y8941D01*
X107502Y8948D01*
X107605Y8970D01*
X107721Y9006D01*
X107845Y9057D01*
X107969Y9130D01*
X108086Y9232D01*
X108100Y9247D01*
X108137Y9290D01*
X108180Y9356D01*
X108239Y9444D01*
X108297Y9553D01*
X108341Y9677D01*
X108377Y9823D01*
X108392Y9983D01*
Y9990D01*
Y10005D01*
Y10027D01*
X108385Y10056D01*
X108377Y10136D01*
X108355Y10231D01*
X108326Y10347D01*
X108275Y10464D01*
X108202Y10581D01*
X108108Y10690D01*
X108093Y10705D01*
X108057Y10734D01*
X107998Y10778D01*
X107918Y10829D01*
X107816Y10880D01*
X107692Y10924D01*
X107554Y10953D01*
X107401Y10967D01*
X107335D01*
X107284Y10960D01*
X107218Y10953D01*
X107145Y10938D01*
X107058Y10924D01*
X106963Y10902D01*
X107036Y11448D01*
X107072D01*
X107102Y11441D01*
X107196D01*
X107276Y11456D01*
X107371Y11470D01*
X107481Y11492D01*
X107605Y11529D01*
X107721Y11580D01*
X107845Y11645D01*
X107852D01*
X107860Y11653D01*
X107896Y11682D01*
X107947Y11733D01*
X108005Y11798D01*
X108064Y11893D01*
X108115Y12002D01*
X108151Y12126D01*
X108166Y12199D01*
Y12279D01*
Y12287D01*
Y12294D01*
Y12338D01*
X108151Y12396D01*
X108137Y12476D01*
X108108Y12564D01*
X108071Y12659D01*
X108013Y12753D01*
X107933Y12841D01*
X107925Y12848D01*
X107889Y12877D01*
X107838Y12914D01*
X107772Y12957D01*
X107685Y12994D01*
X107583Y13030D01*
X107466Y13059D01*
X107335Y13067D01*
X107276D01*
X107211Y13052D01*
X107123Y13038D01*
X107029Y13008D01*
X106934Y12972D01*
X106832Y12914D01*
X106737Y12841D01*
X106730Y12833D01*
X106701Y12797D01*
X106657Y12746D01*
X106606Y12673D01*
X106555Y12578D01*
X106504Y12462D01*
X106460Y12323D01*
X106431Y12163D01*
X105811Y12272D01*
Y12279D01*
X105819Y12301D01*
X105826Y12330D01*
X105833Y12374D01*
X105848Y12425D01*
X105870Y12483D01*
X105913Y12622D01*
X105986Y12782D01*
X106074Y12943D01*
X106183Y13096D01*
X106322Y13234D01*
X106329Y13242D01*
X106343Y13249D01*
X106365Y13264D01*
X106395Y13285D01*
X106431Y13315D01*
X106482Y13344D01*
X106533Y13373D01*
X106599Y13409D01*
X106744Y13468D01*
X106912Y13526D01*
X107109Y13562D01*
X107211Y13577D01*
X107393D01*
X107473Y13570D01*
D02*
G37*
G36*
X104900Y10114D02*
Y10107D01*
Y10085D01*
Y10056D01*
Y10012D01*
X104893Y9954D01*
Y9896D01*
X104878Y9757D01*
X104864Y9597D01*
X104834Y9429D01*
X104791Y9276D01*
X104740Y9130D01*
Y9123D01*
X104732Y9116D01*
X104710Y9072D01*
X104674Y9014D01*
X104623Y8933D01*
X104550Y8853D01*
X104470Y8766D01*
X104368Y8678D01*
X104251Y8605D01*
X104237Y8598D01*
X104193Y8576D01*
X104127Y8547D01*
X104033Y8518D01*
X103916Y8481D01*
X103785Y8452D01*
X103639Y8430D01*
X103479Y8423D01*
X103413D01*
X103369Y8430D01*
X103311Y8438D01*
X103252Y8445D01*
X103099Y8474D01*
X102939Y8518D01*
X102771Y8583D01*
X102684Y8627D01*
X102604Y8678D01*
X102531Y8737D01*
X102458Y8802D01*
X102451Y8809D01*
X102443Y8817D01*
X102429Y8846D01*
X102407Y8875D01*
X102378Y8911D01*
X102348Y8962D01*
X102319Y9021D01*
X102283Y9086D01*
X102254Y9159D01*
X102225Y9247D01*
X102195Y9334D01*
X102166Y9436D01*
X102152Y9546D01*
X102130Y9670D01*
X102122Y9793D01*
Y9932D01*
X102728Y10019D01*
Y10012D01*
Y9998D01*
Y9968D01*
X102735Y9925D01*
X102742Y9881D01*
Y9830D01*
X102764Y9706D01*
X102786Y9575D01*
X102830Y9444D01*
X102873Y9327D01*
X102902Y9276D01*
X102939Y9232D01*
X102946Y9225D01*
X102975Y9203D01*
X103019Y9167D01*
X103077Y9130D01*
X103158Y9086D01*
X103245Y9057D01*
X103355Y9028D01*
X103471Y9021D01*
X103515D01*
X103559Y9028D01*
X103624Y9035D01*
X103690Y9050D01*
X103763Y9065D01*
X103836Y9094D01*
X103909Y9130D01*
X103916Y9137D01*
X103938Y9152D01*
X103967Y9181D01*
X104011Y9210D01*
X104047Y9261D01*
X104091Y9312D01*
X104127Y9371D01*
X104156Y9444D01*
Y9451D01*
X104171Y9480D01*
X104178Y9531D01*
X104193Y9597D01*
X104208Y9684D01*
X104215Y9793D01*
X104229Y9925D01*
Y10078D01*
Y13555D01*
X104900D01*
Y10114D01*
D02*
G37*
G36*
X115376Y13570D02*
X115471Y13555D01*
X115580Y13533D01*
X115697Y13504D01*
X115820Y13468D01*
X115937Y13409D01*
X115944D01*
X115952Y13402D01*
X115988Y13380D01*
X116046Y13344D01*
X116119Y13293D01*
X116200Y13220D01*
X116287Y13140D01*
X116367Y13045D01*
X116447Y12935D01*
X116455Y12921D01*
X116484Y12885D01*
X116513Y12819D01*
X116564Y12724D01*
X116608Y12615D01*
X116666Y12491D01*
X116717Y12345D01*
X116761Y12185D01*
Y12177D01*
X116768Y12163D01*
X116775Y12141D01*
X116783Y12104D01*
X116790Y12061D01*
X116797Y12010D01*
X116812Y11944D01*
X116819Y11871D01*
X116834Y11791D01*
X116841Y11704D01*
X116848Y11601D01*
X116863Y11499D01*
X116870Y11383D01*
Y11266D01*
X116877Y11135D01*
Y10996D01*
Y10989D01*
Y10960D01*
Y10909D01*
Y10851D01*
X116870Y10770D01*
Y10683D01*
X116863Y10588D01*
X116856Y10486D01*
X116834Y10253D01*
X116797Y10012D01*
X116753Y9779D01*
X116724Y9670D01*
X116688Y9560D01*
Y9553D01*
X116681Y9538D01*
X116666Y9509D01*
X116651Y9473D01*
X116637Y9422D01*
X116608Y9371D01*
X116549Y9247D01*
X116477Y9116D01*
X116382Y8970D01*
X116272Y8839D01*
X116141Y8715D01*
X116134D01*
X116127Y8700D01*
X116105Y8685D01*
X116076Y8671D01*
X116039Y8649D01*
X116003Y8620D01*
X115893Y8569D01*
X115762Y8518D01*
X115609Y8467D01*
X115427Y8438D01*
X115230Y8423D01*
X115157D01*
X115106Y8430D01*
X115048Y8438D01*
X114975Y8452D01*
X114895Y8467D01*
X114807Y8489D01*
X114720Y8518D01*
X114625Y8547D01*
X114530Y8591D01*
X114435Y8642D01*
X114341Y8700D01*
X114246Y8773D01*
X114158Y8853D01*
X114078Y8941D01*
X114071Y8948D01*
X114056Y8970D01*
X114034Y9006D01*
X113998Y9065D01*
X113962Y9130D01*
X113925Y9218D01*
X113874Y9320D01*
X113830Y9436D01*
X113786Y9567D01*
X113743Y9721D01*
X113699Y9888D01*
X113663Y10078D01*
X113626Y10282D01*
X113604Y10501D01*
X113590Y10741D01*
X113582Y10996D01*
Y11004D01*
Y11033D01*
Y11084D01*
Y11142D01*
X113590Y11222D01*
Y11310D01*
X113597Y11405D01*
X113604Y11514D01*
X113626Y11740D01*
X113663Y11981D01*
X113706Y12221D01*
X113735Y12330D01*
X113765Y12440D01*
Y12447D01*
X113772Y12462D01*
X113786Y12491D01*
X113801Y12527D01*
X113816Y12578D01*
X113845Y12629D01*
X113903Y12753D01*
X113976Y12885D01*
X114071Y13023D01*
X114180Y13161D01*
X114311Y13278D01*
X114319D01*
X114326Y13293D01*
X114348Y13307D01*
X114377Y13322D01*
X114413Y13351D01*
X114457Y13373D01*
X114567Y13431D01*
X114698Y13482D01*
X114851Y13533D01*
X115033Y13562D01*
X115230Y13577D01*
X115296D01*
X115376Y13570D01*
D02*
G37*
G36*
X111454D02*
X111548Y13555D01*
X111658Y13533D01*
X111775Y13504D01*
X111898Y13468D01*
X112015Y13409D01*
X112022D01*
X112030Y13402D01*
X112066Y13380D01*
X112124Y13344D01*
X112197Y13293D01*
X112277Y13220D01*
X112365Y13140D01*
X112445Y13045D01*
X112525Y12935D01*
X112533Y12921D01*
X112562Y12885D01*
X112591Y12819D01*
X112642Y12724D01*
X112686Y12615D01*
X112744Y12491D01*
X112795Y12345D01*
X112839Y12185D01*
Y12177D01*
X112846Y12163D01*
X112853Y12141D01*
X112861Y12104D01*
X112868Y12061D01*
X112875Y12010D01*
X112890Y11944D01*
X112897Y11871D01*
X112912Y11791D01*
X112919Y11704D01*
X112926Y11601D01*
X112941Y11499D01*
X112948Y11383D01*
Y11266D01*
X112955Y11135D01*
Y10996D01*
Y10989D01*
Y10960D01*
Y10909D01*
Y10851D01*
X112948Y10770D01*
Y10683D01*
X112941Y10588D01*
X112934Y10486D01*
X112912Y10253D01*
X112875Y10012D01*
X112831Y9779D01*
X112802Y9670D01*
X112766Y9560D01*
Y9553D01*
X112759Y9538D01*
X112744Y9509D01*
X112730Y9473D01*
X112715Y9422D01*
X112686Y9371D01*
X112627Y9247D01*
X112555Y9116D01*
X112460Y8970D01*
X112350Y8839D01*
X112219Y8715D01*
X112212D01*
X112205Y8700D01*
X112183Y8685D01*
X112154Y8671D01*
X112117Y8649D01*
X112081Y8620D01*
X111971Y8569D01*
X111840Y8518D01*
X111687Y8467D01*
X111505Y8438D01*
X111308Y8423D01*
X111235D01*
X111184Y8430D01*
X111126Y8438D01*
X111053Y8452D01*
X110973Y8467D01*
X110885Y8489D01*
X110798Y8518D01*
X110703Y8547D01*
X110608Y8591D01*
X110513Y8642D01*
X110418Y8700D01*
X110324Y8773D01*
X110236Y8853D01*
X110156Y8941D01*
X110149Y8948D01*
X110134Y8970D01*
X110112Y9006D01*
X110076Y9065D01*
X110039Y9130D01*
X110003Y9218D01*
X109952Y9320D01*
X109908Y9436D01*
X109864Y9567D01*
X109821Y9721D01*
X109777Y9888D01*
X109741Y10078D01*
X109704Y10282D01*
X109682Y10501D01*
X109668Y10741D01*
X109660Y10996D01*
Y11004D01*
Y11033D01*
Y11084D01*
Y11142D01*
X109668Y11222D01*
Y11310D01*
X109675Y11405D01*
X109682Y11514D01*
X109704Y11740D01*
X109741Y11981D01*
X109784Y12221D01*
X109813Y12330D01*
X109843Y12440D01*
Y12447D01*
X109850Y12462D01*
X109864Y12491D01*
X109879Y12527D01*
X109894Y12578D01*
X109923Y12629D01*
X109981Y12753D01*
X110054Y12885D01*
X110149Y13023D01*
X110258Y13161D01*
X110389Y13278D01*
X110397D01*
X110404Y13293D01*
X110426Y13307D01*
X110455Y13322D01*
X110491Y13351D01*
X110535Y13373D01*
X110644Y13431D01*
X110776Y13482D01*
X110929Y13533D01*
X111111Y13562D01*
X111308Y13577D01*
X111373D01*
X111454Y13570D01*
D02*
G37*
G36*
X11279Y60189D02*
X12489D01*
Y59569D01*
X11279D01*
Y57375D01*
X10711D01*
X7445Y59686D01*
Y60189D01*
X10711D01*
Y60874D01*
X11279D01*
Y60189D01*
D02*
G37*
G36*
X10230Y56952D02*
X10317D01*
X10412Y56945D01*
X10514Y56937D01*
X10747Y56915D01*
X10988Y56879D01*
X11221Y56835D01*
X11330Y56806D01*
X11440Y56770D01*
X11447D01*
X11462Y56762D01*
X11491Y56748D01*
X11527Y56733D01*
X11578Y56718D01*
X11629Y56689D01*
X11753Y56631D01*
X11885Y56558D01*
X12030Y56463D01*
X12162Y56354D01*
X12285Y56223D01*
Y56216D01*
X12300Y56208D01*
X12315Y56186D01*
X12329Y56157D01*
X12351Y56121D01*
X12380Y56084D01*
X12431Y55975D01*
X12482Y55844D01*
X12533Y55691D01*
X12562Y55508D01*
X12577Y55312D01*
Y55239D01*
X12570Y55188D01*
X12562Y55129D01*
X12548Y55056D01*
X12533Y54976D01*
X12511Y54889D01*
X12482Y54801D01*
X12453Y54707D01*
X12409Y54612D01*
X12358Y54517D01*
X12300Y54422D01*
X12227Y54327D01*
X12147Y54240D01*
X12059Y54160D01*
X12052Y54153D01*
X12030Y54138D01*
X11994Y54116D01*
X11936Y54080D01*
X11870Y54043D01*
X11782Y54007D01*
X11680Y53956D01*
X11564Y53912D01*
X11433Y53868D01*
X11279Y53824D01*
X11112Y53781D01*
X10922Y53744D01*
X10718Y53708D01*
X10499Y53686D01*
X10259Y53671D01*
X10004Y53664D01*
X9996D01*
X9967D01*
X9916D01*
X9858D01*
X9778Y53671D01*
X9690D01*
X9595Y53679D01*
X9486Y53686D01*
X9260Y53708D01*
X9020Y53744D01*
X8779Y53788D01*
X8670Y53817D01*
X8560Y53846D01*
X8553D01*
X8538Y53854D01*
X8509Y53868D01*
X8473Y53883D01*
X8422Y53897D01*
X8371Y53926D01*
X8247Y53985D01*
X8116Y54058D01*
X7977Y54153D01*
X7839Y54262D01*
X7722Y54393D01*
Y54400D01*
X7707Y54408D01*
X7693Y54430D01*
X7678Y54459D01*
X7649Y54495D01*
X7627Y54539D01*
X7569Y54648D01*
X7518Y54779D01*
X7467Y54932D01*
X7438Y55115D01*
X7423Y55312D01*
Y55377D01*
X7430Y55457D01*
X7445Y55552D01*
X7467Y55661D01*
X7496Y55778D01*
X7532Y55902D01*
X7591Y56019D01*
Y56026D01*
X7598Y56033D01*
X7620Y56070D01*
X7656Y56128D01*
X7707Y56201D01*
X7780Y56281D01*
X7860Y56369D01*
X7955Y56449D01*
X8065Y56529D01*
X8079Y56536D01*
X8116Y56565D01*
X8181Y56595D01*
X8276Y56646D01*
X8385Y56689D01*
X8509Y56748D01*
X8655Y56799D01*
X8815Y56842D01*
X8823D01*
X8837Y56850D01*
X8859Y56857D01*
X8896Y56864D01*
X8939Y56872D01*
X8990Y56879D01*
X9056Y56893D01*
X9129Y56901D01*
X9209Y56915D01*
X9296Y56923D01*
X9399Y56930D01*
X9501Y56945D01*
X9617Y56952D01*
X9734D01*
X9865Y56959D01*
X10004D01*
X10011D01*
X10040D01*
X10091D01*
X10149D01*
X10230Y56952D01*
D02*
G37*
G36*
X12489Y49654D02*
X12482D01*
X12453D01*
X12409D01*
X12351Y49662D01*
X12285Y49669D01*
X12212Y49684D01*
X12140Y49698D01*
X12059Y49727D01*
X12052D01*
X12045Y49735D01*
X12001Y49749D01*
X11936Y49779D01*
X11848Y49822D01*
X11746Y49880D01*
X11629Y49953D01*
X11513Y50034D01*
X11389Y50136D01*
X11381D01*
X11374Y50150D01*
X11330Y50187D01*
X11265Y50252D01*
X11170Y50347D01*
X11061Y50456D01*
X10930Y50595D01*
X10784Y50763D01*
X10631Y50945D01*
X10623Y50952D01*
X10601Y50981D01*
X10565Y51025D01*
X10521Y51076D01*
X10463Y51142D01*
X10397Y51222D01*
X10324Y51302D01*
X10244Y51397D01*
X10069Y51579D01*
X9894Y51761D01*
X9807Y51849D01*
X9719Y51929D01*
X9639Y52002D01*
X9559Y52060D01*
X9552D01*
X9544Y52075D01*
X9522Y52089D01*
X9493Y52104D01*
X9413Y52155D01*
X9318Y52213D01*
X9202Y52264D01*
X9078Y52315D01*
X8939Y52345D01*
X8808Y52359D01*
X8801D01*
X8794D01*
X8750Y52352D01*
X8677Y52345D01*
X8597Y52323D01*
X8495Y52293D01*
X8393Y52242D01*
X8291Y52177D01*
X8188Y52089D01*
X8174Y52075D01*
X8145Y52038D01*
X8108Y51987D01*
X8057Y51907D01*
X8014Y51805D01*
X7970Y51688D01*
X7941Y51550D01*
X7933Y51397D01*
Y51353D01*
X7941Y51324D01*
X7948Y51236D01*
X7970Y51134D01*
X7999Y51025D01*
X8050Y50901D01*
X8116Y50784D01*
X8203Y50675D01*
X8218Y50661D01*
X8254Y50631D01*
X8312Y50588D01*
X8400Y50544D01*
X8502Y50493D01*
X8633Y50449D01*
X8779Y50420D01*
X8947Y50405D01*
X8881Y49771D01*
X8874D01*
X8852Y49779D01*
X8815D01*
X8764Y49786D01*
X8706Y49800D01*
X8640Y49815D01*
X8560Y49837D01*
X8480Y49859D01*
X8305Y49917D01*
X8130Y50005D01*
X8043Y50055D01*
X7955Y50121D01*
X7875Y50187D01*
X7802Y50260D01*
X7795Y50267D01*
X7788Y50282D01*
X7766Y50303D01*
X7744Y50340D01*
X7715Y50384D01*
X7685Y50435D01*
X7649Y50493D01*
X7613Y50566D01*
X7576Y50646D01*
X7540Y50733D01*
X7510Y50828D01*
X7481Y50930D01*
X7459Y51040D01*
X7438Y51156D01*
X7430Y51280D01*
X7423Y51411D01*
Y51484D01*
X7430Y51535D01*
X7438Y51594D01*
X7445Y51667D01*
X7459Y51747D01*
X7474Y51827D01*
X7525Y52017D01*
X7598Y52206D01*
X7642Y52301D01*
X7693Y52396D01*
X7758Y52483D01*
X7831Y52563D01*
X7839Y52570D01*
X7846Y52585D01*
X7875Y52600D01*
X7904Y52629D01*
X7941Y52665D01*
X7992Y52702D01*
X8043Y52738D01*
X8108Y52782D01*
X8247Y52855D01*
X8422Y52928D01*
X8509Y52957D01*
X8611Y52972D01*
X8713Y52986D01*
X8823Y52993D01*
X8837D01*
X8874D01*
X8932Y52986D01*
X9012Y52979D01*
X9100Y52964D01*
X9202Y52935D01*
X9311Y52906D01*
X9420Y52862D01*
X9435Y52855D01*
X9471Y52840D01*
X9530Y52811D01*
X9610Y52767D01*
X9697Y52709D01*
X9807Y52636D01*
X9916Y52549D01*
X10040Y52447D01*
X10055Y52432D01*
X10098Y52396D01*
X10135Y52359D01*
X10171Y52323D01*
X10215Y52279D01*
X10273Y52221D01*
X10332Y52162D01*
X10397Y52089D01*
X10470Y52017D01*
X10550Y51929D01*
X10631Y51834D01*
X10725Y51732D01*
X10820Y51616D01*
X10922Y51499D01*
X10930Y51492D01*
X10944Y51477D01*
X10966Y51448D01*
X10995Y51411D01*
X11039Y51368D01*
X11083Y51317D01*
X11177Y51200D01*
X11287Y51076D01*
X11396Y50959D01*
X11491Y50857D01*
X11527Y50814D01*
X11564Y50777D01*
X11571Y50770D01*
X11593Y50748D01*
X11622Y50719D01*
X11666Y50682D01*
X11717Y50646D01*
X11768Y50602D01*
X11892Y50515D01*
Y53001D01*
X12489D01*
Y49654D01*
D02*
G37*
G36*
X11046Y48896D02*
X11104D01*
X11243Y48882D01*
X11403Y48867D01*
X11571Y48838D01*
X11724Y48794D01*
X11870Y48743D01*
X11877D01*
X11885Y48736D01*
X11928Y48714D01*
X11987Y48678D01*
X12067Y48627D01*
X12147Y48554D01*
X12234Y48474D01*
X12322Y48371D01*
X12395Y48255D01*
X12402Y48240D01*
X12424Y48197D01*
X12453Y48131D01*
X12482Y48036D01*
X12519Y47919D01*
X12548Y47788D01*
X12570Y47642D01*
X12577Y47482D01*
Y47416D01*
X12570Y47373D01*
X12562Y47314D01*
X12555Y47256D01*
X12526Y47103D01*
X12482Y46943D01*
X12417Y46775D01*
X12373Y46687D01*
X12322Y46607D01*
X12263Y46534D01*
X12198Y46461D01*
X12191Y46454D01*
X12183Y46447D01*
X12154Y46432D01*
X12125Y46411D01*
X12089Y46381D01*
X12038Y46352D01*
X11979Y46323D01*
X11914Y46286D01*
X11841Y46257D01*
X11753Y46228D01*
X11666Y46199D01*
X11564Y46170D01*
X11454Y46155D01*
X11330Y46134D01*
X11207Y46126D01*
X11068D01*
X10981Y46731D01*
X10988D01*
X11002D01*
X11032D01*
X11075Y46738D01*
X11119Y46746D01*
X11170D01*
X11294Y46768D01*
X11425Y46790D01*
X11556Y46833D01*
X11673Y46877D01*
X11724Y46906D01*
X11768Y46943D01*
X11775Y46950D01*
X11797Y46979D01*
X11833Y47023D01*
X11870Y47081D01*
X11914Y47161D01*
X11943Y47249D01*
X11972Y47358D01*
X11979Y47475D01*
Y47519D01*
X11972Y47562D01*
X11965Y47628D01*
X11950Y47693D01*
X11936Y47766D01*
X11906Y47839D01*
X11870Y47912D01*
X11863Y47919D01*
X11848Y47941D01*
X11819Y47971D01*
X11790Y48014D01*
X11739Y48051D01*
X11688Y48094D01*
X11629Y48131D01*
X11556Y48160D01*
X11549D01*
X11520Y48175D01*
X11469Y48182D01*
X11403Y48197D01*
X11316Y48211D01*
X11207Y48218D01*
X11075Y48233D01*
X10922D01*
X7445D01*
Y48904D01*
X10886D01*
X10893D01*
X10915D01*
X10944D01*
X10988D01*
X11046Y48896D01*
D02*
G37*
G36*
X54918Y10114D02*
Y10107D01*
Y10085D01*
Y10056D01*
Y10012D01*
X54911Y9954D01*
Y9896D01*
X54896Y9757D01*
X54882Y9597D01*
X54853Y9429D01*
X54809Y9276D01*
X54758Y9130D01*
Y9123D01*
X54751Y9116D01*
X54729Y9072D01*
X54692Y9014D01*
X54641Y8933D01*
X54568Y8853D01*
X54488Y8766D01*
X54386Y8678D01*
X54269Y8605D01*
X54255Y8598D01*
X54211Y8576D01*
X54145Y8547D01*
X54051Y8518D01*
X53934Y8481D01*
X53803Y8452D01*
X53657Y8430D01*
X53497Y8423D01*
X53431D01*
X53387Y8430D01*
X53329Y8438D01*
X53271Y8445D01*
X53118Y8474D01*
X52957Y8518D01*
X52790Y8583D01*
X52702Y8627D01*
X52622Y8678D01*
X52549Y8737D01*
X52476Y8802D01*
X52469Y8809D01*
X52461Y8817D01*
X52447Y8846D01*
X52425Y8875D01*
X52396Y8911D01*
X52367Y8962D01*
X52338Y9021D01*
X52301Y9086D01*
X52272Y9159D01*
X52243Y9247D01*
X52214Y9334D01*
X52184Y9436D01*
X52170Y9546D01*
X52148Y9670D01*
X52141Y9793D01*
Y9932D01*
X52746Y10019D01*
Y10012D01*
Y9998D01*
Y9968D01*
X52753Y9925D01*
X52760Y9881D01*
Y9830D01*
X52782Y9706D01*
X52804Y9575D01*
X52848Y9444D01*
X52892Y9327D01*
X52921Y9276D01*
X52957Y9232D01*
X52965Y9225D01*
X52994Y9203D01*
X53037Y9167D01*
X53096Y9130D01*
X53176Y9086D01*
X53263Y9057D01*
X53373Y9028D01*
X53489Y9021D01*
X53533D01*
X53577Y9028D01*
X53642Y9035D01*
X53708Y9050D01*
X53781Y9065D01*
X53854Y9094D01*
X53927Y9130D01*
X53934Y9137D01*
X53956Y9152D01*
X53985Y9181D01*
X54029Y9210D01*
X54065Y9261D01*
X54109Y9312D01*
X54145Y9371D01*
X54175Y9444D01*
Y9451D01*
X54189Y9480D01*
X54197Y9531D01*
X54211Y9597D01*
X54226Y9684D01*
X54233Y9793D01*
X54248Y9925D01*
Y10078D01*
Y13555D01*
X54918D01*
Y10114D01*
D02*
G37*
G36*
X65394Y13570D02*
X65452Y13562D01*
X65525Y13555D01*
X65605Y13541D01*
X65686Y13526D01*
X65875Y13475D01*
X66065Y13402D01*
X66159Y13358D01*
X66254Y13307D01*
X66342Y13242D01*
X66422Y13169D01*
X66429Y13161D01*
X66444Y13154D01*
X66458Y13125D01*
X66487Y13096D01*
X66524Y13059D01*
X66560Y13008D01*
X66597Y12957D01*
X66641Y12892D01*
X66714Y12753D01*
X66786Y12578D01*
X66816Y12491D01*
X66830Y12389D01*
X66845Y12287D01*
X66852Y12177D01*
Y12163D01*
Y12126D01*
X66845Y12068D01*
X66837Y11988D01*
X66823Y11900D01*
X66794Y11798D01*
X66764Y11689D01*
X66721Y11580D01*
X66714Y11565D01*
X66699Y11529D01*
X66670Y11470D01*
X66626Y11390D01*
X66568Y11303D01*
X66495Y11193D01*
X66407Y11084D01*
X66305Y10960D01*
X66291Y10945D01*
X66254Y10902D01*
X66218Y10865D01*
X66181Y10829D01*
X66137Y10785D01*
X66079Y10727D01*
X66021Y10668D01*
X65948Y10603D01*
X65875Y10530D01*
X65788Y10450D01*
X65693Y10369D01*
X65591Y10275D01*
X65474Y10180D01*
X65358Y10078D01*
X65350Y10070D01*
X65336Y10056D01*
X65307Y10034D01*
X65270Y10005D01*
X65226Y9961D01*
X65175Y9917D01*
X65059Y9823D01*
X64935Y9713D01*
X64818Y9604D01*
X64716Y9509D01*
X64672Y9473D01*
X64636Y9436D01*
X64628Y9429D01*
X64607Y9407D01*
X64578Y9378D01*
X64541Y9334D01*
X64505Y9283D01*
X64461Y9232D01*
X64373Y9108D01*
X66859D01*
Y8511D01*
X63513D01*
Y8518D01*
Y8547D01*
Y8591D01*
X63520Y8649D01*
X63528Y8715D01*
X63542Y8788D01*
X63557Y8860D01*
X63586Y8941D01*
Y8948D01*
X63593Y8955D01*
X63608Y8999D01*
X63637Y9065D01*
X63681Y9152D01*
X63739Y9254D01*
X63812Y9371D01*
X63892Y9487D01*
X63994Y9611D01*
Y9619D01*
X64009Y9626D01*
X64045Y9670D01*
X64111Y9735D01*
X64206Y9830D01*
X64315Y9939D01*
X64454Y10070D01*
X64621Y10216D01*
X64803Y10369D01*
X64811Y10377D01*
X64840Y10399D01*
X64884Y10435D01*
X64935Y10479D01*
X65000Y10537D01*
X65080Y10603D01*
X65161Y10676D01*
X65255Y10756D01*
X65438Y10931D01*
X65620Y11106D01*
X65707Y11193D01*
X65788Y11281D01*
X65860Y11361D01*
X65919Y11441D01*
Y11448D01*
X65933Y11456D01*
X65948Y11478D01*
X65963Y11507D01*
X66014Y11587D01*
X66072Y11682D01*
X66123Y11798D01*
X66174Y11922D01*
X66203Y12061D01*
X66218Y12192D01*
Y12199D01*
Y12207D01*
X66211Y12250D01*
X66203Y12323D01*
X66181Y12403D01*
X66152Y12505D01*
X66101Y12607D01*
X66035Y12709D01*
X65948Y12812D01*
X65933Y12826D01*
X65897Y12855D01*
X65846Y12892D01*
X65766Y12943D01*
X65664Y12987D01*
X65547Y13030D01*
X65409Y13059D01*
X65255Y13067D01*
X65212D01*
X65183Y13059D01*
X65095Y13052D01*
X64993Y13030D01*
X64884Y13001D01*
X64760Y12950D01*
X64643Y12885D01*
X64534Y12797D01*
X64519Y12782D01*
X64490Y12746D01*
X64446Y12688D01*
X64403Y12600D01*
X64351Y12498D01*
X64308Y12367D01*
X64279Y12221D01*
X64264Y12053D01*
X63630Y12119D01*
Y12126D01*
X63637Y12148D01*
Y12185D01*
X63644Y12236D01*
X63659Y12294D01*
X63674Y12360D01*
X63695Y12440D01*
X63717Y12520D01*
X63776Y12695D01*
X63863Y12870D01*
X63914Y12957D01*
X63980Y13045D01*
X64045Y13125D01*
X64118Y13198D01*
X64126Y13205D01*
X64140Y13213D01*
X64162Y13234D01*
X64198Y13256D01*
X64242Y13285D01*
X64293Y13315D01*
X64351Y13351D01*
X64424Y13387D01*
X64505Y13424D01*
X64592Y13460D01*
X64687Y13489D01*
X64789Y13519D01*
X64898Y13541D01*
X65015Y13562D01*
X65139Y13570D01*
X65270Y13577D01*
X65343D01*
X65394Y13570D01*
D02*
G37*
G36*
X57550D02*
X57608Y13562D01*
X57681Y13555D01*
X57761Y13541D01*
X57841Y13526D01*
X58031Y13475D01*
X58221Y13402D01*
X58315Y13358D01*
X58410Y13307D01*
X58498Y13242D01*
X58578Y13169D01*
X58585Y13161D01*
X58600Y13154D01*
X58614Y13125D01*
X58643Y13096D01*
X58680Y13059D01*
X58716Y13008D01*
X58753Y12957D01*
X58797Y12892D01*
X58869Y12753D01*
X58942Y12578D01*
X58972Y12491D01*
X58986Y12389D01*
X59001Y12287D01*
X59008Y12177D01*
Y12163D01*
Y12126D01*
X59001Y12068D01*
X58993Y11988D01*
X58979Y11900D01*
X58950Y11798D01*
X58921Y11689D01*
X58877Y11580D01*
X58869Y11565D01*
X58855Y11529D01*
X58826Y11470D01*
X58782Y11390D01*
X58724Y11303D01*
X58651Y11193D01*
X58563Y11084D01*
X58461Y10960D01*
X58447Y10945D01*
X58410Y10902D01*
X58374Y10865D01*
X58337Y10829D01*
X58293Y10785D01*
X58235Y10727D01*
X58177Y10668D01*
X58104Y10603D01*
X58031Y10530D01*
X57944Y10450D01*
X57849Y10369D01*
X57747Y10275D01*
X57630Y10180D01*
X57513Y10078D01*
X57506Y10070D01*
X57492Y10056D01*
X57463Y10034D01*
X57426Y10005D01*
X57382Y9961D01*
X57331Y9917D01*
X57215Y9823D01*
X57091Y9713D01*
X56974Y9604D01*
X56872Y9509D01*
X56828Y9473D01*
X56792Y9436D01*
X56784Y9429D01*
X56763Y9407D01*
X56734Y9378D01*
X56697Y9334D01*
X56661Y9283D01*
X56617Y9232D01*
X56529Y9108D01*
X59015D01*
Y8511D01*
X55669D01*
Y8518D01*
Y8547D01*
Y8591D01*
X55676Y8649D01*
X55684Y8715D01*
X55698Y8788D01*
X55713Y8860D01*
X55742Y8941D01*
Y8948D01*
X55749Y8955D01*
X55764Y8999D01*
X55793Y9065D01*
X55837Y9152D01*
X55895Y9254D01*
X55968Y9371D01*
X56048Y9487D01*
X56150Y9611D01*
Y9619D01*
X56165Y9626D01*
X56201Y9670D01*
X56267Y9735D01*
X56362Y9830D01*
X56471Y9939D01*
X56609Y10070D01*
X56777Y10216D01*
X56959Y10369D01*
X56967Y10377D01*
X56996Y10399D01*
X57040Y10435D01*
X57091Y10479D01*
X57156Y10537D01*
X57236Y10603D01*
X57317Y10676D01*
X57411Y10756D01*
X57594Y10931D01*
X57776Y11106D01*
X57863Y11193D01*
X57944Y11281D01*
X58017Y11361D01*
X58075Y11441D01*
Y11448D01*
X58089Y11456D01*
X58104Y11478D01*
X58119Y11507D01*
X58170Y11587D01*
X58228Y11682D01*
X58279Y11798D01*
X58330Y11922D01*
X58359Y12061D01*
X58374Y12192D01*
Y12199D01*
Y12207D01*
X58366Y12250D01*
X58359Y12323D01*
X58337Y12403D01*
X58308Y12505D01*
X58257Y12607D01*
X58191Y12709D01*
X58104Y12812D01*
X58089Y12826D01*
X58053Y12855D01*
X58002Y12892D01*
X57922Y12943D01*
X57820Y12987D01*
X57703Y13030D01*
X57565Y13059D01*
X57411Y13067D01*
X57368D01*
X57339Y13059D01*
X57251Y13052D01*
X57149Y13030D01*
X57040Y13001D01*
X56916Y12950D01*
X56799Y12885D01*
X56690Y12797D01*
X56675Y12782D01*
X56646Y12746D01*
X56602Y12688D01*
X56559Y12600D01*
X56507Y12498D01*
X56464Y12367D01*
X56435Y12221D01*
X56420Y12053D01*
X55786Y12119D01*
Y12126D01*
X55793Y12148D01*
Y12185D01*
X55800Y12236D01*
X55815Y12294D01*
X55830Y12360D01*
X55851Y12440D01*
X55873Y12520D01*
X55932Y12695D01*
X56019Y12870D01*
X56070Y12957D01*
X56136Y13045D01*
X56201Y13125D01*
X56274Y13198D01*
X56282Y13205D01*
X56296Y13213D01*
X56318Y13234D01*
X56354Y13256D01*
X56398Y13285D01*
X56449Y13315D01*
X56507Y13351D01*
X56580Y13387D01*
X56661Y13424D01*
X56748Y13460D01*
X56843Y13489D01*
X56945Y13519D01*
X57054Y13541D01*
X57171Y13562D01*
X57295Y13570D01*
X57426Y13577D01*
X57499D01*
X57550Y13570D01*
D02*
G37*
G36*
X61472D02*
X61567Y13555D01*
X61676Y13533D01*
X61793Y13504D01*
X61917Y13468D01*
X62033Y13409D01*
X62041D01*
X62048Y13402D01*
X62084Y13380D01*
X62143Y13344D01*
X62216Y13293D01*
X62296Y13220D01*
X62383Y13140D01*
X62463Y13045D01*
X62544Y12935D01*
X62551Y12921D01*
X62580Y12885D01*
X62609Y12819D01*
X62660Y12724D01*
X62704Y12615D01*
X62762Y12491D01*
X62813Y12345D01*
X62857Y12185D01*
Y12177D01*
X62864Y12163D01*
X62872Y12141D01*
X62879Y12104D01*
X62886Y12061D01*
X62893Y12010D01*
X62908Y11944D01*
X62915Y11871D01*
X62930Y11791D01*
X62937Y11704D01*
X62945Y11601D01*
X62959Y11499D01*
X62966Y11383D01*
Y11266D01*
X62974Y11135D01*
Y10996D01*
Y10989D01*
Y10960D01*
Y10909D01*
Y10851D01*
X62966Y10770D01*
Y10683D01*
X62959Y10588D01*
X62952Y10486D01*
X62930Y10253D01*
X62893Y10012D01*
X62850Y9779D01*
X62821Y9670D01*
X62784Y9560D01*
Y9553D01*
X62777Y9538D01*
X62762Y9509D01*
X62748Y9473D01*
X62733Y9422D01*
X62704Y9371D01*
X62646Y9247D01*
X62573Y9116D01*
X62478Y8970D01*
X62369Y8839D01*
X62237Y8715D01*
X62230D01*
X62223Y8700D01*
X62201Y8685D01*
X62172Y8671D01*
X62135Y8649D01*
X62099Y8620D01*
X61989Y8569D01*
X61858Y8518D01*
X61705Y8467D01*
X61523Y8438D01*
X61326Y8423D01*
X61253D01*
X61202Y8430D01*
X61144Y8438D01*
X61071Y8452D01*
X60991Y8467D01*
X60903Y8489D01*
X60816Y8518D01*
X60721Y8547D01*
X60626Y8591D01*
X60532Y8642D01*
X60437Y8700D01*
X60342Y8773D01*
X60255Y8853D01*
X60174Y8941D01*
X60167Y8948D01*
X60153Y8970D01*
X60131Y9006D01*
X60094Y9065D01*
X60058Y9130D01*
X60021Y9218D01*
X59970Y9320D01*
X59926Y9436D01*
X59883Y9567D01*
X59839Y9721D01*
X59795Y9888D01*
X59759Y10078D01*
X59722Y10282D01*
X59701Y10501D01*
X59686Y10741D01*
X59679Y10996D01*
Y11004D01*
Y11033D01*
Y11084D01*
Y11142D01*
X59686Y11222D01*
Y11310D01*
X59693Y11405D01*
X59701Y11514D01*
X59722Y11740D01*
X59759Y11981D01*
X59803Y12221D01*
X59832Y12330D01*
X59861Y12440D01*
Y12447D01*
X59868Y12462D01*
X59883Y12491D01*
X59897Y12527D01*
X59912Y12578D01*
X59941Y12629D01*
X59999Y12753D01*
X60072Y12885D01*
X60167Y13023D01*
X60276Y13161D01*
X60408Y13278D01*
X60415D01*
X60422Y13293D01*
X60444Y13307D01*
X60473Y13322D01*
X60510Y13351D01*
X60553Y13373D01*
X60663Y13431D01*
X60794Y13482D01*
X60947Y13533D01*
X61129Y13562D01*
X61326Y13577D01*
X61392D01*
X61472Y13570D01*
D02*
G37*
G36*
X151900Y10114D02*
Y10107D01*
Y10085D01*
Y10056D01*
Y10012D01*
X151893Y9954D01*
Y9896D01*
X151878Y9757D01*
X151864Y9597D01*
X151834Y9429D01*
X151791Y9276D01*
X151740Y9130D01*
Y9123D01*
X151732Y9116D01*
X151710Y9072D01*
X151674Y9014D01*
X151623Y8933D01*
X151550Y8853D01*
X151470Y8766D01*
X151368Y8678D01*
X151251Y8605D01*
X151237Y8598D01*
X151193Y8576D01*
X151127Y8547D01*
X151032Y8518D01*
X150916Y8481D01*
X150785Y8452D01*
X150639Y8430D01*
X150478Y8423D01*
X150413D01*
X150369Y8430D01*
X150311Y8438D01*
X150252Y8445D01*
X150099Y8474D01*
X149939Y8518D01*
X149771Y8583D01*
X149684Y8627D01*
X149604Y8678D01*
X149531Y8737D01*
X149458Y8802D01*
X149451Y8809D01*
X149443Y8817D01*
X149429Y8846D01*
X149407Y8875D01*
X149378Y8911D01*
X149348Y8962D01*
X149319Y9021D01*
X149283Y9086D01*
X149254Y9159D01*
X149225Y9247D01*
X149195Y9334D01*
X149166Y9436D01*
X149152Y9546D01*
X149130Y9670D01*
X149123Y9793D01*
Y9932D01*
X149728Y10019D01*
Y10012D01*
Y9998D01*
Y9968D01*
X149735Y9925D01*
X149742Y9881D01*
Y9830D01*
X149764Y9706D01*
X149786Y9575D01*
X149830Y9444D01*
X149873Y9327D01*
X149902Y9276D01*
X149939Y9232D01*
X149946Y9225D01*
X149976Y9203D01*
X150019Y9167D01*
X150077Y9130D01*
X150158Y9086D01*
X150245Y9057D01*
X150355Y9028D01*
X150471Y9021D01*
X150515D01*
X150559Y9028D01*
X150624Y9035D01*
X150690Y9050D01*
X150763Y9065D01*
X150836Y9094D01*
X150909Y9130D01*
X150916Y9137D01*
X150938Y9152D01*
X150967Y9181D01*
X151011Y9210D01*
X151047Y9261D01*
X151091Y9312D01*
X151127Y9371D01*
X151156Y9444D01*
Y9451D01*
X151171Y9480D01*
X151178Y9531D01*
X151193Y9597D01*
X151207Y9684D01*
X151215Y9793D01*
X151229Y9925D01*
Y10078D01*
Y13555D01*
X151900D01*
Y10114D01*
D02*
G37*
G36*
X154532Y13570D02*
X154590Y13562D01*
X154663Y13555D01*
X154743Y13541D01*
X154823Y13526D01*
X155013Y13475D01*
X155202Y13402D01*
X155297Y13358D01*
X155392Y13307D01*
X155479Y13242D01*
X155560Y13169D01*
X155567Y13161D01*
X155581Y13154D01*
X155596Y13125D01*
X155625Y13096D01*
X155662Y13059D01*
X155698Y13008D01*
X155735Y12957D01*
X155778Y12892D01*
X155851Y12753D01*
X155924Y12578D01*
X155953Y12491D01*
X155968Y12389D01*
X155982Y12287D01*
X155990Y12177D01*
Y12163D01*
Y12126D01*
X155982Y12068D01*
X155975Y11988D01*
X155961Y11900D01*
X155931Y11798D01*
X155902Y11689D01*
X155859Y11580D01*
X155851Y11565D01*
X155837Y11529D01*
X155807Y11470D01*
X155764Y11390D01*
X155705Y11303D01*
X155632Y11193D01*
X155545Y11084D01*
X155443Y10960D01*
X155428Y10945D01*
X155392Y10902D01*
X155356Y10865D01*
X155319Y10829D01*
X155275Y10785D01*
X155217Y10727D01*
X155159Y10668D01*
X155086Y10603D01*
X155013Y10530D01*
X154925Y10450D01*
X154831Y10369D01*
X154728Y10275D01*
X154612Y10180D01*
X154495Y10078D01*
X154488Y10070D01*
X154473Y10056D01*
X154444Y10034D01*
X154408Y10005D01*
X154364Y9961D01*
X154313Y9917D01*
X154196Y9823D01*
X154072Y9713D01*
X153956Y9604D01*
X153854Y9509D01*
X153810Y9473D01*
X153773Y9436D01*
X153766Y9429D01*
X153744Y9407D01*
X153715Y9378D01*
X153679Y9334D01*
X153642Y9283D01*
X153599Y9232D01*
X153511Y9108D01*
X155997D01*
Y8511D01*
X152651D01*
Y8518D01*
Y8547D01*
Y8591D01*
X152658Y8649D01*
X152665Y8715D01*
X152680Y8788D01*
X152695Y8860D01*
X152724Y8941D01*
Y8948D01*
X152731Y8955D01*
X152746Y8999D01*
X152775Y9065D01*
X152819Y9152D01*
X152877Y9254D01*
X152950Y9371D01*
X153030Y9487D01*
X153132Y9611D01*
Y9619D01*
X153147Y9626D01*
X153183Y9670D01*
X153249Y9735D01*
X153343Y9830D01*
X153453Y9939D01*
X153591Y10070D01*
X153759Y10216D01*
X153941Y10369D01*
X153948Y10377D01*
X153978Y10399D01*
X154021Y10435D01*
X154072Y10479D01*
X154138Y10537D01*
X154218Y10603D01*
X154298Y10676D01*
X154393Y10756D01*
X154575Y10931D01*
X154758Y11106D01*
X154845Y11193D01*
X154925Y11281D01*
X154998Y11361D01*
X155057Y11441D01*
Y11448D01*
X155071Y11456D01*
X155086Y11478D01*
X155100Y11507D01*
X155151Y11587D01*
X155210Y11682D01*
X155261Y11798D01*
X155312Y11922D01*
X155341Y12061D01*
X155356Y12192D01*
Y12199D01*
Y12207D01*
X155348Y12250D01*
X155341Y12323D01*
X155319Y12403D01*
X155290Y12505D01*
X155239Y12607D01*
X155173Y12709D01*
X155086Y12812D01*
X155071Y12826D01*
X155035Y12855D01*
X154984Y12892D01*
X154903Y12943D01*
X154801Y12987D01*
X154685Y13030D01*
X154546Y13059D01*
X154393Y13067D01*
X154350D01*
X154320Y13059D01*
X154233Y13052D01*
X154131Y13030D01*
X154021Y13001D01*
X153898Y12950D01*
X153781Y12885D01*
X153672Y12797D01*
X153657Y12782D01*
X153628Y12746D01*
X153584Y12688D01*
X153540Y12600D01*
X153489Y12498D01*
X153445Y12367D01*
X153416Y12221D01*
X153402Y12053D01*
X152768Y12119D01*
Y12126D01*
X152775Y12148D01*
Y12185D01*
X152782Y12236D01*
X152797Y12294D01*
X152811Y12360D01*
X152833Y12440D01*
X152855Y12520D01*
X152913Y12695D01*
X153001Y12870D01*
X153052Y12957D01*
X153117Y13045D01*
X153183Y13125D01*
X153256Y13198D01*
X153263Y13205D01*
X153278Y13213D01*
X153300Y13234D01*
X153336Y13256D01*
X153380Y13285D01*
X153431Y13315D01*
X153489Y13351D01*
X153562Y13387D01*
X153642Y13424D01*
X153730Y13460D01*
X153825Y13489D01*
X153927Y13519D01*
X154036Y13541D01*
X154153Y13562D01*
X154277Y13570D01*
X154408Y13577D01*
X154481D01*
X154532Y13570D01*
D02*
G37*
G36*
X162376D02*
X162470Y13555D01*
X162580Y13533D01*
X162697Y13504D01*
X162820Y13468D01*
X162937Y13409D01*
X162944D01*
X162952Y13402D01*
X162988Y13380D01*
X163046Y13344D01*
X163119Y13293D01*
X163199Y13220D01*
X163287Y13140D01*
X163367Y13045D01*
X163447Y12935D01*
X163455Y12921D01*
X163484Y12885D01*
X163513Y12819D01*
X163564Y12724D01*
X163608Y12615D01*
X163666Y12491D01*
X163717Y12345D01*
X163761Y12185D01*
Y12177D01*
X163768Y12163D01*
X163775Y12141D01*
X163783Y12104D01*
X163790Y12061D01*
X163797Y12010D01*
X163812Y11944D01*
X163819Y11871D01*
X163834Y11791D01*
X163841Y11704D01*
X163848Y11601D01*
X163863Y11499D01*
X163870Y11383D01*
Y11266D01*
X163877Y11135D01*
Y10996D01*
Y10989D01*
Y10960D01*
Y10909D01*
Y10851D01*
X163870Y10770D01*
Y10683D01*
X163863Y10588D01*
X163856Y10486D01*
X163834Y10253D01*
X163797Y10012D01*
X163753Y9779D01*
X163724Y9670D01*
X163688Y9560D01*
Y9553D01*
X163681Y9538D01*
X163666Y9509D01*
X163652Y9473D01*
X163637Y9422D01*
X163608Y9371D01*
X163549Y9247D01*
X163477Y9116D01*
X163382Y8970D01*
X163272Y8839D01*
X163141Y8715D01*
X163134D01*
X163127Y8700D01*
X163105Y8685D01*
X163076Y8671D01*
X163039Y8649D01*
X163003Y8620D01*
X162893Y8569D01*
X162762Y8518D01*
X162609Y8467D01*
X162427Y8438D01*
X162230Y8423D01*
X162157D01*
X162106Y8430D01*
X162048Y8438D01*
X161975Y8452D01*
X161895Y8467D01*
X161807Y8489D01*
X161720Y8518D01*
X161625Y8547D01*
X161530Y8591D01*
X161435Y8642D01*
X161341Y8700D01*
X161246Y8773D01*
X161158Y8853D01*
X161078Y8941D01*
X161071Y8948D01*
X161056Y8970D01*
X161034Y9006D01*
X160998Y9065D01*
X160961Y9130D01*
X160925Y9218D01*
X160874Y9320D01*
X160830Y9436D01*
X160786Y9567D01*
X160743Y9721D01*
X160699Y9888D01*
X160663Y10078D01*
X160626Y10282D01*
X160604Y10501D01*
X160590Y10741D01*
X160582Y10996D01*
Y11004D01*
Y11033D01*
Y11084D01*
Y11142D01*
X160590Y11222D01*
Y11310D01*
X160597Y11405D01*
X160604Y11514D01*
X160626Y11740D01*
X160663Y11981D01*
X160706Y12221D01*
X160735Y12330D01*
X160765Y12440D01*
Y12447D01*
X160772Y12462D01*
X160786Y12491D01*
X160801Y12527D01*
X160816Y12578D01*
X160845Y12629D01*
X160903Y12753D01*
X160976Y12885D01*
X161071Y13023D01*
X161180Y13161D01*
X161311Y13278D01*
X161319D01*
X161326Y13293D01*
X161348Y13307D01*
X161377Y13322D01*
X161414Y13351D01*
X161457Y13373D01*
X161567Y13431D01*
X161698Y13482D01*
X161851Y13533D01*
X162033Y13562D01*
X162230Y13577D01*
X162296D01*
X162376Y13570D01*
D02*
G37*
G36*
X158454D02*
X158548Y13555D01*
X158658Y13533D01*
X158774Y13504D01*
X158898Y13468D01*
X159015Y13409D01*
X159022D01*
X159030Y13402D01*
X159066Y13380D01*
X159124Y13344D01*
X159197Y13293D01*
X159277Y13220D01*
X159365Y13140D01*
X159445Y13045D01*
X159525Y12935D01*
X159533Y12921D01*
X159562Y12885D01*
X159591Y12819D01*
X159642Y12724D01*
X159686Y12615D01*
X159744Y12491D01*
X159795Y12345D01*
X159839Y12185D01*
Y12177D01*
X159846Y12163D01*
X159853Y12141D01*
X159861Y12104D01*
X159868Y12061D01*
X159875Y12010D01*
X159890Y11944D01*
X159897Y11871D01*
X159912Y11791D01*
X159919Y11704D01*
X159926Y11601D01*
X159941Y11499D01*
X159948Y11383D01*
Y11266D01*
X159956Y11135D01*
Y10996D01*
Y10989D01*
Y10960D01*
Y10909D01*
Y10851D01*
X159948Y10770D01*
Y10683D01*
X159941Y10588D01*
X159934Y10486D01*
X159912Y10253D01*
X159875Y10012D01*
X159832Y9779D01*
X159802Y9670D01*
X159766Y9560D01*
Y9553D01*
X159759Y9538D01*
X159744Y9509D01*
X159730Y9473D01*
X159715Y9422D01*
X159686Y9371D01*
X159627Y9247D01*
X159555Y9116D01*
X159460Y8970D01*
X159350Y8839D01*
X159219Y8715D01*
X159212D01*
X159205Y8700D01*
X159183Y8685D01*
X159154Y8671D01*
X159117Y8649D01*
X159081Y8620D01*
X158971Y8569D01*
X158840Y8518D01*
X158687Y8467D01*
X158505Y8438D01*
X158308Y8423D01*
X158235D01*
X158184Y8430D01*
X158126Y8438D01*
X158053Y8452D01*
X157973Y8467D01*
X157885Y8489D01*
X157798Y8518D01*
X157703Y8547D01*
X157608Y8591D01*
X157513Y8642D01*
X157419Y8700D01*
X157324Y8773D01*
X157236Y8853D01*
X157156Y8941D01*
X157149Y8948D01*
X157134Y8970D01*
X157112Y9006D01*
X157076Y9065D01*
X157039Y9130D01*
X157003Y9218D01*
X156952Y9320D01*
X156908Y9436D01*
X156865Y9567D01*
X156821Y9721D01*
X156777Y9888D01*
X156741Y10078D01*
X156704Y10282D01*
X156682Y10501D01*
X156668Y10741D01*
X156660Y10996D01*
Y11004D01*
Y11033D01*
Y11084D01*
Y11142D01*
X156668Y11222D01*
Y11310D01*
X156675Y11405D01*
X156682Y11514D01*
X156704Y11740D01*
X156741Y11981D01*
X156784Y12221D01*
X156814Y12330D01*
X156843Y12440D01*
Y12447D01*
X156850Y12462D01*
X156865Y12491D01*
X156879Y12527D01*
X156894Y12578D01*
X156923Y12629D01*
X156981Y12753D01*
X157054Y12885D01*
X157149Y13023D01*
X157258Y13161D01*
X157389Y13278D01*
X157397D01*
X157404Y13293D01*
X157426Y13307D01*
X157455Y13322D01*
X157491Y13351D01*
X157535Y13373D01*
X157644Y13431D01*
X157776Y13482D01*
X157929Y13533D01*
X158111Y13562D01*
X158308Y13577D01*
X158373D01*
X158454Y13570D01*
D02*
G37*
G36*
X219006Y18839D02*
X218386D01*
Y20757D01*
X219006D01*
Y18839D01*
D02*
G37*
G36*
X220522Y17724D02*
X217978Y15931D01*
X218773Y15107D01*
X220522D01*
Y14436D01*
X215478D01*
Y15107D01*
X217985D01*
X215478Y17600D01*
Y18511D01*
X217526Y16397D01*
X220522Y18606D01*
Y17724D01*
D02*
G37*
G36*
Y12986D02*
X219473Y12322D01*
X219465D01*
X219451Y12308D01*
X219429Y12293D01*
X219400Y12271D01*
X219320Y12220D01*
X219217Y12155D01*
X219108Y12074D01*
X218991Y11994D01*
X218882Y11914D01*
X218780Y11841D01*
X218773Y11834D01*
X218744Y11812D01*
X218700Y11776D01*
X218649Y11724D01*
X218539Y11615D01*
X218488Y11557D01*
X218445Y11498D01*
X218437Y11491D01*
X218430Y11477D01*
X218415Y11447D01*
X218394Y11404D01*
X218372Y11360D01*
X218350Y11309D01*
X218314Y11192D01*
Y11185D01*
X218306Y11170D01*
Y11141D01*
X218299Y11105D01*
X218292Y11054D01*
Y10995D01*
X218284Y10915D01*
Y10055D01*
X220522D01*
Y9384D01*
X215478D01*
Y11724D01*
X215485Y11783D01*
Y11848D01*
X215492Y12001D01*
X215514Y12162D01*
X215536Y12337D01*
X215572Y12497D01*
X215594Y12577D01*
X215616Y12643D01*
Y12650D01*
X215623Y12658D01*
X215645Y12701D01*
X215674Y12767D01*
X215725Y12847D01*
X215791Y12935D01*
X215879Y13029D01*
X215981Y13117D01*
X216097Y13204D01*
X216105D01*
X216112Y13212D01*
X216156Y13241D01*
X216229Y13270D01*
X216323Y13314D01*
X216433Y13350D01*
X216564Y13386D01*
X216702Y13408D01*
X216856Y13416D01*
X216863D01*
X216877D01*
X216906D01*
X216943Y13408D01*
X216994D01*
X217045Y13401D01*
X217169Y13372D01*
X217315Y13328D01*
X217468Y13270D01*
X217621Y13182D01*
X217694Y13124D01*
X217767Y13066D01*
X217774Y13058D01*
X217781Y13051D01*
X217803Y13029D01*
X217825Y13000D01*
X217854Y12964D01*
X217883Y12920D01*
X217920Y12862D01*
X217964Y12803D01*
X218000Y12731D01*
X218036Y12650D01*
X218080Y12563D01*
X218117Y12468D01*
X218146Y12359D01*
X218182Y12249D01*
X218204Y12125D01*
X218226Y11994D01*
X218233Y12009D01*
X218248Y12038D01*
X218277Y12082D01*
X218306Y12140D01*
X218386Y12271D01*
X218437Y12337D01*
X218481Y12395D01*
X218496Y12410D01*
X218532Y12446D01*
X218590Y12505D01*
X218663Y12577D01*
X218765Y12658D01*
X218875Y12752D01*
X219006Y12847D01*
X219152Y12949D01*
X220522Y13817D01*
Y12986D01*
D02*
G37*
G36*
X219188Y8451D02*
X219276Y8437D01*
X219378Y8422D01*
X219487Y8393D01*
X219604Y8356D01*
X219720Y8305D01*
X219735Y8298D01*
X219772Y8276D01*
X219823Y8247D01*
X219895Y8203D01*
X219968Y8145D01*
X220048Y8087D01*
X220129Y8014D01*
X220194Y7934D01*
X220202Y7926D01*
X220223Y7897D01*
X220253Y7846D01*
X220282Y7780D01*
X220325Y7700D01*
X220369Y7606D01*
X220406Y7503D01*
X220442Y7380D01*
Y7365D01*
X220457Y7321D01*
X220464Y7248D01*
X220479Y7154D01*
X220493Y7037D01*
X220508Y6898D01*
X220515Y6745D01*
X220522Y6570D01*
Y4646D01*
X215478D01*
Y6629D01*
X215485Y6680D01*
Y6738D01*
X215499Y6869D01*
X215514Y7015D01*
X215543Y7168D01*
X215580Y7321D01*
X215631Y7460D01*
Y7467D01*
X215638Y7474D01*
X215660Y7518D01*
X215696Y7584D01*
X215747Y7657D01*
X215813Y7744D01*
X215893Y7839D01*
X215995Y7926D01*
X216105Y8006D01*
X216119Y8014D01*
X216163Y8036D01*
X216221Y8072D01*
X216309Y8109D01*
X216411Y8145D01*
X216520Y8181D01*
X216644Y8203D01*
X216768Y8211D01*
X216783D01*
X216819D01*
X216885Y8203D01*
X216965Y8189D01*
X217060Y8167D01*
X217162Y8130D01*
X217264Y8087D01*
X217373Y8028D01*
X217388Y8021D01*
X217417Y7999D01*
X217475Y7955D01*
X217533Y7897D01*
X217606Y7824D01*
X217687Y7737D01*
X217759Y7627D01*
X217832Y7503D01*
Y7511D01*
X217840Y7525D01*
X217847Y7547D01*
X217862Y7576D01*
X217891Y7664D01*
X217942Y7766D01*
X218007Y7875D01*
X218088Y7999D01*
X218182Y8109D01*
X218299Y8211D01*
X218314Y8218D01*
X218357Y8247D01*
X218423Y8291D01*
X218510Y8335D01*
X218627Y8378D01*
X218751Y8422D01*
X218897Y8451D01*
X219057Y8459D01*
X219064D01*
X219072D01*
X219115D01*
X219188Y8451D01*
D02*
G37*
%LPC*%
G36*
X158526Y88576D02*
X158178D01*
Y88402D01*
X158003D01*
Y88227D01*
X157829D01*
Y88053D01*
Y87878D01*
Y87704D01*
Y87529D01*
Y87355D01*
Y87181D01*
Y87006D01*
X158003D01*
Y86832D01*
X158178D01*
Y86657D01*
X158701D01*
Y86832D01*
X158875D01*
Y87006D01*
Y87181D01*
Y87355D01*
Y87529D01*
Y87704D01*
Y87878D01*
Y88053D01*
Y88227D01*
Y88402D01*
X158526D01*
Y88576D01*
D02*
G37*
G36*
X183119D02*
X182422D01*
Y88402D01*
X182247D01*
Y88227D01*
X182073D01*
Y88053D01*
Y87878D01*
X183294D01*
Y88053D01*
Y88227D01*
X183119D01*
Y88402D01*
Y88576D01*
D02*
G37*
G36*
X171957D02*
X171433D01*
Y88402D01*
X171259D01*
Y88227D01*
X171084D01*
Y88053D01*
Y87878D01*
Y87704D01*
Y87529D01*
Y87355D01*
Y87181D01*
Y87006D01*
X171259D01*
Y86832D01*
X171433D01*
Y86657D01*
X171957D01*
Y86832D01*
X172131D01*
Y87006D01*
X172306D01*
Y87181D01*
Y87355D01*
Y87529D01*
Y87704D01*
Y87878D01*
Y88053D01*
Y88227D01*
X172131D01*
Y88402D01*
X171957D01*
Y88576D01*
D02*
G37*
G36*
X161666D02*
X160968D01*
Y88402D01*
X160794D01*
Y88227D01*
Y88053D01*
Y87878D01*
X161840D01*
Y88053D01*
Y88227D01*
Y88402D01*
X161666D01*
Y88576D01*
D02*
G37*
G36*
X155561D02*
X155038D01*
Y88402D01*
X154864D01*
Y88227D01*
X154689D01*
Y88053D01*
Y87878D01*
Y87704D01*
Y87529D01*
Y87355D01*
Y87181D01*
Y87006D01*
X154864D01*
Y86832D01*
X155038D01*
Y86657D01*
X155561D01*
Y86832D01*
X155736D01*
Y87006D01*
X155910D01*
Y87181D01*
Y87355D01*
Y87529D01*
Y87704D01*
Y87878D01*
Y88053D01*
Y88227D01*
X155736D01*
Y88402D01*
X155561D01*
Y88576D01*
D02*
G37*
G36*
X167073Y83518D02*
X166201D01*
Y83343D01*
Y83169D01*
X166026D01*
Y82995D01*
Y82820D01*
Y82646D01*
Y82471D01*
Y82297D01*
Y82122D01*
X166201D01*
Y81948D01*
Y81774D01*
X167073D01*
Y81948D01*
Y82122D01*
X167247D01*
Y82297D01*
Y82471D01*
Y82646D01*
Y82820D01*
Y82995D01*
Y83169D01*
X167073D01*
Y83343D01*
Y83518D01*
D02*
G37*
G36*
X179457Y83692D02*
X179282D01*
Y83518D01*
X178933D01*
Y83343D01*
X178759D01*
Y83169D01*
Y82995D01*
X179980D01*
Y83169D01*
X179806D01*
Y83343D01*
Y83518D01*
X179457D01*
Y83692D01*
D02*
G37*
G36*
X174573Y82297D02*
X173352D01*
Y82122D01*
Y81948D01*
Y81774D01*
X174399D01*
Y81948D01*
X174573D01*
Y82122D01*
Y82297D01*
D02*
G37*
G36*
X161840D02*
X160794D01*
Y82122D01*
Y81948D01*
Y81774D01*
X161840D01*
Y81948D01*
Y82122D01*
Y82297D01*
D02*
G37*
G36*
X46260Y95064D02*
X44671D01*
Y93394D01*
X46172D01*
X46260Y93401D01*
X46362Y93409D01*
X46479Y93416D01*
X46595Y93431D01*
X46712Y93452D01*
X46814Y93482D01*
X46828Y93489D01*
X46858Y93503D01*
X46901Y93525D01*
X46960Y93555D01*
X47025Y93598D01*
X47091Y93649D01*
X47157Y93715D01*
X47208Y93788D01*
X47215Y93795D01*
X47229Y93824D01*
X47251Y93868D01*
X47280Y93926D01*
X47302Y93992D01*
X47324Y94065D01*
X47339Y94152D01*
X47346Y94240D01*
Y94247D01*
Y94254D01*
X47339Y94298D01*
X47332Y94364D01*
X47317Y94451D01*
X47280Y94539D01*
X47237Y94641D01*
X47171Y94735D01*
X47084Y94830D01*
X47069Y94837D01*
X47033Y94867D01*
X46974Y94903D01*
X46880Y94947D01*
X46770Y94991D01*
X46624Y95027D01*
X46457Y95056D01*
X46260Y95064D01*
D02*
G37*
G36*
X57953Y93810D02*
X57909D01*
X57880Y93802D01*
X57800Y93795D01*
X57705Y93773D01*
X57589Y93737D01*
X57465Y93686D01*
X57348Y93613D01*
X57231Y93518D01*
X57217Y93503D01*
X57188Y93467D01*
X57137Y93401D01*
X57086Y93314D01*
X57027Y93212D01*
X56976Y93081D01*
X56932Y92928D01*
X56911Y92760D01*
X58959D01*
Y92767D01*
Y92782D01*
X58952Y92804D01*
Y92833D01*
X58937Y92920D01*
X58915Y93015D01*
X58879Y93132D01*
X58842Y93241D01*
X58784Y93350D01*
X58719Y93445D01*
Y93452D01*
X58704Y93460D01*
X58667Y93503D01*
X58602Y93562D01*
X58514Y93627D01*
X58405Y93693D01*
X58274Y93751D01*
X58121Y93795D01*
X58040Y93802D01*
X57953Y93810D01*
D02*
G37*
G36*
X50503D02*
X50459D01*
X50430Y93802D01*
X50350Y93795D01*
X50255Y93773D01*
X50138Y93737D01*
X50014Y93686D01*
X49898Y93613D01*
X49781Y93518D01*
X49766Y93503D01*
X49737Y93467D01*
X49686Y93401D01*
X49635Y93314D01*
X49577Y93212D01*
X49526Y93081D01*
X49482Y92928D01*
X49460Y92760D01*
X51509D01*
Y92767D01*
Y92782D01*
X51501Y92804D01*
Y92833D01*
X51487Y92920D01*
X51465Y93015D01*
X51429Y93132D01*
X51392Y93241D01*
X51334Y93350D01*
X51268Y93445D01*
Y93452D01*
X51253Y93460D01*
X51217Y93503D01*
X51152Y93562D01*
X51064Y93627D01*
X50955Y93693D01*
X50823Y93751D01*
X50670Y93795D01*
X50590Y93802D01*
X50503Y93810D01*
D02*
G37*
G36*
X93664Y133814D02*
X93620D01*
X93591Y133807D01*
X93518Y133799D01*
X93416Y133777D01*
X93307Y133741D01*
X93183Y133683D01*
X93066Y133610D01*
X92949Y133508D01*
X92935Y133493D01*
X92906Y133457D01*
X92855Y133391D01*
X92804Y133296D01*
X92753Y133187D01*
X92702Y133048D01*
X92672Y132895D01*
X92658Y132720D01*
Y132706D01*
Y132669D01*
X92665Y132604D01*
X92672Y132524D01*
X92687Y132429D01*
X92716Y132327D01*
X92745Y132217D01*
X92789Y132108D01*
X92796Y132094D01*
X92818Y132057D01*
X92848Y132006D01*
X92891Y131940D01*
X92942Y131875D01*
X93008Y131795D01*
X93081Y131729D01*
X93168Y131663D01*
X93183Y131656D01*
X93212Y131641D01*
X93263Y131612D01*
X93329Y131590D01*
X93401Y131561D01*
X93489Y131532D01*
X93584Y131518D01*
X93686Y131510D01*
X93722D01*
X93751Y131518D01*
X93824Y131525D01*
X93919Y131547D01*
X94021Y131590D01*
X94138Y131641D01*
X94254Y131722D01*
X94313Y131765D01*
X94364Y131824D01*
Y131831D01*
X94378Y131838D01*
X94407Y131882D01*
X94451Y131955D01*
X94510Y132050D01*
X94561Y132174D01*
X94604Y132319D01*
X94634Y132487D01*
X94648Y132684D01*
Y132691D01*
Y132706D01*
Y132735D01*
X94641Y132772D01*
Y132815D01*
X94634Y132866D01*
X94612Y132983D01*
X94582Y133114D01*
X94532Y133253D01*
X94459Y133384D01*
X94364Y133508D01*
X94349Y133522D01*
X94313Y133559D01*
X94254Y133602D01*
X94174Y133661D01*
X94072Y133719D01*
X93956Y133763D01*
X93817Y133799D01*
X93664Y133814D01*
D02*
G37*
G36*
X92542Y156534D02*
X91099D01*
Y154734D01*
X92455D01*
X92506Y154741D01*
X92557D01*
X92615Y154748D01*
X92753Y154763D01*
X92907Y154792D01*
X93060Y154836D01*
X93198Y154894D01*
X93264Y154931D01*
X93315Y154974D01*
X93330Y154989D01*
X93359Y155018D01*
X93402Y155076D01*
X93453Y155149D01*
X93504Y155244D01*
X93548Y155361D01*
X93577Y155492D01*
X93592Y155645D01*
Y155652D01*
Y155660D01*
Y155696D01*
X93585Y155762D01*
X93570Y155834D01*
X93555Y155915D01*
X93526Y156009D01*
X93483Y156097D01*
X93432Y156184D01*
X93424Y156192D01*
X93402Y156221D01*
X93366Y156257D01*
X93322Y156308D01*
X93257Y156359D01*
X93184Y156403D01*
X93103Y156447D01*
X93009Y156483D01*
X93001D01*
X92972Y156491D01*
X92928Y156498D01*
X92870Y156512D01*
X92783Y156520D01*
X92673Y156527D01*
X92542Y156534D01*
D02*
G37*
G36*
X104002Y155317D02*
X103958D01*
X103929Y155310D01*
X103849Y155302D01*
X103754Y155280D01*
X103638Y155244D01*
X103514Y155193D01*
X103397Y155120D01*
X103280Y155025D01*
X103266Y155011D01*
X103237Y154974D01*
X103185Y154909D01*
X103135Y154821D01*
X103076Y154719D01*
X103025Y154588D01*
X102981Y154435D01*
X102960Y154267D01*
X105008D01*
Y154274D01*
Y154289D01*
X105001Y154311D01*
Y154340D01*
X104986Y154428D01*
X104964Y154522D01*
X104928Y154639D01*
X104891Y154748D01*
X104833Y154858D01*
X104768Y154952D01*
Y154960D01*
X104753Y154967D01*
X104716Y155011D01*
X104651Y155069D01*
X104563Y155135D01*
X104454Y155200D01*
X104323Y155259D01*
X104170Y155302D01*
X104089Y155310D01*
X104002Y155317D01*
D02*
G37*
G36*
X278863Y12742D02*
X278855D01*
X278848D01*
X278804Y12735D01*
X278739Y12727D01*
X278651Y12713D01*
X278564Y12676D01*
X278462Y12632D01*
X278367Y12567D01*
X278272Y12479D01*
X278265Y12465D01*
X278236Y12428D01*
X278199Y12370D01*
X278156Y12275D01*
X278112Y12166D01*
X278075Y12020D01*
X278046Y11852D01*
X278039Y11656D01*
Y10066D01*
X279708D01*
Y11568D01*
X279701Y11656D01*
X279694Y11758D01*
X279686Y11874D01*
X279672Y11991D01*
X279650Y12108D01*
X279621Y12210D01*
X279614Y12224D01*
X279599Y12253D01*
X279577Y12297D01*
X279548Y12355D01*
X279504Y12421D01*
X279453Y12487D01*
X279388Y12552D01*
X279315Y12603D01*
X279307Y12611D01*
X279278Y12625D01*
X279235Y12647D01*
X279176Y12676D01*
X279111Y12698D01*
X279038Y12720D01*
X278950Y12735D01*
X278863Y12742D01*
D02*
G37*
G36*
X281057Y7785D02*
X281043D01*
X281013D01*
X280955Y7777D01*
X280889Y7763D01*
X280817Y7748D01*
X280736Y7719D01*
X280656Y7683D01*
X280576Y7632D01*
X280569Y7624D01*
X280539Y7602D01*
X280503Y7573D01*
X280459Y7530D01*
X280408Y7471D01*
X280357Y7398D01*
X280313Y7318D01*
X280277Y7223D01*
X280270Y7209D01*
X280262Y7180D01*
X280248Y7114D01*
X280233Y7034D01*
X280219Y6932D01*
X280204Y6808D01*
X280189Y6655D01*
Y5328D01*
X281925D01*
Y6764D01*
X281917Y6917D01*
X281910Y6983D01*
X281903Y7041D01*
Y7048D01*
X281895Y7078D01*
X281888Y7121D01*
X281873Y7172D01*
X281830Y7296D01*
X281771Y7420D01*
X281764Y7427D01*
X281750Y7449D01*
X281728Y7479D01*
X281699Y7515D01*
X281655Y7551D01*
X281611Y7602D01*
X281553Y7639D01*
X281487Y7683D01*
X281480Y7690D01*
X281458Y7697D01*
X281414Y7712D01*
X281363Y7734D01*
X281305Y7756D01*
X281232Y7770D01*
X281144Y7777D01*
X281057Y7785D01*
D02*
G37*
G36*
X278848Y7566D02*
X278834D01*
X278804D01*
X278761Y7559D01*
X278702Y7551D01*
X278629Y7537D01*
X278557Y7515D01*
X278484Y7486D01*
X278411Y7442D01*
X278403Y7435D01*
X278382Y7420D01*
X278345Y7391D01*
X278309Y7355D01*
X278265Y7304D01*
X278221Y7245D01*
X278177Y7172D01*
X278148Y7092D01*
Y7085D01*
X278134Y7048D01*
X278127Y6997D01*
X278112Y6917D01*
X278097Y6808D01*
X278090Y6684D01*
X278075Y6523D01*
Y5328D01*
X279592D01*
Y6567D01*
X279585Y6662D01*
X279577Y6764D01*
X279570Y6866D01*
X279555Y6968D01*
X279541Y7048D01*
X279533Y7063D01*
X279526Y7092D01*
X279504Y7136D01*
X279475Y7194D01*
X279446Y7253D01*
X279402Y7318D01*
X279344Y7384D01*
X279286Y7435D01*
X279278Y7442D01*
X279256Y7457D01*
X279213Y7479D01*
X279162Y7500D01*
X279103Y7522D01*
X279030Y7544D01*
X278943Y7559D01*
X278848Y7566D01*
D02*
G37*
G36*
X237889Y190855D02*
X237882D01*
X237875Y190848D01*
X237853Y190840D01*
X237824Y190833D01*
X237787Y190818D01*
X237744Y190804D01*
X237692Y190789D01*
X237634Y190775D01*
X237569Y190753D01*
X237488Y190738D01*
X237408Y190716D01*
X237314Y190694D01*
X237211Y190673D01*
X237109Y190651D01*
X236993Y190636D01*
X236869Y190614D01*
X236854D01*
X236810Y190607D01*
X236738Y190592D01*
X236657Y190578D01*
X236570Y190563D01*
X236482Y190541D01*
X236402Y190519D01*
X236329Y190490D01*
X236322D01*
X236300Y190476D01*
X236271Y190461D01*
X236242Y190439D01*
X236154Y190381D01*
X236082Y190294D01*
Y190286D01*
X236067Y190272D01*
X236060Y190243D01*
X236045Y190206D01*
X236030Y190162D01*
X236016Y190119D01*
X236009Y190060D01*
X236001Y190002D01*
Y189995D01*
Y189958D01*
X236009Y189914D01*
X236023Y189856D01*
X236045Y189790D01*
X236082Y189725D01*
X236125Y189652D01*
X236184Y189586D01*
X236191Y189579D01*
X236220Y189565D01*
X236264Y189535D01*
X236322Y189506D01*
X236402Y189477D01*
X236497Y189448D01*
X236606Y189433D01*
X236738Y189426D01*
X236796D01*
X236869Y189433D01*
X236949Y189448D01*
X237051Y189462D01*
X237153Y189492D01*
X237262Y189528D01*
X237372Y189579D01*
X237386Y189586D01*
X237416Y189608D01*
X237467Y189645D01*
X237525Y189696D01*
X237591Y189754D01*
X237663Y189827D01*
X237722Y189914D01*
X237780Y190009D01*
X237787Y190016D01*
X237795Y190046D01*
X237809Y190097D01*
X237831Y190162D01*
X237853Y190250D01*
X237867Y190352D01*
X237875Y190476D01*
X237882Y190622D01*
X237889Y190855D01*
D02*
G37*
G36*
X232765Y193465D02*
X231569D01*
Y191948D01*
X232808D01*
X232903Y191956D01*
X233005Y191963D01*
X233107Y191970D01*
X233209Y191985D01*
X233289Y191999D01*
X233304Y192007D01*
X233333Y192014D01*
X233377Y192036D01*
X233435Y192065D01*
X233493Y192094D01*
X233559Y192138D01*
X233625Y192196D01*
X233676Y192254D01*
X233683Y192262D01*
X233698Y192284D01*
X233719Y192327D01*
X233741Y192378D01*
X233763Y192437D01*
X233785Y192510D01*
X233800Y192597D01*
X233807Y192692D01*
Y192707D01*
Y192736D01*
X233800Y192779D01*
X233792Y192838D01*
X233778Y192911D01*
X233756Y192983D01*
X233727Y193056D01*
X233683Y193129D01*
X233676Y193137D01*
X233661Y193158D01*
X233632Y193195D01*
X233596Y193231D01*
X233544Y193275D01*
X233486Y193319D01*
X233413Y193363D01*
X233333Y193392D01*
X233326D01*
X233289Y193406D01*
X233238Y193414D01*
X233158Y193428D01*
X233049Y193443D01*
X232925Y193450D01*
X232765Y193465D01*
D02*
G37*
G36*
X232896Y191351D02*
X231569D01*
Y189615D01*
X233005D01*
X233158Y189623D01*
X233224Y189630D01*
X233282Y189637D01*
X233289D01*
X233319Y189645D01*
X233362Y189652D01*
X233413Y189667D01*
X233537Y189710D01*
X233661Y189769D01*
X233668Y189776D01*
X233690Y189790D01*
X233719Y189812D01*
X233756Y189841D01*
X233792Y189885D01*
X233843Y189929D01*
X233880Y189987D01*
X233924Y190053D01*
X233931Y190060D01*
X233938Y190082D01*
X233953Y190126D01*
X233975Y190177D01*
X233997Y190235D01*
X234011Y190308D01*
X234018Y190396D01*
X234026Y190483D01*
Y190498D01*
Y190527D01*
X234018Y190585D01*
X234004Y190651D01*
X233989Y190724D01*
X233960Y190804D01*
X233924Y190884D01*
X233873Y190964D01*
X233865Y190972D01*
X233843Y191001D01*
X233814Y191037D01*
X233770Y191081D01*
X233712Y191132D01*
X233639Y191183D01*
X233559Y191227D01*
X233464Y191263D01*
X233450Y191270D01*
X233421Y191278D01*
X233355Y191292D01*
X233275Y191307D01*
X233173Y191321D01*
X233049Y191336D01*
X232896Y191351D01*
D02*
G37*
G36*
X273102Y190855D02*
X273095D01*
X273088Y190848D01*
X273066Y190840D01*
X273037Y190833D01*
X273000Y190818D01*
X272956Y190804D01*
X272905Y190789D01*
X272847Y190775D01*
X272781Y190753D01*
X272701Y190738D01*
X272621Y190716D01*
X272526Y190694D01*
X272424Y190673D01*
X272322Y190651D01*
X272205Y190636D01*
X272081Y190614D01*
X272067D01*
X272023Y190607D01*
X271950Y190592D01*
X271870Y190578D01*
X271783Y190563D01*
X271695Y190541D01*
X271615Y190519D01*
X271542Y190490D01*
X271535D01*
X271513Y190476D01*
X271484Y190461D01*
X271455Y190439D01*
X271367Y190381D01*
X271294Y190294D01*
Y190286D01*
X271280Y190272D01*
X271272Y190243D01*
X271258Y190206D01*
X271243Y190162D01*
X271229Y190119D01*
X271221Y190060D01*
X271214Y190002D01*
Y189995D01*
Y189958D01*
X271221Y189914D01*
X271236Y189856D01*
X271258Y189790D01*
X271294Y189725D01*
X271338Y189652D01*
X271396Y189586D01*
X271404Y189579D01*
X271433Y189565D01*
X271476Y189535D01*
X271535Y189506D01*
X271615Y189477D01*
X271710Y189448D01*
X271819Y189433D01*
X271950Y189426D01*
X272009D01*
X272081Y189433D01*
X272162Y189448D01*
X272264Y189462D01*
X272366Y189492D01*
X272475Y189528D01*
X272585Y189579D01*
X272599Y189586D01*
X272628Y189608D01*
X272679Y189645D01*
X272738Y189696D01*
X272803Y189754D01*
X272876Y189827D01*
X272934Y189914D01*
X272993Y190009D01*
X273000Y190016D01*
X273007Y190046D01*
X273022Y190097D01*
X273044Y190162D01*
X273066Y190250D01*
X273080Y190352D01*
X273088Y190476D01*
X273095Y190622D01*
X273102Y190855D01*
D02*
G37*
G36*
X267977Y193465D02*
X266782D01*
Y191948D01*
X268021D01*
X268116Y191956D01*
X268218Y191963D01*
X268320Y191970D01*
X268422Y191985D01*
X268502Y191999D01*
X268517Y192007D01*
X268546Y192014D01*
X268590Y192036D01*
X268648Y192065D01*
X268706Y192094D01*
X268772Y192138D01*
X268837Y192196D01*
X268888Y192254D01*
X268896Y192262D01*
X268910Y192284D01*
X268932Y192327D01*
X268954Y192378D01*
X268976Y192437D01*
X268998Y192510D01*
X269012Y192597D01*
X269020Y192692D01*
Y192707D01*
Y192736D01*
X269012Y192779D01*
X269005Y192838D01*
X268990Y192911D01*
X268969Y192983D01*
X268939Y193056D01*
X268896Y193129D01*
X268888Y193137D01*
X268874Y193158D01*
X268845Y193195D01*
X268808Y193231D01*
X268757Y193275D01*
X268699Y193319D01*
X268626Y193363D01*
X268546Y193392D01*
X268538D01*
X268502Y193406D01*
X268451Y193414D01*
X268371Y193428D01*
X268262Y193443D01*
X268138Y193450D01*
X267977Y193465D01*
D02*
G37*
G36*
X268108Y191351D02*
X266782D01*
Y189615D01*
X268218D01*
X268371Y189623D01*
X268437Y189630D01*
X268495Y189637D01*
X268502D01*
X268531Y189645D01*
X268575Y189652D01*
X268626Y189667D01*
X268750Y189710D01*
X268874Y189769D01*
X268881Y189776D01*
X268903Y189790D01*
X268932Y189812D01*
X268969Y189841D01*
X269005Y189885D01*
X269056Y189929D01*
X269093Y189987D01*
X269136Y190053D01*
X269144Y190060D01*
X269151Y190082D01*
X269165Y190126D01*
X269187Y190177D01*
X269209Y190235D01*
X269224Y190308D01*
X269231Y190396D01*
X269238Y190483D01*
Y190498D01*
Y190527D01*
X269231Y190585D01*
X269216Y190651D01*
X269202Y190724D01*
X269173Y190804D01*
X269136Y190884D01*
X269085Y190964D01*
X269078Y190972D01*
X269056Y191001D01*
X269027Y191037D01*
X268983Y191081D01*
X268925Y191132D01*
X268852Y191183D01*
X268772Y191227D01*
X268677Y191263D01*
X268662Y191270D01*
X268633Y191278D01*
X268568Y191292D01*
X268488Y191307D01*
X268385Y191321D01*
X268262Y191336D01*
X268108Y191351D01*
D02*
G37*
G36*
X107782Y212067D02*
X107738D01*
X107709Y212059D01*
X107629Y212045D01*
X107534Y212023D01*
X107425Y211979D01*
X107308Y211914D01*
X107250Y211870D01*
X107191Y211826D01*
X107140Y211768D01*
X107089Y211702D01*
Y211695D01*
X107075Y211680D01*
X107060Y211651D01*
X107038Y211615D01*
X107016Y211556D01*
X106987Y211491D01*
X106965Y211411D01*
X106936Y211316D01*
X106907Y211207D01*
X106878Y211083D01*
X106849Y210944D01*
X106827Y210791D01*
X106805Y210616D01*
X106790Y210426D01*
X106783Y210222D01*
X106776Y209996D01*
Y209982D01*
Y209945D01*
Y209880D01*
X106783Y209792D01*
Y209698D01*
X106790Y209581D01*
X106798Y209457D01*
X106812Y209326D01*
X106849Y209041D01*
X106870Y208903D01*
X106900Y208772D01*
X106929Y208648D01*
X106973Y208531D01*
X107016Y208429D01*
X107067Y208342D01*
Y208334D01*
X107082Y208327D01*
X107118Y208276D01*
X107184Y208210D01*
X107264Y208137D01*
X107373Y208065D01*
X107498Y207999D01*
X107636Y207948D01*
X107709Y207941D01*
X107789Y207933D01*
X107833D01*
X107862Y207941D01*
X107935Y207955D01*
X108037Y207984D01*
X108146Y208035D01*
X108270Y208108D01*
X108328Y208152D01*
X108387Y208210D01*
X108445Y208269D01*
X108503Y208342D01*
Y208349D01*
X108518Y208363D01*
X108533Y208385D01*
X108547Y208422D01*
X108576Y208473D01*
X108598Y208538D01*
X108627Y208611D01*
X108657Y208699D01*
X108678Y208808D01*
X108708Y208925D01*
X108737Y209063D01*
X108759Y209209D01*
X108773Y209384D01*
X108788Y209566D01*
X108802Y209770D01*
Y209996D01*
Y210004D01*
Y210011D01*
Y210047D01*
Y210113D01*
X108795Y210201D01*
Y210295D01*
X108788Y210412D01*
X108781Y210536D01*
X108766Y210674D01*
X108730Y210951D01*
X108708Y211090D01*
X108678Y211221D01*
X108649Y211345D01*
X108606Y211462D01*
X108562Y211564D01*
X108511Y211651D01*
Y211659D01*
X108496Y211666D01*
X108482Y211688D01*
X108460Y211717D01*
X108394Y211782D01*
X108314Y211863D01*
X108205Y211935D01*
X108081Y212001D01*
X108015Y212030D01*
X107942Y212052D01*
X107862Y212059D01*
X107782Y212067D01*
D02*
G37*
G36*
X115223Y13067D02*
X115179D01*
X115150Y13059D01*
X115070Y13045D01*
X114975Y13023D01*
X114865Y12979D01*
X114749Y12914D01*
X114690Y12870D01*
X114632Y12826D01*
X114581Y12768D01*
X114530Y12702D01*
Y12695D01*
X114515Y12680D01*
X114501Y12651D01*
X114479Y12615D01*
X114457Y12556D01*
X114428Y12491D01*
X114406Y12411D01*
X114377Y12316D01*
X114348Y12207D01*
X114319Y12083D01*
X114289Y11944D01*
X114268Y11791D01*
X114246Y11616D01*
X114231Y11427D01*
X114224Y11222D01*
X114217Y10996D01*
Y10982D01*
Y10945D01*
Y10880D01*
X114224Y10792D01*
Y10697D01*
X114231Y10581D01*
X114239Y10457D01*
X114253Y10326D01*
X114289Y10041D01*
X114311Y9903D01*
X114341Y9772D01*
X114370Y9648D01*
X114413Y9531D01*
X114457Y9429D01*
X114508Y9341D01*
Y9334D01*
X114523Y9327D01*
X114559Y9276D01*
X114625Y9210D01*
X114705Y9137D01*
X114814Y9065D01*
X114938Y8999D01*
X115077Y8948D01*
X115150Y8941D01*
X115230Y8933D01*
X115274D01*
X115303Y8941D01*
X115376Y8955D01*
X115478Y8984D01*
X115587Y9035D01*
X115711Y9108D01*
X115769Y9152D01*
X115828Y9210D01*
X115886Y9269D01*
X115944Y9341D01*
Y9349D01*
X115959Y9363D01*
X115973Y9385D01*
X115988Y9422D01*
X116017Y9473D01*
X116039Y9538D01*
X116068Y9611D01*
X116097Y9699D01*
X116119Y9808D01*
X116148Y9925D01*
X116178Y10063D01*
X116200Y10209D01*
X116214Y10384D01*
X116229Y10566D01*
X116243Y10770D01*
Y10996D01*
Y11004D01*
Y11011D01*
Y11047D01*
Y11113D01*
X116236Y11201D01*
Y11295D01*
X116229Y11412D01*
X116221Y11536D01*
X116207Y11674D01*
X116170Y11951D01*
X116148Y12090D01*
X116119Y12221D01*
X116090Y12345D01*
X116046Y12462D01*
X116003Y12564D01*
X115952Y12651D01*
Y12659D01*
X115937Y12666D01*
X115922Y12688D01*
X115901Y12717D01*
X115835Y12782D01*
X115755Y12863D01*
X115646Y12935D01*
X115522Y13001D01*
X115456Y13030D01*
X115383Y13052D01*
X115303Y13059D01*
X115223Y13067D01*
D02*
G37*
G36*
X111301D02*
X111257D01*
X111228Y13059D01*
X111147Y13045D01*
X111053Y13023D01*
X110943Y12979D01*
X110827Y12914D01*
X110768Y12870D01*
X110710Y12826D01*
X110659Y12768D01*
X110608Y12702D01*
Y12695D01*
X110593Y12680D01*
X110579Y12651D01*
X110557Y12615D01*
X110535Y12556D01*
X110506Y12491D01*
X110484Y12411D01*
X110455Y12316D01*
X110426Y12207D01*
X110397Y12083D01*
X110368Y11944D01*
X110346Y11791D01*
X110324Y11616D01*
X110309Y11427D01*
X110302Y11222D01*
X110295Y10996D01*
Y10982D01*
Y10945D01*
Y10880D01*
X110302Y10792D01*
Y10697D01*
X110309Y10581D01*
X110317Y10457D01*
X110331Y10326D01*
X110368Y10041D01*
X110389Y9903D01*
X110418Y9772D01*
X110448Y9648D01*
X110491Y9531D01*
X110535Y9429D01*
X110586Y9341D01*
Y9334D01*
X110601Y9327D01*
X110637Y9276D01*
X110703Y9210D01*
X110783Y9137D01*
X110892Y9065D01*
X111016Y8999D01*
X111155Y8948D01*
X111228Y8941D01*
X111308Y8933D01*
X111352D01*
X111381Y8941D01*
X111454Y8955D01*
X111556Y8984D01*
X111665Y9035D01*
X111789Y9108D01*
X111847Y9152D01*
X111906Y9210D01*
X111964Y9269D01*
X112022Y9341D01*
Y9349D01*
X112037Y9363D01*
X112051Y9385D01*
X112066Y9422D01*
X112095Y9473D01*
X112117Y9538D01*
X112146Y9611D01*
X112175Y9699D01*
X112197Y9808D01*
X112226Y9925D01*
X112256Y10063D01*
X112277Y10209D01*
X112292Y10384D01*
X112307Y10566D01*
X112321Y10770D01*
Y10996D01*
Y11004D01*
Y11011D01*
Y11047D01*
Y11113D01*
X112314Y11201D01*
Y11295D01*
X112307Y11412D01*
X112299Y11536D01*
X112285Y11674D01*
X112248Y11951D01*
X112226Y12090D01*
X112197Y12221D01*
X112168Y12345D01*
X112124Y12462D01*
X112081Y12564D01*
X112030Y12651D01*
Y12659D01*
X112015Y12666D01*
X112001Y12688D01*
X111979Y12717D01*
X111913Y12782D01*
X111833Y12863D01*
X111723Y12935D01*
X111600Y13001D01*
X111534Y13030D01*
X111461Y13052D01*
X111381Y13059D01*
X111301Y13067D01*
D02*
G37*
G36*
X10711Y59569D02*
X8451D01*
X10711Y57980D01*
Y59569D01*
D02*
G37*
G36*
X10230Y56325D02*
X10004D01*
X9996D01*
X9989D01*
X9953D01*
X9887D01*
X9799Y56318D01*
X9705D01*
X9588Y56310D01*
X9464Y56303D01*
X9326Y56288D01*
X9049Y56252D01*
X8910Y56230D01*
X8779Y56201D01*
X8655Y56172D01*
X8538Y56128D01*
X8436Y56084D01*
X8349Y56033D01*
X8342D01*
X8334Y56019D01*
X8312Y56004D01*
X8283Y55982D01*
X8218Y55917D01*
X8137Y55836D01*
X8065Y55727D01*
X7999Y55603D01*
X7970Y55538D01*
X7948Y55465D01*
X7941Y55384D01*
X7933Y55304D01*
Y55260D01*
X7941Y55231D01*
X7955Y55151D01*
X7977Y55056D01*
X8021Y54947D01*
X8086Y54830D01*
X8130Y54772D01*
X8174Y54714D01*
X8232Y54663D01*
X8298Y54612D01*
X8305D01*
X8320Y54597D01*
X8349Y54583D01*
X8385Y54561D01*
X8444Y54539D01*
X8509Y54510D01*
X8589Y54488D01*
X8684Y54459D01*
X8794Y54430D01*
X8917Y54400D01*
X9056Y54371D01*
X9209Y54349D01*
X9384Y54327D01*
X9573Y54313D01*
X9778Y54306D01*
X10004Y54298D01*
X10018D01*
X10055D01*
X10120D01*
X10208Y54306D01*
X10302D01*
X10419Y54313D01*
X10543Y54320D01*
X10674Y54335D01*
X10959Y54371D01*
X11097Y54393D01*
X11228Y54422D01*
X11352Y54451D01*
X11469Y54495D01*
X11571Y54539D01*
X11659Y54590D01*
X11666D01*
X11673Y54604D01*
X11724Y54641D01*
X11790Y54707D01*
X11863Y54787D01*
X11936Y54896D01*
X12001Y55020D01*
X12052Y55159D01*
X12059Y55231D01*
X12067Y55312D01*
Y55355D01*
X12059Y55384D01*
X12045Y55457D01*
X12016Y55559D01*
X11965Y55669D01*
X11892Y55793D01*
X11848Y55851D01*
X11790Y55909D01*
X11731Y55968D01*
X11659Y56026D01*
X11651D01*
X11637Y56041D01*
X11615Y56055D01*
X11578Y56070D01*
X11527Y56099D01*
X11462Y56121D01*
X11389Y56150D01*
X11301Y56179D01*
X11192Y56201D01*
X11075Y56230D01*
X10937Y56259D01*
X10791Y56281D01*
X10616Y56296D01*
X10434Y56310D01*
X10230Y56325D01*
D02*
G37*
G36*
X61319Y13067D02*
X61275D01*
X61246Y13059D01*
X61166Y13045D01*
X61071Y13023D01*
X60962Y12979D01*
X60845Y12914D01*
X60787Y12870D01*
X60728Y12826D01*
X60677Y12768D01*
X60626Y12702D01*
Y12695D01*
X60612Y12680D01*
X60597Y12651D01*
X60575Y12615D01*
X60553Y12556D01*
X60524Y12491D01*
X60502Y12411D01*
X60473Y12316D01*
X60444Y12207D01*
X60415Y12083D01*
X60386Y11944D01*
X60364Y11791D01*
X60342Y11616D01*
X60327Y11427D01*
X60320Y11222D01*
X60313Y10996D01*
Y10982D01*
Y10945D01*
Y10880D01*
X60320Y10792D01*
Y10697D01*
X60327Y10581D01*
X60335Y10457D01*
X60349Y10326D01*
X60386Y10041D01*
X60408Y9903D01*
X60437Y9772D01*
X60466Y9648D01*
X60510Y9531D01*
X60553Y9429D01*
X60604Y9341D01*
Y9334D01*
X60619Y9327D01*
X60655Y9276D01*
X60721Y9210D01*
X60801Y9137D01*
X60911Y9065D01*
X61035Y8999D01*
X61173Y8948D01*
X61246Y8941D01*
X61326Y8933D01*
X61370D01*
X61399Y8941D01*
X61472Y8955D01*
X61574Y8984D01*
X61683Y9035D01*
X61807Y9108D01*
X61866Y9152D01*
X61924Y9210D01*
X61982Y9269D01*
X62041Y9341D01*
Y9349D01*
X62055Y9363D01*
X62070Y9385D01*
X62084Y9422D01*
X62113Y9473D01*
X62135Y9538D01*
X62164Y9611D01*
X62194Y9699D01*
X62216Y9808D01*
X62245Y9925D01*
X62274Y10063D01*
X62296Y10209D01*
X62310Y10384D01*
X62325Y10566D01*
X62340Y10770D01*
Y10996D01*
Y11004D01*
Y11011D01*
Y11047D01*
Y11113D01*
X62332Y11201D01*
Y11295D01*
X62325Y11412D01*
X62318Y11536D01*
X62303Y11674D01*
X62267Y11951D01*
X62245Y12090D01*
X62216Y12221D01*
X62186Y12345D01*
X62143Y12462D01*
X62099Y12564D01*
X62048Y12651D01*
Y12659D01*
X62033Y12666D01*
X62019Y12688D01*
X61997Y12717D01*
X61931Y12782D01*
X61851Y12863D01*
X61742Y12935D01*
X61618Y13001D01*
X61552Y13030D01*
X61479Y13052D01*
X61399Y13059D01*
X61319Y13067D01*
D02*
G37*
G36*
X162223D02*
X162179D01*
X162150Y13059D01*
X162070Y13045D01*
X161975Y13023D01*
X161865Y12979D01*
X161749Y12914D01*
X161690Y12870D01*
X161632Y12826D01*
X161581Y12768D01*
X161530Y12702D01*
Y12695D01*
X161515Y12680D01*
X161501Y12651D01*
X161479Y12615D01*
X161457Y12556D01*
X161428Y12491D01*
X161406Y12411D01*
X161377Y12316D01*
X161348Y12207D01*
X161319Y12083D01*
X161290Y11944D01*
X161268Y11791D01*
X161246Y11616D01*
X161231Y11427D01*
X161224Y11222D01*
X161217Y10996D01*
Y10982D01*
Y10945D01*
Y10880D01*
X161224Y10792D01*
Y10697D01*
X161231Y10581D01*
X161239Y10457D01*
X161253Y10326D01*
X161290Y10041D01*
X161311Y9903D01*
X161341Y9772D01*
X161370Y9648D01*
X161414Y9531D01*
X161457Y9429D01*
X161508Y9341D01*
Y9334D01*
X161523Y9327D01*
X161559Y9276D01*
X161625Y9210D01*
X161705Y9137D01*
X161814Y9065D01*
X161938Y8999D01*
X162077Y8948D01*
X162150Y8941D01*
X162230Y8933D01*
X162274D01*
X162303Y8941D01*
X162376Y8955D01*
X162478Y8984D01*
X162587Y9035D01*
X162711Y9108D01*
X162769Y9152D01*
X162828Y9210D01*
X162886Y9269D01*
X162944Y9341D01*
Y9349D01*
X162959Y9363D01*
X162973Y9385D01*
X162988Y9422D01*
X163017Y9473D01*
X163039Y9538D01*
X163068Y9611D01*
X163098Y9699D01*
X163119Y9808D01*
X163148Y9925D01*
X163178Y10063D01*
X163199Y10209D01*
X163214Y10384D01*
X163229Y10566D01*
X163243Y10770D01*
Y10996D01*
Y11004D01*
Y11011D01*
Y11047D01*
Y11113D01*
X163236Y11201D01*
Y11295D01*
X163229Y11412D01*
X163221Y11536D01*
X163207Y11674D01*
X163170Y11951D01*
X163148Y12090D01*
X163119Y12221D01*
X163090Y12345D01*
X163046Y12462D01*
X163003Y12564D01*
X162952Y12651D01*
Y12659D01*
X162937Y12666D01*
X162923Y12688D01*
X162901Y12717D01*
X162835Y12782D01*
X162755Y12863D01*
X162645Y12935D01*
X162522Y13001D01*
X162456Y13030D01*
X162383Y13052D01*
X162303Y13059D01*
X162223Y13067D01*
D02*
G37*
G36*
X158301D02*
X158257D01*
X158228Y13059D01*
X158148Y13045D01*
X158053Y13023D01*
X157943Y12979D01*
X157827Y12914D01*
X157768Y12870D01*
X157710Y12826D01*
X157659Y12768D01*
X157608Y12702D01*
Y12695D01*
X157594Y12680D01*
X157579Y12651D01*
X157557Y12615D01*
X157535Y12556D01*
X157506Y12491D01*
X157484Y12411D01*
X157455Y12316D01*
X157426Y12207D01*
X157397Y12083D01*
X157368Y11944D01*
X157346Y11791D01*
X157324Y11616D01*
X157309Y11427D01*
X157302Y11222D01*
X157295Y10996D01*
Y10982D01*
Y10945D01*
Y10880D01*
X157302Y10792D01*
Y10697D01*
X157309Y10581D01*
X157317Y10457D01*
X157331Y10326D01*
X157368Y10041D01*
X157389Y9903D01*
X157419Y9772D01*
X157448Y9648D01*
X157491Y9531D01*
X157535Y9429D01*
X157586Y9341D01*
Y9334D01*
X157601Y9327D01*
X157637Y9276D01*
X157703Y9210D01*
X157783Y9137D01*
X157892Y9065D01*
X158016Y8999D01*
X158155Y8948D01*
X158228Y8941D01*
X158308Y8933D01*
X158352D01*
X158381Y8941D01*
X158454Y8955D01*
X158556Y8984D01*
X158665Y9035D01*
X158789Y9108D01*
X158847Y9152D01*
X158906Y9210D01*
X158964Y9269D01*
X159022Y9341D01*
Y9349D01*
X159037Y9363D01*
X159052Y9385D01*
X159066Y9422D01*
X159095Y9473D01*
X159117Y9538D01*
X159146Y9611D01*
X159175Y9699D01*
X159197Y9808D01*
X159227Y9925D01*
X159256Y10063D01*
X159277Y10209D01*
X159292Y10384D01*
X159307Y10566D01*
X159321Y10770D01*
Y10996D01*
Y11004D01*
Y11011D01*
Y11047D01*
Y11113D01*
X159314Y11201D01*
Y11295D01*
X159307Y11412D01*
X159299Y11536D01*
X159285Y11674D01*
X159248Y11951D01*
X159227Y12090D01*
X159197Y12221D01*
X159168Y12345D01*
X159124Y12462D01*
X159081Y12564D01*
X159030Y12651D01*
Y12659D01*
X159015Y12666D01*
X159001Y12688D01*
X158979Y12717D01*
X158913Y12782D01*
X158833Y12863D01*
X158723Y12935D01*
X158599Y13001D01*
X158534Y13030D01*
X158461Y13052D01*
X158381Y13059D01*
X158301Y13067D01*
D02*
G37*
G36*
X216863Y12731D02*
X216856D01*
X216848D01*
X216804Y12723D01*
X216739Y12716D01*
X216651Y12701D01*
X216564Y12665D01*
X216462Y12621D01*
X216367Y12555D01*
X216272Y12468D01*
X216265Y12453D01*
X216236Y12417D01*
X216199Y12359D01*
X216156Y12264D01*
X216112Y12155D01*
X216075Y12009D01*
X216046Y11841D01*
X216039Y11644D01*
Y10055D01*
X217708D01*
Y11557D01*
X217701Y11644D01*
X217694Y11746D01*
X217687Y11863D01*
X217672Y11980D01*
X217650Y12096D01*
X217621Y12198D01*
X217614Y12213D01*
X217599Y12242D01*
X217577Y12286D01*
X217548Y12344D01*
X217504Y12410D01*
X217453Y12475D01*
X217388Y12541D01*
X217315Y12592D01*
X217307Y12599D01*
X217278Y12614D01*
X217234Y12636D01*
X217176Y12665D01*
X217111Y12687D01*
X217038Y12709D01*
X216950Y12723D01*
X216863Y12731D01*
D02*
G37*
G36*
X219057Y7773D02*
X219042D01*
X219013D01*
X218955Y7766D01*
X218889Y7751D01*
X218816Y7737D01*
X218736Y7708D01*
X218656Y7671D01*
X218576Y7620D01*
X218569Y7613D01*
X218539Y7591D01*
X218503Y7562D01*
X218459Y7518D01*
X218408Y7460D01*
X218357Y7387D01*
X218314Y7307D01*
X218277Y7212D01*
X218270Y7197D01*
X218262Y7168D01*
X218248Y7103D01*
X218233Y7022D01*
X218219Y6920D01*
X218204Y6796D01*
X218190Y6643D01*
Y5316D01*
X219924D01*
Y6753D01*
X219917Y6906D01*
X219910Y6971D01*
X219903Y7030D01*
Y7037D01*
X219895Y7066D01*
X219888Y7110D01*
X219873Y7161D01*
X219830Y7285D01*
X219772Y7409D01*
X219764Y7416D01*
X219750Y7438D01*
X219728Y7467D01*
X219699Y7503D01*
X219655Y7540D01*
X219611Y7591D01*
X219553Y7627D01*
X219487Y7671D01*
X219480Y7678D01*
X219458Y7686D01*
X219414Y7700D01*
X219363Y7722D01*
X219305Y7744D01*
X219232Y7759D01*
X219145Y7766D01*
X219057Y7773D01*
D02*
G37*
G36*
X216848Y7555D02*
X216834D01*
X216804D01*
X216761Y7547D01*
X216702Y7540D01*
X216630Y7525D01*
X216557Y7503D01*
X216484Y7474D01*
X216411Y7431D01*
X216404Y7423D01*
X216382Y7409D01*
X216345Y7380D01*
X216309Y7343D01*
X216265Y7292D01*
X216221Y7234D01*
X216178Y7161D01*
X216148Y7081D01*
Y7073D01*
X216134Y7037D01*
X216126Y6986D01*
X216112Y6906D01*
X216097Y6796D01*
X216090Y6673D01*
X216075Y6512D01*
Y5316D01*
X217592D01*
Y6556D01*
X217584Y6651D01*
X217577Y6753D01*
X217570Y6855D01*
X217555Y6957D01*
X217541Y7037D01*
X217533Y7051D01*
X217526Y7081D01*
X217504Y7124D01*
X217475Y7183D01*
X217446Y7241D01*
X217402Y7307D01*
X217344Y7372D01*
X217286Y7423D01*
X217278Y7431D01*
X217256Y7445D01*
X217213Y7467D01*
X217162Y7489D01*
X217103Y7511D01*
X217030Y7533D01*
X216943Y7547D01*
X216848Y7555D01*
D02*
G37*
%LPD*%
D10*
X26181Y177591D02*
X25787D01*
X26181D01*
X67681Y168504D02*
X67287D01*
X67681D01*
X297406Y41146D02*
X320595D01*
X297406Y21854D02*
X320595D01*
X325406Y88854D02*
X348594D01*
X325406Y108146D02*
X348594D01*
X297406Y198646D02*
X320595D01*
X297406Y179354D02*
X320595D01*
X325406Y111854D02*
X348594D01*
X325406Y131146D02*
X348594D01*
X325905Y66854D02*
X349095D01*
X325905Y86146D02*
X349095D01*
X299905Y176146D02*
X323095D01*
X299905Y156854D02*
X323095D01*
X325905Y133854D02*
X349095D01*
X325905Y153146D02*
X349095D01*
X299406Y63646D02*
X322594D01*
X299406Y44354D02*
X322594D01*
X336063Y23784D02*
X343937D01*
X336063D02*
X343937D01*
X336063Y59216D02*
X343937D01*
X336063D02*
X343937D01*
X336063Y196716D02*
X343937D01*
X336063D02*
X343937D01*
X336063Y161284D02*
X343937D01*
X336063D02*
X343937D01*
X127457Y198839D02*
Y203563D01*
X119780Y198839D02*
X127457D01*
X84543D02*
X92220D01*
X84543D02*
Y203563D01*
X23843Y86760D02*
Y98571D01*
X30732Y83807D02*
X34669D01*
X41559Y86760D02*
Y98571D01*
X30732Y101524D02*
X34669D01*
X233041Y30505D02*
X233631D01*
X233041D02*
Y40741D01*
X233631D01*
X245442D02*
X246033D01*
Y30505D02*
Y40741D01*
X245442Y30505D02*
X246033D01*
X80965Y1657D02*
Y3626D01*
X39035Y1657D02*
X80965D01*
X39035D02*
Y3626D01*
X75748Y21342D02*
X80965D01*
Y19374D02*
Y21342D01*
X39035D02*
X44252D01*
X39035Y19374D02*
Y21342D01*
X182071Y164929D02*
Y181071D01*
X165929Y164929D02*
X182071D01*
X165929D02*
Y181071D01*
X182071D01*
X140799Y121031D02*
Y124969D01*
Y121031D02*
Y124969D01*
X133516Y132843D02*
X135484D01*
X133516D02*
X135484D01*
X133516Y113157D02*
X135484D01*
X133516D02*
X135484D01*
X128201Y121031D02*
Y124969D01*
Y121031D02*
Y124969D01*
X177457Y16134D02*
Y20858D01*
X169780D02*
X177457D01*
X134543D02*
X142220D01*
X134543Y16134D02*
Y20858D01*
X88043Y16134D02*
Y20858D01*
X95720D01*
X123280D02*
X130957D01*
Y16134D02*
Y20858D01*
X16437Y73957D02*
X21161D01*
Y66280D02*
Y73957D01*
Y31043D02*
Y38721D01*
X16437Y31043D02*
X21161D01*
D11*
X76232Y136264D02*
Y135870D01*
Y136264D01*
Y135870D01*
X207587Y79012D02*
X207193D01*
X207587D01*
X207193D01*
X207587Y51512D02*
X207193D01*
X207587D01*
X207193D01*
X74748Y107598D02*
X73961D01*
X74748D01*
X207587Y106512D02*
X207193D01*
X207587D01*
X207193D01*
X26413Y75000D02*
Y75394D01*
Y75000D01*
Y75394D01*
X128004Y136386D02*
Y135992D01*
Y136386D01*
Y135992D01*
X207587Y134012D02*
X207193D01*
X207587D01*
X207193D01*
X283472Y178000D02*
X292528D01*
X270472D02*
X279528D01*
X257472D02*
X266528D01*
X283472Y42500D02*
X292528D01*
X270472D02*
X279528D01*
X257472D02*
X266528D01*
X309472Y133000D02*
X318528D01*
X259331Y112331D02*
X306968D01*
X259331Y153669D02*
X290335D01*
X259331Y66331D02*
X306968D01*
X259331Y107669D02*
X290335D01*
X309472Y87000D02*
X318528D01*
X332716Y8095D02*
X347284D01*
X332716D02*
Y19906D01*
X347284D01*
Y8095D02*
Y19906D01*
X348661Y7898D02*
X354468D01*
X348661Y200398D02*
X354468D01*
X347284Y200594D02*
Y212405D01*
X332716D02*
X347284D01*
X332716Y200594D02*
Y212405D01*
Y200594D02*
X347284D01*
X227819Y50000D02*
X230181D01*
X35114Y110291D02*
X36886D01*
X35114D02*
Y121709D01*
X36886D01*
Y110291D02*
Y121709D01*
X38264Y110094D02*
X42398D01*
X171583Y162071D02*
X188417D01*
X171583Y151929D02*
X191339D01*
X227856Y38537D02*
X230218D01*
X119819Y186000D02*
X122181D01*
X95819D02*
X98181D01*
X100972Y178905D02*
X110028D01*
Y167095D02*
Y178905D01*
X100972Y167095D02*
X110028D01*
X100972D02*
Y178905D01*
X95854Y179102D02*
X99594D01*
X107819Y186000D02*
X110181D01*
X113819D02*
X116181D01*
X89819D02*
X92181D01*
X101819D02*
X104181D01*
X45319Y103500D02*
X47681D01*
X69319Y60000D02*
X71681D01*
X203319Y159500D02*
X205681D01*
X37500Y47095D02*
Y53000D01*
X38291Y55000D02*
X49709D01*
X151594Y156504D02*
Y160835D01*
X151791Y162213D02*
X163209D01*
Y163787D01*
X151791D02*
X163209D01*
X151791Y162213D02*
Y163787D01*
X68563Y153614D02*
X70728D01*
X76240D02*
X78209D01*
X78405D01*
X76240Y167394D02*
X78405D01*
X68563D02*
X70728D01*
X68205Y204177D02*
Y211658D01*
X43205Y202799D02*
X68795D01*
X43205Y189020D02*
Y202799D01*
Y189020D02*
X68795D01*
Y202799D01*
X136843Y141819D02*
Y144181D01*
X153000Y209252D02*
X162055D01*
Y215748D01*
X153000D02*
X162055D01*
X137445Y209252D02*
X146500D01*
X137445D02*
Y215748D01*
X146500D01*
X204319Y170500D02*
X206681D01*
X75319Y48500D02*
X77681D01*
X189594Y165764D02*
Y170488D01*
X189791Y171866D02*
X201209D01*
Y174229D01*
X189791D02*
X201209D01*
X189791Y171866D02*
Y174229D01*
X62000Y39000D02*
X67905D01*
X60000Y39791D02*
Y51209D01*
X163819Y35697D02*
X166181D01*
X151819D02*
X154181D01*
X145819D02*
X148181D01*
X139819D02*
X142181D01*
X157819D02*
X160181D01*
X162406Y42595D02*
X166146D01*
X161028Y42791D02*
Y54602D01*
X151972D02*
X161028D01*
X151972Y42791D02*
Y54602D01*
Y42791D02*
X161028D01*
X169819Y35697D02*
X172181D01*
X208819Y159500D02*
X211181D01*
X105472Y42791D02*
X114528D01*
X105472D02*
Y54602D01*
X114528D01*
Y42791D02*
Y54602D01*
X115905Y42595D02*
X119646D01*
X75319Y60000D02*
X77681D01*
X45319Y115000D02*
X47681D01*
X93319Y35697D02*
X95681D01*
X111319D02*
X113681D01*
X123319D02*
X125681D01*
X117319D02*
X119681D01*
X105319D02*
X107681D01*
X99319D02*
X101681D01*
X166000Y146319D02*
Y148681D01*
Y135319D02*
Y137681D01*
X156150Y205319D02*
Y207681D01*
X143350Y205319D02*
Y207681D01*
X51000Y84819D02*
Y87181D01*
X156319Y176500D02*
X158681D01*
X154350Y146319D02*
Y148681D01*
X61965Y73414D02*
Y75776D01*
X62000Y67319D02*
Y69681D01*
X195500Y183319D02*
Y185681D01*
X45291Y161500D02*
X56709D01*
X44500Y153595D02*
Y159500D01*
X45291Y142000D02*
X56709D01*
X44500Y134095D02*
Y140000D01*
D12*
X158748Y128595D02*
X158010Y129021D01*
Y128168D01*
X158748Y128595D01*
D13*
X17913Y121193D02*
X20276D01*
Y123949D01*
X17913Y182807D02*
X20276D01*
Y180051D02*
Y182807D01*
D14*
X291602Y211708D02*
X292193Y212298D01*
X293373D01*
X293964Y211708D01*
Y211117D01*
X293373Y210527D01*
X292783D01*
X293373D01*
X293964Y209937D01*
Y209346D01*
X293373Y208756D01*
X292193D01*
X291602Y209346D01*
X295145Y210527D02*
X297506D01*
X298687Y208756D02*
X299867D01*
X299277D01*
Y212298D01*
X298687Y211708D01*
X304000Y208756D02*
X301639D01*
X304000Y211117D01*
Y211708D01*
X303410Y212298D01*
X302229D01*
X301639Y211708D01*
X307542D02*
X306952Y212298D01*
X305771D01*
X305181Y211708D01*
Y211117D01*
X305771Y210527D01*
X306952D01*
X307542Y209937D01*
Y209346D01*
X306952Y208756D01*
X305771D01*
X305181Y209346D01*
M02*
