G04*
G04 #@! TF.GenerationSoftware,Altium Limited,Altium Designer,21.0.8 (223)*
G04*
G04 Layer_Color=8388736*
%FSLAX25Y25*%
%MOIN*%
G70*
G04*
G04 #@! TF.SameCoordinates,4FC8230A-67FA-47FE-B716-792534C6144D*
G04*
G04*
G04 #@! TF.FilePolarity,Negative*
G04*
G01*
G75*
%ADD55C,0.04331*%
%ADD56R,0.04331X0.03543*%
%ADD57R,0.03543X0.03543*%
G04:AMPARAMS|DCode=58|XSize=122.05mil|YSize=82.68mil|CornerRadius=5.91mil|HoleSize=0mil|Usage=FLASHONLY|Rotation=0.000|XOffset=0mil|YOffset=0mil|HoleType=Round|Shape=RoundedRectangle|*
%AMROUNDEDRECTD58*
21,1,0.12205,0.07087,0,0,0.0*
21,1,0.11024,0.08268,0,0,0.0*
1,1,0.01181,0.05512,-0.03543*
1,1,0.01181,-0.05512,-0.03543*
1,1,0.01181,-0.05512,0.03543*
1,1,0.01181,0.05512,0.03543*
%
%ADD58ROUNDEDRECTD58*%
%ADD59R,0.03150X0.07480*%
%ADD60R,0.06693X0.09055*%
%ADD61R,0.09055X0.06693*%
%ADD62R,0.07480X0.03150*%
%ADD63R,0.04331X0.06496*%
%ADD64R,0.04921X0.05906*%
%ADD65R,0.01567X0.06201*%
%ADD66R,0.06201X0.01567*%
%ADD67C,0.01575*%
%ADD68R,0.04528X0.05906*%
%ADD69R,0.12992X0.07874*%
%ADD70R,0.03937X0.07874*%
%ADD71R,0.04331X0.13386*%
%ADD72R,0.04803X0.04528*%
%ADD73R,0.20079X0.09646*%
%ADD74R,0.04134X0.02362*%
%ADD75R,0.06890X0.06890*%
%ADD76R,0.02362X0.04134*%
%ADD77R,0.11496X0.05512*%
%ADD78R,0.09252X0.07284*%
%ADD79R,0.05512X0.11496*%
%ADD80R,0.02953X0.11614*%
%ADD81R,0.03543X0.04331*%
%ADD82R,0.02756X0.04921*%
%ADD83R,0.04252X0.03465*%
%ADD84R,0.03465X0.04252*%
%ADD85R,0.02953X0.06398*%
%ADD86R,0.05709X0.01968*%
%ADD87R,0.05906X0.06693*%
%ADD88R,0.05512X0.09449*%
%ADD89R,0.07874X0.07480*%
%ADD90R,0.04409X0.06181*%
%ADD91R,0.02520X0.04095*%
%ADD92R,0.04528X0.02362*%
%ADD93R,0.03937X0.04331*%
%ADD94R,0.06693X0.04331*%
%ADD95C,0.02756*%
%ADD96C,0.03740*%
%ADD97C,0.06500*%
%ADD98R,0.06500X0.06500*%
%ADD99C,0.24016*%
%ADD100C,0.02362*%
G36*
X35910Y162166D02*
X41224D01*
X41263Y162162D01*
X41300Y162151D01*
X41334Y162133D01*
X41364Y162108D01*
X41389Y162078D01*
X41407Y162044D01*
X41418Y162007D01*
X41422Y161969D01*
Y158031D01*
X41418Y157993D01*
X41407Y157956D01*
X41389Y157922D01*
X41364Y157892D01*
X41334Y157867D01*
X41300Y157849D01*
X41263Y157837D01*
X41224Y157834D01*
X35910D01*
X35909Y157834D01*
X35890Y157836D01*
X35871Y157837D01*
X35842Y157846D01*
X35834Y157849D01*
X35800Y157867D01*
X35770Y157892D01*
X35745Y157922D01*
X35727Y157956D01*
X35724Y157964D01*
X35715Y157993D01*
X35713Y158012D01*
X35712Y158031D01*
X35713Y158051D01*
X35715Y158070D01*
X35724Y158099D01*
X35727Y158107D01*
X35745Y158141D01*
X35770Y158171D01*
X37598Y160000D01*
X35770Y161829D01*
X35745Y161859D01*
X35727Y161893D01*
X35715Y161930D01*
X35712Y161969D01*
X35715Y162007D01*
X35727Y162044D01*
X35745Y162078D01*
X35770Y162108D01*
X35800Y162133D01*
X35834Y162151D01*
X35871Y162162D01*
X35909Y162166D01*
X35910Y162166D01*
D02*
G37*
G36*
X34964Y162162D02*
X35001Y162151D01*
X35035Y162133D01*
X35065Y162108D01*
X37034Y160140D01*
X37058Y160110D01*
X37076Y160076D01*
X37088Y160039D01*
X37091Y160000D01*
X37088Y159961D01*
X37076Y159924D01*
X37058Y159890D01*
X37034Y159860D01*
X35065Y157892D01*
X35035Y157867D01*
X35001Y157849D01*
X34992Y157846D01*
X34964Y157837D01*
X34944Y157836D01*
X34925Y157834D01*
X34925Y157834D01*
X31776D01*
X31737Y157837D01*
X31700Y157849D01*
X31666Y157867D01*
X31636Y157892D01*
X31611Y157922D01*
X31593Y157956D01*
X31582Y157993D01*
X31578Y158031D01*
Y161969D01*
X31582Y162007D01*
X31593Y162044D01*
X31611Y162078D01*
X31636Y162108D01*
X31666Y162133D01*
X31700Y162151D01*
X31737Y162162D01*
X31776Y162166D01*
X34925D01*
X34925Y162166D01*
X34964Y162162D01*
D02*
G37*
G36*
X35910Y157166D02*
X41224D01*
X41263Y157162D01*
X41300Y157151D01*
X41334Y157133D01*
X41364Y157108D01*
X41389Y157078D01*
X41407Y157044D01*
X41418Y157007D01*
X41422Y156968D01*
Y153032D01*
X41418Y152993D01*
X41407Y152956D01*
X41389Y152922D01*
X41364Y152892D01*
X41334Y152867D01*
X41300Y152849D01*
X41263Y152838D01*
X41224Y152834D01*
X35910D01*
X35909Y152834D01*
X35890Y152836D01*
X35871Y152838D01*
X35842Y152846D01*
X35834Y152849D01*
X35800Y152867D01*
X35770Y152892D01*
X35745Y152922D01*
X35727Y152956D01*
X35724Y152964D01*
X35715Y152993D01*
X35713Y153012D01*
X35712Y153032D01*
X35713Y153051D01*
X35715Y153070D01*
X35724Y153099D01*
X35727Y153107D01*
X35745Y153141D01*
X35770Y153171D01*
X37598Y155000D01*
X35770Y156829D01*
X35745Y156859D01*
X35727Y156893D01*
X35715Y156930D01*
X35712Y156968D01*
X35715Y157007D01*
X35727Y157044D01*
X35745Y157078D01*
X35770Y157108D01*
X35800Y157133D01*
X35834Y157151D01*
X35871Y157162D01*
X35909Y157166D01*
X35910Y157166D01*
D02*
G37*
G36*
X34964Y157162D02*
X35001Y157151D01*
X35035Y157133D01*
X35065Y157108D01*
X37034Y155140D01*
X37058Y155110D01*
X37076Y155076D01*
X37088Y155039D01*
X37091Y155000D01*
X37088Y154961D01*
X37076Y154924D01*
X37058Y154890D01*
X37034Y154860D01*
X35065Y152892D01*
X35035Y152867D01*
X35001Y152849D01*
X34992Y152846D01*
X34964Y152838D01*
X34944Y152836D01*
X34925Y152834D01*
X34925Y152834D01*
X31776D01*
X31737Y152838D01*
X31700Y152849D01*
X31666Y152867D01*
X31636Y152892D01*
X31611Y152922D01*
X31593Y152956D01*
X31582Y152993D01*
X31578Y153032D01*
Y156968D01*
X31582Y157007D01*
X31593Y157044D01*
X31611Y157078D01*
X31636Y157108D01*
X31666Y157133D01*
X31700Y157151D01*
X31737Y157162D01*
X31776Y157166D01*
X34925D01*
X34925Y157166D01*
X34964Y157162D01*
D02*
G37*
D55*
X102500Y97000D02*
D03*
X86000D02*
D03*
X93500D02*
D03*
D56*
X142500Y62350D02*
D03*
Y68650D02*
D03*
X136500Y62350D02*
D03*
Y68650D02*
D03*
X130500Y62350D02*
D03*
Y68650D02*
D03*
D57*
X142500Y51047D02*
D03*
Y56953D02*
D03*
X136500Y51047D02*
D03*
Y56953D02*
D03*
X130493Y51110D02*
D03*
Y57016D02*
D03*
D58*
X169500Y31500D02*
D03*
Y40500D02*
D03*
D59*
X71618Y21342D02*
D03*
X76539D02*
D03*
X81461D02*
D03*
X86382D02*
D03*
D60*
X95240Y8350D02*
D03*
X62760D02*
D03*
D61*
X11000Y136583D02*
D03*
Y84417D02*
D03*
D62*
X23992Y93276D02*
D03*
Y98197D02*
D03*
Y103118D02*
D03*
Y108039D02*
D03*
Y112961D02*
D03*
Y117882D02*
D03*
Y122803D02*
D03*
Y127724D02*
D03*
D63*
X132701Y7165D02*
D03*
Y27835D02*
D03*
X145299Y7165D02*
D03*
Y27835D02*
D03*
D64*
X118150Y53669D02*
D03*
Y62331D02*
D03*
X111850D02*
D03*
Y53669D02*
D03*
D65*
X95764Y41409D02*
D03*
X93795D02*
D03*
X91827D02*
D03*
X89858D02*
D03*
X87890D02*
D03*
X85921D02*
D03*
X83953D02*
D03*
X81984D02*
D03*
X80016D02*
D03*
X78047D02*
D03*
X76079D02*
D03*
X74110D02*
D03*
X72142D02*
D03*
X70173D02*
D03*
X68205D02*
D03*
X66236D02*
D03*
Y86590D02*
D03*
X68205D02*
D03*
X70173D02*
D03*
X72142D02*
D03*
X74110D02*
D03*
X76079D02*
D03*
X78047D02*
D03*
X80016D02*
D03*
X81984D02*
D03*
X83953D02*
D03*
X85921D02*
D03*
X87890D02*
D03*
X89858D02*
D03*
X91827D02*
D03*
X93795D02*
D03*
X95764D02*
D03*
D66*
X58410Y49236D02*
D03*
Y51205D02*
D03*
Y53173D02*
D03*
Y55142D02*
D03*
Y57110D02*
D03*
Y59079D02*
D03*
Y61047D02*
D03*
Y63016D02*
D03*
Y64984D02*
D03*
Y66953D02*
D03*
Y68921D02*
D03*
Y70890D02*
D03*
Y72858D02*
D03*
Y74827D02*
D03*
Y76795D02*
D03*
Y78764D02*
D03*
X103591D02*
D03*
Y76795D02*
D03*
Y74827D02*
D03*
Y72858D02*
D03*
Y70890D02*
D03*
Y68921D02*
D03*
Y66953D02*
D03*
Y64984D02*
D03*
Y63016D02*
D03*
Y61047D02*
D03*
Y59079D02*
D03*
Y57110D02*
D03*
Y55142D02*
D03*
Y53173D02*
D03*
Y51205D02*
D03*
Y49236D02*
D03*
D67*
X73469Y143968D02*
D03*
Y142000D02*
D03*
Y140032D02*
D03*
X71500Y143968D02*
D03*
Y140032D02*
D03*
X69532Y143968D02*
D03*
Y142000D02*
D03*
Y140032D02*
D03*
X39500Y160000D02*
D03*
X33500D02*
D03*
X39500Y155000D02*
D03*
X33500D02*
D03*
D68*
X144260Y139000D02*
D03*
X151740D02*
D03*
X133260Y79000D02*
D03*
X140740D02*
D03*
D69*
X95000Y128508D02*
D03*
D70*
X104055Y104492D02*
D03*
X95000D02*
D03*
X85945D02*
D03*
D71*
X132827Y108000D02*
D03*
D72*
X151673Y93925D02*
D03*
D73*
X147000Y108000D02*
D03*
D74*
X166390Y120598D02*
D03*
Y117449D02*
D03*
Y114299D02*
D03*
Y111150D02*
D03*
Y108000D02*
D03*
Y104850D02*
D03*
Y101701D02*
D03*
Y98551D02*
D03*
Y95402D02*
D03*
X127610D02*
D03*
Y98551D02*
D03*
Y101701D02*
D03*
Y104850D02*
D03*
Y108000D02*
D03*
Y111150D02*
D03*
Y114299D02*
D03*
Y117449D02*
D03*
Y120598D02*
D03*
D75*
X165012Y89988D02*
D03*
X128988D02*
D03*
Y126012D02*
D03*
X165012D02*
D03*
D76*
X159598Y88610D02*
D03*
X156449D02*
D03*
X153299D02*
D03*
X150150D02*
D03*
X147000D02*
D03*
X143850D02*
D03*
X140701D02*
D03*
X137551D02*
D03*
X134402D02*
D03*
Y127390D02*
D03*
X137551D02*
D03*
X140701D02*
D03*
X143850D02*
D03*
X147000D02*
D03*
X150150D02*
D03*
X153299D02*
D03*
X156449D02*
D03*
X159598D02*
D03*
D77*
X115500Y124854D02*
D03*
Y114146D02*
D03*
X73500Y108646D02*
D03*
Y119354D02*
D03*
D78*
X115500Y92594D02*
D03*
Y104405D02*
D03*
D79*
X167854Y51000D02*
D03*
X157146D02*
D03*
X167854Y63500D02*
D03*
X157146D02*
D03*
X167854Y76000D02*
D03*
X157146D02*
D03*
D80*
X52500Y21595D02*
D03*
Y8405D02*
D03*
X47500Y21595D02*
D03*
Y8405D02*
D03*
X42500Y21595D02*
D03*
Y8405D02*
D03*
X37500Y21595D02*
D03*
Y8405D02*
D03*
X32500Y21595D02*
D03*
Y8405D02*
D03*
D81*
X132350Y42500D02*
D03*
X138650D02*
D03*
X55150Y142500D02*
D03*
X48850D02*
D03*
X31350Y62000D02*
D03*
X37650D02*
D03*
X31350Y56000D02*
D03*
X37650D02*
D03*
X116650Y30000D02*
D03*
X110350D02*
D03*
X116650Y36000D02*
D03*
X110350D02*
D03*
D82*
X38260Y48618D02*
D03*
X42000D02*
D03*
X45740D02*
D03*
Y38382D02*
D03*
X42000D02*
D03*
X38260D02*
D03*
D83*
X52000Y41244D02*
D03*
Y46756D02*
D03*
X33500Y119756D02*
D03*
Y114244D02*
D03*
X52000Y83744D02*
D03*
Y89256D02*
D03*
X111000Y78244D02*
D03*
Y83756D02*
D03*
D84*
X38744Y142500D02*
D03*
X44256D02*
D03*
X93244Y34500D02*
D03*
X98756D02*
D03*
X138256Y37000D02*
D03*
X132744D02*
D03*
D85*
X39500Y114323D02*
D03*
X44500D02*
D03*
X49500D02*
D03*
X54500D02*
D03*
Y135677D02*
D03*
X49500D02*
D03*
X44500D02*
D03*
X39500D02*
D03*
D86*
X16532Y43382D02*
D03*
Y53618D02*
D03*
Y51059D02*
D03*
Y48500D02*
D03*
Y45941D02*
D03*
D87*
X15646Y61098D02*
D03*
Y35902D02*
D03*
D88*
X6000Y63264D02*
D03*
Y33736D02*
D03*
D89*
Y53028D02*
D03*
Y43972D02*
D03*
D90*
X77150Y94500D02*
D03*
X70850D02*
D03*
D91*
X111850Y47000D02*
D03*
X118150D02*
D03*
Y69000D02*
D03*
X111850D02*
D03*
D92*
X11520Y74500D02*
D03*
X20480D02*
D03*
D93*
X64150Y94500D02*
D03*
X57850D02*
D03*
D94*
X120783Y7110D02*
D03*
Y14000D02*
D03*
Y20890D02*
D03*
X106217Y7110D02*
D03*
Y14000D02*
D03*
Y20890D02*
D03*
D95*
X124000Y43000D02*
Y73000D01*
X109000Y43000D02*
X116500D01*
X109000Y73000D02*
X116500D01*
Y43000D02*
X124000D01*
X116500Y73000D02*
X124000D01*
D96*
X166500Y31500D02*
D03*
X172500D02*
D03*
Y40500D02*
D03*
X166500D02*
D03*
D97*
X134500Y152000D02*
D03*
Y162000D02*
D03*
Y172000D02*
D03*
X124500Y152000D02*
D03*
Y162000D02*
D03*
Y172000D02*
D03*
X114500Y152000D02*
D03*
Y162000D02*
D03*
Y172000D02*
D03*
X104500Y152000D02*
D03*
Y162000D02*
D03*
Y172000D02*
D03*
X94500Y152000D02*
D03*
Y162000D02*
D03*
Y172000D02*
D03*
X84500Y152000D02*
D03*
Y162000D02*
D03*
Y172000D02*
D03*
X74500Y152000D02*
D03*
Y162000D02*
D03*
D98*
Y172000D02*
D03*
D99*
X13780Y13780D02*
D03*
X163386Y163386D02*
D03*
X13780D02*
D03*
X163386Y13780D02*
D03*
D100*
X147000Y110500D02*
D03*
X151000D02*
D03*
Y105500D02*
D03*
X147000D02*
D03*
X155000Y110500D02*
D03*
Y105500D02*
D03*
M02*
