M48
;Layer_Color=9474304
;FILE_FORMAT=2:4
INCH,TZ
;TYPE=PLATED
T1F00S00C0.0118
T2F00S00C0.0177
T3F00S00C0.0450
T4F00S00C0.1339
%
T01
X349Y2606
X2349
Y3606
X2700Y4100
X3349Y4606
X4200Y4862
X4150Y5600
Y6200
X3349Y6606
X2349
X2700Y6200
Y5600
X1349Y5606
X750Y7450
X349Y7606
Y8606
Y9606
Y10606
X1349
Y11606
X349
Y12606
Y13606
Y14606
X1349
X2349
X3349
X3950Y14850
X4450
X4950
X5450
X6050Y14100
X6300Y13850
X6950Y14800
X8950
X11150Y13000
X11550
X11950
X12350Y11550
Y11209
Y10800
Y10450
X13900Y10550
X14300
Y11050
X13900
X14349Y11606
Y14606
X13617Y9317
X13650Y7250
X13050
X12400Y7300
X12100Y6900
X12400Y6550
Y5800
Y5050
Y4300
X11650
X10900
Y4700
X13050
X13650
X14250
Y4250
X14200Y3700
X14530Y2783
X14349Y1606
X13349
X13300Y2150
X12100Y2500
X10600
X9850Y3050
X9350
X8650Y2700
X8150Y2950
X7700Y3250
X8500Y3550
X8600Y4800
X8800Y5600
X9150
X9500
X8349Y5606
X7349
Y4606
X6349
Y5606
Y6606
X5200Y8000
X3750Y7800
X3400
X3050
X2399Y9328
Y9820
Y10312
Y10804
Y11296
Y11788
Y12280
X1750Y12772
X1349
X2349Y13606
X3349
Y12606
X4349
X5349
X5450Y10700
X4450
X4050
X1841Y9328
X8150Y9450
X7950Y8100
Y7750
X8300Y7400
X8650
X9000
X9350
X9700
X10900Y7300
X11650
X11500Y7900
Y8350
X10850Y9050
Y9400
Y9750
X10800Y10250
Y10659
Y11000
X10400
X14250Y7250
X14530Y717
X11550Y700
X11150
X8349Y606
X7349
X6349Y1606
Y2606
X7150Y2700
X5250Y2159
X4250
Y841
X3750
X3250
X5250
X5200Y3750
X4200Y3838
X5200Y5050
X15200Y5100
Y4750
Y5500
Y6000
Y6350
Y6700
Y7250
Y7600
Y7950
X17300
Y7600
Y7250
Y6700
Y6350
Y6000
Y5450
Y5100
Y4750
X15349Y2606
X15500Y10550
X15100
X14700
Y11050
X15100
X15500
X15349Y11606
X14349Y15606
Y16606
X6349Y15606
X5349Y16606
X3000Y16000
Y15500
T02
X5200Y9450
X7067Y10367
X7567
X8067
X8600Y12150
Y12600
Y13050
Y13500
X9050
X9500
X9950
X10400
Y13050
Y12600
Y12150
X9950
X9050
X7667Y12467
X7067
X14409Y13209
X12900Y7900
X16650Y4050
X17250
Y3150
X16650
X17200Y12200
Y12750
Y13300
X15700
X15150
T03
X7450Y15200
X8450
X9450
X10450
X11450
X12450
X13450
Y16200
Y17200
X12450
Y16200
X11450
Y17200
X10450
Y16200
X9450
Y17200
X8450
Y16200
X7450
Y17200
T04
X1378Y1378
X16339
Y16339
X1378
M30
