G04*
G04 #@! TF.GenerationSoftware,Altium Limited,Altium Designer,21.0.8 (223)*
G04*
G04 Layer_Color=8388736*
%FSLAX25Y25*%
%MOIN*%
G70*
G04*
G04 #@! TF.SameCoordinates,4FC8230A-67FA-47FE-B716-792534C6144D*
G04*
G04*
G04 #@! TF.FilePolarity,Positive*
G04*
G01*
G75*
%ADD13C,0.01000*%
D13*
X0Y13780D02*
X35Y12797D01*
X140Y11818D01*
X315Y10851D01*
X558Y9897D01*
X869Y8964D01*
X1245Y8055D01*
X1685Y7176D01*
X2187Y6330D01*
X2748Y5522D01*
X3366Y4756D01*
X4036Y4036D01*
X4756Y3366D01*
X5522Y2748D01*
X6330Y2187D01*
X7176Y1685D01*
X8055Y1245D01*
X8964Y869D01*
X9897Y558D01*
X10851Y315D01*
X11818Y140D01*
X12797Y35D01*
X13780Y0D01*
Y177165D02*
X12797Y177130D01*
X11818Y177025D01*
X10851Y176850D01*
X9897Y176607D01*
X8964Y176297D01*
X8055Y175920D01*
X7176Y175480D01*
X6330Y174978D01*
X5522Y174417D01*
X4756Y173800D01*
X4036Y173129D01*
X3366Y172409D01*
X2748Y171644D01*
X2187Y170836D01*
X1685Y169990D01*
X1245Y169110D01*
X869Y168201D01*
X558Y167268D01*
X315Y166315D01*
X140Y165347D01*
X35Y164369D01*
X-0Y163386D01*
X177165D02*
X177130Y164369D01*
X177025Y165347D01*
X176850Y166315D01*
X176607Y167268D01*
X176297Y168201D01*
X175920Y169110D01*
X175480Y169990D01*
X174978Y170836D01*
X174417Y171644D01*
X173800Y172409D01*
X173129Y173129D01*
X172409Y173800D01*
X171644Y174417D01*
X170836Y174978D01*
X169990Y175480D01*
X169110Y175920D01*
X168201Y176297D01*
X167268Y176607D01*
X166315Y176850D01*
X165347Y177025D01*
X164369Y177130D01*
X163386Y177165D01*
Y0D02*
X164369Y35D01*
X165347Y140D01*
X166315Y315D01*
X167268Y558D01*
X168201Y869D01*
X169110Y1245D01*
X169990Y1685D01*
X170836Y2187D01*
X171644Y2748D01*
X172409Y3366D01*
X173129Y4036D01*
X173800Y4756D01*
X174417Y5522D01*
X174978Y6330D01*
X175480Y7176D01*
X175920Y8055D01*
X176297Y8964D01*
X176607Y9897D01*
X176850Y10851D01*
X177025Y11818D01*
X177130Y12797D01*
X177165Y13780D01*
Y163386D01*
X13780Y0D02*
X163386D01*
X-0Y13780D02*
Y163386D01*
X13780Y177165D02*
X163386D01*
M02*
