G04*
G04 #@! TF.GenerationSoftware,Altium Limited,Altium Designer,19.0.8 (182)*
G04*
G04 Layer_Color=10964583*
%FSLAX25Y25*%
%MOIN*%
G70*
G01*
G75*
%ADD40R,0.05131X0.04737*%
%ADD41R,0.04737X0.05131*%
%ADD42R,0.04540X0.03162*%
%ADD58O,0.06800X0.10642*%
%ADD59O,0.10642X0.06800*%
%ADD60C,0.25800*%
%ADD61C,0.05200*%
%ADD62C,0.07900*%
%ADD63P,0.08750X8X112.5*%
%ADD64C,0.02800*%
G04:AMPARAMS|DCode=90|XSize=55.24mil|YSize=55.24mil|CornerRadius=27.62mil|HoleSize=0mil|Usage=FLASHONLY|Rotation=0.000|XOffset=0mil|YOffset=0mil|HoleType=Round|Shape=RoundedRectangle|*
%AMROUNDEDRECTD90*
21,1,0.05524,0.00000,0,0,0.0*
21,1,0.00000,0.05524,0,0,0.0*
1,1,0.05524,0.00000,0.00000*
1,1,0.05524,0.00000,0.00000*
1,1,0.05524,0.00000,0.00000*
1,1,0.05524,0.00000,0.00000*
%
%ADD90ROUNDEDRECTD90*%
%ADD91O,0.03162X0.01784*%
G04:AMPARAMS|DCode=92|XSize=55.24mil|YSize=55.24mil|CornerRadius=27.62mil|HoleSize=0mil|Usage=FLASHONLY|Rotation=90.000|XOffset=0mil|YOffset=0mil|HoleType=Round|Shape=RoundedRectangle|*
%AMROUNDEDRECTD92*
21,1,0.05524,0.00000,0,0,90.0*
21,1,0.00000,0.05524,0,0,90.0*
1,1,0.05524,0.00000,0.00000*
1,1,0.05524,0.00000,0.00000*
1,1,0.05524,0.00000,0.00000*
1,1,0.05524,0.00000,0.00000*
%
%ADD92ROUNDEDRECTD92*%
D40*
X95630Y308425D02*
D03*
Y315118D02*
D03*
X90118Y308425D02*
D03*
Y315118D02*
D03*
X178268Y47052D02*
D03*
Y40360D02*
D03*
X109016Y315118D02*
D03*
Y308425D02*
D03*
X159016Y315118D02*
D03*
Y308425D02*
D03*
X109016Y273937D02*
D03*
Y267244D02*
D03*
X159016Y273937D02*
D03*
Y267244D02*
D03*
X145630Y315118D02*
D03*
Y308425D02*
D03*
X95630Y273937D02*
D03*
Y267244D02*
D03*
X145630Y273937D02*
D03*
Y267244D02*
D03*
X82244Y315118D02*
D03*
Y308425D02*
D03*
X132244Y315118D02*
D03*
Y308425D02*
D03*
X82244Y273937D02*
D03*
Y267244D02*
D03*
X132244Y273937D02*
D03*
Y267244D02*
D03*
X76732Y315118D02*
D03*
Y308425D02*
D03*
X103504Y315118D02*
D03*
Y308425D02*
D03*
X126732Y315118D02*
D03*
Y308425D02*
D03*
X140118Y315118D02*
D03*
Y308425D02*
D03*
X153504Y315118D02*
D03*
Y308425D02*
D03*
X76732Y267244D02*
D03*
Y273937D02*
D03*
X90118Y267244D02*
D03*
Y273937D02*
D03*
X103504Y267244D02*
D03*
Y273937D02*
D03*
X126732Y267244D02*
D03*
Y273937D02*
D03*
X140118Y267244D02*
D03*
Y273937D02*
D03*
X153504Y267244D02*
D03*
Y273937D02*
D03*
X97244Y159398D02*
D03*
Y152705D02*
D03*
X97268Y171480D02*
D03*
Y164787D02*
D03*
X119291Y152705D02*
D03*
Y159398D02*
D03*
X97268Y176787D02*
D03*
Y183480D02*
D03*
X68071Y315118D02*
D03*
Y308425D02*
D03*
X118071Y315118D02*
D03*
Y308425D02*
D03*
X68071Y273937D02*
D03*
Y267244D02*
D03*
X118071Y273937D02*
D03*
Y267244D02*
D03*
X119291Y171603D02*
D03*
Y164910D02*
D03*
D41*
X89921Y261929D02*
D03*
X96614D02*
D03*
X139921D02*
D03*
X146614D02*
D03*
X76535D02*
D03*
X83228D02*
D03*
X126535D02*
D03*
X133228D02*
D03*
X113976Y188335D02*
D03*
X120669D02*
D03*
X108465D02*
D03*
X101772D02*
D03*
X118488Y147390D02*
D03*
X111795D02*
D03*
X99984D02*
D03*
X106677D02*
D03*
X103307Y303110D02*
D03*
X110000D02*
D03*
X153307D02*
D03*
X160000D02*
D03*
X89921D02*
D03*
X96614D02*
D03*
X139921D02*
D03*
X146614D02*
D03*
X76535D02*
D03*
X83228D02*
D03*
X126535D02*
D03*
X133228D02*
D03*
X103307Y261629D02*
D03*
X110000D02*
D03*
X153307Y261929D02*
D03*
X160000D02*
D03*
X63543Y296024D02*
D03*
X70236D02*
D03*
X113543D02*
D03*
X120236D02*
D03*
X113543Y254843D02*
D03*
X120236D02*
D03*
X63798D02*
D03*
X70491D02*
D03*
D42*
X64862Y167165D02*
D03*
X74508Y163425D02*
D03*
Y170905D02*
D03*
D58*
X178268Y31496D02*
D03*
X168268D02*
D03*
X83268Y325591D02*
D03*
X93268D02*
D03*
X103268D02*
D03*
X73268D02*
D03*
X63268D02*
D03*
X133268D02*
D03*
X143268D02*
D03*
X153268D02*
D03*
X123268D02*
D03*
X113268D02*
D03*
X83268Y284409D02*
D03*
X93268D02*
D03*
X103268D02*
D03*
X73268D02*
D03*
X63268D02*
D03*
X133268D02*
D03*
X143268D02*
D03*
X153268D02*
D03*
X123268D02*
D03*
X113268D02*
D03*
X138268Y31496D02*
D03*
X148268D02*
D03*
X158268D02*
D03*
X128268D02*
D03*
X118268D02*
D03*
X68268D02*
D03*
X78268D02*
D03*
X88268D02*
D03*
X98268D02*
D03*
D59*
X55905Y157165D02*
D03*
Y167165D02*
D03*
X160641Y127323D02*
D03*
Y117323D02*
D03*
Y107323D02*
D03*
D60*
X15748Y15748D02*
D03*
X200787D02*
D03*
Y318898D02*
D03*
X15748D02*
D03*
D61*
X28650Y272323D02*
D03*
Y262323D02*
D03*
Y252323D02*
D03*
Y242323D02*
D03*
Y232323D02*
D03*
Y222323D02*
D03*
Y212323D02*
D03*
Y202323D02*
D03*
Y192323D02*
D03*
Y182323D02*
D03*
Y172323D02*
D03*
Y162323D02*
D03*
Y152323D02*
D03*
Y142323D02*
D03*
Y132323D02*
D03*
Y122323D02*
D03*
Y112323D02*
D03*
Y102323D02*
D03*
Y92323D02*
D03*
Y82323D02*
D03*
Y72323D02*
D03*
Y62323D02*
D03*
X18650Y272323D02*
D03*
Y262323D02*
D03*
Y252323D02*
D03*
Y242323D02*
D03*
Y232323D02*
D03*
Y222323D02*
D03*
Y212323D02*
D03*
Y202323D02*
D03*
Y192323D02*
D03*
Y182323D02*
D03*
Y172323D02*
D03*
Y162323D02*
D03*
Y152323D02*
D03*
Y142323D02*
D03*
Y132323D02*
D03*
Y122323D02*
D03*
Y112323D02*
D03*
Y102323D02*
D03*
Y92323D02*
D03*
Y82323D02*
D03*
Y72323D02*
D03*
Y62323D02*
D03*
X197941Y272323D02*
D03*
Y262323D02*
D03*
Y252323D02*
D03*
Y242323D02*
D03*
Y232323D02*
D03*
Y222323D02*
D03*
Y212323D02*
D03*
Y202323D02*
D03*
Y192323D02*
D03*
Y182323D02*
D03*
Y172323D02*
D03*
Y162323D02*
D03*
Y152323D02*
D03*
Y142323D02*
D03*
Y132323D02*
D03*
Y122323D02*
D03*
Y112323D02*
D03*
Y102323D02*
D03*
Y92323D02*
D03*
Y82323D02*
D03*
Y72323D02*
D03*
Y62323D02*
D03*
X187941Y272323D02*
D03*
Y262323D02*
D03*
Y252323D02*
D03*
Y242323D02*
D03*
Y232323D02*
D03*
Y222323D02*
D03*
Y212323D02*
D03*
Y202323D02*
D03*
Y192323D02*
D03*
Y182323D02*
D03*
Y172323D02*
D03*
Y162323D02*
D03*
Y152323D02*
D03*
Y142323D02*
D03*
Y132323D02*
D03*
Y122323D02*
D03*
Y112323D02*
D03*
Y102323D02*
D03*
Y92323D02*
D03*
Y82323D02*
D03*
Y72323D02*
D03*
Y62323D02*
D03*
D62*
X23650Y267323D02*
D03*
Y67323D02*
D03*
X192941Y267323D02*
D03*
Y67323D02*
D03*
D63*
X8568Y34446D02*
D03*
X200787Y293976D02*
D03*
X39792Y325591D02*
D03*
X200787Y44134D02*
D03*
D64*
X114764Y183808D02*
D03*
Y179477D02*
D03*
Y175146D02*
D03*
Y170815D02*
D03*
Y166485D02*
D03*
Y162154D02*
D03*
Y157823D02*
D03*
Y153493D02*
D03*
X110433Y183808D02*
D03*
Y179477D02*
D03*
Y175146D02*
D03*
Y170815D02*
D03*
Y166485D02*
D03*
Y162154D02*
D03*
Y157823D02*
D03*
Y153493D02*
D03*
X106102Y183808D02*
D03*
Y179477D02*
D03*
Y175146D02*
D03*
Y170815D02*
D03*
Y166485D02*
D03*
Y162154D02*
D03*
Y157823D02*
D03*
Y153493D02*
D03*
X101772Y183808D02*
D03*
Y179477D02*
D03*
Y175146D02*
D03*
Y170815D02*
D03*
Y166485D02*
D03*
Y162154D02*
D03*
Y157823D02*
D03*
Y153493D02*
D03*
D90*
X160814Y18504D02*
D03*
X170367D02*
D03*
X122598D02*
D03*
X132152D02*
D03*
X141706D02*
D03*
X151260D02*
D03*
D91*
X88150Y298189D02*
D03*
Y296221D02*
D03*
Y294252D02*
D03*
Y292284D02*
D03*
X76339Y298189D02*
D03*
Y296221D02*
D03*
Y294252D02*
D03*
Y292284D02*
D03*
X138150Y298189D02*
D03*
Y296221D02*
D03*
Y294252D02*
D03*
Y292284D02*
D03*
X126339Y298189D02*
D03*
Y296221D02*
D03*
Y294252D02*
D03*
Y292284D02*
D03*
X88150Y257008D02*
D03*
Y255039D02*
D03*
Y253071D02*
D03*
Y251102D02*
D03*
X76339Y257008D02*
D03*
Y255039D02*
D03*
Y253071D02*
D03*
Y251102D02*
D03*
X138150Y257008D02*
D03*
Y255039D02*
D03*
Y253071D02*
D03*
Y251102D02*
D03*
X126339Y257008D02*
D03*
Y255039D02*
D03*
Y253071D02*
D03*
Y251102D02*
D03*
D92*
X179921Y18504D02*
D03*
X36614D02*
D03*
X46168D02*
D03*
X55722D02*
D03*
X65276D02*
D03*
X74829D02*
D03*
X84383D02*
D03*
X93937D02*
D03*
X103491D02*
D03*
X113045D02*
D03*
M02*
