G04*
G04 #@! TF.GenerationSoftware,Altium Limited,Altium Designer,19.0.8 (182)*
G04*
G04 Layer_Color=65535*
%FSLAX25Y25*%
%MOIN*%
G70*
G01*
G75*
%ADD10C,0.00984*%
%ADD11C,0.02362*%
%ADD12C,0.01968*%
%ADD13C,0.00394*%
%ADD14C,0.00500*%
%ADD15C,0.00400*%
%ADD16C,0.00787*%
%ADD17C,0.01181*%
%ADD18C,0.00472*%
%ADD19C,0.00600*%
%ADD20C,0.00321*%
%ADD21C,0.00350*%
G36*
X108063Y30091D02*
X108064Y30090D01*
Y30089D01*
Y25881D01*
Y25881D01*
X108064Y25880D01*
X108063Y25880D01*
X108063Y25879D01*
X108063Y25879D01*
X108063Y25879D01*
X108063Y25879D01*
X108063Y25879D01*
X108063Y25879D01*
X108063Y25879D01*
X104418Y23775D01*
X104418Y23775D01*
X104418Y23775D01*
X104418Y23775D01*
X104418Y23775D01*
X104418Y23775D01*
X104417Y23775D01*
X104416Y23775D01*
X104415Y23776D01*
X104415Y23777D01*
X104415Y23778D01*
X108060Y30090D01*
Y30090D01*
X108060Y30091D01*
X108062Y30091D01*
X108063Y30091D01*
D02*
G37*
G36*
X108513Y31714D02*
X108977Y31579D01*
X109385Y31320D01*
X109705Y30957D01*
X109911Y30520D01*
X109987Y30043D01*
X109927Y29563D01*
X109736Y29119D01*
X109582Y28932D01*
X108355Y31057D01*
X108306Y31106D01*
X108235Y31108D01*
X108187Y31057D01*
X106960Y28932D01*
Y28932D01*
X106806Y29119D01*
X106614Y29563D01*
X106554Y30042D01*
X106630Y30520D01*
X106837Y30957D01*
X107157Y31320D01*
X107565Y31579D01*
X108029Y31714D01*
X108271Y31714D01*
X108513Y31714D01*
D02*
G37*
G36*
X108271Y25522D02*
X108271Y25522D01*
X108271Y25522D01*
X111915Y23417D01*
X111915Y23417D01*
X111915Y23417D01*
X111915Y23417D01*
X111916Y23417D01*
X111916Y23417D01*
X111916Y23417D01*
X111916Y23417D01*
X111917Y23415D01*
X111916Y23414D01*
X111915Y23413D01*
X111914Y23413D01*
X104625Y23414D01*
X104625D01*
X104624Y23415D01*
X104623Y23416D01*
X104624Y23417D01*
X104624Y23418D01*
X108269Y25522D01*
X108269Y25522D01*
X108269Y25522D01*
X108270Y25522D01*
X108270Y25522D01*
X108271Y25522D01*
D02*
G37*
G36*
X108480Y30091D02*
X108480Y30090D01*
X112124Y23778D01*
X112124D01*
X112124Y23777D01*
X112124Y23776D01*
X112123Y23775D01*
X112122Y23775D01*
X112121Y23775D01*
X108477Y25879D01*
X108477D01*
X108477Y25879D01*
X108476Y25880D01*
X108476Y25880D01*
X108476Y25881D01*
X108476Y25881D01*
Y25881D01*
X108476Y25881D01*
X108476Y25881D01*
Y25881D01*
Y25881D01*
X108476Y30089D01*
Y30090D01*
X108476Y30090D01*
X108477Y30091D01*
X108478Y30092D01*
X108480Y30091D01*
D02*
G37*
G36*
X104867Y25311D02*
X103640Y23187D01*
X103623Y23119D01*
X103657Y23057D01*
X103725Y23041D01*
X106178D01*
X106178Y23041D01*
X106094Y22814D01*
X105805Y22426D01*
X105419Y22134D01*
X104968Y21961D01*
X104486Y21921D01*
X104012Y22017D01*
X103584Y22241D01*
X103235Y22576D01*
X103114Y22785D01*
X103114D01*
X102993Y22995D01*
X102877Y23464D01*
X102898Y23947D01*
X103052Y24406D01*
X103327Y24803D01*
X103703Y25107D01*
X104148Y25295D01*
X104629Y25351D01*
X104867Y25311D01*
D02*
G37*
G36*
X112390Y25293D02*
X112836Y25105D01*
X113211Y24801D01*
X113487Y24403D01*
X113641Y23945D01*
X113661Y23462D01*
X113546Y22992D01*
X113425Y22783D01*
X113304Y22573D01*
X112955Y22239D01*
X112526Y22015D01*
X112053Y21919D01*
X111571Y21959D01*
X111119Y22132D01*
X110734Y22424D01*
X110445Y22812D01*
X110360Y23038D01*
X112814Y23038D01*
X112814D01*
X112823Y23039D01*
X112840Y23041D01*
X112857Y23045D01*
X112873Y23052D01*
X112881Y23056D01*
X112888Y23062D01*
X112901Y23075D01*
X112910Y23091D01*
X112916Y23108D01*
X112918Y23117D01*
X112918Y23117D01*
X112917Y23126D01*
X112914Y23143D01*
X112909Y23160D01*
X112902Y23176D01*
X112898Y23184D01*
X111671Y25309D01*
X111671D01*
X111910Y25349D01*
X112390Y25293D01*
D02*
G37*
G36*
X118998Y19997D02*
X118998Y19997D01*
X118999Y19996D01*
Y19995D01*
Y11426D01*
Y11426D01*
X118998Y11425D01*
X118998Y11424D01*
X118997Y11424D01*
X117963D01*
X117962Y11424D01*
X117961Y11425D01*
X117961Y11426D01*
Y11426D01*
Y17516D01*
X116607Y13520D01*
X116607D01*
X116607Y13519D01*
X116607Y13519D01*
X116606Y13518D01*
X116605Y13518D01*
X115968D01*
X115967Y13518D01*
X115967Y13519D01*
X115966Y13519D01*
X115966Y13520D01*
X114636Y17420D01*
Y11426D01*
Y11426D01*
X114636Y11425D01*
X114635Y11424D01*
X114635Y11424D01*
X113600D01*
X113599Y11424D01*
X113599Y11425D01*
X113598Y11426D01*
Y11426D01*
Y19995D01*
Y19996D01*
X113599Y19997D01*
X113599Y19997D01*
X113600Y19997D01*
X114575D01*
X114575Y19997D01*
X114576Y19997D01*
X114576Y19997D01*
X114576Y19996D01*
X114576Y19996D01*
X114576Y19996D01*
X114576Y19996D01*
X114576Y19996D01*
X114576Y19996D01*
X116305Y15236D01*
X118022Y19996D01*
Y19996D01*
X118022Y19996D01*
X118022Y19997D01*
X118023Y19997D01*
X118023Y19997D01*
X118997D01*
X118998Y19997D01*
D02*
G37*
G36*
X95990Y19986D02*
X96168Y19967D01*
X96344Y19940D01*
X96431Y19921D01*
X96431Y19921D01*
X96470Y19912D01*
X96546Y19890D01*
X96621Y19865D01*
X96695Y19838D01*
X96731Y19822D01*
X96731Y19822D01*
X96766Y19808D01*
X96834Y19775D01*
X96900Y19738D01*
X96964Y19698D01*
X96994Y19676D01*
X96994Y19676D01*
X97057Y19631D01*
X97172Y19529D01*
X97276Y19415D01*
X97366Y19290D01*
X97405Y19223D01*
X97405Y19223D01*
X97427Y19185D01*
X97467Y19108D01*
X97503Y19029D01*
X97536Y18949D01*
X97551Y18908D01*
X97551Y18908D01*
X97568Y18861D01*
X97598Y18767D01*
X97624Y18672D01*
X97647Y18575D01*
X97656Y18527D01*
X97657Y18527D01*
X97667Y18471D01*
X97686Y18359D01*
X97702Y18246D01*
X97715Y18133D01*
X97720Y18077D01*
X97720Y18077D01*
X97726Y18011D01*
X97735Y17880D01*
X97740Y17749D01*
X97742Y17618D01*
X97742Y17552D01*
X97742Y17552D01*
X97741Y17470D01*
X97737Y17305D01*
X97728Y17141D01*
X97714Y16977D01*
X97706Y16895D01*
X97706Y16895D01*
X97699Y16826D01*
X97677Y16688D01*
X97649Y16552D01*
X97614Y16417D01*
X97593Y16350D01*
X97593Y16350D01*
X97583Y16320D01*
X97563Y16262D01*
X97541Y16203D01*
X97517Y16146D01*
X97505Y16117D01*
X97505Y16117D01*
X97493Y16090D01*
X97467Y16037D01*
X97439Y15985D01*
X97410Y15934D01*
X97394Y15909D01*
X97394Y15909D01*
X97333Y15812D01*
X97183Y15636D01*
X97009Y15485D01*
X96814Y15361D01*
X96709Y15314D01*
X96709Y15314D01*
X98018Y11426D01*
X96937D01*
X95759Y15109D01*
X94821D01*
Y11426D01*
X93788D01*
Y19995D01*
X95723Y19995D01*
X95812Y19995D01*
X95990Y19986D01*
D02*
G37*
G36*
X125693Y20090D02*
X125777Y20085D01*
X125861Y20076D01*
X125902Y20070D01*
X125902Y20070D01*
X126056Y20044D01*
X126093Y20036D01*
X126165Y20018D01*
X126236Y19997D01*
X126306Y19974D01*
X126340Y19961D01*
X126422Y19930D01*
X126579Y19851D01*
X126726Y19757D01*
X126862Y19648D01*
X126925Y19586D01*
X126970Y19541D01*
X127054Y19446D01*
X127130Y19344D01*
X127199Y19237D01*
X127230Y19181D01*
X127252Y19142D01*
X127291Y19062D01*
X127328Y18980D01*
X127361Y18896D01*
X127376Y18854D01*
X127383Y18832D01*
X127398Y18787D01*
X127412Y18742D01*
X127425Y18697D01*
X127431Y18675D01*
X127444Y18627D01*
X127467Y18532D01*
X127486Y18436D01*
X127502Y18339D01*
X127508Y18291D01*
X127515Y18239D01*
X127525Y18136D01*
X127533Y18033D01*
X127538Y17929D01*
X127538Y17877D01*
X126504Y17877D01*
X126495Y18100D01*
X126484Y18209D01*
X126467Y18316D01*
X126444Y18420D01*
X126416Y18520D01*
X126382Y18615D01*
X126341Y18705D01*
X126294Y18788D01*
X126239Y18864D01*
X126092Y19009D01*
X126062Y19030D01*
X125999Y19068D01*
X125933Y19099D01*
X125864Y19124D01*
X125828Y19134D01*
X125828Y19134D01*
X125796Y19142D01*
X125731Y19154D01*
X125666Y19162D01*
X125600Y19165D01*
X125567Y19165D01*
X125543Y19164D01*
X125496Y19162D01*
X125449Y19158D01*
X125402Y19153D01*
X125379Y19150D01*
Y19150D01*
X125295Y19131D01*
X125146Y19075D01*
X125114Y19057D01*
X125052Y19018D01*
X124994Y18973D01*
X124940Y18923D01*
X124915Y18896D01*
X124915Y18896D01*
X124870Y18840D01*
X124854Y18817D01*
X124823Y18770D01*
X124794Y18722D01*
X124768Y18673D01*
X124756Y18647D01*
Y18647D01*
X124659Y18368D01*
X124613Y18147D01*
X124577Y17885D01*
X124549Y17573D01*
X124530Y17206D01*
X124497Y16860D01*
X124518Y16778D01*
X124511Y16282D01*
X124509Y15711D01*
X124518Y14644D01*
X124530Y14216D01*
X124549Y13849D01*
X124577Y13537D01*
X124613Y13274D01*
X124659Y13054D01*
X124717Y12869D01*
X124787Y12714D01*
X124870Y12582D01*
X125020Y12427D01*
X125295Y12291D01*
X125379Y12272D01*
X125470Y12261D01*
X125567Y12257D01*
X125748Y12272D01*
X125828Y12291D01*
X125971Y12346D01*
X126195Y12517D01*
X126239Y12570D01*
X126342Y12728D01*
X126384Y12816D01*
X126420Y12910D01*
X126450Y13008D01*
X126474Y13110D01*
X126506Y13323D01*
X126516Y13544D01*
X127550Y13544D01*
X127549Y13466D01*
X127539Y13309D01*
X127522Y13153D01*
X127497Y12998D01*
X127480Y12922D01*
X127481Y12922D01*
X127471Y12874D01*
X127448Y12778D01*
X127420Y12684D01*
X127389Y12591D01*
X127372Y12545D01*
X127373Y12546D01*
X127364Y12523D01*
X127347Y12479D01*
X127329Y12436D01*
X127309Y12393D01*
X127299Y12372D01*
X127300Y12372D01*
X127290Y12351D01*
X127270Y12310D01*
X127248Y12269D01*
X127226Y12229D01*
X127214Y12210D01*
X127215Y12210D01*
X127202Y12188D01*
X127176Y12145D01*
X127148Y12103D01*
X127119Y12061D01*
X127104Y12041D01*
X127105Y12041D01*
X127094Y12026D01*
X127070Y11996D01*
X127046Y11966D01*
X127021Y11937D01*
X127008Y11922D01*
X127009Y11923D01*
X126995Y11906D01*
X126965Y11875D01*
X126935Y11844D01*
X126904Y11814D01*
X126888Y11800D01*
X126889Y11800D01*
X126801Y11717D01*
X126604Y11578D01*
X126390Y11470D01*
X126161Y11394D01*
X126043Y11372D01*
X126043Y11372D01*
X126005Y11366D01*
X125928Y11354D01*
X125851Y11344D01*
X125773Y11337D01*
X125735Y11335D01*
X125735D01*
X125567Y11330D01*
X125519Y11330D01*
X125422Y11334D01*
X125326Y11341D01*
X125230Y11352D01*
X125182Y11359D01*
X125182Y11359D01*
X125009Y11394D01*
X124969Y11404D01*
X124890Y11427D01*
X124812Y11454D01*
X124736Y11484D01*
X124698Y11502D01*
X124698D01*
X124613Y11541D01*
X124452Y11636D01*
X124301Y11747D01*
X124163Y11874D01*
X124101Y11944D01*
X124101Y11944D01*
X124057Y11993D01*
X123977Y12097D01*
X123904Y12206D01*
X123838Y12320D01*
X123809Y12380D01*
X123809Y12380D01*
X123794Y12411D01*
X123766Y12475D01*
X123740Y12540D01*
X123716Y12606D01*
X123706Y12639D01*
X123706Y12640D01*
X123626Y12934D01*
X123569Y13268D01*
X123526Y13647D01*
X123499Y14075D01*
X123484Y14559D01*
X123477Y15102D01*
X123476Y15711D01*
X123484Y16863D01*
X123499Y17346D01*
X123526Y17775D01*
X123567Y18154D01*
X123626Y18488D01*
X123706Y18782D01*
X123809Y19042D01*
X123824Y19072D01*
X123855Y19130D01*
X123888Y19188D01*
X123922Y19244D01*
X123940Y19272D01*
X123940Y19272D01*
X123959Y19299D01*
X123997Y19352D01*
X124038Y19403D01*
X124079Y19453D01*
X124101Y19478D01*
X124150Y19534D01*
X124257Y19637D01*
X124372Y19730D01*
X124495Y19814D01*
X124559Y19850D01*
X124612Y19880D01*
X124722Y19932D01*
X124835Y19976D01*
X124950Y20013D01*
X125009Y20027D01*
X125054Y20038D01*
X125143Y20056D01*
X125232Y20070D01*
X125323Y20081D01*
X125368Y20084D01*
X125368Y20084D01*
X125567Y20091D01*
X125609Y20092D01*
X125693Y20090D01*
D02*
G37*
G36*
X127538Y17877D02*
X127538Y17877D01*
Y17877D01*
X127538D01*
D02*
G37*
G36*
X106532Y19997D02*
X106533Y19997D01*
X106533Y19996D01*
Y19995D01*
Y11426D01*
Y11426D01*
X106533Y11425D01*
X106532Y11424D01*
X106532Y11424D01*
X105593D01*
X105592Y11424D01*
X105592Y11424D01*
X105591Y11425D01*
X105591Y11425D01*
X103384Y17276D01*
Y11426D01*
Y11426D01*
X103384Y11425D01*
X103383Y11424D01*
X103382Y11424D01*
X102348D01*
X102347Y11424D01*
X102346Y11425D01*
X102346Y11426D01*
Y11426D01*
Y19995D01*
Y19996D01*
X102346Y19997D01*
X102347Y19997D01*
X102348Y19997D01*
X103310D01*
X103311Y19997D01*
X103311Y19997D01*
X103312Y19996D01*
X103312Y19996D01*
X105507Y14146D01*
X105495Y19995D01*
Y19995D01*
X105495Y19996D01*
X105495Y19997D01*
X105496Y19997D01*
X105497Y19997D01*
X106532D01*
X106532Y19997D01*
D02*
G37*
G36*
X112560Y11426D02*
X111466D01*
X111057Y13448D01*
X109074D01*
X108665Y11426D01*
X107584D01*
X109579Y19995D01*
X110577D01*
X112560Y11426D01*
D02*
G37*
G36*
X121943Y19997D02*
X121943Y19997D01*
X121944Y19996D01*
Y19995D01*
Y11426D01*
Y11426D01*
X121943Y11425D01*
X121943Y11424D01*
X121942Y11424D01*
X120907D01*
X120907Y11424D01*
X120906Y11425D01*
X120906Y11426D01*
Y11426D01*
Y19995D01*
Y19996D01*
X120906Y19997D01*
X120907Y19997D01*
X120907Y19997D01*
X121942D01*
X121943Y19997D01*
D02*
G37*
G36*
X100438D02*
X100439Y19997D01*
X100439Y19996D01*
Y19995D01*
Y11426D01*
Y11426D01*
X100439Y11425D01*
X100438Y11424D01*
X100437Y11424D01*
X99403D01*
X99402Y11424D01*
X99402Y11425D01*
X99401Y11426D01*
Y11426D01*
Y19995D01*
Y19996D01*
X99402Y19997D01*
X99402Y19997D01*
X99403Y19997D01*
X100437D01*
X100438Y19997D01*
D02*
G37*
G36*
X92895D02*
X92896Y19997D01*
X92896Y19996D01*
Y19995D01*
Y19069D01*
Y19068D01*
X92896Y19068D01*
X92895Y19067D01*
X92895Y19067D01*
X91466D01*
Y11426D01*
Y11426D01*
X91466Y11425D01*
X91465Y11424D01*
X91465Y11424D01*
X90430D01*
X90429Y11424D01*
X90429Y11425D01*
X90428Y11426D01*
Y11426D01*
Y19067D01*
X88988D01*
X88987Y19067D01*
X88986Y19068D01*
X88986Y19068D01*
Y19069D01*
Y19995D01*
Y19996D01*
X88986Y19997D01*
X88987Y19997D01*
X88988Y19997D01*
X92895D01*
X92895Y19997D01*
D02*
G37*
G36*
X216615Y14467D02*
X215955Y10634D01*
X212771D01*
X213420Y12489D01*
X213787Y14652D01*
X213787Y15748D01*
X213787Y16600D01*
X213565Y18290D01*
X213124Y19936D01*
X212766Y20800D01*
X216615D01*
Y14467D01*
D02*
G37*
G36*
X188357Y19710D02*
X187869Y17572D01*
X187746Y15382D01*
X187992Y13203D01*
X188599Y11095D01*
X188821Y10634D01*
X132115D01*
Y20800D01*
X188809D01*
X188357Y19710D01*
D02*
G37*
G36*
X84420Y10634D02*
X27731D01*
X28381Y12489D01*
X28748Y14652D01*
X28748Y15748D01*
X28748Y16600D01*
X28526Y18290D01*
X28084Y19936D01*
X27727Y20800D01*
X84420D01*
Y10634D01*
D02*
G37*
G36*
X3318Y19710D02*
X2830Y17572D01*
X2707Y15382D01*
X2952Y13203D01*
X3559Y11095D01*
X3782Y10634D01*
X580D01*
X-80Y14467D01*
Y20800D01*
X3769D01*
X3318Y19710D01*
D02*
G37*
G36*
X117876Y8853D02*
X117968Y8838D01*
X118057Y8816D01*
X118101Y8800D01*
X118115Y8795D01*
X118143Y8782D01*
X118169Y8766D01*
X118195Y8748D01*
X118206Y8738D01*
X118219Y8730D01*
X118243Y8712D01*
X118265Y8692D01*
X118286Y8670D01*
X118296Y8658D01*
X118306Y8646D01*
X118323Y8619D01*
X118339Y8591D01*
X118352Y8562D01*
X118357Y8547D01*
X118357Y8547D01*
X118365Y8531D01*
X118378Y8499D01*
X118389Y8466D01*
X118397Y8431D01*
X118399Y8414D01*
X118402Y8397D01*
X118405Y8361D01*
X118407Y8326D01*
X118408Y8291D01*
X118407Y8273D01*
X118408Y8263D01*
X118408Y8244D01*
X118408Y8224D01*
X118408Y8205D01*
X118407Y8195D01*
X118407Y8169D01*
X118403Y8118D01*
X118394Y8067D01*
X118381Y8018D01*
X118372Y7994D01*
X118361Y7972D01*
X118336Y7930D01*
X118307Y7890D01*
X118276Y7853D01*
X118259Y7836D01*
X118259Y7836D01*
X118233Y7806D01*
X118172Y7757D01*
X118104Y7718D01*
X118030Y7692D01*
X117992Y7685D01*
X118494Y6711D01*
X118052Y6713D01*
X117568Y7647D01*
X117423D01*
X117423Y7984D01*
X117621D01*
X117723Y7990D01*
X117786Y8000D01*
X117839Y8015D01*
X117839D01*
X117848Y8018D01*
X117864Y8024D01*
X117880Y8032D01*
X117895Y8041D01*
X117902Y8046D01*
X117915Y8056D01*
X117938Y8080D01*
X117956Y8107D01*
X117970Y8136D01*
X117975Y8152D01*
X117985Y8202D01*
X117989Y8259D01*
X117985Y8313D01*
X117985Y8313D01*
X117984Y8322D01*
X117981Y8339D01*
X117977Y8356D01*
X117971Y8372D01*
X117968Y8381D01*
X117963Y8392D01*
X117950Y8414D01*
X117935Y8433D01*
X117917Y8450D01*
X117906Y8458D01*
X117897Y8464D01*
X117878Y8474D01*
X117859Y8483D01*
X117839Y8490D01*
X117828Y8493D01*
Y8493D01*
X117815Y8497D01*
X117789Y8502D01*
X117763Y8507D01*
X117736Y8512D01*
X117723Y8513D01*
X117421Y8513D01*
X117423Y7984D01*
D01*
X117423Y7647D01*
X117423D01*
Y7645D01*
X117421Y6711D01*
X117018Y6713D01*
X117020Y8857D01*
X117738Y8857D01*
X117738Y8857D01*
X117784Y8859D01*
X117876Y8853D01*
D02*
G37*
G36*
X109124Y8885D02*
X109124Y8885D01*
X109228Y8883D01*
X109293Y8878D01*
X109354Y8872D01*
X109438Y8859D01*
X109511Y8845D01*
X109574Y8833D01*
X109639Y8820D01*
Y8474D01*
X109570Y8487D01*
X109503Y8497D01*
X109417Y8509D01*
X109340Y8517D01*
X109288Y8522D01*
X109224Y8526D01*
X109163Y8528D01*
X109139Y8528D01*
X109092Y8525D01*
X109046Y8517D01*
X109000Y8506D01*
X108978Y8498D01*
X108959Y8491D01*
X108923Y8475D01*
X108889Y8455D01*
X108856Y8433D01*
X108841Y8421D01*
X108834Y8416D01*
X108822Y8405D01*
X108810Y8393D01*
X108799Y8381D01*
X108794Y8375D01*
X108794Y8375D01*
X108752Y8318D01*
X108727Y8275D01*
X108704Y8227D01*
X108683Y8174D01*
X108657Y8085D01*
X108639Y7983D01*
X108632Y7908D01*
X108628Y7826D01*
X108629Y7699D01*
X108635Y7620D01*
X108644Y7548D01*
X108657Y7482D01*
X108674Y7422D01*
X108704Y7342D01*
X108727Y7295D01*
X108779Y7213D01*
X108788Y7203D01*
X108806Y7182D01*
X108825Y7163D01*
X108846Y7145D01*
X108857Y7137D01*
X108870Y7128D01*
X108896Y7111D01*
X108923Y7097D01*
X108951Y7084D01*
X108965Y7079D01*
Y7079D01*
X108989Y7070D01*
X109038Y7057D01*
X109087Y7049D01*
X109138Y7046D01*
X109163Y7046D01*
X109163D01*
X109224Y7047D01*
X109288Y7052D01*
X109417Y7067D01*
X109491Y7077D01*
X109581Y7092D01*
X109639Y7102D01*
Y6749D01*
X109574Y6736D01*
X109488Y6719D01*
X109438Y6709D01*
X109383Y6700D01*
X109293Y6690D01*
X109228Y6686D01*
X109160Y6684D01*
X109128Y6683D01*
X109065Y6685D01*
X109003Y6690D01*
X108940Y6699D01*
X108910Y6705D01*
X108910Y6705D01*
X108848Y6717D01*
X108730Y6758D01*
X108620Y6817D01*
X108520Y6893D01*
X108477Y6938D01*
X108477Y6938D01*
X108383Y7056D01*
X108306Y7199D01*
X108274Y7280D01*
X108235Y7414D01*
X108216Y7511D01*
X108204Y7615D01*
X108198Y7726D01*
X108197Y7784D01*
X108204Y7953D01*
X108216Y8058D01*
X108235Y8155D01*
X108259Y8246D01*
X108294Y8344D01*
X108324Y8407D01*
X108362Y8479D01*
X108405Y8544D01*
X108413Y8556D01*
X108430Y8578D01*
X108448Y8600D01*
X108467Y8620D01*
X108477Y8630D01*
Y8630D01*
X108508Y8662D01*
X108577Y8719D01*
X108651Y8768D01*
X108730Y8808D01*
X108772Y8824D01*
X108814Y8840D01*
X108901Y8864D01*
X108989Y8879D01*
X109079Y8886D01*
X109124Y8885D01*
D02*
G37*
G36*
X95955Y8857D02*
X95956Y8857D01*
X95956Y8856D01*
Y8855D01*
Y6713D01*
Y6713D01*
X95956Y6712D01*
X95955Y6712D01*
X95955Y6711D01*
X95553D01*
X95552Y6712D01*
X95551Y6712D01*
X95551Y6713D01*
Y6713D01*
Y8022D01*
X95247Y7382D01*
X95247D01*
X95247Y7382D01*
X95246Y7381D01*
X95246Y7381D01*
X95245Y7381D01*
X94848D01*
X94847Y7381D01*
X94847Y7381D01*
X94846Y7382D01*
X94846Y7382D01*
X94533Y8028D01*
Y6713D01*
Y6713D01*
X94533Y6712D01*
X94532Y6712D01*
X94531Y6711D01*
X94129D01*
X94129Y6712D01*
X94128Y6712D01*
X94128Y6713D01*
Y6713D01*
Y8855D01*
Y8856D01*
X94128Y8857D01*
X94129Y8857D01*
X94129Y8857D01*
X94531D01*
X94532Y8857D01*
X94532Y8857D01*
X94533Y8857D01*
X94533Y8856D01*
X95046Y7810D01*
X95551Y8856D01*
X95551Y8856D01*
X95551Y8857D01*
X95552Y8857D01*
X95552Y8857D01*
X95553Y8857D01*
X95955D01*
X95955Y8857D01*
D02*
G37*
G36*
X114233D02*
X114234Y8857D01*
X114234Y8856D01*
Y8855D01*
Y6713D01*
Y6713D01*
X114234Y6712D01*
X114233Y6712D01*
X114232Y6711D01*
X113831D01*
X113830Y6711D01*
X113830Y6712D01*
X113829Y6712D01*
X113829Y6712D01*
X113109Y8008D01*
Y6713D01*
Y6713D01*
X113109Y6712D01*
X113108Y6712D01*
X113108Y6711D01*
X112706D01*
X112705Y6712D01*
X112704Y6712D01*
X112704Y6713D01*
Y6713D01*
Y8855D01*
Y8856D01*
X112704Y8857D01*
X112705Y8857D01*
X112706Y8857D01*
X113107D01*
X113108Y8857D01*
X113109Y8857D01*
X113109Y8857D01*
X113109Y8856D01*
X113829Y7557D01*
Y8855D01*
Y8856D01*
X113829Y8857D01*
X113830Y8857D01*
X113830Y8857D01*
X114232D01*
X114233Y8857D01*
D02*
G37*
G36*
X106591D02*
X106591Y8857D01*
X106592Y8856D01*
Y8855D01*
Y6713D01*
Y6713D01*
X106591Y6712D01*
X106591Y6712D01*
X106590Y6711D01*
X106189D01*
X106188Y6711D01*
X106188Y6712D01*
X106187Y6712D01*
X106187Y6712D01*
X105467Y8008D01*
Y6713D01*
Y6713D01*
X105467Y6712D01*
X105466Y6712D01*
X105466Y6711D01*
X105063D01*
X105062Y6712D01*
X105062Y6712D01*
X105062Y6713D01*
Y6713D01*
Y8855D01*
Y8856D01*
X105062Y8857D01*
X105062Y8857D01*
X105063Y8857D01*
X105465D01*
X105466Y8857D01*
X105466Y8857D01*
X105467Y8857D01*
X105467Y8856D01*
X106187Y7557D01*
Y8855D01*
Y8856D01*
X106187Y8857D01*
X106188Y8857D01*
X106188Y8857D01*
X106590D01*
X106591Y8857D01*
D02*
G37*
G36*
X111216Y8878D02*
X111278Y8868D01*
X111300Y8864D01*
X111344Y8855D01*
X111388Y8842D01*
X111430Y8827D01*
X111451Y8818D01*
X111451Y8818D01*
X111492Y8801D01*
X111567Y8758D01*
X111638Y8707D01*
X111701Y8647D01*
X111729Y8614D01*
X111730Y8614D01*
X111741Y8600D01*
X111764Y8571D01*
X111785Y8541D01*
X111805Y8509D01*
X111814Y8493D01*
X111814Y8494D01*
X111850Y8425D01*
X111881Y8351D01*
X111908Y8271D01*
X111940Y8140D01*
X111955Y8046D01*
X111965Y7946D01*
X111970Y7840D01*
X111971Y7784D01*
X111965Y7623D01*
X111955Y7523D01*
X111940Y7429D01*
X111920Y7340D01*
X111915Y7320D01*
X111903Y7279D01*
X111889Y7239D01*
X111874Y7200D01*
X111866Y7180D01*
X111866Y7180D01*
X111832Y7109D01*
X111794Y7043D01*
X111730Y6955D01*
X111702Y6921D01*
X111638Y6861D01*
X111568Y6810D01*
X111492Y6767D01*
X111451Y6751D01*
X111451Y6751D01*
X111431Y6742D01*
X111389Y6728D01*
X111346Y6715D01*
X111302Y6705D01*
X111280Y6701D01*
X111281Y6701D01*
X111170Y6687D01*
X111093Y6684D01*
Y7026D01*
X111093D01*
X111093D01*
D01*
X111114Y7026D01*
X111156Y7029D01*
X111198Y7037D01*
X111239Y7049D01*
X111259Y7057D01*
X111259Y7057D01*
X111274Y7063D01*
X111302Y7077D01*
X111328Y7094D01*
X111353Y7113D01*
X111365Y7123D01*
X111365Y7123D01*
X111376Y7134D01*
X111397Y7155D01*
X111415Y7178D01*
X111432Y7203D01*
X111439Y7216D01*
X111440Y7216D01*
X111445Y7226D01*
X111456Y7246D01*
X111467Y7267D01*
X111476Y7288D01*
X111481Y7299D01*
X111481Y7299D01*
X111513Y7398D01*
X111537Y7511D01*
X111550Y7640D01*
X111555Y7784D01*
X111555Y7918D01*
X111537Y8057D01*
X111513Y8171D01*
X111481Y8270D01*
X111440Y8353D01*
X111389Y8421D01*
X111328Y8474D01*
X111262Y8505D01*
X111180Y8535D01*
X111093Y8543D01*
X111071Y8542D01*
X111029Y8539D01*
X110987Y8531D01*
X110946Y8520D01*
X110926Y8512D01*
X110926Y8512D01*
X110830Y8451D01*
X110746Y8353D01*
X110704Y8270D01*
X110672Y8171D01*
X110648Y8060D01*
X110635Y7928D01*
X110630Y7784D01*
X110634Y7646D01*
X110649Y7512D01*
X110672Y7398D01*
X110704Y7299D01*
X110746Y7216D01*
X110797Y7147D01*
X110857Y7095D01*
X110874Y7084D01*
X110909Y7065D01*
X110947Y7050D01*
X110985Y7038D01*
X111005Y7034D01*
X111016Y7032D01*
X111038Y7029D01*
X111059Y7027D01*
X111082Y7026D01*
X111093Y7026D01*
X111093Y6684D01*
X110978Y6690D01*
X110869Y6708D01*
X110852Y6712D01*
X110818Y6721D01*
X110784Y6732D01*
X110750Y6744D01*
X110734Y6751D01*
X110734Y6751D01*
X110694Y6768D01*
X110618Y6810D01*
X110548Y6862D01*
X110484Y6921D01*
X110456Y6954D01*
X110456Y6955D01*
X110444Y6969D01*
X110422Y6998D01*
X110400Y7028D01*
X110381Y7059D01*
X110372Y7075D01*
X110372Y7075D01*
X110336Y7144D01*
X110304Y7218D01*
X110277Y7298D01*
X110245Y7429D01*
X110230Y7523D01*
X110220Y7623D01*
X110215Y7729D01*
X110215Y7784D01*
X110220Y7946D01*
X110230Y8046D01*
X110245Y8140D01*
X110265Y8229D01*
X110271Y8249D01*
X110283Y8289D01*
X110297Y8329D01*
X110312Y8369D01*
X110320Y8388D01*
X110320Y8388D01*
X110353Y8460D01*
X110391Y8526D01*
X110456Y8614D01*
X110470Y8631D01*
X110500Y8663D01*
X110532Y8693D01*
X110565Y8721D01*
X110583Y8733D01*
X110583Y8733D01*
X110601Y8746D01*
X110637Y8769D01*
X110675Y8790D01*
X110714Y8809D01*
X110734Y8818D01*
X110734Y8818D01*
X110755Y8827D01*
X110796Y8842D01*
X110839Y8854D01*
X110883Y8864D01*
X110905Y8868D01*
X110905Y8868D01*
X111015Y8882D01*
X111093Y8885D01*
X111216Y8878D01*
D02*
G37*
G36*
X103574D02*
X103636Y8868D01*
X103658Y8864D01*
X103702Y8855D01*
X103745Y8842D01*
X103788Y8827D01*
X103809Y8818D01*
X103809Y8818D01*
X103849Y8801D01*
X103925Y8758D01*
X103995Y8707D01*
X104059Y8647D01*
X104087Y8614D01*
X104087Y8614D01*
X104099Y8600D01*
X104122Y8571D01*
X104143Y8541D01*
X104162Y8509D01*
X104171Y8493D01*
X104172Y8494D01*
X104207Y8425D01*
X104239Y8351D01*
X104266Y8271D01*
X104298Y8140D01*
X104313Y8046D01*
X104323Y7946D01*
X104328Y7840D01*
X104329Y7784D01*
X104323Y7623D01*
X104313Y7523D01*
X104298Y7429D01*
X104278Y7340D01*
X104272Y7320D01*
X104260Y7279D01*
X104247Y7239D01*
X104232Y7200D01*
X104223Y7180D01*
X104224Y7180D01*
X104190Y7109D01*
X104152Y7043D01*
X104087Y6955D01*
X104060Y6921D01*
X103996Y6861D01*
X103926Y6810D01*
X103849Y6767D01*
X103809Y6751D01*
X103809Y6751D01*
X103788Y6742D01*
X103746Y6728D01*
X103703Y6715D01*
X103660Y6705D01*
X103638Y6701D01*
X103638Y6701D01*
X103527Y6687D01*
X103450Y6684D01*
Y7026D01*
X103450D01*
X103450D01*
D01*
X103472Y7026D01*
X103514Y7029D01*
X103556Y7037D01*
X103597Y7049D01*
X103617Y7057D01*
X103617Y7057D01*
X103631Y7063D01*
X103659Y7077D01*
X103686Y7094D01*
X103711Y7113D01*
X103723Y7123D01*
X103723Y7123D01*
X103734Y7134D01*
X103754Y7155D01*
X103773Y7178D01*
X103789Y7203D01*
X103797Y7216D01*
X103797Y7216D01*
X103803Y7226D01*
X103814Y7246D01*
X103824Y7267D01*
X103834Y7288D01*
X103839Y7299D01*
X103839Y7299D01*
X103871Y7398D01*
X103894Y7511D01*
X103908Y7640D01*
X103913Y7784D01*
X103913Y7918D01*
X103894Y8057D01*
X103871Y8171D01*
X103839Y8270D01*
X103797Y8353D01*
X103746Y8421D01*
X103686Y8474D01*
X103620Y8505D01*
X103538Y8535D01*
X103450Y8543D01*
X103429Y8542D01*
X103387Y8539D01*
X103345Y8531D01*
X103304Y8520D01*
X103284Y8512D01*
X103284Y8512D01*
X103188Y8451D01*
X103104Y8353D01*
X103062Y8270D01*
X103030Y8171D01*
X103006Y8060D01*
X102993Y7928D01*
X102988Y7784D01*
X102992Y7646D01*
X103007Y7512D01*
X103030Y7398D01*
X103062Y7299D01*
X103104Y7216D01*
X103155Y7147D01*
X103215Y7095D01*
X103232Y7084D01*
X103267Y7065D01*
X103304Y7050D01*
X103343Y7038D01*
X103363Y7034D01*
X103373Y7032D01*
X103395Y7029D01*
X103417Y7027D01*
X103439Y7026D01*
X103450Y7026D01*
X103450Y6684D01*
X103335Y6690D01*
X103227Y6708D01*
X103210Y6712D01*
X103175Y6721D01*
X103141Y6732D01*
X103108Y6744D01*
X103092Y6751D01*
X103092Y6751D01*
X103052Y6768D01*
X102976Y6810D01*
X102905Y6862D01*
X102842Y6921D01*
X102814Y6954D01*
X102814Y6955D01*
X102802Y6969D01*
X102779Y6998D01*
X102758Y7028D01*
X102738Y7059D01*
X102729Y7075D01*
X102729Y7075D01*
X102694Y7144D01*
X102662Y7218D01*
X102635Y7298D01*
X102603Y7429D01*
X102588Y7523D01*
X102578Y7623D01*
X102573Y7729D01*
X102572Y7784D01*
X102578Y7946D01*
X102588Y8046D01*
X102603Y8140D01*
X102623Y8229D01*
X102629Y8249D01*
X102641Y8289D01*
X102655Y8329D01*
X102669Y8369D01*
X102677Y8388D01*
X102677Y8388D01*
X102711Y8460D01*
X102749Y8526D01*
X102814Y8614D01*
X102828Y8631D01*
X102857Y8663D01*
X102889Y8693D01*
X102923Y8721D01*
X102941Y8733D01*
X102941Y8733D01*
X102959Y8746D01*
X102995Y8769D01*
X103033Y8790D01*
X103072Y8809D01*
X103092Y8818D01*
X103092Y8818D01*
X103112Y8827D01*
X103154Y8842D01*
X103197Y8854D01*
X103240Y8864D01*
X103262Y8868D01*
X103262Y8868D01*
X103373Y8882D01*
X103450Y8885D01*
X103574Y8878D01*
D02*
G37*
G36*
X120052Y8878D02*
X120114Y8868D01*
X120136Y8864D01*
X120180Y8855D01*
X120224Y8842D01*
X120266Y8827D01*
X120287Y8818D01*
X120288Y8818D01*
X120328Y8801D01*
X120404Y8758D01*
X120474Y8707D01*
X120537Y8647D01*
X120565Y8614D01*
X120566Y8614D01*
X120578Y8600D01*
X120600Y8571D01*
X120621Y8541D01*
X120641Y8509D01*
X120650Y8493D01*
X120650Y8494D01*
X120686Y8425D01*
X120717Y8350D01*
X120744Y8271D01*
X120776Y8140D01*
X120791Y8046D01*
X120801Y7946D01*
X120806Y7840D01*
X120807Y7784D01*
X120801Y7623D01*
X120791Y7523D01*
X120776Y7429D01*
X120756Y7340D01*
X120751Y7320D01*
X120739Y7279D01*
X120725Y7239D01*
X120710Y7200D01*
X120702Y7180D01*
X120702Y7180D01*
X120668Y7109D01*
X120631Y7043D01*
X120566Y6955D01*
X120538Y6921D01*
X120474Y6861D01*
X120404Y6810D01*
X120328Y6767D01*
X120287Y6751D01*
X120288Y6751D01*
X120267Y6742D01*
X120225Y6728D01*
X120182Y6715D01*
X120138Y6705D01*
X120116Y6701D01*
X120117Y6701D01*
X120006Y6687D01*
X119929Y6684D01*
Y7026D01*
X119929D01*
X119929D01*
D01*
X119950Y7026D01*
X119992Y7029D01*
X120034Y7037D01*
X120075Y7049D01*
X120095Y7057D01*
X120095Y7057D01*
X120110Y7063D01*
X120138Y7077D01*
X120164Y7094D01*
X120189Y7113D01*
X120201Y7123D01*
X120201Y7123D01*
X120212Y7134D01*
X120233Y7155D01*
X120251Y7178D01*
X120268Y7203D01*
X120275Y7216D01*
X120275Y7216D01*
X120281Y7226D01*
X120292Y7246D01*
X120303Y7267D01*
X120312Y7288D01*
X120317Y7299D01*
X120317Y7299D01*
X120350Y7398D01*
X120373Y7511D01*
X120387Y7640D01*
X120391Y7784D01*
X120391Y7918D01*
X120373Y8057D01*
X120350Y8171D01*
X120317Y8270D01*
X120276Y8353D01*
X120225Y8421D01*
X120165Y8474D01*
X120098Y8505D01*
X120017Y8535D01*
X119929Y8542D01*
X119907Y8542D01*
X119865Y8539D01*
X119823Y8531D01*
X119782Y8519D01*
X119762Y8512D01*
X119762Y8512D01*
X119666Y8451D01*
X119582Y8353D01*
X119540Y8270D01*
X119508Y8171D01*
X119484Y8060D01*
X119471Y7928D01*
X119466Y7784D01*
X119470Y7646D01*
X119485Y7511D01*
X119508Y7398D01*
X119540Y7299D01*
X119582Y7216D01*
X119633Y7147D01*
X119693Y7094D01*
X119710Y7084D01*
X119746Y7065D01*
X119783Y7050D01*
X119821Y7038D01*
X119841Y7034D01*
X119852Y7032D01*
X119874Y7029D01*
X119896Y7027D01*
X119918Y7026D01*
X119929Y7026D01*
X119929Y6684D01*
X119814Y6690D01*
X119705Y6708D01*
X119688Y6712D01*
X119654Y6721D01*
X119620Y6732D01*
X119586Y6744D01*
X119570Y6751D01*
X119570Y6751D01*
X119530Y6768D01*
X119454Y6810D01*
X119384Y6862D01*
X119320Y6921D01*
X119292Y6954D01*
X119292Y6955D01*
X119280Y6969D01*
X119258Y6998D01*
X119237Y7028D01*
X119217Y7059D01*
X119208Y7075D01*
X119208Y7075D01*
X119172Y7144D01*
X119141Y7218D01*
X119113Y7298D01*
X119081Y7429D01*
X119066Y7523D01*
X119056Y7623D01*
X119051Y7729D01*
X119051Y7784D01*
X119056Y7945D01*
X119066Y8046D01*
X119081Y8140D01*
X119102Y8229D01*
X119107Y8249D01*
X119120Y8289D01*
X119133Y8329D01*
X119148Y8369D01*
X119156Y8388D01*
X119156Y8388D01*
X119189Y8460D01*
X119227Y8526D01*
X119292Y8614D01*
X119306Y8631D01*
X119336Y8663D01*
X119368Y8693D01*
X119402Y8720D01*
X119419Y8733D01*
X119419Y8733D01*
X119437Y8746D01*
X119474Y8769D01*
X119511Y8790D01*
X119550Y8809D01*
X119570Y8818D01*
X119570Y8818D01*
X119591Y8827D01*
X119632Y8842D01*
X119675Y8854D01*
X119719Y8864D01*
X119741Y8868D01*
X119741Y8868D01*
X119852Y8882D01*
X119929Y8885D01*
X120052Y8878D01*
D02*
G37*
G36*
X97692D02*
X97753Y8868D01*
X97776Y8864D01*
X97820Y8855D01*
X97863Y8842D01*
X97906Y8827D01*
X97927Y8818D01*
X97927Y8818D01*
X97967Y8801D01*
X98043Y8758D01*
X98113Y8707D01*
X98177Y8647D01*
X98205Y8614D01*
X98205Y8614D01*
X98217Y8600D01*
X98239Y8571D01*
X98261Y8541D01*
X98280Y8509D01*
X98289Y8493D01*
X98289Y8494D01*
X98325Y8425D01*
X98356Y8350D01*
X98384Y8271D01*
X98416Y8140D01*
X98431Y8046D01*
X98441Y7946D01*
X98446Y7840D01*
X98446Y7784D01*
X98441Y7623D01*
X98431Y7523D01*
X98416Y7429D01*
X98396Y7340D01*
X98390Y7320D01*
X98378Y7279D01*
X98365Y7239D01*
X98349Y7200D01*
X98341Y7180D01*
X98341Y7180D01*
X98308Y7109D01*
X98270Y7043D01*
X98205Y6955D01*
X98177Y6921D01*
X98114Y6861D01*
X98043Y6810D01*
X97967Y6767D01*
X97927Y6751D01*
X97927Y6751D01*
X97906Y6742D01*
X97864Y6728D01*
X97821Y6715D01*
X97778Y6705D01*
X97756Y6701D01*
X97756Y6701D01*
X97645Y6687D01*
X97568Y6684D01*
Y7026D01*
X97568D01*
X97568D01*
D01*
X97589Y7026D01*
X97632Y7029D01*
X97674Y7037D01*
X97715Y7049D01*
X97734Y7057D01*
X97735Y7057D01*
X97749Y7063D01*
X97777Y7077D01*
X97804Y7094D01*
X97829Y7113D01*
X97841Y7123D01*
X97841Y7123D01*
X97852Y7134D01*
X97872Y7155D01*
X97891Y7178D01*
X97907Y7203D01*
X97915Y7216D01*
X97915Y7216D01*
X97921Y7226D01*
X97932Y7246D01*
X97942Y7267D01*
X97952Y7288D01*
X97956Y7299D01*
X97957Y7299D01*
X97989Y7398D01*
X98012Y7511D01*
X98026Y7640D01*
X98031Y7784D01*
X98031Y7918D01*
X98012Y8057D01*
X97989Y8171D01*
X97957Y8270D01*
X97915Y8353D01*
X97864Y8421D01*
X97804Y8474D01*
X97738Y8505D01*
X97656Y8535D01*
X97568Y8542D01*
X97547Y8542D01*
X97504Y8539D01*
X97463Y8531D01*
X97422Y8519D01*
X97402Y8512D01*
X97402Y8512D01*
X97306Y8451D01*
X97221Y8353D01*
X97180Y8270D01*
X97148Y8171D01*
X97124Y8060D01*
X97110Y7928D01*
X97106Y7784D01*
X97110Y7646D01*
X97124Y7511D01*
X97148Y7398D01*
X97180Y7299D01*
X97222Y7216D01*
X97272Y7147D01*
X97332Y7094D01*
X97349Y7084D01*
X97385Y7065D01*
X97422Y7050D01*
X97461Y7038D01*
X97480Y7034D01*
X97491Y7032D01*
X97513Y7029D01*
X97535Y7027D01*
X97557Y7026D01*
X97568Y7026D01*
X97568Y6684D01*
X97453Y6690D01*
X97345Y6708D01*
X97327Y6712D01*
X97293Y6721D01*
X97259Y6732D01*
X97226Y6744D01*
X97209Y6751D01*
X97210Y6751D01*
X97169Y6768D01*
X97093Y6810D01*
X97023Y6862D01*
X96960Y6921D01*
X96931Y6954D01*
X96931Y6955D01*
X96920Y6969D01*
X96897Y6998D01*
X96876Y7028D01*
X96856Y7059D01*
X96847Y7075D01*
X96847Y7075D01*
X96811Y7144D01*
X96780Y7218D01*
X96753Y7298D01*
X96721Y7429D01*
X96706Y7523D01*
X96696Y7623D01*
X96691Y7729D01*
X96690Y7784D01*
X96696Y7945D01*
X96706Y8046D01*
X96721Y8140D01*
X96741Y8229D01*
X96746Y8249D01*
X96759Y8289D01*
X96772Y8329D01*
X96787Y8369D01*
X96795Y8388D01*
X96795Y8388D01*
X96829Y8460D01*
X96867Y8526D01*
X96931Y8614D01*
X96945Y8631D01*
X96975Y8663D01*
X97007Y8693D01*
X97041Y8720D01*
X97059Y8733D01*
X97059Y8733D01*
X97076Y8746D01*
X97113Y8769D01*
X97151Y8790D01*
X97189Y8809D01*
X97210Y8818D01*
X97210Y8818D01*
X97230Y8827D01*
X97272Y8842D01*
X97315Y8854D01*
X97358Y8864D01*
X97380Y8868D01*
X97380Y8868D01*
X97491Y8882D01*
X97568Y8885D01*
X97692Y8878D01*
D02*
G37*
G36*
X121944Y8857D02*
X121945Y8857D01*
X121945Y8856D01*
Y8855D01*
Y7058D01*
X122598D01*
X122599Y7057D01*
X122599Y7057D01*
X122599Y7056D01*
Y7056D01*
Y6713D01*
Y6713D01*
X122599Y6712D01*
X122599Y6712D01*
X122598Y6711D01*
X121542D01*
X121541Y6712D01*
X121540Y6712D01*
X121540Y6713D01*
Y6713D01*
Y8855D01*
Y8856D01*
X121540Y8857D01*
X121541Y8857D01*
X121542Y8857D01*
X121944D01*
X121944Y8857D01*
D02*
G37*
G36*
X116365D02*
X116366Y8857D01*
X116366Y8856D01*
Y8855D01*
Y8498D01*
Y8498D01*
X116366Y8497D01*
X116365Y8497D01*
X116365Y8496D01*
X115831D01*
Y6713D01*
Y6713D01*
X115831Y6712D01*
X115830Y6712D01*
X115830Y6711D01*
X115427D01*
X115427Y6712D01*
X115426Y6712D01*
X115426Y6713D01*
Y6713D01*
Y8496D01*
X114892D01*
X114891Y8497D01*
X114891Y8497D01*
X114891Y8498D01*
Y8498D01*
Y8855D01*
Y8856D01*
X114891Y8857D01*
X114891Y8857D01*
X114892Y8857D01*
X116365D01*
X116365Y8857D01*
D02*
G37*
G36*
X102024D02*
X102025Y8857D01*
X102025Y8856D01*
Y8855D01*
Y8601D01*
Y8601D01*
X102025Y8600D01*
X102024Y8599D01*
X102024Y8599D01*
X101668D01*
Y6970D01*
X102024D01*
X102024Y6969D01*
X102025Y6969D01*
X102025Y6968D01*
Y6967D01*
Y6713D01*
Y6713D01*
X102025Y6712D01*
X102024Y6712D01*
X102024Y6711D01*
X100908D01*
X100907Y6712D01*
X100907Y6712D01*
X100906Y6713D01*
Y6713D01*
Y6967D01*
Y6968D01*
X100907Y6969D01*
X100907Y6969D01*
X100908Y6970D01*
X101263D01*
Y8599D01*
X100908D01*
X100907Y8599D01*
X100907Y8600D01*
X100906Y8601D01*
Y8601D01*
Y8855D01*
Y8856D01*
X100907Y8857D01*
X100907Y8857D01*
X100908Y8857D01*
X102024D01*
X102024Y8857D01*
D02*
G37*
G36*
X100376D02*
X100377Y8857D01*
X100377Y8856D01*
Y8855D01*
Y8498D01*
Y8498D01*
X100377Y8497D01*
X100376Y8497D01*
X100376Y8496D01*
X99842D01*
Y6713D01*
Y6713D01*
X99842Y6712D01*
X99841Y6712D01*
X99840Y6711D01*
X99438D01*
X99437Y6712D01*
X99437Y6712D01*
X99437Y6713D01*
Y6713D01*
Y8496D01*
X98903D01*
X98902Y8497D01*
X98902Y8497D01*
X98902Y8498D01*
Y8498D01*
Y8855D01*
Y8856D01*
X98902Y8857D01*
X98902Y8857D01*
X98903Y8857D01*
X100376D01*
X100376Y8857D01*
D02*
G37*
%LPC*%
G36*
X95735Y19069D02*
X94821D01*
Y16024D01*
X95735D01*
X95786Y16024D01*
X95890Y16032D01*
X95992Y16049D01*
X96092Y16077D01*
X96141Y16095D01*
X96141D01*
X96161Y16103D01*
X96201Y16122D01*
X96240Y16144D01*
X96277Y16168D01*
X96295Y16181D01*
X96295Y16181D01*
X96329Y16208D01*
X96393Y16268D01*
X96449Y16335D01*
X96498Y16407D01*
X96519Y16445D01*
X96519Y16445D01*
X96530Y16466D01*
X96551Y16509D01*
X96570Y16552D01*
X96587Y16597D01*
X96595Y16619D01*
X96595Y16619D01*
X96649Y16819D01*
X96684Y17042D01*
X96703Y17287D01*
X96709Y17552D01*
X96709Y17615D01*
X96706Y17741D01*
X96700Y17868D01*
X96690Y17993D01*
X96684Y18056D01*
X96684Y18056D01*
X96649Y18278D01*
X96595Y18476D01*
X96520Y18649D01*
X96421Y18795D01*
X96376Y18847D01*
X96273Y18936D01*
X96153Y19002D01*
X96022Y19041D01*
X95955Y19051D01*
X95955Y19051D01*
X95735Y19069D01*
D02*
G37*
G36*
X110072Y18322D02*
X109266Y14375D01*
X110864D01*
X110072Y18322D01*
D02*
G37*
%LPD*%
D10*
X95965Y144831D02*
G03*
X95965Y144831I-492J0D01*
G01*
X111071Y92155D02*
G03*
X111071Y92155I-492J0D01*
G01*
X124260D02*
G03*
X124260Y92155I-492J0D01*
G01*
X137449D02*
G03*
X137449Y92155I-492J0D01*
G01*
X22886Y283925D02*
G03*
X22886Y283925I-492J0D01*
G01*
X34393Y49940D02*
G03*
X34393Y49940I-492J0D01*
G01*
X84606Y92155D02*
G03*
X84606Y92155I-492J0D01*
G01*
X98189D02*
G03*
X98189Y92155I-492J0D01*
G01*
X150638Y92155D02*
G03*
X150638Y92155I-492J0D01*
G01*
D11*
X43448Y45196D02*
G03*
X43448Y45196I-1181J0D01*
G01*
D12*
X9329Y57323D02*
G03*
X9329Y57323I-707J0D01*
G01*
X178621D02*
G03*
X178621Y57323I-707J0D01*
G01*
D13*
X13568Y34446D02*
G03*
X13568Y34446I-5000J0D01*
G01*
X205787Y293976D02*
G03*
X205787Y293976I-5000J0D01*
G01*
X44792Y325591D02*
G03*
X44792Y325591I-5000J0D01*
G01*
X205787Y44134D02*
G03*
X205787Y44134I-5000J0D01*
G01*
X105001Y129728D02*
Y134453D01*
X100375D02*
X105001D01*
X100375Y112996D02*
X102540D01*
X104903Y115358D01*
Y121067D01*
X76162Y115358D02*
Y121067D01*
Y115358D02*
X78525Y112996D01*
X80690D01*
X76064Y134453D02*
X80690D01*
X76064Y129728D02*
Y134453D01*
D14*
X112811Y230596D02*
G03*
X113992Y229415I1181J0D01*
G01*
X121079D01*
X112811Y230596D02*
Y236502D01*
X121079Y219966D02*
Y236502D01*
X97457D02*
X121079D01*
X97457Y219966D02*
Y236502D01*
Y219966D02*
X121079D01*
X85433Y103464D02*
Y107463D01*
X87432D01*
X88099Y106797D01*
Y105464D01*
X87432Y104797D01*
X85433D01*
X86766D02*
X88099Y103464D01*
X89432Y107463D02*
X92098D01*
X90765D01*
Y103464D01*
X93431D02*
Y107463D01*
X94763Y106130D01*
X96096Y107463D01*
Y103464D01*
X153937Y99904D02*
Y96572D01*
X154604Y95905D01*
X155936D01*
X156603Y96572D01*
Y99904D01*
X157936Y95905D02*
Y98571D01*
X159269Y99904D01*
X160601Y98571D01*
Y95905D01*
Y97905D01*
X157936D01*
X161934Y95905D02*
Y99904D01*
X163934D01*
X164600Y99238D01*
Y97905D01*
X163934Y97238D01*
X161934D01*
X163267D02*
X164600Y95905D01*
X165933Y99904D02*
X168599D01*
X167266D01*
Y95905D01*
X74434Y316919D02*
X75017Y317503D01*
Y318669D01*
X74434Y319252D01*
X72101D01*
X71518Y318669D01*
Y317503D01*
X72101Y316919D01*
X73268D01*
Y318086D01*
X71518Y315753D02*
X75017D01*
X71518Y313421D01*
X75017D01*
Y312254D02*
X71518D01*
Y310505D01*
X72101Y309922D01*
X74434D01*
X75017Y310505D01*
Y312254D01*
X63268Y319213D02*
Y316880D01*
X64434Y318046D02*
X62101D01*
X65017Y313381D02*
Y315714D01*
X63268D01*
X63851Y314547D01*
Y313964D01*
X63268Y313381D01*
X62101D01*
X61518Y313964D01*
Y315131D01*
X62101Y315714D01*
X65017Y312215D02*
X62685D01*
X61518Y311049D01*
X62685Y309882D01*
X65017D01*
X113268Y319213D02*
Y316880D01*
X114434Y318046D02*
X112101D01*
X115017Y313381D02*
Y315714D01*
X113268D01*
X113851Y314547D01*
Y313964D01*
X113268Y313381D01*
X112101D01*
X111518Y313964D01*
Y315131D01*
X112101Y315714D01*
X115017Y312215D02*
X112685D01*
X111518Y311049D01*
X112685Y309882D01*
X115017D01*
X124434Y316919D02*
X125017Y317503D01*
Y318669D01*
X124434Y319252D01*
X122101D01*
X121518Y318669D01*
Y317503D01*
X122101Y316919D01*
X123268D01*
Y318086D01*
X121518Y315753D02*
X125017D01*
X121518Y313421D01*
X125017D01*
Y312254D02*
X121518D01*
Y310505D01*
X122101Y309922D01*
X124434D01*
X125017Y310505D01*
Y312254D01*
X63317Y278178D02*
Y275845D01*
X64483Y277012D02*
X62151D01*
X65067Y272347D02*
Y274679D01*
X63317D01*
X63900Y273513D01*
Y272930D01*
X63317Y272347D01*
X62151D01*
X61568Y272930D01*
Y274096D01*
X62151Y274679D01*
X65067Y271180D02*
X62734D01*
X61568Y270014D01*
X62734Y268848D01*
X65067D01*
X74484Y275885D02*
X75067Y276468D01*
Y277634D01*
X74484Y278217D01*
X72151D01*
X71568Y277634D01*
Y276468D01*
X72151Y275885D01*
X73317D01*
Y277051D01*
X71568Y274718D02*
X75067D01*
X71568Y272386D01*
X75067D01*
Y271220D02*
X71568D01*
Y269470D01*
X72151Y268887D01*
X74484D01*
X75067Y269470D01*
Y271220D01*
X113268Y278217D02*
Y275885D01*
X114434Y277051D02*
X112101D01*
X115017Y272386D02*
Y274718D01*
X113268D01*
X113851Y273552D01*
Y272969D01*
X113268Y272386D01*
X112101D01*
X111518Y272969D01*
Y274135D01*
X112101Y274718D01*
X115017Y271220D02*
X112685D01*
X111518Y270053D01*
X112685Y268887D01*
X115017D01*
X124434Y275885D02*
X125017Y276468D01*
Y277634D01*
X124434Y278217D01*
X122101D01*
X121518Y277634D01*
Y276468D01*
X122101Y275885D01*
X123268D01*
Y277051D01*
X121518Y274718D02*
X125017D01*
X121518Y272386D01*
X125017D01*
Y271220D02*
X121518D01*
Y269470D01*
X122101Y268887D01*
X124434D01*
X125017Y269470D01*
Y271220D01*
X155067Y275885D02*
Y278217D01*
X151568D01*
Y275885D01*
X153317Y278217D02*
Y277051D01*
X151568Y274718D02*
X155067D01*
X151568Y272386D01*
X155067D01*
X154483Y268887D02*
X155067Y269470D01*
Y270637D01*
X154483Y271220D01*
X152151D01*
X151568Y270637D01*
Y269470D01*
X152151Y268887D01*
X151568Y267721D02*
Y266554D01*
Y267138D01*
X155067D01*
X154483Y267721D01*
X150985Y264805D02*
Y262473D01*
X151568Y261306D02*
X155067D01*
X151568Y258974D01*
X155067D01*
X145067Y275885D02*
Y278217D01*
X141568D01*
Y275885D01*
X143317Y278217D02*
Y277051D01*
X141568Y274718D02*
X145067D01*
X141568Y272386D01*
X145067D01*
X144483Y268887D02*
X145067Y269470D01*
Y270637D01*
X144483Y271220D01*
X142151D01*
X141568Y270637D01*
Y269470D01*
X142151Y268887D01*
X141568Y267721D02*
Y266554D01*
Y267138D01*
X145067D01*
X144483Y267721D01*
X140985Y264805D02*
Y262473D01*
X145067Y261306D02*
X141568D01*
Y259557D01*
X142151Y258974D01*
X142734D01*
X143317Y259557D01*
Y261306D01*
Y259557D01*
X143900Y258974D01*
X144483D01*
X145067Y259557D01*
Y261306D01*
X135067Y275885D02*
Y278217D01*
X131568D01*
Y275885D01*
X133317Y278217D02*
Y277051D01*
X131568Y274718D02*
X135067D01*
X131568Y272386D01*
X135067D01*
X134483Y268887D02*
X135067Y269470D01*
Y270637D01*
X134483Y271220D01*
X132151D01*
X131568Y270637D01*
Y269470D01*
X132151Y268887D01*
X131568Y267721D02*
Y266554D01*
Y267138D01*
X135067D01*
X134483Y267721D01*
X130985Y264805D02*
Y262473D01*
X131568Y261306D02*
X133900D01*
X135067Y260140D01*
X133900Y258974D01*
X131568D01*
X133317D01*
Y261306D01*
X85067Y275885D02*
Y278217D01*
X81568D01*
Y275885D01*
X83317Y278217D02*
Y277051D01*
X81568Y274718D02*
X85067D01*
X81568Y272386D01*
X85067D01*
X84483Y268887D02*
X85067Y269470D01*
Y270637D01*
X84483Y271220D01*
X82151D01*
X81568Y270637D01*
Y269470D01*
X82151Y268887D01*
X81568Y265388D02*
Y267721D01*
X83900Y265388D01*
X84483D01*
X85067Y265971D01*
Y267138D01*
X84483Y267721D01*
X80985Y264222D02*
Y261889D01*
X81568Y260723D02*
X83900D01*
X85067Y259557D01*
X83900Y258390D01*
X81568D01*
X83317D01*
Y260723D01*
X95067Y275885D02*
Y278217D01*
X91568D01*
Y275885D01*
X93317Y278217D02*
Y277051D01*
X91568Y274718D02*
X95067D01*
X91568Y272386D01*
X95067D01*
X94484Y268887D02*
X95067Y269470D01*
Y270637D01*
X94484Y271220D01*
X92151D01*
X91568Y270637D01*
Y269470D01*
X92151Y268887D01*
X91568Y265388D02*
Y267721D01*
X93900Y265388D01*
X94484D01*
X95067Y265971D01*
Y267138D01*
X94484Y267721D01*
X90985Y264222D02*
Y261889D01*
X95067Y260723D02*
X91568D01*
Y258974D01*
X92151Y258390D01*
X92734D01*
X93317Y258974D01*
Y260723D01*
Y258974D01*
X93900Y258390D01*
X94484D01*
X95067Y258974D01*
Y260723D01*
X105067Y275885D02*
Y278217D01*
X101568D01*
Y275885D01*
X103317Y278217D02*
Y277051D01*
X101568Y274718D02*
X105067D01*
X101568Y272386D01*
X105067D01*
X104483Y268887D02*
X105067Y269470D01*
Y270637D01*
X104483Y271220D01*
X102151D01*
X101568Y270637D01*
Y269470D01*
X102151Y268887D01*
X101568Y265388D02*
Y267721D01*
X103900Y265388D01*
X104483D01*
X105067Y265971D01*
Y267138D01*
X104483Y267721D01*
X100985Y264222D02*
Y261889D01*
X101568Y260723D02*
X105067D01*
X101568Y258390D01*
X105067D01*
X135017Y319252D02*
X131518D01*
X133268D01*
Y316919D01*
X135017D01*
X131518D01*
Y315753D02*
X133851D01*
X135017Y314587D01*
X133851Y313421D01*
X131518D01*
X133268D01*
Y315753D01*
X135017Y312254D02*
X131518D01*
Y309922D01*
X135017Y308755D02*
X131518D01*
Y306423D01*
X130935Y305257D02*
Y302924D01*
X135017Y301758D02*
X132101D01*
X131518Y301174D01*
Y300008D01*
X132101Y299425D01*
X135017D01*
Y298259D02*
X131518Y295926D01*
X135017D02*
X131518Y298259D01*
X145017Y319252D02*
X141518D01*
X143268D01*
Y316919D01*
X145017D01*
X141518D01*
Y315753D02*
X143851D01*
X145017Y314587D01*
X143851Y313421D01*
X141518D01*
X143268D01*
Y315753D01*
X145017Y312254D02*
X141518D01*
Y309922D01*
X145017Y308755D02*
X141518D01*
Y306423D01*
X140935Y305257D02*
Y302924D01*
X145017Y301758D02*
X142685D01*
X141518Y300591D01*
X142685Y299425D01*
X145017D01*
X155017Y319252D02*
X151518D01*
X153268D01*
Y316919D01*
X155017D01*
X151518D01*
Y315753D02*
X153851D01*
X155017Y314587D01*
X153851Y313421D01*
X151518D01*
X153268D01*
Y315753D01*
X155017Y312254D02*
X151518D01*
Y309922D01*
X155017Y308755D02*
X151518D01*
Y306423D01*
X150935Y305257D02*
Y302924D01*
X155017Y301758D02*
X151518D01*
X152685Y300591D01*
X151518Y299425D01*
X155017D01*
Y298259D02*
X154434D01*
X153268Y297093D01*
X154434Y295926D01*
X155017D01*
X153268Y297093D02*
X151518D01*
X81518Y319252D02*
X85017D01*
Y317503D01*
X84434Y316919D01*
X83268D01*
X82685Y317503D01*
Y319252D01*
Y318086D02*
X81518Y316919D01*
X85017Y313421D02*
Y315753D01*
X81518D01*
Y313421D01*
X83268Y315753D02*
Y314587D01*
X85017Y309922D02*
Y312254D01*
X83268D01*
Y311088D01*
Y312254D01*
X81518D01*
X80935Y308755D02*
Y306423D01*
X85017Y305257D02*
X81518D01*
Y302924D01*
X91518Y319252D02*
X95017D01*
Y317503D01*
X94434Y316919D01*
X93268D01*
X92685Y317503D01*
Y319252D01*
Y318086D02*
X91518Y316919D01*
X95017Y313421D02*
Y315753D01*
X91518D01*
Y313421D01*
X93268Y315753D02*
Y314587D01*
X95017Y309922D02*
Y312254D01*
X93268D01*
Y311088D01*
Y312254D01*
X91518D01*
X90935Y308755D02*
Y306423D01*
X95017Y305257D02*
X91518D01*
X93268D01*
Y302924D01*
X95017D01*
X91518D01*
X101518Y319252D02*
X105017D01*
Y317503D01*
X104434Y316919D01*
X103268D01*
X102685Y317503D01*
Y319252D01*
Y318086D02*
X101518Y316919D01*
X105017Y313421D02*
Y315753D01*
X101518D01*
Y313421D01*
X103268Y315753D02*
Y314587D01*
X105017Y309922D02*
Y312254D01*
X103268D01*
Y311088D01*
Y312254D01*
X101518D01*
X100935Y308755D02*
Y306423D01*
X101518Y305257D02*
X105017D01*
Y303507D01*
X104434Y302924D01*
X103268D01*
X102685Y303507D01*
Y305257D01*
Y304090D02*
X101518Y302924D01*
D15*
X121011Y238076D02*
G03*
X121011Y238076I-557J0D01*
G01*
D16*
X94882Y147390D02*
X96063D01*
X94882D02*
Y148571D01*
Y188729D02*
Y189910D01*
X96063D01*
X120473D02*
X121653D01*
Y188729D02*
Y189910D01*
X120473Y147390D02*
X121653D01*
Y148571D01*
X48575Y289339D02*
Y301543D01*
X22197Y289339D02*
Y301543D01*
X48575D01*
X22197Y289339D02*
X48575D01*
X38330Y29054D02*
Y49133D01*
X50928Y29054D02*
Y49133D01*
X38330D02*
X50928D01*
X38330Y29054D02*
X50928D01*
D17*
X71260Y242765D02*
X135827D01*
Y101398D02*
Y242765D01*
X71260Y101398D02*
X135827D01*
X71260D02*
Y242765D01*
D18*
X118354Y78966D02*
Y82470D01*
X114023Y78966D02*
X118354D01*
Y87667D02*
Y91171D01*
X114023D02*
X118354D01*
X131543Y78966D02*
Y82470D01*
X127213Y78966D02*
X131543D01*
Y87667D02*
Y91171D01*
X127213D02*
X131543D01*
X144732Y78966D02*
Y82470D01*
X140402Y78966D02*
X144732D01*
Y87667D02*
Y91171D01*
X140402D02*
X144732D01*
X87559D02*
X91890D01*
Y87667D02*
Y91171D01*
X87559Y78966D02*
X91890D01*
Y82470D01*
X101142Y91171D02*
X105472D01*
Y87667D02*
Y91171D01*
X101142Y78966D02*
X105472D01*
Y82470D01*
X153591Y91171D02*
X157921D01*
Y87667D02*
Y91171D01*
X153591Y78966D02*
X157921D01*
Y82470D01*
X166586Y105749D02*
Y108897D01*
X168161D01*
X168685Y108372D01*
Y107323D01*
X168161Y106798D01*
X166586D01*
X167636D02*
X168685Y105749D01*
X169735Y108897D02*
X171834Y105749D01*
Y108897D02*
X169735Y105749D01*
X172883Y108897D02*
Y105749D01*
X174458D01*
X174983Y106273D01*
Y108372D01*
X174458Y108897D01*
X172883D01*
X166586Y118897D02*
X168685D01*
X167636D01*
Y115749D01*
X169735Y118897D02*
X171834Y115749D01*
Y118897D02*
X169735Y115749D01*
X172883Y118897D02*
Y115749D01*
X174458D01*
X174983Y116273D01*
Y118372D01*
X174458Y118897D01*
X172883D01*
X168685Y128372D02*
X168161Y128897D01*
X167111D01*
X166586Y128372D01*
Y126273D01*
X167111Y125749D01*
X168161D01*
X168685Y126273D01*
Y127323D01*
X167636D01*
X169735Y125749D02*
Y128897D01*
X171834Y125749D01*
Y128897D01*
X172883D02*
Y125749D01*
X174458D01*
X174983Y126273D01*
Y128372D01*
X174458Y128897D01*
X172883D01*
X127218Y39595D02*
X126693Y39070D01*
Y38021D01*
X127218Y37496D01*
X129317D01*
X129842Y38021D01*
Y39070D01*
X129317Y39595D01*
X128268D01*
Y38546D01*
X129842Y40645D02*
X126693D01*
X129842Y42744D01*
X126693D01*
Y43793D02*
X129842D01*
Y45368D01*
X129317Y45892D01*
X127218D01*
X126693Y45368D01*
Y43793D01*
X42993Y158530D02*
X42468Y159055D01*
X41419D01*
X40894Y158530D01*
Y156431D01*
X41419Y155906D01*
X42468D01*
X42993Y156431D01*
Y157480D01*
X41944D01*
X44043Y155906D02*
Y159055D01*
X46142Y155906D01*
Y159055D01*
X47191D02*
Y155906D01*
X48766D01*
X49290Y156431D01*
Y158530D01*
X48766Y159055D01*
X47191D01*
X167218Y39595D02*
X166693Y39070D01*
Y38021D01*
X167218Y37496D01*
X169317D01*
X169842Y38021D01*
Y39070D01*
X169317Y39595D01*
X168268D01*
Y38546D01*
X169842Y40645D02*
X166693D01*
X169842Y42744D01*
X166693D01*
Y43793D02*
X169842D01*
Y45368D01*
X169317Y45892D01*
X167218D01*
X166693Y45368D01*
Y43793D01*
X79842Y37496D02*
X77743D01*
X76693Y38546D01*
X77743Y39595D01*
X79842D01*
X78268D01*
Y37496D01*
X77218Y42744D02*
X76693Y42219D01*
Y41170D01*
X77218Y40645D01*
X79317D01*
X79842Y41170D01*
Y42219D01*
X79317Y42744D01*
X78268D01*
Y41694D01*
X79842Y43793D02*
X76693D01*
Y45368D01*
X77218Y45892D01*
X78268D01*
X78793Y45368D01*
Y43793D01*
X76693Y46942D02*
Y47991D01*
Y47467D01*
X79842D01*
Y46942D01*
Y47991D01*
X80367Y49566D02*
Y51665D01*
X79842Y52714D02*
X77743D01*
X76693Y53764D01*
X77743Y54813D01*
X79842D01*
X78268D01*
Y52714D01*
X99842Y37496D02*
X97743D01*
X96693Y38546D01*
X97743Y39595D01*
X99842D01*
X98268D01*
Y37496D01*
X97218Y42744D02*
X96693Y42219D01*
Y41170D01*
X97218Y40645D01*
X99317D01*
X99842Y41170D01*
Y42219D01*
X99317Y42744D01*
X98268D01*
Y41694D01*
X99842Y43793D02*
X96693D01*
Y45368D01*
X97218Y45892D01*
X98268D01*
X98792Y45368D01*
Y43793D01*
X96693Y46942D02*
Y47991D01*
Y47467D01*
X99842D01*
Y46942D01*
Y47991D01*
X100367Y49566D02*
Y51665D01*
X96693Y52714D02*
X99842D01*
Y54289D01*
X99317Y54813D01*
X98792D01*
X98268Y54289D01*
Y52714D01*
Y54289D01*
X97743Y54813D01*
X97218D01*
X96693Y54289D01*
Y52714D01*
X159842Y37496D02*
X157743D01*
X156693Y38546D01*
X157743Y39595D01*
X159842D01*
X158268D01*
Y37496D01*
X156693Y42744D02*
Y40645D01*
X159842D01*
Y42744D01*
X158268Y40645D02*
Y41694D01*
X159842Y43793D02*
X156693D01*
X159842Y45892D01*
X156693D01*
X157218Y49041D02*
X156693Y48516D01*
Y47467D01*
X157218Y46942D01*
X159317D01*
X159842Y47467D01*
Y48516D01*
X159317Y49041D01*
X160367Y50090D02*
Y52189D01*
X156693Y53239D02*
X159842D01*
X158792Y54289D01*
X159842Y55338D01*
X156693D01*
Y56388D02*
X157218D01*
X158268Y57437D01*
X157218Y58487D01*
X156693D01*
X158268Y57437D02*
X159842D01*
X149842Y37497D02*
X147743D01*
X146694Y38546D01*
X147743Y39596D01*
X149842D01*
X148268D01*
Y37497D01*
X146694Y42744D02*
Y40646D01*
X149842D01*
Y42744D01*
X148268Y40646D02*
Y41695D01*
X149842Y43794D02*
X146694D01*
X149842Y45893D01*
X146694D01*
X147218Y49042D02*
X146694Y48517D01*
Y47467D01*
X147218Y46943D01*
X149317D01*
X149842Y47467D01*
Y48517D01*
X149317Y49042D01*
X150367Y50091D02*
Y52190D01*
X146694Y53240D02*
X148793D01*
X149842Y54289D01*
X148793Y55339D01*
X146694D01*
X149842Y56388D02*
X146694D01*
X149842Y58487D01*
X146694D01*
X139842Y37496D02*
X137743D01*
X136693Y38546D01*
X137743Y39595D01*
X139842D01*
X138268D01*
Y37496D01*
X136693Y42744D02*
Y40645D01*
X139842D01*
Y42744D01*
X138268Y40645D02*
Y41694D01*
X139842Y43793D02*
X136693D01*
X139842Y45892D01*
X136693D01*
X137218Y49041D02*
X136693Y48516D01*
Y47467D01*
X137218Y46942D01*
X139317D01*
X139842Y47467D01*
Y48516D01*
X139317Y49041D01*
X140367Y50090D02*
Y52189D01*
X136693Y53239D02*
X139317D01*
X139842Y53764D01*
Y54813D01*
X139317Y55338D01*
X136693D01*
Y56388D02*
X139842Y58487D01*
X136693D02*
X139842Y56388D01*
X118268Y37496D02*
Y39595D01*
X117218Y38546D02*
X119317D01*
X116693Y42744D02*
Y40645D01*
X118268D01*
X117743Y41694D01*
Y42219D01*
X118268Y42744D01*
X119317D01*
X119842Y42219D01*
Y41170D01*
X119317Y40645D01*
X116693Y43793D02*
X118792D01*
X119842Y44843D01*
X118792Y45892D01*
X116693D01*
X176693Y37496D02*
X179842D01*
Y39070D01*
X179317Y39595D01*
X178793D01*
X178268Y39070D01*
Y37496D01*
Y39070D01*
X177743Y39595D01*
X177218D01*
X176693Y39070D01*
Y37496D01*
X179842Y40645D02*
X176693D01*
Y42219D01*
X177218Y42744D01*
X178268D01*
X178793Y42219D01*
Y40645D01*
Y41694D02*
X179842Y42744D01*
Y43793D02*
X177743D01*
X176693Y44843D01*
X177743Y45892D01*
X179842D01*
X178268D01*
Y43793D01*
X176693Y46942D02*
X179842D01*
X178793D01*
X176693Y49041D01*
X178268Y47467D01*
X179842Y49041D01*
X176693Y52189D02*
Y50090D01*
X179842D01*
Y52189D01*
X178268Y50090D02*
Y51140D01*
X40894Y165591D02*
Y168740D01*
X42468D01*
X42993Y168215D01*
Y167165D01*
X42468Y166640D01*
X40894D01*
X44043Y168740D02*
Y165591D01*
X45092Y166640D01*
X46142Y165591D01*
Y168740D01*
X47191Y165591D02*
Y168740D01*
X48241Y167690D01*
X49290Y168740D01*
Y165591D01*
X87218Y39595D02*
X86693Y39070D01*
Y38021D01*
X87218Y37496D01*
X89317D01*
X89842Y38021D01*
Y39070D01*
X89317Y39595D01*
X88268D01*
Y38546D01*
X89842Y40645D02*
X86693D01*
X89842Y42744D01*
X86693D01*
Y43793D02*
X89842D01*
Y45368D01*
X89317Y45892D01*
X87218D01*
X86693Y45368D01*
Y43793D01*
X67218Y39595D02*
X66693Y39070D01*
Y38021D01*
X67218Y37496D01*
X69317D01*
X69842Y38021D01*
Y39070D01*
X69317Y39595D01*
X68268D01*
Y38546D01*
X69842Y40645D02*
X66693D01*
X69842Y42744D01*
X66693D01*
Y43793D02*
X69842D01*
Y45368D01*
X69317Y45892D01*
X67218D01*
X66693Y45368D01*
Y43793D01*
D19*
X165768Y36496D02*
X170768D01*
X173268Y33996D01*
Y28996D02*
Y33996D01*
X170768Y26496D02*
X173268Y28996D01*
Y33996D02*
X175768Y36496D01*
X180768D01*
X183268Y33996D01*
Y28996D02*
Y33996D01*
X180768Y26496D02*
X183268Y28996D01*
X175768Y26496D02*
X180768D01*
X173268Y28996D02*
X175768Y26496D01*
X163268Y28996D02*
Y33996D01*
X165768Y36496D01*
X163268Y28996D02*
X165768Y26496D01*
X170768D01*
X100768Y320591D02*
X105768D01*
X98268Y323091D02*
X100768Y320591D01*
X98268Y323091D02*
Y328091D01*
X100768Y330591D01*
X95768Y320591D02*
X98268Y323091D01*
X90768Y320591D02*
X95768D01*
X88268Y323091D02*
X90768Y320591D01*
X88268Y323091D02*
Y328091D01*
X90768Y330591D01*
X95768D01*
X98268Y328091D01*
X108268Y323091D02*
Y328091D01*
X105768Y320591D02*
X108268Y323091D01*
X105768Y330591D02*
X108268Y328091D01*
X100768Y330591D02*
X105768D01*
X85768Y320591D02*
X88268Y323091D01*
X80768Y320591D02*
X85768D01*
X78268Y323091D02*
X80768Y320591D01*
X78268Y323091D02*
Y328091D01*
X80768Y330591D01*
X85768D01*
X88268Y328091D01*
X75768Y330591D02*
X78268Y328091D01*
X70768Y330591D02*
X75768D01*
X68268Y328091D02*
X70768Y330591D01*
X68268Y323091D02*
Y328091D01*
Y323091D02*
X70768Y320591D01*
X75768D01*
X78268Y323091D01*
Y328091D01*
X68268Y323091D02*
Y328091D01*
X65768Y320591D02*
X68268Y323091D01*
X60768Y320591D02*
X65768D01*
X58268Y323091D02*
X60768Y320591D01*
X58268Y323091D02*
Y328091D01*
X60768Y330591D01*
X65768D01*
X68268Y328091D01*
Y323091D02*
Y328091D01*
X150768Y320591D02*
X155768D01*
X148268Y323091D02*
X150768Y320591D01*
X148268Y323091D02*
Y328091D01*
X150768Y330591D01*
X145768Y320591D02*
X148268Y323091D01*
X140768Y320591D02*
X145768D01*
X138268Y323091D02*
X140768Y320591D01*
X138268Y323091D02*
Y328091D01*
X140768Y330591D01*
X145768D01*
X148268Y328091D01*
X158268Y323091D02*
Y328091D01*
X155768Y320591D02*
X158268Y323091D01*
X155768Y330591D02*
X158268Y328091D01*
X150768Y330591D02*
X155768D01*
X135768Y320591D02*
X138268Y323091D01*
X130768Y320591D02*
X135768D01*
X128268Y323091D02*
X130768Y320591D01*
X128268Y323091D02*
Y328091D01*
X130768Y330591D01*
X135768D01*
X138268Y328091D01*
X125768Y330591D02*
X128268Y328091D01*
X120768Y330591D02*
X125768D01*
X118268Y328091D02*
X120768Y330591D01*
X118268Y323091D02*
Y328091D01*
Y323091D02*
X120768Y320591D01*
X125768D01*
X128268Y323091D01*
Y328091D01*
X118268Y323091D02*
Y328091D01*
X115768Y320591D02*
X118268Y323091D01*
X110768Y320591D02*
X115768D01*
X108268Y323091D02*
X110768Y320591D01*
X108268Y323091D02*
Y328091D01*
X110768Y330591D01*
X115768D01*
X118268Y328091D01*
Y323091D02*
Y328091D01*
X100768Y279409D02*
X105768D01*
X98268Y281909D02*
X100768Y279409D01*
X98268Y281909D02*
Y286909D01*
X100768Y289409D01*
X95768Y279409D02*
X98268Y281909D01*
X90768Y279409D02*
X95768D01*
X88268Y281909D02*
X90768Y279409D01*
X88268Y281909D02*
Y286909D01*
X90768Y289409D01*
X95768D01*
X98268Y286909D01*
X108268Y281909D02*
Y286909D01*
X105768Y279409D02*
X108268Y281909D01*
X105768Y289409D02*
X108268Y286909D01*
X100768Y289409D02*
X105768D01*
X85768Y279409D02*
X88268Y281909D01*
X80768Y279409D02*
X85768D01*
X78268Y281909D02*
X80768Y279409D01*
X78268Y281909D02*
Y286909D01*
X80768Y289409D01*
X85768D01*
X88268Y286909D01*
X75768Y289409D02*
X78268Y286909D01*
X70768Y289409D02*
X75768D01*
X68268Y286909D02*
X70768Y289409D01*
X68268Y281909D02*
Y286909D01*
Y281909D02*
X70768Y279409D01*
X75768D01*
X78268Y281909D01*
Y286909D01*
X68268Y281909D02*
Y286909D01*
X65768Y279409D02*
X68268Y281909D01*
X60768Y279409D02*
X65768D01*
X58268Y281909D02*
X60768Y279409D01*
X58268Y281909D02*
Y286909D01*
X60768Y289409D01*
X65768D01*
X68268Y286909D01*
Y281909D02*
Y286909D01*
X150768Y279409D02*
X155768D01*
X148268Y281909D02*
X150768Y279409D01*
X148268Y281909D02*
Y286909D01*
X150768Y289409D01*
X145768Y279409D02*
X148268Y281909D01*
X140768Y279409D02*
X145768D01*
X138268Y281909D02*
X140768Y279409D01*
X138268Y281909D02*
Y286909D01*
X140768Y289409D01*
X145768D01*
X148268Y286909D01*
X158268Y281909D02*
Y286909D01*
X155768Y279409D02*
X158268Y281909D01*
X155768Y289409D02*
X158268Y286909D01*
X150768Y289409D02*
X155768D01*
X135768Y279409D02*
X138268Y281909D01*
X130768Y279409D02*
X135768D01*
X128268Y281909D02*
X130768Y279409D01*
X128268Y281909D02*
Y286909D01*
X130768Y289409D01*
X135768D01*
X138268Y286909D01*
X125768Y289409D02*
X128268Y286909D01*
X120768Y289409D02*
X125768D01*
X118268Y286909D02*
X120768Y289409D01*
X118268Y281909D02*
Y286909D01*
Y281909D02*
X120768Y279409D01*
X125768D01*
X128268Y281909D01*
Y286909D01*
X118268Y281909D02*
Y286909D01*
X115768Y279409D02*
X118268Y281909D01*
X110768Y279409D02*
X115768D01*
X108268Y281909D02*
X110768Y279409D01*
X108268Y281909D02*
Y286909D01*
X110768Y289409D01*
X115768D01*
X118268Y286909D01*
Y281909D02*
Y286909D01*
X60905Y164665D02*
Y169665D01*
X58406Y162165D02*
X60905Y164665D01*
X53405Y162165D02*
X58406D01*
X50906Y164665D02*
X53405Y162165D01*
X58406D02*
X60905Y159665D01*
Y154665D02*
Y159665D01*
X58406Y152165D02*
X60905Y154665D01*
X53405Y152165D02*
X58406D01*
X50906Y154665D02*
X53405Y152165D01*
X50906Y154665D02*
Y159665D01*
X53405Y162165D01*
Y172165D02*
X58406D01*
X60905Y169665D01*
X50906D02*
X53405Y172165D01*
X50906Y164665D02*
Y169665D01*
X155641Y109823D02*
X158141Y112323D01*
X155641Y104823D02*
Y109823D01*
Y104823D02*
X158141Y102323D01*
X163141D01*
X165641Y104823D01*
Y109823D01*
X163141Y112323D02*
X165641Y109823D01*
X155641Y124823D02*
Y129823D01*
X158141Y132323D01*
X163141D02*
X165641Y129823D01*
X158141Y132323D02*
X163141D01*
X155641Y119823D02*
X158141Y122323D01*
X155641Y114823D02*
Y119823D01*
Y114823D02*
X158141Y112323D01*
X163141D01*
X165641Y114823D01*
Y119823D01*
X163141Y122323D02*
X165641Y119823D01*
X155641Y124823D02*
X158141Y122323D01*
X163141D01*
X165641Y124823D01*
Y129823D01*
X155768Y26496D02*
X160768D01*
X153268Y28996D02*
X155768Y26496D01*
X153268Y28996D02*
Y33996D01*
X155768Y36496D01*
X150768Y26496D02*
X153268Y28996D01*
X145768Y26496D02*
X150768D01*
X143268Y28996D02*
X145768Y26496D01*
X143268Y28996D02*
Y33996D01*
X145768Y36496D01*
X150768D01*
X153268Y33996D01*
X163268Y28996D02*
Y33996D01*
X160768Y26496D02*
X163268Y28996D01*
X160768Y36496D02*
X163268Y33996D01*
X155768Y36496D02*
X160768D01*
X140768Y26496D02*
X143268Y28996D01*
X135768Y26496D02*
X140768D01*
X133268Y28996D02*
X135768Y26496D01*
X133268Y28996D02*
Y33996D01*
X135768Y36496D01*
X140768D01*
X143268Y33996D01*
X130768Y36496D02*
X133268Y33996D01*
X125768Y36496D02*
X130768D01*
X123268Y33996D02*
X125768Y36496D01*
X123268Y28996D02*
Y33996D01*
Y28996D02*
X125768Y26496D01*
X130768D01*
X133268Y28996D01*
Y33996D01*
X123268Y28996D02*
Y33996D01*
X120768Y26496D02*
X123268Y28996D01*
X115768Y26496D02*
X120768D01*
X113268Y28996D02*
X115768Y26496D01*
X113268Y28996D02*
Y33996D01*
X115768Y36496D01*
X120768D01*
X123268Y33996D01*
Y28996D02*
Y33996D01*
X75768Y26496D02*
X80768D01*
X73268Y28996D02*
X75768Y26496D01*
X73268Y28996D02*
Y33996D01*
X75768Y36496D01*
X70768Y26496D02*
X73268Y28996D01*
X65768Y26496D02*
X70768D01*
X63268Y28996D02*
X65768Y26496D01*
X63268Y28996D02*
Y33996D01*
X65768Y36496D01*
X70768D01*
X73268Y33996D01*
X83268Y28996D02*
Y33996D01*
X80768Y26496D02*
X83268Y28996D01*
X80768Y36496D02*
X83268Y33996D01*
X75768Y36496D02*
X80768D01*
X95768Y26496D02*
X100768D01*
X93268Y28996D02*
X95768Y26496D01*
X93268Y28996D02*
Y33996D01*
X95768Y36496D01*
X90768Y26496D02*
X93268Y28996D01*
X85768Y26496D02*
X90768D01*
X83268Y28996D02*
X85768Y26496D01*
X83268Y28996D02*
Y33996D01*
X85768Y36496D01*
X90768D01*
X93268Y33996D01*
X103268Y28996D02*
Y33996D01*
X100768Y26496D02*
X103268Y28996D01*
X100768Y36496D02*
X103268Y33996D01*
X95768Y36496D02*
X100768D01*
D20*
X173023Y7863D02*
X174361Y5187D01*
X175699Y7863D01*
X177037Y5187D02*
X178375D01*
X177706D01*
Y9201D01*
X177037Y8532D01*
X180382Y5187D02*
Y5856D01*
X181051D01*
Y5187D01*
X180382D01*
X186403D02*
X183727D01*
X186403Y7863D01*
Y8532D01*
X185734Y9201D01*
X184396D01*
X183727Y8532D01*
X29528Y9201D02*
X32204D01*
X30866D01*
Y5187D01*
X33542D02*
Y9201D01*
X34880Y7863D01*
X36218Y9201D01*
Y5187D01*
X40232Y8532D02*
X39563Y9201D01*
X38225D01*
X37556Y8532D01*
Y5856D01*
X38225Y5187D01*
X39563D01*
X40232Y5856D01*
X43577Y5187D02*
Y9201D01*
X41570Y7194D01*
X44246D01*
X48261Y9201D02*
X46922Y8532D01*
X45584Y7194D01*
Y5856D01*
X46253Y5187D01*
X47592D01*
X48261Y5856D01*
Y6525D01*
X47592Y7194D01*
X45584D01*
X49599Y9201D02*
X52275D01*
Y8532D01*
X49599Y5856D01*
Y5187D01*
X53613D02*
X54951D01*
X54282D01*
Y9201D01*
X53613Y8532D01*
X56958Y7194D02*
X59634D01*
X63648Y9201D02*
X60972D01*
Y5187D01*
X63648D01*
X60972Y7194D02*
X62310D01*
X64986Y9201D02*
Y6525D01*
X66324Y5187D01*
X67662Y6525D01*
Y9201D01*
X69000Y5187D02*
Y7863D01*
X70338Y9201D01*
X71676Y7863D01*
Y5187D01*
Y7194D01*
X69000D01*
X73014Y9201D02*
Y5187D01*
X75690D01*
D21*
X6209Y44986D02*
X5543Y45652D01*
X4210D01*
X3543Y44986D01*
Y42320D01*
X4210Y41653D01*
X5543D01*
X6209Y42320D01*
Y43653D01*
X4876D01*
X7542Y41653D02*
Y45652D01*
X10208Y41653D01*
Y45652D01*
X11541D02*
Y41653D01*
X13540D01*
X14207Y42320D01*
Y44986D01*
X13540Y45652D01*
X11541D01*
X198589Y285796D02*
X197922Y286463D01*
X196590D01*
X195923Y285796D01*
Y283131D01*
X196590Y282464D01*
X197922D01*
X198589Y283131D01*
Y284464D01*
X197256D01*
X199922Y282464D02*
Y286463D01*
X202588Y282464D01*
Y286463D01*
X203921D02*
Y282464D01*
X205920D01*
X206586Y283131D01*
Y285796D01*
X205920Y286463D01*
X203921D01*
X37589Y317396D02*
X36922Y318063D01*
X35590D01*
X34923Y317396D01*
Y314731D01*
X35590Y314064D01*
X36922D01*
X37589Y314731D01*
Y316064D01*
X36256D01*
X38922Y314064D02*
Y318063D01*
X41587Y314064D01*
Y318063D01*
X42920D02*
Y314064D01*
X44920D01*
X45586Y314731D01*
Y317396D01*
X44920Y318063D01*
X42920D01*
X198589Y35897D02*
X197922Y36563D01*
X196590D01*
X195923Y35897D01*
Y33231D01*
X196590Y32564D01*
X197922D01*
X198589Y33231D01*
Y34564D01*
X197256D01*
X199922Y32564D02*
Y36563D01*
X202588Y32564D01*
Y36563D01*
X203921D02*
Y32564D01*
X205920D01*
X206586Y33231D01*
Y35897D01*
X205920Y36563D01*
X203921D01*
M02*
