G04*
G04 #@! TF.GenerationSoftware,Altium Limited,Altium Designer,19.0.8 (182)*
G04*
G04 Layer_Physical_Order=6*
G04 Layer_Color=16711680*
%FSLAX25Y25*%
%MOIN*%
G70*
G01*
G75*
%ADD22R,0.04331X0.03937*%
%ADD23R,0.03937X0.04331*%
%ADD24R,0.03740X0.02362*%
%ADD67C,0.01181*%
%ADD68C,0.00800*%
%ADD70C,0.01000*%
%ADD71C,0.01200*%
%ADD72C,0.05000*%
%ADD74O,0.06000X0.09843*%
%ADD75O,0.09843X0.06000*%
%ADD76C,0.25000*%
%ADD77C,0.04400*%
%ADD78C,0.07100*%
%ADD79P,0.07884X8X112.5*%
%ADD80C,0.02400*%
%ADD81C,0.02000*%
%ADD82C,0.02410*%
%ADD83C,0.03200*%
%ADD84C,0.02600*%
%ADD85C,0.03937*%
%ADD86C,0.05000*%
G04:AMPARAMS|DCode=87|XSize=47.24mil|YSize=47.24mil|CornerRadius=23.62mil|HoleSize=0mil|Usage=FLASHONLY|Rotation=0.000|XOffset=0mil|YOffset=0mil|HoleType=Round|Shape=RoundedRectangle|*
%AMROUNDEDRECTD87*
21,1,0.04724,0.00000,0,0,0.0*
21,1,0.00000,0.04724,0,0,0.0*
1,1,0.04724,0.00000,0.00000*
1,1,0.04724,0.00000,0.00000*
1,1,0.04724,0.00000,0.00000*
1,1,0.04724,0.00000,0.00000*
%
%ADD87ROUNDEDRECTD87*%
%ADD88O,0.02362X0.00984*%
G04:AMPARAMS|DCode=89|XSize=47.24mil|YSize=47.24mil|CornerRadius=23.62mil|HoleSize=0mil|Usage=FLASHONLY|Rotation=90.000|XOffset=0mil|YOffset=0mil|HoleType=Round|Shape=RoundedRectangle|*
%AMROUNDEDRECTD89*
21,1,0.04724,0.00000,0,0,90.0*
21,1,0.00000,0.04724,0,0,90.0*
1,1,0.04724,0.00000,0.00000*
1,1,0.04724,0.00000,0.00000*
1,1,0.04724,0.00000,0.00000*
1,1,0.04724,0.00000,0.00000*
%
%ADD89ROUNDEDRECTD89*%
G36*
X200787Y333391D02*
Y333391D01*
X201378Y333368D01*
X202681Y333282D01*
X204543Y332912D01*
X206340Y332302D01*
X208042Y331463D01*
X209620Y330408D01*
X211047Y329157D01*
X212298Y327730D01*
X213352Y326152D01*
X214192Y324450D01*
X214802Y322653D01*
X215172Y320792D01*
X215292Y318958D01*
X215280Y318898D01*
X215280Y15748D01*
X215280Y15748D01*
X215280D01*
X215257Y15158D01*
X215172Y13855D01*
X214802Y11993D01*
X214192Y10196D01*
X213352Y8494D01*
X212298Y6916D01*
X211046Y5489D01*
X209619Y4238D01*
X208042Y3183D01*
X206339Y2344D01*
X204542Y1734D01*
X202681Y1364D01*
X201378Y1278D01*
X200787Y1255D01*
Y1255D01*
X200787Y1255D01*
X15748D01*
X15748Y1255D01*
X15157Y1278D01*
X13854Y1364D01*
X11993Y1734D01*
X10196Y2344D01*
X8494Y3183D01*
X6916Y4238D01*
X5489Y5489D01*
X4237Y6916D01*
X3183Y8494D01*
X2344Y10196D01*
X1734Y11993D01*
X1364Y13854D01*
X1243Y15688D01*
X1255Y15748D01*
X1255Y318897D01*
X1255Y318898D01*
X1278Y319488D01*
X1363Y320791D01*
X1734Y322653D01*
X2344Y324450D01*
X3183Y326152D01*
X4237Y327730D01*
X5489Y329157D01*
X6916Y330408D01*
X8494Y331462D01*
X10196Y332302D01*
X11993Y332912D01*
X13854Y333282D01*
X15157Y333367D01*
X15748Y333390D01*
X16348Y333390D01*
X200188Y333391D01*
X200787Y333391D01*
D02*
G37*
%LPC*%
G36*
X124268Y331415D02*
Y326591D01*
X127302D01*
Y327512D01*
X127165Y328556D01*
X126762Y329529D01*
X126121Y330365D01*
X125285Y331006D01*
X124312Y331409D01*
X124268Y331415D01*
D02*
G37*
G36*
X74268D02*
Y326591D01*
X77302D01*
Y327512D01*
X77165Y328556D01*
X76762Y329529D01*
X76121Y330365D01*
X75285Y331006D01*
X74312Y331409D01*
X74268Y331415D01*
D02*
G37*
G36*
X122268D02*
X122224Y331409D01*
X121251Y331006D01*
X120415Y330365D01*
X119774Y329529D01*
X119371Y328556D01*
X119233Y327512D01*
Y326591D01*
X122268D01*
Y331415D01*
D02*
G37*
G36*
X72268D02*
X72224Y331409D01*
X71251Y331006D01*
X70415Y330365D01*
X69774Y329529D01*
X69371Y328556D01*
X69233Y327512D01*
Y326591D01*
X72268D01*
Y331415D01*
D02*
G37*
G36*
X42013Y330032D02*
X40542D01*
Y326341D01*
X44233D01*
Y327812D01*
X42013Y330032D01*
D02*
G37*
G36*
X39042D02*
X37571D01*
X35350Y327812D01*
Y326341D01*
X39042D01*
Y330032D01*
D02*
G37*
G36*
X73268Y325591D02*
D01*
D01*
D01*
D02*
G37*
G36*
X44233Y324841D02*
X40542D01*
Y321149D01*
X42013D01*
X44233Y323370D01*
Y324841D01*
D02*
G37*
G36*
X39042D02*
X35350D01*
Y323370D01*
X37571Y321149D01*
X39042D01*
Y324841D01*
D02*
G37*
G36*
X113268Y331143D02*
X112328Y331019D01*
X111452Y330657D01*
X110700Y330079D01*
X110123Y329327D01*
X109760Y328452D01*
X109637Y327512D01*
Y323669D01*
X109760Y322730D01*
X110123Y321854D01*
X110700Y321102D01*
X111452Y320525D01*
X112328Y320162D01*
X113268Y320038D01*
X114208Y320162D01*
X115083Y320525D01*
X115835Y321102D01*
X116412Y321854D01*
X116775Y322730D01*
X116899Y323669D01*
Y327512D01*
X116775Y328452D01*
X116412Y329327D01*
X115835Y330079D01*
X115083Y330657D01*
X114208Y331019D01*
X113268Y331143D01*
D02*
G37*
G36*
X63268D02*
X62328Y331019D01*
X61452Y330657D01*
X60700Y330079D01*
X60123Y329327D01*
X59760Y328452D01*
X59637Y327512D01*
Y326381D01*
X53789Y320534D01*
X53292Y319886D01*
X52980Y319132D01*
X52926Y318727D01*
X52873Y318323D01*
X52873Y318323D01*
Y291677D01*
X52873Y291677D01*
X52926Y291273D01*
X52980Y290868D01*
X53292Y290114D01*
X53789Y289466D01*
X59637Y283619D01*
Y282488D01*
X59760Y281548D01*
X60123Y280673D01*
X60700Y279921D01*
X61452Y279344D01*
X62328Y278981D01*
X63268Y278857D01*
X64208Y278981D01*
X65083Y279344D01*
X65835Y279921D01*
X66412Y280673D01*
X66775Y281548D01*
X66899Y282488D01*
Y286331D01*
X66775Y287270D01*
X66412Y288146D01*
X65835Y288898D01*
X65083Y289475D01*
X64208Y289838D01*
X63268Y289962D01*
X62328Y289838D01*
X62281Y289818D01*
X59127Y292972D01*
Y317028D01*
X62281Y320182D01*
X62328Y320162D01*
X63268Y320038D01*
X64208Y320162D01*
X65083Y320525D01*
X65835Y321102D01*
X66412Y321854D01*
X66775Y322730D01*
X66899Y323669D01*
Y327512D01*
X66775Y328452D01*
X66412Y329327D01*
X65835Y330079D01*
X65083Y330657D01*
X64208Y331019D01*
X63268Y331143D01*
D02*
G37*
G36*
X201787Y332361D02*
Y319898D01*
X214251D01*
X214201Y320663D01*
X213855Y322399D01*
X213287Y324075D01*
X212504Y325662D01*
X211521Y327134D01*
X210354Y328464D01*
X209023Y329631D01*
X207552Y330614D01*
X205965Y331397D01*
X204289Y331966D01*
X202553Y332311D01*
X201787Y332361D01*
D02*
G37*
G36*
X199787D02*
X199022Y332311D01*
X197286Y331966D01*
X195610Y331397D01*
X194023Y330614D01*
X192552Y329631D01*
X191221Y328464D01*
X190054Y327134D01*
X189071Y325662D01*
X188288Y324075D01*
X187720Y322399D01*
X187374Y320663D01*
X187324Y319898D01*
X199787D01*
Y332361D01*
D02*
G37*
G36*
X16748D02*
Y319898D01*
X29212D01*
X29161Y320663D01*
X28816Y322399D01*
X28247Y324075D01*
X27465Y325662D01*
X26481Y327134D01*
X25315Y328464D01*
X23984Y329631D01*
X22512Y330614D01*
X20925Y331397D01*
X19250Y331966D01*
X17514Y332311D01*
X16748Y332361D01*
D02*
G37*
G36*
X14748D02*
X13982Y332311D01*
X12246Y331966D01*
X10571Y331397D01*
X8984Y330614D01*
X7512Y329631D01*
X6182Y328464D01*
X5015Y327134D01*
X4032Y325662D01*
X3249Y324075D01*
X2680Y322399D01*
X2335Y320663D01*
X2285Y319898D01*
X14748D01*
Y332361D01*
D02*
G37*
G36*
X127302Y324591D02*
X124268D01*
Y319766D01*
X124312Y319772D01*
X125285Y320175D01*
X126121Y320816D01*
X126762Y321652D01*
X127165Y322625D01*
X127302Y323669D01*
Y324591D01*
D02*
G37*
G36*
X77302D02*
X74268D01*
Y319766D01*
X74312Y319772D01*
X75285Y320175D01*
X76121Y320816D01*
X76762Y321652D01*
X77165Y322625D01*
X77302Y323669D01*
Y324591D01*
D02*
G37*
G36*
X122268D02*
X119233D01*
Y323669D01*
X119371Y322625D01*
X119774Y321652D01*
X120415Y320816D01*
X121251Y320175D01*
X122224Y319772D01*
X122268Y319766D01*
Y324591D01*
D02*
G37*
G36*
X72268D02*
X69233D01*
Y323669D01*
X69371Y322625D01*
X69774Y321652D01*
X70415Y320816D01*
X71251Y320175D01*
X72224Y319772D01*
X72268Y319766D01*
Y324591D01*
D02*
G37*
G36*
X103268Y331143D02*
X102328Y331019D01*
X101452Y330657D01*
X100700Y330079D01*
X100123Y329327D01*
X99761Y328452D01*
X99637Y327512D01*
Y323669D01*
X99761Y322730D01*
X100123Y321854D01*
X100700Y321102D01*
X101452Y320525D01*
X102248Y320195D01*
Y317687D01*
X100739D01*
Y316947D01*
X100139Y316611D01*
X99664Y316706D01*
X99039Y316581D01*
X98995Y316552D01*
X98395Y316873D01*
Y317687D01*
X92903D01*
Y319719D01*
X93268Y320038D01*
X94208Y320162D01*
X95083Y320525D01*
X95835Y321102D01*
X96412Y321854D01*
X96775Y322730D01*
X96899Y323669D01*
Y327512D01*
X96775Y328452D01*
X96412Y329327D01*
X95835Y330079D01*
X95083Y330657D01*
X94208Y331019D01*
X93268Y331143D01*
X92328Y331019D01*
X91452Y330657D01*
X90700Y330079D01*
X90123Y329327D01*
X89761Y328452D01*
X89637Y327512D01*
Y323669D01*
X89761Y322730D01*
X90123Y321854D01*
X90700Y321102D01*
X90881Y320963D01*
X90864Y320878D01*
Y317687D01*
X87353D01*
Y316466D01*
X87334Y316448D01*
X86753Y316201D01*
X86412Y316429D01*
X85787Y316553D01*
X85609Y316517D01*
X85009Y316993D01*
Y317687D01*
X80098D01*
Y319058D01*
X81532Y320492D01*
X82328Y320162D01*
X83268Y320038D01*
X84208Y320162D01*
X85083Y320525D01*
X85835Y321102D01*
X86412Y321854D01*
X86775Y322730D01*
X86899Y323669D01*
Y327512D01*
X86775Y328452D01*
X86412Y329327D01*
X85835Y330079D01*
X85083Y330657D01*
X84208Y331019D01*
X83268Y331143D01*
X82328Y331019D01*
X81452Y330657D01*
X80700Y330079D01*
X80123Y329327D01*
X79760Y328452D01*
X79637Y327512D01*
Y323669D01*
X79760Y322730D01*
X80090Y321934D01*
X78358Y320201D01*
X78137Y319870D01*
X78059Y319480D01*
Y317690D01*
X78056Y317687D01*
X73967D01*
Y312550D01*
X77823D01*
X78824Y311548D01*
X78595Y310994D01*
X73967D01*
Y305857D01*
X73967D01*
Y300345D01*
X76875D01*
X77374Y299845D01*
X77079Y299292D01*
X77028Y299303D01*
X76379D01*
X76339Y299311D01*
X72402D01*
X72402Y299311D01*
X71972Y299225D01*
X71609Y298982D01*
X71609Y298982D01*
X71416Y298789D01*
X67668D01*
Y293258D01*
X68651D01*
X68834Y292658D01*
X68742Y292597D01*
X68344Y292002D01*
X68204Y291299D01*
X68344Y290597D01*
X68742Y290002D01*
X69337Y289604D01*
X69896Y289493D01*
X70130Y289097D01*
X70183Y288881D01*
X69774Y288348D01*
X69371Y287375D01*
X69233Y286331D01*
Y285409D01*
X72268D01*
Y290234D01*
X72224Y290228D01*
X72205Y290220D01*
X71946Y290427D01*
X71752Y290682D01*
X71875Y291299D01*
X71735Y292002D01*
X71358Y292566D01*
Y293258D01*
X72805D01*
Y293443D01*
X73405Y293814D01*
X73805Y293734D01*
X74019Y293777D01*
X74621Y293826D01*
X74711Y293691D01*
X74814Y293268D01*
X74711Y292844D01*
X74621Y292710D01*
X74536Y292284D01*
X74621Y291858D01*
X74862Y291496D01*
X75223Y291255D01*
X75650Y291170D01*
X77028D01*
X77454Y291255D01*
X78001Y291130D01*
X78531Y290776D01*
X79155Y290652D01*
X79779Y290776D01*
X80308Y291130D01*
X80662Y291659D01*
X80786Y292284D01*
X80662Y292908D01*
X80308Y293437D01*
X79875Y293727D01*
X79677Y294376D01*
X79815Y294515D01*
X80036Y294846D01*
X80114Y295236D01*
Y299567D01*
X80094Y299665D01*
X80088Y299699D01*
X80578Y300145D01*
X80953Y300145D01*
X82728D01*
Y303110D01*
X83228D01*
Y303610D01*
X85997D01*
Y306076D01*
X85009D01*
Y310994D01*
X81498D01*
Y311335D01*
X81421Y311726D01*
X81271Y311950D01*
X81459Y312550D01*
X85009D01*
Y312850D01*
X85609Y313326D01*
X85787Y313290D01*
X86412Y313414D01*
X86753Y313642D01*
X87334Y313395D01*
X87353Y313376D01*
Y312550D01*
X91208D01*
X92210Y311548D01*
X91980Y310994D01*
X87353D01*
Y305876D01*
X87353D01*
Y301787D01*
X86551Y300985D01*
X85997Y301215D01*
Y302610D01*
X83728D01*
Y300145D01*
X84927D01*
X85065Y299811D01*
X85123Y299545D01*
X84926Y299251D01*
X84849Y298861D01*
Y295155D01*
X84926Y294765D01*
X85148Y294434D01*
X86051Y293531D01*
X86243Y292788D01*
X86243Y292784D01*
X88150D01*
X90057D01*
X90056Y292788D01*
X89944Y292955D01*
X89725Y293305D01*
X89946Y293645D01*
X90616Y293752D01*
X90670Y293716D01*
X91294Y293591D01*
X91918Y293716D01*
X92448Y294069D01*
X92801Y294599D01*
X92925Y295223D01*
X92880Y295451D01*
X93332Y296051D01*
X97567D01*
X97743Y296086D01*
X97957Y296128D01*
X97957Y296128D01*
X98288Y296349D01*
X98288Y296349D01*
X100374Y298435D01*
X100581Y298746D01*
X102181Y300345D01*
X105876D01*
Y305857D01*
X107231D01*
Y303610D01*
X110000D01*
X112768D01*
Y306076D01*
X111781D01*
Y310994D01*
X108270D01*
Y311335D01*
X108193Y311726D01*
X108043Y311950D01*
X108231Y312550D01*
X111781D01*
Y312850D01*
X112381Y313326D01*
X112559Y313290D01*
X113183Y313414D01*
X113713Y313768D01*
X114066Y314297D01*
X114190Y314921D01*
X114066Y315546D01*
X113713Y316075D01*
X113183Y316429D01*
X112559Y316553D01*
X112381Y316517D01*
X111781Y316993D01*
Y317687D01*
X104287D01*
Y320195D01*
X105083Y320525D01*
X105835Y321102D01*
X106412Y321854D01*
X106775Y322730D01*
X106899Y323669D01*
Y327512D01*
X106775Y328452D01*
X106412Y329327D01*
X105835Y330079D01*
X105083Y330657D01*
X104208Y331019D01*
X103268Y331143D01*
D02*
G37*
G36*
X153268D02*
X152328Y331019D01*
X151452Y330657D01*
X150700Y330079D01*
X150123Y329327D01*
X149760Y328452D01*
X149637Y327512D01*
Y323669D01*
X149760Y322730D01*
X150123Y321854D01*
X150700Y321102D01*
X151452Y320525D01*
X152248Y320195D01*
Y317687D01*
X150739D01*
Y316466D01*
X150719Y316448D01*
X150139Y316201D01*
X149797Y316429D01*
X149173Y316553D01*
X148995Y316517D01*
X148395Y316993D01*
Y317687D01*
X142903D01*
Y319719D01*
X143268Y320038D01*
X144208Y320162D01*
X145083Y320525D01*
X145835Y321102D01*
X146412Y321854D01*
X146775Y322730D01*
X146899Y323669D01*
Y327512D01*
X146775Y328452D01*
X146412Y329327D01*
X145835Y330079D01*
X145083Y330657D01*
X144208Y331019D01*
X143268Y331143D01*
X142328Y331019D01*
X141452Y330657D01*
X140700Y330079D01*
X140123Y329327D01*
X139760Y328452D01*
X139637Y327512D01*
Y323669D01*
X139760Y322730D01*
X140123Y321854D01*
X140700Y321102D01*
X140864Y320976D01*
Y317687D01*
X137353D01*
Y316466D01*
X137334Y316448D01*
X136753Y316201D01*
X136412Y316429D01*
X135787Y316553D01*
X135609Y316517D01*
X135009Y316993D01*
Y317687D01*
X129411D01*
Y318371D01*
X131532Y320492D01*
X132328Y320162D01*
X133268Y320038D01*
X134208Y320162D01*
X135083Y320525D01*
X135835Y321102D01*
X136412Y321854D01*
X136775Y322730D01*
X136899Y323669D01*
Y327512D01*
X136775Y328452D01*
X136412Y329327D01*
X135835Y330079D01*
X135083Y330657D01*
X134208Y331019D01*
X133268Y331143D01*
X132328Y331019D01*
X131452Y330657D01*
X130700Y330079D01*
X130123Y329327D01*
X129761Y328452D01*
X129637Y327512D01*
Y323669D01*
X129761Y322730D01*
X130090Y321934D01*
X127670Y319514D01*
X127449Y319183D01*
X127372Y318793D01*
Y317687D01*
X123967D01*
Y312550D01*
X127822D01*
X128824Y311548D01*
X128595Y310994D01*
X123967D01*
Y305857D01*
X123967D01*
Y300345D01*
X126875D01*
X127374Y299845D01*
X127079Y299292D01*
X127028Y299303D01*
X126379D01*
X126339Y299311D01*
X126299Y299303D01*
X122197D01*
X122197Y299303D01*
X121768Y299217D01*
X121404Y298974D01*
X121404Y298974D01*
X121219Y298789D01*
X117668D01*
Y294845D01*
X117380Y294557D01*
X117137Y294193D01*
X117052Y293764D01*
X117052Y293764D01*
Y293672D01*
X116912Y293588D01*
X116312Y293928D01*
Y295524D01*
X114043D01*
Y293058D01*
X115848Y293058D01*
X115864D01*
X115864D01*
X116017Y293058D01*
X116347Y292473D01*
X116210Y292267D01*
X116070Y291565D01*
X116210Y290863D01*
X116608Y290267D01*
X117203Y289870D01*
X117905Y289730D01*
X118608Y289870D01*
X119203Y290267D01*
X119601Y290863D01*
X119741Y291565D01*
X119601Y292267D01*
X119340Y292658D01*
X119496Y293258D01*
X121472D01*
X121792Y292658D01*
X121677Y292487D01*
X121553Y291862D01*
X121677Y291238D01*
X121985Y290778D01*
X121994Y290552D01*
X121882Y290086D01*
X121251Y289825D01*
X120415Y289183D01*
X119774Y288348D01*
X119371Y287375D01*
X119233Y286331D01*
Y285409D01*
X123268D01*
X127302D01*
Y286331D01*
X127165Y287375D01*
X126762Y288348D01*
X126121Y289183D01*
X125285Y289825D01*
X124550Y290129D01*
X124459Y290379D01*
X124395Y290737D01*
X124408Y290813D01*
X124626Y291140D01*
X125224Y291255D01*
X125650Y291170D01*
X127028D01*
X127454Y291255D01*
X127815Y291496D01*
X128056Y291858D01*
X128141Y292284D01*
X128072Y292632D01*
X128079Y292749D01*
X128391Y293288D01*
X128500Y293310D01*
X128831Y293531D01*
X129815Y294515D01*
X130036Y294846D01*
X130114Y295236D01*
Y299567D01*
X130094Y299665D01*
X130088Y299699D01*
X130578Y300145D01*
X130953Y300145D01*
X132729D01*
Y303110D01*
X133229D01*
Y303610D01*
X135997D01*
Y306076D01*
X135009D01*
Y310994D01*
X131498D01*
Y311335D01*
X131421Y311726D01*
X131271Y311950D01*
X131459Y312550D01*
X135009D01*
Y312850D01*
X135609Y313326D01*
X135787Y313290D01*
X136412Y313414D01*
X136753Y313642D01*
X137334Y313395D01*
X137353Y313376D01*
Y312550D01*
X141208D01*
X142210Y311548D01*
X141980Y310994D01*
X137353D01*
Y305876D01*
X137353D01*
Y301787D01*
X136551Y300985D01*
X135997Y301215D01*
Y302610D01*
X133729D01*
Y300145D01*
X134927D01*
X135065Y299811D01*
X135123Y299545D01*
X134926Y299251D01*
X134849Y298861D01*
Y295155D01*
X134926Y294765D01*
X135148Y294434D01*
X136051Y293531D01*
X136243Y292788D01*
X136243Y292784D01*
X138150D01*
X140057D01*
X140056Y292788D01*
X139944Y292955D01*
X139820Y293154D01*
X139973Y293470D01*
X140120Y293533D01*
X140672Y293615D01*
X141060Y293355D01*
X141684Y293231D01*
X142309Y293355D01*
X142838Y293709D01*
X143192Y294238D01*
X143316Y294862D01*
X143199Y295451D01*
X143199Y295498D01*
X143536Y296051D01*
X147567D01*
X147743Y296086D01*
X147957Y296128D01*
X147957Y296128D01*
X148288Y296349D01*
X148288Y296349D01*
X150374Y298435D01*
X150581Y298746D01*
X152181Y300345D01*
X155876D01*
Y305857D01*
X157231D01*
Y303610D01*
X160000D01*
X162768D01*
Y306076D01*
X161781D01*
Y310994D01*
X158270D01*
Y311335D01*
X158193Y311726D01*
X158043Y311950D01*
X158231Y312550D01*
X161781D01*
Y312850D01*
X162381Y313326D01*
X162559Y313290D01*
X163183Y313414D01*
X163713Y313768D01*
X164066Y314297D01*
X164190Y314921D01*
X164066Y315546D01*
X163713Y316075D01*
X163183Y316429D01*
X162559Y316553D01*
X162381Y316517D01*
X161781Y316993D01*
Y317687D01*
X154287D01*
Y320195D01*
X155083Y320525D01*
X155835Y321102D01*
X156412Y321854D01*
X156775Y322730D01*
X156899Y323669D01*
Y327512D01*
X156775Y328452D01*
X156412Y329327D01*
X155835Y330079D01*
X155083Y330657D01*
X154208Y331019D01*
X153268Y331143D01*
D02*
G37*
G36*
X120836Y317687D02*
X115305D01*
Y312550D01*
X120836D01*
Y312850D01*
X121436Y313326D01*
X121614Y313290D01*
X122238Y313414D01*
X122768Y313768D01*
X123121Y314297D01*
X123245Y314921D01*
X123121Y315546D01*
X122768Y316075D01*
X122238Y316429D01*
X121614Y316553D01*
X121436Y316517D01*
X120836Y316993D01*
Y317687D01*
D02*
G37*
G36*
X68268Y320293D02*
X67643Y320169D01*
X67114Y319815D01*
X66760Y319286D01*
X66636Y318661D01*
X66711Y318287D01*
X66328Y317687D01*
X65306D01*
Y312550D01*
X70836D01*
Y317687D01*
X70207D01*
X69824Y318287D01*
X69899Y318661D01*
X69775Y319286D01*
X69421Y319815D01*
X68892Y320169D01*
X68268Y320293D01*
D02*
G37*
G36*
X121036Y311194D02*
X118571D01*
Y308925D01*
X121036D01*
Y311194D01*
D02*
G37*
G36*
X71036D02*
X68571D01*
Y308925D01*
X71036D01*
Y311194D01*
D02*
G37*
G36*
X117571D02*
X115105D01*
Y308925D01*
X117571D01*
Y311194D01*
D02*
G37*
G36*
X67571D02*
X65105D01*
Y308925D01*
X67571D01*
Y311194D01*
D02*
G37*
G36*
X121036Y307925D02*
X118571D01*
Y305657D01*
X121036D01*
Y307925D01*
D02*
G37*
G36*
X117571D02*
X115105D01*
Y305657D01*
X117571D01*
Y307925D01*
D02*
G37*
G36*
X71036D02*
X68571D01*
Y305657D01*
X71036D01*
Y307925D01*
D02*
G37*
G36*
X67571D02*
X65105D01*
Y305657D01*
X67571D01*
Y307925D01*
D02*
G37*
G36*
X214251Y317898D02*
X201787D01*
Y305434D01*
X202553Y305484D01*
X204289Y305830D01*
X205965Y306399D01*
X207552Y307181D01*
X209023Y308164D01*
X210354Y309331D01*
X211521Y310662D01*
X212504Y312133D01*
X213287Y313720D01*
X213855Y315396D01*
X214201Y317132D01*
X214251Y317898D01*
D02*
G37*
G36*
X199787D02*
X187324D01*
X187374Y317132D01*
X187720Y315396D01*
X188288Y313720D01*
X189071Y312133D01*
X190054Y310662D01*
X191221Y309331D01*
X192552Y308164D01*
X194023Y307181D01*
X195610Y306399D01*
X197286Y305830D01*
X199022Y305484D01*
X199787Y305434D01*
Y317898D01*
D02*
G37*
G36*
X29212D02*
X16748D01*
Y305434D01*
X17514Y305484D01*
X19250Y305830D01*
X20925Y306399D01*
X22512Y307181D01*
X23984Y308164D01*
X25315Y309331D01*
X26481Y310662D01*
X27465Y312133D01*
X28247Y313720D01*
X28816Y315396D01*
X29161Y317132D01*
X29212Y317898D01*
D02*
G37*
G36*
X14748D02*
X2285D01*
X2335Y317132D01*
X2680Y315396D01*
X3249Y313720D01*
X4032Y312133D01*
X5015Y310662D01*
X6182Y309331D01*
X7512Y308164D01*
X8984Y307181D01*
X10571Y306399D01*
X12246Y305830D01*
X13982Y305484D01*
X14748Y305434D01*
Y317898D01*
D02*
G37*
G36*
X162768Y302610D02*
X160500D01*
Y300145D01*
X162768D01*
Y302610D01*
D02*
G37*
G36*
X159500D02*
X157231D01*
Y300145D01*
X159500D01*
Y302610D01*
D02*
G37*
G36*
X112768D02*
X110500D01*
Y300145D01*
X112768D01*
Y302610D01*
D02*
G37*
G36*
X109500D02*
X107231D01*
Y300145D01*
X109500D01*
Y302610D01*
D02*
G37*
G36*
X116312Y298989D02*
X114043D01*
Y296524D01*
X116312D01*
Y298989D01*
D02*
G37*
G36*
X113043D02*
X110775D01*
Y296524D01*
X113043D01*
Y298989D01*
D02*
G37*
G36*
X66312D02*
X64043D01*
Y296524D01*
X66312D01*
Y298989D01*
D02*
G37*
G36*
X63043D02*
X60775D01*
Y296524D01*
X63043D01*
Y298989D01*
D02*
G37*
G36*
X203008Y298418D02*
X201538D01*
Y294726D01*
X205229D01*
Y296197D01*
X203008Y298418D01*
D02*
G37*
G36*
X200038D02*
X198567D01*
X196346Y296197D01*
Y294726D01*
X200038D01*
Y298418D01*
D02*
G37*
G36*
X66312Y295524D02*
X64043D01*
Y293058D01*
X66312D01*
Y295524D01*
D02*
G37*
G36*
X63043D02*
X60775D01*
Y293058D01*
X63043D01*
Y295524D01*
D02*
G37*
G36*
X113043D02*
X110775D01*
Y293058D01*
X113043D01*
Y295524D01*
D02*
G37*
G36*
X140057Y291784D02*
X138650D01*
Y290966D01*
X138839D01*
X139343Y291067D01*
X139770Y291352D01*
X140056Y291779D01*
X140057Y291784D01*
D02*
G37*
G36*
X137650D02*
X136243D01*
X136243Y291779D01*
X136529Y291352D01*
X136957Y291067D01*
X137461Y290966D01*
X137650D01*
Y291784D01*
D02*
G37*
G36*
X90057D02*
X88650D01*
Y290966D01*
X88839D01*
X89343Y291067D01*
X89770Y291352D01*
X90056Y291779D01*
X90057Y291784D01*
D02*
G37*
G36*
X87650D02*
X86243D01*
X86243Y291779D01*
X86529Y291352D01*
X86957Y291067D01*
X87461Y290966D01*
X87650D01*
Y291784D01*
D02*
G37*
G36*
X20866Y303567D02*
X20164Y303428D01*
X19568Y303030D01*
X19171Y302434D01*
X19031Y301732D01*
X19171Y301030D01*
X19491Y300550D01*
X19536Y300157D01*
X19491Y299764D01*
X19171Y299285D01*
X19031Y298583D01*
X19171Y297880D01*
X19491Y297401D01*
X19536Y297008D01*
X19491Y296615D01*
X19171Y296135D01*
X19031Y295433D01*
X19171Y294731D01*
X19491Y294251D01*
X19536Y293858D01*
X19491Y293465D01*
X19171Y292986D01*
X19031Y292283D01*
X19171Y291581D01*
X19568Y290986D01*
X20164Y290588D01*
X20866Y290448D01*
X21568Y290588D01*
X22164Y290986D01*
X22562Y291581D01*
X22701Y292283D01*
X22562Y292986D01*
X22241Y293465D01*
X22196Y293858D01*
X22241Y294251D01*
X22562Y294731D01*
X22701Y295433D01*
X22562Y296135D01*
X22241Y296615D01*
X22196Y297008D01*
X22241Y297401D01*
X22562Y297880D01*
X22701Y298583D01*
X22562Y299285D01*
X22241Y299764D01*
X22196Y300157D01*
X22241Y300550D01*
X22562Y301030D01*
X22701Y301732D01*
X22562Y302434D01*
X22164Y303030D01*
X21568Y303428D01*
X20866Y303567D01*
D02*
G37*
G36*
X205229Y293227D02*
X201538D01*
Y289535D01*
X203008D01*
X205229Y291756D01*
Y293227D01*
D02*
G37*
G36*
X200038D02*
X196346D01*
Y291756D01*
X198567Y289535D01*
X200038D01*
Y293227D01*
D02*
G37*
G36*
X74268Y290234D02*
Y285409D01*
X77302D01*
Y286331D01*
X77165Y287375D01*
X76762Y288348D01*
X76121Y289183D01*
X75285Y289825D01*
X74312Y290228D01*
X74268Y290234D01*
D02*
G37*
G36*
X113268Y289962D02*
X112328Y289838D01*
X111452Y289475D01*
X110700Y288898D01*
X110123Y288146D01*
X109760Y287270D01*
X109637Y286331D01*
Y282488D01*
X109760Y281548D01*
X110123Y280673D01*
X110700Y279921D01*
X111452Y279344D01*
X112328Y278981D01*
X113268Y278857D01*
X114208Y278981D01*
X115083Y279344D01*
X115835Y279921D01*
X116412Y280673D01*
X116775Y281548D01*
X116899Y282488D01*
Y286331D01*
X116775Y287270D01*
X116412Y288146D01*
X115835Y288898D01*
X115083Y289475D01*
X114208Y289838D01*
X113268Y289962D01*
D02*
G37*
G36*
X122268Y283410D02*
X119233D01*
Y282488D01*
X119371Y281444D01*
X119774Y280471D01*
X120415Y279635D01*
X121251Y278994D01*
X122224Y278591D01*
X122268Y278585D01*
Y283410D01*
D02*
G37*
G36*
X72268D02*
X69233D01*
Y282488D01*
X69371Y281444D01*
X69774Y280471D01*
X70415Y279635D01*
X71251Y278994D01*
X72224Y278591D01*
X72268Y278585D01*
Y283410D01*
D02*
G37*
G36*
X127302D02*
X124268D01*
Y278585D01*
X124312Y278591D01*
X125285Y278994D01*
X126121Y279635D01*
X126762Y280471D01*
X127165Y281444D01*
X127302Y282488D01*
Y283410D01*
D02*
G37*
G36*
X77302D02*
X74268D01*
Y278585D01*
X74312Y278591D01*
X75285Y278994D01*
X76121Y279635D01*
X76762Y280471D01*
X77165Y281444D01*
X77302Y282488D01*
Y283410D01*
D02*
G37*
G36*
X70836Y276505D02*
X65306D01*
Y276205D01*
X64705Y275730D01*
X64528Y275765D01*
X63903Y275641D01*
X63374Y275287D01*
X63020Y274758D01*
X62896Y274134D01*
X63020Y273510D01*
X63374Y272980D01*
X63903Y272627D01*
X64528Y272502D01*
X64705Y272538D01*
X65306Y272063D01*
Y271369D01*
X70836D01*
Y276505D01*
D02*
G37*
G36*
X153268Y289962D02*
X152328Y289838D01*
X151452Y289475D01*
X150700Y288898D01*
X150123Y288146D01*
X149760Y287270D01*
X149637Y286331D01*
Y282488D01*
X149760Y281548D01*
X150123Y280673D01*
X150700Y279921D01*
X151452Y279344D01*
X152248Y279014D01*
Y276505D01*
X150739D01*
Y275285D01*
X150719Y275267D01*
X150138Y275020D01*
X149797Y275247D01*
X149173Y275372D01*
X148995Y275336D01*
X148395Y275811D01*
Y276505D01*
X142903D01*
Y278537D01*
X143268Y278857D01*
X144208Y278981D01*
X145083Y279344D01*
X145835Y279921D01*
X146412Y280673D01*
X146775Y281548D01*
X146899Y282488D01*
Y286331D01*
X146775Y287270D01*
X146412Y288146D01*
X145835Y288898D01*
X145083Y289475D01*
X144208Y289838D01*
X143268Y289962D01*
X142328Y289838D01*
X141452Y289475D01*
X140700Y288898D01*
X140123Y288146D01*
X139760Y287270D01*
X139637Y286331D01*
Y282488D01*
X139760Y281548D01*
X140123Y280673D01*
X140700Y279921D01*
X140864Y279795D01*
Y276505D01*
X137353D01*
Y275285D01*
X137333Y275267D01*
X136753Y275020D01*
X136411Y275247D01*
X135787Y275372D01*
X135609Y275336D01*
X135009Y275812D01*
Y276505D01*
X129479D01*
X129456Y277096D01*
Y277234D01*
X131532Y279310D01*
X132328Y278981D01*
X133268Y278857D01*
X134208Y278981D01*
X135083Y279344D01*
X135835Y279921D01*
X136412Y280673D01*
X136775Y281548D01*
X136899Y282488D01*
Y286331D01*
X136775Y287270D01*
X136412Y288146D01*
X135835Y288898D01*
X135083Y289475D01*
X134208Y289838D01*
X133268Y289962D01*
X132328Y289838D01*
X131452Y289475D01*
X130700Y288898D01*
X130123Y288146D01*
X129761Y287270D01*
X129637Y286331D01*
Y282488D01*
X129761Y281548D01*
X130090Y280752D01*
X127715Y278378D01*
X127494Y278047D01*
X127417Y277657D01*
Y276505D01*
X123967D01*
Y271369D01*
X127823D01*
X128824Y270367D01*
X128594Y269813D01*
X123967D01*
Y264676D01*
Y259164D01*
X126875D01*
X127374Y258664D01*
X127078Y258111D01*
X127028Y258121D01*
X126379D01*
X126339Y258130D01*
X122402D01*
X122402Y258130D01*
X121972Y258044D01*
X121609Y257801D01*
X121608Y257801D01*
X121415Y257608D01*
X117668D01*
Y252077D01*
X118056D01*
X118475Y251477D01*
X118401Y251102D01*
X118541Y250400D01*
X118939Y249805D01*
X119534Y249407D01*
X120236Y249267D01*
X120939Y249407D01*
X121534Y249805D01*
X121932Y250400D01*
X122046Y250976D01*
X122392Y251291D01*
X122619Y251424D01*
X122679Y251405D01*
Y220324D01*
X122756Y219934D01*
X122977Y219603D01*
X131412Y211169D01*
X131392Y211071D01*
X131517Y210447D01*
X131870Y209918D01*
X132399Y209564D01*
X132890Y209467D01*
X132831Y208867D01*
X106859D01*
X106585Y209467D01*
X106841Y209851D01*
X106981Y210553D01*
X106841Y211256D01*
X106444Y211851D01*
X105848Y212249D01*
X105146Y212388D01*
X104443Y212249D01*
X103848Y211851D01*
X103450Y211256D01*
X103311Y210553D01*
X103450Y209851D01*
X103848Y209256D01*
X104443Y208858D01*
X105146Y208718D01*
X105434Y208164D01*
X92472Y195201D01*
X91917Y195431D01*
Y253985D01*
X91840Y254375D01*
X91806Y254426D01*
X91814Y254446D01*
X92202Y254912D01*
X92418Y254869D01*
X92418Y254870D01*
X92418Y254869D01*
X97567D01*
X97957Y254947D01*
X98288Y255168D01*
X101984Y258864D01*
X105876D01*
Y264395D01*
X106359Y264676D01*
X106665D01*
X107231Y264595D01*
X107231Y264076D01*
Y262129D01*
X110000D01*
X112768D01*
Y264595D01*
X112348D01*
X111781Y264676D01*
X111781Y265195D01*
Y269813D01*
X108270D01*
Y270154D01*
X108193Y270545D01*
X108043Y270768D01*
X108231Y271369D01*
X111781D01*
Y271669D01*
X112381Y272144D01*
X112559Y272109D01*
X113183Y272233D01*
X113713Y272587D01*
X114066Y273116D01*
X114191Y273740D01*
X114066Y274364D01*
X113713Y274894D01*
X113183Y275247D01*
X112559Y275372D01*
X112381Y275336D01*
X111781Y275811D01*
Y276505D01*
X106251D01*
Y276505D01*
X104287D01*
Y279014D01*
X105083Y279344D01*
X105835Y279921D01*
X106412Y280673D01*
X106775Y281548D01*
X106899Y282488D01*
Y286331D01*
X106775Y287270D01*
X106412Y288146D01*
X105835Y288898D01*
X105083Y289475D01*
X104208Y289838D01*
X103268Y289962D01*
X102328Y289838D01*
X101452Y289475D01*
X100700Y288898D01*
X100123Y288146D01*
X99761Y287270D01*
X99637Y286331D01*
Y282488D01*
X99761Y281548D01*
X100123Y280673D01*
X100700Y279921D01*
X101452Y279344D01*
X102248Y279014D01*
Y276505D01*
X100739D01*
Y275285D01*
X100719Y275267D01*
X100138Y275019D01*
X99797Y275247D01*
X99173Y275372D01*
X98995Y275336D01*
X98395Y275812D01*
Y276505D01*
X92903D01*
Y278537D01*
X93268Y278857D01*
X94208Y278981D01*
X95083Y279344D01*
X95835Y279921D01*
X96412Y280673D01*
X96775Y281548D01*
X96899Y282488D01*
Y286331D01*
X96775Y287270D01*
X96412Y288146D01*
X95835Y288898D01*
X95083Y289475D01*
X94208Y289838D01*
X93268Y289962D01*
X92328Y289838D01*
X91452Y289475D01*
X90700Y288898D01*
X90123Y288146D01*
X89761Y287270D01*
X89637Y286331D01*
Y282488D01*
X89761Y281548D01*
X90123Y280673D01*
X90700Y279921D01*
X90881Y279782D01*
X90864Y279697D01*
Y276505D01*
X87353D01*
Y275285D01*
X87333Y275267D01*
X86753Y275020D01*
X86411Y275247D01*
X85787Y275372D01*
X85609Y275336D01*
X85009Y275812D01*
Y276505D01*
X79501D01*
Y277279D01*
X81532Y279310D01*
X82328Y278981D01*
X83268Y278857D01*
X84208Y278981D01*
X85083Y279344D01*
X85835Y279921D01*
X86412Y280673D01*
X86775Y281548D01*
X86899Y282488D01*
Y286331D01*
X86775Y287270D01*
X86412Y288146D01*
X85835Y288898D01*
X85083Y289475D01*
X84208Y289838D01*
X83268Y289962D01*
X82328Y289838D01*
X81452Y289475D01*
X80700Y288898D01*
X80123Y288146D01*
X79760Y287270D01*
X79637Y286331D01*
Y282488D01*
X79760Y281548D01*
X80090Y280752D01*
X77760Y278422D01*
X77539Y278092D01*
X77462Y277702D01*
Y276505D01*
X73967D01*
Y271369D01*
X77823D01*
X78824Y270367D01*
X78594Y269813D01*
X73967D01*
Y264695D01*
X73967D01*
Y259164D01*
X76875D01*
X77374Y258664D01*
X77078Y258111D01*
X77028Y258121D01*
X76379D01*
X76339Y258130D01*
X76299Y258122D01*
X72940D01*
X72940Y258122D01*
X72511Y258036D01*
X72147Y257793D01*
X71962Y257608D01*
X67923D01*
Y252077D01*
X68311D01*
X68731Y251477D01*
X68656Y251102D01*
X68796Y250400D01*
X69194Y249805D01*
X69789Y249407D01*
X70491Y249267D01*
X71194Y249407D01*
X71789Y249805D01*
X72079Y250238D01*
X72679Y250056D01*
Y248875D01*
X72756Y248485D01*
X72978Y248154D01*
X80865Y240267D01*
Y212842D01*
X80265Y212661D01*
X80048Y212986D01*
X79518Y213339D01*
X78894Y213464D01*
X78270Y213339D01*
X77741Y212986D01*
X77553Y212705D01*
X77460Y212679D01*
X76875Y212722D01*
X76638Y213076D01*
X76109Y213430D01*
X75485Y213554D01*
X74860Y213430D01*
X74331Y213076D01*
X74270Y212985D01*
X73548D01*
X73548Y212986D01*
X73018Y213339D01*
X72394Y213464D01*
X71770Y213339D01*
X71241Y212986D01*
X70887Y212457D01*
X70763Y211832D01*
X70887Y211208D01*
X71241Y210679D01*
X71770Y210325D01*
X72394Y210201D01*
X73018Y210325D01*
X73548Y210679D01*
X73609Y210770D01*
X74330D01*
X74331Y210769D01*
X74860Y210416D01*
X75485Y210292D01*
X76109Y210416D01*
X76638Y210769D01*
X76826Y211050D01*
X76919Y211076D01*
X77504Y211033D01*
X77741Y210679D01*
X78270Y210325D01*
X78894Y210201D01*
X79518Y210325D01*
X80048Y210679D01*
X80265Y211004D01*
X80865Y210822D01*
Y187972D01*
X80265Y187791D01*
X80259Y187799D01*
X79730Y188153D01*
X79106Y188277D01*
X78481Y188153D01*
X77952Y187799D01*
X77863Y187665D01*
X72589D01*
X72403Y187943D01*
X71808Y188341D01*
X71105Y188481D01*
X70403Y188341D01*
X69808Y187943D01*
X69410Y187348D01*
X69270Y186646D01*
X69313Y186432D01*
X69006Y185881D01*
X68303Y185741D01*
X67708Y185344D01*
X67310Y184748D01*
X67170Y184046D01*
X67310Y183343D01*
X67708Y182748D01*
X68303Y182350D01*
X69006Y182211D01*
X69708Y182350D01*
X70303Y182748D01*
X70489Y183026D01*
X77863D01*
X77952Y182892D01*
X78481Y182539D01*
X79106Y182414D01*
X79730Y182539D01*
X80259Y182892D01*
X80265Y182901D01*
X80865Y182719D01*
Y181207D01*
X80577Y181048D01*
X80265Y180965D01*
X79809Y181269D01*
X79185Y181394D01*
X78560Y181269D01*
X78136Y180986D01*
X77459D01*
X76991Y180893D01*
X76594Y180627D01*
X64913Y168946D01*
X62392D01*
Y168389D01*
X61217D01*
X60971Y168981D01*
X60394Y169733D01*
X59642Y170310D01*
X58767Y170673D01*
X57827Y170796D01*
X53984D01*
X53044Y170673D01*
X52169Y170310D01*
X51417Y169733D01*
X50840Y168981D01*
X50477Y168105D01*
X50353Y167165D01*
X50477Y166225D01*
X50840Y165350D01*
X51417Y164598D01*
X52169Y164021D01*
X53044Y163658D01*
X53984Y163534D01*
X57827D01*
X58767Y163658D01*
X59642Y164021D01*
X60394Y164598D01*
X60971Y165350D01*
X61217Y165942D01*
X62392D01*
Y165384D01*
X67332D01*
Y167905D01*
X71284Y171856D01*
X71838Y171627D01*
Y171406D01*
X74008D01*
Y172887D01*
X73098D01*
X72868Y173441D01*
X77966Y178539D01*
X78136D01*
X78560Y178255D01*
X79185Y178131D01*
X79274Y178149D01*
X79451Y178004D01*
X79741Y177476D01*
X79387Y176947D01*
X79263Y176323D01*
X79387Y175698D01*
X79741Y175169D01*
X80270Y174816D01*
X80894Y174691D01*
X81368Y174786D01*
X81987Y174751D01*
X82341Y174222D01*
X82870Y173869D01*
X83494Y173744D01*
X84118Y173869D01*
X84648Y174222D01*
X85001Y174751D01*
X85119Y175343D01*
X85685Y175231D01*
X86309Y175355D01*
X86838Y175709D01*
X87508Y175631D01*
X87579Y175526D01*
X87914Y175302D01*
X88203Y174654D01*
X88126Y174264D01*
Y159208D01*
X87526Y158925D01*
X87218Y159130D01*
X86594Y159254D01*
X85970Y159130D01*
X85440Y158776D01*
X84721Y158779D01*
X84661Y158870D01*
X84131Y159224D01*
X83507Y159348D01*
X82883Y159224D01*
X82353Y158870D01*
X82000Y158341D01*
X81876Y157716D01*
X82000Y157092D01*
X82353Y156563D01*
X82883Y156209D01*
X83507Y156085D01*
X84131Y156209D01*
X84660Y156563D01*
X85380Y156560D01*
X85440Y156469D01*
X85970Y156116D01*
X86594Y155991D01*
X87218Y156116D01*
X87526Y156321D01*
X88126Y156037D01*
Y142953D01*
X42342Y97170D01*
X42185Y97202D01*
X41560Y97077D01*
X41031Y96724D01*
X40677Y96194D01*
X40553Y95570D01*
X40677Y94946D01*
X41031Y94417D01*
X41560Y94063D01*
X42185Y93939D01*
X42809Y94063D01*
X43338Y94417D01*
X43692Y94946D01*
X43816Y95570D01*
X43784Y95728D01*
X49213Y101157D01*
X49768Y100928D01*
Y53493D01*
X39528Y43253D01*
X39370Y43285D01*
X38746Y43161D01*
X38217Y42807D01*
X37863Y42278D01*
X37739Y41653D01*
X37863Y41029D01*
X38217Y40500D01*
X38746Y40146D01*
X39370Y40022D01*
X39994Y40146D01*
X40524Y40500D01*
X40877Y41029D01*
X41001Y41653D01*
X40970Y41811D01*
X51508Y52350D01*
X51729Y52681D01*
X51807Y53071D01*
Y57107D01*
X52166Y57291D01*
X52407Y57341D01*
X52809Y57032D01*
X53344Y56811D01*
X53919Y56735D01*
X54493Y56811D01*
X55028Y57032D01*
X55488Y57385D01*
X55840Y57845D01*
X56062Y58380D01*
X56138Y58954D01*
X56062Y59528D01*
X55840Y60064D01*
X55488Y60523D01*
X55028Y60876D01*
X54493Y61098D01*
X53919Y61173D01*
X53344Y61098D01*
X52809Y60876D01*
X52407Y60567D01*
X52166Y60617D01*
X51807Y60802D01*
Y101771D01*
X80322Y130286D01*
X80875Y129990D01*
X80823Y129728D01*
X80963Y129026D01*
X81361Y128431D01*
X81956Y128033D01*
X82658Y127893D01*
X83361Y128033D01*
X83956Y128431D01*
X84354Y129026D01*
X84426Y129390D01*
X85038D01*
X85088Y129138D01*
X85442Y128609D01*
X85971Y128255D01*
X86595Y128131D01*
X86753Y128162D01*
X90157Y124759D01*
Y82466D01*
X89557Y82284D01*
X89328Y82626D01*
X88732Y83024D01*
X88030Y83164D01*
X87328Y83024D01*
X86733Y82626D01*
X86335Y82031D01*
X86195Y81328D01*
X86335Y80626D01*
X86733Y80031D01*
X87328Y79633D01*
X88030Y79493D01*
X88732Y79633D01*
X89328Y80031D01*
X89557Y80373D01*
X90157Y80191D01*
Y41870D01*
X90234Y41480D01*
X90455Y41150D01*
X91248Y40357D01*
Y36928D01*
X90648Y36633D01*
X90285Y36911D01*
X89312Y37314D01*
X89268Y37320D01*
Y31496D01*
Y25672D01*
X89312Y25678D01*
X90239Y26062D01*
X90313Y26067D01*
X90892Y25790D01*
X90931Y25551D01*
X86213Y20833D01*
X85877Y21091D01*
X85156Y21390D01*
X84383Y21492D01*
X83610Y21390D01*
X82889Y21091D01*
X82271Y20617D01*
X81796Y19998D01*
X81497Y19277D01*
X81396Y18504D01*
X81497Y17731D01*
X81796Y17010D01*
X82271Y16391D01*
X82889Y15917D01*
X83610Y15618D01*
X84383Y15516D01*
X85156Y15618D01*
X85877Y15917D01*
X86496Y16391D01*
X86971Y17010D01*
X87269Y17731D01*
X87371Y18504D01*
X87301Y19036D01*
X92363Y24099D01*
X92917Y23869D01*
Y21288D01*
X92443Y21091D01*
X91825Y20617D01*
X91350Y19998D01*
X91051Y19277D01*
X90949Y18504D01*
X91051Y17731D01*
X91350Y17010D01*
X91825Y16391D01*
X92443Y15917D01*
X93164Y15618D01*
X93937Y15516D01*
X94710Y15618D01*
X95431Y15917D01*
X96049Y16391D01*
X96524Y17010D01*
X96823Y17731D01*
X96925Y18504D01*
X96823Y19277D01*
X96524Y19998D01*
X96049Y20617D01*
X95431Y21091D01*
X94957Y21288D01*
Y26991D01*
X95557Y27194D01*
X95700Y27007D01*
X96452Y26430D01*
X97328Y26067D01*
X98268Y25944D01*
X99207Y26067D01*
X100083Y26430D01*
X100835Y27007D01*
X101412Y27759D01*
X101775Y28635D01*
X101871Y29366D01*
X102471Y29327D01*
Y21288D01*
X101997Y21091D01*
X101378Y20617D01*
X100903Y19998D01*
X100605Y19277D01*
X100503Y18504D01*
X100605Y17731D01*
X100903Y17010D01*
X101378Y16391D01*
X101997Y15917D01*
X102717Y15618D01*
X103491Y15516D01*
X104264Y15618D01*
X104984Y15917D01*
X105603Y16391D01*
X106078Y17010D01*
X106377Y17731D01*
X106478Y18504D01*
X106377Y19277D01*
X106078Y19998D01*
X105603Y20617D01*
X104984Y21091D01*
X104510Y21288D01*
Y32585D01*
X105065Y32815D01*
X112025Y25855D01*
Y21288D01*
X111551Y21091D01*
X110932Y20617D01*
X110457Y19998D01*
X110159Y19277D01*
X110057Y18504D01*
X110159Y17731D01*
X110457Y17010D01*
X110932Y16391D01*
X111551Y15917D01*
X112271Y15618D01*
X113045Y15516D01*
X113818Y15618D01*
X114538Y15917D01*
X115157Y16391D01*
X115632Y17010D01*
X115930Y17731D01*
X116032Y18504D01*
X115930Y19277D01*
X115632Y19998D01*
X115157Y20617D01*
X114538Y21091D01*
X114064Y21288D01*
Y25692D01*
X114664Y25941D01*
X120270Y20335D01*
X120011Y19998D01*
X119713Y19277D01*
X119611Y18504D01*
X119713Y17731D01*
X120011Y17010D01*
X120486Y16391D01*
X121105Y15917D01*
X121825Y15618D01*
X122598Y15516D01*
X123372Y15618D01*
X124092Y15917D01*
X124711Y16391D01*
X125186Y17010D01*
X125484Y17731D01*
X125586Y18504D01*
X125484Y19277D01*
X125186Y19998D01*
X124711Y20617D01*
X124092Y21091D01*
X123372Y21390D01*
X122598Y21492D01*
X122067Y21422D01*
X118064Y25424D01*
X118379Y25958D01*
X119207Y26067D01*
X120083Y26430D01*
X120835Y27007D01*
X121412Y27759D01*
X121775Y28635D01*
X121899Y29575D01*
Y33417D01*
X121775Y34357D01*
X121412Y35233D01*
X121405Y35243D01*
X121832Y35671D01*
X121958Y35574D01*
X122493Y35353D01*
X123068Y35277D01*
X123642Y35353D01*
X124177Y35574D01*
X124184Y35580D01*
X124677Y35202D01*
X124371Y34462D01*
X124233Y33417D01*
Y32496D01*
X127268D01*
Y37320D01*
X127223Y37314D01*
X126250Y36911D01*
X125672Y36468D01*
X125180Y36846D01*
X125211Y36922D01*
X125287Y37496D01*
X125211Y38070D01*
X124989Y38605D01*
X124637Y39065D01*
X124177Y39418D01*
X123642Y39639D01*
X123068Y39715D01*
X122493Y39639D01*
X121958Y39418D01*
X121499Y39065D01*
X121146Y38605D01*
X120924Y38070D01*
X120849Y37496D01*
X120924Y36922D01*
X121075Y36557D01*
X120583Y36179D01*
X120083Y36562D01*
X119207Y36925D01*
X118268Y37048D01*
X117328Y36925D01*
X116452Y36562D01*
X115700Y35985D01*
X115123Y35233D01*
X114760Y34357D01*
X114637Y33417D01*
Y29701D01*
X114123Y29365D01*
X97796Y45693D01*
Y124372D01*
X98230Y124458D01*
X98759Y124812D01*
X99113Y125341D01*
X99237Y125965D01*
X99113Y126590D01*
X98759Y127119D01*
X98651Y127191D01*
X98529Y127928D01*
X98726Y128194D01*
X99031Y128255D01*
X99560Y128609D01*
X99913Y129138D01*
X100038Y129762D01*
X99913Y130386D01*
X99560Y130916D01*
X99031Y131269D01*
X98406Y131394D01*
X97782Y131269D01*
X97253Y130916D01*
X96899Y130386D01*
X96829Y130032D01*
X96677Y129942D01*
X96006Y130240D01*
X95976Y130386D01*
X95623Y130916D01*
X95094Y131269D01*
X94469Y131394D01*
X93845Y131269D01*
X93316Y130916D01*
X92962Y130386D01*
X92933Y130240D01*
X92262Y129942D01*
X92110Y130032D01*
X92039Y130386D01*
X91686Y130916D01*
X91157Y131269D01*
X90532Y131394D01*
X89908Y131269D01*
X89379Y130916D01*
X89025Y130386D01*
X88996Y130240D01*
X88325Y129942D01*
X88173Y130032D01*
X88102Y130386D01*
X87749Y130916D01*
X87220Y131269D01*
X86595Y131394D01*
X85971Y131269D01*
X85442Y130916D01*
X85088Y130386D01*
X85031Y130101D01*
X84420D01*
X84354Y130431D01*
X83956Y131026D01*
X83361Y131424D01*
X82658Y131564D01*
X82396Y131512D01*
X82101Y132065D01*
X83977Y133941D01*
X105874D01*
X106264Y134019D01*
X106595Y134240D01*
X110679Y138323D01*
X111254Y138438D01*
X111784Y138792D01*
X112076D01*
X112606Y138438D01*
X113230Y138314D01*
X113854Y138438D01*
X114383Y138792D01*
X114887D01*
X115044Y138700D01*
X115560Y138355D01*
X116184Y138231D01*
X116809Y138355D01*
X117338Y138709D01*
X117692Y139238D01*
X118354Y139493D01*
X118560Y139355D01*
X119185Y139231D01*
X119809Y139355D01*
X120338Y139709D01*
X120574Y140062D01*
X121174Y139880D01*
Y106237D01*
X111319Y96382D01*
X107928D01*
X107838Y96516D01*
X107309Y96869D01*
X106685Y96994D01*
X106060Y96869D01*
X105531Y96516D01*
X105177Y95986D01*
X105053Y95362D01*
X105177Y94738D01*
X105531Y94209D01*
X106060Y93855D01*
X106685Y93731D01*
X107309Y93855D01*
X107838Y94209D01*
X107928Y94343D01*
X111741D01*
X112132Y94420D01*
X112807Y94159D01*
X113031Y93823D01*
X113560Y93470D01*
X114184Y93345D01*
X114809Y93470D01*
X115338Y93823D01*
X115692Y94353D01*
X115816Y94977D01*
X115785Y95135D01*
X118605Y97955D01*
X119205Y97707D01*
Y96105D01*
X119071Y96016D01*
X118717Y95486D01*
X118593Y94862D01*
X118717Y94238D01*
X119071Y93709D01*
X119600Y93355D01*
X120224Y93231D01*
X120849Y93355D01*
X121378Y93709D01*
X121732Y94238D01*
X121856Y94862D01*
X121732Y95486D01*
X121378Y96016D01*
X121244Y96105D01*
Y97762D01*
X122486Y99004D01*
X123086Y98755D01*
Y96208D01*
X122952Y96119D01*
X122598Y95590D01*
X122474Y94965D01*
X122598Y94341D01*
X122952Y93812D01*
X123481Y93458D01*
X124106Y93334D01*
X124730Y93458D01*
X125259Y93812D01*
X125613Y94341D01*
X125650Y94527D01*
X126261D01*
X126298Y94341D01*
X126652Y93812D01*
X127181Y93458D01*
X127805Y93334D01*
X128430Y93458D01*
X128959Y93812D01*
X128974Y93835D01*
X129574Y93653D01*
Y84968D01*
X128974Y84786D01*
X128727Y85156D01*
X128132Y85554D01*
X127429Y85694D01*
X126727Y85554D01*
X126132Y85156D01*
X125734Y84561D01*
X125594Y83858D01*
X125734Y83156D01*
X126132Y82560D01*
X126727Y82163D01*
X127429Y82023D01*
X128132Y82163D01*
X128727Y82560D01*
X128974Y82930D01*
X129574Y82749D01*
Y68404D01*
X129652Y68014D01*
X129873Y67683D01*
X132374Y65182D01*
Y35523D01*
X131774Y35404D01*
X131762Y35435D01*
X131121Y36270D01*
X130285Y36911D01*
X129312Y37314D01*
X129268Y37320D01*
Y31496D01*
Y25672D01*
X129312Y25678D01*
X130285Y26081D01*
X131121Y26722D01*
X131762Y27558D01*
X131774Y27588D01*
X132374Y27469D01*
Y21686D01*
X132152Y21492D01*
X131379Y21390D01*
X130658Y21091D01*
X130040Y20617D01*
X129565Y19998D01*
X129266Y19277D01*
X129165Y18504D01*
X129266Y17731D01*
X129565Y17010D01*
X130040Y16391D01*
X130658Y15917D01*
X131379Y15618D01*
X132152Y15516D01*
X132925Y15618D01*
X133646Y15917D01*
X134265Y16391D01*
X134739Y17010D01*
X135038Y17731D01*
X135140Y18504D01*
X135038Y19277D01*
X134739Y19998D01*
X134414Y20422D01*
Y27904D01*
X135014Y28023D01*
X135123Y27759D01*
X135700Y27007D01*
X136452Y26430D01*
X137328Y26067D01*
X138268Y25944D01*
X139207Y26067D01*
X140083Y26430D01*
X140835Y27007D01*
X140874Y27058D01*
X141474Y26855D01*
Y21461D01*
X140933Y21390D01*
X140212Y21091D01*
X139594Y20617D01*
X139119Y19998D01*
X138820Y19277D01*
X138718Y18504D01*
X138820Y17731D01*
X139119Y17010D01*
X139594Y16391D01*
X140212Y15917D01*
X140933Y15618D01*
X141706Y15516D01*
X142479Y15618D01*
X143200Y15917D01*
X143818Y16391D01*
X144293Y17010D01*
X144592Y17731D01*
X144694Y18504D01*
X144592Y19277D01*
X144293Y19998D01*
X143818Y20617D01*
X143514Y20850D01*
Y24103D01*
X144068Y24332D01*
X145474Y22926D01*
Y17323D01*
X145552Y16933D01*
X145773Y16602D01*
X148973Y13402D01*
X149304Y13181D01*
X149694Y13103D01*
X156432D01*
X156823Y13181D01*
X157153Y13402D01*
X159566Y15815D01*
X160040Y15618D01*
X160814Y15516D01*
X161587Y15618D01*
X162307Y15917D01*
X162926Y16391D01*
X163401Y17010D01*
X163699Y17731D01*
X163801Y18504D01*
X163699Y19277D01*
X163401Y19998D01*
X162926Y20617D01*
X162307Y21091D01*
X161587Y21390D01*
X160814Y21492D01*
X160040Y21390D01*
X159320Y21091D01*
X158701Y20617D01*
X158226Y19998D01*
X157928Y19277D01*
X157826Y18504D01*
X157928Y17731D01*
X158124Y17256D01*
X156010Y15142D01*
X152452D01*
X152333Y15742D01*
X152753Y15917D01*
X153372Y16391D01*
X153847Y17010D01*
X154146Y17731D01*
X154247Y18504D01*
X154146Y19277D01*
X153847Y19998D01*
X153372Y20617D01*
X152753Y21091D01*
X152279Y21288D01*
Y25897D01*
X152452Y26028D01*
X152453Y26029D01*
X153173Y26002D01*
X156373Y22802D01*
X156704Y22581D01*
X157094Y22503D01*
X164926D01*
X167678Y19751D01*
X167482Y19277D01*
X167380Y18504D01*
X167482Y17731D01*
X167780Y17010D01*
X168255Y16391D01*
X168874Y15917D01*
X169594Y15618D01*
X170367Y15516D01*
X171141Y15618D01*
X171861Y15917D01*
X172480Y16391D01*
X172955Y17010D01*
X173253Y17731D01*
X173355Y18504D01*
X173253Y19277D01*
X172955Y19998D01*
X172480Y20617D01*
X171861Y21091D01*
X171141Y21390D01*
X170367Y21492D01*
X169594Y21390D01*
X169120Y21193D01*
X166069Y24244D01*
X165739Y24465D01*
X165348Y24542D01*
X157516D01*
X156111Y25948D01*
X156452Y26430D01*
X157328Y26067D01*
X158268Y25944D01*
X159207Y26067D01*
X160083Y26430D01*
X160835Y27007D01*
X161412Y27759D01*
X161775Y28635D01*
X161899Y29575D01*
Y33417D01*
X161775Y34357D01*
X161412Y35233D01*
X160835Y35985D01*
X160083Y36562D01*
X159207Y36925D01*
X158268Y37048D01*
X157328Y36925D01*
X156452Y36562D01*
X155700Y35985D01*
X155514Y35742D01*
X154914Y35945D01*
Y51758D01*
X155468Y51988D01*
X157940Y49515D01*
X158271Y49294D01*
X158661Y49216D01*
X174465D01*
X175502Y48179D01*
Y44484D01*
X181033D01*
Y49621D01*
X176944D01*
X175608Y50957D01*
X175277Y51178D01*
X174887Y51256D01*
X159084D01*
X138725Y71614D01*
Y82372D01*
X139321Y82560D01*
X139916Y82163D01*
X140619Y82023D01*
X141321Y82163D01*
X141916Y82560D01*
X142314Y83156D01*
X142454Y83858D01*
X142314Y84561D01*
X141916Y85156D01*
X141321Y85554D01*
X140619Y85694D01*
X139916Y85554D01*
X139321Y85156D01*
X138725Y85344D01*
Y135157D01*
X141215Y137647D01*
X141436Y137978D01*
X141514Y138368D01*
Y154253D01*
X142715Y155454D01*
X142936Y155785D01*
X143014Y156175D01*
Y170161D01*
X142936Y170551D01*
X142715Y170882D01*
X133945Y179652D01*
X133614Y179873D01*
X133224Y179951D01*
X130905D01*
X130816Y180085D01*
X130287Y180438D01*
X129662Y180562D01*
X129038Y180438D01*
X128509Y180085D01*
X128155Y179555D01*
X128031Y178931D01*
X128155Y178307D01*
X128509Y177778D01*
X129038Y177424D01*
X129136Y177404D01*
X129412Y176738D01*
X129377Y176687D01*
X129336Y176480D01*
X128871Y175972D01*
X128669Y175924D01*
X128238Y175838D01*
X127709Y175485D01*
X127355Y174955D01*
X127231Y174331D01*
X127355Y173707D01*
X127709Y173178D01*
X128238Y172824D01*
X128862Y172700D01*
X129020Y172731D01*
X129567Y172184D01*
X129234Y171669D01*
X128762Y171763D01*
X128138Y171638D01*
X127609Y171285D01*
X127255Y170755D01*
X127131Y170131D01*
X127255Y169507D01*
X127609Y168978D01*
X128138Y168624D01*
X128762Y168500D01*
X128920Y168531D01*
X129674Y167777D01*
Y165227D01*
X129120Y164997D01*
X128659Y165458D01*
X128694Y165631D01*
X128569Y166255D01*
X128216Y166785D01*
X127687Y167138D01*
X127062Y167262D01*
X126438Y167138D01*
X125909Y166785D01*
X125576Y166287D01*
X125340Y166030D01*
X125057Y165913D01*
X124316Y166060D01*
X123574Y165913D01*
X122946Y165493D01*
X122657Y165060D01*
X122057Y165242D01*
Y167478D01*
X116526D01*
Y162684D01*
X116326Y162167D01*
X116326D01*
X116326Y162167D01*
Y159898D01*
X119291D01*
X122257D01*
Y161924D01*
X124016D01*
X124480Y162017D01*
X124874Y162280D01*
X124887Y162299D01*
X125057Y162333D01*
X125689Y162034D01*
X125691Y162024D01*
X125414Y161359D01*
X125270Y161330D01*
X124741Y160976D01*
X124387Y160447D01*
X124263Y159823D01*
X124387Y159198D01*
X124741Y158669D01*
X125270Y158316D01*
X125474Y158275D01*
Y151454D01*
X125296Y151327D01*
X124874Y151188D01*
X124363Y151530D01*
X124345Y151533D01*
X123721Y152157D01*
X123327Y152421D01*
X122863Y152513D01*
X122863Y152513D01*
X122057D01*
Y155274D01*
X116526D01*
Y150155D01*
X115920D01*
Y144625D01*
X116202D01*
X116694Y144025D01*
X116662Y143862D01*
X116809Y143121D01*
X117229Y142492D01*
X117858Y142072D01*
X117696Y141514D01*
X117677Y141487D01*
X117015Y141232D01*
X116809Y141369D01*
X116184Y141494D01*
X115560Y141369D01*
X115031Y141016D01*
X114528D01*
X114371Y141107D01*
X113854Y141452D01*
X113230Y141576D01*
X112606Y141452D01*
X112076Y141099D01*
X111784D01*
X111254Y141452D01*
X110630Y141576D01*
X110006Y141452D01*
X109476Y141099D01*
X109184D01*
X108654Y141452D01*
X108030Y141576D01*
X107406Y141452D01*
X106876Y141099D01*
X106583D01*
X106054Y141452D01*
X105430Y141576D01*
X104806Y141452D01*
X104276Y141099D01*
X103983D01*
X103454Y141452D01*
X102830Y141576D01*
X102206Y141452D01*
X101676Y141099D01*
X101323Y140569D01*
X101199Y139945D01*
X101323Y139321D01*
X101676Y138792D01*
X102206Y138438D01*
X102830Y138314D01*
X103454Y138438D01*
X103983Y138792D01*
X104276D01*
X104806Y138438D01*
X105430Y138314D01*
X106054Y138438D01*
X106583Y138792D01*
X106876D01*
X107199Y138576D01*
X107354Y137883D01*
X105452Y135980D01*
X84820D01*
X84591Y136534D01*
X89866Y141810D01*
X90087Y142141D01*
X90165Y142531D01*
Y154847D01*
X90765Y155029D01*
X90998Y154680D01*
X91626Y154260D01*
X92368Y154113D01*
X93109Y154260D01*
X93679Y154641D01*
X93951Y154574D01*
X94279Y154410D01*
Y153205D01*
X96744D01*
Y155474D01*
X95491D01*
X95243Y156074D01*
X95999Y156830D01*
X100010D01*
Y161512D01*
X100233Y162019D01*
X100233Y162474D01*
Y164287D01*
X97268D01*
X94302D01*
Y162494D01*
X94302Y162019D01*
X94479Y161492D01*
Y158743D01*
X93637Y157901D01*
X92802D01*
X92368Y157987D01*
X91626Y157840D01*
X90998Y157420D01*
X90765Y157071D01*
X90165Y157253D01*
Y169097D01*
X90694Y169380D01*
X90760Y169336D01*
X91462Y169196D01*
X92164Y169336D01*
X92760Y169733D01*
X92816Y169817D01*
X94502D01*
Y168912D01*
X100033D01*
Y174049D01*
X100033Y174049D01*
Y174219D01*
X100033D01*
X100033Y174649D01*
Y179356D01*
X94502D01*
Y176557D01*
X93610D01*
X93454Y176672D01*
X93334Y176809D01*
X93165Y177107D01*
X93204Y177303D01*
Y185619D01*
X93338Y185709D01*
X93692Y186238D01*
X93816Y186862D01*
X93692Y187487D01*
X93338Y188016D01*
X92809Y188369D01*
X92185Y188494D01*
X91865Y188430D01*
X91257Y188768D01*
X91196Y188848D01*
X91168Y189034D01*
X103060Y200925D01*
X103218Y200852D01*
X103555Y200572D01*
X103453Y200062D01*
X103550Y199574D01*
X103583Y198969D01*
X103054Y198616D01*
X102700Y198087D01*
X102576Y197462D01*
X102700Y196838D01*
X103054Y196309D01*
X103583Y195955D01*
X104208Y195831D01*
X104497Y195888D01*
X104506Y195888D01*
X104788Y195763D01*
X105055Y195460D01*
X105066Y195436D01*
X104971Y194962D01*
X105095Y194338D01*
X105449Y193809D01*
X105978Y193455D01*
X106059Y193259D01*
X105877Y192987D01*
X105753Y192362D01*
X105877Y191738D01*
X105902Y191700D01*
X105896Y191100D01*
X105896Y191100D01*
X105896Y191100D01*
Y185570D01*
X111033D01*
X111033Y185570D01*
X111408D01*
Y185570D01*
X111633Y185570D01*
X116545D01*
Y190113D01*
X116658Y190235D01*
X117145Y190522D01*
X117349Y190481D01*
X117901D01*
Y188835D01*
X120670D01*
X123438D01*
Y190481D01*
X126315D01*
X147494Y169301D01*
X147825Y169080D01*
X148215Y169002D01*
X161562D01*
X173528Y157037D01*
X173453Y156662D01*
X173577Y156038D01*
X173931Y155509D01*
X174460Y155155D01*
X175084Y155031D01*
X175709Y155155D01*
X176238Y155509D01*
X176592Y156038D01*
X176716Y156662D01*
X176592Y157287D01*
X176238Y157816D01*
X175709Y158169D01*
X175172Y158276D01*
X163600Y169848D01*
X163830Y170403D01*
X169002D01*
X172985Y166420D01*
X172953Y166262D01*
X173077Y165638D01*
X173431Y165109D01*
X173960Y164755D01*
X174584Y164631D01*
X175209Y164755D01*
X175738Y165109D01*
X176092Y165638D01*
X176216Y166262D01*
X176092Y166886D01*
X175738Y167416D01*
X175209Y167769D01*
X174584Y167894D01*
X174426Y167862D01*
X170146Y172143D01*
X169815Y172364D01*
X169425Y172442D01*
X152846D01*
X152523Y173042D01*
X152638Y173622D01*
X152983Y174043D01*
X173342D01*
X173431Y173909D01*
X173960Y173555D01*
X174584Y173431D01*
X175209Y173555D01*
X175738Y173909D01*
X176092Y174438D01*
X176113Y174544D01*
X176764Y174741D01*
X181765Y169740D01*
Y162562D01*
X181843Y162172D01*
X182064Y161841D01*
X188185Y155720D01*
X187976Y155229D01*
X187913Y155143D01*
X187210Y155051D01*
X186529Y154769D01*
X185944Y154320D01*
X185495Y153735D01*
X185213Y153054D01*
X185117Y152323D01*
X185213Y151592D01*
X185495Y150911D01*
X185944Y150326D01*
X186529Y149877D01*
X187210Y149595D01*
X187941Y149499D01*
X188672Y149595D01*
X189353Y149877D01*
X189938Y150326D01*
X190387Y150911D01*
X190669Y151592D01*
X190762Y152295D01*
X190847Y152358D01*
X191339Y152566D01*
X197864Y146041D01*
X198194Y145820D01*
X198584Y145743D01*
X199323D01*
X199884Y145631D01*
X200509Y145755D01*
X201038Y146109D01*
X201392Y146638D01*
X201516Y147262D01*
X201392Y147887D01*
X201038Y148416D01*
X200509Y148769D01*
X199884Y148894D01*
X199260Y148769D01*
X198731Y148416D01*
X198405Y148384D01*
X197880Y148908D01*
X197898Y149080D01*
X198116Y149522D01*
X198672Y149595D01*
X199353Y149877D01*
X199938Y150326D01*
X200387Y150911D01*
X200669Y151592D01*
X200765Y152323D01*
X200669Y153054D01*
X200387Y153735D01*
X199938Y154320D01*
X199353Y154769D01*
X198672Y155051D01*
X197941Y155147D01*
X197210Y155051D01*
X196529Y154769D01*
X195944Y154320D01*
X195495Y153735D01*
X195213Y153054D01*
X195140Y152497D01*
X194698Y152279D01*
X194527Y152262D01*
X187880Y158908D01*
X187898Y159080D01*
X188116Y159522D01*
X188672Y159595D01*
X189353Y159877D01*
X189938Y160326D01*
X190387Y160911D01*
X190669Y161592D01*
X190750Y162206D01*
X191063Y162388D01*
X191354Y162451D01*
X197464Y156341D01*
X197794Y156120D01*
X198185Y156043D01*
X198942D01*
X199031Y155909D01*
X199560Y155555D01*
X200184Y155431D01*
X200809Y155555D01*
X201338Y155909D01*
X201692Y156438D01*
X201816Y157062D01*
X201692Y157686D01*
X201338Y158216D01*
X200809Y158569D01*
X200184Y158694D01*
X199560Y158569D01*
X199031Y158216D01*
X198415Y158274D01*
X197773Y158916D01*
X197875Y159268D01*
X198027Y159510D01*
X198672Y159595D01*
X199353Y159877D01*
X199938Y160326D01*
X200387Y160911D01*
X200669Y161592D01*
X200765Y162323D01*
X200669Y163054D01*
X200387Y163735D01*
X199938Y164320D01*
X199353Y164769D01*
X198672Y165051D01*
X197941Y165147D01*
X197210Y165051D01*
X196529Y164769D01*
X195944Y164320D01*
X195495Y163735D01*
X195213Y163054D01*
X195128Y162409D01*
X194887Y162256D01*
X194534Y162155D01*
X187773Y168916D01*
X187875Y169268D01*
X188027Y169510D01*
X188672Y169595D01*
X189353Y169877D01*
X189938Y170326D01*
X190387Y170911D01*
X190669Y171592D01*
X190765Y172323D01*
X190669Y173054D01*
X190387Y173735D01*
X189938Y174320D01*
X189353Y174769D01*
X188672Y175051D01*
X187941Y175147D01*
X187210Y175051D01*
X186529Y174769D01*
X185944Y174320D01*
X185495Y173735D01*
X185213Y173054D01*
X185128Y172409D01*
X184887Y172256D01*
X184534Y172155D01*
X172806Y183883D01*
X172475Y184104D01*
X172084Y184182D01*
X152768D01*
X152526Y184634D01*
X152509Y184782D01*
X152638Y185433D01*
X152523Y186013D01*
X152846Y186614D01*
X197694D01*
X198031Y186109D01*
X198560Y185755D01*
X199185Y185631D01*
X199809Y185755D01*
X200338Y186109D01*
X200692Y186638D01*
X200816Y187262D01*
X200692Y187887D01*
X200338Y188416D01*
X199809Y188769D01*
X199185Y188894D01*
X198560Y188769D01*
X198386Y188653D01*
X142906D01*
X129276Y202283D01*
X128945Y202504D01*
X128555Y202582D01*
X117662D01*
X117341Y203182D01*
X117545Y203487D01*
X117685Y204189D01*
X117569Y204769D01*
X117892Y205369D01*
X159203D01*
X159593Y205447D01*
X159924Y205668D01*
X171000Y216745D01*
X198316D01*
X198406Y216611D01*
X198935Y216257D01*
X199559Y216133D01*
X200183Y216257D01*
X200713Y216611D01*
X201066Y217140D01*
X201190Y217764D01*
X201066Y218389D01*
X200713Y218918D01*
X200183Y219272D01*
X199640Y219380D01*
X199639Y219382D01*
X199520Y219696D01*
X199483Y219976D01*
X199938Y220326D01*
X200387Y220911D01*
X200669Y221592D01*
X200765Y222323D01*
X200669Y223054D01*
X200387Y223735D01*
X199938Y224320D01*
X199353Y224769D01*
X198672Y225051D01*
X197941Y225147D01*
X197210Y225051D01*
X196529Y224769D01*
X195944Y224320D01*
X195495Y223735D01*
X195213Y223054D01*
X195117Y222323D01*
X195213Y221592D01*
X195495Y220911D01*
X195944Y220326D01*
X196529Y219877D01*
X197210Y219595D01*
X197688Y219532D01*
X197982Y218995D01*
X197989Y218912D01*
X197900Y218784D01*
X171702D01*
X171473Y219338D01*
X176583Y224449D01*
X176583Y224449D01*
X178141Y226007D01*
X178299Y225976D01*
X178924Y226100D01*
X179453Y226453D01*
X179806Y226983D01*
X179931Y227607D01*
X179806Y228231D01*
X179453Y228761D01*
X178924Y229114D01*
X178299Y229238D01*
X177675Y229114D01*
X177146Y228761D01*
X176792Y228231D01*
X176668Y227607D01*
X176699Y227449D01*
X175141Y225891D01*
X175141Y225891D01*
X158117Y208867D01*
X133216D01*
X133157Y209467D01*
X133648Y209564D01*
X134177Y209918D01*
X134531Y210447D01*
X134655Y211071D01*
X134531Y211696D01*
X134177Y212225D01*
X133648Y212579D01*
X133024Y212703D01*
X132805Y212659D01*
X132125Y213340D01*
X132280Y214033D01*
X132602Y214249D01*
X132956Y214778D01*
X133080Y215402D01*
X132956Y216026D01*
X132602Y216556D01*
X132073Y216909D01*
X131642Y216995D01*
X131425Y217266D01*
X131403Y217379D01*
X131484Y217972D01*
X131838Y218209D01*
X132192Y218738D01*
X132316Y219362D01*
X132192Y219987D01*
X131838Y220516D01*
X131309Y220869D01*
X130750Y220981D01*
Y229426D01*
X131350Y229806D01*
X131730Y229731D01*
X132355Y229855D01*
X132884Y230209D01*
X133238Y230738D01*
X133362Y231362D01*
X133238Y231986D01*
X132884Y232516D01*
X132355Y232869D01*
X131730Y232994D01*
X131350Y232918D01*
X130750Y233298D01*
Y238886D01*
X141052Y249187D01*
X141273Y249518D01*
X141350Y249908D01*
Y253689D01*
X141273Y254079D01*
X141052Y254410D01*
X140178Y255284D01*
X140022Y255388D01*
X140092Y255770D01*
X140216Y255967D01*
X140240Y255988D01*
X140877D01*
X141697Y255168D01*
X141697Y255168D01*
X141697Y255168D01*
X141875Y255050D01*
X142028Y254947D01*
X142028Y254947D01*
X142028Y254947D01*
X142244Y254904D01*
X142418Y254869D01*
X142418Y254870D01*
X142418Y254869D01*
X147567D01*
X147957Y254947D01*
X148288Y255168D01*
X152284Y259164D01*
X155876D01*
Y264676D01*
X156269D01*
Y264676D01*
X157231D01*
Y262429D01*
X160000D01*
X162768D01*
Y264895D01*
X161781D01*
Y269813D01*
X158270D01*
Y270154D01*
X158193Y270545D01*
X158043Y270768D01*
X158231Y271369D01*
X161781D01*
Y271669D01*
X162381Y272144D01*
X162559Y272109D01*
X163183Y272233D01*
X163713Y272587D01*
X164066Y273116D01*
X164191Y273740D01*
X164066Y274364D01*
X163713Y274894D01*
X163183Y275247D01*
X162559Y275372D01*
X162381Y275336D01*
X161781Y275811D01*
Y276505D01*
X156251D01*
Y276505D01*
X154287D01*
Y279014D01*
X155083Y279344D01*
X155835Y279921D01*
X156412Y280673D01*
X156775Y281548D01*
X156899Y282488D01*
Y286331D01*
X156775Y287270D01*
X156412Y288146D01*
X155835Y288898D01*
X155083Y289475D01*
X154208Y289838D01*
X153268Y289962D01*
D02*
G37*
G36*
X120836Y276505D02*
X115305D01*
Y271369D01*
X120836D01*
Y271669D01*
X121436Y272144D01*
X121614Y272109D01*
X122238Y272233D01*
X122768Y272587D01*
X123121Y273116D01*
X123245Y273740D01*
X123121Y274364D01*
X122768Y274894D01*
X122238Y275247D01*
X121614Y275372D01*
X121436Y275336D01*
X120836Y275812D01*
Y276505D01*
D02*
G37*
G36*
X197941Y275147D02*
X197210Y275051D01*
X196529Y274769D01*
X195944Y274320D01*
X195495Y273735D01*
X195213Y273054D01*
X195117Y272323D01*
X195213Y271592D01*
X195248Y271509D01*
X194789Y271050D01*
X194025Y271366D01*
X192941Y271509D01*
X191858Y271366D01*
X191094Y271050D01*
X190635Y271509D01*
X190669Y271592D01*
X190765Y272323D01*
X190669Y273054D01*
X190387Y273735D01*
X189938Y274320D01*
X189353Y274769D01*
X188672Y275051D01*
X187941Y275147D01*
X187210Y275051D01*
X186529Y274769D01*
X185944Y274320D01*
X185495Y273735D01*
X185213Y273054D01*
X185117Y272323D01*
X185213Y271592D01*
X185495Y270911D01*
X185944Y270326D01*
X186529Y269877D01*
X187210Y269595D01*
X187941Y269499D01*
X188672Y269595D01*
X188755Y269629D01*
X189215Y269170D01*
X188898Y268406D01*
X188755Y267323D01*
X188898Y266240D01*
X189215Y265476D01*
X188755Y265016D01*
X188672Y265051D01*
X187941Y265147D01*
X187210Y265051D01*
X186529Y264769D01*
X185944Y264320D01*
X185495Y263735D01*
X185213Y263054D01*
X185117Y262323D01*
X185213Y261592D01*
X185495Y260911D01*
X185944Y260326D01*
X186529Y259877D01*
X187210Y259595D01*
X187941Y259499D01*
X188672Y259595D01*
X189353Y259877D01*
X189938Y260326D01*
X190387Y260911D01*
X190669Y261592D01*
X190765Y262323D01*
X190669Y263054D01*
X190635Y263137D01*
X191094Y263596D01*
X191858Y263280D01*
X192941Y263137D01*
X194025Y263280D01*
X194789Y263596D01*
X195248Y263137D01*
X195213Y263054D01*
X195117Y262323D01*
X195213Y261592D01*
X195495Y260911D01*
X195944Y260326D01*
X196529Y259877D01*
X197210Y259595D01*
X197941Y259499D01*
X198672Y259595D01*
X199353Y259877D01*
X199938Y260326D01*
X200387Y260911D01*
X200669Y261592D01*
X200765Y262323D01*
X200669Y263054D01*
X200387Y263735D01*
X199938Y264320D01*
X199353Y264769D01*
X198672Y265051D01*
X197941Y265147D01*
X197210Y265051D01*
X197127Y265016D01*
X196668Y265476D01*
X196984Y266240D01*
X197127Y267323D01*
X196984Y268406D01*
X196668Y269170D01*
X197127Y269629D01*
X197210Y269595D01*
X197941Y269499D01*
X198672Y269595D01*
X199353Y269877D01*
X199938Y270326D01*
X200387Y270911D01*
X200669Y271592D01*
X200765Y272323D01*
X200669Y273054D01*
X200387Y273735D01*
X199938Y274320D01*
X199353Y274769D01*
X198672Y275051D01*
X197941Y275147D01*
D02*
G37*
G36*
X28650D02*
X27919Y275051D01*
X27238Y274769D01*
X26653Y274320D01*
X26204Y273735D01*
X25922Y273054D01*
X25826Y272323D01*
X25922Y271592D01*
X25956Y271509D01*
X25497Y271050D01*
X24733Y271366D01*
X23650Y271509D01*
X22567Y271366D01*
X21803Y271050D01*
X21344Y271509D01*
X21378Y271592D01*
X21474Y272323D01*
X21378Y273054D01*
X21096Y273735D01*
X20647Y274320D01*
X20062Y274769D01*
X19381Y275051D01*
X18650Y275147D01*
X17919Y275051D01*
X17238Y274769D01*
X16653Y274320D01*
X16204Y273735D01*
X15922Y273054D01*
X15826Y272323D01*
X15922Y271592D01*
X16204Y270911D01*
X16653Y270326D01*
X17238Y269877D01*
X17919Y269595D01*
X18650Y269499D01*
X19381Y269595D01*
X19464Y269629D01*
X19923Y269170D01*
X19607Y268406D01*
X19464Y267323D01*
X19607Y266240D01*
X19923Y265476D01*
X19464Y265016D01*
X19381Y265051D01*
X18650Y265147D01*
X17919Y265051D01*
X17238Y264769D01*
X16653Y264320D01*
X16204Y263735D01*
X15922Y263054D01*
X15826Y262323D01*
X15922Y261592D01*
X16204Y260911D01*
X16653Y260326D01*
X17238Y259877D01*
X17919Y259595D01*
X18650Y259499D01*
X19381Y259595D01*
X20062Y259877D01*
X20647Y260326D01*
X21096Y260911D01*
X21378Y261592D01*
X21474Y262323D01*
X21378Y263054D01*
X21344Y263137D01*
X21803Y263596D01*
X22567Y263280D01*
X23650Y263137D01*
X24733Y263280D01*
X25497Y263596D01*
X25956Y263137D01*
X25922Y263054D01*
X25826Y262323D01*
X25922Y261592D01*
X26204Y260911D01*
X26653Y260326D01*
X27238Y259877D01*
X27919Y259595D01*
X28650Y259499D01*
X29381Y259595D01*
X30062Y259877D01*
X30647Y260326D01*
X31096Y260911D01*
X31378Y261592D01*
X31474Y262323D01*
X31378Y263054D01*
X31096Y263735D01*
X30647Y264320D01*
X30062Y264769D01*
X29381Y265051D01*
X28650Y265147D01*
X27919Y265051D01*
X27836Y265016D01*
X27377Y265476D01*
X27693Y266240D01*
X27836Y267323D01*
X27693Y268406D01*
X27377Y269170D01*
X27836Y269629D01*
X27919Y269595D01*
X28650Y269499D01*
X29381Y269595D01*
X30062Y269877D01*
X30647Y270326D01*
X31096Y270911D01*
X31378Y271592D01*
X31474Y272323D01*
X31378Y273054D01*
X31096Y273735D01*
X30647Y274320D01*
X30062Y274769D01*
X29381Y275051D01*
X28650Y275147D01*
D02*
G37*
G36*
X121036Y270013D02*
X118571D01*
Y267744D01*
X121036D01*
Y270013D01*
D02*
G37*
G36*
X71036D02*
X68571D01*
Y267744D01*
X71036D01*
Y270013D01*
D02*
G37*
G36*
X117571D02*
X115105D01*
Y267744D01*
X117571D01*
Y270013D01*
D02*
G37*
G36*
X67571D02*
X65105D01*
Y267744D01*
X67571D01*
Y270013D01*
D02*
G37*
G36*
X121036Y266744D02*
X118571D01*
Y264476D01*
X121036D01*
Y266744D01*
D02*
G37*
G36*
X117571D02*
X115105D01*
Y264476D01*
X117571D01*
Y266744D01*
D02*
G37*
G36*
X71036D02*
X68571D01*
Y264476D01*
X71036D01*
Y266744D01*
D02*
G37*
G36*
X67571D02*
X65105D01*
Y264476D01*
X67571D01*
Y266744D01*
D02*
G37*
G36*
X205185Y269610D02*
X204515Y269522D01*
X203890Y269263D01*
X203354Y268851D01*
X202942Y268315D01*
X202683Y267690D01*
X202595Y267019D01*
X202683Y266349D01*
X202942Y265724D01*
X203354Y265187D01*
X203890Y264776D01*
X204515Y264517D01*
X205185Y264429D01*
X205856Y264517D01*
X206481Y264776D01*
X207017Y265187D01*
X207429Y265724D01*
X207688Y266349D01*
X207776Y267019D01*
X207688Y267690D01*
X207429Y268315D01*
X207017Y268851D01*
X206481Y269263D01*
X205856Y269522D01*
X205185Y269610D01*
D02*
G37*
G36*
X42677Y264914D02*
X42007Y264825D01*
X41382Y264566D01*
X40845Y264155D01*
X40433Y263618D01*
X40175Y262993D01*
X40086Y262323D01*
X40175Y261652D01*
X40433Y261028D01*
X40845Y260491D01*
X41382Y260079D01*
X42007Y259820D01*
X42677Y259732D01*
X43348Y259820D01*
X43972Y260079D01*
X44509Y260491D01*
X44921Y261028D01*
X45180Y261652D01*
X45268Y262323D01*
X45180Y262993D01*
X44921Y263618D01*
X44509Y264155D01*
X43972Y264566D01*
X43348Y264825D01*
X42677Y264914D01*
D02*
G37*
G36*
X162768Y261429D02*
X160500D01*
Y258964D01*
X162768D01*
Y261429D01*
D02*
G37*
G36*
X159500D02*
X157231D01*
Y258964D01*
X159500D01*
Y261429D01*
D02*
G37*
G36*
X112768Y261129D02*
X110500D01*
Y258664D01*
X112768D01*
Y261129D01*
D02*
G37*
G36*
X109500D02*
X107231D01*
Y258664D01*
X109500D01*
Y261129D01*
D02*
G37*
G36*
X116312Y257808D02*
X114043D01*
Y255343D01*
X116312D01*
Y257808D01*
D02*
G37*
G36*
X113043D02*
X110775D01*
Y255343D01*
X113043D01*
Y257808D01*
D02*
G37*
G36*
X66567D02*
X64298D01*
Y255343D01*
X66567D01*
Y257808D01*
D02*
G37*
G36*
X63298D02*
X61030D01*
Y255343D01*
X63298D01*
Y257808D01*
D02*
G37*
G36*
X116312Y254343D02*
X114043D01*
Y251877D01*
X116312D01*
Y254343D01*
D02*
G37*
G36*
X113043D02*
X110775D01*
Y251877D01*
X113043D01*
Y254343D01*
D02*
G37*
G36*
X66567D02*
X64298D01*
Y251877D01*
X66567D01*
Y254343D01*
D02*
G37*
G36*
X63298D02*
X61030D01*
Y251877D01*
X63298D01*
Y254343D01*
D02*
G37*
G36*
X197941Y255147D02*
X197210Y255051D01*
X196529Y254769D01*
X195944Y254320D01*
X195495Y253735D01*
X195213Y253054D01*
X195117Y252323D01*
X195213Y251592D01*
X195495Y250911D01*
X195944Y250326D01*
X196529Y249877D01*
X197210Y249595D01*
X197941Y249499D01*
X198672Y249595D01*
X199353Y249877D01*
X199938Y250326D01*
X200387Y250911D01*
X200669Y251592D01*
X200765Y252323D01*
X200669Y253054D01*
X200387Y253735D01*
X199938Y254320D01*
X199353Y254769D01*
X198672Y255051D01*
X197941Y255147D01*
D02*
G37*
G36*
X187941D02*
X187210Y255051D01*
X186529Y254769D01*
X185944Y254320D01*
X185495Y253735D01*
X185213Y253054D01*
X185117Y252323D01*
X185213Y251592D01*
X185495Y250911D01*
X185944Y250326D01*
X186529Y249877D01*
X187210Y249595D01*
X187941Y249499D01*
X188672Y249595D01*
X189353Y249877D01*
X189938Y250326D01*
X190387Y250911D01*
X190669Y251592D01*
X190765Y252323D01*
X190669Y253054D01*
X190387Y253735D01*
X189938Y254320D01*
X189353Y254769D01*
X188672Y255051D01*
X187941Y255147D01*
D02*
G37*
G36*
X28650D02*
X27919Y255051D01*
X27238Y254769D01*
X26653Y254320D01*
X26204Y253735D01*
X25922Y253054D01*
X25826Y252323D01*
X25922Y251592D01*
X26204Y250911D01*
X26653Y250326D01*
X27238Y249877D01*
X27919Y249595D01*
X28650Y249499D01*
X29381Y249595D01*
X30062Y249877D01*
X30647Y250326D01*
X31096Y250911D01*
X31378Y251592D01*
X31474Y252323D01*
X31378Y253054D01*
X31096Y253735D01*
X30647Y254320D01*
X30062Y254769D01*
X29381Y255051D01*
X28650Y255147D01*
D02*
G37*
G36*
X18650D02*
X17919Y255051D01*
X17238Y254769D01*
X16653Y254320D01*
X16204Y253735D01*
X15922Y253054D01*
X15826Y252323D01*
X15922Y251592D01*
X16204Y250911D01*
X16653Y250326D01*
X16992Y250066D01*
X16870Y249430D01*
X16341Y249076D01*
X15987Y248547D01*
X15863Y247923D01*
X15987Y247299D01*
X16341Y246769D01*
X16870Y246416D01*
X17494Y246291D01*
X18118Y246416D01*
X18648Y246769D01*
X19001Y247299D01*
X19125Y247923D01*
X19001Y248547D01*
X18760Y248908D01*
X18924Y249443D01*
X19001Y249545D01*
X19381Y249595D01*
X20062Y249877D01*
X20647Y250326D01*
X21096Y250911D01*
X21378Y251592D01*
X21474Y252323D01*
X21378Y253054D01*
X21096Y253735D01*
X20647Y254320D01*
X20062Y254769D01*
X19381Y255051D01*
X18650Y255147D01*
D02*
G37*
G36*
X35894Y248954D02*
X35270Y248830D01*
X34740Y248476D01*
X34387Y247947D01*
X34263Y247323D01*
X34387Y246698D01*
X34740Y246169D01*
X35270Y245816D01*
X35894Y245691D01*
X36518Y245816D01*
X37048Y246169D01*
X37401Y246698D01*
X37525Y247323D01*
X37401Y247947D01*
X37048Y248476D01*
X36518Y248830D01*
X35894Y248954D01*
D02*
G37*
G36*
X197941Y245147D02*
X197210Y245051D01*
X196529Y244769D01*
X195944Y244320D01*
X195495Y243735D01*
X195213Y243054D01*
X195117Y242323D01*
X195213Y241592D01*
X195495Y240911D01*
X195944Y240326D01*
X196529Y239877D01*
X197210Y239595D01*
X197941Y239499D01*
X198672Y239595D01*
X199353Y239877D01*
X199938Y240326D01*
X200387Y240911D01*
X200669Y241592D01*
X200765Y242323D01*
X200669Y243054D01*
X200387Y243735D01*
X199938Y244320D01*
X199353Y244769D01*
X198672Y245051D01*
X197941Y245147D01*
D02*
G37*
G36*
X187941D02*
X187210Y245051D01*
X186529Y244769D01*
X185944Y244320D01*
X185495Y243735D01*
X185213Y243054D01*
X185117Y242323D01*
X185213Y241592D01*
X185495Y240911D01*
X185944Y240326D01*
X186529Y239877D01*
X187210Y239595D01*
X187941Y239499D01*
X188672Y239595D01*
X189353Y239877D01*
X189938Y240326D01*
X190387Y240911D01*
X190669Y241592D01*
X190765Y242323D01*
X190669Y243054D01*
X190387Y243735D01*
X189938Y244320D01*
X189353Y244769D01*
X188672Y245051D01*
X187941Y245147D01*
D02*
G37*
G36*
X28650D02*
X27919Y245051D01*
X27238Y244769D01*
X26653Y244320D01*
X26204Y243735D01*
X25922Y243054D01*
X25826Y242323D01*
X25922Y241592D01*
X26204Y240911D01*
X26653Y240326D01*
X27238Y239877D01*
X27919Y239595D01*
X28650Y239499D01*
X29381Y239595D01*
X30062Y239877D01*
X30647Y240326D01*
X31096Y240911D01*
X31378Y241592D01*
X31474Y242323D01*
X31378Y243054D01*
X31096Y243735D01*
X30647Y244320D01*
X30062Y244769D01*
X29381Y245051D01*
X28650Y245147D01*
D02*
G37*
G36*
X136185Y237494D02*
X135560Y237369D01*
X135169Y237108D01*
X134770Y237052D01*
X134371Y237108D01*
X133980Y237369D01*
X133356Y237494D01*
X132732Y237369D01*
X132203Y237016D01*
X131849Y236487D01*
X131725Y235862D01*
X131849Y235238D01*
X132203Y234709D01*
X132732Y234355D01*
X133356Y234231D01*
X133980Y234355D01*
X134371Y234616D01*
X134770Y234672D01*
X135169Y234616D01*
X135560Y234355D01*
X136185Y234231D01*
X136809Y234355D01*
X137338Y234709D01*
X137692Y235238D01*
X137816Y235862D01*
X137692Y236487D01*
X137338Y237016D01*
X136809Y237369D01*
X136185Y237494D01*
D02*
G37*
G36*
X197941Y235147D02*
X197210Y235051D01*
X196529Y234769D01*
X195944Y234320D01*
X195495Y233735D01*
X195213Y233054D01*
X195117Y232323D01*
X195213Y231592D01*
X195495Y230911D01*
X195944Y230326D01*
X196529Y229877D01*
X197210Y229595D01*
X197941Y229499D01*
X198672Y229595D01*
X199353Y229877D01*
X199938Y230326D01*
X200387Y230911D01*
X200669Y231592D01*
X200765Y232323D01*
X200669Y233054D01*
X200387Y233735D01*
X199938Y234320D01*
X199353Y234769D01*
X198672Y235051D01*
X197941Y235147D01*
D02*
G37*
G36*
X187941D02*
X187210Y235051D01*
X186529Y234769D01*
X185944Y234320D01*
X185495Y233735D01*
X185213Y233054D01*
X185117Y232323D01*
X185213Y231592D01*
X185495Y230911D01*
X185944Y230326D01*
X186529Y229877D01*
X187210Y229595D01*
X187941Y229499D01*
X188672Y229595D01*
X189353Y229877D01*
X189938Y230326D01*
X190387Y230911D01*
X190669Y231592D01*
X190765Y232323D01*
X190669Y233054D01*
X190387Y233735D01*
X189938Y234320D01*
X189353Y234769D01*
X188672Y235051D01*
X187941Y235147D01*
D02*
G37*
G36*
Y225147D02*
X187210Y225051D01*
X186529Y224769D01*
X185944Y224320D01*
X185495Y223735D01*
X185213Y223054D01*
X185117Y222323D01*
X185213Y221592D01*
X185495Y220911D01*
X185944Y220326D01*
X186529Y219877D01*
X187210Y219595D01*
X187941Y219499D01*
X188672Y219595D01*
X189353Y219877D01*
X189938Y220326D01*
X190387Y220911D01*
X190669Y221592D01*
X190765Y222323D01*
X190669Y223054D01*
X190387Y223735D01*
X189938Y224320D01*
X189353Y224769D01*
X188672Y225051D01*
X187941Y225147D01*
D02*
G37*
G36*
X23185Y219994D02*
X22560Y219869D01*
X22031Y219516D01*
X21677Y218987D01*
X21553Y218362D01*
X21677Y217738D01*
X22031Y217209D01*
X22560Y216855D01*
X23185Y216731D01*
X23809Y216855D01*
X24338Y217209D01*
X24692Y217738D01*
X24816Y218362D01*
X24692Y218987D01*
X24338Y219516D01*
X23809Y219869D01*
X23185Y219994D01*
D02*
G37*
G36*
X95894Y215642D02*
X95320Y215566D01*
X94784Y215345D01*
X94325Y214992D01*
X93972Y214532D01*
X93751Y213997D01*
X93675Y213423D01*
X93751Y212848D01*
X93972Y212313D01*
X94325Y211854D01*
X94784Y211501D01*
X95320Y211280D01*
X95894Y211204D01*
X96468Y211280D01*
X97004Y211501D01*
X97463Y211854D01*
X97816Y212313D01*
X98037Y212848D01*
X98113Y213423D01*
X98037Y213997D01*
X97816Y214532D01*
X97463Y214992D01*
X97004Y215345D01*
X96468Y215566D01*
X95894Y215642D01*
D02*
G37*
G36*
X18650Y245147D02*
X17919Y245051D01*
X17238Y244769D01*
X16653Y244320D01*
X16204Y243735D01*
X15922Y243054D01*
X15826Y242323D01*
X15922Y241592D01*
X16204Y240911D01*
X16653Y240326D01*
X16992Y240066D01*
X16870Y239430D01*
X16341Y239076D01*
X15987Y238547D01*
X15863Y237923D01*
X15987Y237298D01*
X16341Y236769D01*
X16870Y236416D01*
X17494Y236292D01*
X18118Y236416D01*
X18143Y236432D01*
X18849Y235726D01*
X18710Y235320D01*
X18588Y235139D01*
X17919Y235051D01*
X17238Y234769D01*
X16653Y234320D01*
X16204Y233735D01*
X15922Y233054D01*
X15826Y232323D01*
X15922Y231592D01*
X16204Y230911D01*
X16653Y230326D01*
X16992Y230066D01*
X16870Y229430D01*
X16341Y229076D01*
X15987Y228547D01*
X15863Y227923D01*
X15987Y227298D01*
X16341Y226769D01*
X16870Y226416D01*
X17494Y226291D01*
X17652Y226323D01*
X18272Y225703D01*
X18057Y225069D01*
X17919Y225051D01*
X17238Y224769D01*
X16653Y224320D01*
X16204Y223735D01*
X15922Y223054D01*
X15826Y222323D01*
X15922Y221592D01*
X16204Y220911D01*
X16653Y220326D01*
X17238Y219877D01*
X17919Y219595D01*
X18650Y219499D01*
X19381Y219595D01*
X20062Y219877D01*
X20647Y220326D01*
X21096Y220911D01*
X21378Y221592D01*
X21474Y222323D01*
X21378Y223054D01*
X21096Y223735D01*
X20660Y224303D01*
X20671Y224382D01*
X20872Y224903D01*
X26428D01*
X26629Y224382D01*
X26640Y224303D01*
X26204Y223735D01*
X25922Y223054D01*
X25826Y222323D01*
X25922Y221592D01*
X26204Y220911D01*
X26653Y220326D01*
X27238Y219877D01*
X27919Y219595D01*
X28650Y219499D01*
X29381Y219595D01*
X30062Y219877D01*
X30647Y220326D01*
X31096Y220911D01*
X31378Y221592D01*
X31474Y222323D01*
X31378Y223054D01*
X31096Y223735D01*
X31577Y224079D01*
X42268Y213389D01*
X42209Y213300D01*
X42085Y212676D01*
X42209Y212051D01*
X42562Y211522D01*
X43092Y211168D01*
X43716Y211044D01*
X44340Y211168D01*
X44869Y211522D01*
X45223Y212051D01*
X45278Y212326D01*
X45486Y212744D01*
X45904Y212952D01*
X46179Y213007D01*
X46708Y213361D01*
X47061Y213890D01*
X47186Y214514D01*
X47061Y215138D01*
X46708Y215668D01*
X46179Y216021D01*
X45554Y216145D01*
X44930Y216021D01*
X44841Y215962D01*
X32559Y228244D01*
X32229Y228465D01*
X31839Y228542D01*
X28979D01*
X28567Y228998D01*
X28593Y229155D01*
X28790Y229517D01*
X29381Y229595D01*
X30062Y229877D01*
X30647Y230326D01*
X31096Y230911D01*
X31378Y231592D01*
X31474Y232323D01*
X31378Y233054D01*
X31096Y233735D01*
X30647Y234320D01*
X30062Y234769D01*
X29381Y235051D01*
X28650Y235147D01*
X27919Y235051D01*
X27238Y234769D01*
X26653Y234320D01*
X26204Y233735D01*
X25922Y233054D01*
X25844Y232463D01*
X25482Y232266D01*
X25234Y232225D01*
X19023Y238435D01*
X19001Y238547D01*
X18760Y238908D01*
X18924Y239443D01*
X19001Y239545D01*
X19381Y239595D01*
X20062Y239877D01*
X20647Y240326D01*
X21096Y240911D01*
X21378Y241592D01*
X21474Y242323D01*
X21378Y243054D01*
X21096Y243735D01*
X20647Y244320D01*
X20062Y244769D01*
X19381Y245051D01*
X18650Y245147D01*
D02*
G37*
G36*
X197941Y215147D02*
X197210Y215051D01*
X196529Y214769D01*
X195944Y214320D01*
X195495Y213735D01*
X195213Y213054D01*
X195117Y212323D01*
X195213Y211592D01*
X195495Y210911D01*
X195944Y210326D01*
X196529Y209877D01*
X197210Y209595D01*
X197941Y209499D01*
X198672Y209595D01*
X199353Y209877D01*
X199938Y210326D01*
X200387Y210911D01*
X200669Y211592D01*
X200765Y212323D01*
X200669Y213054D01*
X200387Y213735D01*
X199938Y214320D01*
X199353Y214769D01*
X198672Y215051D01*
X197941Y215147D01*
D02*
G37*
G36*
X187941D02*
X187210Y215051D01*
X186529Y214769D01*
X185944Y214320D01*
X185495Y213735D01*
X185213Y213054D01*
X185117Y212323D01*
X185213Y211592D01*
X185495Y210911D01*
X185944Y210326D01*
X186529Y209877D01*
X187210Y209595D01*
X187941Y209499D01*
X188672Y209595D01*
X189353Y209877D01*
X189938Y210326D01*
X190387Y210911D01*
X190669Y211592D01*
X190765Y212323D01*
X190669Y213054D01*
X190387Y213735D01*
X189938Y214320D01*
X189353Y214769D01*
X188672Y215051D01*
X187941Y215147D01*
D02*
G37*
G36*
X28650D02*
X27919Y215051D01*
X27238Y214769D01*
X26653Y214320D01*
X26204Y213735D01*
X25922Y213054D01*
X25826Y212323D01*
X25922Y211592D01*
X26204Y210911D01*
X26653Y210326D01*
X27238Y209877D01*
X27919Y209595D01*
X28650Y209499D01*
X29381Y209595D01*
X30062Y209877D01*
X30647Y210326D01*
X31096Y210911D01*
X31378Y211592D01*
X31474Y212323D01*
X31378Y213054D01*
X31096Y213735D01*
X30647Y214320D01*
X30062Y214769D01*
X29381Y215051D01*
X28650Y215147D01*
D02*
G37*
G36*
X18650D02*
X17919Y215051D01*
X17238Y214769D01*
X16653Y214320D01*
X16204Y213735D01*
X15922Y213054D01*
X15826Y212323D01*
X15922Y211592D01*
X16204Y210911D01*
X16653Y210326D01*
X17238Y209877D01*
X17919Y209595D01*
X18650Y209499D01*
X19381Y209595D01*
X20062Y209877D01*
X20647Y210326D01*
X21096Y210911D01*
X21378Y211592D01*
X21474Y212323D01*
X21378Y213054D01*
X21096Y213735D01*
X20647Y214320D01*
X20062Y214769D01*
X19381Y215051D01*
X18650Y215147D01*
D02*
G37*
G36*
X23185Y210494D02*
X22560Y210369D01*
X22031Y210016D01*
X21677Y209487D01*
X21553Y208862D01*
X21677Y208238D01*
X22031Y207709D01*
X22560Y207355D01*
X23185Y207231D01*
X23809Y207355D01*
X24338Y207709D01*
X24692Y208238D01*
X24816Y208862D01*
X24692Y209487D01*
X24338Y210016D01*
X23809Y210369D01*
X23185Y210494D01*
D02*
G37*
G36*
X35894Y210254D02*
X35270Y210130D01*
X34740Y209776D01*
X34387Y209247D01*
X34263Y208623D01*
X34387Y207998D01*
X34740Y207469D01*
X35270Y207116D01*
X35894Y206992D01*
X36518Y207116D01*
X37048Y207469D01*
X37401Y207998D01*
X37525Y208623D01*
X37401Y209247D01*
X37048Y209776D01*
X36518Y210130D01*
X35894Y210254D01*
D02*
G37*
G36*
X174794Y208254D02*
X174170Y208130D01*
X173641Y207776D01*
X173287Y207247D01*
X173163Y206623D01*
X173287Y205998D01*
X173641Y205469D01*
X174170Y205116D01*
X174794Y204992D01*
X175418Y205116D01*
X175948Y205469D01*
X176301Y205998D01*
X176425Y206623D01*
X176301Y207247D01*
X175948Y207776D01*
X175418Y208130D01*
X174794Y208254D01*
D02*
G37*
G36*
X197941Y205147D02*
X197210Y205051D01*
X196529Y204769D01*
X195944Y204320D01*
X195495Y203735D01*
X195213Y203054D01*
X195117Y202323D01*
X195213Y201592D01*
X195495Y200911D01*
X195944Y200326D01*
X196529Y199877D01*
X197210Y199595D01*
X197941Y199499D01*
X198672Y199595D01*
X199353Y199877D01*
X199938Y200326D01*
X200387Y200911D01*
X200669Y201592D01*
X200765Y202323D01*
X200669Y203054D01*
X200387Y203735D01*
X199938Y204320D01*
X199353Y204769D01*
X198672Y205051D01*
X197941Y205147D01*
D02*
G37*
G36*
X187941D02*
X187210Y205051D01*
X186529Y204769D01*
X185944Y204320D01*
X185495Y203735D01*
X185213Y203054D01*
X185117Y202323D01*
X185213Y201592D01*
X185495Y200911D01*
X185944Y200326D01*
X186529Y199877D01*
X187210Y199595D01*
X187941Y199499D01*
X188672Y199595D01*
X189353Y199877D01*
X189938Y200326D01*
X190387Y200911D01*
X190669Y201592D01*
X190765Y202323D01*
X190669Y203054D01*
X190387Y203735D01*
X189938Y204320D01*
X189353Y204769D01*
X188672Y205051D01*
X187941Y205147D01*
D02*
G37*
G36*
X28650D02*
X27919Y205051D01*
X27238Y204769D01*
X26653Y204320D01*
X26204Y203735D01*
X25922Y203054D01*
X25826Y202323D01*
X25922Y201592D01*
X26204Y200911D01*
X26653Y200326D01*
X27238Y199877D01*
X27919Y199595D01*
X28650Y199499D01*
X29381Y199595D01*
X30062Y199877D01*
X30647Y200326D01*
X31096Y200911D01*
X31378Y201592D01*
X31474Y202323D01*
X31378Y203054D01*
X31096Y203735D01*
X30647Y204320D01*
X30062Y204769D01*
X29381Y205051D01*
X28650Y205147D01*
D02*
G37*
G36*
X18650D02*
X17919Y205051D01*
X17238Y204769D01*
X16653Y204320D01*
X16204Y203735D01*
X15922Y203054D01*
X15826Y202323D01*
X15922Y201592D01*
X16204Y200911D01*
X16653Y200326D01*
X17238Y199877D01*
X17919Y199595D01*
X18650Y199499D01*
X19381Y199595D01*
X20062Y199877D01*
X20647Y200326D01*
X21096Y200911D01*
X21378Y201592D01*
X21474Y202323D01*
X21378Y203054D01*
X21096Y203735D01*
X20647Y204320D01*
X20062Y204769D01*
X19381Y205051D01*
X18650Y205147D01*
D02*
G37*
G36*
X52794Y207754D02*
X52170Y207630D01*
X51640Y207276D01*
X51287Y206747D01*
X51163Y206123D01*
X51287Y205499D01*
X51569Y205077D01*
X51635Y204855D01*
X51610Y204268D01*
X51396Y203947D01*
X51272Y203323D01*
X51396Y202698D01*
X51749Y202169D01*
X51674Y201498D01*
X51640Y201476D01*
X51287Y200947D01*
X51163Y200323D01*
X51287Y199698D01*
X51640Y199169D01*
X52170Y198816D01*
X52794Y198691D01*
X53418Y198816D01*
X53948Y199169D01*
X54301Y199698D01*
X54425Y200323D01*
X54301Y200947D01*
X53948Y201476D01*
X54023Y202147D01*
X54057Y202169D01*
X54410Y202698D01*
X54534Y203323D01*
X54410Y203947D01*
X54129Y204369D01*
X54062Y204591D01*
X54087Y205178D01*
X54301Y205499D01*
X54425Y206123D01*
X54301Y206747D01*
X53948Y207276D01*
X53418Y207630D01*
X52794Y207754D01*
D02*
G37*
G36*
X35894Y200154D02*
X35270Y200030D01*
X34740Y199676D01*
X34387Y199147D01*
X34263Y198523D01*
X34387Y197898D01*
X34740Y197369D01*
X35270Y197016D01*
X35894Y196891D01*
X36518Y197016D01*
X37048Y197369D01*
X37401Y197898D01*
X37525Y198523D01*
X37401Y199147D01*
X37048Y199676D01*
X36518Y200030D01*
X35894Y200154D01*
D02*
G37*
G36*
X199185Y198894D02*
X198560Y198769D01*
X198031Y198416D01*
X197677Y197887D01*
X197553Y197262D01*
X197677Y196638D01*
X198031Y196109D01*
X198560Y195755D01*
X199185Y195631D01*
X199809Y195755D01*
X200338Y196109D01*
X200692Y196638D01*
X200816Y197262D01*
X200692Y197887D01*
X200338Y198416D01*
X199809Y198769D01*
X199185Y198894D01*
D02*
G37*
G36*
X150803Y199079D02*
X150101Y198940D01*
X149505Y198542D01*
X149108Y197946D01*
X148968Y197244D01*
X149108Y196542D01*
X149505Y195946D01*
X150101Y195548D01*
X150803Y195409D01*
X151505Y195548D01*
X152101Y195946D01*
X152499Y196542D01*
X152638Y197244D01*
X152499Y197946D01*
X152101Y198542D01*
X151505Y198940D01*
X150803Y199079D01*
D02*
G37*
G36*
X174994Y198254D02*
X174370Y198130D01*
X173840Y197776D01*
X173487Y197247D01*
X173363Y196623D01*
X173487Y195999D01*
X173840Y195469D01*
X174370Y195116D01*
X174994Y194992D01*
X175618Y195116D01*
X176148Y195469D01*
X176501Y195999D01*
X176625Y196623D01*
X176501Y197247D01*
X176148Y197776D01*
X175618Y198130D01*
X174994Y198254D01*
D02*
G37*
G36*
X66805Y193597D02*
X66181Y193472D01*
X65652Y193119D01*
X65298Y192589D01*
X65174Y191965D01*
X65298Y191341D01*
X65652Y190812D01*
X66181Y190458D01*
X66805Y190334D01*
X67430Y190458D01*
X67959Y190812D01*
X68313Y191341D01*
X68437Y191965D01*
X68313Y192589D01*
X67959Y193119D01*
X67430Y193472D01*
X66805Y193597D01*
D02*
G37*
G36*
X197941Y195147D02*
X197210Y195051D01*
X196529Y194769D01*
X195944Y194320D01*
X195495Y193735D01*
X195213Y193054D01*
X195117Y192323D01*
X195213Y191592D01*
X195495Y190911D01*
X195944Y190326D01*
X196529Y189877D01*
X197210Y189595D01*
X197941Y189499D01*
X198672Y189595D01*
X199353Y189877D01*
X199938Y190326D01*
X200387Y190911D01*
X200669Y191592D01*
X200765Y192323D01*
X200669Y193054D01*
X200387Y193735D01*
X199938Y194320D01*
X199353Y194769D01*
X198672Y195051D01*
X197941Y195147D01*
D02*
G37*
G36*
X187941D02*
X187210Y195051D01*
X186529Y194769D01*
X185944Y194320D01*
X185495Y193735D01*
X185213Y193054D01*
X185117Y192323D01*
X185213Y191592D01*
X185495Y190911D01*
X185944Y190326D01*
X186529Y189877D01*
X187210Y189595D01*
X187941Y189499D01*
X188672Y189595D01*
X189353Y189877D01*
X189938Y190326D01*
X190387Y190911D01*
X190669Y191592D01*
X190765Y192323D01*
X190669Y193054D01*
X190387Y193735D01*
X189938Y194320D01*
X189353Y194769D01*
X188672Y195051D01*
X187941Y195147D01*
D02*
G37*
G36*
X28650D02*
X27919Y195051D01*
X27238Y194769D01*
X26653Y194320D01*
X26204Y193735D01*
X25922Y193054D01*
X25826Y192323D01*
X25922Y191592D01*
X26204Y190911D01*
X26653Y190326D01*
X27238Y189877D01*
X27919Y189595D01*
X28650Y189499D01*
X29381Y189595D01*
X30062Y189877D01*
X30647Y190326D01*
X31096Y190911D01*
X31378Y191592D01*
X31474Y192323D01*
X31378Y193054D01*
X31096Y193735D01*
X30647Y194320D01*
X30062Y194769D01*
X29381Y195051D01*
X28650Y195147D01*
D02*
G37*
G36*
X18650D02*
X17919Y195051D01*
X17238Y194769D01*
X16653Y194320D01*
X16204Y193735D01*
X15922Y193054D01*
X15826Y192323D01*
X15922Y191592D01*
X16204Y190911D01*
X16653Y190326D01*
X17238Y189877D01*
X17919Y189595D01*
X18650Y189499D01*
X19381Y189595D01*
X20062Y189877D01*
X20647Y190326D01*
X21096Y190911D01*
X21378Y191592D01*
X21474Y192323D01*
X21378Y193054D01*
X21096Y193735D01*
X20647Y194320D01*
X20062Y194769D01*
X19381Y195051D01*
X18650Y195147D01*
D02*
G37*
G36*
X104540Y191300D02*
X102272D01*
Y188835D01*
X104540D01*
Y191300D01*
D02*
G37*
G36*
X101272D02*
X99003D01*
Y188835D01*
X101272D01*
Y191300D01*
D02*
G37*
G36*
X123438Y187835D02*
X121170D01*
Y185370D01*
X123438D01*
Y187835D01*
D02*
G37*
G36*
X120170D02*
X117901D01*
Y185370D01*
X120170D01*
Y187835D01*
D02*
G37*
G36*
X104540Y187835D02*
X102272D01*
Y185370D01*
X104540D01*
Y187835D01*
D02*
G37*
G36*
X101272D02*
X99003D01*
Y186249D01*
X97768D01*
Y183980D01*
X100233D01*
Y185370D01*
X101272D01*
Y187835D01*
D02*
G37*
G36*
X96768Y186249D02*
X94302D01*
Y183980D01*
X96768D01*
Y186249D01*
D02*
G37*
G36*
X100233Y182980D02*
X97768D01*
Y180712D01*
X100233D01*
Y182980D01*
D02*
G37*
G36*
X96768D02*
X94302D01*
Y180712D01*
X96768D01*
Y182980D01*
D02*
G37*
G36*
X197941Y185147D02*
X197210Y185051D01*
X196529Y184769D01*
X195944Y184320D01*
X195495Y183735D01*
X195213Y183054D01*
X195117Y182323D01*
X195213Y181592D01*
X195495Y180911D01*
X195944Y180326D01*
X196529Y179877D01*
X197210Y179595D01*
X197941Y179499D01*
X198672Y179595D01*
X199353Y179877D01*
X199938Y180326D01*
X200387Y180911D01*
X200669Y181592D01*
X200765Y182323D01*
X200669Y183054D01*
X200387Y183735D01*
X199938Y184320D01*
X199353Y184769D01*
X198672Y185051D01*
X197941Y185147D01*
D02*
G37*
G36*
X187941D02*
X187210Y185051D01*
X186529Y184769D01*
X185944Y184320D01*
X185495Y183735D01*
X185213Y183054D01*
X185117Y182323D01*
X185213Y181592D01*
X185495Y180911D01*
X185944Y180326D01*
X186529Y179877D01*
X187210Y179595D01*
X187941Y179499D01*
X188672Y179595D01*
X189353Y179877D01*
X189938Y180326D01*
X190387Y180911D01*
X190669Y181592D01*
X190765Y182323D01*
X190669Y183054D01*
X190387Y183735D01*
X189938Y184320D01*
X189353Y184769D01*
X188672Y185051D01*
X187941Y185147D01*
D02*
G37*
G36*
X28650D02*
X27919Y185051D01*
X27238Y184769D01*
X26653Y184320D01*
X26204Y183735D01*
X25922Y183054D01*
X25826Y182323D01*
X25922Y181592D01*
X26204Y180911D01*
X26653Y180326D01*
X27238Y179877D01*
X27919Y179595D01*
X28650Y179499D01*
X29381Y179595D01*
X30062Y179877D01*
X30647Y180326D01*
X31096Y180911D01*
X31378Y181592D01*
X31474Y182323D01*
X31378Y183054D01*
X31096Y183735D01*
X30647Y184320D01*
X30062Y184769D01*
X29381Y185051D01*
X28650Y185147D01*
D02*
G37*
G36*
X18650D02*
X17919Y185051D01*
X17238Y184769D01*
X16653Y184320D01*
X16204Y183735D01*
X15922Y183054D01*
X15826Y182323D01*
X15922Y181592D01*
X16204Y180911D01*
X16653Y180326D01*
X17238Y179877D01*
X17919Y179595D01*
X18650Y179499D01*
X19381Y179595D01*
X20062Y179877D01*
X20647Y180326D01*
X21096Y180911D01*
X21378Y181592D01*
X21474Y182323D01*
X21378Y183054D01*
X21096Y183735D01*
X20647Y184320D01*
X20062Y184769D01*
X19381Y185051D01*
X18650Y185147D01*
D02*
G37*
G36*
X192794Y181154D02*
X192170Y181030D01*
X191640Y180676D01*
X191287Y180147D01*
X191163Y179523D01*
X191287Y178899D01*
X191640Y178369D01*
X192170Y178016D01*
X192794Y177892D01*
X193418Y178016D01*
X193948Y178369D01*
X194301Y178899D01*
X194425Y179523D01*
X194301Y180147D01*
X193948Y180676D01*
X193418Y181030D01*
X192794Y181154D01*
D02*
G37*
G36*
X198994Y178954D02*
X198370Y178830D01*
X197840Y178476D01*
X197487Y177947D01*
X197363Y177323D01*
X197487Y176699D01*
X197840Y176169D01*
X198370Y175816D01*
X198994Y175691D01*
X199618Y175816D01*
X200148Y176169D01*
X200501Y176699D01*
X200625Y177323D01*
X200501Y177947D01*
X200148Y178476D01*
X199618Y178830D01*
X198994Y178954D01*
D02*
G37*
G36*
X122257Y174371D02*
X119791D01*
Y172103D01*
X122257D01*
Y174371D01*
D02*
G37*
G36*
X118791D02*
X116326D01*
Y172103D01*
X118791D01*
Y174371D01*
D02*
G37*
G36*
X77178Y172887D02*
X75008D01*
Y171406D01*
X77178D01*
Y172887D01*
D02*
G37*
G36*
X197941Y175147D02*
X197210Y175051D01*
X196529Y174769D01*
X195944Y174320D01*
X195495Y173735D01*
X195213Y173054D01*
X195117Y172323D01*
X195213Y171592D01*
X195495Y170911D01*
X195944Y170326D01*
X196529Y169877D01*
X197210Y169595D01*
X197941Y169499D01*
X198672Y169595D01*
X199353Y169877D01*
X199938Y170326D01*
X200387Y170911D01*
X200669Y171592D01*
X200765Y172323D01*
X200669Y173054D01*
X200387Y173735D01*
X199938Y174320D01*
X199353Y174769D01*
X198672Y175051D01*
X197941Y175147D01*
D02*
G37*
G36*
X28650D02*
X27919Y175051D01*
X27238Y174769D01*
X26653Y174320D01*
X26204Y173735D01*
X25922Y173054D01*
X25826Y172323D01*
X25922Y171592D01*
X26204Y170911D01*
X26653Y170326D01*
X27238Y169877D01*
X27919Y169595D01*
X28650Y169499D01*
X29381Y169595D01*
X30062Y169877D01*
X30647Y170326D01*
X31096Y170911D01*
X31378Y171592D01*
X31474Y172323D01*
X31378Y173054D01*
X31096Y173735D01*
X30647Y174320D01*
X30062Y174769D01*
X29381Y175051D01*
X28650Y175147D01*
D02*
G37*
G36*
X18650D02*
X17919Y175051D01*
X17238Y174769D01*
X16653Y174320D01*
X16204Y173735D01*
X15922Y173054D01*
X15826Y172323D01*
X15922Y171592D01*
X16204Y170911D01*
X16653Y170326D01*
X17238Y169877D01*
X17919Y169595D01*
X18650Y169499D01*
X19381Y169595D01*
X20062Y169877D01*
X20647Y170326D01*
X21096Y170911D01*
X21378Y171592D01*
X21474Y172323D01*
X21378Y173054D01*
X21096Y173735D01*
X20647Y174320D01*
X20062Y174769D01*
X19381Y175051D01*
X18650Y175147D01*
D02*
G37*
G36*
X77178Y170406D02*
X75008D01*
Y168924D01*
X77178D01*
Y170406D01*
D02*
G37*
G36*
X74008D02*
X71838D01*
Y168924D01*
X74008D01*
Y170406D01*
D02*
G37*
G36*
X122257Y171103D02*
X119791D01*
Y168834D01*
X122257D01*
Y171103D01*
D02*
G37*
G36*
X118791D02*
X116326D01*
Y168834D01*
X118791D01*
Y171103D01*
D02*
G37*
G36*
X100233Y167556D02*
X97768D01*
Y165287D01*
X100233D01*
Y167556D01*
D02*
G37*
G36*
X96768D02*
X94302D01*
Y165287D01*
X96768D01*
Y167556D01*
D02*
G37*
G36*
X79234Y165258D02*
X78532Y165118D01*
X77936Y164721D01*
X77887Y164646D01*
X76978D01*
Y165206D01*
X72038D01*
Y161644D01*
X76978D01*
Y162199D01*
X77887D01*
X77936Y162125D01*
X78532Y161727D01*
X79234Y161588D01*
X79936Y161727D01*
X80532Y162125D01*
X80930Y162721D01*
X81069Y163423D01*
X80930Y164125D01*
X80532Y164721D01*
X79936Y165118D01*
X79234Y165258D01*
D02*
G37*
G36*
X150803Y163646D02*
X150101Y163506D01*
X149505Y163109D01*
X149108Y162513D01*
X148968Y161811D01*
X149108Y161109D01*
X149505Y160513D01*
X150101Y160115D01*
X150803Y159976D01*
X151505Y160115D01*
X152101Y160513D01*
X152499Y161109D01*
X152638Y161811D01*
X152499Y162513D01*
X152101Y163109D01*
X151505Y163506D01*
X150803Y163646D01*
D02*
G37*
G36*
X28650Y165147D02*
X27919Y165051D01*
X27238Y164769D01*
X26653Y164320D01*
X26204Y163735D01*
X25922Y163054D01*
X25826Y162323D01*
X25922Y161592D01*
X26204Y160911D01*
X26653Y160326D01*
X27238Y159877D01*
X27919Y159595D01*
X28650Y159499D01*
X29381Y159595D01*
X30062Y159877D01*
X30647Y160326D01*
X31096Y160911D01*
X31378Y161592D01*
X31474Y162323D01*
X31378Y163054D01*
X31096Y163735D01*
X30647Y164320D01*
X30062Y164769D01*
X29381Y165051D01*
X28650Y165147D01*
D02*
G37*
G36*
X18650D02*
X17919Y165051D01*
X17238Y164769D01*
X16653Y164320D01*
X16204Y163735D01*
X15922Y163054D01*
X15826Y162323D01*
X15922Y161592D01*
X16204Y160911D01*
X16653Y160326D01*
X17238Y159877D01*
X17919Y159595D01*
X18650Y159499D01*
X19381Y159595D01*
X20062Y159877D01*
X20647Y160326D01*
X21096Y160911D01*
X21378Y161592D01*
X21474Y162323D01*
X21378Y163054D01*
X21096Y163735D01*
X20647Y164320D01*
X20062Y164769D01*
X19381Y165051D01*
X18650Y165147D01*
D02*
G37*
G36*
X57827Y161200D02*
X56906D01*
Y158165D01*
X61730D01*
X61724Y158209D01*
X61321Y159183D01*
X60680Y160018D01*
X59844Y160659D01*
X58871Y161062D01*
X57827Y161200D01*
D02*
G37*
G36*
X54905D02*
X53984D01*
X52940Y161062D01*
X51967Y160659D01*
X51131Y160018D01*
X50490Y159183D01*
X50087Y158209D01*
X50081Y158165D01*
X54905D01*
Y161200D01*
D02*
G37*
G36*
X122257Y158898D02*
X119791D01*
Y156630D01*
X122257D01*
Y158898D01*
D02*
G37*
G36*
X118791D02*
X116326D01*
Y156630D01*
X118791D01*
Y158898D01*
D02*
G37*
G36*
X100209Y155474D02*
X97744D01*
Y153205D01*
X100209D01*
Y155474D01*
D02*
G37*
G36*
X61730Y156165D02*
X56906D01*
Y153131D01*
X57827D01*
X58871Y153268D01*
X59844Y153671D01*
X60680Y154312D01*
X61321Y155148D01*
X61724Y156121D01*
X61730Y156165D01*
D02*
G37*
G36*
X54905D02*
X50081D01*
X50087Y156121D01*
X50490Y155148D01*
X51131Y154312D01*
X51967Y153671D01*
X52940Y153268D01*
X53984Y153131D01*
X54905D01*
Y156165D01*
D02*
G37*
G36*
X28650Y155147D02*
X27919Y155051D01*
X27238Y154769D01*
X26653Y154320D01*
X26204Y153735D01*
X25922Y153054D01*
X25826Y152323D01*
X25922Y151592D01*
X26204Y150911D01*
X26653Y150326D01*
X27238Y149877D01*
X27919Y149595D01*
X28650Y149499D01*
X29381Y149595D01*
X30062Y149877D01*
X30647Y150326D01*
X31096Y150911D01*
X31378Y151592D01*
X31474Y152323D01*
X31378Y153054D01*
X31096Y153735D01*
X30647Y154320D01*
X30062Y154769D01*
X29381Y155051D01*
X28650Y155147D01*
D02*
G37*
G36*
X18650D02*
X17919Y155051D01*
X17238Y154769D01*
X16653Y154320D01*
X16204Y153735D01*
X15922Y153054D01*
X15826Y152323D01*
X15922Y151592D01*
X16204Y150911D01*
X16653Y150326D01*
X17238Y149877D01*
X17919Y149595D01*
X18650Y149499D01*
X19381Y149595D01*
X20062Y149877D01*
X20647Y150326D01*
X21096Y150911D01*
X21378Y151592D01*
X21474Y152323D01*
X21378Y153054D01*
X21096Y153735D01*
X20647Y154320D01*
X20062Y154769D01*
X19381Y155051D01*
X18650Y155147D01*
D02*
G37*
G36*
X106177Y150356D02*
X103909D01*
Y147890D01*
X106177D01*
Y150356D01*
D02*
G37*
G36*
X114564D02*
X112295D01*
Y147890D01*
X114564D01*
Y150356D01*
D02*
G37*
G36*
X100209Y152205D02*
X97244D01*
X94279D01*
Y149937D01*
X97416D01*
Y146436D01*
X96816Y146051D01*
X96330Y146147D01*
X95589Y146000D01*
X94960Y145580D01*
X94540Y144951D01*
X94393Y144210D01*
X94540Y143469D01*
X94960Y142840D01*
X95589Y142420D01*
X96330Y142273D01*
X97071Y142420D01*
X97700Y142840D01*
X97804Y142996D01*
X98269Y143088D01*
X98662Y143352D01*
X99936Y144625D01*
X102553D01*
Y150155D01*
X100209D01*
Y152205D01*
D02*
G37*
G36*
X114564Y146890D02*
X112295D01*
Y144425D01*
X114564D01*
Y146890D01*
D02*
G37*
G36*
X111295Y150356D02*
X107177D01*
Y147390D01*
Y144425D01*
X111295D01*
Y147390D01*
Y150356D01*
D02*
G37*
G36*
X106177Y146890D02*
X103909D01*
Y144425D01*
X106177D01*
Y146890D01*
D02*
G37*
G36*
X197941Y145147D02*
X197210Y145051D01*
X196529Y144769D01*
X195944Y144320D01*
X195495Y143735D01*
X195213Y143054D01*
X195117Y142323D01*
X195213Y141592D01*
X195495Y140911D01*
X195944Y140326D01*
X196529Y139877D01*
X197210Y139595D01*
X197941Y139499D01*
X198672Y139595D01*
X199353Y139877D01*
X199938Y140326D01*
X200387Y140911D01*
X200669Y141592D01*
X200765Y142323D01*
X200669Y143054D01*
X200387Y143735D01*
X199938Y144320D01*
X199353Y144769D01*
X198672Y145051D01*
X197941Y145147D01*
D02*
G37*
G36*
X187941D02*
X187210Y145051D01*
X186529Y144769D01*
X185944Y144320D01*
X185495Y143735D01*
X185213Y143054D01*
X185117Y142323D01*
X185213Y141592D01*
X185495Y140911D01*
X185944Y140326D01*
X186529Y139877D01*
X187210Y139595D01*
X187941Y139499D01*
X188672Y139595D01*
X189353Y139877D01*
X189938Y140326D01*
X190387Y140911D01*
X190669Y141592D01*
X190765Y142323D01*
X190669Y143054D01*
X190387Y143735D01*
X189938Y144320D01*
X189353Y144769D01*
X188672Y145051D01*
X187941Y145147D01*
D02*
G37*
G36*
X28650D02*
X27919Y145051D01*
X27238Y144769D01*
X26653Y144320D01*
X26204Y143735D01*
X25922Y143054D01*
X25826Y142323D01*
X25922Y141592D01*
X26204Y140911D01*
X26653Y140326D01*
X27238Y139877D01*
X27919Y139595D01*
X28650Y139499D01*
X29381Y139595D01*
X30062Y139877D01*
X30647Y140326D01*
X31096Y140911D01*
X31378Y141592D01*
X31474Y142323D01*
X31378Y143054D01*
X31096Y143735D01*
X30647Y144320D01*
X30062Y144769D01*
X29381Y145051D01*
X28650Y145147D01*
D02*
G37*
G36*
X18650D02*
X17919Y145051D01*
X17238Y144769D01*
X16653Y144320D01*
X16204Y143735D01*
X15922Y143054D01*
X15826Y142323D01*
X15922Y141592D01*
X16204Y140911D01*
X16653Y140326D01*
X17238Y139877D01*
X17919Y139595D01*
X18650Y139499D01*
X19381Y139595D01*
X20062Y139877D01*
X20647Y140326D01*
X21096Y140911D01*
X21378Y141592D01*
X21474Y142323D01*
X21378Y143054D01*
X21096Y143735D01*
X20647Y144320D01*
X20062Y144769D01*
X19381Y145051D01*
X18650Y145147D01*
D02*
G37*
G36*
X150803Y140024D02*
X150101Y139885D01*
X149505Y139487D01*
X149108Y138891D01*
X148968Y138189D01*
X149108Y137487D01*
X149505Y136891D01*
X150101Y136494D01*
X150803Y136354D01*
X151505Y136494D01*
X152101Y136891D01*
X152499Y137487D01*
X152638Y138189D01*
X152499Y138891D01*
X152101Y139487D01*
X151505Y139885D01*
X150803Y140024D01*
D02*
G37*
G36*
X197941Y135147D02*
X197210Y135051D01*
X196529Y134769D01*
X195944Y134320D01*
X195495Y133735D01*
X195213Y133054D01*
X195117Y132323D01*
X195213Y131592D01*
X195495Y130911D01*
X195944Y130326D01*
X196529Y129877D01*
X197210Y129595D01*
X197941Y129499D01*
X198672Y129595D01*
X199353Y129877D01*
X199938Y130326D01*
X200387Y130911D01*
X200669Y131592D01*
X200765Y132323D01*
X200669Y133054D01*
X200387Y133735D01*
X199938Y134320D01*
X199353Y134769D01*
X198672Y135051D01*
X197941Y135147D01*
D02*
G37*
G36*
X187941D02*
X187210Y135051D01*
X186529Y134769D01*
X185944Y134320D01*
X185495Y133735D01*
X185213Y133054D01*
X185117Y132323D01*
X185213Y131592D01*
X185495Y130911D01*
X185944Y130326D01*
X186529Y129877D01*
X187210Y129595D01*
X187941Y129499D01*
X188672Y129595D01*
X189353Y129877D01*
X189938Y130326D01*
X190387Y130911D01*
X190669Y131592D01*
X190765Y132323D01*
X190669Y133054D01*
X190387Y133735D01*
X189938Y134320D01*
X189353Y134769D01*
X188672Y135051D01*
X187941Y135147D01*
D02*
G37*
G36*
X28650D02*
X27919Y135051D01*
X27238Y134769D01*
X26653Y134320D01*
X26204Y133735D01*
X25922Y133054D01*
X25826Y132323D01*
X25922Y131592D01*
X26204Y130911D01*
X26653Y130326D01*
X27238Y129877D01*
X27919Y129595D01*
X28650Y129499D01*
X29381Y129595D01*
X30062Y129877D01*
X30647Y130326D01*
X31096Y130911D01*
X31378Y131592D01*
X31474Y132323D01*
X31378Y133054D01*
X31096Y133735D01*
X30647Y134320D01*
X30062Y134769D01*
X29381Y135051D01*
X28650Y135147D01*
D02*
G37*
G36*
X18650D02*
X17919Y135051D01*
X17238Y134769D01*
X16653Y134320D01*
X16204Y133735D01*
X15922Y133054D01*
X15826Y132323D01*
X15922Y131592D01*
X16204Y130911D01*
X16653Y130326D01*
X17238Y129877D01*
X17919Y129595D01*
X18650Y129499D01*
X19381Y129595D01*
X20062Y129877D01*
X20647Y130326D01*
X21096Y130911D01*
X21378Y131592D01*
X21474Y132323D01*
X21378Y133054D01*
X21096Y133735D01*
X20647Y134320D01*
X20062Y134769D01*
X19381Y135051D01*
X18650Y135147D01*
D02*
G37*
G36*
X162563Y131357D02*
X161641D01*
Y128323D01*
X166465D01*
X166460Y128367D01*
X166057Y129340D01*
X165415Y130176D01*
X164580Y130817D01*
X163607Y131220D01*
X162563Y131357D01*
D02*
G37*
G36*
X159641D02*
X158720D01*
X157676Y131220D01*
X156703Y130817D01*
X155867Y130176D01*
X155226Y129340D01*
X154823Y128367D01*
X154817Y128323D01*
X159641D01*
Y131357D01*
D02*
G37*
G36*
X166465Y126323D02*
X161641D01*
Y123288D01*
X162563D01*
X163607Y123426D01*
X164580Y123829D01*
X165415Y124470D01*
X166057Y125306D01*
X166460Y126279D01*
X166465Y126323D01*
D02*
G37*
G36*
X159641D02*
X154817D01*
X154823Y126279D01*
X155226Y125306D01*
X155867Y124470D01*
X156703Y123829D01*
X157676Y123426D01*
X158720Y123288D01*
X159641D01*
Y126323D01*
D02*
G37*
G36*
X197941Y125147D02*
X197210Y125051D01*
X196529Y124769D01*
X195944Y124320D01*
X195495Y123735D01*
X195213Y123054D01*
X195117Y122323D01*
X195213Y121592D01*
X195495Y120911D01*
X195944Y120326D01*
X196529Y119877D01*
X197210Y119595D01*
X197941Y119499D01*
X198672Y119595D01*
X199353Y119877D01*
X199938Y120326D01*
X200387Y120911D01*
X200669Y121592D01*
X200765Y122323D01*
X200669Y123054D01*
X200387Y123735D01*
X199938Y124320D01*
X199353Y124769D01*
X198672Y125051D01*
X197941Y125147D01*
D02*
G37*
G36*
X187941D02*
X187210Y125051D01*
X186529Y124769D01*
X185944Y124320D01*
X185495Y123735D01*
X185213Y123054D01*
X185117Y122323D01*
X185213Y121592D01*
X185495Y120911D01*
X185944Y120326D01*
X186529Y119877D01*
X187210Y119595D01*
X187941Y119499D01*
X188672Y119595D01*
X189353Y119877D01*
X189938Y120326D01*
X190387Y120911D01*
X190669Y121592D01*
X190765Y122323D01*
X190669Y123054D01*
X190387Y123735D01*
X189938Y124320D01*
X189353Y124769D01*
X188672Y125051D01*
X187941Y125147D01*
D02*
G37*
G36*
X28650D02*
X27919Y125051D01*
X27238Y124769D01*
X26653Y124320D01*
X26204Y123735D01*
X25922Y123054D01*
X25826Y122323D01*
X25922Y121592D01*
X26204Y120911D01*
X26653Y120326D01*
X27238Y119877D01*
X27919Y119595D01*
X28650Y119499D01*
X29381Y119595D01*
X30062Y119877D01*
X30647Y120326D01*
X31096Y120911D01*
X31378Y121592D01*
X31474Y122323D01*
X31378Y123054D01*
X31096Y123735D01*
X30647Y124320D01*
X30062Y124769D01*
X29381Y125051D01*
X28650Y125147D01*
D02*
G37*
G36*
X17906Y128797D02*
X17281Y128672D01*
X16752Y128319D01*
X16398Y127789D01*
X16274Y127165D01*
X16398Y126541D01*
X16752Y126012D01*
X17281Y125658D01*
X17643Y125586D01*
X17705Y124962D01*
X17238Y124769D01*
X16653Y124320D01*
X16204Y123735D01*
X15922Y123054D01*
X15826Y122323D01*
X15922Y121592D01*
X16204Y120911D01*
X16653Y120326D01*
X17238Y119877D01*
X17919Y119595D01*
X18650Y119499D01*
X19381Y119595D01*
X20062Y119877D01*
X20647Y120326D01*
X21096Y120911D01*
X21378Y121592D01*
X21474Y122323D01*
X21378Y123054D01*
X21096Y123735D01*
X20647Y124320D01*
X20062Y124769D01*
X19381Y125051D01*
X18744Y125135D01*
X18738Y125150D01*
X18636Y125583D01*
X18631Y125726D01*
X19059Y126012D01*
X19413Y126541D01*
X19537Y127165D01*
X19413Y127789D01*
X19059Y128319D01*
X18530Y128672D01*
X17906Y128797D01*
D02*
G37*
G36*
X162563Y120954D02*
X158720D01*
X157780Y120830D01*
X156904Y120467D01*
X156152Y119890D01*
X155575Y119138D01*
X155213Y118263D01*
X155089Y117323D01*
X155213Y116383D01*
X155575Y115507D01*
X156152Y114755D01*
X156904Y114178D01*
X157780Y113816D01*
X158720Y113692D01*
X162563D01*
X163502Y113816D01*
X164378Y114178D01*
X165130Y114755D01*
X165707Y115507D01*
X166070Y116383D01*
X166194Y117323D01*
X166070Y118263D01*
X165707Y119138D01*
X165130Y119890D01*
X164378Y120467D01*
X163502Y120830D01*
X162563Y120954D01*
D02*
G37*
G36*
X197941Y115147D02*
X197210Y115051D01*
X196529Y114769D01*
X195944Y114320D01*
X195495Y113735D01*
X195213Y113054D01*
X195117Y112323D01*
X195213Y111592D01*
X195495Y110911D01*
X195944Y110326D01*
X196529Y109877D01*
X197210Y109595D01*
X197941Y109499D01*
X198672Y109595D01*
X199353Y109877D01*
X199938Y110326D01*
X200387Y110911D01*
X200669Y111592D01*
X200765Y112323D01*
X200669Y113054D01*
X200387Y113735D01*
X199938Y114320D01*
X199353Y114769D01*
X198672Y115051D01*
X197941Y115147D01*
D02*
G37*
G36*
X187941D02*
X187210Y115051D01*
X186529Y114769D01*
X185944Y114320D01*
X185495Y113735D01*
X185213Y113054D01*
X185117Y112323D01*
X185213Y111592D01*
X185495Y110911D01*
X185944Y110326D01*
X186529Y109877D01*
X187210Y109595D01*
X187941Y109499D01*
X188672Y109595D01*
X189353Y109877D01*
X189938Y110326D01*
X190387Y110911D01*
X190669Y111592D01*
X190765Y112323D01*
X190669Y113054D01*
X190387Y113735D01*
X189938Y114320D01*
X189353Y114769D01*
X188672Y115051D01*
X187941Y115147D01*
D02*
G37*
G36*
X28650D02*
X27919Y115051D01*
X27238Y114769D01*
X26653Y114320D01*
X26204Y113735D01*
X25922Y113054D01*
X25826Y112323D01*
X25922Y111592D01*
X26204Y110911D01*
X26653Y110326D01*
X27238Y109877D01*
X27919Y109595D01*
X28650Y109499D01*
X29381Y109595D01*
X30062Y109877D01*
X30647Y110326D01*
X31096Y110911D01*
X31378Y111592D01*
X31474Y112323D01*
X31378Y113054D01*
X31096Y113735D01*
X30647Y114320D01*
X30062Y114769D01*
X29381Y115051D01*
X28650Y115147D01*
D02*
G37*
G36*
X18650D02*
X17919Y115051D01*
X17238Y114769D01*
X16653Y114320D01*
X16204Y113735D01*
X15922Y113054D01*
X15826Y112323D01*
X15922Y111592D01*
X16204Y110911D01*
X16653Y110326D01*
X17238Y109877D01*
X17919Y109595D01*
X18650Y109499D01*
X19381Y109595D01*
X20062Y109877D01*
X20647Y110326D01*
X21096Y110911D01*
X21378Y111592D01*
X21474Y112323D01*
X21378Y113054D01*
X21096Y113735D01*
X20647Y114320D01*
X20062Y114769D01*
X19381Y115051D01*
X18650Y115147D01*
D02*
G37*
G36*
X162563Y110954D02*
X158720D01*
X157780Y110830D01*
X156904Y110468D01*
X156152Y109890D01*
X155575Y109138D01*
X155213Y108263D01*
X155089Y107323D01*
X155213Y106383D01*
X155575Y105507D01*
X156152Y104755D01*
X156904Y104178D01*
X157780Y103816D01*
X158720Y103692D01*
X162563D01*
X163502Y103816D01*
X164378Y104178D01*
X165130Y104755D01*
X165707Y105507D01*
X166070Y106383D01*
X166194Y107323D01*
X166070Y108263D01*
X165707Y109138D01*
X165130Y109890D01*
X164378Y110468D01*
X163502Y110830D01*
X162563Y110954D01*
D02*
G37*
G36*
X197941Y105147D02*
X197210Y105051D01*
X196529Y104769D01*
X195944Y104320D01*
X195495Y103735D01*
X195213Y103054D01*
X195117Y102323D01*
X195213Y101592D01*
X195495Y100911D01*
X195944Y100326D01*
X196529Y99877D01*
X197210Y99595D01*
X197941Y99499D01*
X198672Y99595D01*
X199353Y99877D01*
X199938Y100326D01*
X200387Y100911D01*
X200669Y101592D01*
X200765Y102323D01*
X200669Y103054D01*
X200387Y103735D01*
X199938Y104320D01*
X199353Y104769D01*
X198672Y105051D01*
X197941Y105147D01*
D02*
G37*
G36*
X187941D02*
X187210Y105051D01*
X186529Y104769D01*
X185944Y104320D01*
X185495Y103735D01*
X185213Y103054D01*
X185117Y102323D01*
X185213Y101592D01*
X185495Y100911D01*
X185944Y100326D01*
X186529Y99877D01*
X187210Y99595D01*
X187941Y99499D01*
X188672Y99595D01*
X189353Y99877D01*
X189938Y100326D01*
X190387Y100911D01*
X190669Y101592D01*
X190765Y102323D01*
X190669Y103054D01*
X190387Y103735D01*
X189938Y104320D01*
X189353Y104769D01*
X188672Y105051D01*
X187941Y105147D01*
D02*
G37*
G36*
X28650D02*
X27919Y105051D01*
X27238Y104769D01*
X26653Y104320D01*
X26204Y103735D01*
X25922Y103054D01*
X25826Y102323D01*
X25922Y101592D01*
X26204Y100911D01*
X26653Y100326D01*
X27238Y99877D01*
X27919Y99595D01*
X28650Y99499D01*
X29381Y99595D01*
X30062Y99877D01*
X30647Y100326D01*
X31096Y100911D01*
X31378Y101592D01*
X31474Y102323D01*
X31378Y103054D01*
X31096Y103735D01*
X30647Y104320D01*
X30062Y104769D01*
X29381Y105051D01*
X28650Y105147D01*
D02*
G37*
G36*
X18650D02*
X17919Y105051D01*
X17238Y104769D01*
X16653Y104320D01*
X16204Y103735D01*
X15922Y103054D01*
X15826Y102323D01*
X15922Y101592D01*
X16204Y100911D01*
X16653Y100326D01*
X17238Y99877D01*
X17919Y99595D01*
X18650Y99499D01*
X19381Y99595D01*
X20062Y99877D01*
X20647Y100326D01*
X21096Y100911D01*
X21378Y101592D01*
X21474Y102323D01*
X21378Y103054D01*
X21096Y103735D01*
X20647Y104320D01*
X20062Y104769D01*
X19381Y105051D01*
X18650Y105147D01*
D02*
G37*
G36*
X174685Y93994D02*
X174060Y93869D01*
X173531Y93516D01*
X173177Y92987D01*
X173053Y92362D01*
X173177Y91738D01*
X173531Y91209D01*
X174060Y90855D01*
X174685Y90731D01*
X175309Y90855D01*
X175838Y91209D01*
X176192Y91738D01*
X176316Y92362D01*
X176192Y92987D01*
X175838Y93516D01*
X175309Y93869D01*
X174685Y93994D01*
D02*
G37*
G36*
X197941Y95147D02*
X197210Y95051D01*
X196529Y94769D01*
X195944Y94320D01*
X195495Y93735D01*
X195213Y93054D01*
X195117Y92323D01*
X195213Y91592D01*
X195495Y90911D01*
X195944Y90326D01*
X196529Y89877D01*
X197210Y89595D01*
X197941Y89499D01*
X198672Y89595D01*
X199353Y89877D01*
X199938Y90326D01*
X200387Y90911D01*
X200669Y91592D01*
X200765Y92323D01*
X200669Y93054D01*
X200387Y93735D01*
X199938Y94320D01*
X199353Y94769D01*
X198672Y95051D01*
X197941Y95147D01*
D02*
G37*
G36*
X187941D02*
X187210Y95051D01*
X186529Y94769D01*
X185944Y94320D01*
X185495Y93735D01*
X185213Y93054D01*
X185117Y92323D01*
X185213Y91592D01*
X185495Y90911D01*
X185944Y90326D01*
X186529Y89877D01*
X187210Y89595D01*
X187941Y89499D01*
X188672Y89595D01*
X189353Y89877D01*
X189938Y90326D01*
X190387Y90911D01*
X190669Y91592D01*
X190765Y92323D01*
X190669Y93054D01*
X190387Y93735D01*
X189938Y94320D01*
X189353Y94769D01*
X188672Y95051D01*
X187941Y95147D01*
D02*
G37*
G36*
X28650D02*
X27919Y95051D01*
X27238Y94769D01*
X26653Y94320D01*
X26204Y93735D01*
X25922Y93054D01*
X25826Y92323D01*
X25922Y91592D01*
X26204Y90911D01*
X26653Y90326D01*
X27238Y89877D01*
X27919Y89595D01*
X28650Y89499D01*
X29381Y89595D01*
X30062Y89877D01*
X30647Y90326D01*
X31096Y90911D01*
X31378Y91592D01*
X31474Y92323D01*
X31378Y93054D01*
X31096Y93735D01*
X30647Y94320D01*
X30062Y94769D01*
X29381Y95051D01*
X28650Y95147D01*
D02*
G37*
G36*
X18650D02*
X17919Y95051D01*
X17238Y94769D01*
X16653Y94320D01*
X16204Y93735D01*
X15922Y93054D01*
X15826Y92323D01*
X15922Y91592D01*
X16204Y90911D01*
X16653Y90326D01*
X17238Y89877D01*
X17919Y89595D01*
X18650Y89499D01*
X19381Y89595D01*
X20062Y89877D01*
X20647Y90326D01*
X21096Y90911D01*
X21378Y91592D01*
X21474Y92323D01*
X21378Y93054D01*
X21096Y93735D01*
X20647Y94320D01*
X20062Y94769D01*
X19381Y95051D01*
X18650Y95147D01*
D02*
G37*
G36*
X23185Y89994D02*
X22560Y89869D01*
X22031Y89516D01*
X21677Y88986D01*
X21553Y88362D01*
X21677Y87738D01*
X22031Y87209D01*
X22560Y86855D01*
X23185Y86731D01*
X23809Y86855D01*
X24338Y87209D01*
X24692Y87738D01*
X24816Y88362D01*
X24692Y88986D01*
X24338Y89516D01*
X23809Y89869D01*
X23185Y89994D01*
D02*
G37*
G36*
X63885Y85677D02*
X63260Y85553D01*
X62731Y85199D01*
X62438D01*
X61909Y85553D01*
X61285Y85677D01*
X60660Y85553D01*
X60131Y85199D01*
X59838D01*
X59309Y85553D01*
X58685Y85677D01*
X58060Y85553D01*
X57531Y85199D01*
X57177Y84670D01*
X57053Y84046D01*
X57177Y83421D01*
X57531Y82892D01*
X58060Y82539D01*
X58636Y82424D01*
X58865Y82195D01*
Y23089D01*
X56969Y21193D01*
X56495Y21390D01*
X55722Y21492D01*
X54949Y21390D01*
X54228Y21091D01*
X53609Y20617D01*
X53135Y19998D01*
X52836Y19277D01*
X52734Y18504D01*
X52836Y17731D01*
X53135Y17010D01*
X53609Y16391D01*
X54228Y15917D01*
X54949Y15618D01*
X55722Y15516D01*
X56495Y15618D01*
X57215Y15917D01*
X57834Y16391D01*
X58309Y17010D01*
X58608Y17731D01*
X58709Y18504D01*
X58608Y19277D01*
X58411Y19751D01*
X60303Y21644D01*
X60909Y21512D01*
X60971Y21463D01*
X61164Y21174D01*
X62586Y19751D01*
X62390Y19277D01*
X62288Y18504D01*
X62390Y17731D01*
X62688Y17010D01*
X63163Y16391D01*
X63782Y15917D01*
X64502Y15618D01*
X65276Y15516D01*
X66049Y15618D01*
X66769Y15917D01*
X67388Y16391D01*
X67863Y17010D01*
X68161Y17731D01*
X68263Y18504D01*
X68161Y19277D01*
X67863Y19998D01*
X67388Y20617D01*
X66769Y21091D01*
X66049Y21390D01*
X65276Y21492D01*
X64502Y21390D01*
X64028Y21193D01*
X62904Y22317D01*
Y25652D01*
X63504Y25901D01*
X71622Y17783D01*
X71953Y17562D01*
X72019Y17549D01*
X72242Y17010D01*
X72717Y16391D01*
X73336Y15917D01*
X74056Y15618D01*
X74829Y15516D01*
X75603Y15618D01*
X76323Y15917D01*
X76942Y16391D01*
X77417Y17010D01*
X77715Y17731D01*
X77817Y18504D01*
X77715Y19277D01*
X77417Y19998D01*
X76942Y20617D01*
X76323Y21091D01*
X75603Y21390D01*
X74829Y21492D01*
X74056Y21390D01*
X73336Y21091D01*
X72717Y20617D01*
X72540Y20386D01*
X71942Y20347D01*
X67215Y25074D01*
X67268Y25180D01*
Y31496D01*
Y37320D01*
X67223Y37314D01*
X66250Y36911D01*
X65504Y36339D01*
X64904Y36494D01*
Y82803D01*
X65038Y82892D01*
X65392Y83421D01*
X65516Y84046D01*
X65392Y84670D01*
X65038Y85199D01*
X64509Y85553D01*
X63885Y85677D01*
D02*
G37*
G36*
X153807Y85694D02*
X153105Y85554D01*
X152510Y85156D01*
X152112Y84561D01*
X151972Y83858D01*
X152112Y83156D01*
X152510Y82560D01*
X153105Y82163D01*
X153807Y82023D01*
X154510Y82163D01*
X155105Y82560D01*
X155503Y83156D01*
X155643Y83858D01*
X155503Y84561D01*
X155105Y85156D01*
X154510Y85554D01*
X153807Y85694D01*
D02*
G37*
G36*
X114241D02*
X113538Y85554D01*
X112943Y85156D01*
X112545Y84561D01*
X112405Y83858D01*
X112545Y83156D01*
X112943Y82560D01*
X113538Y82163D01*
X114241Y82023D01*
X114943Y82163D01*
X115538Y82560D01*
X115936Y83156D01*
X116076Y83858D01*
X115936Y84561D01*
X115538Y85156D01*
X114943Y85554D01*
X114241Y85694D01*
D02*
G37*
G36*
X101162D02*
X100459Y85554D01*
X99864Y85156D01*
X99466Y84561D01*
X99326Y83858D01*
X99466Y83156D01*
X99864Y82560D01*
X100459Y82163D01*
X101162Y82023D01*
X101864Y82163D01*
X102459Y82560D01*
X102857Y83156D01*
X102997Y83858D01*
X102857Y84561D01*
X102459Y85156D01*
X101864Y85554D01*
X101162Y85694D01*
D02*
G37*
G36*
X174685Y83994D02*
X174060Y83869D01*
X173531Y83516D01*
X173177Y82986D01*
X173053Y82362D01*
X173177Y81738D01*
X173531Y81209D01*
X174060Y80855D01*
X174685Y80731D01*
X175309Y80855D01*
X175838Y81209D01*
X176192Y81738D01*
X176316Y82362D01*
X176192Y82986D01*
X175838Y83516D01*
X175309Y83869D01*
X174685Y83994D01*
D02*
G37*
G36*
X197941Y85147D02*
X197210Y85051D01*
X196529Y84769D01*
X195944Y84320D01*
X195495Y83735D01*
X195213Y83054D01*
X195117Y82323D01*
X195213Y81592D01*
X195495Y80911D01*
X195944Y80326D01*
X196529Y79877D01*
X197210Y79595D01*
X197941Y79499D01*
X198672Y79595D01*
X199353Y79877D01*
X199938Y80326D01*
X200387Y80911D01*
X200669Y81592D01*
X200765Y82323D01*
X200669Y83054D01*
X200387Y83735D01*
X199938Y84320D01*
X199353Y84769D01*
X198672Y85051D01*
X197941Y85147D01*
D02*
G37*
G36*
X187941D02*
X187210Y85051D01*
X186529Y84769D01*
X185944Y84320D01*
X185495Y83735D01*
X185213Y83054D01*
X185117Y82323D01*
X185213Y81592D01*
X185495Y80911D01*
X185944Y80326D01*
X186529Y79877D01*
X187210Y79595D01*
X187941Y79499D01*
X188672Y79595D01*
X189353Y79877D01*
X189938Y80326D01*
X190387Y80911D01*
X190669Y81592D01*
X190765Y82323D01*
X190669Y83054D01*
X190387Y83735D01*
X189938Y84320D01*
X189353Y84769D01*
X188672Y85051D01*
X187941Y85147D01*
D02*
G37*
G36*
X28650D02*
X27919Y85051D01*
X27238Y84769D01*
X26653Y84320D01*
X26204Y83735D01*
X25922Y83054D01*
X25826Y82323D01*
X25922Y81592D01*
X26204Y80911D01*
X26653Y80326D01*
X27238Y79877D01*
X27919Y79595D01*
X28650Y79499D01*
X29381Y79595D01*
X30062Y79877D01*
X30647Y80326D01*
X31096Y80911D01*
X31378Y81592D01*
X31474Y82323D01*
X31378Y83054D01*
X31096Y83735D01*
X30647Y84320D01*
X30062Y84769D01*
X29381Y85051D01*
X28650Y85147D01*
D02*
G37*
G36*
X18650D02*
X17919Y85051D01*
X17238Y84769D01*
X16653Y84320D01*
X16204Y83735D01*
X15922Y83054D01*
X15826Y82323D01*
X15922Y81592D01*
X16204Y80911D01*
X16653Y80326D01*
X17238Y79877D01*
X17919Y79595D01*
X18650Y79499D01*
X19381Y79595D01*
X20062Y79877D01*
X20647Y80326D01*
X21096Y80911D01*
X21378Y81592D01*
X21474Y82323D01*
X21378Y83054D01*
X21096Y83735D01*
X20647Y84320D01*
X20062Y84769D01*
X19381Y85051D01*
X18650Y85147D01*
D02*
G37*
G36*
X23185Y80494D02*
X22560Y80369D01*
X22031Y80016D01*
X21677Y79487D01*
X21553Y78862D01*
X21677Y78238D01*
X22031Y77709D01*
X22560Y77355D01*
X23185Y77231D01*
X23809Y77355D01*
X24338Y77709D01*
X24692Y78238D01*
X24816Y78862D01*
X24692Y79487D01*
X24338Y80016D01*
X23809Y80369D01*
X23185Y80494D01*
D02*
G37*
G36*
X195185Y78494D02*
X194560Y78369D01*
X194031Y78016D01*
X193677Y77486D01*
X193553Y76862D01*
X193677Y76238D01*
X194031Y75709D01*
X194560Y75355D01*
X195185Y75231D01*
X195809Y75355D01*
X196338Y75709D01*
X196692Y76238D01*
X196816Y76862D01*
X196692Y77486D01*
X196338Y78016D01*
X195809Y78369D01*
X195185Y78494D01*
D02*
G37*
G36*
X197941Y75147D02*
X197210Y75051D01*
X196529Y74769D01*
X195944Y74320D01*
X195495Y73735D01*
X195213Y73054D01*
X195117Y72323D01*
X195213Y71592D01*
X195248Y71509D01*
X194789Y71050D01*
X194025Y71366D01*
X192941Y71509D01*
X191858Y71366D01*
X191094Y71050D01*
X190635Y71509D01*
X190669Y71592D01*
X190765Y72323D01*
X190669Y73054D01*
X190387Y73735D01*
X189938Y74320D01*
X189353Y74769D01*
X188672Y75051D01*
X187941Y75147D01*
X187210Y75051D01*
X186529Y74769D01*
X185944Y74320D01*
X185495Y73735D01*
X185213Y73054D01*
X185117Y72323D01*
X185213Y71592D01*
X185495Y70911D01*
X185944Y70326D01*
X186529Y69877D01*
X187210Y69595D01*
X187941Y69499D01*
X188672Y69595D01*
X188755Y69629D01*
X189215Y69170D01*
X188898Y68406D01*
X188755Y67323D01*
X188898Y66240D01*
X189215Y65476D01*
X188755Y65016D01*
X188672Y65051D01*
X187941Y65147D01*
X187210Y65051D01*
X186529Y64769D01*
X185944Y64320D01*
X185495Y63735D01*
X185213Y63054D01*
X185117Y62323D01*
X185213Y61592D01*
X185495Y60911D01*
X185944Y60326D01*
X186529Y59877D01*
X187210Y59595D01*
X187941Y59499D01*
X188672Y59595D01*
X189353Y59877D01*
X189938Y60326D01*
X190387Y60911D01*
X190669Y61592D01*
X190765Y62323D01*
X190669Y63054D01*
X190635Y63137D01*
X191094Y63596D01*
X191858Y63280D01*
X192941Y63137D01*
X194025Y63280D01*
X194789Y63596D01*
X195248Y63137D01*
X195213Y63054D01*
X195117Y62323D01*
X195213Y61592D01*
X195495Y60911D01*
X195944Y60326D01*
X196529Y59877D01*
X197210Y59595D01*
X197941Y59499D01*
X198672Y59595D01*
X199353Y59877D01*
X199938Y60326D01*
X200387Y60911D01*
X200669Y61592D01*
X200765Y62323D01*
X200669Y63054D01*
X200387Y63735D01*
X199938Y64320D01*
X199353Y64769D01*
X198672Y65051D01*
X197941Y65147D01*
X197210Y65051D01*
X197127Y65016D01*
X196668Y65476D01*
X196984Y66240D01*
X197127Y67323D01*
X196984Y68406D01*
X196668Y69170D01*
X197127Y69629D01*
X197210Y69595D01*
X197941Y69499D01*
X198672Y69595D01*
X199353Y69877D01*
X199938Y70326D01*
X200387Y70911D01*
X200669Y71592D01*
X200765Y72323D01*
X200669Y73054D01*
X200387Y73735D01*
X199938Y74320D01*
X199353Y74769D01*
X198672Y75051D01*
X197941Y75147D01*
D02*
G37*
G36*
X28650D02*
X27919Y75051D01*
X27238Y74769D01*
X26653Y74320D01*
X26204Y73735D01*
X25922Y73054D01*
X25826Y72323D01*
X25922Y71592D01*
X25956Y71509D01*
X25497Y71050D01*
X24733Y71366D01*
X23650Y71509D01*
X22567Y71366D01*
X21803Y71050D01*
X21344Y71509D01*
X21378Y71592D01*
X21474Y72323D01*
X21378Y73054D01*
X21096Y73735D01*
X20647Y74320D01*
X20062Y74769D01*
X19381Y75051D01*
X18650Y75147D01*
X17919Y75051D01*
X17238Y74769D01*
X16653Y74320D01*
X16204Y73735D01*
X15922Y73054D01*
X15826Y72323D01*
X15922Y71592D01*
X16204Y70911D01*
X16653Y70326D01*
X17238Y69877D01*
X17919Y69595D01*
X18650Y69499D01*
X19381Y69595D01*
X19464Y69629D01*
X19923Y69170D01*
X19607Y68406D01*
X19464Y67323D01*
X19607Y66240D01*
X19923Y65476D01*
X19464Y65016D01*
X19381Y65051D01*
X18650Y65147D01*
X17919Y65051D01*
X17238Y64769D01*
X16653Y64320D01*
X16204Y63735D01*
X15922Y63054D01*
X15826Y62323D01*
X15922Y61592D01*
X16204Y60911D01*
X16653Y60326D01*
X17238Y59877D01*
X17919Y59595D01*
X18650Y59499D01*
X19381Y59595D01*
X20062Y59877D01*
X20647Y60326D01*
X21096Y60911D01*
X21378Y61592D01*
X21474Y62323D01*
X21378Y63054D01*
X21344Y63137D01*
X21803Y63596D01*
X22567Y63280D01*
X23650Y63137D01*
X24733Y63280D01*
X25497Y63596D01*
X25956Y63137D01*
X25922Y63054D01*
X25826Y62323D01*
X25922Y61592D01*
X26204Y60911D01*
X26653Y60326D01*
X27238Y59877D01*
X27919Y59595D01*
X28650Y59499D01*
X29381Y59595D01*
X30062Y59877D01*
X30647Y60326D01*
X31096Y60911D01*
X31378Y61592D01*
X31474Y62323D01*
X31378Y63054D01*
X31096Y63735D01*
X30647Y64320D01*
X30062Y64769D01*
X29381Y65051D01*
X28650Y65147D01*
X27919Y65051D01*
X27836Y65016D01*
X27377Y65476D01*
X27693Y66240D01*
X27836Y67323D01*
X27693Y68406D01*
X27377Y69170D01*
X27836Y69629D01*
X27919Y69595D01*
X28650Y69499D01*
X29381Y69595D01*
X30062Y69877D01*
X30647Y70326D01*
X31096Y70911D01*
X31378Y71592D01*
X31474Y72323D01*
X31378Y73054D01*
X31096Y73735D01*
X30647Y74320D01*
X30062Y74769D01*
X29381Y75051D01*
X28650Y75147D01*
D02*
G37*
G36*
X44185Y73994D02*
X43560Y73869D01*
X43031Y73516D01*
X42677Y72987D01*
X42553Y72362D01*
X42677Y71738D01*
X43031Y71209D01*
X43560Y70855D01*
X44185Y70731D01*
X44809Y70855D01*
X45338Y71209D01*
X45692Y71738D01*
X45816Y72362D01*
X45692Y72987D01*
X45338Y73516D01*
X44809Y73869D01*
X44185Y73994D01*
D02*
G37*
G36*
X11350Y59493D02*
X10541Y59387D01*
X9787Y59074D01*
X9139Y58577D01*
X8642Y57930D01*
X8330Y57176D01*
X8223Y56366D01*
X8330Y55557D01*
X8642Y54803D01*
X9139Y54156D01*
X9787Y53659D01*
X10541Y53346D01*
X11350Y53240D01*
X12159Y53346D01*
X12913Y53659D01*
X13561Y54156D01*
X14058Y54803D01*
X14370Y55557D01*
X14477Y56366D01*
X14370Y57176D01*
X14058Y57930D01*
X13561Y58577D01*
X12913Y59074D01*
X12159Y59387D01*
X11350Y59493D01*
D02*
G37*
G36*
X187008Y54702D02*
X186199Y54595D01*
X185444Y54283D01*
X184797Y53786D01*
X184300Y53138D01*
X183988Y52384D01*
X183881Y51575D01*
X183988Y50766D01*
X184300Y50011D01*
X184797Y49364D01*
X185444Y48867D01*
X186199Y48555D01*
X187008Y48448D01*
X187817Y48555D01*
X188571Y48867D01*
X189219Y49364D01*
X189716Y50011D01*
X190028Y50766D01*
X190135Y51575D01*
X190028Y52384D01*
X189716Y53138D01*
X189219Y53786D01*
X188571Y54283D01*
X187817Y54595D01*
X187008Y54702D01*
D02*
G37*
G36*
X203008Y48576D02*
X201537D01*
Y44883D01*
X205229D01*
Y46355D01*
X203008Y48576D01*
D02*
G37*
G36*
X200037D02*
X198566D01*
X196346Y46355D01*
Y44883D01*
X200037D01*
Y48576D01*
D02*
G37*
G36*
X205229Y43383D02*
X201537D01*
Y39692D01*
X203008D01*
X205229Y41913D01*
Y43383D01*
D02*
G37*
G36*
X200037D02*
X196346D01*
Y41913D01*
X198566Y39692D01*
X200037D01*
Y43383D01*
D02*
G37*
G36*
X10789Y38888D02*
X9318D01*
Y35196D01*
X13010D01*
Y36667D01*
X10789Y38888D01*
D02*
G37*
G36*
X7818D02*
X6347D01*
X4126Y36667D01*
Y35196D01*
X7818D01*
Y38888D01*
D02*
G37*
G36*
X39370Y38754D02*
X38796Y38679D01*
X38261Y38457D01*
X37801Y38104D01*
X37448Y37645D01*
X37227Y37110D01*
X37196Y36879D01*
X35749Y35432D01*
X35484Y35035D01*
X35391Y34567D01*
Y21203D01*
X35120Y21091D01*
X34502Y20617D01*
X34027Y19998D01*
X33728Y19277D01*
X33627Y18504D01*
X33728Y17731D01*
X34027Y17010D01*
X34502Y16391D01*
X35120Y15917D01*
X35841Y15618D01*
X36614Y15516D01*
X37387Y15618D01*
X38108Y15917D01*
X38727Y16391D01*
X39202Y17010D01*
X39500Y17731D01*
X39602Y18504D01*
X39500Y19277D01*
X39202Y19998D01*
X38727Y20617D01*
X38108Y21091D01*
X37838Y21203D01*
Y34060D01*
X38353Y34575D01*
X38796Y34392D01*
X39370Y34316D01*
X39944Y34392D01*
X40480Y34614D01*
X40939Y34966D01*
X41292Y35426D01*
X41513Y35961D01*
X41589Y36535D01*
X41513Y37110D01*
X41292Y37645D01*
X40939Y38104D01*
X40480Y38457D01*
X39944Y38679D01*
X39370Y38754D01*
D02*
G37*
G36*
X169267Y37320D02*
Y32496D01*
X172302D01*
Y33417D01*
X172165Y34462D01*
X171762Y35435D01*
X171121Y36270D01*
X170285Y36911D01*
X169312Y37314D01*
X169267Y37320D01*
D02*
G37*
G36*
X167267Y37320D02*
X167223Y37314D01*
X166250Y36911D01*
X165415Y36270D01*
X164774Y35435D01*
X164371Y34462D01*
X164233Y33417D01*
Y32496D01*
X167267D01*
Y37320D01*
D02*
G37*
G36*
X69268Y37320D02*
Y32496D01*
X72302D01*
Y33417D01*
X72165Y34462D01*
X71762Y35435D01*
X71121Y36270D01*
X70285Y36911D01*
X69312Y37314D01*
X69268Y37320D01*
D02*
G37*
G36*
X87268D02*
X87223Y37314D01*
X86250Y36911D01*
X85415Y36270D01*
X84774Y35435D01*
X84371Y34462D01*
X84233Y33417D01*
Y32496D01*
X87268D01*
Y37320D01*
D02*
G37*
G36*
X13010Y33696D02*
X9318D01*
Y30004D01*
X10789D01*
X13010Y32225D01*
Y33696D01*
D02*
G37*
G36*
X7818D02*
X4126D01*
Y32225D01*
X6347Y30004D01*
X7818D01*
Y33696D01*
D02*
G37*
G36*
X181033Y42928D02*
X175502D01*
Y37791D01*
X177248D01*
Y36892D01*
X176452Y36562D01*
X175700Y35985D01*
X175123Y35233D01*
X174760Y34357D01*
X174637Y33417D01*
Y29575D01*
X174760Y28635D01*
X175123Y27759D01*
X175700Y27007D01*
X176452Y26430D01*
X177328Y26067D01*
X178268Y25944D01*
X179207Y26067D01*
X180083Y26430D01*
X180835Y27007D01*
X181412Y27759D01*
X181775Y28635D01*
X181899Y29575D01*
Y33417D01*
X181775Y34357D01*
X181412Y35233D01*
X180835Y35985D01*
X180083Y36562D01*
X179287Y36892D01*
Y37791D01*
X181033D01*
Y42928D01*
D02*
G37*
G36*
X78268Y37048D02*
X77328Y36925D01*
X76452Y36562D01*
X75700Y35985D01*
X75123Y35233D01*
X74760Y34357D01*
X74637Y33417D01*
Y29575D01*
X74760Y28635D01*
X75123Y27759D01*
X75700Y27007D01*
X76452Y26430D01*
X77328Y26067D01*
X78268Y25944D01*
X79207Y26067D01*
X80083Y26430D01*
X80835Y27007D01*
X81412Y27759D01*
X81775Y28635D01*
X81899Y29575D01*
Y33417D01*
X81775Y34357D01*
X81412Y35233D01*
X80835Y35985D01*
X80083Y36562D01*
X79207Y36925D01*
X78268Y37048D01*
D02*
G37*
G36*
X167267Y30496D02*
X164233D01*
Y29575D01*
X164371Y28531D01*
X164774Y27558D01*
X165415Y26722D01*
X166250Y26081D01*
X167223Y25678D01*
X167267Y25672D01*
Y30496D01*
D02*
G37*
G36*
X72302Y30496D02*
X69268D01*
Y25672D01*
X69312Y25678D01*
X70285Y26081D01*
X71121Y26722D01*
X71762Y27558D01*
X72165Y28531D01*
X72302Y29575D01*
Y30496D01*
D02*
G37*
G36*
X127268D02*
X124233D01*
Y29575D01*
X124371Y28531D01*
X124774Y27558D01*
X125415Y26722D01*
X126250Y26081D01*
X127223Y25678D01*
X127268Y25672D01*
Y30496D01*
D02*
G37*
G36*
X87268D02*
X84233D01*
Y29575D01*
X84371Y28531D01*
X84774Y27558D01*
X85415Y26722D01*
X86250Y26081D01*
X87223Y25678D01*
X87268Y25672D01*
Y30496D01*
D02*
G37*
G36*
X172302Y30496D02*
X169267D01*
Y25672D01*
X169312Y25678D01*
X170285Y26081D01*
X171121Y26722D01*
X171762Y27558D01*
X172165Y28531D01*
X172302Y29575D01*
Y30496D01*
D02*
G37*
G36*
X48085Y27081D02*
X47510Y27006D01*
X46975Y26784D01*
X46516Y26431D01*
X46163Y25972D01*
X45941Y25436D01*
X45866Y24862D01*
X45922Y24430D01*
X45303Y23811D01*
X45038Y23414D01*
X44945Y22946D01*
Y21203D01*
X44674Y21091D01*
X44056Y20617D01*
X43581Y19998D01*
X43282Y19277D01*
X43180Y18504D01*
X43282Y17731D01*
X43581Y17010D01*
X44056Y16391D01*
X44674Y15917D01*
X45395Y15618D01*
X46168Y15516D01*
X46941Y15618D01*
X47662Y15917D01*
X48281Y16391D01*
X48755Y17010D01*
X49054Y17731D01*
X49156Y18504D01*
X49054Y19277D01*
X48755Y19998D01*
X48281Y20617D01*
X47662Y21091D01*
X47392Y21203D01*
Y22211D01*
X47897Y22668D01*
X48085Y22643D01*
X48659Y22719D01*
X49194Y22941D01*
X49654Y23293D01*
X50006Y23753D01*
X50228Y24288D01*
X50304Y24862D01*
X50228Y25436D01*
X50006Y25972D01*
X49654Y26431D01*
X49194Y26784D01*
X48659Y27006D01*
X48085Y27081D01*
D02*
G37*
G36*
X180421Y21627D02*
Y19004D01*
X183045D01*
X183002Y19329D01*
X182683Y20099D01*
X182176Y20759D01*
X181516Y21266D01*
X180747Y21585D01*
X180421Y21627D01*
D02*
G37*
G36*
X179421Y21627D02*
X179096Y21585D01*
X178327Y21266D01*
X177666Y20759D01*
X177159Y20099D01*
X176841Y19329D01*
X176798Y19004D01*
X179421D01*
Y21627D01*
D02*
G37*
G36*
X201787Y29212D02*
Y16748D01*
X214251D01*
X214201Y17514D01*
X213855Y19250D01*
X213287Y20925D01*
X212504Y22512D01*
X211521Y23984D01*
X210354Y25315D01*
X209023Y26481D01*
X207552Y27465D01*
X205965Y28247D01*
X204289Y28816D01*
X202553Y29161D01*
X201787Y29212D01*
D02*
G37*
G36*
X199787D02*
X199022Y29161D01*
X197286Y28816D01*
X195610Y28247D01*
X194023Y27465D01*
X192552Y26481D01*
X191221Y25315D01*
X190054Y23984D01*
X189071Y22512D01*
X188288Y20925D01*
X187720Y19250D01*
X187374Y17514D01*
X187324Y16748D01*
X199787D01*
Y29212D01*
D02*
G37*
G36*
X16748D02*
Y16748D01*
X29212D01*
X29161Y17514D01*
X28816Y19250D01*
X28247Y20925D01*
X27465Y22512D01*
X26481Y23984D01*
X25315Y25315D01*
X23984Y26481D01*
X22512Y27465D01*
X20925Y28247D01*
X19250Y28816D01*
X17514Y29161D01*
X16748Y29212D01*
D02*
G37*
G36*
X14748D02*
X13982Y29161D01*
X12246Y28816D01*
X10571Y28247D01*
X8984Y27465D01*
X7512Y26481D01*
X6182Y25315D01*
X5015Y23984D01*
X4032Y22512D01*
X3249Y20925D01*
X2680Y19250D01*
X2335Y17514D01*
X2285Y16748D01*
X14748D01*
Y29212D01*
D02*
G37*
G36*
X183045Y18004D02*
X180421D01*
Y15381D01*
X180747Y15423D01*
X181516Y15742D01*
X182176Y16249D01*
X182683Y16909D01*
X183002Y17679D01*
X183045Y18004D01*
D02*
G37*
G36*
X179421D02*
X176798D01*
X176841Y17679D01*
X177159Y16909D01*
X177666Y16249D01*
X178327Y15742D01*
X179096Y15423D01*
X179421Y15381D01*
Y18004D01*
D02*
G37*
G36*
X214251Y14748D02*
X201787D01*
Y2285D01*
X202553Y2335D01*
X204289Y2680D01*
X205965Y3249D01*
X207552Y4032D01*
X209023Y5015D01*
X210354Y6182D01*
X211521Y7512D01*
X212504Y8984D01*
X213287Y10571D01*
X213855Y12246D01*
X214201Y13982D01*
X214251Y14748D01*
D02*
G37*
G36*
X199787D02*
X187324D01*
X187374Y13982D01*
X187720Y12246D01*
X188288Y10571D01*
X189071Y8984D01*
X190054Y7512D01*
X191221Y6182D01*
X192552Y5015D01*
X194023Y4032D01*
X195610Y3249D01*
X197286Y2680D01*
X199022Y2335D01*
X199787Y2285D01*
Y14748D01*
D02*
G37*
G36*
X29212D02*
X16748D01*
Y2285D01*
X17514Y2335D01*
X19250Y2680D01*
X20925Y3249D01*
X22512Y4032D01*
X23984Y5015D01*
X25315Y6182D01*
X26481Y7512D01*
X27465Y8984D01*
X28247Y10571D01*
X28816Y12246D01*
X29161Y13982D01*
X29212Y14748D01*
D02*
G37*
G36*
X14748D02*
X2285D01*
X2335Y13982D01*
X2680Y12246D01*
X3249Y10571D01*
X4032Y8984D01*
X5015Y7512D01*
X6182Y6182D01*
X7512Y5015D01*
X8984Y4032D01*
X10571Y3249D01*
X12246Y2680D01*
X13982Y2335D01*
X14748Y2285D01*
Y14748D01*
D02*
G37*
%LPD*%
G36*
X99039Y313567D02*
X99664Y313443D01*
X100139Y313537D01*
X100739Y313202D01*
Y312550D01*
X104594D01*
X105596Y311548D01*
X105366Y310994D01*
X100739D01*
Y305876D01*
X100739D01*
Y301787D01*
X99937Y300985D01*
X99383Y301215D01*
Y302610D01*
X97114D01*
Y300145D01*
X98320D01*
X98414Y300068D01*
X98527Y299472D01*
X97145Y298090D01*
X92841D01*
X92021Y298910D01*
X91690Y299131D01*
X91300Y299209D01*
X89279D01*
X89265Y299218D01*
X88839Y299303D01*
X88536D01*
X88307Y299857D01*
X88795Y300345D01*
X92490D01*
Y305857D01*
X93846D01*
Y303610D01*
X99383D01*
Y306076D01*
X98395D01*
Y310994D01*
X94884D01*
Y311335D01*
X94806Y311726D01*
X94657Y311950D01*
X94845Y312550D01*
X98395D01*
Y313276D01*
X98995Y313597D01*
X99039Y313567D01*
D02*
G37*
%LPC*%
G36*
X96114Y302610D02*
X93846D01*
Y300145D01*
X96114D01*
Y302610D01*
D02*
G37*
%LPD*%
G36*
X150719Y313395D02*
X150739Y313376D01*
Y312550D01*
X154594D01*
X155596Y311548D01*
X155366Y310994D01*
X150739D01*
Y305876D01*
X150739D01*
Y301787D01*
X149937Y300985D01*
X149383Y301215D01*
Y302610D01*
X147114D01*
Y300145D01*
X148320D01*
X148414Y300068D01*
X148527Y299472D01*
X147144Y298090D01*
X142841D01*
X142021Y298910D01*
X141690Y299131D01*
X141300Y299209D01*
X139278D01*
X139265Y299218D01*
X138839Y299303D01*
X138536D01*
X138307Y299857D01*
X138795Y300345D01*
X142490D01*
Y305857D01*
X143846D01*
Y303610D01*
X149383D01*
Y306076D01*
X148395D01*
Y310994D01*
X144884D01*
Y311335D01*
X144807Y311726D01*
X144657Y311950D01*
X144845Y312550D01*
X148395D01*
Y312850D01*
X148995Y313326D01*
X149173Y313290D01*
X149797Y313414D01*
X150139Y313642D01*
X150719Y313395D01*
D02*
G37*
%LPC*%
G36*
X146114Y302610D02*
X143846D01*
Y300145D01*
X146114D01*
Y302610D01*
D02*
G37*
%LPD*%
G36*
X150719Y272213D02*
X150739Y272195D01*
Y271369D01*
X154594D01*
X155596Y270367D01*
X155366Y269813D01*
X150739D01*
Y264676D01*
Y260503D01*
X149937Y259701D01*
X149383Y259931D01*
Y261429D01*
X147114D01*
Y258964D01*
X148416D01*
X148645Y258410D01*
X147144Y256909D01*
X142841D01*
X142021Y257729D01*
X142021Y257729D01*
X142021Y257729D01*
X141823Y257861D01*
X141690Y257950D01*
X141690Y257950D01*
X141690Y257950D01*
X141474Y257993D01*
X141300Y258028D01*
X141300Y258028D01*
X141300Y258028D01*
X139278D01*
X139265Y258037D01*
X138839Y258121D01*
X138536D01*
X138307Y258676D01*
X138795Y259164D01*
X142490D01*
Y264676D01*
X142883D01*
Y264676D01*
X143846D01*
Y262429D01*
X149383D01*
Y264895D01*
X148395D01*
Y269813D01*
X144884D01*
Y270154D01*
X144807Y270545D01*
X144657Y270768D01*
X144845Y271369D01*
X148395D01*
Y271669D01*
X148995Y272144D01*
X149173Y272109D01*
X149797Y272233D01*
X150138Y272461D01*
X150719Y272213D01*
D02*
G37*
G36*
X137333Y272214D02*
X137353Y272195D01*
Y271369D01*
X141208D01*
X142210Y270367D01*
X141980Y269813D01*
X137353D01*
Y264676D01*
X137353D01*
Y260606D01*
X136551Y259804D01*
X135997Y260034D01*
Y261429D01*
X133729D01*
Y258964D01*
X134927D01*
X135065Y258630D01*
X135123Y258364D01*
X134926Y258070D01*
X134849Y257680D01*
Y253974D01*
X134849Y253974D01*
X134849Y253974D01*
X134891Y253761D01*
X134926Y253584D01*
X134926Y253584D01*
X134926Y253584D01*
X135050Y253399D01*
X135148Y253253D01*
X135148Y253253D01*
X135148Y253253D01*
X136051Y252350D01*
X136239Y251775D01*
X136243Y251607D01*
X136243Y251602D01*
X138150D01*
Y250602D01*
X136243D01*
X136243Y250598D01*
X136529Y250171D01*
X136957Y249885D01*
X137461Y249785D01*
X137981D01*
X138211Y249231D01*
X129009Y240029D01*
X128788Y239698D01*
X128711Y239308D01*
Y220431D01*
X128436Y220244D01*
X128129Y220164D01*
X126563Y221730D01*
Y249885D01*
X126667Y249989D01*
X127028D01*
X127454Y250074D01*
X127815Y250315D01*
X128056Y250676D01*
X128141Y251102D01*
X128072Y251451D01*
X128079Y251568D01*
X128391Y252107D01*
X128500Y252129D01*
X128831Y252350D01*
X129815Y253334D01*
X130036Y253665D01*
X130114Y254055D01*
Y258386D01*
X130088Y258518D01*
X130425Y258870D01*
X130578Y258964D01*
X130578Y258964D01*
X132729D01*
Y261929D01*
X133229D01*
Y262429D01*
X135997D01*
Y264895D01*
X135009D01*
Y269813D01*
X131498D01*
Y270154D01*
X131421Y270545D01*
X131271Y270768D01*
X131459Y271369D01*
X135009D01*
Y271669D01*
X135609Y272144D01*
X135787Y272109D01*
X136411Y272233D01*
X136753Y272461D01*
X137333Y272214D01*
D02*
G37*
G36*
X100719Y272214D02*
X100739Y272195D01*
Y271369D01*
X104594D01*
X105596Y270367D01*
X105366Y269813D01*
X100739D01*
Y264676D01*
X100739D01*
Y264395D01*
X100739D01*
Y260503D01*
X99937Y259701D01*
X99383Y259931D01*
Y261429D01*
X97114D01*
Y258964D01*
X98416D01*
X98645Y258410D01*
X97145Y256909D01*
X92841D01*
X92021Y257729D01*
X92021Y257729D01*
X92021Y257729D01*
X91823Y257861D01*
X91690Y257950D01*
X91690Y257950D01*
X91690Y257950D01*
X91474Y257993D01*
X91300Y258028D01*
X91300Y258028D01*
X91300Y258028D01*
X89279D01*
X89265Y258037D01*
X88839Y258121D01*
X88536D01*
X88307Y258676D01*
X88795Y259164D01*
X92490D01*
Y264676D01*
X92883D01*
Y264676D01*
X93846D01*
Y262429D01*
X99383D01*
Y264895D01*
X98395D01*
Y269813D01*
X94884D01*
Y270154D01*
X94806Y270545D01*
X94657Y270768D01*
X94845Y271369D01*
X98395D01*
Y271669D01*
X98995Y272144D01*
X99173Y272109D01*
X99797Y272233D01*
X100138Y272461D01*
X100719Y272214D01*
D02*
G37*
G36*
X87333Y272214D02*
X87353Y272195D01*
Y271369D01*
X91208D01*
X92210Y270367D01*
X91980Y269813D01*
X87353D01*
Y264676D01*
X87353D01*
Y260606D01*
X86551Y259804D01*
X85997Y260034D01*
Y261429D01*
X83728D01*
Y258964D01*
X84927D01*
X85065Y258630D01*
X85123Y258364D01*
X84926Y258070D01*
X84849Y257680D01*
Y253974D01*
X84849Y253974D01*
X84849Y253974D01*
X84891Y253761D01*
X84926Y253584D01*
X84926Y253584D01*
X84926Y253584D01*
X85050Y253399D01*
X85148Y253253D01*
X85148Y253253D01*
X85148Y253253D01*
X86051Y252350D01*
X86239Y251775D01*
X86243Y251607D01*
X86243Y251602D01*
X88150D01*
Y251102D01*
X88650D01*
Y249785D01*
X88839D01*
X89278Y249872D01*
X89404Y249844D01*
X89878Y249521D01*
Y194588D01*
X84964Y189673D01*
X84904Y189584D01*
X84304Y189766D01*
Y241269D01*
X84227Y241659D01*
X84005Y241990D01*
X77358Y248638D01*
Y250055D01*
X77454Y250074D01*
X77815Y250315D01*
X78056Y250676D01*
X78141Y251102D01*
X78072Y251451D01*
X78079Y251568D01*
X78391Y252107D01*
X78500Y252129D01*
X78831Y252350D01*
X79815Y253334D01*
X80036Y253665D01*
X80114Y254055D01*
Y258386D01*
X80088Y258518D01*
X80425Y258870D01*
X80577Y258964D01*
X80578Y258964D01*
X82728D01*
Y261929D01*
X83228D01*
Y262429D01*
X85997D01*
Y264895D01*
X85009D01*
Y269813D01*
X81498D01*
Y270154D01*
X81421Y270545D01*
X81271Y270768D01*
X81459Y271369D01*
X85009D01*
Y271669D01*
X85609Y272144D01*
X85787Y272109D01*
X86411Y272233D01*
X86753Y272461D01*
X87333Y272214D01*
D02*
G37*
G36*
X114130Y204769D02*
X114014Y204189D01*
X114154Y203487D01*
X114552Y202891D01*
X115117Y202514D01*
X115151Y202480D01*
X114856Y201882D01*
X105885D01*
X105494Y201804D01*
X105273Y201656D01*
X105085Y201694D01*
X104575Y201592D01*
X104294Y201929D01*
X104221Y202087D01*
X107504Y205369D01*
X113807D01*
X114130Y204769D01*
D02*
G37*
G36*
X149083Y186013D02*
X148968Y185433D01*
X149097Y184782D01*
X149080Y184634D01*
X148838Y184182D01*
X145397D01*
X143520Y186059D01*
X143749Y186614D01*
X148760D01*
X149083Y186013D01*
D02*
G37*
G36*
X174903Y178902D02*
X174674Y178347D01*
X163064D01*
X162653Y178947D01*
X162716Y179262D01*
X162592Y179886D01*
X162238Y180416D01*
X161709Y180769D01*
X161084Y180894D01*
X160926Y180862D01*
X160200Y181588D01*
X160430Y182143D01*
X171662D01*
X174903Y178902D01*
D02*
G37*
G36*
X159485Y179420D02*
X159453Y179262D01*
X159529Y178882D01*
X159149Y178282D01*
X147337D01*
X145431Y180188D01*
X145660Y180743D01*
X158162D01*
X159485Y179420D01*
D02*
G37*
G36*
X139574Y169159D02*
Y164868D01*
X139020Y164639D01*
X138494Y165165D01*
X138525Y165323D01*
X138401Y165947D01*
X138048Y166476D01*
X137518Y166830D01*
X137103Y166913D01*
X136869Y167472D01*
X136866Y167525D01*
X137115Y167773D01*
X137336Y168104D01*
X137414Y168494D01*
Y170471D01*
X138014Y170720D01*
X139574Y169159D01*
D02*
G37*
G36*
X188070Y165735D02*
X188006Y165444D01*
X187825Y165132D01*
X187210Y165051D01*
X186529Y164769D01*
X185944Y164320D01*
X185495Y163735D01*
X185213Y163054D01*
X185140Y162497D01*
X184698Y162279D01*
X184527Y162262D01*
X183804Y162985D01*
Y169217D01*
X184359Y169446D01*
X188070Y165735D01*
D02*
G37*
G36*
X151248Y52248D02*
Y36378D01*
X150648Y36128D01*
X150083Y36562D01*
X149207Y36925D01*
X148268Y37048D01*
X147328Y36925D01*
X146452Y36562D01*
X145700Y35985D01*
X145514Y35742D01*
X144914Y35945D01*
Y57798D01*
X145468Y58028D01*
X151248Y52248D01*
D02*
G37*
G36*
X141474Y58062D02*
Y36137D01*
X140874Y35934D01*
X140835Y35985D01*
X140083Y36562D01*
X139207Y36925D01*
X138268Y37048D01*
X137328Y36925D01*
X136452Y36562D01*
X135700Y35985D01*
X135123Y35233D01*
X135014Y34969D01*
X134414Y35088D01*
Y64338D01*
X134968Y64568D01*
X141474Y58062D01*
D02*
G37*
G36*
X145700Y27007D02*
X146452Y26430D01*
X147328Y26067D01*
X148268Y25944D01*
X149207Y26067D01*
X149640Y26247D01*
X150240Y25846D01*
Y21288D01*
X149766Y21091D01*
X149147Y20617D01*
X148672Y19998D01*
X148374Y19277D01*
X148272Y18504D01*
X148340Y17992D01*
X147777Y17666D01*
X147514Y17867D01*
Y23348D01*
X147436Y23739D01*
X147215Y24069D01*
X144914Y26371D01*
Y27046D01*
X145514Y27250D01*
X145700Y27007D01*
D02*
G37*
%LPC*%
G36*
X146114Y261429D02*
X143846D01*
Y258964D01*
X146114D01*
Y261429D01*
D02*
G37*
G36*
X96114D02*
X93846D01*
Y258964D01*
X96114D01*
Y261429D01*
D02*
G37*
G36*
X87650Y250602D02*
X86243D01*
X86243Y250598D01*
X86529Y250171D01*
X86957Y249885D01*
X87461Y249785D01*
X87650D01*
Y250602D01*
D02*
G37*
%LPD*%
G36*
X27078Y227497D02*
X26849Y226942D01*
X19916D01*
X19094Y227765D01*
X19125Y227923D01*
X19001Y228547D01*
X18760Y228908D01*
X18924Y229443D01*
X19001Y229545D01*
X19381Y229595D01*
X20062Y229877D01*
X20647Y230326D01*
X21096Y230911D01*
X21378Y231592D01*
X21466Y232260D01*
X21647Y232382D01*
X22053Y232522D01*
X27078Y227497D01*
D02*
G37*
D22*
X95630Y308425D02*
D03*
Y315118D02*
D03*
X90118Y308425D02*
D03*
Y315118D02*
D03*
X178268Y47052D02*
D03*
Y40360D02*
D03*
X109016Y315118D02*
D03*
Y308425D02*
D03*
X159016Y315118D02*
D03*
Y308425D02*
D03*
X109016Y273937D02*
D03*
Y267244D02*
D03*
X159016Y273937D02*
D03*
Y267244D02*
D03*
X145630Y315118D02*
D03*
Y308425D02*
D03*
X95630Y273937D02*
D03*
Y267244D02*
D03*
X145630Y273937D02*
D03*
Y267244D02*
D03*
X82244Y315118D02*
D03*
Y308425D02*
D03*
X132244Y315118D02*
D03*
Y308425D02*
D03*
X82244Y273937D02*
D03*
Y267244D02*
D03*
X132244Y273937D02*
D03*
Y267244D02*
D03*
X76732Y315118D02*
D03*
Y308425D02*
D03*
X103504Y315118D02*
D03*
Y308425D02*
D03*
X126732Y315118D02*
D03*
Y308425D02*
D03*
X140118Y315118D02*
D03*
Y308425D02*
D03*
X153504Y315118D02*
D03*
Y308425D02*
D03*
X76732Y267244D02*
D03*
Y273937D02*
D03*
X90118Y267244D02*
D03*
Y273937D02*
D03*
X103504Y267244D02*
D03*
Y273937D02*
D03*
X126732Y267244D02*
D03*
Y273937D02*
D03*
X140118Y267244D02*
D03*
Y273937D02*
D03*
X153504Y267244D02*
D03*
Y273937D02*
D03*
X97244Y159398D02*
D03*
Y152705D02*
D03*
X97268Y171480D02*
D03*
Y164787D02*
D03*
X119291Y152705D02*
D03*
Y159398D02*
D03*
X97268Y176787D02*
D03*
Y183480D02*
D03*
X68071Y315118D02*
D03*
Y308425D02*
D03*
X118071Y315118D02*
D03*
Y308425D02*
D03*
X68071Y273937D02*
D03*
Y267244D02*
D03*
X118071Y273937D02*
D03*
Y267244D02*
D03*
X119291Y171603D02*
D03*
Y164910D02*
D03*
D23*
X89921Y261929D02*
D03*
X96614D02*
D03*
X139921D02*
D03*
X146614D02*
D03*
X76535D02*
D03*
X83228D02*
D03*
X126535D02*
D03*
X133228D02*
D03*
X113976Y188335D02*
D03*
X120669D02*
D03*
X108465D02*
D03*
X101772D02*
D03*
X118488Y147390D02*
D03*
X111795D02*
D03*
X99984D02*
D03*
X106677D02*
D03*
X103307Y303110D02*
D03*
X110000D02*
D03*
X153307D02*
D03*
X160000D02*
D03*
X89921D02*
D03*
X96614D02*
D03*
X139921D02*
D03*
X146614D02*
D03*
X76535D02*
D03*
X83228D02*
D03*
X126535D02*
D03*
X133228D02*
D03*
X103307Y261629D02*
D03*
X110000D02*
D03*
X153307Y261929D02*
D03*
X160000D02*
D03*
X63543Y296024D02*
D03*
X70236D02*
D03*
X113543D02*
D03*
X120236D02*
D03*
X113543Y254843D02*
D03*
X120236D02*
D03*
X63798D02*
D03*
X70491D02*
D03*
D24*
X64862Y167165D02*
D03*
X74508Y163425D02*
D03*
Y170905D02*
D03*
D67*
X118599Y146501D02*
X119488Y147390D01*
X95933Y158480D02*
X97268D01*
X97804Y144210D02*
X100984Y147390D01*
X92368Y156687D02*
X94140D01*
X109705Y189576D02*
Y195665D01*
X108465Y188335D02*
X109705Y189576D01*
X112205Y189713D02*
Y191878D01*
X119291Y164516D02*
X120669Y163138D01*
X94140Y156687D02*
X95933Y158480D01*
X120697Y151299D02*
X122863D01*
X119291Y152705D02*
X120697Y151299D01*
X95823Y175343D02*
X97268Y176787D01*
X112205Y189713D02*
X113583Y188335D01*
X96818Y171031D02*
X97268Y171480D01*
X92368Y156250D02*
Y156687D01*
X120669Y163138D02*
X124016D01*
X122863Y151299D02*
X124016Y150146D01*
X93477Y175343D02*
X95823D01*
X92268Y174134D02*
X92296Y174162D01*
X92268Y174134D02*
X93477Y175343D01*
X91462Y171031D02*
X96818D01*
X96330Y144210D02*
X97804D01*
X118599Y143862D02*
Y146501D01*
D68*
X153307Y261629D02*
Y261929D01*
X147567Y255889D02*
X153307Y261629D01*
X142418Y255889D02*
X147567D01*
X141300Y257008D02*
X142418Y255889D01*
X138150Y257008D02*
X141300D01*
X78481Y277702D02*
X83268Y282488D01*
X78481Y275489D02*
Y277702D01*
X76929Y273937D02*
X78481Y275489D01*
X128436Y277657D02*
X133268Y282488D01*
X128436Y275444D02*
Y277657D01*
X126929Y273937D02*
X128436Y275444D01*
X143268Y283524D02*
Y284409D01*
X141884Y282140D02*
X143268Y283524D01*
X141884Y275505D02*
Y282140D01*
X141884Y324206D02*
X143268Y325591D01*
X141884Y316687D02*
Y324206D01*
X128391Y318793D02*
X133268Y323669D01*
X128391Y316777D02*
Y318793D01*
X126732Y315118D02*
X128391Y316777D01*
X140118Y315082D02*
X143865Y311335D01*
X140118Y315082D02*
Y315118D01*
X145433Y308425D02*
X145630D01*
X143865Y309994D02*
X145433Y308425D01*
X143865Y309994D02*
Y311335D01*
X140315Y315118D02*
X141884Y316687D01*
X153504Y315082D02*
X157250Y311335D01*
X153504Y315082D02*
Y315118D01*
X126732Y315082D02*
Y315118D01*
Y315082D02*
X130479Y311335D01*
X103268Y315318D02*
X107250Y311335D01*
X90118Y315082D02*
X93865Y311335D01*
X90118Y315082D02*
Y315118D01*
X76732Y315082D02*
X80479Y311335D01*
X76732Y315082D02*
Y315118D01*
X76732Y273901D02*
X80479Y270154D01*
X76732Y273901D02*
Y273937D01*
X90118Y273901D02*
X93865Y270154D01*
X90118Y273901D02*
Y273937D01*
X103504Y273901D02*
X107250Y270154D01*
X103504Y273901D02*
Y273937D01*
X126732Y273901D02*
X130479Y270154D01*
X126732Y273901D02*
Y273937D01*
X140118Y273901D02*
X143865Y270154D01*
X140118Y273901D02*
Y273937D01*
X153504Y273901D02*
X157250Y270154D01*
X153504Y273901D02*
Y273937D01*
X93268Y322262D02*
Y325591D01*
Y281081D02*
Y284409D01*
X82047Y267244D02*
X82244D01*
X80479Y268813D02*
X82047Y267244D01*
X80479Y268813D02*
Y270154D01*
X83268Y282488D02*
Y284409D01*
X95433Y267244D02*
X95630D01*
X93865Y268813D02*
X95433Y267244D01*
X93865Y268813D02*
Y270154D01*
X90315Y273937D02*
X91884Y275505D01*
Y279697D01*
X93268Y281081D01*
X108819Y267244D02*
X109016D01*
X107250Y268813D02*
X108819Y267244D01*
X107250Y268813D02*
Y270154D01*
X103268Y274173D02*
X103504Y273937D01*
X103268Y274173D02*
Y284409D01*
X132047Y267244D02*
X132244D01*
X130479Y268813D02*
X132047Y267244D01*
X130479Y268813D02*
Y270154D01*
X133268Y282488D02*
Y284409D01*
X145433Y267244D02*
X145630D01*
X143865Y268813D02*
X145433Y267244D01*
X143865Y268813D02*
Y270154D01*
X140315Y273937D02*
X141884Y275505D01*
X157250Y268813D02*
Y270154D01*
X158819Y267244D02*
X159016D01*
X153268Y274173D02*
Y284409D01*
X157250Y268813D02*
X158819Y267244D01*
X153268Y274173D02*
X153504Y273937D01*
X158819Y308425D02*
X159016D01*
X157250Y309994D02*
X158819Y308425D01*
X157250Y309994D02*
Y311335D01*
X153268Y315354D02*
X153504Y315118D01*
X153268Y315354D02*
Y325591D01*
X132047Y308425D02*
X132244D01*
X130479Y309994D02*
X132047Y308425D01*
X130479Y309994D02*
Y311335D01*
X133268Y323669D02*
Y325591D01*
X103268Y315318D02*
Y325591D01*
X91884Y320878D02*
X93268Y322262D01*
X90315Y315118D02*
X91884Y316687D01*
X93865Y309994D02*
Y311335D01*
X108819Y308425D02*
X109016D01*
X107250Y309994D02*
X108819Y308425D01*
X107250Y309994D02*
Y311335D01*
X93865Y309994D02*
X95433Y308425D01*
X95630D01*
X91884Y316687D02*
Y320878D01*
X76929Y315118D02*
X79079Y317268D01*
Y319480D02*
X83268Y323669D01*
X79079Y317268D02*
Y319480D01*
X83268Y323669D02*
Y325591D01*
X76732Y315118D02*
X76929D01*
X80479Y309994D02*
X82047Y308425D01*
X80479Y309994D02*
Y311335D01*
X82047Y308425D02*
X82244D01*
X128862Y174331D02*
X132094Y171099D01*
X127062Y165613D02*
Y165631D01*
Y165613D02*
X129294Y163381D01*
X128762Y170131D02*
X130694Y168199D01*
X133494Y168423D02*
X134394Y169323D01*
X136394Y168494D02*
Y170953D01*
X134894Y166994D02*
X136394Y168494D01*
X104208Y197462D02*
X104437Y197692D01*
X108273Y198062D02*
X113783D01*
X106085Y195873D02*
X108273Y198062D01*
X104437Y197692D02*
X105923D01*
X105085Y200062D02*
X105885Y200862D01*
X115194Y193656D02*
Y193823D01*
X117194Y194484D02*
X118778Y192900D01*
X117194Y194484D02*
Y194651D01*
X113783Y198062D02*
X117194Y194651D01*
X119525Y194300D02*
X127897D01*
X114363Y199462D02*
X119525Y194300D01*
X117285Y199562D02*
X117585Y199262D01*
X120956Y198562D02*
X127595D01*
X121784Y195762D02*
Y196562D01*
X119185Y197162D02*
Y197469D01*
X118849Y199962D02*
X128175D01*
X116456Y201562D02*
X128555D01*
X118149Y199262D02*
X118849Y199962D01*
X117585Y199262D02*
X118149D01*
X106603Y194962D02*
Y195355D01*
X106085Y195873D02*
X106603Y195355D01*
X105885Y200862D02*
X115756D01*
X107693Y199462D02*
X114363D01*
X105923Y197692D02*
X107693Y199462D01*
X115756Y200862D02*
X116456Y201562D01*
X89754Y189061D02*
X107081Y206389D01*
X87753Y189041D02*
X106560Y207847D01*
X151260Y26910D02*
X152268Y27918D01*
X146335Y175862D02*
X151674D01*
X161978Y177328D02*
X175619D01*
X161913Y177262D02*
X161978Y177328D01*
X159203Y206389D02*
X170578Y217764D01*
X107081Y206389D02*
X159203D01*
X158539Y207847D02*
X175862Y225170D01*
X106560Y207847D02*
X158539D01*
X85685Y188952D02*
X90898Y194165D01*
X85685Y176862D02*
Y188952D01*
X119185Y197162D02*
X119185Y197162D01*
X115194Y193656D02*
X117349Y191500D01*
X127595Y198562D02*
X144395Y181762D01*
X144975Y183162D02*
X172084D01*
X128175Y199962D02*
X144975Y183162D01*
X144395Y181762D02*
X158584D01*
X148215Y170022D02*
X161985D01*
X148795Y171422D02*
X169425D01*
X146915Y177262D02*
X161913D01*
X128477Y195700D02*
X146915Y177262D01*
X127897Y194300D02*
X146335Y175862D01*
X127317Y192900D02*
X148795Y171422D01*
X126737Y191500D02*
X148215Y170022D01*
X117349Y191500D02*
X126737D01*
X152474Y175062D02*
X174584D01*
X118778Y192900D02*
X127317D01*
X121846Y195700D02*
X128477D01*
X142484Y187633D02*
X198814D01*
X128555Y201562D02*
X142484Y187633D01*
X90296Y296221D02*
X91294Y295223D01*
X88150Y296221D02*
X90296D01*
X76339Y292284D02*
X79155D01*
X74660Y296221D02*
X76339D01*
X73805Y295366D02*
X74660Y296221D01*
X132152Y18504D02*
X133394Y19746D01*
X149694Y14123D02*
X156432D01*
X146494Y17323D02*
X149694Y14123D01*
X146494Y17323D02*
Y23348D01*
X156432Y14123D02*
X160814Y18504D01*
X143894Y25948D02*
X146494Y23348D01*
X141706Y18504D02*
X142494Y19292D01*
X153894Y26723D02*
X157094Y23523D01*
X151260Y18504D02*
Y26910D01*
X157094Y23523D02*
X165348D01*
X170367Y18504D01*
X127198Y162649D02*
X127894Y161953D01*
X134284Y159432D02*
Y159903D01*
X64862Y167165D02*
X65551D01*
X83285Y175585D02*
X83494Y175376D01*
X87753Y178451D02*
Y189041D01*
X89754Y179279D02*
Y189061D01*
X80894Y176323D02*
Y178643D01*
X81885Y179634D01*
X178268Y31496D02*
Y40360D01*
X129730Y220316D02*
X130684Y219362D01*
X129730Y220316D02*
Y239308D01*
X123606Y292284D02*
X126339D01*
X123185Y291862D02*
X123606Y292284D01*
X124660Y296221D02*
X126339D01*
X123805Y295366D02*
X124660Y296221D01*
X129094Y295236D02*
Y299567D01*
X128110Y294252D02*
X129094Y295236D01*
X126339Y294252D02*
X128110D01*
X138150Y296221D02*
X140326D01*
X141684Y294862D01*
X142418Y297070D02*
X147567D01*
X141300Y298189D02*
X142418Y297070D01*
X138150Y298189D02*
X141300D01*
X129730Y239308D02*
X140331Y249908D01*
X72343Y18504D02*
X74829D01*
X63885Y26962D02*
X72343Y18504D01*
X96776Y45270D02*
Y125136D01*
X89167Y176680D02*
X89346Y176859D01*
X96776Y45270D02*
X122598Y19448D01*
Y18504D02*
Y19448D01*
X113045Y18504D02*
Y26277D01*
X103491Y18504D02*
Y33851D01*
X93937Y18504D02*
Y41090D01*
X92268Y25445D02*
Y40779D01*
X85326Y18504D02*
X92268Y25445D01*
X84383Y18504D02*
X85326D01*
X63885Y26962D02*
Y84046D01*
X178071Y47052D02*
X178268D01*
X129662Y178931D02*
X133224D01*
X132156Y176362D02*
X133813D01*
X130885Y176062D02*
X131114Y176292D01*
X132086D01*
X132156Y176362D01*
X172084Y183162D02*
X198185Y157062D01*
X175084Y156662D02*
Y156922D01*
X161985Y170022D02*
X175084Y156922D01*
X121784Y195762D02*
X121846Y195700D01*
X119185Y197162D02*
X119284Y197062D01*
X169425Y171422D02*
X174584Y166262D01*
X119284Y197062D02*
X119456D01*
X198814Y187633D02*
X199185Y187262D01*
X198584Y146762D02*
X199384D01*
X182784Y162562D02*
X198584Y146762D01*
X182784Y162562D02*
Y170162D01*
X158584Y181762D02*
X161084Y179262D01*
X198185Y157062D02*
X200184D01*
X175619Y177328D02*
X182784Y170162D01*
X151674Y175862D02*
X152474Y175062D01*
X199384Y146762D02*
X199884Y147262D01*
X76339Y248215D02*
Y251102D01*
X73698Y248875D02*
Y254171D01*
X140331Y249908D02*
Y253689D01*
X139365Y254563D02*
X139457D01*
X138889Y255039D02*
X139365Y254563D01*
X139457D02*
X140331Y253689D01*
X138150Y255039D02*
X138889D01*
X90898Y194165D02*
Y253985D01*
X79094Y254055D02*
Y258386D01*
X78110Y253071D02*
X79094Y254055D01*
X76339Y253071D02*
X78110D01*
X88150Y255039D02*
X89843D01*
X90898Y253985D01*
X88150Y257008D02*
X91300D01*
X175862Y225170D02*
X175862D01*
X178299Y227607D01*
X170578Y217764D02*
X199559D01*
X125543Y250307D02*
X126339Y251102D01*
X125543Y221308D02*
Y250307D01*
Y221308D02*
X131449Y215402D01*
X123698Y220324D02*
Y254171D01*
Y220324D02*
X132951Y211071D01*
X133024D01*
X129094Y254055D02*
Y258386D01*
X126535Y260945D02*
X129094Y258386D01*
X126535Y260945D02*
Y261929D01*
X76535Y260945D02*
Y261929D01*
Y260945D02*
X79094Y258386D01*
X126535Y302126D02*
Y303110D01*
Y302126D02*
X129094Y299567D01*
X89921Y302913D02*
Y303110D01*
X76535Y302126D02*
Y303110D01*
Y302126D02*
X79094Y299567D01*
Y295236D02*
Y299567D01*
X85868Y295155D02*
X86772Y294252D01*
X88150D01*
X136772Y253071D02*
X138150D01*
X135868Y253974D02*
X136772Y253071D01*
X86772D02*
X88150D01*
X85868Y253974D02*
X86772Y253071D01*
X136772Y294252D02*
X138150D01*
X135868Y295155D02*
X136772Y294252D01*
X97567Y297070D02*
X99653Y299156D01*
X92418Y297070D02*
X97567D01*
X91300Y257008D02*
X92418Y255889D01*
X97567D01*
X124567Y255039D02*
X126339D01*
X97567Y255889D02*
X103307Y261629D01*
X126339Y253071D02*
X128110D01*
X129094Y254055D01*
X135868Y253974D02*
Y257680D01*
X139921Y261732D01*
X123698Y254171D02*
X124567Y255039D01*
X85868Y253974D02*
Y257680D01*
X89921Y261732D01*
X103307Y261629D02*
Y261929D01*
X135868Y295155D02*
Y298861D01*
X139921Y302913D01*
X153307D02*
Y303110D01*
X149653Y299259D02*
X153307Y302913D01*
X149653Y299156D02*
Y299259D01*
X147567Y297070D02*
X149653Y299156D01*
X76339Y294252D02*
X78110D01*
X79094Y295236D01*
X85868Y295155D02*
Y298861D01*
X89921Y302913D01*
X88150Y298189D02*
X91300D01*
X92418Y297070D01*
X99653Y299156D02*
Y299259D01*
X103307Y302913D01*
Y303110D01*
X73698Y254171D02*
X74567Y255039D01*
X76339D01*
X88732Y176680D02*
X89167D01*
X89145Y174264D02*
X89968Y175086D01*
Y175086D01*
X92185Y177303D01*
Y186862D01*
X111741Y95362D02*
X122194Y105815D01*
X125805Y96965D02*
X127805Y94965D01*
X134049Y159668D02*
X134164Y159552D01*
X132984Y174362D02*
X136394Y170953D01*
X114184Y94977D02*
X123594Y104386D01*
X120224Y94862D02*
Y98184D01*
X124994Y102954D01*
X124106Y94965D02*
Y99465D01*
X125805Y96965D02*
Y98894D01*
X124106Y99465D02*
X126394Y101754D01*
X125805Y98894D02*
X127794Y100882D01*
X127805Y98065D02*
X129194Y99454D01*
X76339Y248215D02*
X83285Y241269D01*
X73698Y248875D02*
X81885Y240689D01*
X83285Y175585D02*
Y241269D01*
X81885Y179634D02*
Y240689D01*
X43716Y212676D02*
Y213383D01*
X19494Y225923D02*
X31176D01*
X43716Y213383D01*
X17494Y227923D02*
X19494Y225923D01*
X59885Y22667D02*
Y82611D01*
X55722Y18504D02*
X59885Y22667D01*
X58685Y83817D02*
X59885Y82617D01*
X44847Y214514D02*
X45554D01*
X31839Y227523D02*
X44847Y214514D01*
X17494Y237923D02*
X18094D01*
X28494Y227523D02*
X31839D01*
X18094Y237923D02*
X28494Y227523D01*
X61285Y84046D02*
X61885Y83446D01*
Y21895D02*
Y83446D01*
Y21895D02*
X65276Y18504D01*
X91176Y41870D02*
X92268Y40779D01*
X92576Y42450D02*
X93937Y41090D01*
X93976Y43365D02*
X103491Y33851D01*
X95376Y43945D02*
X113045Y26277D01*
X86595Y129762D02*
X91176Y125181D01*
X96776Y125136D02*
X97606Y125965D01*
X106685Y95362D02*
X111741D01*
X39370Y41653D02*
X50787Y53071D01*
X58685Y83817D02*
Y84046D01*
X95376Y43945D02*
Y126732D01*
X98406Y129762D01*
X92576Y42450D02*
Y127718D01*
X90532Y129762D02*
X92576Y127718D01*
X91176Y41870D02*
Y125181D01*
X105874Y134960D02*
X110630Y139717D01*
Y139945D01*
X71105Y186646D02*
X79106D01*
X69006Y184046D02*
X79106D01*
X42185Y95570D02*
X89145Y142531D01*
Y174264D01*
X50787Y53071D02*
Y102193D01*
X83555Y134960D01*
X105874D01*
X133813Y176362D02*
X140594Y169581D01*
X133224Y178931D02*
X141994Y170161D01*
X143894Y25948D02*
Y59064D01*
X133394Y19746D02*
Y65604D01*
X142494Y19292D02*
Y58484D01*
X130594Y68404D02*
X133394Y65604D01*
X131994Y68984D02*
X142494Y58484D01*
X133394Y69564D02*
X143894Y59064D01*
X152268Y27918D02*
Y52670D01*
X134794Y70144D02*
X152268Y52670D01*
X153894Y26723D02*
Y53024D01*
X136305Y70612D02*
X153894Y53024D01*
X137706Y71192D02*
X158661Y50236D01*
X174887D01*
X178071Y47052D01*
X87753Y178451D02*
X89346Y176859D01*
X134164Y158768D02*
Y159552D01*
X93976Y43365D02*
Y129762D01*
X97000Y152461D02*
X97244Y152705D01*
X97000Y148500D02*
Y152461D01*
X136894Y165323D02*
X139194Y163023D01*
X134894Y163631D02*
Y166994D01*
X133494Y163051D02*
Y168423D01*
X140494Y154675D02*
X141994Y156175D01*
Y170161D01*
X139094Y155255D02*
X140594Y156755D01*
Y169581D01*
X137694Y155835D02*
X139194Y157335D01*
Y163023D01*
X136294Y156414D02*
X137794Y157914D01*
Y160731D01*
X134894Y163631D02*
X137794Y160731D01*
X134894Y156994D02*
X136394Y158494D01*
Y160151D01*
X133494Y163051D02*
X136394Y160151D01*
X134284Y159432D02*
X134394Y159323D01*
X133494Y158098D02*
X134164Y158768D01*
X125894Y159823D02*
X126494Y159223D01*
X122194Y105815D02*
Y143604D01*
X123594Y104386D02*
Y143024D01*
X140494Y138368D02*
Y154675D01*
X137706Y71192D02*
Y135579D01*
X140494Y138368D01*
X136794Y137523D02*
X136884Y137432D01*
X126494Y147904D02*
Y159223D01*
X127894Y147324D02*
Y161953D01*
X129294Y146744D02*
Y163381D01*
X130694Y146164D02*
Y168199D01*
X132094Y145584D02*
Y171099D01*
X133494Y145005D02*
Y158098D01*
X134894Y144425D02*
Y156994D01*
X136294Y143845D02*
Y156414D01*
X137694Y143265D02*
Y155835D01*
X139094Y142685D02*
Y155255D01*
X134794Y70144D02*
Y138385D01*
X139094Y142685D01*
X133394Y69564D02*
Y138965D01*
X137694Y143265D01*
X131994Y68984D02*
Y139545D01*
X136294Y143845D01*
X130594Y68404D02*
Y140125D01*
X134894Y144425D01*
X129194Y99454D02*
Y140705D01*
X133494Y145005D01*
X127794Y100882D02*
Y141285D01*
X132094Y145584D01*
X126394Y101754D02*
Y141864D01*
X130694Y146164D01*
X124994Y102954D02*
Y142444D01*
X129294Y146744D01*
X123594Y143024D02*
X127894Y147324D01*
X122194Y143604D02*
X126494Y147904D01*
X136305Y70612D02*
Y136853D01*
X136884Y137432D01*
X119456Y197062D02*
X120956Y198562D01*
D70*
X118173Y293764D02*
X121705Y297295D01*
X71960Y253729D02*
Y256020D01*
X70039Y291299D02*
X70236Y291496D01*
X117905Y291565D02*
X118173Y291833D01*
X122402Y257008D02*
X126339D01*
X70236Y296024D02*
X72402Y298189D01*
X76339D01*
X76331Y257000D02*
X76339Y257008D01*
X120236Y254843D02*
X122402Y257008D01*
X70236Y291496D02*
Y296024D01*
X121705Y297295D02*
Y297689D01*
X122197Y298181D02*
X126331D01*
X126339Y298189D01*
X118173Y291833D02*
Y293764D01*
X71960Y256020D02*
X72940Y257000D01*
X76331D01*
X121705Y297689D02*
X122197Y298181D01*
D71*
X110000Y303110D02*
X113740D01*
X63543Y296024D02*
Y299764D01*
X113543Y292284D02*
Y296024D01*
X96614Y258189D02*
Y261929D01*
X110000Y261629D02*
X113740D01*
X160000Y261929D02*
X163740D01*
X153307D02*
Y267047D01*
X146614Y258189D02*
Y261929D01*
X83228Y258189D02*
Y261929D01*
X133228Y258189D02*
Y261929D01*
X145827Y314921D02*
X149173D01*
X145630Y315118D02*
X145827Y314921D01*
X132441D02*
X135787D01*
X132244Y315118D02*
X132441Y314921D01*
X95980Y315074D02*
X99664D01*
X95630Y315118D02*
X95827Y314921D01*
X95980Y315074D01*
X118268Y314921D02*
X121614D01*
X118071Y315118D02*
X118268Y314921D01*
X82244Y315118D02*
X82441Y314921D01*
X85787D01*
X109016Y273937D02*
X109213Y273740D01*
X112559D01*
X159016Y273937D02*
X159213Y273740D01*
X162559D01*
X82244Y273937D02*
X82441Y273740D01*
X85787D01*
X145630Y273937D02*
X145827Y273740D01*
X149173D01*
X109016Y315118D02*
X109213Y314921D01*
X112559D01*
X159016Y315118D02*
X159213Y314921D01*
X162559D01*
X95630Y273937D02*
X95827Y273740D01*
X99173D01*
X132244Y273937D02*
X132441Y273740D01*
X135787D01*
X114331Y309803D02*
X118071D01*
X114331Y268622D02*
X118071D01*
X64331Y309803D02*
X68071D01*
X64331Y268622D02*
X68071D01*
X55905Y167165D02*
X64862D01*
X118071Y273937D02*
X118268Y273740D01*
X121614D01*
X64528Y274134D02*
X67874D01*
X68071Y273937D01*
Y315118D02*
X68268Y315315D01*
X96614Y299370D02*
Y303110D01*
X83228Y299370D02*
Y303110D01*
X133228Y299370D02*
Y303110D01*
X146614Y299370D02*
Y303110D01*
X89921Y267047D02*
X90118Y267244D01*
X103307Y261929D02*
Y267047D01*
X68268Y315315D02*
Y318661D01*
X126535Y261929D02*
Y267047D01*
X126732Y267244D01*
X139921Y261929D02*
Y267047D01*
X76535Y261929D02*
Y267047D01*
X76732Y267244D01*
X89526D02*
X90118D01*
X89921Y261929D02*
Y267047D01*
X126535Y303110D02*
Y308228D01*
X139921Y303110D02*
Y308228D01*
X153469Y308391D02*
X153504Y308425D01*
X153307Y308228D02*
X153469Y308391D01*
X153307Y303110D02*
Y308228D01*
X76535Y303110D02*
Y308228D01*
X89921Y303110D02*
Y308030D01*
X103307Y303110D02*
Y308228D01*
X160000Y299370D02*
Y303110D01*
X46168Y18504D02*
Y22946D01*
X48085Y24862D01*
X75494Y163423D02*
X79234D01*
X77459Y179762D02*
X79185D01*
X38583Y36535D02*
X39370D01*
X36614Y34567D02*
X38583Y36535D01*
X36614Y18504D02*
Y34567D01*
X64862Y167165D02*
X77459Y179762D01*
X74508Y170905D02*
X77067Y168346D01*
X76378Y167657D02*
X77067Y168346D01*
X76378Y167559D02*
Y167657D01*
X63798Y251102D02*
Y254843D01*
X70491Y251102D02*
Y254843D01*
X120236Y251102D02*
Y254843D01*
X113543Y251102D02*
Y254843D01*
D72*
X56000Y318323D02*
X63268Y325591D01*
X56000Y291677D02*
Y318323D01*
Y291677D02*
X63268Y284409D01*
D74*
X178268Y31496D02*
D03*
X168268D02*
D03*
X83268Y325591D02*
D03*
X93268D02*
D03*
X103268D02*
D03*
X73268D02*
D03*
X63268D02*
D03*
X133268D02*
D03*
X143268D02*
D03*
X153268D02*
D03*
X123268D02*
D03*
X113268D02*
D03*
X83268Y284409D02*
D03*
X93268D02*
D03*
X103268D02*
D03*
X73268D02*
D03*
X63268D02*
D03*
X133268D02*
D03*
X143268D02*
D03*
X153268D02*
D03*
X123268D02*
D03*
X113268D02*
D03*
X138268Y31496D02*
D03*
X148268D02*
D03*
X158268D02*
D03*
X128268D02*
D03*
X118268D02*
D03*
X68268D02*
D03*
X78268D02*
D03*
X88268D02*
D03*
X98268D02*
D03*
D75*
X55905Y157165D02*
D03*
Y167165D02*
D03*
X160641Y127323D02*
D03*
Y117323D02*
D03*
Y107323D02*
D03*
D76*
X15748Y15748D02*
D03*
X200787D02*
D03*
Y318898D02*
D03*
X15748D02*
D03*
D77*
X28650Y272323D02*
D03*
Y262323D02*
D03*
Y252323D02*
D03*
Y242323D02*
D03*
Y232323D02*
D03*
Y222323D02*
D03*
Y212323D02*
D03*
Y202323D02*
D03*
Y192323D02*
D03*
Y182323D02*
D03*
Y172323D02*
D03*
Y162323D02*
D03*
Y152323D02*
D03*
Y142323D02*
D03*
Y132323D02*
D03*
Y122323D02*
D03*
Y112323D02*
D03*
Y102323D02*
D03*
Y92323D02*
D03*
Y82323D02*
D03*
Y72323D02*
D03*
Y62323D02*
D03*
X18650Y272323D02*
D03*
Y262323D02*
D03*
Y252323D02*
D03*
Y242323D02*
D03*
Y232323D02*
D03*
Y222323D02*
D03*
Y212323D02*
D03*
Y202323D02*
D03*
Y192323D02*
D03*
Y182323D02*
D03*
Y172323D02*
D03*
Y162323D02*
D03*
Y152323D02*
D03*
Y142323D02*
D03*
Y132323D02*
D03*
Y122323D02*
D03*
Y112323D02*
D03*
Y102323D02*
D03*
Y92323D02*
D03*
Y82323D02*
D03*
Y72323D02*
D03*
Y62323D02*
D03*
X197941Y272323D02*
D03*
Y262323D02*
D03*
Y252323D02*
D03*
Y242323D02*
D03*
Y232323D02*
D03*
Y222323D02*
D03*
Y212323D02*
D03*
Y202323D02*
D03*
Y192323D02*
D03*
Y182323D02*
D03*
Y172323D02*
D03*
Y162323D02*
D03*
Y152323D02*
D03*
Y142323D02*
D03*
Y132323D02*
D03*
Y122323D02*
D03*
Y112323D02*
D03*
Y102323D02*
D03*
Y92323D02*
D03*
Y82323D02*
D03*
Y72323D02*
D03*
Y62323D02*
D03*
X187941Y272323D02*
D03*
Y262323D02*
D03*
Y252323D02*
D03*
Y242323D02*
D03*
Y232323D02*
D03*
Y222323D02*
D03*
Y212323D02*
D03*
Y202323D02*
D03*
Y192323D02*
D03*
Y182323D02*
D03*
Y172323D02*
D03*
Y162323D02*
D03*
Y152323D02*
D03*
Y142323D02*
D03*
Y132323D02*
D03*
Y122323D02*
D03*
Y112323D02*
D03*
Y102323D02*
D03*
Y92323D02*
D03*
Y82323D02*
D03*
Y72323D02*
D03*
Y62323D02*
D03*
D78*
X23650Y267323D02*
D03*
Y67323D02*
D03*
X192941Y267323D02*
D03*
Y67323D02*
D03*
D79*
X8568Y34446D02*
D03*
X200787Y293976D02*
D03*
X39792Y325591D02*
D03*
X200787Y44134D02*
D03*
D80*
X113740Y303110D02*
D03*
X63543Y299764D02*
D03*
X113543Y292284D02*
D03*
X96614Y258189D02*
D03*
X113740Y261629D02*
D03*
X163740Y261929D02*
D03*
X146614Y258189D02*
D03*
X83228D02*
D03*
X133228D02*
D03*
X123268Y51882D02*
D03*
X151622Y65564D02*
D03*
X109705Y195665D02*
D03*
X164394Y223323D02*
D03*
X82623Y125398D02*
D03*
X88676Y106262D02*
D03*
X84739D02*
D03*
X85050Y292277D02*
D03*
X135050D02*
D03*
Y251096D02*
D03*
X85050D02*
D03*
X121394Y204189D02*
D03*
X121794Y214123D02*
D03*
X101494Y238423D02*
D03*
X95394Y233323D02*
D03*
X85894Y199123D02*
D03*
X70039Y291299D02*
D03*
X47984Y252016D02*
D03*
X38493Y267992D02*
D03*
X47108Y58411D02*
D03*
X154201Y79527D02*
D03*
X140619Y83858D02*
D03*
X141012Y79527D02*
D03*
X127823D02*
D03*
X114634D02*
D03*
X101555D02*
D03*
X81063Y69304D02*
D03*
X87854Y88809D02*
D03*
X88030Y81328D02*
D03*
X153807Y83858D02*
D03*
X127508Y88809D02*
D03*
X153886D02*
D03*
X140697D02*
D03*
X150803Y179527D02*
D03*
Y173622D02*
D03*
X150803Y197244D02*
D03*
X150803Y185433D02*
D03*
Y191339D02*
D03*
X152585Y124162D02*
D03*
X180641Y67992D02*
D03*
X55465Y275639D02*
D03*
X22185Y283862D02*
D03*
X26331Y276654D02*
D03*
X8752D02*
D03*
X13949D02*
D03*
X11350D02*
D03*
X13949Y267992D02*
D03*
X8752D02*
D03*
X11350D02*
D03*
X33296Y276654D02*
D03*
X38493D02*
D03*
X35894D02*
D03*
X33296Y267992D02*
D03*
X35894D02*
D03*
X20866Y298583D02*
D03*
Y301732D02*
D03*
Y292283D02*
D03*
Y295433D02*
D03*
X98976Y65564D02*
D03*
X81170Y75197D02*
D03*
X127429Y83858D02*
D03*
X114241D02*
D03*
X114319Y88809D02*
D03*
X150803Y161811D02*
D03*
Y167717D02*
D03*
X150803Y203150D02*
D03*
X114331Y268622D02*
D03*
X64331Y309803D02*
D03*
Y268622D02*
D03*
X146614Y299370D02*
D03*
X133228D02*
D03*
X83228D02*
D03*
X96614D02*
D03*
X95063Y189389D02*
D03*
X178043Y67992D02*
D03*
X183240D02*
D03*
X178043Y76653D02*
D03*
X183240D02*
D03*
X180641D02*
D03*
X35894Y57992D02*
D03*
X33296D02*
D03*
X38493D02*
D03*
X35894Y66654D02*
D03*
X38493D02*
D03*
X33296D02*
D03*
X205185D02*
D03*
X207784D02*
D03*
X202587D02*
D03*
X207784Y57992D02*
D03*
X202587D02*
D03*
X205185D02*
D03*
X211417Y271024D02*
D03*
Y273622D02*
D03*
X174409Y271024D02*
D03*
Y273622D02*
D03*
X43654Y252016D02*
D03*
X52315D02*
D03*
X160000Y299370D02*
D03*
X85824Y194237D02*
D03*
X105146Y216852D02*
D03*
X150803Y155906D02*
D03*
Y144095D02*
D03*
Y138189D02*
D03*
X105146Y210553D02*
D03*
X115849Y204189D02*
D03*
X72763Y302723D02*
D03*
X71976Y261542D02*
D03*
X121976D02*
D03*
X8752Y76653D02*
D03*
X13949D02*
D03*
X11350D02*
D03*
X13949Y67992D02*
D03*
X8752D02*
D03*
X11350D02*
D03*
X121976Y302723D02*
D03*
X114331Y309803D02*
D03*
X82658Y129728D02*
D03*
X91462Y171031D02*
D03*
X79234Y163423D02*
D03*
X101437Y88809D02*
D03*
X101162Y83858D02*
D03*
X99205Y106565D02*
D03*
X99705Y122365D02*
D03*
X71105Y186646D02*
D03*
X69006Y184046D02*
D03*
X76378Y167559D02*
D03*
X79595Y204241D02*
D03*
X85895Y213161D02*
D03*
X57087Y89606D02*
D03*
X148031Y50630D02*
D03*
X140945Y108504D02*
D03*
X113386Y125039D02*
D03*
X67716Y106535D02*
D03*
X94488Y218740D02*
D03*
X87402Y219921D02*
D03*
X68110Y208504D02*
D03*
X62992Y193543D02*
D03*
X47638Y177795D02*
D03*
X42520Y186457D02*
D03*
X56693Y198268D02*
D03*
X23622Y180945D02*
D03*
X24016Y173464D02*
D03*
X87008Y228189D02*
D03*
X57874Y213228D02*
D03*
X148819Y242756D02*
D03*
X192913Y157323D02*
D03*
Y167559D02*
D03*
X114567Y109685D02*
D03*
X103543Y98661D02*
D03*
X170905Y7165D02*
D03*
X140905D02*
D03*
X85905D02*
D03*
X55905D02*
D03*
X70906Y147165D02*
D03*
X142105Y120265D02*
D03*
X63798Y251102D02*
D03*
X70491D02*
D03*
X120236D02*
D03*
X113543D02*
D03*
X117905Y291565D02*
D03*
X114764Y183808D02*
D03*
Y179477D02*
D03*
Y175146D02*
D03*
Y170815D02*
D03*
Y166485D02*
D03*
Y162154D02*
D03*
Y157823D02*
D03*
Y153493D02*
D03*
X110433Y183808D02*
D03*
Y179477D02*
D03*
Y175146D02*
D03*
Y170815D02*
D03*
Y166485D02*
D03*
Y162154D02*
D03*
Y157823D02*
D03*
Y153493D02*
D03*
X106102Y183808D02*
D03*
Y179477D02*
D03*
Y175146D02*
D03*
Y170815D02*
D03*
Y166485D02*
D03*
Y162154D02*
D03*
Y157823D02*
D03*
Y153493D02*
D03*
X101772Y183808D02*
D03*
Y179477D02*
D03*
Y175146D02*
D03*
Y170815D02*
D03*
Y166485D02*
D03*
Y162154D02*
D03*
Y157823D02*
D03*
Y153493D02*
D03*
D81*
X149173Y314921D02*
D03*
X135787D02*
D03*
X99664Y315074D02*
D03*
X121614Y314921D02*
D03*
X85787D02*
D03*
X112559Y273740D02*
D03*
X162559D02*
D03*
X85787D02*
D03*
X149173D02*
D03*
X112559Y314921D02*
D03*
X162559D02*
D03*
X99173Y273740D02*
D03*
X135787D02*
D03*
X128862Y174331D02*
D03*
X127062Y165631D02*
D03*
X128762Y170131D02*
D03*
X134394Y169323D02*
D03*
X104208Y197462D02*
D03*
X105085Y200062D02*
D03*
X115194Y193823D02*
D03*
X117285Y199562D02*
D03*
X121784Y196562D02*
D03*
X119185Y197469D02*
D03*
X106603Y194962D02*
D03*
X52903Y203323D02*
D03*
X52794Y200323D02*
D03*
X5694Y300423D02*
D03*
X198994Y177323D02*
D03*
X192794Y179523D02*
D03*
X91294Y295223D02*
D03*
X79155Y292284D02*
D03*
X73805Y295366D02*
D03*
X78894Y211832D02*
D03*
X72394D02*
D03*
X75485Y211923D02*
D03*
X127198Y162649D02*
D03*
X35894Y198523D02*
D03*
X17494Y247923D02*
D03*
X174794Y206623D02*
D03*
X174994Y196623D02*
D03*
X199185Y197262D02*
D03*
X23185Y218362D02*
D03*
X83494Y175376D02*
D03*
X85685Y176862D02*
D03*
X89754Y179279D02*
D03*
X80894Y176323D02*
D03*
X35894Y247323D02*
D03*
X102830Y139945D02*
D03*
X105430D02*
D03*
X23185Y88362D02*
D03*
X174685Y92362D02*
D03*
X23185Y78862D02*
D03*
X174685Y82362D02*
D03*
X44185Y72362D02*
D03*
X195185Y76862D02*
D03*
X136185Y235862D02*
D03*
X133356D02*
D03*
X123185Y291862D02*
D03*
X123805Y295366D02*
D03*
X141684Y294862D02*
D03*
X131730Y231362D02*
D03*
X130684Y219362D02*
D03*
X86595Y129762D02*
D03*
X110630Y139945D02*
D03*
X116184Y139862D02*
D03*
X79185Y179762D02*
D03*
X94469Y129762D02*
D03*
X90532D02*
D03*
X120224Y94862D02*
D03*
X114184Y94977D02*
D03*
X98406Y129762D02*
D03*
X63885Y84046D02*
D03*
X130885Y176062D02*
D03*
X129662Y178931D02*
D03*
X132984Y174362D02*
D03*
X175084Y156662D02*
D03*
X199185Y187262D02*
D03*
X174584Y166262D02*
D03*
X161084Y179262D02*
D03*
X174584Y175062D02*
D03*
X199884Y147262D02*
D03*
X200184Y157062D02*
D03*
X108030Y139945D02*
D03*
X178299Y227607D02*
D03*
X199559Y217764D02*
D03*
X131449Y215402D02*
D03*
X133024Y211071D02*
D03*
X64528Y274134D02*
D03*
X121614Y273740D02*
D03*
X68268Y318661D02*
D03*
X92185Y186862D02*
D03*
X88732Y176680D02*
D03*
X52794Y206123D02*
D03*
X127805Y94965D02*
D03*
Y98065D02*
D03*
X124106Y94965D02*
D03*
X17906Y127165D02*
D03*
X43716Y212676D02*
D03*
X17494Y227923D02*
D03*
X45554Y214514D02*
D03*
X17494Y237923D02*
D03*
X61285Y84046D02*
D03*
X79106Y186646D02*
D03*
Y184046D02*
D03*
X97606Y125965D02*
D03*
X106685Y95362D02*
D03*
X23185Y208862D02*
D03*
X35894Y208623D02*
D03*
X39370Y41653D02*
D03*
X58685Y84046D02*
D03*
X66805Y191965D02*
D03*
X86594Y157623D02*
D03*
X83507Y157716D02*
D03*
X42185Y95570D02*
D03*
X107385Y192362D02*
D03*
X113230Y139945D02*
D03*
X136894Y165323D02*
D03*
X134394Y159323D02*
D03*
X125894Y159823D02*
D03*
X119185Y140862D02*
D03*
X136794Y137523D02*
D03*
X122057Y147000D02*
D03*
D82*
X169123Y287464D02*
D03*
X4123Y272464D02*
D03*
Y182464D02*
D03*
X184123Y317464D02*
D03*
Y302464D02*
D03*
X169123Y227464D02*
D03*
X49123Y287464D02*
D03*
X19123Y47464D02*
D03*
X4123Y122464D02*
D03*
X34123Y257464D02*
D03*
X64123Y227464D02*
D03*
X4123Y167464D02*
D03*
X49123Y122464D02*
D03*
X94123Y242464D02*
D03*
X4123Y77464D02*
D03*
Y242464D02*
D03*
X49123Y302464D02*
D03*
X4123Y62464D02*
D03*
Y137464D02*
D03*
X139123Y47464D02*
D03*
X49123Y227464D02*
D03*
X170268Y112996D02*
D03*
X94123Y227464D02*
D03*
X4123Y107464D02*
D03*
X19123Y287464D02*
D03*
X64123Y242464D02*
D03*
X169123Y257464D02*
D03*
X79123Y47464D02*
D03*
X4123Y92464D02*
D03*
X184123Y287464D02*
D03*
X139123Y227464D02*
D03*
X169123Y302464D02*
D03*
X4123Y197464D02*
D03*
X49123Y242464D02*
D03*
X124123Y62464D02*
D03*
X4123Y152464D02*
D03*
Y212464D02*
D03*
X109123Y47464D02*
D03*
Y242464D02*
D03*
Y227464D02*
D03*
X154123Y62464D02*
D03*
X4123Y287464D02*
D03*
X34123Y317464D02*
D03*
X169123Y212464D02*
D03*
Y317464D02*
D03*
X4123Y257464D02*
D03*
Y47464D02*
D03*
X19123Y257464D02*
D03*
X49123Y317464D02*
D03*
X4123Y227464D02*
D03*
X212412Y47464D02*
D03*
Y62464D02*
D03*
Y77464D02*
D03*
Y92464D02*
D03*
Y107464D02*
D03*
Y122464D02*
D03*
Y137464D02*
D03*
Y152464D02*
D03*
Y167464D02*
D03*
Y182464D02*
D03*
Y197464D02*
D03*
Y212464D02*
D03*
Y227464D02*
D03*
Y242464D02*
D03*
Y257464D02*
D03*
X111368Y6296D02*
D03*
X212412Y287464D02*
D03*
D83*
X123068Y37496D02*
D03*
X95894Y213423D02*
D03*
X48085Y24862D02*
D03*
X53919Y58954D02*
D03*
X39370Y36535D02*
D03*
X39764Y31811D02*
D03*
D84*
X112285Y193562D02*
D03*
X124316Y164123D02*
D03*
X92268Y174134D02*
D03*
X92368Y156050D02*
D03*
X96330Y144210D02*
D03*
X123622Y149740D02*
D03*
X118599Y143862D02*
D03*
D85*
X205185Y267019D02*
D03*
X42677Y262323D02*
D03*
D86*
X187008Y51575D02*
D03*
X11350Y56366D02*
D03*
D87*
X160814Y18504D02*
D03*
X170367D02*
D03*
X122598D02*
D03*
X132152D02*
D03*
X141706D02*
D03*
X151260D02*
D03*
D88*
X88150Y298189D02*
D03*
Y296221D02*
D03*
Y294252D02*
D03*
Y292284D02*
D03*
X76339Y298189D02*
D03*
Y296221D02*
D03*
Y294252D02*
D03*
Y292284D02*
D03*
X138150Y298189D02*
D03*
Y296221D02*
D03*
Y294252D02*
D03*
Y292284D02*
D03*
X126339Y298189D02*
D03*
Y296221D02*
D03*
Y294252D02*
D03*
Y292284D02*
D03*
X88150Y257008D02*
D03*
Y255039D02*
D03*
Y253071D02*
D03*
Y251102D02*
D03*
X76339Y257008D02*
D03*
Y255039D02*
D03*
Y253071D02*
D03*
Y251102D02*
D03*
X138150Y257008D02*
D03*
Y255039D02*
D03*
Y253071D02*
D03*
Y251102D02*
D03*
X126339Y257008D02*
D03*
Y255039D02*
D03*
Y253071D02*
D03*
Y251102D02*
D03*
D89*
X179921Y18504D02*
D03*
X36614D02*
D03*
X46168D02*
D03*
X55722D02*
D03*
X65276D02*
D03*
X74829D02*
D03*
X84383D02*
D03*
X93937D02*
D03*
X103491D02*
D03*
X113045D02*
D03*
M02*
