G04*
G04 #@! TF.GenerationSoftware,Altium Limited,Altium Designer,19.0.8 (182)*
G04*
G04 Layer_Color=16711935*
%FSLAX25Y25*%
%MOIN*%
G70*
G01*
G75*
%ADD19C,0.00600*%
%ADD70C,0.01000*%
D19*
X-17147Y152227D02*
X-18147Y153227D01*
Y155226D01*
X-17147Y156226D01*
X-16148D01*
X-15148Y155226D01*
X-14148Y156226D01*
X-13149D01*
X-12149Y155226D01*
Y153227D01*
X-13149Y152227D01*
X-14148D01*
X-15148Y153227D01*
X-16148Y152227D01*
X-17147D01*
X-15148Y153227D02*
Y155226D01*
X-18147Y162224D02*
Y158225D01*
X-15148D01*
X-16148Y160225D01*
Y161224D01*
X-15148Y162224D01*
X-13149D01*
X-12149Y161224D01*
Y159225D01*
X-13149Y158225D01*
X-12149Y164223D02*
X-13149D01*
Y165223D01*
X-12149D01*
Y164223D01*
X-17147Y169222D02*
X-18147Y170221D01*
Y172221D01*
X-17147Y173220D01*
X-13149D01*
X-12149Y172221D01*
Y170221D01*
X-13149Y169222D01*
X-17147D01*
Y175220D02*
X-18147Y176219D01*
Y178219D01*
X-17147Y179218D01*
X-13149D01*
X-12149Y178219D01*
Y176219D01*
X-13149Y175220D01*
X-17147D01*
X97171Y-9412D02*
X93172D01*
Y-12411D01*
X95171Y-11411D01*
X96171D01*
X97171Y-12411D01*
Y-14410D01*
X96171Y-15410D01*
X94172D01*
X93172Y-14410D01*
X103169Y-9412D02*
X99170D01*
Y-12411D01*
X101170Y-11411D01*
X102169D01*
X103169Y-12411D01*
Y-14410D01*
X102169Y-15410D01*
X100170D01*
X99170Y-14410D01*
X105168Y-15410D02*
Y-14410D01*
X106168D01*
Y-15410D01*
X105168D01*
X110167Y-10412D02*
X111166Y-9412D01*
X113166D01*
X114165Y-10412D01*
Y-14410D01*
X113166Y-15410D01*
X111166D01*
X110167Y-14410D01*
Y-10412D01*
X116165D02*
X117164Y-9412D01*
X119164D01*
X120163Y-10412D01*
Y-14410D01*
X119164Y-15410D01*
X117164D01*
X116165Y-14410D01*
Y-10412D01*
D70*
X-17748Y6000D02*
X-15748Y0D01*
X-13748Y6000D01*
X-15748Y334646D02*
X-13748Y328646D01*
X-17748D02*
X-15748Y334646D01*
Y0D02*
Y150627D01*
Y180818D02*
Y334646D01*
X-16748Y0D02*
X14698D01*
X-16748Y334646D02*
X14698D01*
X210535Y-13811D02*
X216535Y-11811D01*
X210535Y-9811D02*
X216535Y-11811D01*
X0D02*
X6000Y-9811D01*
X0Y-11811D02*
X6000Y-13811D01*
X121763Y-11811D02*
X216535D01*
X0D02*
X91572D01*
X216535Y-12811D02*
Y14698D01*
X0Y-12811D02*
Y14698D01*
M02*
