M48
;Layer_Color=9474304
;FILE_FORMAT=2:4
INCH,TZ
;TYPE=PLATED
T1F00S00C0.0118
T2F00S00C0.0177
T3F00S00C0.0197
T4F00S00C0.0450
T5F00S00C0.1339
%
T01
X24573Y28929
Y29429
Y30429
Y30929
Y31429
Y31929
Y32429
Y32929
X24073
Y32429
Y31929
Y31429
X23573
Y31929
Y32429
Y32929
X24466Y33393
X24866Y33143
Y33643
X26116Y33843
X26416Y33443
X26166Y33143
X25966Y32443
X27166
X28016Y32993
X28216Y34043
X27816
X27416
X27016
Y34543
X27416
X27816
X28216
Y35043
X27816
X27416
X27016
Y35543
X27416
X27816
X28216
X28916
X29316
X29716
X30116
Y35043
X29716
X29316
X28916
Y34536
X29316
X29716
X30116
Y34043
X29716
X29316
X28916
X28966Y32543
X29316
X29516Y32993
X30216Y32093
X30516Y31293
X31216
Y30193
X30516
X30073Y29929
Y29429
X30573
X31073
X29416Y29893
X28616
X28016Y30043
X27416
X26816
X26216
X25616
X26073Y28929
X26573
X27073
X27573
X28073
X28573
X29016Y29043
X28416Y31593
X32816Y31693
Y32393
Y33093
X32916Y34293
Y34843
X33573Y34929
X34073
X34573
Y35429
X35573
Y34929
Y34429
Y33929
X35316Y33493
Y33093
Y32393
Y31693
Y31293
X35266Y30193
X34766
X34266
X33766
X33266
X33073Y29929
Y28929
X33573
X34073
X34573
X35073
X35573
Y29929
X34073Y34429
X33573
X31466Y34393
Y34743
X31216Y34951
X31116Y35443
X31316Y33943
X31066Y33593
X25966Y35693
X24573Y35429
X24073
X23573
X24466Y34881
X23073Y31929
Y31429
X22573
Y31929
X37573Y32929
X37073Y28929
X45937Y33428
X46766
Y35678
X45937
X69607Y35150
X69957Y34743
Y34143
X68607Y34150
X71407Y34143
Y34743
X70607Y35150
Y33150
X71457Y33405
Y32381
X72457Y32293
Y33593
X73607Y33150
X74607
Y34150
X75607
X76057Y34143
X76407
X76757
X75857Y33343
X75757Y32093
X75407Y31493
X74957Y31793
X74407Y31243
X73607Y31150
Y30150
X72507Y30703
X71507
Y29384
X71007
X70507
X72507
X74607Y29150
X75607
X75907Y31243
X76607Y31593
X77107
X77857Y31043
X79357
X80557Y30693
X80607Y30150
X81607
X81787Y29260
Y31327
X82607Y31150
X81457Y32243
X81507Y32793
Y33243
X80907
X80307
X79657Y33593
Y34343
Y35093
X79357Y35443
X79657Y35843
X80307Y35793
X80907
X81507
X82457
Y35243
Y34893
Y34543
Y34043
Y33643
Y33293
X79657Y32843
X78907
X78157
Y33243
Y35843
X78907
X73607Y35150
Y34150
X69957Y32643
X69607Y32150
Y31150
X67607
X78407Y29243
X78807
X84557Y33293
Y33643
Y33993
Y34543
Y34893
Y35243
Y35793
Y36143
Y36493
X82757Y39093
Y39593
X82357
X81957
X81557
X81157
Y39093
X81557
X81957
X82357
X82607Y40150
X81607
X79607Y40093
Y39752
Y39343
Y38993
X78057Y38793
Y39202
Y39543
X77657
X78107Y38293
Y37943
Y37593
X78757Y36893
Y36443
X76957Y35943
X76607
X76257
X75907
X75557
X75207Y36293
Y36643
X75407Y37993
X72707Y39243
X71707
X71307
X69656Y39347
Y39839
Y40332
Y40824
X69007Y41316
X68607
Y40150
Y39150
X67607
Y40150
Y41150
Y42150
Y43150
X68607
X69607
X70607
X71207Y43393
X71707
X72207
X72707
X73307Y42643
X73557Y42393
X74207Y43343
X73607Y44150
X72607Y45150
X70257Y44543
Y44043
X70607Y42150
Y41150
X71607
X72607
X69607Y42150
X69656Y38855
Y38363
Y37871
X69099
X67607Y38150
Y37150
Y36150
X68007Y35993
X70307Y36343
X70657
X71007
X72457Y36543
X80874Y37860
X82457Y36493
Y36143
X81607Y43150
Y44150
Y45150
X79207Y41543
X78807
X78407
X76207Y43343
X39116Y42843
X38916Y41993
X38316
X38073Y42429
X37573
Y43429
X38073
X38573
X37073
Y43929
X36666Y43543
X36573Y44429
Y44929
X36073
Y44429
X36666Y45643
X37073Y45929
Y41929
X36573Y42429
X35893Y42243
X36073Y41929
X35916Y40543
X37066
X37416Y40293
X37766Y40543
X37866Y38943
X37416
X36966
Y38493
Y38043
X37416
X37866
Y38493
X37416
X36800Y36735
X36516Y36443
X37766Y35993
X35573Y35929
Y36429
X35516Y37693
X35266Y38143
X35016Y38593
X35316Y39093
X34666
Y40193
X34066
X35316
Y41243
X33316
Y40843
X33073Y41429
X33316Y42243
X34066Y42393
X34573Y43429
Y43929
Y44429
Y44929
Y45429
Y45929
X34216Y45643
X34073Y44929
Y44429
X33573
Y44929
X33073
Y45429
Y45929
Y44429
Y43929
Y43429
X35573
Y43929
Y44429
Y44929
Y45429
Y45929
X35816Y39443
X33573Y39429
X33073
X32573
X32166Y38993
X31616Y39493
X30573Y39429
X30066Y37943
X29573Y37929
X29216Y37943
X28716
Y36593
X29216
X30066
X28016
X27666
X27316
X26766
X25966Y37093
X26073Y37429
X27316Y37943
X26616Y40493
X25666Y40443
X25466Y40043
X26716Y41643
X28073Y41429
X28573
X24073Y42429
Y42929
Y43429
X23573
Y42929
Y42429
X23073Y42929
Y43429
X22573
Y42929
X24573Y44429
Y45429
Y45929
X26516Y45243
X24573Y36929
Y36429
Y35929
X24073
Y36429
Y36929
X23573
Y37429
Y36429
Y35929
X23073Y36429
X22573
X33073Y36929
X33573
X34073
T02
X36816Y31693
Y32393
Y33093
X36766Y33743
X36166
X37466
X38116
X40416Y33843
X40916
Y33343
Y32843
Y32343
Y31843
X40416
Y32343
Y32843
Y33343
Y34343
X40916
X40416Y34843
X39616Y34993
Y35393
Y35793
X43166Y35843
Y35343
Y34843
X43616Y35093
Y35593
Y34593
X45266Y34793
Y34293
Y33793
Y35293
X47571Y35585
X48480Y35693
X48980
Y34743
Y34343
X48480
Y34743
Y33843
Y33443
X48980
Y33843
X48916Y32543
Y32143
X48416
Y32543
Y31643
Y31243
X48916
Y31643
Y30143
Y29643
X48416
X47916
X47416
X46966
X46466
Y30143
X46966
X47416
X47916
X48416
X46966Y30843
X46466
Y31343
Y31843
X46966
Y31343
X47571Y33335
X49775Y32651
X50966Y32493
Y33293
Y34093
X38566Y31693
X51766Y32493
X52566
X53366
Y33293
X52566
X51766
Y34093
X52566
X53366
X83907Y32593
X84507
Y31693
X83907
X84457Y40743
Y41293
Y41843
X82957
X82407
X81666Y41752
X77657Y41593
Y41143
Y40693
X77207
X76307
X75857
Y41143
Y41593
Y42043
X76307
X76757
X77207
X77657
X74924Y41010
X74324
Y38910
X74824
X75324
X72457Y37993
X80157Y36443
X53416Y36593
X52616
X51816
Y37393
X52616
X53416
Y38193
X52616
X51816
Y40693
Y41493
Y42293
X52616
X53416
Y41493
X52616
Y40693
X53416
X51016
Y41493
Y42293
X49725Y41551
X48816Y41443
Y41043
X48316
Y41443
Y40543
Y40143
X48816
Y40543
Y39193
Y38793
X48316
Y39193
Y38293
Y37893
X48816
Y38293
X48980Y36993
Y36593
X48480
Y36993
Y36093
X48980
X51016Y36593
Y37393
Y38193
X49725Y39301
X47016Y39443
Y39043
Y38643
Y38243
X46516Y38643
Y39043
Y39443
Y39843
Y40243
Y40643
Y41043
X47016
Y40643
Y40243
Y39843
X47607Y42235
X48516Y42343
Y42743
X49016
Y42343
Y43243
Y43643
X48516
Y43243
X46766Y44193
X45966
X45166
Y44993
X45966
X46766
Y45793
X45966
X45166
X42866
Y44993
Y44193
X42066
X41266
Y44993
X42066
Y45793
X41266
X40966Y43143
X40466
Y42643
X40966
Y42143
X40466
Y41643
Y41143
Y40643
Y40143
X40966
Y40643
Y41143
Y41643
Y38793
X40416
X39616Y38593
Y38193
Y37793
Y37393
Y36993
Y36593
Y36193
X40416Y36793
X40966
X43166Y36843
Y36343
X43616Y36593
Y36093
X45266
Y36593
Y37093
X45066Y42293
X44566
X44066
X43816Y42793
X44316
X44816
X45316
X45816
X45566Y42293
X39616Y39793
Y39393
Y38993
X32566
Y38493
X32066Y37943
X30966
X32766Y36793
X31094Y42221
X30644
X30194
X29744
Y42671
Y43571
Y44021
X30194
X30644
X31094
Y43571
Y43121
Y42671
X27329Y41706
X24466Y41743
X24016
X23616Y41343
Y40843
Y40343
Y39843
Y39343
Y38843
Y38343
Y37843
X24016Y37443
X24466
X25266Y43843
X25916
X26516Y44643
X27216
X27716Y44693
X28216
T03
X22916Y33393
Y33893
Y34393
Y34893
X33266Y29443
X33766
X34266
X34766
X35266
X22916Y37843
Y38343
Y38843
Y39343
Y39843
Y40343
Y40843
Y41343
T04
X74707Y43743
X75707
X76707
X77707
X78707
X79707
X80707
Y44743
Y45743
X79707
Y44743
X78707
Y45743
X77707
Y44743
X76707
Y45743
X75707
Y44743
X74707
Y45743
T05
X23294Y29921
X38255
X52822
X68635
X83596
Y44882
X68635
X52822
X38255
X23294
M30
