G04*
G04 #@! TF.GenerationSoftware,Altium Limited,Altium Designer,21.0.8 (223)*
G04*
G04 Layer_Color=8388736*
%FSLAX25Y25*%
%MOIN*%
G70*
G04*
G04 #@! TF.SameCoordinates,386B6A0C-B290-4CC1-8F2B-2C95A909E97D*
G04*
G04*
G04 #@! TF.FilePolarity,Negative*
G04*
G01*
G75*
%ADD68R,0.04528X0.02362*%
%ADD92C,0.06500*%
%ADD93R,0.06500X0.06500*%
%ADD95C,0.02362*%
%ADD104C,0.04331*%
%ADD105R,0.04331X0.03543*%
%ADD106R,0.03543X0.03543*%
G04:AMPARAMS|DCode=107|XSize=122.05mil|YSize=82.68mil|CornerRadius=5.91mil|HoleSize=0mil|Usage=FLASHONLY|Rotation=0.000|XOffset=0mil|YOffset=0mil|HoleType=Round|Shape=RoundedRectangle|*
%AMROUNDEDRECTD107*
21,1,0.12205,0.07087,0,0,0.0*
21,1,0.11024,0.08268,0,0,0.0*
1,1,0.01181,0.05512,-0.03543*
1,1,0.01181,-0.05512,-0.03543*
1,1,0.01181,-0.05512,0.03543*
1,1,0.01181,0.05512,0.03543*
%
%ADD107ROUNDEDRECTD107*%
%ADD108R,0.03150X0.07480*%
%ADD109R,0.06693X0.09055*%
%ADD110R,0.09055X0.06693*%
%ADD111R,0.07480X0.03150*%
%ADD112R,0.04331X0.06496*%
%ADD113R,0.04921X0.05906*%
%ADD114R,0.01567X0.06201*%
%ADD115R,0.06201X0.01567*%
%ADD116C,0.01575*%
%ADD117R,0.04528X0.05906*%
%ADD118R,0.12992X0.07874*%
%ADD119R,0.03937X0.07874*%
%ADD120R,0.04331X0.13386*%
%ADD121R,0.04803X0.04528*%
%ADD122R,0.20079X0.09646*%
%ADD123R,0.04134X0.02362*%
%ADD124R,0.06890X0.06890*%
%ADD125R,0.02362X0.04134*%
%ADD126R,0.11496X0.05512*%
%ADD127R,0.09252X0.07284*%
%ADD128R,0.05512X0.11496*%
%ADD129R,0.02953X0.11614*%
%ADD130R,0.03543X0.04331*%
%ADD131R,0.02756X0.04921*%
%ADD132R,0.04252X0.03465*%
%ADD133R,0.03465X0.04252*%
%ADD134R,0.02953X0.06398*%
%ADD135R,0.05709X0.01968*%
%ADD136R,0.05906X0.06693*%
%ADD137R,0.05512X0.09449*%
%ADD138R,0.07874X0.07480*%
%ADD139R,0.04409X0.06181*%
%ADD140R,0.02520X0.04095*%
%ADD141R,0.03937X0.04331*%
%ADD142R,0.06693X0.04331*%
%ADD143C,0.02756*%
%ADD144R,0.03543X0.03543*%
%ADD145R,0.03543X0.04134*%
%ADD146R,0.06102X0.03740*%
%ADD147R,0.04528X0.03740*%
%ADD148R,0.15158X0.18898*%
%ADD149R,0.04095X0.02520*%
%ADD150R,0.06280X0.12008*%
%ADD151R,0.06280X0.03150*%
G04:AMPARAMS|DCode=152|XSize=240.16mil|YSize=240.16mil|CornerRadius=13.78mil|HoleSize=0mil|Usage=FLASHONLY|Rotation=0.000|XOffset=0mil|YOffset=0mil|HoleType=Round|Shape=RoundedRectangle|*
%AMROUNDEDRECTD152*
21,1,0.24016,0.21260,0,0,0.0*
21,1,0.21260,0.24016,0,0,0.0*
1,1,0.02756,0.10630,-0.10630*
1,1,0.02756,-0.10630,-0.10630*
1,1,0.02756,-0.10630,0.10630*
1,1,0.02756,0.10630,0.10630*
%
%ADD152ROUNDEDRECTD152*%
%ADD153R,0.02756X0.04724*%
G04:AMPARAMS|DCode=154|XSize=318.9mil|YSize=240.16mil|CornerRadius=13.78mil|HoleSize=0mil|Usage=FLASHONLY|Rotation=180.000|XOffset=0mil|YOffset=0mil|HoleType=Round|Shape=RoundedRectangle|*
%AMROUNDEDRECTD154*
21,1,0.31890,0.21260,0,0,180.0*
21,1,0.29134,0.24016,0,0,180.0*
1,1,0.02756,-0.14567,0.10630*
1,1,0.02756,0.14567,0.10630*
1,1,0.02756,0.14567,-0.10630*
1,1,0.02756,-0.14567,-0.10630*
%
%ADD154ROUNDEDRECTD154*%
%ADD155R,0.04921X0.02756*%
%ADD156R,0.03937X0.07874*%
%ADD157R,0.01339X0.03937*%
%ADD158R,0.03937X0.01339*%
%ADD159R,0.01575X0.03937*%
%ADD160R,0.03937X0.01575*%
%ADD161R,0.17126X0.17126*%
%ADD162R,0.04134X0.02165*%
%ADD163R,0.04134X0.03543*%
%ADD164R,0.36221X0.20472*%
%ADD165R,0.01181X0.03740*%
%ADD166R,0.03740X0.01181*%
%ADD167R,0.07874X0.12992*%
%ADD168R,0.07874X0.03937*%
%ADD169R,0.02953X0.03150*%
%ADD170R,0.06181X0.04409*%
%ADD171R,0.03937X0.04134*%
%ADD172R,0.04095X0.03543*%
%ADD173R,0.05512X0.06693*%
%ADD174C,0.03740*%
%ADD175C,0.24016*%
%ADD176O,0.06299X0.04331*%
%ADD177O,0.04331X0.06299*%
%ADD178C,0.02756*%
G36*
X708482Y447599D02*
X713797D01*
X713835Y447596D01*
X713872Y447584D01*
X713906Y447566D01*
X713937Y447541D01*
X713961Y447511D01*
X713979Y447477D01*
X713991Y447440D01*
X713994Y447402D01*
Y443465D01*
X713991Y443426D01*
X713979Y443389D01*
X713961Y443355D01*
X713937Y443325D01*
X713906Y443300D01*
X713872Y443282D01*
X713835Y443271D01*
X713797Y443267D01*
X708482D01*
X708482Y443267D01*
X708462Y443269D01*
X708443Y443271D01*
X708415Y443279D01*
X708406Y443282D01*
X708372Y443300D01*
X708342Y443325D01*
X708317Y443355D01*
X708299Y443389D01*
X708296Y443398D01*
X708288Y443426D01*
X708286Y443445D01*
X708284Y443465D01*
X708286Y443484D01*
X708288Y443503D01*
X708296Y443532D01*
X708299Y443540D01*
X708317Y443574D01*
X708342Y443604D01*
X710170Y445433D01*
X708342Y447262D01*
X708317Y447292D01*
X708299Y447326D01*
X708288Y447363D01*
X708284Y447402D01*
X708288Y447440D01*
X708299Y447477D01*
X708317Y447511D01*
X708342Y447541D01*
X708372Y447566D01*
X708406Y447584D01*
X708443Y447596D01*
X708482Y447599D01*
X708482Y447599D01*
D02*
G37*
G36*
X707536Y447596D02*
X707573Y447584D01*
X707607Y447566D01*
X707637Y447541D01*
X709606Y445573D01*
X709630Y445543D01*
X709649Y445509D01*
X709660Y445472D01*
X709664Y445433D01*
X709660Y445395D01*
X709649Y445357D01*
X709630Y445323D01*
X709606Y445293D01*
X707637Y443325D01*
X707607Y443300D01*
X707573Y443282D01*
X707564Y443279D01*
X707536Y443271D01*
X707517Y443269D01*
X707497Y443267D01*
X707497Y443267D01*
X704348D01*
X704309Y443271D01*
X704272Y443282D01*
X704238Y443300D01*
X704208Y443325D01*
X704183Y443355D01*
X704165Y443389D01*
X704154Y443426D01*
X704150Y443465D01*
Y447402D01*
X704154Y447440D01*
X704165Y447477D01*
X704183Y447511D01*
X704208Y447541D01*
X704238Y447566D01*
X704272Y447584D01*
X704309Y447596D01*
X704348Y447599D01*
X707497D01*
X707497Y447599D01*
X707536Y447596D01*
D02*
G37*
G36*
X708482Y442599D02*
X713797D01*
X713835Y442596D01*
X713872Y442584D01*
X713906Y442566D01*
X713937Y442541D01*
X713961Y442512D01*
X713979Y442477D01*
X713991Y442440D01*
X713994Y442402D01*
Y438465D01*
X713991Y438426D01*
X713979Y438389D01*
X713961Y438355D01*
X713937Y438325D01*
X713906Y438300D01*
X713872Y438282D01*
X713835Y438271D01*
X713797Y438267D01*
X708482D01*
X708482Y438267D01*
X708462Y438269D01*
X708443Y438271D01*
X708415Y438279D01*
X708406Y438282D01*
X708372Y438300D01*
X708342Y438325D01*
X708317Y438355D01*
X708299Y438389D01*
X708296Y438398D01*
X708288Y438426D01*
X708286Y438445D01*
X708284Y438465D01*
X708286Y438484D01*
X708288Y438503D01*
X708296Y438532D01*
X708299Y438540D01*
X708317Y438575D01*
X708342Y438604D01*
X710170Y440433D01*
X708342Y442262D01*
X708317Y442292D01*
X708299Y442326D01*
X708288Y442363D01*
X708284Y442402D01*
X708288Y442440D01*
X708299Y442477D01*
X708317Y442512D01*
X708342Y442541D01*
X708372Y442566D01*
X708406Y442584D01*
X708443Y442596D01*
X708482Y442599D01*
X708482Y442599D01*
D02*
G37*
G36*
X707536Y442596D02*
X707573Y442584D01*
X707607Y442566D01*
X707637Y442541D01*
X709606Y440573D01*
X709630Y440543D01*
X709649Y440509D01*
X709660Y440472D01*
X709664Y440433D01*
X709660Y440394D01*
X709649Y440357D01*
X709630Y440323D01*
X709606Y440293D01*
X707637Y438325D01*
X707607Y438300D01*
X707573Y438282D01*
X707564Y438279D01*
X707536Y438271D01*
X707517Y438269D01*
X707497Y438267D01*
X707497Y438267D01*
X704348D01*
X704309Y438271D01*
X704272Y438282D01*
X704238Y438300D01*
X704208Y438325D01*
X704183Y438355D01*
X704165Y438389D01*
X704154Y438426D01*
X704150Y438465D01*
Y442402D01*
X704154Y442440D01*
X704165Y442477D01*
X704183Y442512D01*
X704208Y442541D01*
X704238Y442566D01*
X704272Y442584D01*
X704309Y442596D01*
X704348Y442599D01*
X707497D01*
X707497Y442599D01*
X707536Y442596D01*
D02*
G37*
G36*
X310167Y392851D02*
X310204Y392840D01*
X310239Y392822D01*
X310268Y392797D01*
X310293Y392767D01*
X310311Y392733D01*
X310323Y392696D01*
X310326Y392657D01*
X310326Y387665D01*
X310326Y387665D01*
X310325Y387645D01*
X310323Y387626D01*
X310314Y387598D01*
X310311Y387589D01*
X310293Y387555D01*
X310268Y387525D01*
X310239Y387500D01*
X310204Y387482D01*
X310196Y387479D01*
X310167Y387471D01*
X310148Y387469D01*
X310129Y387467D01*
X310109Y387469D01*
X310090Y387471D01*
X310062Y387479D01*
X310053Y387482D01*
X310019Y387500D01*
X309989Y387525D01*
X308160Y389353D01*
X306332Y387525D01*
X306332Y387525D01*
X306302Y387500D01*
X306267Y387482D01*
X306230Y387470D01*
X306217Y387469D01*
X306192Y387467D01*
X306165Y387469D01*
X306153Y387470D01*
X306127Y387478D01*
X306116Y387482D01*
X306116Y387482D01*
D01*
X306115Y387482D01*
X306082Y387500D01*
X306060Y387518D01*
X306052Y387525D01*
X306034Y387547D01*
X306027Y387555D01*
X306027Y387555D01*
X306027Y387555D01*
X306009Y387589D01*
X305998Y387626D01*
X305996Y387639D01*
X305994Y387664D01*
X305994Y387665D01*
X305994Y392657D01*
Y392657D01*
D01*
X305998Y392696D01*
X306009Y392733D01*
X306027Y392767D01*
X306052Y392797D01*
X306082Y392822D01*
X306116Y392840D01*
X306153Y392851D01*
X306192Y392855D01*
D01*
X306192D01*
X310129D01*
X310167Y392851D01*
D02*
G37*
G36*
X303167D02*
X303204Y392840D01*
X303239Y392822D01*
X303269Y392797D01*
X303293Y392767D01*
X303311Y392733D01*
X303323Y392696D01*
X303326Y392657D01*
X303326Y387665D01*
X303326Y387665D01*
X303325Y387645D01*
X303323Y387626D01*
X303314Y387598D01*
X303311Y387589D01*
X303293Y387555D01*
X303268Y387525D01*
X303239Y387500D01*
X303204Y387482D01*
X303196Y387479D01*
X303167Y387471D01*
X303148Y387469D01*
X303129Y387467D01*
X303109Y387469D01*
X303090Y387471D01*
X303062Y387479D01*
X303053Y387482D01*
X303019Y387500D01*
X302989Y387525D01*
X301160Y389353D01*
X299332Y387525D01*
X299332Y387525D01*
X299302Y387500D01*
X299268Y387482D01*
X299230Y387470D01*
X299217Y387469D01*
X299192Y387467D01*
X299165Y387469D01*
X299153Y387470D01*
X299127Y387478D01*
X299116Y387482D01*
X299116Y387482D01*
D01*
X299115Y387482D01*
X299082Y387500D01*
X299060Y387518D01*
X299052Y387525D01*
X299034Y387547D01*
X299027Y387555D01*
X299027Y387555D01*
X299027Y387555D01*
X299009Y387589D01*
X298998Y387626D01*
X298996Y387639D01*
X298994Y387664D01*
X298994Y387665D01*
X298994Y392657D01*
Y392657D01*
D01*
X298998Y392696D01*
X299009Y392733D01*
X299027Y392767D01*
X299052Y392797D01*
X299082Y392822D01*
X299116Y392840D01*
X299153Y392851D01*
X299192Y392855D01*
D01*
X299192D01*
X303129D01*
X303167Y392851D01*
D02*
G37*
G36*
X296167D02*
X296204Y392840D01*
X296238Y392822D01*
X296269Y392797D01*
X296293Y392767D01*
X296311Y392733D01*
X296323Y392696D01*
X296326Y392657D01*
X296326Y387665D01*
X296326Y387665D01*
X296324Y387645D01*
X296323Y387626D01*
X296314Y387598D01*
X296311Y387589D01*
X296293Y387555D01*
X296268Y387525D01*
X296238Y387500D01*
X296204Y387482D01*
X296196Y387479D01*
X296167Y387471D01*
X296148Y387469D01*
X296129Y387467D01*
X296109Y387469D01*
X296090Y387471D01*
X296061Y387479D01*
X296053Y387482D01*
X296019Y387500D01*
X295989Y387525D01*
X294160Y389353D01*
X292332Y387525D01*
X292332Y387525D01*
X292302Y387500D01*
X292267Y387482D01*
X292230Y387470D01*
X292217Y387469D01*
X292192Y387467D01*
X292165Y387469D01*
X292153Y387470D01*
X292127Y387478D01*
X292116Y387482D01*
X292116Y387482D01*
D01*
X292115Y387482D01*
X292082Y387500D01*
X292059Y387518D01*
X292052Y387525D01*
X292034Y387547D01*
X292027Y387555D01*
X292027Y387555D01*
X292027Y387555D01*
X292009Y387589D01*
X291998Y387626D01*
X291996Y387639D01*
X291994Y387664D01*
X291994Y387665D01*
X291994Y392657D01*
Y392657D01*
D01*
X291998Y392696D01*
X292009Y392733D01*
X292027Y392767D01*
X292052Y392797D01*
X292082Y392822D01*
X292116Y392840D01*
X292153Y392851D01*
X292192Y392855D01*
D01*
X292192D01*
X296129D01*
X296167Y392851D01*
D02*
G37*
G36*
X289167D02*
X289204Y392840D01*
X289239Y392822D01*
X289268Y392797D01*
X289293Y392767D01*
X289311Y392733D01*
X289323Y392696D01*
X289326Y392657D01*
X289326Y387665D01*
X289326Y387665D01*
X289324Y387645D01*
X289323Y387626D01*
X289314Y387598D01*
X289311Y387589D01*
X289293Y387555D01*
X289268Y387525D01*
X289239Y387500D01*
X289204Y387482D01*
X289196Y387479D01*
X289167Y387471D01*
X289148Y387469D01*
X289129Y387467D01*
X289109Y387469D01*
X289090Y387471D01*
X289061Y387479D01*
X289053Y387482D01*
X289019Y387500D01*
X288989Y387525D01*
X287160Y389353D01*
X285332Y387525D01*
X285332Y387525D01*
X285302Y387500D01*
X285267Y387482D01*
X285230Y387470D01*
X285217Y387469D01*
X285192Y387467D01*
X285165Y387469D01*
X285153Y387470D01*
X285127Y387478D01*
X285116Y387482D01*
X285116Y387482D01*
D01*
X285115Y387482D01*
X285082Y387500D01*
X285059Y387518D01*
X285052Y387525D01*
X285034Y387547D01*
X285027Y387555D01*
X285027Y387555D01*
X285027Y387555D01*
X285009Y387589D01*
X284998Y387626D01*
X284996Y387639D01*
X284994Y387664D01*
X284994Y387665D01*
X284994Y392657D01*
Y392657D01*
D01*
X284998Y392696D01*
X285009Y392733D01*
X285027Y392767D01*
X285052Y392797D01*
X285082Y392822D01*
X285116Y392840D01*
X285153Y392851D01*
X285192Y392855D01*
D01*
X285192D01*
X289129D01*
X289167Y392851D01*
D02*
G37*
G36*
X282167D02*
X282204Y392840D01*
X282239Y392822D01*
X282269Y392797D01*
X282293Y392767D01*
X282311Y392733D01*
X282323Y392696D01*
X282326Y392657D01*
X282326Y387665D01*
X282326Y387665D01*
X282325Y387645D01*
X282323Y387626D01*
X282314Y387598D01*
X282311Y387589D01*
X282293Y387555D01*
X282268Y387525D01*
X282239Y387500D01*
X282204Y387482D01*
X282196Y387479D01*
X282167Y387471D01*
X282148Y387469D01*
X282129Y387467D01*
X282109Y387469D01*
X282090Y387471D01*
X282062Y387479D01*
X282053Y387482D01*
X282019Y387500D01*
X281989Y387525D01*
X280160Y389353D01*
X278332Y387525D01*
X278332Y387525D01*
X278302Y387500D01*
X278268Y387482D01*
X278230Y387470D01*
X278217Y387469D01*
X278192Y387467D01*
X278165Y387469D01*
X278153Y387470D01*
X278127Y387478D01*
X278116Y387482D01*
X278116Y387482D01*
D01*
X278115Y387482D01*
X278082Y387500D01*
X278060Y387518D01*
X278052Y387525D01*
X278034Y387547D01*
X278027Y387555D01*
X278027Y387555D01*
X278027Y387555D01*
X278009Y387589D01*
X277998Y387626D01*
X277996Y387639D01*
X277994Y387664D01*
X277994Y387665D01*
X277994Y392657D01*
Y392657D01*
D01*
X277998Y392696D01*
X278009Y392733D01*
X278027Y392767D01*
X278052Y392797D01*
X278082Y392822D01*
X278116Y392840D01*
X278153Y392851D01*
X278192Y392855D01*
D01*
X278192D01*
X282129D01*
X282167Y392851D01*
D02*
G37*
G36*
X275167D02*
X275204Y392840D01*
X275238Y392822D01*
X275269Y392797D01*
X275293Y392767D01*
X275311Y392733D01*
X275323Y392696D01*
X275326Y392657D01*
X275326Y387665D01*
X275326Y387665D01*
X275325Y387645D01*
X275323Y387626D01*
X275314Y387598D01*
X275311Y387589D01*
X275293Y387555D01*
X275268Y387525D01*
X275238Y387500D01*
X275204Y387482D01*
X275196Y387479D01*
X275167Y387471D01*
X275148Y387469D01*
X275129Y387467D01*
X275109Y387469D01*
X275090Y387471D01*
X275061Y387479D01*
X275053Y387482D01*
X275019Y387500D01*
X274989Y387525D01*
X273160Y389353D01*
X271332Y387525D01*
X271332Y387525D01*
X271302Y387500D01*
X271268Y387482D01*
X271230Y387470D01*
X271217Y387469D01*
X271192Y387467D01*
X271165Y387469D01*
X271153Y387470D01*
X271127Y387478D01*
X271116Y387482D01*
X271116Y387482D01*
D01*
X271115Y387482D01*
X271082Y387500D01*
X271059Y387518D01*
X271052Y387525D01*
X271034Y387547D01*
X271027Y387555D01*
X271027Y387555D01*
X271027Y387555D01*
X271009Y387589D01*
X270998Y387626D01*
X270996Y387639D01*
X270994Y387664D01*
X270994Y387665D01*
X270994Y392657D01*
Y392657D01*
D01*
X270998Y392696D01*
X271009Y392733D01*
X271027Y392767D01*
X271052Y392797D01*
X271082Y392822D01*
X271116Y392840D01*
X271153Y392851D01*
X271192Y392855D01*
D01*
X271192D01*
X275129D01*
X275167Y392851D01*
D02*
G37*
G36*
X268167D02*
X268204Y392840D01*
X268238Y392822D01*
X268268Y392797D01*
X268293Y392767D01*
X268311Y392733D01*
X268323Y392696D01*
X268326Y392657D01*
X268326Y387665D01*
X268326Y387665D01*
X268324Y387645D01*
X268323Y387626D01*
X268314Y387598D01*
X268311Y387589D01*
X268293Y387555D01*
X268268Y387525D01*
X268238Y387500D01*
X268204Y387482D01*
X268196Y387479D01*
X268167Y387471D01*
X268148Y387469D01*
X268129Y387467D01*
X268109Y387469D01*
X268090Y387471D01*
X268061Y387479D01*
X268053Y387482D01*
X268019Y387500D01*
X267989Y387525D01*
X266160Y389353D01*
X264332Y387525D01*
X264332Y387525D01*
X264302Y387500D01*
X264267Y387482D01*
X264230Y387470D01*
X264217Y387469D01*
X264192Y387467D01*
X264165Y387469D01*
X264153Y387470D01*
X264127Y387478D01*
X264116Y387482D01*
X264116Y387482D01*
D01*
X264115Y387482D01*
X264082Y387500D01*
X264059Y387518D01*
X264052Y387525D01*
X264034Y387547D01*
X264027Y387555D01*
X264027Y387555D01*
X264027Y387555D01*
X264009Y387589D01*
X263998Y387626D01*
X263996Y387639D01*
X263994Y387664D01*
X263994Y387665D01*
X263994Y392657D01*
Y392657D01*
D01*
X263998Y392696D01*
X264009Y392733D01*
X264027Y392767D01*
X264052Y392797D01*
X264082Y392822D01*
X264116Y392840D01*
X264153Y392851D01*
X264192Y392855D01*
D01*
X264192D01*
X268129D01*
X268167Y392851D01*
D02*
G37*
G36*
X261167D02*
X261204Y392840D01*
X261239Y392822D01*
X261268Y392797D01*
X261293Y392767D01*
X261311Y392733D01*
X261323Y392696D01*
X261326Y392657D01*
X261326Y387665D01*
X261326Y387665D01*
X261325Y387645D01*
X261323Y387626D01*
X261314Y387598D01*
X261311Y387589D01*
X261293Y387555D01*
X261268Y387525D01*
X261239Y387500D01*
X261204Y387482D01*
X261196Y387479D01*
X261167Y387471D01*
X261148Y387469D01*
X261129Y387467D01*
X261109Y387469D01*
X261090Y387471D01*
X261062Y387479D01*
X261053Y387482D01*
X261019Y387500D01*
X260989Y387525D01*
X259160Y389353D01*
X257332Y387525D01*
X257332Y387525D01*
X257302Y387500D01*
X257267Y387482D01*
X257230Y387470D01*
X257217Y387469D01*
X257192Y387467D01*
X257165Y387469D01*
X257153Y387470D01*
X257127Y387478D01*
X257116Y387482D01*
X257116Y387482D01*
D01*
X257115Y387482D01*
X257082Y387500D01*
X257060Y387518D01*
X257052Y387525D01*
X257034Y387547D01*
X257027Y387555D01*
X257027Y387555D01*
X257027Y387555D01*
X257009Y387589D01*
X256998Y387626D01*
X256996Y387639D01*
X256994Y387664D01*
X256994Y387665D01*
X256994Y392657D01*
Y392657D01*
D01*
X256998Y392696D01*
X257009Y392733D01*
X257027Y392767D01*
X257052Y392797D01*
X257082Y392822D01*
X257116Y392840D01*
X257153Y392851D01*
X257192Y392855D01*
D01*
X257192D01*
X261129D01*
X261167Y392851D01*
D02*
G37*
G36*
X308199Y388521D02*
X308236Y388509D01*
X308270Y388491D01*
X308300Y388467D01*
X310268Y386498D01*
X310293Y386468D01*
X310311Y386434D01*
X310314Y386425D01*
X310323Y386397D01*
X310325Y386378D01*
X310326Y386358D01*
X310326Y386358D01*
Y383209D01*
X310323Y383170D01*
X310311Y383133D01*
X310293Y383099D01*
X310268Y383069D01*
X310239Y383044D01*
X310204Y383026D01*
X310167Y383015D01*
X310129Y383011D01*
X306192D01*
X306153Y383015D01*
X306116Y383026D01*
X306082Y383044D01*
X306052Y383069D01*
X306027Y383099D01*
X306009Y383133D01*
X305998Y383170D01*
X305994Y383209D01*
Y386358D01*
X305994Y386358D01*
X305998Y386397D01*
X306009Y386434D01*
X306027Y386468D01*
X306052Y386498D01*
X308020Y388467D01*
X308050Y388491D01*
X308084Y388509D01*
X308121Y388521D01*
X308160Y388525D01*
X308199Y388521D01*
D02*
G37*
G36*
X301199D02*
X301236Y388509D01*
X301270Y388491D01*
X301300Y388467D01*
X303269Y386498D01*
X303293Y386468D01*
X303311Y386434D01*
X303314Y386425D01*
X303323Y386397D01*
X303325Y386378D01*
X303326Y386358D01*
X303326Y386358D01*
Y383209D01*
X303323Y383170D01*
X303311Y383133D01*
X303293Y383099D01*
X303269Y383069D01*
X303239Y383044D01*
X303204Y383026D01*
X303167Y383015D01*
X303129Y383011D01*
X299192D01*
X299153Y383015D01*
X299116Y383026D01*
X299082Y383044D01*
X299052Y383069D01*
X299027Y383099D01*
X299009Y383133D01*
X298998Y383170D01*
X298994Y383209D01*
Y386358D01*
X298994Y386358D01*
X298998Y386397D01*
X299009Y386434D01*
X299027Y386468D01*
X299052Y386498D01*
X301020Y388467D01*
X301050Y388491D01*
X301084Y388509D01*
X301121Y388521D01*
X301160Y388525D01*
X301199Y388521D01*
D02*
G37*
G36*
X294199D02*
X294236Y388509D01*
X294270Y388491D01*
X294300Y388467D01*
X296269Y386498D01*
X296293Y386468D01*
X296311Y386434D01*
X296314Y386425D01*
X296323Y386397D01*
X296324Y386378D01*
X296326Y386358D01*
X296326Y386358D01*
Y383209D01*
X296323Y383170D01*
X296311Y383133D01*
X296293Y383099D01*
X296269Y383069D01*
X296238Y383044D01*
X296204Y383026D01*
X296167Y383015D01*
X296129Y383011D01*
X292192D01*
X292153Y383015D01*
X292116Y383026D01*
X292082Y383044D01*
X292052Y383069D01*
X292027Y383099D01*
X292009Y383133D01*
X291998Y383170D01*
X291994Y383209D01*
Y386358D01*
X291994Y386358D01*
X291998Y386397D01*
X292009Y386434D01*
X292027Y386468D01*
X292052Y386498D01*
X294020Y388467D01*
X294050Y388491D01*
X294084Y388509D01*
X294122Y388521D01*
X294160Y388525D01*
X294199Y388521D01*
D02*
G37*
G36*
X287199D02*
X287236Y388509D01*
X287270Y388491D01*
X287300Y388467D01*
X289268Y386498D01*
X289293Y386468D01*
X289311Y386434D01*
X289314Y386425D01*
X289323Y386397D01*
X289324Y386378D01*
X289326Y386358D01*
X289326Y386358D01*
Y383209D01*
X289323Y383170D01*
X289311Y383133D01*
X289293Y383099D01*
X289268Y383069D01*
X289239Y383044D01*
X289204Y383026D01*
X289167Y383015D01*
X289129Y383011D01*
X285192D01*
X285153Y383015D01*
X285116Y383026D01*
X285082Y383044D01*
X285052Y383069D01*
X285027Y383099D01*
X285009Y383133D01*
X284998Y383170D01*
X284994Y383209D01*
Y386358D01*
X284994Y386358D01*
X284998Y386397D01*
X285009Y386434D01*
X285027Y386468D01*
X285052Y386498D01*
X287020Y388467D01*
X287050Y388491D01*
X287084Y388509D01*
X287122Y388521D01*
X287160Y388525D01*
X287199Y388521D01*
D02*
G37*
G36*
X280199D02*
X280236Y388509D01*
X280270Y388491D01*
X280300Y388467D01*
X282269Y386498D01*
X282293Y386468D01*
X282311Y386434D01*
X282314Y386425D01*
X282323Y386397D01*
X282325Y386378D01*
X282326Y386358D01*
X282326Y386358D01*
Y383209D01*
X282323Y383170D01*
X282311Y383133D01*
X282293Y383099D01*
X282269Y383069D01*
X282239Y383044D01*
X282204Y383026D01*
X282167Y383015D01*
X282129Y383011D01*
X278192D01*
X278153Y383015D01*
X278116Y383026D01*
X278082Y383044D01*
X278052Y383069D01*
X278027Y383099D01*
X278009Y383133D01*
X277998Y383170D01*
X277994Y383209D01*
Y386358D01*
X277994Y386358D01*
X277998Y386397D01*
X278009Y386434D01*
X278027Y386468D01*
X278052Y386498D01*
X280020Y388467D01*
X280050Y388491D01*
X280084Y388509D01*
X280121Y388521D01*
X280160Y388525D01*
X280199Y388521D01*
D02*
G37*
G36*
X273199D02*
X273236Y388509D01*
X273270Y388491D01*
X273300Y388467D01*
X275269Y386498D01*
X275293Y386468D01*
X275311Y386434D01*
X275314Y386425D01*
X275323Y386397D01*
X275325Y386378D01*
X275326Y386358D01*
X275326Y386358D01*
Y383209D01*
X275323Y383170D01*
X275311Y383133D01*
X275293Y383099D01*
X275269Y383069D01*
X275238Y383044D01*
X275204Y383026D01*
X275167Y383015D01*
X275129Y383011D01*
X271192D01*
X271153Y383015D01*
X271116Y383026D01*
X271082Y383044D01*
X271052Y383069D01*
X271027Y383099D01*
X271009Y383133D01*
X270998Y383170D01*
X270994Y383209D01*
Y386358D01*
X270994Y386358D01*
X270998Y386397D01*
X271009Y386434D01*
X271027Y386468D01*
X271052Y386498D01*
X273020Y388467D01*
X273050Y388491D01*
X273084Y388509D01*
X273122Y388521D01*
X273160Y388525D01*
X273199Y388521D01*
D02*
G37*
G36*
X266199D02*
X266236Y388509D01*
X266270Y388491D01*
X266300Y388467D01*
X268268Y386498D01*
X268293Y386468D01*
X268311Y386434D01*
X268314Y386425D01*
X268323Y386397D01*
X268324Y386378D01*
X268326Y386358D01*
X268326Y386358D01*
Y383209D01*
X268323Y383170D01*
X268311Y383133D01*
X268293Y383099D01*
X268268Y383069D01*
X268238Y383044D01*
X268204Y383026D01*
X268167Y383015D01*
X268129Y383011D01*
X264192D01*
X264153Y383015D01*
X264116Y383026D01*
X264082Y383044D01*
X264052Y383069D01*
X264027Y383099D01*
X264009Y383133D01*
X263998Y383170D01*
X263994Y383209D01*
Y386358D01*
X263994Y386358D01*
X263998Y386397D01*
X264009Y386434D01*
X264027Y386468D01*
X264052Y386498D01*
X266020Y388467D01*
X266050Y388491D01*
X266084Y388509D01*
X266122Y388521D01*
X266160Y388525D01*
X266199Y388521D01*
D02*
G37*
G36*
X259199D02*
X259236Y388509D01*
X259270Y388491D01*
X259300Y388467D01*
X261268Y386498D01*
X261293Y386468D01*
X261311Y386434D01*
X261314Y386425D01*
X261323Y386397D01*
X261325Y386378D01*
X261326Y386358D01*
X261326Y386358D01*
Y383209D01*
X261323Y383170D01*
X261311Y383133D01*
X261293Y383099D01*
X261268Y383069D01*
X261239Y383044D01*
X261204Y383026D01*
X261167Y383015D01*
X261129Y383011D01*
X257192D01*
X257153Y383015D01*
X257116Y383026D01*
X257082Y383044D01*
X257052Y383069D01*
X257027Y383099D01*
X257009Y383133D01*
X256998Y383170D01*
X256994Y383209D01*
Y386358D01*
X256994Y386358D01*
X256998Y386397D01*
X257009Y386434D01*
X257027Y386468D01*
X257052Y386498D01*
X259020Y388467D01*
X259050Y388491D01*
X259084Y388509D01*
X259121Y388521D01*
X259160Y388525D01*
X259199Y388521D01*
D02*
G37*
G36*
X465160Y435433D02*
X450160Y420433D01*
Y321933D01*
X438660D01*
Y420433D01*
X453660Y435433D01*
Y439303D01*
X465160D01*
Y435433D01*
D02*
G37*
D68*
X684092Y359933D02*
D03*
X693052D02*
D03*
D92*
X807072Y437433D02*
D03*
Y447433D02*
D03*
Y457433D02*
D03*
X797072Y437433D02*
D03*
Y447433D02*
D03*
Y457433D02*
D03*
X787072Y437433D02*
D03*
Y447433D02*
D03*
Y457433D02*
D03*
X777072Y437433D02*
D03*
Y447433D02*
D03*
Y457433D02*
D03*
X767072Y437433D02*
D03*
Y447433D02*
D03*
Y457433D02*
D03*
X757072Y437433D02*
D03*
Y447433D02*
D03*
Y457433D02*
D03*
X747072Y437433D02*
D03*
Y447433D02*
D03*
D93*
Y457433D02*
D03*
D95*
X819572Y395933D02*
D03*
X823572D02*
D03*
Y390933D02*
D03*
X819572D02*
D03*
X827572Y395933D02*
D03*
Y390933D02*
D03*
X301160Y350433D02*
D03*
X293160D02*
D03*
X297160D02*
D03*
X289160D02*
D03*
X282160Y340433D02*
D03*
X301160Y345358D02*
D03*
X289160D02*
D03*
X293160D02*
D03*
X297160D02*
D03*
X282160Y345433D02*
D03*
X289160Y340433D02*
D03*
X293160D02*
D03*
X297160D02*
D03*
X301160D02*
D03*
X278160D02*
D03*
X274160D02*
D03*
X270160D02*
D03*
Y345433D02*
D03*
X274160D02*
D03*
X278160D02*
D03*
X274160Y350433D02*
D03*
X270160D02*
D03*
X278160D02*
D03*
X282160D02*
D03*
Y355433D02*
D03*
X278160D02*
D03*
X274160D02*
D03*
X289160D02*
D03*
X293160D02*
D03*
X297160D02*
D03*
X301160D02*
D03*
X270160D02*
D03*
D104*
X775072Y382433D02*
D03*
X758572D02*
D03*
X766072D02*
D03*
X292660Y450433D02*
D03*
D105*
X815072Y347783D02*
D03*
Y354083D02*
D03*
X809072Y347783D02*
D03*
Y354083D02*
D03*
X803072Y347783D02*
D03*
Y354083D02*
D03*
D106*
X815072Y336480D02*
D03*
Y342386D02*
D03*
X809072Y336480D02*
D03*
Y342386D02*
D03*
X803065Y336543D02*
D03*
Y342449D02*
D03*
D107*
X842072Y316933D02*
D03*
Y325933D02*
D03*
D108*
X744190Y306776D02*
D03*
X749112D02*
D03*
X754033D02*
D03*
X758954D02*
D03*
X332818Y307457D02*
D03*
X337739D02*
D03*
X342660D02*
D03*
X347581D02*
D03*
X352503D02*
D03*
D109*
X767812Y293783D02*
D03*
X735332D02*
D03*
X361361Y294465D02*
D03*
X323959D02*
D03*
D110*
X683572Y422016D02*
D03*
Y369850D02*
D03*
X225511Y357673D02*
D03*
Y325193D02*
D03*
X229160Y369850D02*
D03*
Y422016D02*
D03*
D111*
X696564Y378709D02*
D03*
Y383630D02*
D03*
Y388551D02*
D03*
Y393472D02*
D03*
Y398394D02*
D03*
Y403315D02*
D03*
Y408236D02*
D03*
Y413158D02*
D03*
X238503Y334051D02*
D03*
Y338972D02*
D03*
Y343894D02*
D03*
Y348815D02*
D03*
X242152Y413158D02*
D03*
Y408236D02*
D03*
Y403315D02*
D03*
Y398394D02*
D03*
Y393472D02*
D03*
Y388551D02*
D03*
Y383630D02*
D03*
Y378709D02*
D03*
D112*
X805273Y292598D02*
D03*
Y313268D02*
D03*
X817871Y292598D02*
D03*
Y313268D02*
D03*
X325361Y435598D02*
D03*
Y456268D02*
D03*
X337959Y435598D02*
D03*
Y456268D02*
D03*
X362459D02*
D03*
Y435598D02*
D03*
X349861Y456268D02*
D03*
Y435598D02*
D03*
D113*
X790722Y339102D02*
D03*
Y347764D02*
D03*
X784423D02*
D03*
Y339102D02*
D03*
D114*
X768336Y326842D02*
D03*
X766367D02*
D03*
X764399D02*
D03*
X762430D02*
D03*
X760462D02*
D03*
X758494D02*
D03*
X756525D02*
D03*
X754556D02*
D03*
X752588D02*
D03*
X750619D02*
D03*
X748651D02*
D03*
X746682D02*
D03*
X744714D02*
D03*
X742745D02*
D03*
X740777D02*
D03*
X738808D02*
D03*
Y372024D02*
D03*
X740777D02*
D03*
X742745D02*
D03*
X744714D02*
D03*
X746682D02*
D03*
X748651D02*
D03*
X750619D02*
D03*
X752588D02*
D03*
X754556D02*
D03*
X756525D02*
D03*
X758494D02*
D03*
X760462D02*
D03*
X762430D02*
D03*
X764399D02*
D03*
X766367D02*
D03*
X768336D02*
D03*
D115*
X730982Y334669D02*
D03*
Y336638D02*
D03*
Y338606D02*
D03*
Y340575D02*
D03*
Y342543D02*
D03*
Y344512D02*
D03*
Y346480D02*
D03*
Y348449D02*
D03*
Y350417D02*
D03*
Y352386D02*
D03*
Y354354D02*
D03*
Y356323D02*
D03*
Y358291D02*
D03*
Y360260D02*
D03*
Y362228D02*
D03*
Y364197D02*
D03*
X776163D02*
D03*
Y362228D02*
D03*
Y360260D02*
D03*
Y358291D02*
D03*
Y356323D02*
D03*
Y354354D02*
D03*
Y352386D02*
D03*
Y350417D02*
D03*
Y348449D02*
D03*
Y346480D02*
D03*
Y344512D02*
D03*
Y342543D02*
D03*
Y340575D02*
D03*
Y338606D02*
D03*
Y336638D02*
D03*
Y334669D02*
D03*
D116*
X746041Y429402D02*
D03*
Y427433D02*
D03*
Y425465D02*
D03*
X744072Y429402D02*
D03*
Y425465D02*
D03*
X742104Y429402D02*
D03*
Y427433D02*
D03*
Y425465D02*
D03*
X712072Y445433D02*
D03*
X706072D02*
D03*
X712072Y440433D02*
D03*
X706072D02*
D03*
X308160Y390933D02*
D03*
Y384933D02*
D03*
X280160Y390933D02*
D03*
Y384933D02*
D03*
X301160Y390933D02*
D03*
Y384933D02*
D03*
X294160Y390933D02*
D03*
Y384933D02*
D03*
X287160Y390933D02*
D03*
Y384933D02*
D03*
X273160Y390933D02*
D03*
Y384933D02*
D03*
X266160Y390933D02*
D03*
Y384933D02*
D03*
X259160Y390933D02*
D03*
Y384933D02*
D03*
D117*
X816832Y424433D02*
D03*
X824312D02*
D03*
X805832Y364433D02*
D03*
X813312D02*
D03*
D118*
X767572Y413941D02*
D03*
D119*
X776627Y389925D02*
D03*
X767572D02*
D03*
X758517D02*
D03*
D120*
X805399Y393433D02*
D03*
D121*
X824245Y379358D02*
D03*
D122*
X819572Y393433D02*
D03*
D123*
X838962Y406032D02*
D03*
Y402882D02*
D03*
Y399732D02*
D03*
Y396583D02*
D03*
Y393433D02*
D03*
Y390283D02*
D03*
Y387134D02*
D03*
Y383984D02*
D03*
Y380835D02*
D03*
X800182D02*
D03*
Y383984D02*
D03*
Y387134D02*
D03*
Y390283D02*
D03*
Y393433D02*
D03*
Y396583D02*
D03*
Y399732D02*
D03*
Y402882D02*
D03*
Y406032D02*
D03*
D124*
X837584Y375421D02*
D03*
X801560D02*
D03*
Y411445D02*
D03*
X837584D02*
D03*
D125*
X832171Y374043D02*
D03*
X829021D02*
D03*
X825871D02*
D03*
X822722D02*
D03*
X819572D02*
D03*
X816423D02*
D03*
X813273D02*
D03*
X810123D02*
D03*
X806974D02*
D03*
Y412823D02*
D03*
X810123D02*
D03*
X813273D02*
D03*
X816423D02*
D03*
X819572D02*
D03*
X822722D02*
D03*
X825871D02*
D03*
X829021D02*
D03*
X832171D02*
D03*
D126*
X788072Y410287D02*
D03*
Y399579D02*
D03*
X746072Y394079D02*
D03*
Y404787D02*
D03*
X308660Y302079D02*
D03*
Y312787D02*
D03*
X349660Y401787D02*
D03*
Y391079D02*
D03*
X268986Y441064D02*
D03*
Y430356D02*
D03*
X256160Y422079D02*
D03*
Y432787D02*
D03*
X364660Y343079D02*
D03*
Y353787D02*
D03*
X377660D02*
D03*
Y343079D02*
D03*
D127*
X788072Y378028D02*
D03*
Y389839D02*
D03*
D128*
X840427Y336433D02*
D03*
X829718D02*
D03*
X840427Y348933D02*
D03*
X829718D02*
D03*
X840427Y361433D02*
D03*
X829718D02*
D03*
X426014Y321433D02*
D03*
X415306D02*
D03*
X426014Y334433D02*
D03*
X415306D02*
D03*
X426014Y365433D02*
D03*
X415306D02*
D03*
X426014Y352433D02*
D03*
X415306D02*
D03*
X426014Y383433D02*
D03*
X415306D02*
D03*
X320514Y370933D02*
D03*
X309806D02*
D03*
X415306Y414433D02*
D03*
X426014D02*
D03*
X415306Y427433D02*
D03*
X426014D02*
D03*
X415306Y396433D02*
D03*
X426014D02*
D03*
D129*
X725072Y307028D02*
D03*
Y293839D02*
D03*
X720072Y307028D02*
D03*
Y293839D02*
D03*
X715072Y307028D02*
D03*
Y293839D02*
D03*
X710072Y307028D02*
D03*
Y293839D02*
D03*
X705072Y307028D02*
D03*
Y293839D02*
D03*
D130*
X804923Y327933D02*
D03*
X811222D02*
D03*
X727722Y427933D02*
D03*
X721423D02*
D03*
X703923Y347433D02*
D03*
X710222D02*
D03*
X703923Y341433D02*
D03*
X710222D02*
D03*
X789222Y315433D02*
D03*
X782923D02*
D03*
X789222Y321433D02*
D03*
X782923D02*
D03*
D131*
X710832Y334051D02*
D03*
X714572D02*
D03*
X718312D02*
D03*
Y323815D02*
D03*
X714572D02*
D03*
X710832D02*
D03*
D132*
X724572Y326677D02*
D03*
Y332189D02*
D03*
X706072Y405189D02*
D03*
Y399677D02*
D03*
X724572Y369177D02*
D03*
Y374689D02*
D03*
X783572Y363677D02*
D03*
Y369189D02*
D03*
X279660Y315921D02*
D03*
Y321433D02*
D03*
X370660Y415189D02*
D03*
Y409677D02*
D03*
X359160Y415189D02*
D03*
Y409677D02*
D03*
X259660Y361177D02*
D03*
Y366689D02*
D03*
X300660Y370177D02*
D03*
Y375689D02*
D03*
X287160D02*
D03*
Y370177D02*
D03*
X292160D02*
D03*
Y375689D02*
D03*
X273160Y370177D02*
D03*
Y375689D02*
D03*
X377660Y415189D02*
D03*
Y409677D02*
D03*
D133*
X711316Y427933D02*
D03*
X716828D02*
D03*
X765816Y319933D02*
D03*
X771328D02*
D03*
X810828Y322433D02*
D03*
X805316D02*
D03*
X417904Y343433D02*
D03*
X423416D02*
D03*
X289916Y329933D02*
D03*
X284404D02*
D03*
X417904Y374433D02*
D03*
X423416D02*
D03*
Y405433D02*
D03*
X417904D02*
D03*
X368404Y359933D02*
D03*
X373916D02*
D03*
X298416Y320933D02*
D03*
X292904D02*
D03*
X331979Y316933D02*
D03*
X337491D02*
D03*
X324916Y342933D02*
D03*
X319404D02*
D03*
X252404Y336433D02*
D03*
X257916D02*
D03*
X324916Y348433D02*
D03*
X319404D02*
D03*
X252404Y331433D02*
D03*
X257916D02*
D03*
X329904Y384933D02*
D03*
X335416D02*
D03*
X337491Y330933D02*
D03*
X331979D02*
D03*
X337491Y323933D02*
D03*
X331979D02*
D03*
D134*
X712072Y399756D02*
D03*
X717072D02*
D03*
X722072D02*
D03*
X727072D02*
D03*
Y421110D02*
D03*
X722072D02*
D03*
X717072D02*
D03*
X712072D02*
D03*
D135*
X689104Y328815D02*
D03*
Y339051D02*
D03*
Y336492D02*
D03*
Y333933D02*
D03*
Y331374D02*
D03*
D136*
X688218Y346532D02*
D03*
Y321335D02*
D03*
D137*
X678572Y348697D02*
D03*
Y319169D02*
D03*
D138*
Y338461D02*
D03*
Y329405D02*
D03*
D139*
X749722Y379933D02*
D03*
X743423D02*
D03*
X460471Y327933D02*
D03*
X466849D02*
D03*
Y376433D02*
D03*
X460471D02*
D03*
X318349Y360933D02*
D03*
X311971D02*
D03*
D140*
X784423Y332433D02*
D03*
X790722D02*
D03*
Y354433D02*
D03*
X784423D02*
D03*
X334510Y428433D02*
D03*
X340810D02*
D03*
X365210D02*
D03*
X358910D02*
D03*
D141*
X736722Y379933D02*
D03*
X730423D02*
D03*
D142*
X793356Y292543D02*
D03*
Y299433D02*
D03*
Y306323D02*
D03*
X778789Y292543D02*
D03*
Y299433D02*
D03*
Y306323D02*
D03*
D143*
X796572Y328433D02*
Y358433D01*
X781572Y328433D02*
X789072D01*
X781572Y358433D02*
X789072D01*
Y328433D02*
X796572D01*
X789072Y358433D02*
X796572D01*
D144*
X369707Y428433D02*
D03*
X375613D02*
D03*
X256613Y290433D02*
D03*
X250707D02*
D03*
D145*
X381011Y428433D02*
D03*
X387310D02*
D03*
X323511D02*
D03*
X329810D02*
D03*
X256810Y295933D02*
D03*
X250511D02*
D03*
X329810Y422433D02*
D03*
X323511D02*
D03*
X357510Y330933D02*
D03*
X363810D02*
D03*
X357510Y316933D02*
D03*
X363810D02*
D03*
X357510Y323933D02*
D03*
X363810D02*
D03*
X281810Y456933D02*
D03*
X275511D02*
D03*
X251010Y444933D02*
D03*
X257310D02*
D03*
X342511Y323933D02*
D03*
X348810D02*
D03*
X342511Y316933D02*
D03*
X348810D02*
D03*
X342511Y330933D02*
D03*
X348810D02*
D03*
X396310Y316933D02*
D03*
X390010D02*
D03*
X251010Y450933D02*
D03*
X257310D02*
D03*
X348010Y422433D02*
D03*
X354310D02*
D03*
Y428433D02*
D03*
X348010D02*
D03*
D146*
X497751Y311354D02*
D03*
Y316433D02*
D03*
Y321433D02*
D03*
Y326512D02*
D03*
X475707Y333354D02*
D03*
Y371012D02*
D03*
Y365933D02*
D03*
Y360933D02*
D03*
Y355854D02*
D03*
Y338433D02*
D03*
Y343433D02*
D03*
Y348512D02*
D03*
X497251Y377854D02*
D03*
Y382933D02*
D03*
Y387933D02*
D03*
Y393012D02*
D03*
Y400354D02*
D03*
Y405433D02*
D03*
Y410433D02*
D03*
Y415512D02*
D03*
X476070Y422354D02*
D03*
Y427433D02*
D03*
Y432433D02*
D03*
Y437512D02*
D03*
D147*
X475310Y326512D02*
D03*
Y321433D02*
D03*
Y316433D02*
D03*
Y311354D02*
D03*
X498148Y355854D02*
D03*
Y360933D02*
D03*
Y365933D02*
D03*
Y371012D02*
D03*
Y348512D02*
D03*
Y343433D02*
D03*
Y338433D02*
D03*
Y333354D02*
D03*
X474810Y393012D02*
D03*
Y387933D02*
D03*
Y382933D02*
D03*
Y377854D02*
D03*
Y415512D02*
D03*
Y410433D02*
D03*
Y405433D02*
D03*
Y400354D02*
D03*
X498511Y437512D02*
D03*
Y432433D02*
D03*
Y427433D02*
D03*
Y422354D02*
D03*
D148*
X484798Y318933D02*
D03*
X488660Y363433D02*
D03*
Y340933D02*
D03*
X484298Y385433D02*
D03*
Y407933D02*
D03*
X489022Y429933D02*
D03*
D149*
X359660Y368583D02*
D03*
Y362283D02*
D03*
D150*
X459369Y343433D02*
D03*
X467660D02*
D03*
Y365933D02*
D03*
X459369D02*
D03*
D151*
X467660Y334279D02*
D03*
X459369D02*
D03*
Y356780D02*
D03*
X467660D02*
D03*
D152*
X459660Y449933D02*
D03*
X420660D02*
D03*
D153*
X290160Y312264D02*
D03*
X293900Y303602D02*
D03*
X286420D02*
D03*
D154*
X522160Y414933D02*
D03*
Y373933D02*
D03*
X521660Y332933D02*
D03*
D155*
X348278Y416173D02*
D03*
Y412433D02*
D03*
Y408693D02*
D03*
X338042D02*
D03*
Y412433D02*
D03*
Y416173D02*
D03*
D156*
X266160Y404933D02*
D03*
D157*
X265176Y412020D02*
D03*
Y397847D02*
D03*
X267144D02*
D03*
Y412020D02*
D03*
D158*
X261042Y409854D02*
D03*
Y407886D02*
D03*
Y405917D02*
D03*
Y403949D02*
D03*
Y401980D02*
D03*
Y400012D02*
D03*
X271278D02*
D03*
Y401980D02*
D03*
Y403949D02*
D03*
Y405917D02*
D03*
Y407886D02*
D03*
Y409854D02*
D03*
D159*
X365302Y373319D02*
D03*
X367270D02*
D03*
X369239D02*
D03*
X371207D02*
D03*
X373176D02*
D03*
X375144D02*
D03*
X377113D02*
D03*
X379081D02*
D03*
X381050D02*
D03*
X383018D02*
D03*
Y396547D02*
D03*
X381050D02*
D03*
X379081D02*
D03*
X377113D02*
D03*
X375144D02*
D03*
X373176D02*
D03*
X371207D02*
D03*
X369239D02*
D03*
X367270D02*
D03*
X365302D02*
D03*
D160*
X385774Y376075D02*
D03*
Y378043D02*
D03*
Y380012D02*
D03*
Y381980D02*
D03*
Y383949D02*
D03*
Y385917D02*
D03*
Y387886D02*
D03*
Y389854D02*
D03*
Y391823D02*
D03*
Y393791D02*
D03*
X362546D02*
D03*
Y391823D02*
D03*
Y389854D02*
D03*
Y387886D02*
D03*
Y385917D02*
D03*
Y383949D02*
D03*
Y381980D02*
D03*
Y380012D02*
D03*
Y378043D02*
D03*
Y376075D02*
D03*
D161*
X374160Y384933D02*
D03*
D162*
X306959Y321094D02*
D03*
Y323654D02*
D03*
Y326213D02*
D03*
Y328772D02*
D03*
X322511D02*
D03*
Y326213D02*
D03*
Y323654D02*
D03*
Y321094D02*
D03*
D163*
X280160Y304634D02*
D03*
Y310933D02*
D03*
X268160D02*
D03*
Y304634D02*
D03*
X389160Y415583D02*
D03*
Y409283D02*
D03*
X316160Y384784D02*
D03*
Y391083D02*
D03*
X274160Y310933D02*
D03*
Y304634D02*
D03*
X262160D02*
D03*
Y310933D02*
D03*
X256160Y304634D02*
D03*
Y310933D02*
D03*
X383160Y409283D02*
D03*
Y415583D02*
D03*
X365160D02*
D03*
Y409283D02*
D03*
D164*
X285660Y347933D02*
D03*
D165*
X267550Y360531D02*
D03*
X269125D02*
D03*
X270700D02*
D03*
X272274D02*
D03*
X273849D02*
D03*
X275424D02*
D03*
X276999D02*
D03*
X278573D02*
D03*
X280148D02*
D03*
X281723D02*
D03*
X283298D02*
D03*
X284873D02*
D03*
X286448D02*
D03*
X288022D02*
D03*
X289597D02*
D03*
X291172D02*
D03*
X292747D02*
D03*
X294321D02*
D03*
X295896D02*
D03*
X297471D02*
D03*
X299046D02*
D03*
X300621D02*
D03*
X302196D02*
D03*
X303770D02*
D03*
Y335335D02*
D03*
X302196D02*
D03*
X300621D02*
D03*
X299046D02*
D03*
X297471D02*
D03*
X295896D02*
D03*
X294321D02*
D03*
X292747D02*
D03*
X291172D02*
D03*
X289597D02*
D03*
X288022D02*
D03*
X286448D02*
D03*
X284873D02*
D03*
X283298D02*
D03*
X281723D02*
D03*
X280148D02*
D03*
X278573D02*
D03*
X276999D02*
D03*
X275424D02*
D03*
X273849D02*
D03*
X272274D02*
D03*
X270700D02*
D03*
X269125D02*
D03*
X267550D02*
D03*
D166*
X306133Y358169D02*
D03*
Y356594D02*
D03*
Y355020D02*
D03*
Y353445D02*
D03*
Y351870D02*
D03*
Y350295D02*
D03*
Y348721D02*
D03*
Y347146D02*
D03*
Y345571D02*
D03*
Y343996D02*
D03*
Y342421D02*
D03*
Y340846D02*
D03*
Y339272D02*
D03*
Y337697D02*
D03*
X265188D02*
D03*
Y339272D02*
D03*
Y340846D02*
D03*
Y342421D02*
D03*
Y343996D02*
D03*
Y345571D02*
D03*
Y347146D02*
D03*
Y348721D02*
D03*
Y350295D02*
D03*
Y351870D02*
D03*
Y353445D02*
D03*
Y355020D02*
D03*
Y356594D02*
D03*
Y358169D02*
D03*
D167*
X304448Y431213D02*
D03*
D168*
X280432Y422157D02*
D03*
Y431213D02*
D03*
Y440268D02*
D03*
D169*
X330003Y389933D02*
D03*
X335318D02*
D03*
D170*
X468160Y415744D02*
D03*
Y422122D02*
D03*
D171*
X257113Y456933D02*
D03*
X251207D02*
D03*
X269613D02*
D03*
X263707D02*
D03*
D172*
X256160Y321433D02*
D03*
Y316158D02*
D03*
X268160Y321433D02*
D03*
Y316158D02*
D03*
D173*
X337581Y377307D02*
D03*
Y361559D02*
D03*
X327739D02*
D03*
Y377307D02*
D03*
D174*
X839072Y316933D02*
D03*
X845072D02*
D03*
Y325933D02*
D03*
X839072D02*
D03*
X451660Y441933D02*
D03*
X459660D02*
D03*
X467660D02*
D03*
Y449933D02*
D03*
X459660D02*
D03*
X451660D02*
D03*
Y457933D02*
D03*
X467660D02*
D03*
X459660D02*
D03*
X412660Y441933D02*
D03*
X420660D02*
D03*
X428660D02*
D03*
Y449933D02*
D03*
X420660D02*
D03*
X412660D02*
D03*
Y457933D02*
D03*
X428660D02*
D03*
X420660D02*
D03*
X534160Y422933D02*
D03*
X526160D02*
D03*
X518160D02*
D03*
X510160D02*
D03*
Y414933D02*
D03*
X518160D02*
D03*
X526160D02*
D03*
X534160D02*
D03*
Y406933D02*
D03*
X510160D02*
D03*
X518160D02*
D03*
X526160D02*
D03*
X525660Y324933D02*
D03*
X517660D02*
D03*
X509660D02*
D03*
X533660D02*
D03*
Y332933D02*
D03*
X525660D02*
D03*
X517660D02*
D03*
X509660D02*
D03*
Y340933D02*
D03*
X517660D02*
D03*
X525660D02*
D03*
X533660D02*
D03*
X526160Y365933D02*
D03*
X518160D02*
D03*
X510160D02*
D03*
X534160D02*
D03*
Y373933D02*
D03*
X526160D02*
D03*
X518160D02*
D03*
X510160D02*
D03*
Y381933D02*
D03*
X518160D02*
D03*
X526160D02*
D03*
X534160D02*
D03*
D175*
X686352Y299213D02*
D03*
X835958Y448819D02*
D03*
X686352D02*
D03*
X835958Y299213D02*
D03*
X528215Y448819D02*
D03*
Y299213D02*
D03*
X232940Y448819D02*
D03*
X382546D02*
D03*
Y299213D02*
D03*
X232940D02*
D03*
D176*
X229160Y413433D02*
D03*
Y333933D02*
D03*
Y338933D02*
D03*
Y343933D02*
D03*
Y348933D02*
D03*
Y378433D02*
D03*
Y383433D02*
D03*
Y388433D02*
D03*
Y393433D02*
D03*
Y398433D02*
D03*
Y403433D02*
D03*
Y408433D02*
D03*
D177*
X332660Y294433D02*
D03*
X337660D02*
D03*
X352660D02*
D03*
X347660D02*
D03*
X342660D02*
D03*
D178*
X266160Y404933D02*
D03*
X369660Y380433D02*
D03*
X378660D02*
D03*
X369660Y389433D02*
D03*
X378660D02*
D03*
X374160Y380433D02*
D03*
X369660Y384933D02*
D03*
X374160Y389433D02*
D03*
X378660Y384933D02*
D03*
X374160D02*
D03*
M02*
