G04*
G04 #@! TF.GenerationSoftware,Altium Limited,Altium Designer,21.0.8 (223)*
G04*
G04 Layer_Color=16711935*
%FSLAX25Y25*%
%MOIN*%
G70*
G04*
G04 #@! TF.SameCoordinates,386B6A0C-B290-4CC1-8F2B-2C95A909E97D*
G04*
G04*
G04 #@! TF.FilePolarity,Negative*
G04*
G01*
G75*
%ADD92C,0.06500*%
%ADD93R,0.06500X0.06500*%
%ADD95C,0.02362*%
G04:AMPARAMS|DCode=107|XSize=122.05mil|YSize=82.68mil|CornerRadius=5.91mil|HoleSize=0mil|Usage=FLASHONLY|Rotation=0.000|XOffset=0mil|YOffset=0mil|HoleType=Round|Shape=RoundedRectangle|*
%AMROUNDEDRECTD107*
21,1,0.12205,0.07087,0,0,0.0*
21,1,0.11024,0.08268,0,0,0.0*
1,1,0.01181,0.05512,-0.03543*
1,1,0.01181,-0.05512,-0.03543*
1,1,0.01181,-0.05512,0.03543*
1,1,0.01181,0.05512,0.03543*
%
%ADD107ROUNDEDRECTD107*%
%ADD108R,0.03150X0.07480*%
%ADD109R,0.06693X0.09055*%
%ADD110R,0.09055X0.06693*%
%ADD111R,0.07480X0.03150*%
G04:AMPARAMS|DCode=152|XSize=240.16mil|YSize=240.16mil|CornerRadius=13.78mil|HoleSize=0mil|Usage=FLASHONLY|Rotation=0.000|XOffset=0mil|YOffset=0mil|HoleType=Round|Shape=RoundedRectangle|*
%AMROUNDEDRECTD152*
21,1,0.24016,0.21260,0,0,0.0*
21,1,0.21260,0.24016,0,0,0.0*
1,1,0.02756,0.10630,-0.10630*
1,1,0.02756,-0.10630,-0.10630*
1,1,0.02756,-0.10630,0.10630*
1,1,0.02756,0.10630,0.10630*
%
%ADD152ROUNDEDRECTD152*%
G04:AMPARAMS|DCode=154|XSize=318.9mil|YSize=240.16mil|CornerRadius=13.78mil|HoleSize=0mil|Usage=FLASHONLY|Rotation=180.000|XOffset=0mil|YOffset=0mil|HoleType=Round|Shape=RoundedRectangle|*
%AMROUNDEDRECTD154*
21,1,0.31890,0.21260,0,0,180.0*
21,1,0.29134,0.24016,0,0,180.0*
1,1,0.02756,-0.14567,0.10630*
1,1,0.02756,0.14567,0.10630*
1,1,0.02756,0.14567,-0.10630*
1,1,0.02756,-0.14567,-0.10630*
%
%ADD154ROUNDEDRECTD154*%
%ADD174C,0.03740*%
%ADD175C,0.24016*%
%ADD176O,0.06299X0.04331*%
%ADD177O,0.04331X0.06299*%
%ADD178C,0.02756*%
G36*
X479022Y425695D02*
X473314D01*
X471152Y423533D01*
Y420049D01*
X440077D01*
X435758Y424369D01*
X435763Y461679D01*
X479022Y461679D01*
X479022Y425695D01*
D02*
G37*
G36*
X433160Y461796D02*
X433160Y422796D01*
X438771Y417185D01*
X491680Y417185D01*
Y376181D01*
X432408Y376181D01*
X426160Y369933D01*
X426160Y336433D01*
X434408Y328185D01*
X491826Y328185D01*
X492180Y327831D01*
X492160Y293433D01*
X400660Y293433D01*
X400660Y461796D01*
X433160Y461796D01*
D02*
G37*
G36*
X478463Y372752D02*
X478463Y359327D01*
X472754D01*
X471888Y360193D01*
X456327D01*
X455061Y358927D01*
X455061Y354520D01*
X456081Y353500D01*
X471561Y353500D01*
X472561Y352500D01*
X478463Y352500D01*
Y336827D01*
X472754D01*
X471888Y337693D01*
X456327D01*
X455061Y336427D01*
X455061Y334087D01*
X455061Y332101D01*
X454708Y331748D01*
X434813Y331748D01*
X429061Y337500D01*
X429061Y368000D01*
X433813Y372752D01*
X478463Y372752D01*
D02*
G37*
D92*
X807072Y437433D02*
D03*
Y447433D02*
D03*
Y457433D02*
D03*
X797072Y437433D02*
D03*
Y447433D02*
D03*
Y457433D02*
D03*
X787072Y437433D02*
D03*
Y447433D02*
D03*
Y457433D02*
D03*
X777072Y437433D02*
D03*
Y447433D02*
D03*
Y457433D02*
D03*
X767072Y437433D02*
D03*
Y447433D02*
D03*
Y457433D02*
D03*
X757072Y437433D02*
D03*
Y447433D02*
D03*
Y457433D02*
D03*
X747072Y437433D02*
D03*
Y447433D02*
D03*
D93*
Y457433D02*
D03*
D95*
X819572Y395933D02*
D03*
X823572D02*
D03*
Y390933D02*
D03*
X819572D02*
D03*
X827572Y395933D02*
D03*
Y390933D02*
D03*
X301160Y350433D02*
D03*
X293160D02*
D03*
X297160D02*
D03*
X289160D02*
D03*
X282160Y340433D02*
D03*
X301160Y345358D02*
D03*
X289160D02*
D03*
X293160D02*
D03*
X297160D02*
D03*
X282160Y345433D02*
D03*
X289160Y340433D02*
D03*
X293160D02*
D03*
X297160D02*
D03*
X301160D02*
D03*
X278160D02*
D03*
X274160D02*
D03*
X270160D02*
D03*
Y345433D02*
D03*
X274160D02*
D03*
X278160D02*
D03*
X274160Y350433D02*
D03*
X270160D02*
D03*
X278160D02*
D03*
X282160D02*
D03*
Y355433D02*
D03*
X278160D02*
D03*
X274160D02*
D03*
X289160D02*
D03*
X293160D02*
D03*
X297160D02*
D03*
X301160D02*
D03*
X270160D02*
D03*
D107*
X842072Y316933D02*
D03*
Y325933D02*
D03*
D108*
X726954Y441090D02*
D03*
X722033D02*
D03*
X717112D02*
D03*
X712190D02*
D03*
X744190Y306776D02*
D03*
X749112D02*
D03*
X754033D02*
D03*
X758954D02*
D03*
D109*
X703332Y454083D02*
D03*
X735812D02*
D03*
X767812Y293783D02*
D03*
X735332D02*
D03*
D110*
X680923Y350173D02*
D03*
Y317693D02*
D03*
X683572Y422016D02*
D03*
Y369850D02*
D03*
X229160D02*
D03*
Y422016D02*
D03*
D111*
X693915Y326551D02*
D03*
Y331472D02*
D03*
Y336394D02*
D03*
Y341315D02*
D03*
X696564Y378709D02*
D03*
Y383630D02*
D03*
Y388551D02*
D03*
Y393472D02*
D03*
Y398394D02*
D03*
Y403315D02*
D03*
Y408236D02*
D03*
Y413158D02*
D03*
X242152D02*
D03*
Y408236D02*
D03*
Y403315D02*
D03*
Y398394D02*
D03*
Y393472D02*
D03*
Y388551D02*
D03*
Y383630D02*
D03*
Y378709D02*
D03*
D152*
X459660Y449933D02*
D03*
X420660D02*
D03*
D154*
X522160Y414933D02*
D03*
X521660Y332933D02*
D03*
X522160Y373933D02*
D03*
D174*
X839072Y316933D02*
D03*
X845072D02*
D03*
Y325933D02*
D03*
X839072D02*
D03*
X451660Y441933D02*
D03*
X459660D02*
D03*
X467660D02*
D03*
Y449933D02*
D03*
X459660D02*
D03*
X451660D02*
D03*
Y457933D02*
D03*
X467660D02*
D03*
X459660D02*
D03*
X412660Y441933D02*
D03*
X420660D02*
D03*
X428660D02*
D03*
Y449933D02*
D03*
X420660D02*
D03*
X412660D02*
D03*
Y457933D02*
D03*
X428660D02*
D03*
X420660D02*
D03*
X534160Y422933D02*
D03*
X526160D02*
D03*
X518160D02*
D03*
X510160D02*
D03*
Y414933D02*
D03*
X518160D02*
D03*
X526160D02*
D03*
X534160D02*
D03*
Y406933D02*
D03*
X510160D02*
D03*
X518160D02*
D03*
X526160D02*
D03*
X525660Y324933D02*
D03*
X517660D02*
D03*
X509660D02*
D03*
X533660D02*
D03*
Y332933D02*
D03*
X525660D02*
D03*
X517660D02*
D03*
X509660D02*
D03*
Y340933D02*
D03*
X517660D02*
D03*
X525660D02*
D03*
X533660D02*
D03*
X526160Y365933D02*
D03*
X518160D02*
D03*
X510160D02*
D03*
X534160D02*
D03*
Y373933D02*
D03*
X526160D02*
D03*
X518160D02*
D03*
X510160D02*
D03*
Y381933D02*
D03*
X518160D02*
D03*
X526160D02*
D03*
X534160D02*
D03*
D175*
X686352Y299213D02*
D03*
X835958Y448819D02*
D03*
X686352D02*
D03*
X835958Y299213D02*
D03*
X528215Y448819D02*
D03*
Y299213D02*
D03*
X232940Y448819D02*
D03*
X382546D02*
D03*
Y299213D02*
D03*
X232940D02*
D03*
D176*
X229160Y413433D02*
D03*
Y333933D02*
D03*
Y338933D02*
D03*
Y343933D02*
D03*
Y348933D02*
D03*
Y378433D02*
D03*
Y383433D02*
D03*
Y388433D02*
D03*
Y393433D02*
D03*
Y398433D02*
D03*
Y403433D02*
D03*
Y408433D02*
D03*
D177*
X332660Y294433D02*
D03*
X337660D02*
D03*
X352660D02*
D03*
X347660D02*
D03*
X342660D02*
D03*
D178*
X266160Y404933D02*
D03*
X369660Y380433D02*
D03*
X378660D02*
D03*
X369660Y389433D02*
D03*
X378660D02*
D03*
X374160Y380433D02*
D03*
X369660Y384933D02*
D03*
X374160Y389433D02*
D03*
X378660Y384933D02*
D03*
X374160D02*
D03*
M02*
