G04*
G04 #@! TF.GenerationSoftware,Altium Limited,Altium Designer,21.0.8 (223)*
G04*
G04 Layer_Physical_Order=4*
G04 Layer_Color=16711680*
%FSLAX25Y25*%
%MOIN*%
G70*
G04*
G04 #@! TF.SameCoordinates,386B6A0C-B290-4CC1-8F2B-2C95A909E97D*
G04*
G04*
G04 #@! TF.FilePolarity,Positive*
G04*
G01*
G75*
G04:AMPARAMS|DCode=13|XSize=118.11mil|YSize=78.74mil|CornerRadius=3.94mil|HoleSize=0mil|Usage=FLASHONLY|Rotation=0.000|XOffset=0mil|YOffset=0mil|HoleType=Round|Shape=RoundedRectangle|*
%AMROUNDEDRECTD13*
21,1,0.11811,0.07087,0,0,0.0*
21,1,0.11024,0.07874,0,0,0.0*
1,1,0.00787,0.05512,-0.03543*
1,1,0.00787,-0.05512,-0.03543*
1,1,0.00787,-0.05512,0.03543*
1,1,0.00787,0.05512,0.03543*
%
%ADD13ROUNDEDRECTD13*%
%ADD14R,0.02756X0.07087*%
%ADD15R,0.06299X0.08661*%
%ADD16R,0.08661X0.06299*%
%ADD17R,0.07087X0.02756*%
%ADD50C,0.01028*%
%ADD51C,0.01968*%
%ADD52C,0.00787*%
%ADD53C,0.01181*%
%ADD54C,0.01575*%
%ADD55C,0.02362*%
G04:AMPARAMS|DCode=65|XSize=236.22mil|YSize=236.22mil|CornerRadius=11.81mil|HoleSize=0mil|Usage=FLASHONLY|Rotation=0.000|XOffset=0mil|YOffset=0mil|HoleType=Round|Shape=RoundedRectangle|*
%AMROUNDEDRECTD65*
21,1,0.23622,0.21260,0,0,0.0*
21,1,0.21260,0.23622,0,0,0.0*
1,1,0.02362,0.10630,-0.10630*
1,1,0.02362,-0.10630,-0.10630*
1,1,0.02362,-0.10630,0.10630*
1,1,0.02362,0.10630,0.10630*
%
%ADD65ROUNDEDRECTD65*%
G04:AMPARAMS|DCode=67|XSize=314.96mil|YSize=236.22mil|CornerRadius=11.81mil|HoleSize=0mil|Usage=FLASHONLY|Rotation=180.000|XOffset=0mil|YOffset=0mil|HoleType=Round|Shape=RoundedRectangle|*
%AMROUNDEDRECTD67*
21,1,0.31496,0.21260,0,0,180.0*
21,1,0.29134,0.23622,0,0,180.0*
1,1,0.02362,-0.14567,0.10630*
1,1,0.02362,0.14567,0.10630*
1,1,0.02362,0.14567,-0.10630*
1,1,0.02362,-0.14567,-0.10630*
%
%ADD67ROUNDEDRECTD67*%
%ADD88C,0.02756*%
%ADD91C,0.03347*%
%ADD92C,0.06500*%
%ADD93R,0.06500X0.06500*%
%ADD94C,0.23622*%
%ADD95C,0.02362*%
%ADD96O,0.05906X0.03937*%
%ADD97O,0.03937X0.05906*%
%ADD98C,0.03150*%
G36*
X838338Y460784D02*
X839880Y460371D01*
X841354Y459761D01*
X842736Y458963D01*
X844002Y457991D01*
X845131Y456863D01*
X846102Y455597D01*
X846900Y454215D01*
X847511Y452740D01*
X847924Y451199D01*
X848132Y449617D01*
Y448819D01*
Y431984D01*
X819190D01*
X818884Y431857D01*
X810349Y423323D01*
X807557D01*
X807174Y424247D01*
X807716Y424789D01*
X807914Y425084D01*
X807983Y425433D01*
Y432638D01*
X808031Y432763D01*
X808146Y432988D01*
X808298Y433239D01*
X808485Y433503D01*
X809308Y434457D01*
X809655Y434807D01*
X809687Y434886D01*
X809993Y435192D01*
X810473Y436024D01*
X810722Y436952D01*
Y437914D01*
X810473Y438842D01*
X809993Y439674D01*
X809313Y440354D01*
X808481Y440834D01*
X807553Y441083D01*
X806592D01*
X805663Y440834D01*
X804831Y440354D01*
X804152Y439674D01*
X803671Y438842D01*
X803422Y437914D01*
Y436952D01*
X803671Y436024D01*
X804152Y435192D01*
X804458Y434886D01*
X804490Y434807D01*
X804840Y434454D01*
X805425Y433802D01*
X805654Y433511D01*
X805846Y433239D01*
X805999Y432988D01*
X806113Y432763D01*
X806161Y432638D01*
Y425810D01*
X805195Y424844D01*
X797579D01*
X797196Y425768D01*
X797717Y426289D01*
X797914Y426584D01*
X797983Y426933D01*
Y432638D01*
X798031Y432763D01*
X798145Y432988D01*
X798298Y433239D01*
X798485Y433503D01*
X799308Y434457D01*
X799655Y434807D01*
X799687Y434886D01*
X799993Y435192D01*
X800473Y436024D01*
X800722Y436952D01*
Y437914D01*
X800473Y438842D01*
X799993Y439674D01*
X799313Y440354D01*
X798481Y440834D01*
X797553Y441083D01*
X796592D01*
X795663Y440834D01*
X794831Y440354D01*
X794151Y439674D01*
X793671Y438842D01*
X793422Y437914D01*
Y436952D01*
X793671Y436024D01*
X794151Y435192D01*
X794458Y434886D01*
X794490Y434807D01*
X794840Y434454D01*
X795425Y433802D01*
X795654Y433511D01*
X795846Y433239D01*
X795999Y432988D01*
X796113Y432763D01*
X796161Y432638D01*
Y427311D01*
X795195Y426344D01*
X787579D01*
X787196Y427268D01*
X787716Y427789D01*
X787914Y428084D01*
X787983Y428433D01*
Y432638D01*
X788031Y432763D01*
X788145Y432988D01*
X788298Y433239D01*
X788485Y433503D01*
X789308Y434457D01*
X789655Y434807D01*
X789687Y434886D01*
X789993Y435192D01*
X790473Y436024D01*
X790722Y436952D01*
Y437914D01*
X790473Y438842D01*
X789993Y439674D01*
X789313Y440354D01*
X788481Y440834D01*
X787553Y441083D01*
X786592D01*
X785663Y440834D01*
X784831Y440354D01*
X784152Y439674D01*
X783671Y438842D01*
X783422Y437914D01*
Y436952D01*
X783671Y436024D01*
X784152Y435192D01*
X784458Y434886D01*
X784490Y434807D01*
X784840Y434454D01*
X785425Y433802D01*
X785654Y433511D01*
X785846Y433239D01*
X785999Y432988D01*
X786113Y432763D01*
X786161Y432638D01*
Y428811D01*
X785195Y427844D01*
X777579D01*
X777196Y428768D01*
X777716Y429289D01*
X777914Y429584D01*
X777983Y429933D01*
Y432638D01*
X778031Y432763D01*
X778146Y432988D01*
X778298Y433239D01*
X778485Y433503D01*
X779308Y434457D01*
X779655Y434807D01*
X779687Y434886D01*
X779993Y435192D01*
X780473Y436024D01*
X780722Y436952D01*
Y437914D01*
X780473Y438842D01*
X779993Y439674D01*
X779313Y440354D01*
X778481Y440834D01*
X777553Y441083D01*
X776592D01*
X775663Y440834D01*
X774831Y440354D01*
X774152Y439674D01*
X773671Y438842D01*
X773422Y437914D01*
Y436952D01*
X773671Y436024D01*
X774152Y435192D01*
X774458Y434886D01*
X774490Y434807D01*
X774840Y434454D01*
X775425Y433802D01*
X775654Y433511D01*
X775846Y433239D01*
X775999Y432988D01*
X776113Y432763D01*
X776161Y432638D01*
Y430310D01*
X775195Y429344D01*
X767791D01*
X767409Y430268D01*
X767717Y430576D01*
X767914Y430872D01*
X767983Y431220D01*
Y432638D01*
X768031Y432763D01*
X768146Y432988D01*
X768298Y433239D01*
X768485Y433503D01*
X769308Y434457D01*
X769655Y434807D01*
X769687Y434886D01*
X769993Y435192D01*
X770473Y436024D01*
X770722Y436952D01*
Y437914D01*
X770473Y438842D01*
X769993Y439674D01*
X769313Y440354D01*
X768481Y440834D01*
X767553Y441083D01*
X766592D01*
X765663Y440834D01*
X764831Y440354D01*
X764151Y439674D01*
X763671Y438842D01*
X763422Y437914D01*
Y436952D01*
X763671Y436024D01*
X764151Y435192D01*
X764458Y434886D01*
X764490Y434807D01*
X764840Y434454D01*
X765425Y433802D01*
X765654Y433511D01*
X765846Y433239D01*
X765999Y432988D01*
X766113Y432763D01*
X766161Y432638D01*
Y431598D01*
X765407Y430844D01*
X762828D01*
X762629Y431844D01*
X763024Y432008D01*
X763497Y432481D01*
X763753Y433099D01*
Y433768D01*
X763497Y434385D01*
X763024Y434858D01*
X762407Y435114D01*
X761738D01*
X761120Y434858D01*
X760647Y434385D01*
X760391Y433768D01*
Y433099D01*
X760647Y432481D01*
X761120Y432008D01*
X761515Y431844D01*
X761316Y430844D01*
X749572D01*
X749224Y430775D01*
X748928Y430577D01*
X733907Y415557D01*
X732983Y415940D01*
Y420056D01*
X735192Y422264D01*
X735201Y422267D01*
X735238Y422252D01*
X735907D01*
X736524Y422508D01*
X736997Y422981D01*
X737253Y423599D01*
Y424267D01*
X736997Y424885D01*
X736524Y425358D01*
X735907Y425614D01*
X735635D01*
X735066Y425927D01*
X734753Y426496D01*
Y426767D01*
X734497Y427385D01*
X734024Y427858D01*
X733407Y428114D01*
X732738D01*
X732120Y427858D01*
X731647Y427385D01*
X731391Y426767D01*
Y426099D01*
X731406Y426062D01*
X731403Y426053D01*
X729928Y424577D01*
X729730Y424282D01*
X729661Y423933D01*
Y365705D01*
X729730Y365356D01*
X729928Y365061D01*
X743700Y351289D01*
X743996Y351091D01*
X744344Y351022D01*
X767572D01*
X767921Y351091D01*
X768217Y351289D01*
X770217Y353289D01*
X770414Y353584D01*
X770483Y353933D01*
Y357984D01*
X770488Y357993D01*
X770524Y358008D01*
X770997Y358481D01*
X771253Y359099D01*
Y359768D01*
X770997Y360385D01*
X770524Y360858D01*
X769907Y361114D01*
X769238D01*
X768620Y360858D01*
X768453Y360691D01*
X767822Y360489D01*
X767191Y360691D01*
X767024Y360858D01*
X766407Y361114D01*
X765738D01*
X765120Y360858D01*
X764953Y360691D01*
X764322Y360489D01*
X763691Y360691D01*
X763524Y360858D01*
X762907Y361114D01*
X762238D01*
X761620Y360858D01*
X761453Y360691D01*
X760822Y360489D01*
X760191Y360691D01*
X760024Y360858D01*
X759407Y361114D01*
X758738D01*
X758120Y360858D01*
X757953Y360691D01*
X757322Y360489D01*
X756691Y360691D01*
X756524Y360858D01*
X755907Y361114D01*
X755238D01*
X754620Y360858D01*
X754147Y360385D01*
X754132Y360349D01*
X754123Y360344D01*
X752828D01*
X752629Y361344D01*
X753024Y361508D01*
X753497Y361981D01*
X753753Y362599D01*
Y363267D01*
X753497Y363885D01*
X753330Y364052D01*
X753128Y364683D01*
X753330Y365314D01*
X753497Y365481D01*
X753753Y366099D01*
Y366768D01*
X753657Y367000D01*
X754147Y367921D01*
X754243Y368000D01*
X785564D01*
X785584Y368009D01*
X785606Y368002D01*
X786043Y367985D01*
X786552Y367569D01*
X786620Y367508D01*
X787238Y367252D01*
X787907D01*
X788524Y367508D01*
X788593Y367569D01*
X789101Y367985D01*
X789538Y368002D01*
X789560Y368009D01*
X789581Y368000D01*
X790805D01*
Y362065D01*
X790805Y361677D01*
X790805Y361677D01*
X790931Y361371D01*
X791237Y361244D01*
X791237Y361244D01*
X791625Y361244D01*
X816350Y361244D01*
X816738Y361244D01*
X816738Y361244D01*
X817044Y361371D01*
X817171Y361677D01*
X818139Y361602D01*
X818139Y330933D01*
Y323433D01*
X818266Y323127D01*
X828766Y312627D01*
X829072Y312500D01*
X848132D01*
Y299213D01*
X848132Y298415D01*
X847924Y296832D01*
X847511Y295291D01*
X846900Y293817D01*
X846102Y292435D01*
X845131Y291169D01*
X844002Y290040D01*
X842736Y289069D01*
X841354Y288271D01*
X839880Y287660D01*
X838338Y287247D01*
X836756Y287039D01*
X685554D01*
X683972Y287247D01*
X682430Y287660D01*
X680956Y288271D01*
X679574Y289069D01*
X678308Y290040D01*
X677179Y291169D01*
X676208Y292435D01*
X675410Y293817D01*
X674799Y295291D01*
X674386Y296832D01*
X674178Y298415D01*
X674178Y299213D01*
Y448819D01*
Y449617D01*
X674386Y451199D01*
X674799Y452740D01*
X675410Y454215D01*
X676208Y455597D01*
X677179Y456863D01*
X678308Y457991D01*
X679574Y458963D01*
X680956Y459761D01*
X682430Y460371D01*
X683972Y460784D01*
X685554Y460993D01*
X743322D01*
Y457933D01*
X750822D01*
Y460993D01*
X753914D01*
X754329Y459993D01*
X754071Y459736D01*
X753578Y458881D01*
X753324Y457933D01*
X760820D01*
X760567Y458881D01*
X760073Y459736D01*
X759816Y459993D01*
X760230Y460993D01*
X763914D01*
X764329Y459993D01*
X764071Y459736D01*
X763578Y458881D01*
X763324Y457933D01*
X770821D01*
X770567Y458881D01*
X770073Y459736D01*
X769816Y459993D01*
X770230Y460993D01*
X773914D01*
X774329Y459993D01*
X774071Y459736D01*
X773578Y458881D01*
X773324Y457933D01*
X780821D01*
X780567Y458881D01*
X780073Y459736D01*
X779816Y459993D01*
X780230Y460993D01*
X783914D01*
X784329Y459993D01*
X784071Y459736D01*
X783578Y458881D01*
X783324Y457933D01*
X790821D01*
X790567Y458881D01*
X790073Y459736D01*
X789816Y459993D01*
X790230Y460993D01*
X793914D01*
X794329Y459993D01*
X794071Y459736D01*
X793578Y458881D01*
X793324Y457933D01*
X800821D01*
X800567Y458881D01*
X800073Y459736D01*
X799816Y459993D01*
X800230Y460993D01*
X803914D01*
X804329Y459993D01*
X804071Y459736D01*
X803578Y458881D01*
X803324Y457933D01*
X810820D01*
X810567Y458881D01*
X810073Y459736D01*
X809816Y459993D01*
X810230Y460993D01*
X836756D01*
X838338Y460784D01*
D02*
G37*
G36*
X808990Y434752D02*
X808143Y433770D01*
X807936Y433476D01*
X807767Y433199D01*
X807635Y432939D01*
X807541Y432695D01*
X807485Y432468D01*
X807466Y432257D01*
X806678D01*
X806660Y432468D01*
X806603Y432695D01*
X806509Y432939D01*
X806378Y433199D01*
X806208Y433476D01*
X806001Y433770D01*
X805757Y434081D01*
X805155Y434752D01*
X804797Y435112D01*
X809347D01*
X808990Y434752D01*
D02*
G37*
G36*
X798990D02*
X798143Y433770D01*
X797936Y433476D01*
X797767Y433199D01*
X797635Y432939D01*
X797541Y432695D01*
X797485Y432468D01*
X797466Y432257D01*
X796678D01*
X796660Y432468D01*
X796603Y432695D01*
X796509Y432939D01*
X796378Y433199D01*
X796208Y433476D01*
X796001Y433770D01*
X795757Y434081D01*
X795155Y434752D01*
X794797Y435112D01*
X799347D01*
X798990Y434752D01*
D02*
G37*
G36*
X788990D02*
X788143Y433770D01*
X787936Y433476D01*
X787767Y433199D01*
X787635Y432939D01*
X787541Y432695D01*
X787485Y432468D01*
X787466Y432257D01*
X786679D01*
X786660Y432468D01*
X786603Y432695D01*
X786509Y432939D01*
X786377Y433199D01*
X786208Y433476D01*
X786001Y433770D01*
X785757Y434081D01*
X785155Y434752D01*
X784797Y435112D01*
X789347D01*
X788990Y434752D01*
D02*
G37*
G36*
X778990D02*
X778143Y433770D01*
X777936Y433476D01*
X777767Y433199D01*
X777635Y432939D01*
X777541Y432695D01*
X777485Y432468D01*
X777466Y432257D01*
X776679D01*
X776660Y432468D01*
X776603Y432695D01*
X776509Y432939D01*
X776377Y433199D01*
X776208Y433476D01*
X776001Y433770D01*
X775757Y434081D01*
X775155Y434752D01*
X774797Y435112D01*
X779347D01*
X778990Y434752D01*
D02*
G37*
G36*
X768990D02*
X768143Y433770D01*
X767936Y433476D01*
X767767Y433199D01*
X767635Y432939D01*
X767541Y432695D01*
X767485Y432468D01*
X767466Y432257D01*
X766678D01*
X766660Y432468D01*
X766603Y432695D01*
X766509Y432939D01*
X766377Y433199D01*
X766208Y433476D01*
X766001Y433770D01*
X765757Y434081D01*
X765155Y434752D01*
X764797Y435112D01*
X769347D01*
X768990Y434752D01*
D02*
G37*
G36*
X393160Y461796D02*
Y430225D01*
X392160Y429810D01*
X392112Y429858D01*
X391494Y430114D01*
X390826D01*
X390208Y429858D01*
X389735Y429385D01*
X389479Y428767D01*
Y428099D01*
X389735Y427481D01*
X390208Y427008D01*
X390826Y426752D01*
X391494D01*
X392112Y427008D01*
X392160Y427056D01*
X393160Y426641D01*
Y424134D01*
X392160Y423790D01*
X392047Y423866D01*
X391660Y423943D01*
X385660D01*
X385274Y423866D01*
X384946Y423647D01*
X383210Y421911D01*
X383011Y421614D01*
X382826D01*
X382208Y421358D01*
X381735Y420885D01*
X381479Y420267D01*
Y419599D01*
X381735Y418981D01*
X382208Y418508D01*
X382826Y418252D01*
X383494D01*
X384112Y418508D01*
X384585Y418981D01*
X384841Y419599D01*
Y419787D01*
X384857Y419810D01*
X384934Y420197D01*
Y420778D01*
X386079Y421923D01*
X387358D01*
X387773Y420923D01*
X387735Y420885D01*
X387479Y420267D01*
Y419599D01*
X387582Y419351D01*
X387581Y419350D01*
X387547Y419296D01*
X387500Y419234D01*
X387440Y419164D01*
X387360Y419080D01*
X387348Y419049D01*
X386946Y418647D01*
X386727Y418320D01*
X386650Y417933D01*
Y399632D01*
X385650Y399533D01*
X385593Y399820D01*
X385374Y400147D01*
X379600Y405921D01*
X379273Y406140D01*
X379179Y406159D01*
X379085Y406385D01*
X378612Y406858D01*
X377994Y407114D01*
X377326D01*
X376708Y406858D01*
X376235Y406385D01*
X375979Y405767D01*
Y405099D01*
X376115Y404769D01*
X375268Y404203D01*
X375112Y404358D01*
X374495Y404614D01*
X373826D01*
X373208Y404358D01*
X372871Y404379D01*
X372352Y405045D01*
X372341Y405099D01*
Y405767D01*
X372085Y406385D01*
X371612Y406858D01*
X370994Y407114D01*
X370326D01*
X369708Y406858D01*
X369235Y406385D01*
X368979Y405767D01*
Y405240D01*
X368600Y404956D01*
X368055Y404750D01*
X363516Y409289D01*
X363123Y409552D01*
X362660Y409644D01*
X362660Y409644D01*
X356660D01*
X356660Y409644D01*
X356197Y409552D01*
X355804Y409289D01*
X355804Y409289D01*
X352659Y406144D01*
X334555D01*
X334371Y406502D01*
X334248Y407144D01*
X334585Y407481D01*
X334841Y408099D01*
Y408768D01*
X334585Y409385D01*
X334112Y409858D01*
X333494Y410114D01*
X332826D01*
X332208Y409858D01*
X331735Y409385D01*
X331479Y408768D01*
Y408099D01*
X331735Y407481D01*
X332072Y407144D01*
X331949Y406502D01*
X331766Y406144D01*
X294160D01*
X294160Y406144D01*
X293697Y406052D01*
X293304Y405789D01*
X266804Y379289D01*
X266542Y378896D01*
X266449Y378433D01*
X266449Y378433D01*
Y367547D01*
X266440Y367523D01*
X266439Y367393D01*
X266432Y367083D01*
X266235Y366885D01*
X265979Y366267D01*
Y365599D01*
X266235Y364981D01*
X266708Y364508D01*
X267326Y364252D01*
X267994D01*
X268612Y364508D01*
X269085Y364981D01*
X269341Y365599D01*
Y366267D01*
X269085Y366885D01*
X268905Y367065D01*
X268880Y367545D01*
X268871Y367564D01*
Y377932D01*
X294662Y403722D01*
X297401D01*
X297711Y403005D01*
X297737Y402722D01*
X275804Y380789D01*
X275542Y380396D01*
X275449Y379933D01*
X275449Y379933D01*
Y367635D01*
X274957Y367292D01*
X274652Y367145D01*
X274536Y367109D01*
X274279Y367191D01*
X274112Y367358D01*
X273495Y367614D01*
X272826D01*
X272208Y367358D01*
X271735Y366885D01*
X271479Y366267D01*
Y365599D01*
X271735Y364981D01*
X272208Y364508D01*
X272826Y364252D01*
X273495D01*
X274112Y364508D01*
X274279Y364675D01*
X274910Y364877D01*
X275541Y364675D01*
X275708Y364508D01*
X276326Y364252D01*
X276994D01*
X277612Y364508D01*
X277779Y364675D01*
X278410Y364877D01*
X279041Y364675D01*
X279208Y364508D01*
X279826Y364252D01*
X280494D01*
X281112Y364508D01*
X281585Y364981D01*
X281841Y365599D01*
Y366267D01*
X281585Y366885D01*
X281405Y367065D01*
X281380Y367545D01*
X281371Y367564D01*
Y377932D01*
X301162Y397722D01*
X353159D01*
X356163Y394718D01*
X356173Y394695D01*
X356265Y394602D01*
X356479Y394377D01*
Y394099D01*
X356735Y393481D01*
X357208Y393008D01*
X357826Y392752D01*
X358494D01*
X359112Y393008D01*
X359585Y393481D01*
X359841Y394099D01*
Y394767D01*
X359585Y395385D01*
X359112Y395858D01*
X358494Y396114D01*
X358240D01*
X357883Y396435D01*
X357863Y396442D01*
X354516Y399789D01*
X354123Y400052D01*
X353660Y400144D01*
X353660Y400144D01*
X342662D01*
X342404Y400518D01*
X342153Y401144D01*
X342341Y401599D01*
Y402268D01*
X342153Y402722D01*
X342404Y403348D01*
X342662Y403722D01*
X353160D01*
X353160Y403722D01*
X353623Y403815D01*
X354016Y404077D01*
X356591Y406652D01*
X356741Y406600D01*
X357479Y405767D01*
Y405099D01*
X357735Y404481D01*
X358208Y404008D01*
X358826Y403752D01*
X359494D01*
X360112Y404008D01*
X360585Y404481D01*
X360841Y405099D01*
Y405767D01*
X360653Y406222D01*
X360904Y406848D01*
X361162Y407222D01*
X362159D01*
X367304Y402077D01*
X367304Y402077D01*
X367697Y401815D01*
X368160Y401722D01*
X372547D01*
X372570Y401713D01*
X372700Y401712D01*
X373011Y401705D01*
X373208Y401508D01*
X373826Y401252D01*
X374495D01*
X375112Y401508D01*
X375585Y401981D01*
X375841Y402599D01*
Y403267D01*
X375705Y403597D01*
X376553Y404163D01*
X376708Y404008D01*
X377326Y403752D01*
X377994D01*
X378612Y404008D01*
X378635Y404030D01*
X383650Y399015D01*
Y330851D01*
X370936Y318137D01*
X370003Y318164D01*
X369772Y318394D01*
Y322472D01*
X370003Y322702D01*
X370333Y323501D01*
Y324365D01*
X370003Y325164D01*
X369772Y325394D01*
Y329472D01*
X370003Y329702D01*
X370333Y330501D01*
Y331365D01*
X370003Y332164D01*
X369391Y332775D01*
X368849Y333000D01*
X369048Y334000D01*
X369858D01*
X370164Y334127D01*
X370517Y334480D01*
X370644Y334787D01*
X370644Y345164D01*
X370644Y345638D01*
X370644Y345638D01*
X370606Y345731D01*
X370599Y345831D01*
X370599Y345831D01*
X370598Y345831D01*
X370545Y345878D01*
X370517Y345944D01*
X370517D01*
X370517Y345944D01*
X370424Y345983D01*
X370348Y346049D01*
X370277Y346043D01*
X370211Y346071D01*
X370211Y346071D01*
X369824Y346071D01*
X366072D01*
Y362991D01*
X366112Y363008D01*
X366585Y363481D01*
X366841Y364099D01*
Y364191D01*
X368319Y365668D01*
X368339D01*
X368956Y365924D01*
X369429Y366397D01*
X369685Y367015D01*
Y367684D01*
X369429Y368302D01*
X368956Y368775D01*
X368339Y369031D01*
X367670D01*
X367052Y368775D01*
X366579Y368302D01*
X366323Y367684D01*
Y367664D01*
X364736Y366077D01*
X364208Y365858D01*
X363735Y365385D01*
X363479Y364768D01*
Y364550D01*
X363356Y364367D01*
X363249Y363826D01*
Y346071D01*
X359109D01*
X358803Y345944D01*
X358676Y345638D01*
Y334433D01*
X358803Y334127D01*
X359109Y334000D01*
X367272Y334000D01*
X367471Y333000D01*
X366929Y332775D01*
X366318Y332164D01*
X365987Y331365D01*
Y330501D01*
X366318Y329702D01*
X366548Y329472D01*
Y325394D01*
X366318Y325164D01*
X365987Y324365D01*
Y323501D01*
X366318Y322702D01*
X366548Y322472D01*
Y318394D01*
X366318Y318164D01*
X365987Y317365D01*
Y317040D01*
X363492Y314545D01*
X354401D01*
X354160Y315349D01*
X354150Y315545D01*
X354585Y315981D01*
X354841Y316599D01*
Y317267D01*
X354585Y317885D01*
X354112Y318358D01*
X353495Y318614D01*
X352826D01*
X352208Y318358D01*
X351735Y317885D01*
X351479Y317267D01*
Y316599D01*
X351735Y315981D01*
X352171Y315545D01*
X352160Y315349D01*
X351919Y314545D01*
X313302D01*
X312931Y314793D01*
X312160Y314947D01*
X305160D01*
X304390Y314793D01*
X304018Y314545D01*
X293828D01*
X281819Y326554D01*
X281818Y326557D01*
X281525Y326873D01*
X281301Y327159D01*
X281136Y327424D01*
X281071Y327569D01*
X281112Y328508D01*
X281585Y328981D01*
X281841Y329599D01*
Y330268D01*
X281585Y330885D01*
X281112Y331358D01*
X280494Y331614D01*
X279900D01*
X279729Y331813D01*
X279386Y332514D01*
X286232Y339361D01*
X286232Y339361D01*
X286408Y339623D01*
X286469Y339933D01*
X286469Y339933D01*
Y346654D01*
X286478Y346667D01*
X287299Y347124D01*
X309325D01*
X309588Y346861D01*
X309588Y346861D01*
X309850Y346685D01*
X310160Y346624D01*
X310160Y346624D01*
X312784D01*
X312821Y346607D01*
X312913Y346603D01*
X312984Y346595D01*
X313053Y346580D01*
X313119Y346560D01*
X313184Y346535D01*
X313220Y346517D01*
X313235Y346481D01*
X313402Y346314D01*
X313604Y345683D01*
X313402Y345052D01*
X313235Y344885D01*
X312979Y344268D01*
Y343599D01*
X313235Y342981D01*
X313708Y342508D01*
X314326Y342252D01*
X314995D01*
X315612Y342508D01*
X316085Y342981D01*
X316341Y343599D01*
Y344268D01*
X316085Y344885D01*
X315918Y345052D01*
X315716Y345683D01*
X315918Y346314D01*
X316085Y346481D01*
X316341Y347099D01*
Y347767D01*
X316085Y348385D01*
X315612Y348858D01*
X314995Y349114D01*
X314765D01*
X314429Y349136D01*
X314257Y349351D01*
X314110Y349577D01*
X314019Y349774D01*
X313954Y350038D01*
X313960Y350047D01*
X314005Y350105D01*
X314068Y350172D01*
X314082Y350210D01*
X314995Y351124D01*
X338660D01*
X338660Y351124D01*
X338970Y351185D01*
X339232Y351361D01*
X345732Y357861D01*
X345732Y357861D01*
X345908Y358123D01*
X345969Y358433D01*
X345969Y358433D01*
Y380598D01*
X349406Y384034D01*
X349444Y384048D01*
X349511Y384111D01*
X349568Y384155D01*
X349627Y384193D01*
X349688Y384226D01*
X349752Y384254D01*
X349789Y384267D01*
X349826Y384252D01*
X350495D01*
X351112Y384508D01*
X351585Y384981D01*
X351841Y385599D01*
Y386267D01*
X351585Y386885D01*
X351112Y387358D01*
X350495Y387614D01*
X349826D01*
X349208Y387358D01*
X348735Y386885D01*
X348479Y386267D01*
Y385599D01*
X348494Y385562D01*
X348481Y385525D01*
X348453Y385461D01*
X348421Y385400D01*
X348382Y385341D01*
X348338Y385284D01*
X348275Y385217D01*
X348261Y385178D01*
X344588Y381505D01*
X344412Y381243D01*
X344351Y380933D01*
X344351Y380933D01*
Y358768D01*
X338325Y352742D01*
X314660D01*
X314350Y352681D01*
X314088Y352505D01*
X312966Y351383D01*
X312929Y351370D01*
X312928Y351368D01*
X312926Y351368D01*
X312859Y351306D01*
X312803Y351262D01*
X312746Y351225D01*
X312687Y351194D01*
X312625Y351169D01*
X312579Y351154D01*
X312494Y351189D01*
X311826D01*
X311208Y350933D01*
X310735Y350460D01*
X310479Y349842D01*
Y349521D01*
X310364Y349331D01*
X309773Y348836D01*
X309575Y348742D01*
X287299D01*
X286478Y349199D01*
X286469Y349213D01*
Y363328D01*
X286826Y364252D01*
X287494D01*
X288112Y364508D01*
X288585Y364981D01*
X288841Y365599D01*
Y366267D01*
X288585Y366885D01*
X288112Y367358D01*
X287494Y367614D01*
X286826D01*
X286208Y367358D01*
X285735Y366885D01*
X285479Y366267D01*
Y365599D01*
X285494Y365562D01*
X285482Y365525D01*
X285454Y365461D01*
X285420Y365400D01*
X285382Y365341D01*
X285338Y365284D01*
X285275Y365217D01*
X285261Y365178D01*
X285088Y365005D01*
X284912Y364743D01*
X284851Y364433D01*
X284851Y364433D01*
Y348031D01*
X284842Y348018D01*
X284851Y347972D01*
Y347894D01*
X284842Y347848D01*
X284851Y347835D01*
Y340268D01*
X276825Y332242D01*
X263536D01*
X263499Y332259D01*
X263407Y332263D01*
X263336Y332272D01*
X263267Y332286D01*
X263201Y332306D01*
X263136Y332331D01*
X263100Y332349D01*
X263085Y332385D01*
X262612Y332858D01*
X261995Y333114D01*
X261326D01*
X260708Y332858D01*
X260235Y332385D01*
X259979Y331768D01*
Y331099D01*
X260235Y330481D01*
X259756Y329545D01*
X256229D01*
X256226Y329546D01*
X255804Y329569D01*
X255460Y329629D01*
X255171Y329726D01*
X254934Y329854D01*
X254739Y330012D01*
X254581Y330206D01*
X254453Y330444D01*
X254357Y330733D01*
X254296Y331077D01*
X254274Y331499D01*
X254272Y331502D01*
Y371765D01*
X274425Y391918D01*
X274775Y392441D01*
X274897Y393058D01*
Y415597D01*
X275128Y415827D01*
X275458Y416626D01*
Y417490D01*
X275128Y418289D01*
X274516Y418900D01*
X274275Y419000D01*
X274474Y420000D01*
X284481D01*
X293354Y411127D01*
X293660Y411000D01*
X320660Y411000D01*
X320966Y411127D01*
X321093Y411433D01*
X321093Y461796D01*
X393160Y461796D01*
D02*
G37*
G36*
X733060Y425252D02*
X732941Y425249D01*
X732826Y425239D01*
X732716Y425220D01*
X732610Y425193D01*
X732508Y425159D01*
X732410Y425116D01*
X732316Y425066D01*
X732227Y425007D01*
X732143Y424941D01*
X732062Y424866D01*
X731505Y425423D01*
X731580Y425503D01*
X731646Y425588D01*
X731705Y425677D01*
X731755Y425771D01*
X731798Y425869D01*
X731832Y425971D01*
X731859Y426077D01*
X731878Y426187D01*
X731888Y426302D01*
X731891Y426421D01*
X733060Y425252D01*
D02*
G37*
G36*
X735560Y422752D02*
X735441Y422749D01*
X735326Y422739D01*
X735216Y422720D01*
X735110Y422693D01*
X735008Y422659D01*
X734910Y422616D01*
X734817Y422566D01*
X734727Y422507D01*
X734643Y422441D01*
X734562Y422366D01*
X734005Y422923D01*
X734080Y423003D01*
X734146Y423088D01*
X734205Y423177D01*
X734255Y423271D01*
X734298Y423369D01*
X734332Y423470D01*
X734359Y423577D01*
X734378Y423687D01*
X734388Y423802D01*
X734391Y423921D01*
X735560Y422752D01*
D02*
G37*
G36*
X478924Y425760D02*
X473215D01*
X471054Y423598D01*
Y420114D01*
X439979D01*
X435659Y424434D01*
X435665Y461744D01*
X478924Y461744D01*
X478924Y425760D01*
D02*
G37*
G36*
X389502Y418803D02*
X389460Y418786D01*
X389412Y418762D01*
X389359Y418729D01*
X389299Y418688D01*
X389164Y418580D01*
X389006Y418438D01*
X388825Y418263D01*
X387673Y418781D01*
X387761Y418873D01*
X387837Y418962D01*
X387902Y419048D01*
X387956Y419132D01*
X387998Y419212D01*
X388028Y419289D01*
X388048Y419363D01*
X388055Y419434D01*
X388052Y419503D01*
X388037Y419568D01*
X389502Y418803D01*
D02*
G37*
G36*
X320660Y461796D02*
X320660Y411433D01*
X293660Y411433D01*
X284660Y420433D01*
X262660D01*
Y443933D01*
X284660D01*
Y461796D01*
X320660D01*
D02*
G37*
G36*
X782088Y422890D02*
X782088Y405435D01*
X782088Y405047D01*
X782088Y405047D01*
X782215Y404741D01*
X782521Y404614D01*
X782521Y404614D01*
X782909Y404614D01*
X790805Y404614D01*
Y385366D01*
X782002D01*
X781903Y385325D01*
X781797Y385314D01*
X781155Y385499D01*
X781429Y386468D01*
X781524Y386508D01*
X781997Y386981D01*
X782253Y387599D01*
Y388267D01*
X781997Y388885D01*
X781524Y389358D01*
X781339Y389435D01*
Y390518D01*
X781524Y390595D01*
X781997Y391067D01*
X782253Y391685D01*
Y392354D01*
X781997Y392972D01*
X781892Y393078D01*
X781636Y393726D01*
X781892Y394375D01*
X781997Y394481D01*
X782253Y395099D01*
Y395767D01*
X781997Y396385D01*
X781524Y396858D01*
X780907Y397114D01*
X780238D01*
X779620Y396858D01*
X779147Y396385D01*
X779113Y396304D01*
X778031D01*
X777997Y396385D01*
X777524Y396858D01*
X776907Y397114D01*
X776238D01*
X775620Y396858D01*
X775147Y396385D01*
X774891Y395767D01*
Y395099D01*
X775147Y394481D01*
X775620Y394008D01*
X776238Y393752D01*
X776907D01*
X777524Y394008D01*
X777997Y394481D01*
X778031Y394562D01*
X779032D01*
X779508Y393726D01*
X779253Y393078D01*
X779147Y392972D01*
X778891Y392354D01*
Y391685D01*
X779147Y391067D01*
X779620Y390595D01*
X779806Y390518D01*
Y389435D01*
X779620Y389358D01*
X779147Y388885D01*
X778891Y388267D01*
Y387599D01*
X779147Y386981D01*
X779620Y386508D01*
X779715Y386469D01*
X779763Y386440D01*
X779954Y386324D01*
X779764Y385366D01*
X779417Y385366D01*
X743572D01*
X743266Y385239D01*
X743139Y384933D01*
Y368569D01*
X742779Y368295D01*
X742215Y368079D01*
X740483Y369811D01*
Y408473D01*
X741073Y408728D01*
X741483Y408779D01*
X742006Y408256D01*
X742805Y407925D01*
X743670D01*
X744469Y408256D01*
X745080Y408867D01*
X745411Y409666D01*
Y410531D01*
X745080Y411330D01*
X744469Y411941D01*
X743670Y412272D01*
X742805D01*
X742478Y412136D01*
X741912Y412984D01*
X751950Y423022D01*
X756729D01*
X757088Y422022D01*
X756730Y421664D01*
X756399Y420865D01*
Y420001D01*
X756730Y419202D01*
X757152Y418780D01*
X757265Y418183D01*
X757152Y417587D01*
X756730Y417164D01*
X756399Y416365D01*
Y415501D01*
X756730Y414702D01*
X757152Y414280D01*
X757265Y413683D01*
X757152Y413087D01*
X756730Y412664D01*
X756399Y411865D01*
Y411001D01*
X756730Y410202D01*
X757152Y409780D01*
X757265Y409183D01*
X757152Y408587D01*
X756730Y408164D01*
X756399Y407365D01*
Y406501D01*
X756730Y405702D01*
X757341Y405091D01*
X758140Y404760D01*
X759004D01*
X759803Y405091D01*
X760226Y405513D01*
X760822Y405625D01*
X761419Y405513D01*
X761841Y405091D01*
X762640Y404760D01*
X763505D01*
X764303Y405091D01*
X764915Y405702D01*
X765245Y406501D01*
Y407365D01*
X764915Y408164D01*
X764303Y408776D01*
X763505Y409106D01*
X762640D01*
X761841Y408776D01*
X761419Y408353D01*
X760822Y408241D01*
X760330Y408333D01*
X759888Y409226D01*
X759992Y409780D01*
X760415Y410202D01*
X760745Y411001D01*
Y411865D01*
X760415Y412664D01*
X759992Y413087D01*
X759880Y413683D01*
X759992Y414280D01*
X760415Y414702D01*
X760745Y415501D01*
Y416365D01*
X760415Y417164D01*
X759992Y417587D01*
X759880Y418183D01*
X759992Y418780D01*
X760226Y419013D01*
X760822Y419125D01*
X761419Y419013D01*
X761841Y418591D01*
X762640Y418260D01*
X763505D01*
X764303Y418591D01*
X764726Y419013D01*
X765322Y419125D01*
X765919Y419013D01*
X766341Y418591D01*
X767140Y418260D01*
X768005D01*
X768803Y418591D01*
X769226Y419013D01*
X769822Y419125D01*
X770419Y419013D01*
X770841Y418591D01*
X771640Y418260D01*
X772505D01*
X773303Y418591D01*
X773726Y419013D01*
X774279Y419117D01*
X775172Y418676D01*
X775265Y418183D01*
X775152Y417587D01*
X774730Y417164D01*
X774399Y416365D01*
Y415501D01*
X774730Y414702D01*
X775152Y414280D01*
X775265Y413683D01*
X775152Y413087D01*
X774730Y412664D01*
X774399Y411865D01*
Y411001D01*
X774730Y410202D01*
X775152Y409780D01*
X775256Y409226D01*
X774815Y408333D01*
X774322Y408241D01*
X773726Y408353D01*
X773303Y408776D01*
X772505Y409106D01*
X771640D01*
X770841Y408776D01*
X770230Y408164D01*
X769899Y407365D01*
Y406501D01*
X770230Y405702D01*
X770841Y405091D01*
X771640Y404760D01*
X772505D01*
X773303Y405091D01*
X773726Y405513D01*
X774322Y405625D01*
X774919Y405513D01*
X775341Y405091D01*
X776140Y404760D01*
X777004D01*
X777803Y405091D01*
X778415Y405702D01*
X778745Y406501D01*
Y407365D01*
X778415Y408164D01*
X777992Y408587D01*
X777880Y409183D01*
X777992Y409780D01*
X778415Y410202D01*
X778745Y411001D01*
Y411865D01*
X778415Y412664D01*
X777992Y413087D01*
X777880Y413683D01*
X777992Y414280D01*
X778415Y414702D01*
X778745Y415501D01*
Y416365D01*
X778415Y417164D01*
X777992Y417587D01*
X777880Y418183D01*
X777992Y418780D01*
X778415Y419202D01*
X778745Y420001D01*
Y420865D01*
X778415Y421664D01*
X778057Y422022D01*
X778415Y423022D01*
X782000D01*
X782088Y422890D01*
D02*
G37*
G36*
X373317Y402106D02*
X373302Y402114D01*
X373274Y402120D01*
X373233Y402126D01*
X373111Y402136D01*
X372706Y402145D01*
X372571Y402146D01*
Y403721D01*
X373317Y403760D01*
Y402106D01*
D02*
G37*
G36*
X339817Y401106D02*
X339802Y401114D01*
X339774Y401121D01*
X339733Y401126D01*
X339611Y401136D01*
X339206Y401145D01*
X339071Y401146D01*
Y402720D01*
X339817Y402760D01*
Y401106D01*
D02*
G37*
G36*
X526192Y461796D02*
X526238Y461301D01*
X524310Y460838D01*
X522478Y460079D01*
X520787Y459043D01*
X519279Y457755D01*
X517991Y456247D01*
X516955Y454556D01*
X516196Y452724D01*
X515733Y450796D01*
X515578Y448819D01*
X515733Y446842D01*
X516196Y444914D01*
X516955Y443082D01*
X517991Y441391D01*
X519279Y439883D01*
X520787Y438595D01*
X522478Y437559D01*
X524310Y436800D01*
X526238Y436337D01*
X528215Y436181D01*
X530192Y436337D01*
X532120Y436800D01*
X533953Y437559D01*
X535643Y438595D01*
X537151Y439883D01*
X538439Y441391D01*
X539475Y443082D01*
X540234Y444914D01*
X540697Y446842D01*
X541192Y446796D01*
Y398681D01*
X494396Y398681D01*
Y412106D01*
X500105D01*
X501160Y413161D01*
Y420098D01*
X500577Y420681D01*
X481640D01*
X481640Y461796D01*
X526192D01*
D02*
G37*
G36*
X358148Y395614D02*
X356979Y394445D01*
X356974Y394460D01*
X356959Y394485D01*
X356934Y394518D01*
X356855Y394611D01*
X356575Y394904D01*
X356480Y395000D01*
X357593Y396113D01*
X358148Y395614D01*
D02*
G37*
G36*
X350148Y384752D02*
X350029Y384749D01*
X349914Y384738D01*
X349804Y384720D01*
X349697Y384693D01*
X349595Y384659D01*
X349498Y384616D01*
X349404Y384565D01*
X349315Y384507D01*
X349231Y384441D01*
X349150Y384366D01*
X348593Y384923D01*
X348668Y385003D01*
X348734Y385088D01*
X348793Y385177D01*
X348843Y385271D01*
X348886Y385368D01*
X348920Y385471D01*
X348947Y385577D01*
X348966Y385687D01*
X348976Y385802D01*
X348979Y385921D01*
X350148Y384752D01*
D02*
G37*
G36*
X433160Y461796D02*
X433160Y440366D01*
X433160Y422796D01*
X438771Y417185D01*
X491680D01*
X491680Y395185D01*
X491680Y376181D01*
X432408Y376181D01*
X426014Y369787D01*
Y336579D01*
X434408Y328185D01*
X492180Y328185D01*
Y286236D01*
X400660D01*
Y461796D01*
X433160D01*
D02*
G37*
G36*
X848132Y405047D02*
X807533D01*
Y379815D01*
X807526Y379810D01*
X807154Y379254D01*
X807024Y378598D01*
X807154Y377942D01*
X807526Y377386D01*
X807533Y377382D01*
Y370098D01*
X816737Y370098D01*
X816738Y361677D01*
X791237Y361677D01*
Y368433D01*
X789581D01*
X789264Y368820D01*
X789286Y368933D01*
X789156Y369589D01*
X788784Y370145D01*
X788228Y370517D01*
X787572Y370647D01*
X786916Y370517D01*
X786360Y370145D01*
X785989Y369589D01*
X785858Y368933D01*
X785881Y368820D01*
X785564Y368433D01*
X743572D01*
Y384933D01*
X780142D01*
X780291Y384433D01*
X779860Y384145D01*
X779489Y383589D01*
X779358Y382933D01*
X779489Y382277D01*
X779860Y381721D01*
X780250Y381461D01*
X780257Y381441D01*
Y380925D01*
X780250Y380905D01*
X779860Y380645D01*
X779489Y380089D01*
X779358Y379433D01*
X779489Y378777D01*
X779860Y378221D01*
X780250Y377961D01*
X780257Y377941D01*
Y377425D01*
X780250Y377405D01*
X779860Y377145D01*
X779489Y376589D01*
X779358Y375933D01*
X779489Y375277D01*
X779860Y374721D01*
X780416Y374349D01*
X781072Y374219D01*
X781728Y374349D01*
X782284Y374721D01*
X782656Y375277D01*
X782786Y375933D01*
X782656Y376589D01*
X782284Y377145D01*
X781895Y377405D01*
X781887Y377425D01*
Y377941D01*
X781895Y377961D01*
X782284Y378221D01*
X782656Y378777D01*
X782786Y379433D01*
X782656Y380089D01*
X782284Y380645D01*
X781895Y380905D01*
X781887Y380925D01*
Y381441D01*
X781895Y381461D01*
X782284Y381721D01*
X782656Y382277D01*
X782786Y382933D01*
X782656Y383589D01*
X782284Y384145D01*
X781853Y384433D01*
X782002Y384933D01*
X791238D01*
Y405047D01*
X782521Y405047D01*
X782521Y422890D01*
X810529D01*
X819190Y431551D01*
X848132D01*
Y405047D01*
D02*
G37*
G36*
X541192Y354181D02*
X481278Y354181D01*
Y372685D01*
X494396Y372685D01*
X494396Y389606D01*
X500605Y389606D01*
X501660Y390661D01*
X501660Y394685D01*
X520410Y394685D01*
X541192Y394685D01*
X541192Y354181D01*
D02*
G37*
G36*
X280987Y366776D02*
X279333D01*
X279341Y366791D01*
X279347Y366819D01*
X279353Y366860D01*
X279363Y366982D01*
X279372Y367387D01*
X279373Y367522D01*
X280947D01*
X280987Y366776D01*
D02*
G37*
G36*
X277487D02*
X275833D01*
X275841Y366791D01*
X275848Y366819D01*
X275853Y366860D01*
X275863Y366982D01*
X275872Y367387D01*
X275873Y367522D01*
X277448D01*
X277487Y366776D01*
D02*
G37*
G36*
X268487D02*
X266833D01*
X266841Y366791D01*
X266847Y366819D01*
X266853Y366860D01*
X266863Y366982D01*
X266872Y367387D01*
X266873Y367522D01*
X268447D01*
X268487Y366776D01*
D02*
G37*
G36*
X751229Y365606D02*
X751143Y365689D01*
X751054Y365762D01*
X750962Y365827D01*
X750868Y365883D01*
X750772Y365931D01*
X750673Y365970D01*
X750571Y366000D01*
X750466Y366022D01*
X750359Y366035D01*
X750250Y366039D01*
Y366827D01*
X750359Y366831D01*
X750466Y366844D01*
X750571Y366866D01*
X750673Y366896D01*
X750772Y366935D01*
X750868Y366983D01*
X750962Y367039D01*
X751054Y367104D01*
X751143Y367178D01*
X751229Y367260D01*
Y365606D01*
D02*
G37*
G36*
X287148Y364752D02*
X287029Y364749D01*
X286914Y364738D01*
X286804Y364720D01*
X286698Y364693D01*
X286596Y364659D01*
X286498Y364616D01*
X286404Y364565D01*
X286315Y364507D01*
X286230Y364441D01*
X286150Y364366D01*
X285593Y364923D01*
X285668Y365003D01*
X285734Y365088D01*
X285792Y365177D01*
X285843Y365271D01*
X285886Y365369D01*
X285920Y365471D01*
X285947Y365577D01*
X285966Y365687D01*
X285976Y365802D01*
X285979Y365921D01*
X287148Y364752D01*
D02*
G37*
G36*
X751229Y362106D02*
X751143Y362189D01*
X751054Y362262D01*
X750962Y362327D01*
X750868Y362384D01*
X750772Y362431D01*
X750673Y362470D01*
X750571Y362500D01*
X750466Y362522D01*
X750359Y362535D01*
X750250Y362539D01*
Y363327D01*
X750359Y363331D01*
X750466Y363344D01*
X750571Y363366D01*
X750673Y363396D01*
X750772Y363435D01*
X750868Y363483D01*
X750962Y363539D01*
X751054Y363604D01*
X751143Y363678D01*
X751229Y363760D01*
Y362106D01*
D02*
G37*
G36*
X478562Y372685D02*
X478562Y359260D01*
X472853D01*
X471987Y360126D01*
X456426D01*
X455160Y358860D01*
X455160Y354453D01*
X456180Y353433D01*
X471660Y353433D01*
X472660Y352433D01*
X478562Y352433D01*
Y336760D01*
X472853D01*
X471987Y337626D01*
X456426D01*
X455160Y336360D01*
X455160Y334021D01*
X455160Y332035D01*
X454807Y331681D01*
X434912Y331681D01*
X429160Y337433D01*
X429160Y367933D01*
X433912Y372685D01*
X478562Y372685D01*
D02*
G37*
G36*
X754729Y358606D02*
X754642Y358689D01*
X754554Y358762D01*
X754462Y358827D01*
X754368Y358884D01*
X754272Y358931D01*
X754173Y358970D01*
X754071Y359000D01*
X753967Y359022D01*
X753860Y359035D01*
X753750Y359039D01*
Y359827D01*
X753860Y359831D01*
X753967Y359844D01*
X754071Y359866D01*
X754173Y359896D01*
X754272Y359935D01*
X754368Y359983D01*
X754462Y360039D01*
X754554Y360104D01*
X754642Y360178D01*
X754729Y360260D01*
Y358606D01*
D02*
G37*
G36*
X770317Y358503D02*
X770243Y358415D01*
X770178Y358323D01*
X770122Y358229D01*
X770074Y358133D01*
X770035Y358033D01*
X770005Y357932D01*
X769983Y357827D01*
X769970Y357720D01*
X769966Y357611D01*
X769178D01*
X769174Y357720D01*
X769161Y357827D01*
X769139Y357932D01*
X769109Y358033D01*
X769070Y358133D01*
X769023Y358229D01*
X768966Y358323D01*
X768901Y358415D01*
X768828Y358503D01*
X768745Y358590D01*
X770399D01*
X770317Y358503D01*
D02*
G37*
G36*
X766817D02*
X766743Y358415D01*
X766678Y358323D01*
X766622Y358229D01*
X766574Y358133D01*
X766535Y358033D01*
X766505Y357932D01*
X766483Y357827D01*
X766470Y357720D01*
X766466Y357611D01*
X765679D01*
X765674Y357720D01*
X765661Y357827D01*
X765639Y357932D01*
X765609Y358033D01*
X765570Y358133D01*
X765523Y358229D01*
X765466Y358323D01*
X765401Y358415D01*
X765328Y358503D01*
X765245Y358590D01*
X766899D01*
X766817Y358503D01*
D02*
G37*
G36*
X763317D02*
X763243Y358415D01*
X763178Y358323D01*
X763122Y358229D01*
X763074Y358133D01*
X763035Y358033D01*
X763005Y357932D01*
X762983Y357827D01*
X762970Y357720D01*
X762966Y357611D01*
X762179D01*
X762174Y357720D01*
X762161Y357827D01*
X762140Y357932D01*
X762109Y358033D01*
X762070Y358133D01*
X762023Y358229D01*
X761966Y358323D01*
X761901Y358415D01*
X761828Y358503D01*
X761745Y358590D01*
X763399D01*
X763317Y358503D01*
D02*
G37*
G36*
X759817D02*
X759743Y358415D01*
X759678Y358323D01*
X759622Y358229D01*
X759574Y358133D01*
X759535Y358033D01*
X759505Y357932D01*
X759483Y357827D01*
X759470Y357720D01*
X759466Y357611D01*
X758678D01*
X758674Y357720D01*
X758661Y357827D01*
X758639Y357932D01*
X758609Y358033D01*
X758570Y358133D01*
X758523Y358229D01*
X758466Y358323D01*
X758401Y358415D01*
X758328Y358503D01*
X758245Y358590D01*
X759899D01*
X759817Y358503D01*
D02*
G37*
G36*
X313750Y350466D02*
X313676Y350386D01*
X313610Y350302D01*
X313550Y350213D01*
X313498Y350120D01*
X313454Y350022D01*
X313416Y349920D01*
X313386Y349813D01*
X313364Y349702D01*
X313348Y349587D01*
X313340Y349467D01*
X312225Y350687D01*
X312343Y350685D01*
X312456Y350691D01*
X312566Y350706D01*
X312672Y350729D01*
X312773Y350761D01*
X312871Y350802D01*
X312964Y350851D01*
X313054Y350909D01*
X313139Y350975D01*
X313220Y351050D01*
X313750Y350466D01*
D02*
G37*
G36*
X286062Y348965D02*
X286085Y348831D01*
X286125Y348713D01*
X286180Y348610D01*
X286251Y348524D01*
X286337Y348453D01*
X286440Y348398D01*
X286558Y348358D01*
X286692Y348335D01*
X286841Y348327D01*
Y347539D01*
X286692Y347532D01*
X286558Y347508D01*
X286440Y347468D01*
X286337Y347413D01*
X286251Y347342D01*
X286180Y347256D01*
X286125Y347153D01*
X286085Y347035D01*
X286062Y346902D01*
X286054Y346752D01*
X285266Y347933D01*
X286054Y349114D01*
X286062Y348965D01*
D02*
G37*
G36*
X313817Y346606D02*
X313730Y346689D01*
X313642Y346762D01*
X313550Y346827D01*
X313456Y346884D01*
X313360Y346931D01*
X313261Y346970D01*
X313159Y347000D01*
X313054Y347022D01*
X312947Y347035D01*
X312838Y347039D01*
Y347827D01*
X312947Y347831D01*
X313054Y347844D01*
X313159Y347866D01*
X313261Y347896D01*
X313360Y347935D01*
X313456Y347983D01*
X313550Y348039D01*
X313642Y348104D01*
X313730Y348178D01*
X313817Y348260D01*
Y346606D01*
D02*
G37*
G36*
X370211Y345638D02*
Y334787D01*
X369858Y334433D01*
X359109Y334433D01*
Y345638D01*
X370211D01*
X370211Y345638D01*
D02*
G37*
G36*
X262590Y332178D02*
X262679Y332104D01*
X262770Y332039D01*
X262864Y331983D01*
X262961Y331935D01*
X263060Y331896D01*
X263161Y331866D01*
X263266Y331844D01*
X263373Y331831D01*
X263482Y331827D01*
Y331039D01*
X263373Y331035D01*
X263266Y331022D01*
X263161Y331000D01*
X263060Y330970D01*
X262961Y330931D01*
X262864Y330884D01*
X262770Y330827D01*
X262679Y330762D01*
X262590Y330689D01*
X262504Y330606D01*
Y332260D01*
X262590Y332178D01*
D02*
G37*
G36*
X280995Y329098D02*
X280791Y328860D01*
X280643Y328612D01*
X280552Y328354D01*
X280517Y328085D01*
X280539Y327807D01*
X280618Y327518D01*
X280754Y327219D01*
X280946Y326911D01*
X281195Y326592D01*
X281501Y326263D01*
X279341Y325082D01*
X279000Y325399D01*
X278645Y325683D01*
X278277Y325934D01*
X277894Y326151D01*
X277498Y326334D01*
X277088Y326485D01*
X276664Y326602D01*
X276226Y326685D01*
X275774Y326735D01*
X275309Y326752D01*
Y329114D01*
X275774Y329131D01*
X276225Y329180D01*
X276662Y329263D01*
X277085Y329379D01*
X277494Y329528D01*
X277888Y329710D01*
X278269Y329925D01*
X278635Y330173D01*
X278987Y330454D01*
X279325Y330768D01*
X280995Y329098D01*
D02*
G37*
G36*
X253865Y331028D02*
X253936Y330626D01*
X254054Y330272D01*
X254219Y329965D01*
X254432Y329705D01*
X254692Y329492D01*
X254999Y329327D01*
X255353Y329209D01*
X255755Y329138D01*
X256203Y329114D01*
Y326752D01*
X255755Y326728D01*
X255353Y326658D01*
X254999Y326539D01*
X254692Y326374D01*
X254432Y326161D01*
X254219Y325902D01*
X254054Y325594D01*
X253936Y325240D01*
X253865Y324839D01*
X253841Y324390D01*
X251479Y327933D01*
X253841Y331476D01*
X253865Y331028D01*
D02*
G37*
G36*
X272442Y323539D02*
X272402Y323480D01*
X272366Y323412D01*
X272336Y323336D01*
X272310Y323252D01*
X272288Y323159D01*
X272272Y323057D01*
X272260Y322947D01*
X272251Y322702D01*
X271070D01*
X271067Y322829D01*
X271048Y323057D01*
X271032Y323159D01*
X271010Y323252D01*
X270985Y323336D01*
X270954Y323412D01*
X270918Y323480D01*
X270878Y323539D01*
X270833Y323590D01*
X272487D01*
X272442Y323539D01*
D02*
G37*
G36*
X260442D02*
X260402Y323480D01*
X260366Y323412D01*
X260336Y323336D01*
X260310Y323252D01*
X260289Y323159D01*
X260272Y323057D01*
X260260Y322947D01*
X260251Y322702D01*
X259070D01*
X259067Y322829D01*
X259048Y323057D01*
X259032Y323159D01*
X259011Y323252D01*
X258984Y323336D01*
X258954Y323412D01*
X258918Y323480D01*
X258878Y323539D01*
X258833Y323590D01*
X260487D01*
X260442Y323539D01*
D02*
G37*
G36*
X848132Y403933D02*
Y321933D01*
Y321366D01*
X834505D01*
Y330933D01*
X834505Y369933D01*
X834378Y370239D01*
X834072Y370366D01*
X818960D01*
X818572Y370366D01*
X818572Y370366D01*
X818266Y370239D01*
X818139Y369933D01*
X817171Y370009D01*
Y370098D01*
X817044Y370405D01*
X816737Y370531D01*
X807966Y370531D01*
Y376625D01*
X808403Y376917D01*
X809072D01*
X809690Y377173D01*
X809730Y377213D01*
X810163Y377646D01*
X810419Y378264D01*
Y378933D01*
X810163Y379551D01*
X809730Y379984D01*
X809690Y380024D01*
X809072Y380279D01*
X808403D01*
X807966Y380572D01*
Y404614D01*
X848132D01*
Y403933D01*
D02*
G37*
G36*
X369468Y317998D02*
X369589Y317899D01*
X369715Y317812D01*
X369846Y317737D01*
X369981Y317673D01*
X370121Y317621D01*
X370266Y317581D01*
X370415Y317552D01*
X370569Y317534D01*
X370728Y317528D01*
X370731Y316347D01*
X370573Y316341D01*
X370419Y316324D01*
X370269Y316295D01*
X370125Y316254D01*
X369985Y316202D01*
X369850Y316138D01*
X369720Y316062D01*
X369595Y315975D01*
X369474Y315876D01*
X369358Y315765D01*
X369352Y318108D01*
X369468Y317998D01*
D02*
G37*
G36*
X834072Y330933D02*
Y320933D01*
X848132D01*
Y312933D01*
X829072D01*
X818572Y323433D01*
Y330933D01*
X818572Y369933D01*
X834072D01*
X834072Y330933D01*
D02*
G37*
G36*
X275293Y326319D02*
X275743Y326303D01*
X276161Y326257D01*
X276566Y326180D01*
X276955Y326072D01*
X277332Y325934D01*
X277696Y325765D01*
X278048Y325566D01*
X278388Y325334D01*
X278717Y325071D01*
X279046Y324765D01*
X279050Y324763D01*
X292020Y311793D01*
X292543Y311444D01*
X293160Y311321D01*
X304018D01*
X304390Y311073D01*
X305042Y310943D01*
X304944Y309943D01*
X279078D01*
X272670Y316351D01*
Y322656D01*
X272683Y322685D01*
X272692Y322916D01*
X272701Y322999D01*
X272714Y323076D01*
X272724Y323119D01*
X273085Y323481D01*
X273341Y324099D01*
Y324767D01*
X273085Y325385D01*
X273564Y326321D01*
X275289D01*
X275293Y326319D01*
D02*
G37*
G36*
X541192Y350185D02*
Y301236D01*
X540697Y301189D01*
X540234Y303118D01*
X539475Y304950D01*
X538439Y306641D01*
X537151Y308149D01*
X535643Y309436D01*
X533953Y310473D01*
X532120Y311231D01*
X530192Y311694D01*
X528215Y311850D01*
X526238Y311694D01*
X524310Y311231D01*
X522478Y310473D01*
X520787Y309436D01*
X519279Y308149D01*
X517991Y306641D01*
X516955Y304950D01*
X516196Y303118D01*
X515733Y301189D01*
X515578Y299213D01*
X515733Y297236D01*
X516196Y295307D01*
X516955Y293475D01*
X517991Y291785D01*
X519279Y290277D01*
X520787Y288989D01*
X522478Y287953D01*
X524310Y287194D01*
X526238Y286731D01*
X526192Y286236D01*
X494896D01*
Y286898D01*
X494896Y323106D01*
X500605D01*
X501660Y324161D01*
Y330236D01*
X500215Y331681D01*
X481278D01*
Y350185D01*
X541192Y350185D01*
D02*
G37*
G36*
X275365Y297528D02*
X275436Y297126D01*
X275554Y296772D01*
X275719Y296465D01*
X275932Y296205D01*
X276192Y295992D01*
X276499Y295827D01*
X276853Y295709D01*
X277255Y295638D01*
X277703Y295614D01*
X274160Y293252D01*
X270617Y295614D01*
X271066Y295638D01*
X271467Y295709D01*
X271821Y295827D01*
X272129Y295992D01*
X272389Y296205D01*
X272601Y296465D01*
X272766Y296772D01*
X272884Y297126D01*
X272955Y297528D01*
X272979Y297976D01*
X275341D01*
X275365Y297528D01*
D02*
G37*
G36*
X263365D02*
X263436Y297126D01*
X263554Y296772D01*
X263719Y296465D01*
X263932Y296205D01*
X264192Y295992D01*
X264499Y295827D01*
X264853Y295709D01*
X265255Y295638D01*
X265703Y295614D01*
X262160Y293252D01*
X258617Y295614D01*
X259066Y295638D01*
X259467Y295709D01*
X259822Y295827D01*
X260129Y295992D01*
X260388Y296205D01*
X260601Y296465D01*
X260766Y296772D01*
X260884Y297126D01*
X260955Y297528D01*
X260979Y297976D01*
X263341D01*
X263365Y297528D01*
D02*
G37*
G36*
X284227Y461796D02*
Y444366D01*
X262660D01*
X262354Y444239D01*
X262227Y443933D01*
Y420433D01*
X262354Y420127D01*
X262660Y420000D01*
X272096D01*
X272295Y419000D01*
X272054Y418900D01*
X271443Y418289D01*
X271112Y417490D01*
Y416626D01*
X271443Y415827D01*
X271673Y415597D01*
Y393726D01*
X251520Y373573D01*
X251171Y373050D01*
X251048Y372433D01*
Y327933D01*
Y296933D01*
X251171Y296316D01*
X251520Y295793D01*
X254020Y293293D01*
X254543Y292944D01*
X255160Y292821D01*
X288367D01*
X288764Y291821D01*
X288491Y291548D01*
X288192Y290825D01*
Y290041D01*
X288491Y289318D01*
X289045Y288764D01*
X289769Y288465D01*
X290552D01*
X291275Y288764D01*
X291829Y289318D01*
X292129Y290041D01*
Y290825D01*
X291829Y291548D01*
X291556Y291821D01*
X291953Y292821D01*
X292776D01*
X293393Y292944D01*
X293916Y293293D01*
X295300Y294677D01*
X295650Y295200D01*
X295772Y295817D01*
Y298432D01*
X295841Y298599D01*
Y299268D01*
X295585Y299885D01*
X295112Y300358D01*
X294495Y300614D01*
X293826D01*
X293208Y300358D01*
X292735Y299885D01*
X292479Y299268D01*
Y298599D01*
X292548Y298432D01*
Y296485D01*
X292109Y296045D01*
X277729D01*
X277726Y296046D01*
X277304Y296069D01*
X276960Y296129D01*
X276671Y296226D01*
X276433Y296354D01*
X276239Y296512D01*
X276081Y296707D01*
X275953Y296944D01*
X275856Y297233D01*
X275796Y297577D01*
X275774Y297999D01*
X275772Y298002D01*
Y299932D01*
X275841Y300099D01*
Y300767D01*
X275585Y301385D01*
X275112Y301858D01*
X274495Y302114D01*
X273826D01*
X273208Y301858D01*
X272735Y301385D01*
X272479Y300767D01*
Y300099D01*
X272548Y299932D01*
Y298002D01*
X272547Y297999D01*
X272524Y297577D01*
X272464Y297233D01*
X272368Y296944D01*
X272240Y296707D01*
X272081Y296512D01*
X271887Y296354D01*
X271649Y296226D01*
X271361Y296129D01*
X271016Y296069D01*
X270594Y296046D01*
X270591Y296045D01*
X265729D01*
X265726Y296046D01*
X265304Y296069D01*
X264960Y296129D01*
X264671Y296226D01*
X264434Y296354D01*
X264239Y296512D01*
X264081Y296707D01*
X263953Y296944D01*
X263857Y297233D01*
X263796Y297577D01*
X263774Y297999D01*
X263772Y298002D01*
Y299932D01*
X263841Y300099D01*
Y300767D01*
X263585Y301385D01*
X263112Y301858D01*
X262494Y302114D01*
X261826D01*
X261208Y301858D01*
X260735Y301385D01*
X260479Y300767D01*
Y300099D01*
X260548Y299932D01*
Y298002D01*
X260547Y297999D01*
X260524Y297577D01*
X260464Y297233D01*
X260367Y296944D01*
X260240Y296707D01*
X260081Y296512D01*
X259887Y296354D01*
X259649Y296226D01*
X259361Y296129D01*
X259016Y296069D01*
X258594Y296046D01*
X258591Y296045D01*
X255828D01*
X254272Y297601D01*
Y324364D01*
X254274Y324367D01*
X254296Y324789D01*
X254357Y325133D01*
X254453Y325422D01*
X254581Y325660D01*
X254739Y325854D01*
X254934Y326013D01*
X255171Y326140D01*
X255460Y326237D01*
X255804Y326297D01*
X256226Y326320D01*
X256229Y326321D01*
X257756D01*
X258235Y325385D01*
X257979Y324767D01*
Y324099D01*
X258235Y323481D01*
X258597Y323119D01*
X258607Y323076D01*
X258618Y323005D01*
X258635Y322807D01*
X258637Y322693D01*
X258650Y322663D01*
Y315933D01*
X258650Y315933D01*
X258727Y315547D01*
X258946Y315219D01*
X268946Y305219D01*
X269274Y305000D01*
X269660Y304923D01*
X368160D01*
X368547Y305000D01*
X368874Y305219D01*
X391374Y327719D01*
X391593Y328047D01*
X391670Y328433D01*
Y415341D01*
X392179Y415745D01*
X393160Y415309D01*
Y286236D01*
X232089D01*
X230403Y286458D01*
X228760Y286898D01*
X227188Y287549D01*
X225715Y288400D01*
X224365Y289435D01*
X223162Y290638D01*
X222127Y291988D01*
X221276Y293461D01*
X220625Y295032D01*
X220185Y296675D01*
X219963Y298362D01*
Y299213D01*
X219963Y448819D01*
X219963Y449669D01*
X220185Y451356D01*
X220625Y452999D01*
X221276Y454571D01*
X222127Y456044D01*
X223162Y457393D01*
X224365Y458596D01*
X225715Y459632D01*
X227188Y460482D01*
X228759Y461133D01*
X230403Y461574D01*
X232089Y461796D01*
X232940D01*
X284227D01*
D02*
G37*
%LPC*%
G36*
X810820Y456933D02*
X807572D01*
Y453685D01*
X808520Y453939D01*
X809375Y454432D01*
X810073Y455130D01*
X810567Y455986D01*
X810820Y456933D01*
D02*
G37*
G36*
X806572D02*
X803324D01*
X803578Y455986D01*
X804071Y455130D01*
X804770Y454432D01*
X805625Y453939D01*
X806572Y453685D01*
Y456933D01*
D02*
G37*
G36*
X800821D02*
X797572D01*
Y453685D01*
X798520Y453939D01*
X799375Y454432D01*
X800073Y455130D01*
X800567Y455986D01*
X800821Y456933D01*
D02*
G37*
G36*
X796572D02*
X793324D01*
X793578Y455986D01*
X794071Y455130D01*
X794770Y454432D01*
X795625Y453939D01*
X796572Y453685D01*
Y456933D01*
D02*
G37*
G36*
X790821D02*
X787572D01*
Y453685D01*
X788520Y453939D01*
X789375Y454432D01*
X790073Y455130D01*
X790567Y455986D01*
X790821Y456933D01*
D02*
G37*
G36*
X786572D02*
X783324D01*
X783578Y455986D01*
X784071Y455130D01*
X784770Y454432D01*
X785625Y453939D01*
X786572Y453685D01*
Y456933D01*
D02*
G37*
G36*
X780821D02*
X777572D01*
Y453685D01*
X778520Y453939D01*
X779375Y454432D01*
X780073Y455130D01*
X780567Y455986D01*
X780821Y456933D01*
D02*
G37*
G36*
X776572D02*
X773324D01*
X773578Y455986D01*
X774071Y455130D01*
X774770Y454432D01*
X775625Y453939D01*
X776572Y453685D01*
Y456933D01*
D02*
G37*
G36*
X770821D02*
X767572D01*
Y453685D01*
X768520Y453939D01*
X769375Y454432D01*
X770073Y455130D01*
X770567Y455986D01*
X770821Y456933D01*
D02*
G37*
G36*
X766572D02*
X763324D01*
X763578Y455986D01*
X764071Y455130D01*
X764770Y454432D01*
X765625Y453939D01*
X766572Y453685D01*
Y456933D01*
D02*
G37*
G36*
X760820D02*
X757572D01*
Y453685D01*
X758520Y453939D01*
X759375Y454432D01*
X760073Y455130D01*
X760567Y455986D01*
X760820Y456933D01*
D02*
G37*
G36*
X756572D02*
X753324D01*
X753578Y455986D01*
X754071Y455130D01*
X754770Y454432D01*
X755625Y453939D01*
X756572Y453685D01*
Y456933D01*
D02*
G37*
G36*
X750822D02*
X747572D01*
Y453683D01*
X750822D01*
Y456933D01*
D02*
G37*
G36*
X746572D02*
X743322D01*
Y453683D01*
X746572D01*
Y456933D01*
D02*
G37*
G36*
X739362Y458813D02*
X732263D01*
Y449352D01*
X739362D01*
Y458813D01*
D02*
G37*
G36*
X706882D02*
X699782D01*
Y449352D01*
X706882D01*
Y458813D01*
D02*
G37*
G36*
X807553Y451083D02*
X806592D01*
X805663Y450834D01*
X804831Y450354D01*
X804152Y449674D01*
X803671Y448842D01*
X803422Y447914D01*
Y446952D01*
X803671Y446024D01*
X804152Y445192D01*
X804831Y444512D01*
X805663Y444032D01*
X806592Y443783D01*
X807553D01*
X808481Y444032D01*
X809313Y444512D01*
X809993Y445192D01*
X810473Y446024D01*
X810722Y446952D01*
Y447914D01*
X810473Y448842D01*
X809993Y449674D01*
X809313Y450354D01*
X808481Y450834D01*
X807553Y451083D01*
D02*
G37*
G36*
X797553D02*
X796592D01*
X795663Y450834D01*
X794831Y450354D01*
X794151Y449674D01*
X793671Y448842D01*
X793422Y447914D01*
Y446952D01*
X793671Y446024D01*
X794151Y445192D01*
X794831Y444512D01*
X795663Y444032D01*
X796592Y443783D01*
X797553D01*
X798481Y444032D01*
X799313Y444512D01*
X799993Y445192D01*
X800473Y446024D01*
X800722Y446952D01*
Y447914D01*
X800473Y448842D01*
X799993Y449674D01*
X799313Y450354D01*
X798481Y450834D01*
X797553Y451083D01*
D02*
G37*
G36*
X787553D02*
X786592D01*
X785663Y450834D01*
X784831Y450354D01*
X784152Y449674D01*
X783671Y448842D01*
X783422Y447914D01*
Y446952D01*
X783671Y446024D01*
X784152Y445192D01*
X784831Y444512D01*
X785663Y444032D01*
X786592Y443783D01*
X787553D01*
X788481Y444032D01*
X789313Y444512D01*
X789993Y445192D01*
X790473Y446024D01*
X790722Y446952D01*
Y447914D01*
X790473Y448842D01*
X789993Y449674D01*
X789313Y450354D01*
X788481Y450834D01*
X787553Y451083D01*
D02*
G37*
G36*
X777553D02*
X776592D01*
X775663Y450834D01*
X774831Y450354D01*
X774152Y449674D01*
X773671Y448842D01*
X773422Y447914D01*
Y446952D01*
X773671Y446024D01*
X774152Y445192D01*
X774831Y444512D01*
X775663Y444032D01*
X776592Y443783D01*
X777553D01*
X778481Y444032D01*
X779313Y444512D01*
X779993Y445192D01*
X780473Y446024D01*
X780722Y446952D01*
Y447914D01*
X780473Y448842D01*
X779993Y449674D01*
X779313Y450354D01*
X778481Y450834D01*
X777553Y451083D01*
D02*
G37*
G36*
X767553D02*
X766592D01*
X765663Y450834D01*
X764831Y450354D01*
X764151Y449674D01*
X763671Y448842D01*
X763422Y447914D01*
Y446952D01*
X763671Y446024D01*
X764151Y445192D01*
X764831Y444512D01*
X765663Y444032D01*
X766592Y443783D01*
X767553D01*
X768481Y444032D01*
X769313Y444512D01*
X769993Y445192D01*
X770473Y446024D01*
X770722Y446952D01*
Y447914D01*
X770473Y448842D01*
X769993Y449674D01*
X769313Y450354D01*
X768481Y450834D01*
X767553Y451083D01*
D02*
G37*
G36*
X757553D02*
X756592D01*
X755663Y450834D01*
X754831Y450354D01*
X754151Y449674D01*
X753671Y448842D01*
X753422Y447914D01*
Y446952D01*
X753671Y446024D01*
X754151Y445192D01*
X754831Y444512D01*
X755663Y444032D01*
X756592Y443783D01*
X757553D01*
X758481Y444032D01*
X759313Y444512D01*
X759993Y445192D01*
X760473Y446024D01*
X760722Y446952D01*
Y447914D01*
X760473Y448842D01*
X759993Y449674D01*
X759313Y450354D01*
X758481Y450834D01*
X757553Y451083D01*
D02*
G37*
G36*
X747553D02*
X746592D01*
X745663Y450834D01*
X744831Y450354D01*
X744151Y449674D01*
X743671Y448842D01*
X743422Y447914D01*
Y446952D01*
X743671Y446024D01*
X744151Y445192D01*
X744831Y444512D01*
X745663Y444032D01*
X746592Y443783D01*
X747553D01*
X748481Y444032D01*
X749313Y444512D01*
X749993Y445192D01*
X750473Y446024D01*
X750722Y446952D01*
Y447914D01*
X750473Y448842D01*
X749993Y449674D01*
X749313Y450354D01*
X748481Y450834D01*
X747553Y451083D01*
D02*
G37*
G36*
X702907Y442114D02*
X702238D01*
X701620Y441858D01*
X701147Y441385D01*
X700891Y440767D01*
Y440099D01*
X701147Y439481D01*
X701620Y439008D01*
X702238Y438752D01*
X702907D01*
X703524Y439008D01*
X703997Y439481D01*
X704253Y440099D01*
Y440767D01*
X703997Y441385D01*
X703524Y441858D01*
X702907Y442114D01*
D02*
G37*
G36*
X757553Y441083D02*
X756592D01*
X755663Y440834D01*
X754831Y440354D01*
X754151Y439674D01*
X753671Y438842D01*
X753422Y437914D01*
Y436952D01*
X753671Y436024D01*
X754151Y435192D01*
X754831Y434512D01*
X755663Y434032D01*
X756592Y433783D01*
X757553D01*
X758481Y434032D01*
X759313Y434512D01*
X759993Y435192D01*
X760473Y436024D01*
X760722Y436952D01*
Y437914D01*
X760473Y438842D01*
X759993Y439674D01*
X759313Y440354D01*
X758481Y440834D01*
X757553Y441083D01*
D02*
G37*
G36*
X747553D02*
X746592D01*
X745663Y440834D01*
X744831Y440354D01*
X744151Y439674D01*
X743671Y438842D01*
X743422Y437914D01*
Y436952D01*
X743671Y436024D01*
X744151Y435192D01*
X744831Y434512D01*
X745663Y434032D01*
X746592Y433783D01*
X747553D01*
X748481Y434032D01*
X749313Y434512D01*
X749993Y435192D01*
X750473Y436024D01*
X750722Y436952D01*
Y437914D01*
X750473Y438842D01*
X749993Y439674D01*
X749313Y440354D01*
X748481Y440834D01*
X747553Y441083D01*
D02*
G37*
G36*
X728732Y445034D02*
X725176D01*
Y437147D01*
X725774D01*
X725786Y437141D01*
X725847Y437134D01*
X725848Y437134D01*
X725849Y437133D01*
X725862Y437119D01*
X725887Y437078D01*
X725901Y437042D01*
Y435140D01*
X725647Y434885D01*
X725391Y434268D01*
Y433599D01*
X725647Y432981D01*
X726120Y432508D01*
X726738Y432252D01*
X727407D01*
X728024Y432508D01*
X728497Y432981D01*
X728753Y433599D01*
Y434268D01*
X728497Y434885D01*
X728125Y435258D01*
Y437042D01*
X728140Y437078D01*
X728164Y437119D01*
X728177Y437133D01*
X728178Y437134D01*
X728179Y437134D01*
X728240Y437141D01*
X728252Y437147D01*
X728732D01*
Y445034D01*
D02*
G37*
G36*
X723811D02*
X720255D01*
Y437147D01*
X720814D01*
X720826Y437141D01*
X720887Y437134D01*
X720887Y437134D01*
X720888Y437133D01*
X720901Y437119D01*
X720926Y437078D01*
X720941Y437042D01*
Y435179D01*
X720647Y434885D01*
X720391Y434268D01*
Y433599D01*
X720647Y432981D01*
X721120Y432508D01*
X721738Y432252D01*
X722407D01*
X723024Y432508D01*
X723497Y432981D01*
X723753Y433599D01*
Y434268D01*
X723497Y434885D01*
X723164Y435218D01*
Y437042D01*
X723179Y437078D01*
X723204Y437119D01*
X723217Y437133D01*
X723218Y437134D01*
X723218Y437134D01*
X723279Y437141D01*
X723291Y437147D01*
X723811D01*
Y445034D01*
D02*
G37*
G36*
X718890D02*
X715334D01*
Y438147D01*
X715334Y437684D01*
X715329Y437678D01*
X715330Y437601D01*
X715313Y437559D01*
X715334Y437147D01*
X715579Y436158D01*
Y434720D01*
X715391Y434268D01*
Y433599D01*
X715647Y432981D01*
X716120Y432508D01*
X716738Y432252D01*
X717407D01*
X718024Y432508D01*
X718497Y432981D01*
X718753Y433599D01*
Y434268D01*
X718605Y434625D01*
Y436997D01*
X718635Y437115D01*
X718647Y437147D01*
X718890Y437147D01*
X718911Y437559D01*
X718896Y437595D01*
X718897Y437668D01*
X718890Y437677D01*
Y445034D01*
D02*
G37*
G36*
X713968D02*
X710412D01*
Y438147D01*
X710412Y437692D01*
X710412Y437692D01*
X710412Y437609D01*
X710391Y437559D01*
X710412Y437147D01*
X710618Y436151D01*
Y434815D01*
X710391Y434268D01*
Y433599D01*
X710647Y432981D01*
X711120Y432508D01*
X711738Y432252D01*
X712407D01*
X713024Y432508D01*
X713497Y432981D01*
X713753Y433599D01*
Y434268D01*
X713645Y434530D01*
Y436951D01*
X713648Y436971D01*
X713685Y437104D01*
X713703Y437147D01*
X713968Y437147D01*
X713989Y437559D01*
X713976Y437590D01*
X713978Y437658D01*
X713968Y437672D01*
Y445034D01*
D02*
G37*
G36*
X688303Y425565D02*
X678841D01*
Y418466D01*
X688303D01*
Y425565D01*
D02*
G37*
G36*
X693033Y414956D02*
X692621Y414935D01*
X691635Y414671D01*
X690812D01*
X690407Y414839D01*
X689738D01*
X689333Y414671D01*
X686805D01*
X686400Y414839D01*
X685731D01*
X685113Y414583D01*
X684640Y414110D01*
X684384Y413492D01*
Y412823D01*
X684640Y412205D01*
X685113Y411732D01*
X685731Y411476D01*
X686400D01*
X686805Y411644D01*
X689333D01*
X689738Y411476D01*
X690407D01*
X690812Y411644D01*
X692493D01*
X692594Y411620D01*
X692621Y411611D01*
X692621Y411379D01*
X693033Y411358D01*
X693072Y411375D01*
X693146Y411374D01*
X693154Y411379D01*
X700508D01*
Y414935D01*
X693621D01*
X693154Y414935D01*
X693147Y414941D01*
X693072Y414941D01*
X693033Y414956D01*
D02*
G37*
G36*
X700508Y395250D02*
X692621D01*
Y391694D01*
X700508D01*
Y395250D01*
D02*
G37*
G36*
Y390329D02*
X692621D01*
Y386773D01*
X700508D01*
Y390329D01*
D02*
G37*
G36*
Y385408D02*
X692621D01*
Y381852D01*
X700508D01*
Y385408D01*
D02*
G37*
G36*
X700608Y380587D02*
X697064D01*
Y379209D01*
X700608D01*
Y380587D01*
D02*
G37*
G36*
X696064D02*
X692521D01*
Y379209D01*
X696064D01*
Y380587D01*
D02*
G37*
G36*
X725004Y382106D02*
X724140D01*
X723341Y381775D01*
X722730Y381164D01*
X722399Y380365D01*
Y379501D01*
X722730Y378702D01*
X723341Y378091D01*
X724140Y377760D01*
X725004D01*
X725803Y378091D01*
X726415Y378702D01*
X726745Y379501D01*
Y380365D01*
X726415Y381164D01*
X725803Y381775D01*
X725004Y382106D01*
D02*
G37*
G36*
X700608Y378209D02*
X697064D01*
Y376831D01*
X700608D01*
Y378209D01*
D02*
G37*
G36*
X696064D02*
X692521D01*
Y376831D01*
X696064D01*
Y378209D01*
D02*
G37*
G36*
X688303Y373400D02*
X678841D01*
Y366301D01*
X688303D01*
Y373400D01*
D02*
G37*
G36*
X700508Y410014D02*
X692621D01*
Y406458D01*
X700508D01*
Y406800D01*
X701508Y407035D01*
X709038Y399505D01*
Y365544D01*
X708038Y365114D01*
X707606Y365522D01*
Y398433D01*
X707606Y398433D01*
X707527Y398829D01*
X707303Y399164D01*
X707303Y399164D01*
X702421Y404046D01*
X702086Y404270D01*
X701690Y404349D01*
X700533D01*
X700517Y404358D01*
X700514Y404389D01*
X700508Y404401D01*
Y405093D01*
X692621D01*
Y401537D01*
X700508D01*
Y401688D01*
X701508Y402036D01*
X705538Y398005D01*
Y365249D01*
X704822Y364831D01*
X704106Y365249D01*
Y396933D01*
X704106Y396933D01*
X704027Y397329D01*
X703803Y397664D01*
X702343Y399125D01*
X702007Y399349D01*
X701612Y399428D01*
X700533D01*
X700517Y399437D01*
X700514Y399467D01*
X700508Y399480D01*
Y400172D01*
X692621D01*
Y396616D01*
X700508D01*
Y396616D01*
X701475Y396701D01*
X702038Y396260D01*
Y364777D01*
X701647Y364385D01*
X701391Y363768D01*
Y363099D01*
X701647Y362481D01*
X702120Y362008D01*
X702738Y361752D01*
X703407D01*
X704024Y362008D01*
X704191Y362175D01*
X704822Y362377D01*
X705453Y362175D01*
X705620Y362008D01*
X706238Y361752D01*
X706907D01*
X707524Y362008D01*
X707691Y362175D01*
X708322Y362377D01*
X708953Y362175D01*
X709120Y362008D01*
X709738Y361752D01*
X710407D01*
X711024Y362008D01*
X711497Y362481D01*
X711753Y363099D01*
Y363768D01*
X711497Y364385D01*
X711106Y364777D01*
Y390608D01*
X712106Y391022D01*
X712120Y391008D01*
X712738Y390752D01*
X713407D01*
X714024Y391008D01*
X714257Y391241D01*
X715294Y391266D01*
X715455Y391223D01*
X715960Y390706D01*
Y366433D01*
X715960Y366433D01*
X716045Y366007D01*
X716286Y365647D01*
X749286Y332647D01*
X749286Y332647D01*
X749647Y332406D01*
X750072Y332321D01*
X750072Y332321D01*
X757307D01*
X757620Y332008D01*
X758238Y331752D01*
X758907D01*
X759524Y332008D01*
X759997Y332481D01*
X760253Y333099D01*
Y333768D01*
X759997Y334385D01*
X759524Y334858D01*
X758907Y335114D01*
X758238D01*
X757620Y334858D01*
X757307Y334545D01*
X750533D01*
X718184Y366894D01*
Y391168D01*
X718497Y391481D01*
X718753Y392099D01*
Y392768D01*
X718497Y393385D01*
X718024Y393858D01*
X717407Y394114D01*
X716738D01*
X716120Y393858D01*
X715647Y393385D01*
X715613Y393304D01*
X714531D01*
X714497Y393385D01*
X714024Y393858D01*
X713407Y394114D01*
X712738D01*
X712120Y393858D01*
X712106Y393844D01*
X711106Y394259D01*
Y399933D01*
X711027Y400329D01*
X710803Y400664D01*
X710803Y400664D01*
X702500Y408967D01*
X702165Y409191D01*
X701769Y409270D01*
X700533D01*
X700517Y409280D01*
X700514Y409310D01*
X700508Y409322D01*
Y410014D01*
D02*
G37*
G36*
X680407Y361614D02*
X679738D01*
X679120Y361358D01*
X678647Y360885D01*
X678391Y360267D01*
Y359599D01*
X678647Y358981D01*
X679120Y358508D01*
X679738Y358252D01*
X680407D01*
X681024Y358508D01*
X681497Y358981D01*
X681753Y359599D01*
Y360267D01*
X681497Y360885D01*
X681024Y361358D01*
X680407Y361614D01*
D02*
G37*
G36*
X815407Y359614D02*
X814738D01*
X814120Y359358D01*
X813647Y358885D01*
X813391Y358267D01*
Y357599D01*
X813406Y357562D01*
X813403Y357553D01*
X811428Y355577D01*
X811230Y355282D01*
X811161Y354933D01*
Y330810D01*
X807933Y327583D01*
X807251Y327835D01*
X806983Y328047D01*
Y354556D01*
X808692Y356264D01*
X808701Y356267D01*
X808738Y356252D01*
X809407D01*
X810024Y356508D01*
X810497Y356981D01*
X810753Y357599D01*
Y358267D01*
X810497Y358885D01*
X810024Y359358D01*
X809407Y359614D01*
X808738D01*
X808120Y359358D01*
X807647Y358885D01*
X807391Y358267D01*
Y357599D01*
X807406Y357562D01*
X807403Y357553D01*
X805428Y355577D01*
X805230Y355282D01*
X805161Y354933D01*
Y328310D01*
X801943Y325093D01*
X801347Y325280D01*
X800983Y325547D01*
Y354556D01*
X802692Y356264D01*
X802701Y356267D01*
X802738Y356252D01*
X803407D01*
X804024Y356508D01*
X804497Y356981D01*
X804753Y357599D01*
Y358267D01*
X804497Y358885D01*
X804024Y359358D01*
X803407Y359614D01*
X802738D01*
X802120Y359358D01*
X801647Y358885D01*
X801391Y358267D01*
Y357599D01*
X801406Y357562D01*
X801403Y357553D01*
X799428Y355577D01*
X799230Y355282D01*
X799161Y354933D01*
Y325844D01*
X778950D01*
X768483Y336311D01*
Y339984D01*
X768488Y339993D01*
X768524Y340008D01*
X768997Y340481D01*
X769253Y341099D01*
Y341768D01*
X768997Y342385D01*
X768524Y342858D01*
X767907Y343114D01*
X767238D01*
X766620Y342858D01*
X766453Y342691D01*
X765822Y342489D01*
X765191Y342691D01*
X765024Y342858D01*
X764407Y343114D01*
X763738D01*
X763120Y342858D01*
X762953Y342691D01*
X762322Y342489D01*
X761691Y342691D01*
X761524Y342858D01*
X760907Y343114D01*
X760238D01*
X759620Y342858D01*
X759147Y342385D01*
X758891Y341768D01*
Y341099D01*
X759147Y340481D01*
X759620Y340008D01*
X759656Y339993D01*
X759661Y339984D01*
Y336933D01*
X759730Y336584D01*
X759928Y336289D01*
X775928Y320289D01*
X776224Y320091D01*
X776572Y320022D01*
X802572D01*
X802921Y320091D01*
X803216Y320289D01*
X812716Y329789D01*
X812914Y330084D01*
X812983Y330433D01*
Y354556D01*
X814692Y356264D01*
X814701Y356267D01*
X814738Y356252D01*
X815407D01*
X816024Y356508D01*
X816497Y356981D01*
X816753Y357599D01*
Y358267D01*
X816497Y358885D01*
X816024Y359358D01*
X815407Y359614D01*
D02*
G37*
G36*
X714407Y349114D02*
X713738D01*
X713120Y348858D01*
X712807Y348545D01*
X710572D01*
X710572Y348545D01*
X710147Y348460D01*
X709786Y348219D01*
X709786Y348219D01*
X702103Y340536D01*
X701260Y341094D01*
X701253Y341101D01*
Y341768D01*
X700997Y342385D01*
X700524Y342858D01*
X699907Y343114D01*
X699238D01*
X698858Y342957D01*
X697858Y343093D01*
Y343093D01*
X689971D01*
Y339537D01*
X697858D01*
X697858Y339537D01*
X698858Y339909D01*
X699238Y339752D01*
X699904D01*
X699911Y339745D01*
X700469Y338903D01*
X699072Y337506D01*
X697963D01*
X697927Y337520D01*
X697886Y337545D01*
X697872Y337558D01*
X697871Y337559D01*
X697871Y337560D01*
X697864Y337621D01*
X697858Y337633D01*
Y338172D01*
X689971D01*
Y334616D01*
X697858D01*
Y335155D01*
X697864Y335167D01*
X697871Y335228D01*
X697871Y335228D01*
X697872Y335230D01*
X697886Y335243D01*
X697927Y335267D01*
X697963Y335282D01*
X699533D01*
X699533Y335282D01*
X699958Y335366D01*
X700319Y335608D01*
X711033Y346321D01*
X712807D01*
X713120Y346008D01*
X713738Y345752D01*
X714407D01*
X715024Y346008D01*
X715497Y346481D01*
X715753Y347099D01*
Y347767D01*
X715497Y348385D01*
X715024Y348858D01*
X714407Y349114D01*
D02*
G37*
G36*
X685653Y353723D02*
X676192D01*
Y346624D01*
X685653D01*
Y353723D01*
D02*
G37*
G36*
X699907Y349114D02*
X699238D01*
X698620Y348858D01*
X698147Y348385D01*
X697891Y347767D01*
Y347099D01*
X698147Y346481D01*
X698620Y346008D01*
X699238Y345752D01*
X699907D01*
X700524Y346008D01*
X700997Y346481D01*
X701253Y347099D01*
Y347767D01*
X700997Y348385D01*
X700524Y348858D01*
X699907Y349114D01*
D02*
G37*
G36*
X714407Y343114D02*
X713738D01*
X713120Y342858D01*
X712807Y342545D01*
X709572D01*
X709572Y342545D01*
X709147Y342460D01*
X708786Y342219D01*
X708786Y342219D01*
X699151Y332584D01*
X697963D01*
X697927Y332599D01*
X697886Y332624D01*
X697872Y332637D01*
X697871Y332638D01*
X697871Y332638D01*
X697864Y332699D01*
X697858Y332711D01*
Y333250D01*
X689971D01*
Y329695D01*
X697858D01*
Y330234D01*
X697864Y330246D01*
X697871Y330307D01*
X697871Y330307D01*
X697872Y330308D01*
X697886Y330321D01*
X697927Y330346D01*
X697963Y330361D01*
X699612D01*
X699612Y330361D01*
X700037Y330445D01*
X700398Y330686D01*
X710033Y340321D01*
X712807D01*
X713120Y340008D01*
X713738Y339752D01*
X714407D01*
X715024Y340008D01*
X715497Y340481D01*
X715753Y341099D01*
Y341768D01*
X715497Y342385D01*
X715024Y342858D01*
X714407Y343114D01*
D02*
G37*
G36*
X714907Y335732D02*
X714238D01*
X713620Y335476D01*
X713147Y335003D01*
X712891Y334386D01*
Y333717D01*
X713147Y333099D01*
X713620Y332626D01*
X714238Y332370D01*
X714907D01*
X715524Y332626D01*
X715997Y333099D01*
X716253Y333717D01*
Y334386D01*
X715997Y335003D01*
X715524Y335476D01*
X714907Y335732D01*
D02*
G37*
G36*
X697958Y328429D02*
X694415D01*
Y327051D01*
X697434D01*
Y327673D01*
X697446Y327561D01*
X697482Y327461D01*
X697541Y327372D01*
X697625Y327295D01*
X697732Y327230D01*
X697863Y327177D01*
X697958Y327152D01*
Y328429D01*
D02*
G37*
G36*
X693415D02*
X689871D01*
Y327051D01*
X693415D01*
Y328429D01*
D02*
G37*
G36*
X815407Y329614D02*
X814738D01*
X814120Y329358D01*
X813647Y328885D01*
X813391Y328268D01*
Y327599D01*
X813647Y326981D01*
X814120Y326508D01*
X814738Y326252D01*
X815407D01*
X816024Y326508D01*
X816497Y326981D01*
X816753Y327599D01*
Y328268D01*
X816497Y328885D01*
X816024Y329358D01*
X815407Y329614D01*
D02*
G37*
G36*
X697434Y326051D02*
X694415D01*
Y324673D01*
X697958D01*
Y325832D01*
X697863Y325807D01*
X697732Y325754D01*
X697625Y325689D01*
X697541Y325612D01*
X697482Y325524D01*
X697446Y325423D01*
X697434Y325311D01*
Y326051D01*
D02*
G37*
G36*
X693415D02*
X689871D01*
Y324673D01*
X693415D01*
Y326051D01*
D02*
G37*
G36*
X724907Y324614D02*
X724238D01*
X723620Y324358D01*
X723147Y323885D01*
X722891Y323268D01*
Y322599D01*
X723147Y321981D01*
X723620Y321508D01*
X724238Y321252D01*
X724907D01*
X725524Y321508D01*
X725997Y321981D01*
X726253Y322599D01*
Y323268D01*
X725997Y323885D01*
X725524Y324358D01*
X724907Y324614D01*
D02*
G37*
G36*
X757907Y322614D02*
X757238D01*
X756620Y322358D01*
X756307Y322045D01*
X736572D01*
X736147Y321960D01*
X735786Y321719D01*
X731612Y317545D01*
X717572D01*
X717147Y317460D01*
X716786Y317219D01*
X716786Y317219D01*
X714286Y314719D01*
X714045Y314359D01*
X713960Y313933D01*
X713960Y313933D01*
Y308293D01*
X713647Y307980D01*
X713391Y307362D01*
Y306693D01*
X713647Y306075D01*
X714120Y305602D01*
X714738Y305346D01*
X715407D01*
X716024Y305602D01*
X716497Y306075D01*
X716753Y306693D01*
Y307362D01*
X716497Y307980D01*
X716184Y308293D01*
Y313473D01*
X718033Y315321D01*
X732072D01*
X732072Y315321D01*
X732498Y315406D01*
X732858Y315647D01*
X737033Y319821D01*
X747669D01*
X748147Y318885D01*
X747891Y318267D01*
Y317599D01*
X748147Y316981D01*
X748460Y316668D01*
Y315311D01*
X748325Y315176D01*
X748084Y314815D01*
X748000Y314390D01*
X748000Y314390D01*
Y310824D01*
X747985Y310788D01*
X747960Y310747D01*
X747947Y310733D01*
X747946Y310732D01*
X747946Y310732D01*
X747885Y310725D01*
X747873Y310719D01*
X747334D01*
Y302832D01*
X750889D01*
Y310719D01*
X750350D01*
X750338Y310725D01*
X750277Y310732D01*
X750277Y310732D01*
X750276Y310733D01*
X750263Y310747D01*
X750238Y310788D01*
X750223Y310824D01*
Y313929D01*
X750358Y314064D01*
X750599Y314425D01*
X750684Y314850D01*
X750684Y314850D01*
Y316668D01*
X750997Y316981D01*
X751253Y317599D01*
Y318267D01*
X750997Y318885D01*
X751476Y319821D01*
X756307D01*
X756620Y319508D01*
X757238Y319252D01*
X757907D01*
X758524Y319508D01*
X758997Y319981D01*
X759253Y320599D01*
Y321268D01*
X758997Y321885D01*
X758524Y322358D01*
X757907Y322614D01*
D02*
G37*
G36*
X771407Y317614D02*
X770738D01*
X770120Y317358D01*
X769647Y316885D01*
X769391Y316267D01*
Y315599D01*
X769647Y314981D01*
X770120Y314508D01*
X770738Y314252D01*
X771407D01*
X772024Y314508D01*
X772497Y314981D01*
X772753Y315599D01*
Y316267D01*
X772497Y316885D01*
X772024Y317358D01*
X771407Y317614D01*
D02*
G37*
G36*
X685653Y321242D02*
X676192D01*
Y314143D01*
X685653D01*
Y321242D01*
D02*
G37*
G36*
X793907Y312114D02*
X793238D01*
X792620Y311858D01*
X792147Y311385D01*
X791891Y310768D01*
Y310099D01*
X792147Y309481D01*
X792620Y309008D01*
X793238Y308752D01*
X793907D01*
X794524Y309008D01*
X794997Y309481D01*
X795253Y310099D01*
Y310768D01*
X794997Y311385D01*
X794524Y311858D01*
X793907Y312114D01*
D02*
G37*
G36*
X778907D02*
X778238D01*
X777620Y311858D01*
X777147Y311385D01*
X776891Y310768D01*
Y310099D01*
X777147Y309481D01*
X777620Y309008D01*
X778238Y308752D01*
X778907D01*
X779524Y309008D01*
X779997Y309481D01*
X780253Y310099D01*
Y310768D01*
X779997Y311385D01*
X779524Y311858D01*
X778907Y312114D01*
D02*
G37*
G36*
X760832Y310819D02*
X759673D01*
X759698Y310724D01*
X759751Y310593D01*
X759816Y310486D01*
X759893Y310402D01*
X759982Y310343D01*
X760082Y310307D01*
X760194Y310295D01*
X759454D01*
Y307276D01*
X760832D01*
Y310819D01*
D02*
G37*
G36*
X758353D02*
X757076D01*
Y307276D01*
X758454D01*
Y310295D01*
X757832D01*
X757944Y310307D01*
X758045Y310343D01*
X758133Y310402D01*
X758210Y310486D01*
X758275Y310593D01*
X758328Y310724D01*
X758353Y310819D01*
D02*
G37*
G36*
X725407Y308709D02*
X724738D01*
X724120Y308453D01*
X723647Y307980D01*
X723391Y307362D01*
Y306693D01*
X723647Y306075D01*
X724120Y305602D01*
X724738Y305346D01*
X725407D01*
X726024Y305602D01*
X726338Y305916D01*
X734517D01*
X743786Y296647D01*
X743786Y296647D01*
X744147Y296406D01*
X744572Y296321D01*
X744572Y296321D01*
X759072D01*
X759072Y296321D01*
X759498Y296406D01*
X759858Y296647D01*
X766533Y303321D01*
X803072D01*
X803072Y303321D01*
X803498Y303406D01*
X803858Y303647D01*
X805464Y305252D01*
X805907D01*
X806524Y305508D01*
X806997Y305981D01*
X807253Y306599D01*
Y307267D01*
X806997Y307885D01*
X806524Y308358D01*
X805907Y308614D01*
X805238D01*
X804620Y308358D01*
X804147Y307885D01*
X803891Y307267D01*
Y306824D01*
X802612Y305545D01*
X766072D01*
X765647Y305460D01*
X765286Y305219D01*
X765286Y305219D01*
X758612Y298545D01*
X745033D01*
X735764Y307814D01*
X735403Y308055D01*
X734978Y308139D01*
X734978Y308139D01*
X726338D01*
X726024Y308453D01*
X725407Y308709D01*
D02*
G37*
G36*
X754407Y316614D02*
X753738D01*
X753120Y316358D01*
X752647Y315885D01*
X752391Y315267D01*
Y314599D01*
X752647Y313981D01*
X752941Y313687D01*
Y310824D01*
X752926Y310788D01*
X752901Y310747D01*
X752888Y310733D01*
X752887Y310732D01*
X752887Y310732D01*
X752826Y310725D01*
X752814Y310719D01*
X752255D01*
Y302832D01*
X755811D01*
Y310719D01*
X755291D01*
X755279Y310725D01*
X755218Y310732D01*
X755218Y310732D01*
X755217Y310733D01*
X755204Y310747D01*
X755179Y310788D01*
X755164Y310824D01*
Y313648D01*
X755497Y313981D01*
X755753Y314599D01*
Y315267D01*
X755497Y315885D01*
X755024Y316358D01*
X754407Y316614D01*
D02*
G37*
G36*
X744407Y314114D02*
X743738D01*
X743120Y313858D01*
X742647Y313385D01*
X742391Y312768D01*
Y312099D01*
X742548Y311719D01*
X742412Y310719D01*
X742412D01*
Y302832D01*
X745968D01*
Y310719D01*
X745968Y310719D01*
X745596Y311719D01*
X745753Y312099D01*
Y312768D01*
X745497Y313385D01*
X745024Y313858D01*
X744407Y314114D01*
D02*
G37*
G36*
X760832Y306276D02*
X759454D01*
Y302732D01*
X760832D01*
Y306276D01*
D02*
G37*
G36*
X758454D02*
X757076D01*
Y302732D01*
X758454D01*
Y306276D01*
D02*
G37*
G36*
X705407Y295520D02*
X704738D01*
X704120Y295264D01*
X703647Y294791D01*
X703391Y294173D01*
Y293504D01*
X703647Y292886D01*
X704120Y292413D01*
X704738Y292158D01*
X705407D01*
X706024Y292413D01*
X706497Y292886D01*
X706753Y293504D01*
Y294173D01*
X706497Y294791D01*
X706024Y295264D01*
X705407Y295520D01*
D02*
G37*
G36*
X771362Y298514D02*
X764263D01*
Y289053D01*
X771362D01*
Y298514D01*
D02*
G37*
G36*
X738882D02*
X731782D01*
Y289053D01*
X738882D01*
Y298514D01*
D02*
G37*
%LPD*%
G36*
X728082Y437559D02*
X727982Y437524D01*
X727893Y437464D01*
X727816Y437380D01*
X727751Y437273D01*
X727698Y437142D01*
X727657Y436987D01*
X727627Y436808D01*
X727610Y436605D01*
X727604Y436378D01*
X726423D01*
X726417Y436605D01*
X726399Y436808D01*
X726369Y436987D01*
X726328Y437142D01*
X726275Y437273D01*
X726210Y437380D01*
X726133Y437464D01*
X726045Y437524D01*
X725944Y437559D01*
X725832Y437571D01*
X728194D01*
X728082Y437559D01*
D02*
G37*
G36*
X727606Y435570D02*
X727626Y435342D01*
X727644Y435241D01*
X727667Y435148D01*
X727694Y435065D01*
X727727Y434990D01*
X727765Y434924D01*
X727808Y434866D01*
X727856Y434817D01*
X726204Y434734D01*
X726246Y434786D01*
X726283Y434846D01*
X726316Y434914D01*
X726344Y434991D01*
X726368Y435076D01*
X726388Y435170D01*
X726403Y435272D01*
X726420Y435501D01*
X726423Y435628D01*
X727604Y435697D01*
X727606Y435570D01*
D02*
G37*
G36*
X723121Y437559D02*
X723021Y437524D01*
X722932Y437464D01*
X722856Y437380D01*
X722791Y437273D01*
X722738Y437142D01*
X722696Y436987D01*
X722667Y436808D01*
X722649Y436605D01*
X722643Y436378D01*
X721462D01*
X721456Y436605D01*
X721438Y436808D01*
X721409Y436987D01*
X721368Y437142D01*
X721314Y437273D01*
X721249Y437380D01*
X721173Y437464D01*
X721084Y437524D01*
X720984Y437559D01*
X720871Y437571D01*
X723234D01*
X723121Y437559D01*
D02*
G37*
G36*
X722646Y435549D02*
X722665Y435320D01*
X722682Y435219D01*
X722704Y435126D01*
X722730Y435042D01*
X722761Y434966D01*
X722798Y434899D01*
X722839Y434840D01*
X722885Y434790D01*
X721232Y434763D01*
X721275Y434814D01*
X721314Y434873D01*
X721349Y434941D01*
X721379Y435017D01*
X721404Y435102D01*
X721425Y435195D01*
X721441Y435297D01*
X721453Y435407D01*
X721462Y435653D01*
X722643Y435676D01*
X722646Y435549D01*
D02*
G37*
G36*
X718401Y437540D02*
X718333Y437480D01*
X718273Y437382D01*
X718221Y437244D01*
X718177Y437067D01*
X718140Y436851D01*
X718112Y436595D01*
X718080Y435965D01*
X718076Y435591D01*
X716108D01*
X716104Y435965D01*
X716017Y437067D01*
X715977Y437244D01*
X715930Y437382D01*
X715876Y437480D01*
X715814Y437540D01*
X715746Y437559D01*
X718477D01*
X718401Y437540D01*
D02*
G37*
G36*
X713473D02*
X713398Y437480D01*
X713332Y437382D01*
X713274Y437244D01*
X713226Y437067D01*
X713186Y436851D01*
X713155Y436595D01*
X713120Y435965D01*
X713116Y435591D01*
X711147D01*
X711144Y435965D01*
X711066Y437067D01*
X711031Y437244D01*
X710989Y437382D01*
X710941Y437480D01*
X710886Y437540D01*
X710824Y437559D01*
X713556D01*
X713473Y437540D01*
D02*
G37*
G36*
X693033Y411792D02*
X693013Y411864D01*
X692954Y411929D01*
X692856Y411986D01*
X692718Y412036D01*
X692541Y412078D01*
X692324Y412112D01*
X692068Y412139D01*
X691438Y412169D01*
X691065Y412173D01*
Y414142D01*
X691438Y414146D01*
X692324Y414203D01*
X692541Y414237D01*
X692718Y414279D01*
X692856Y414329D01*
X692954Y414386D01*
X693013Y414451D01*
X693033Y414523D01*
Y411792D01*
D02*
G37*
G36*
X697472Y409004D02*
X697543Y408950D01*
X697620Y408904D01*
X697704Y408863D01*
X697793Y408828D01*
X697889Y408800D01*
X697992Y408778D01*
X698100Y408763D01*
X698215Y408753D01*
X698336Y408750D01*
Y407722D01*
X698215Y407719D01*
X698100Y407710D01*
X697992Y407694D01*
X697889Y407672D01*
X697793Y407644D01*
X697704Y407610D01*
X697620Y407569D01*
X697543Y407522D01*
X697472Y407469D01*
X697408Y407409D01*
Y409063D01*
X697472Y409004D01*
D02*
G37*
G36*
X700094Y409167D02*
X700125Y409079D01*
X700177Y409002D01*
X700250Y408935D01*
X700344Y408879D01*
X700458Y408833D01*
X700593Y408797D01*
X700749Y408771D01*
X700926Y408755D01*
X701124Y408750D01*
Y407722D01*
X700926Y407717D01*
X700749Y407702D01*
X700593Y407676D01*
X700458Y407640D01*
X700344Y407594D01*
X700250Y407537D01*
X700177Y407470D01*
X700125Y407393D01*
X700094Y407306D01*
X700084Y407208D01*
Y409264D01*
X700094Y409167D01*
D02*
G37*
G36*
X697472Y404082D02*
X697543Y404029D01*
X697620Y403982D01*
X697704Y403942D01*
X697793Y403907D01*
X697889Y403879D01*
X697992Y403857D01*
X698100Y403841D01*
X698215Y403832D01*
X698336Y403829D01*
Y402801D01*
X698215Y402798D01*
X698100Y402788D01*
X697992Y402773D01*
X697889Y402751D01*
X697793Y402723D01*
X697704Y402688D01*
X697620Y402648D01*
X697543Y402601D01*
X697472Y402548D01*
X697408Y402488D01*
Y404142D01*
X697472Y404082D01*
D02*
G37*
G36*
X700094Y404245D02*
X700125Y404158D01*
X700177Y404081D01*
X700250Y404014D01*
X700344Y403958D01*
X700458Y403911D01*
X700593Y403875D01*
X700749Y403850D01*
X700926Y403834D01*
X701124Y403829D01*
Y402801D01*
X700926Y402796D01*
X700749Y402780D01*
X700593Y402755D01*
X700458Y402719D01*
X700344Y402672D01*
X700250Y402616D01*
X700177Y402549D01*
X700125Y402472D01*
X700094Y402385D01*
X700084Y402287D01*
Y404343D01*
X700094Y404245D01*
D02*
G37*
G36*
X697472Y399161D02*
X697543Y399108D01*
X697620Y399061D01*
X697704Y399020D01*
X697793Y398986D01*
X697889Y398958D01*
X697992Y398936D01*
X698100Y398920D01*
X698215Y398911D01*
X698336Y398908D01*
Y397880D01*
X698215Y397877D01*
X698100Y397867D01*
X697992Y397851D01*
X697889Y397830D01*
X697793Y397801D01*
X697704Y397767D01*
X697620Y397726D01*
X697543Y397679D01*
X697472Y397626D01*
X697408Y397567D01*
Y399220D01*
X697472Y399161D01*
D02*
G37*
G36*
X700094Y399324D02*
X700125Y399237D01*
X700177Y399160D01*
X700250Y399093D01*
X700344Y399036D01*
X700458Y398990D01*
X700593Y398954D01*
X700749Y398928D01*
X700926Y398913D01*
X701124Y398908D01*
Y397880D01*
X700926Y397875D01*
X700749Y397859D01*
X700593Y397833D01*
X700458Y397797D01*
X700344Y397751D01*
X700250Y397695D01*
X700177Y397628D01*
X700125Y397551D01*
X700094Y397463D01*
X700084Y397366D01*
Y399422D01*
X700094Y399324D01*
D02*
G37*
G36*
X717854Y391539D02*
X717814Y391480D01*
X717778Y391412D01*
X717748Y391336D01*
X717722Y391252D01*
X717700Y391159D01*
X717684Y391057D01*
X717672Y390947D01*
X717663Y390702D01*
X716482D01*
X716479Y390829D01*
X716460Y391057D01*
X716444Y391159D01*
X716423Y391252D01*
X716397Y391336D01*
X716366Y391412D01*
X716330Y391480D01*
X716290Y391539D01*
X716245Y391590D01*
X717899D01*
X717854Y391539D01*
D02*
G37*
G36*
X710589Y365084D02*
X710599Y364969D01*
X710614Y364860D01*
X710636Y364758D01*
X710664Y364662D01*
X710699Y364572D01*
X710740Y364489D01*
X710786Y364412D01*
X710840Y364341D01*
X710899Y364277D01*
X709245D01*
X709305Y364341D01*
X709358Y364412D01*
X709405Y364489D01*
X709446Y364572D01*
X709480Y364662D01*
X709508Y364758D01*
X709530Y364860D01*
X709546Y364969D01*
X709555Y365084D01*
X709558Y365205D01*
X710586D01*
X710589Y365084D01*
D02*
G37*
G36*
X707089D02*
X707099Y364969D01*
X707114Y364860D01*
X707136Y364758D01*
X707164Y364662D01*
X707199Y364572D01*
X707239Y364489D01*
X707286Y364412D01*
X707339Y364341D01*
X707399Y364277D01*
X705745D01*
X705805Y364341D01*
X705858Y364412D01*
X705905Y364489D01*
X705946Y364572D01*
X705980Y364662D01*
X706008Y364758D01*
X706030Y364860D01*
X706046Y364969D01*
X706055Y365084D01*
X706058Y365205D01*
X707086D01*
X707089Y365084D01*
D02*
G37*
G36*
X703589D02*
X703599Y364969D01*
X703614Y364860D01*
X703636Y364758D01*
X703664Y364662D01*
X703699Y364572D01*
X703740Y364489D01*
X703786Y364412D01*
X703839Y364341D01*
X703899Y364277D01*
X702245D01*
X702305Y364341D01*
X702358Y364412D01*
X702405Y364489D01*
X702446Y364572D01*
X702480Y364662D01*
X702508Y364758D01*
X702530Y364860D01*
X702546Y364969D01*
X702555Y365084D01*
X702558Y365205D01*
X703586D01*
X703589Y365084D01*
D02*
G37*
G36*
X757729Y332606D02*
X757678Y332651D01*
X757619Y332691D01*
X757551Y332727D01*
X757476Y332757D01*
X757391Y332784D01*
X757298Y332805D01*
X757196Y332821D01*
X757086Y332833D01*
X756841Y332842D01*
Y334024D01*
X756968Y334026D01*
X757196Y334045D01*
X757298Y334061D01*
X757391Y334083D01*
X757476Y334109D01*
X757551Y334139D01*
X757619Y334175D01*
X757678Y334215D01*
X757729Y334260D01*
Y332606D01*
D02*
G37*
G36*
X815060Y356752D02*
X814941Y356749D01*
X814826Y356738D01*
X814716Y356720D01*
X814610Y356693D01*
X814508Y356659D01*
X814410Y356616D01*
X814316Y356565D01*
X814227Y356507D01*
X814143Y356441D01*
X814062Y356366D01*
X813505Y356923D01*
X813580Y357003D01*
X813646Y357088D01*
X813705Y357177D01*
X813755Y357271D01*
X813798Y357368D01*
X813832Y357470D01*
X813859Y357577D01*
X813878Y357687D01*
X813888Y357802D01*
X813891Y357921D01*
X815060Y356752D01*
D02*
G37*
G36*
X809060D02*
X808941Y356749D01*
X808826Y356738D01*
X808716Y356720D01*
X808610Y356693D01*
X808508Y356659D01*
X808410Y356616D01*
X808317Y356565D01*
X808227Y356507D01*
X808143Y356441D01*
X808062Y356366D01*
X807505Y356923D01*
X807580Y357003D01*
X807646Y357088D01*
X807705Y357177D01*
X807755Y357271D01*
X807798Y357368D01*
X807832Y357470D01*
X807859Y357577D01*
X807878Y357687D01*
X807888Y357802D01*
X807891Y357921D01*
X809060Y356752D01*
D02*
G37*
G36*
X803060D02*
X802941Y356749D01*
X802826Y356738D01*
X802716Y356720D01*
X802610Y356693D01*
X802508Y356659D01*
X802410Y356616D01*
X802316Y356565D01*
X802227Y356507D01*
X802143Y356441D01*
X802062Y356366D01*
X801505Y356923D01*
X801580Y357003D01*
X801646Y357088D01*
X801705Y357177D01*
X801755Y357271D01*
X801798Y357368D01*
X801832Y357470D01*
X801859Y357577D01*
X801878Y357687D01*
X801888Y357802D01*
X801891Y357921D01*
X803060Y356752D01*
D02*
G37*
G36*
X768317Y340503D02*
X768243Y340415D01*
X768178Y340323D01*
X768122Y340229D01*
X768074Y340133D01*
X768035Y340034D01*
X768005Y339932D01*
X767983Y339827D01*
X767970Y339720D01*
X767966Y339611D01*
X767178D01*
X767174Y339720D01*
X767161Y339827D01*
X767139Y339932D01*
X767109Y340034D01*
X767070Y340133D01*
X767023Y340229D01*
X766966Y340323D01*
X766901Y340415D01*
X766828Y340503D01*
X766745Y340590D01*
X768399D01*
X768317Y340503D01*
D02*
G37*
G36*
X764817D02*
X764743Y340415D01*
X764678Y340323D01*
X764622Y340229D01*
X764574Y340133D01*
X764535Y340034D01*
X764505Y339932D01*
X764483Y339827D01*
X764470Y339720D01*
X764466Y339611D01*
X763679D01*
X763674Y339720D01*
X763661Y339827D01*
X763639Y339932D01*
X763609Y340034D01*
X763570Y340133D01*
X763523Y340229D01*
X763466Y340323D01*
X763401Y340415D01*
X763328Y340503D01*
X763245Y340590D01*
X764899D01*
X764817Y340503D01*
D02*
G37*
G36*
X761317D02*
X761243Y340415D01*
X761178Y340323D01*
X761122Y340229D01*
X761074Y340133D01*
X761035Y340034D01*
X761005Y339932D01*
X760983Y339827D01*
X760970Y339720D01*
X760966Y339611D01*
X760179D01*
X760174Y339720D01*
X760161Y339827D01*
X760140Y339932D01*
X760109Y340034D01*
X760070Y340133D01*
X760023Y340229D01*
X759966Y340323D01*
X759901Y340415D01*
X759828Y340503D01*
X759745Y340590D01*
X761399D01*
X761317Y340503D01*
D02*
G37*
G36*
X713229Y346606D02*
X713178Y346651D01*
X713119Y346691D01*
X713052Y346727D01*
X712976Y346758D01*
X712891Y346783D01*
X712798Y346805D01*
X712696Y346821D01*
X712586Y346833D01*
X712341Y346843D01*
Y348024D01*
X712468Y348026D01*
X712696Y348045D01*
X712798Y348061D01*
X712891Y348083D01*
X712976Y348109D01*
X713052Y348139D01*
X713119Y348175D01*
X713178Y348215D01*
X713229Y348260D01*
Y346606D01*
D02*
G37*
G36*
X697446Y342443D02*
X697482Y342342D01*
X697541Y342254D01*
X697625Y342177D01*
X697732Y342112D01*
X697863Y342059D01*
X698019Y342018D01*
X698183Y341991D01*
X698265Y342005D01*
X698357Y342028D01*
X698440Y342055D01*
X698515Y342088D01*
X698582Y342126D01*
X698639Y342169D01*
X698688Y342217D01*
X698771Y340565D01*
X698720Y340607D01*
X698660Y340644D01*
X698591Y340676D01*
X698515Y340705D01*
X698429Y340729D01*
X698336Y340749D01*
X698237Y340763D01*
X698198Y340760D01*
X698019Y340730D01*
X697863Y340689D01*
X697732Y340636D01*
X697625Y340571D01*
X697541Y340494D01*
X697482Y340406D01*
X697446Y340305D01*
X697434Y340193D01*
Y342555D01*
X697446Y342443D01*
D02*
G37*
G36*
Y337463D02*
X697482Y337362D01*
X697541Y337274D01*
X697625Y337197D01*
X697732Y337132D01*
X697863Y337079D01*
X698019Y337037D01*
X698198Y337008D01*
X698400Y336990D01*
X698627Y336984D01*
Y335803D01*
X698400Y335797D01*
X698198Y335780D01*
X698019Y335750D01*
X697863Y335709D01*
X697732Y335655D01*
X697625Y335591D01*
X697541Y335514D01*
X697482Y335425D01*
X697446Y335325D01*
X697434Y335213D01*
Y337575D01*
X697446Y337463D01*
D02*
G37*
G36*
X713229Y340606D02*
X713178Y340651D01*
X713119Y340691D01*
X713052Y340727D01*
X712976Y340757D01*
X712891Y340784D01*
X712798Y340805D01*
X712696Y340821D01*
X712586Y340833D01*
X712341Y340843D01*
Y342024D01*
X712468Y342026D01*
X712696Y342045D01*
X712798Y342061D01*
X712891Y342083D01*
X712976Y342109D01*
X713052Y342139D01*
X713119Y342175D01*
X713178Y342215D01*
X713229Y342260D01*
Y340606D01*
D02*
G37*
G36*
X697446Y332541D02*
X697482Y332441D01*
X697541Y332352D01*
X697625Y332276D01*
X697732Y332211D01*
X697863Y332157D01*
X698019Y332116D01*
X698198Y332087D01*
X698400Y332069D01*
X698627Y332063D01*
Y330882D01*
X698400Y330876D01*
X698198Y330858D01*
X698019Y330829D01*
X697863Y330787D01*
X697732Y330734D01*
X697625Y330669D01*
X697541Y330592D01*
X697482Y330504D01*
X697446Y330403D01*
X697434Y330291D01*
Y332653D01*
X697446Y332541D01*
D02*
G37*
G36*
X756729Y320106D02*
X756678Y320151D01*
X756619Y320191D01*
X756552Y320227D01*
X756475Y320257D01*
X756391Y320284D01*
X756298Y320305D01*
X756196Y320321D01*
X756086Y320333D01*
X755841Y320342D01*
Y321524D01*
X755968Y321526D01*
X756196Y321545D01*
X756298Y321561D01*
X756391Y321583D01*
X756475Y321609D01*
X756552Y321639D01*
X756619Y321675D01*
X756678Y321715D01*
X756729Y321760D01*
Y320106D01*
D02*
G37*
G36*
X750354Y317039D02*
X750314Y316980D01*
X750279Y316912D01*
X750248Y316836D01*
X750222Y316752D01*
X750201Y316659D01*
X750184Y316557D01*
X750172Y316447D01*
X750163Y316201D01*
X748982D01*
X748979Y316329D01*
X748960Y316557D01*
X748944Y316659D01*
X748923Y316752D01*
X748897Y316836D01*
X748866Y316912D01*
X748831Y316980D01*
X748790Y317039D01*
X748745Y317090D01*
X750399D01*
X750354Y317039D01*
D02*
G37*
G36*
X749708Y311261D02*
X749726Y311058D01*
X749755Y310879D01*
X749797Y310724D01*
X749850Y310593D01*
X749915Y310486D01*
X749992Y310402D01*
X750080Y310343D01*
X750180Y310307D01*
X750293Y310295D01*
X747930D01*
X748043Y310307D01*
X748143Y310343D01*
X748232Y310402D01*
X748308Y310486D01*
X748373Y310593D01*
X748426Y310724D01*
X748468Y310879D01*
X748497Y311058D01*
X748515Y311261D01*
X748521Y311488D01*
X749702D01*
X749708Y311261D01*
D02*
G37*
G36*
X715665Y308632D02*
X715684Y308403D01*
X715700Y308302D01*
X715722Y308209D01*
X715748Y308124D01*
X715778Y308048D01*
X715814Y307981D01*
X715854Y307922D01*
X715899Y307871D01*
X714245D01*
X714290Y307922D01*
X714330Y307981D01*
X714366Y308048D01*
X714397Y308124D01*
X714423Y308209D01*
X714444Y308302D01*
X714460Y308403D01*
X714472Y308513D01*
X714482Y308759D01*
X715663D01*
X715665Y308632D01*
D02*
G37*
G36*
X725966Y307809D02*
X726025Y307769D01*
X726093Y307734D01*
X726169Y307703D01*
X726253Y307677D01*
X726346Y307656D01*
X726448Y307639D01*
X726558Y307628D01*
X726804Y307618D01*
Y306437D01*
X726677Y306435D01*
X726448Y306416D01*
X726346Y306399D01*
X726253Y306378D01*
X726169Y306352D01*
X726093Y306321D01*
X726025Y306286D01*
X725966Y306246D01*
X725916Y306201D01*
Y307854D01*
X725966Y307809D01*
D02*
G37*
G36*
X805560Y305752D02*
X805493Y305748D01*
X805423Y305735D01*
X805350Y305712D01*
X805274Y305680D01*
X805196Y305639D01*
X805115Y305588D01*
X805032Y305528D01*
X804946Y305458D01*
X804765Y305291D01*
X803930Y306126D01*
X804018Y306218D01*
X804167Y306393D01*
X804227Y306476D01*
X804278Y306557D01*
X804319Y306635D01*
X804351Y306711D01*
X804374Y306784D01*
X804387Y306854D01*
X804391Y306921D01*
X805560Y305752D01*
D02*
G37*
G36*
X754885Y314076D02*
X754839Y314026D01*
X754798Y313967D01*
X754762Y313900D01*
X754730Y313824D01*
X754704Y313740D01*
X754682Y313647D01*
X754665Y313546D01*
X754653Y313436D01*
X754643Y313190D01*
X753462Y313213D01*
X753460Y313340D01*
X753441Y313569D01*
X753425Y313671D01*
X753404Y313764D01*
X753379Y313849D01*
X753349Y313925D01*
X753314Y313993D01*
X753275Y314053D01*
X753231Y314104D01*
X754885Y314076D01*
D02*
G37*
G36*
X754649Y311261D02*
X754667Y311058D01*
X754696Y310879D01*
X754738Y310724D01*
X754791Y310593D01*
X754856Y310486D01*
X754932Y310402D01*
X755021Y310343D01*
X755121Y310307D01*
X755234Y310295D01*
X752871D01*
X752984Y310307D01*
X753084Y310343D01*
X753173Y310402D01*
X753249Y310486D01*
X753314Y310593D01*
X753368Y310724D01*
X753409Y310879D01*
X753438Y311058D01*
X753456Y311261D01*
X753462Y311488D01*
X754643D01*
X754649Y311261D01*
D02*
G37*
G36*
X744899Y311580D02*
X744862Y311521D01*
X744829Y311452D01*
X744800Y311375D01*
X744776Y311290D01*
X744757Y311197D01*
X744742Y311098D01*
X744745Y311058D01*
X744775Y310879D01*
X744816Y310724D01*
X744869Y310593D01*
X744934Y310486D01*
X745011Y310402D01*
X745100Y310343D01*
X745200Y310307D01*
X745312Y310295D01*
X742950D01*
X743062Y310307D01*
X743163Y310343D01*
X743251Y310402D01*
X743328Y310486D01*
X743393Y310593D01*
X743446Y310724D01*
X743488Y310879D01*
X743515Y311044D01*
X743500Y311125D01*
X743478Y311218D01*
X743450Y311301D01*
X743417Y311376D01*
X743379Y311443D01*
X743336Y311500D01*
X743289Y311549D01*
X744940Y311632D01*
X744899Y311580D01*
D02*
G37*
%LPC*%
G36*
X359266Y424114D02*
X358597D01*
X357979Y423858D01*
X357507Y423385D01*
X357251Y422767D01*
Y422099D01*
X357507Y421481D01*
X357979Y421008D01*
X358597Y420752D01*
X359266D01*
X359884Y421008D01*
X360357Y421481D01*
X360613Y422099D01*
Y422767D01*
X360357Y423385D01*
X359884Y423858D01*
X359266Y424114D01*
D02*
G37*
G36*
X333494D02*
X332826D01*
X332208Y423858D01*
X331735Y423385D01*
X331479Y422767D01*
Y422099D01*
X331735Y421481D01*
X332208Y421008D01*
X332826Y420752D01*
X333494D01*
X334112Y421008D01*
X334585Y421481D01*
X334841Y422099D01*
Y422767D01*
X334585Y423385D01*
X334112Y423858D01*
X333494Y424114D01*
D02*
G37*
G36*
X353495Y414114D02*
X352826D01*
X352208Y413858D01*
X351735Y413385D01*
X351479Y412768D01*
Y412099D01*
X351735Y411481D01*
X352208Y411008D01*
X352826Y410752D01*
X353495D01*
X354112Y411008D01*
X354585Y411481D01*
X354841Y412099D01*
Y412768D01*
X354585Y413385D01*
X354112Y413858D01*
X353495Y414114D01*
D02*
G37*
G36*
X316494Y396614D02*
X315826D01*
X315208Y396358D01*
X314735Y395885D01*
X314479Y395268D01*
Y394599D01*
X314735Y393981D01*
X315208Y393508D01*
X315826Y393252D01*
X316494D01*
X317112Y393508D01*
X317585Y393981D01*
X317841Y394599D01*
Y395268D01*
X317585Y395885D01*
X317112Y396358D01*
X316494Y396614D01*
D02*
G37*
G36*
X326092Y392106D02*
X325228D01*
X324429Y391775D01*
X323965Y391312D01*
X323675Y391171D01*
X322756Y391214D01*
X322612Y391358D01*
X321994Y391614D01*
X321326D01*
X320708Y391358D01*
X320235Y390885D01*
X319979Y390267D01*
Y389599D01*
X320235Y388981D01*
X319686Y388171D01*
X314304Y382789D01*
X314042Y382396D01*
X313949Y381933D01*
X313949Y381933D01*
Y358934D01*
X311445Y356430D01*
X311422Y356420D01*
X311329Y356329D01*
X311105Y356114D01*
X310826D01*
X310208Y355858D01*
X309735Y355385D01*
X309479Y354767D01*
Y354099D01*
X309735Y353481D01*
X310208Y353008D01*
X310826Y352752D01*
X311494D01*
X312112Y353008D01*
X312585Y353481D01*
X312841Y354099D01*
Y354353D01*
X313162Y354710D01*
X313169Y354730D01*
X316016Y357577D01*
X316016Y357577D01*
X316279Y357970D01*
X316371Y358433D01*
Y381432D01*
X322365Y387426D01*
X322365Y387426D01*
X322628Y387819D01*
X322720Y388282D01*
Y388616D01*
X322756Y388652D01*
X323675Y388695D01*
X323965Y388554D01*
X324429Y388091D01*
X325228Y387760D01*
X326092D01*
X326891Y388091D01*
X327502Y388702D01*
X327833Y389501D01*
Y390365D01*
X327502Y391164D01*
X326891Y391775D01*
X326092Y392106D01*
D02*
G37*
G36*
X353495Y392614D02*
X352826D01*
X352208Y392358D01*
X351735Y391885D01*
X351479Y391267D01*
Y390599D01*
X351735Y389981D01*
X352208Y389508D01*
X352826Y389252D01*
X353495D01*
X354112Y389508D01*
X354585Y389981D01*
X354841Y390599D01*
Y391267D01*
X354585Y391885D01*
X354112Y392358D01*
X353495Y392614D01*
D02*
G37*
G36*
X346994D02*
X346326D01*
X345708Y392358D01*
X345235Y391885D01*
X344979Y391267D01*
Y390599D01*
X345235Y389981D01*
X345708Y389508D01*
X346326Y389252D01*
X346994D01*
X347612Y389508D01*
X348085Y389981D01*
X348341Y390599D01*
Y391267D01*
X348085Y391885D01*
X347612Y392358D01*
X346994Y392614D01*
D02*
G37*
G36*
X352994Y383114D02*
X352326D01*
X351708Y382858D01*
X351235Y382385D01*
X350979Y381768D01*
Y381099D01*
X350994Y381062D01*
X350981Y381025D01*
X350954Y380961D01*
X350921Y380900D01*
X350882Y380841D01*
X350838Y380784D01*
X350775Y380717D01*
X350761Y380679D01*
X348088Y378005D01*
X347913Y377743D01*
X347851Y377433D01*
X347851Y377433D01*
Y346268D01*
X341825Y340242D01*
X315036D01*
X314999Y340259D01*
X314908Y340263D01*
X314836Y340272D01*
X314767Y340286D01*
X314701Y340306D01*
X314636Y340331D01*
X314600Y340349D01*
X314585Y340385D01*
X314112Y340858D01*
X313494Y341114D01*
X312826D01*
X312208Y340858D01*
X311735Y340385D01*
X311479Y339768D01*
Y339099D01*
X311735Y338481D01*
X311743Y338473D01*
X311883Y338315D01*
X311324Y337478D01*
X310995Y337614D01*
X310326D01*
X309708Y337358D01*
X309235Y336885D01*
X308979Y336267D01*
Y335599D01*
X309235Y334981D01*
X309708Y334508D01*
X310326Y334252D01*
X310995D01*
X311612Y334508D01*
X312085Y334981D01*
X312100Y335017D01*
X312136Y335035D01*
X312201Y335060D01*
X312267Y335080D01*
X312336Y335094D01*
X312407Y335103D01*
X312499Y335107D01*
X312536Y335124D01*
X323608D01*
X323919Y334224D01*
X323923Y334124D01*
X320742Y330943D01*
X296937D01*
X296908Y330956D01*
X296677Y330965D01*
X296594Y330974D01*
X296517Y330987D01*
X296474Y330996D01*
X296112Y331358D01*
X295495Y331614D01*
X294826D01*
X294208Y331358D01*
X293735Y330885D01*
X293479Y330268D01*
Y329599D01*
X293735Y328981D01*
X294208Y328508D01*
X294826Y328252D01*
X295495D01*
X296112Y328508D01*
X296474Y328870D01*
X296517Y328880D01*
X296589Y328891D01*
X296786Y328907D01*
X296900Y328910D01*
X296931Y328923D01*
X321160D01*
X321547Y329000D01*
X321874Y329219D01*
X325079Y332423D01*
X350958D01*
X350972Y332413D01*
X351543Y331423D01*
X351479Y331267D01*
Y330599D01*
X351735Y329981D01*
X352208Y329508D01*
X352826Y329252D01*
X353495D01*
X354112Y329508D01*
X354585Y329981D01*
X354841Y330599D01*
Y331267D01*
X354585Y331885D01*
X354112Y332358D01*
X354031Y332392D01*
Y333474D01*
X354112Y333508D01*
X354585Y333981D01*
X354841Y334599D01*
Y335267D01*
X354585Y335885D01*
X354112Y336358D01*
X353495Y336614D01*
X352826D01*
X352208Y336358D01*
X351735Y335885D01*
X351479Y335267D01*
Y334756D01*
X351455Y334718D01*
X351413Y334660D01*
X351285Y334508D01*
X351222Y334443D01*
X346659D01*
X346355Y335097D01*
X346315Y335443D01*
X352732Y341861D01*
X352732Y341861D01*
X352908Y342123D01*
X352969Y342433D01*
X352969Y342433D01*
Y373598D01*
X354406Y375034D01*
X354444Y375048D01*
X354511Y375111D01*
X354568Y375155D01*
X354627Y375194D01*
X354688Y375226D01*
X354752Y375254D01*
X354789Y375267D01*
X354826Y375252D01*
X355494D01*
X356112Y375508D01*
X356585Y375981D01*
X356841Y376599D01*
Y377268D01*
X356585Y377885D01*
X356112Y378358D01*
X355494Y378614D01*
X354826D01*
X354208Y378358D01*
X353735Y377885D01*
X353479Y377268D01*
Y376599D01*
X353494Y376562D01*
X353482Y376525D01*
X353453Y376461D01*
X353420Y376400D01*
X353382Y376341D01*
X353338Y376284D01*
X353275Y376217D01*
X353261Y376179D01*
X351588Y374505D01*
X351413Y374243D01*
X351351Y373933D01*
X351351Y373933D01*
Y342768D01*
X345325Y336742D01*
X312933D01*
X312927Y336752D01*
X313476Y337752D01*
X313494D01*
X314112Y338008D01*
X314585Y338481D01*
X314600Y338517D01*
X314636Y338535D01*
X314701Y338560D01*
X314767Y338580D01*
X314836Y338595D01*
X314908Y338603D01*
X314999Y338607D01*
X315036Y338624D01*
X342160D01*
X342160Y338624D01*
X342470Y338685D01*
X342732Y338861D01*
X349232Y345361D01*
X349232Y345361D01*
X349408Y345623D01*
X349469Y345933D01*
X349469Y345933D01*
Y377098D01*
X351906Y379534D01*
X351944Y379548D01*
X352011Y379611D01*
X352068Y379655D01*
X352127Y379694D01*
X352188Y379726D01*
X352252Y379754D01*
X352289Y379767D01*
X352326Y379752D01*
X352994D01*
X353612Y380008D01*
X354085Y380481D01*
X354341Y381099D01*
Y381768D01*
X354085Y382385D01*
X353612Y382858D01*
X352994Y383114D01*
D02*
G37*
G36*
X310092Y381606D02*
X309228D01*
X308429Y381276D01*
X307818Y380664D01*
X307487Y379865D01*
Y379001D01*
X307818Y378202D01*
X308429Y377591D01*
X309228Y377260D01*
X310092D01*
X310891Y377591D01*
X311503Y378202D01*
X311833Y379001D01*
Y379865D01*
X311503Y380664D01*
X310891Y381276D01*
X310092Y381606D01*
D02*
G37*
G36*
X300994Y367614D02*
X300326D01*
X299708Y367358D01*
X299235Y366885D01*
X298979Y366267D01*
Y365599D01*
X299235Y364981D01*
X299708Y364508D01*
X300326Y364252D01*
X300994D01*
X301612Y364508D01*
X302085Y364981D01*
X302341Y365599D01*
Y366267D01*
X302085Y366885D01*
X301612Y367358D01*
X300994Y367614D01*
D02*
G37*
G36*
X292495D02*
X291826D01*
X291208Y367358D01*
X290735Y366885D01*
X290479Y366267D01*
Y365599D01*
X290735Y364981D01*
X291208Y364508D01*
X291826Y364252D01*
X292495D01*
X293112Y364508D01*
X293585Y364981D01*
X293841Y365599D01*
Y366267D01*
X293585Y366885D01*
X293112Y367358D01*
X292495Y367614D01*
D02*
G37*
G36*
X259995Y358614D02*
X259326D01*
X258708Y358358D01*
X258235Y357885D01*
X257979Y357267D01*
Y356599D01*
X258235Y355981D01*
X258708Y355508D01*
X259326Y355252D01*
X259995D01*
X260612Y355508D01*
X261085Y355981D01*
X261341Y356599D01*
Y357267D01*
X261085Y357885D01*
X260612Y358358D01*
X259995Y358614D01*
D02*
G37*
G36*
X261494Y340114D02*
X260826D01*
X260208Y339858D01*
X259735Y339385D01*
X259479Y338768D01*
Y338099D01*
X259735Y337481D01*
X260208Y337008D01*
X260826Y336752D01*
X261494D01*
X262112Y337008D01*
X262585Y337481D01*
X262841Y338099D01*
Y338768D01*
X262585Y339385D01*
X262112Y339858D01*
X261494Y340114D01*
D02*
G37*
G36*
X353495Y325614D02*
X352826D01*
X352208Y325358D01*
X351735Y324885D01*
X351479Y324268D01*
Y323599D01*
X351735Y322981D01*
X352208Y322508D01*
X352826Y322252D01*
X353495D01*
X354112Y322508D01*
X354585Y322981D01*
X354841Y323599D01*
Y324268D01*
X354585Y324885D01*
X354112Y325358D01*
X353495Y325614D01*
D02*
G37*
G36*
X302495Y322614D02*
X301826D01*
X301208Y322358D01*
X300735Y321885D01*
X300479Y321268D01*
Y320599D01*
X300735Y319981D01*
X301208Y319508D01*
X301826Y319252D01*
X302495D01*
X303112Y319508D01*
X303585Y319981D01*
X303841Y320599D01*
Y321268D01*
X303585Y321885D01*
X303112Y322358D01*
X302495Y322614D01*
D02*
G37*
%LPD*%
G36*
X312841Y355000D02*
X312341Y354445D01*
X311172Y355614D01*
X311187Y355619D01*
X311212Y355634D01*
X311245Y355659D01*
X311338Y355739D01*
X311631Y356018D01*
X311727Y356113D01*
X312841Y355000D01*
D02*
G37*
G36*
X352648Y380252D02*
X352529Y380249D01*
X352414Y380239D01*
X352304Y380220D01*
X352198Y380193D01*
X352096Y380159D01*
X351998Y380116D01*
X351904Y380065D01*
X351815Y380007D01*
X351730Y379941D01*
X351650Y379866D01*
X351093Y380423D01*
X351168Y380504D01*
X351234Y380588D01*
X351292Y380677D01*
X351343Y380771D01*
X351386Y380869D01*
X351420Y380971D01*
X351447Y381077D01*
X351466Y381187D01*
X351476Y381302D01*
X351479Y381421D01*
X352648Y380252D01*
D02*
G37*
G36*
X355148Y375752D02*
X355029Y375749D01*
X354914Y375739D01*
X354804Y375720D01*
X354697Y375693D01*
X354595Y375659D01*
X354498Y375616D01*
X354404Y375566D01*
X354315Y375507D01*
X354230Y375441D01*
X354150Y375366D01*
X353593Y375923D01*
X353668Y376004D01*
X353734Y376088D01*
X353793Y376177D01*
X353843Y376271D01*
X353886Y376368D01*
X353920Y376470D01*
X353947Y376577D01*
X353966Y376687D01*
X353976Y376802D01*
X353979Y376921D01*
X355148Y375752D01*
D02*
G37*
G36*
X314090Y340178D02*
X314179Y340104D01*
X314270Y340039D01*
X314364Y339983D01*
X314460Y339935D01*
X314560Y339896D01*
X314662Y339866D01*
X314766Y339844D01*
X314873Y339831D01*
X314982Y339827D01*
Y339039D01*
X314873Y339035D01*
X314766Y339022D01*
X314662Y339000D01*
X314560Y338970D01*
X314460Y338931D01*
X314364Y338883D01*
X314270Y338827D01*
X314179Y338762D01*
X314090Y338689D01*
X314004Y338606D01*
Y340260D01*
X314090Y340178D01*
D02*
G37*
G36*
X311590Y336678D02*
X311679Y336604D01*
X311770Y336539D01*
X311864Y336483D01*
X311961Y336435D01*
X312060Y336396D01*
X312161Y336366D01*
X312266Y336344D01*
X312373Y336331D01*
X312482Y336327D01*
Y335539D01*
X312373Y335535D01*
X312266Y335522D01*
X312161Y335500D01*
X312060Y335470D01*
X311961Y335431D01*
X311864Y335384D01*
X311770Y335327D01*
X311679Y335262D01*
X311590Y335189D01*
X311504Y335106D01*
Y336760D01*
X311590Y336678D01*
D02*
G37*
G36*
X353148Y333752D02*
X353081Y333748D01*
X353011Y333735D01*
X352938Y333712D01*
X352862Y333680D01*
X352784Y333639D01*
X352703Y333588D01*
X352620Y333528D01*
X352534Y333458D01*
X352353Y333291D01*
X351518Y334126D01*
X351606Y334218D01*
X351755Y334393D01*
X351815Y334476D01*
X351866Y334557D01*
X351907Y334635D01*
X351939Y334711D01*
X351962Y334784D01*
X351975Y334854D01*
X351979Y334921D01*
X353148Y333752D01*
D02*
G37*
G36*
X296054Y330715D02*
X296113Y330675D01*
X296181Y330639D01*
X296257Y330609D01*
X296341Y330583D01*
X296434Y330561D01*
X296536Y330545D01*
X296646Y330533D01*
X296892Y330524D01*
Y329343D01*
X296765Y329340D01*
X296536Y329321D01*
X296434Y329305D01*
X296341Y329283D01*
X296257Y329257D01*
X296181Y329227D01*
X296113Y329191D01*
X296054Y329151D01*
X296004Y329106D01*
Y330760D01*
X296054Y330715D01*
D02*
G37*
%LPC*%
G36*
X468160Y460049D02*
Y458433D01*
X469776D01*
X469707Y458781D01*
X469227Y459500D01*
X468508Y459980D01*
X468160Y460049D01*
D02*
G37*
G36*
X467160D02*
X466812Y459980D01*
X466093Y459500D01*
X465613Y458781D01*
X465544Y458433D01*
X467160D01*
Y460049D01*
D02*
G37*
G36*
X460160D02*
Y458433D01*
X461776D01*
X461707Y458781D01*
X461227Y459500D01*
X460508Y459980D01*
X460160Y460049D01*
D02*
G37*
G36*
X459160D02*
X458812Y459980D01*
X458093Y459500D01*
X457613Y458781D01*
X457544Y458433D01*
X459160D01*
Y460049D01*
D02*
G37*
G36*
X452160D02*
Y458433D01*
X453777D01*
X453707Y458781D01*
X453227Y459500D01*
X452508Y459980D01*
X452160Y460049D01*
D02*
G37*
G36*
X451160D02*
X450812Y459980D01*
X450093Y459500D01*
X449613Y458781D01*
X449544Y458433D01*
X451160D01*
Y460049D01*
D02*
G37*
G36*
X469776Y457433D02*
X468160D01*
Y455817D01*
X468508Y455886D01*
X469227Y456366D01*
X469707Y457085D01*
X469776Y457433D01*
D02*
G37*
G36*
X467160D02*
X465544D01*
X465613Y457085D01*
X466093Y456366D01*
X466812Y455886D01*
X467160Y455817D01*
Y457433D01*
D02*
G37*
G36*
X461776D02*
X460160D01*
Y455817D01*
X460508Y455886D01*
X461227Y456366D01*
X461707Y457085D01*
X461776Y457433D01*
D02*
G37*
G36*
X459160D02*
X457544D01*
X457613Y457085D01*
X458093Y456366D01*
X458812Y455886D01*
X459160Y455817D01*
Y457433D01*
D02*
G37*
G36*
X453777D02*
X452160D01*
Y455817D01*
X452508Y455886D01*
X453227Y456366D01*
X453707Y457085D01*
X453777Y457433D01*
D02*
G37*
G36*
X451160D02*
X449544D01*
X449613Y457085D01*
X450093Y456366D01*
X450812Y455886D01*
X451160Y455817D01*
Y457433D01*
D02*
G37*
G36*
X468160Y452049D02*
Y450433D01*
X469776D01*
X469707Y450781D01*
X469227Y451500D01*
X468508Y451980D01*
X468160Y452049D01*
D02*
G37*
G36*
X467160D02*
X466812Y451980D01*
X466093Y451500D01*
X465613Y450781D01*
X465544Y450433D01*
X467160D01*
Y452049D01*
D02*
G37*
G36*
X460160D02*
Y450433D01*
X461776D01*
X461707Y450781D01*
X461227Y451500D01*
X460508Y451980D01*
X460160Y452049D01*
D02*
G37*
G36*
X459160D02*
X458812Y451980D01*
X458093Y451500D01*
X457613Y450781D01*
X457544Y450433D01*
X459160D01*
Y452049D01*
D02*
G37*
G36*
X452160D02*
Y450433D01*
X453777D01*
X453707Y450781D01*
X453227Y451500D01*
X452508Y451980D01*
X452160Y452049D01*
D02*
G37*
G36*
X451160D02*
X450812Y451980D01*
X450093Y451500D01*
X449613Y450781D01*
X449544Y450433D01*
X451160D01*
Y452049D01*
D02*
G37*
G36*
X469776Y449433D02*
X468160D01*
Y447817D01*
X468508Y447886D01*
X469227Y448366D01*
X469707Y449085D01*
X469776Y449433D01*
D02*
G37*
G36*
X467160D02*
X465544D01*
X465613Y449085D01*
X466093Y448366D01*
X466812Y447886D01*
X467160Y447817D01*
Y449433D01*
D02*
G37*
G36*
X461776D02*
X460160D01*
Y447817D01*
X460508Y447886D01*
X461227Y448366D01*
X461707Y449085D01*
X461776Y449433D01*
D02*
G37*
G36*
X459160D02*
X457544D01*
X457613Y449085D01*
X458093Y448366D01*
X458812Y447886D01*
X459160Y447817D01*
Y449433D01*
D02*
G37*
G36*
X453777D02*
X452160D01*
Y447817D01*
X452508Y447886D01*
X453227Y448366D01*
X453707Y449085D01*
X453777Y449433D01*
D02*
G37*
G36*
X451160D02*
X449544D01*
X449613Y449085D01*
X450093Y448366D01*
X450812Y447886D01*
X451160Y447817D01*
Y449433D01*
D02*
G37*
G36*
X468160Y444049D02*
Y442433D01*
X469776D01*
X469707Y442781D01*
X469227Y443500D01*
X468508Y443980D01*
X468160Y444049D01*
D02*
G37*
G36*
X467160D02*
X466812Y443980D01*
X466093Y443500D01*
X465613Y442781D01*
X465544Y442433D01*
X467160D01*
Y444049D01*
D02*
G37*
G36*
X460160D02*
Y442433D01*
X461776D01*
X461707Y442781D01*
X461227Y443500D01*
X460508Y443980D01*
X460160Y444049D01*
D02*
G37*
G36*
X459160D02*
X458812Y443980D01*
X458093Y443500D01*
X457613Y442781D01*
X457544Y442433D01*
X459160D01*
Y444049D01*
D02*
G37*
G36*
X452160D02*
Y442433D01*
X453777D01*
X453707Y442781D01*
X453227Y443500D01*
X452508Y443980D01*
X452160Y444049D01*
D02*
G37*
G36*
X451160D02*
X450812Y443980D01*
X450093Y443500D01*
X449613Y442781D01*
X449544Y442433D01*
X451160D01*
Y444049D01*
D02*
G37*
G36*
X469776Y441433D02*
X468160D01*
Y439817D01*
X468508Y439886D01*
X469227Y440366D01*
X469707Y441085D01*
X469776Y441433D01*
D02*
G37*
G36*
X467160D02*
X465544D01*
X465613Y441085D01*
X466093Y440366D01*
X466812Y439886D01*
X467160Y439817D01*
Y441433D01*
D02*
G37*
G36*
X461776D02*
X460160D01*
Y439817D01*
X460508Y439886D01*
X461227Y440366D01*
X461707Y441085D01*
X461776Y441433D01*
D02*
G37*
G36*
X459160D02*
X457544D01*
X457613Y441085D01*
X458093Y440366D01*
X458812Y439886D01*
X459160Y439817D01*
Y441433D01*
D02*
G37*
G36*
X453777D02*
X452160D01*
Y439817D01*
X452508Y439886D01*
X453227Y440366D01*
X453707Y441085D01*
X453777Y441433D01*
D02*
G37*
G36*
X451160D02*
X449544D01*
X449613Y441085D01*
X450093Y440366D01*
X450812Y439886D01*
X451160Y439817D01*
Y441433D01*
D02*
G37*
G36*
X749670Y412272D02*
X748805D01*
X748006Y411941D01*
X747395Y411330D01*
X747064Y410531D01*
Y409666D01*
X747395Y408867D01*
X748006Y408256D01*
X748805Y407925D01*
X749670D01*
X750469Y408256D01*
X751080Y408867D01*
X751411Y409666D01*
Y410531D01*
X751080Y411330D01*
X750469Y411941D01*
X749670Y412272D01*
D02*
G37*
G36*
X526660Y425049D02*
Y423433D01*
X528276D01*
X528207Y423781D01*
X527727Y424500D01*
X527008Y424980D01*
X526660Y425049D01*
D02*
G37*
G36*
X518660D02*
Y423433D01*
X520276D01*
X520207Y423781D01*
X519727Y424500D01*
X519008Y424980D01*
X518660Y425049D01*
D02*
G37*
G36*
X534660D02*
Y423433D01*
X536276D01*
X536207Y423781D01*
X535727Y424500D01*
X535008Y424980D01*
X534660Y425049D01*
D02*
G37*
G36*
X510660D02*
Y423433D01*
X512277D01*
X512207Y423781D01*
X511727Y424500D01*
X511008Y424980D01*
X510660Y425049D01*
D02*
G37*
G36*
X525660Y425049D02*
X525312Y424980D01*
X524593Y424500D01*
X524113Y423781D01*
X524044Y423433D01*
X525660D01*
Y425049D01*
D02*
G37*
G36*
X517660D02*
X517312Y424980D01*
X516593Y424500D01*
X516113Y423781D01*
X516044Y423433D01*
X517660D01*
Y425049D01*
D02*
G37*
G36*
X533660D02*
X533312Y424980D01*
X532593Y424500D01*
X532113Y423781D01*
X532044Y423433D01*
X533660D01*
Y425049D01*
D02*
G37*
G36*
X509660D02*
X509312Y424980D01*
X508593Y424500D01*
X508113Y423781D01*
X508044Y423433D01*
X509660D01*
Y425049D01*
D02*
G37*
G36*
X536276Y422433D02*
X534660D01*
Y420817D01*
X535008Y420886D01*
X535727Y421366D01*
X536207Y422085D01*
X536276Y422433D01*
D02*
G37*
G36*
X528276D02*
X526660D01*
Y420817D01*
X527008Y420886D01*
X527727Y421366D01*
X528207Y422085D01*
X528276Y422433D01*
D02*
G37*
G36*
X520276D02*
X518660D01*
Y420817D01*
X519008Y420886D01*
X519727Y421366D01*
X520207Y422085D01*
X520276Y422433D01*
D02*
G37*
G36*
X512277D02*
X510660D01*
Y420817D01*
X511008Y420886D01*
X511727Y421366D01*
X512207Y422085D01*
X512277Y422433D01*
D02*
G37*
G36*
X533660D02*
X532044D01*
X532113Y422085D01*
X532593Y421366D01*
X533312Y420886D01*
X533660Y420817D01*
Y422433D01*
D02*
G37*
G36*
X525660D02*
X524044D01*
X524113Y422085D01*
X524593Y421366D01*
X525312Y420886D01*
X525660Y420817D01*
Y422433D01*
D02*
G37*
G36*
X517660D02*
X516044D01*
X516113Y422085D01*
X516593Y421366D01*
X517312Y420886D01*
X517660Y420817D01*
Y422433D01*
D02*
G37*
G36*
X509660D02*
X508044D01*
X508113Y422085D01*
X508593Y421366D01*
X509312Y420886D01*
X509660Y420817D01*
Y422433D01*
D02*
G37*
G36*
X526660Y417049D02*
Y415433D01*
X528276D01*
X528207Y415781D01*
X527727Y416500D01*
X527008Y416980D01*
X526660Y417049D01*
D02*
G37*
G36*
X518660D02*
Y415433D01*
X520276D01*
X520207Y415781D01*
X519727Y416500D01*
X519008Y416980D01*
X518660Y417049D01*
D02*
G37*
G36*
X534660D02*
Y415433D01*
X536276D01*
X536207Y415781D01*
X535727Y416500D01*
X535008Y416980D01*
X534660Y417049D01*
D02*
G37*
G36*
X510660D02*
Y415433D01*
X512277D01*
X512207Y415781D01*
X511727Y416500D01*
X511008Y416980D01*
X510660Y417049D01*
D02*
G37*
G36*
X525660Y417049D02*
X525312Y416980D01*
X524593Y416500D01*
X524113Y415781D01*
X524044Y415433D01*
X525660D01*
Y417049D01*
D02*
G37*
G36*
X517660D02*
X517312Y416980D01*
X516593Y416500D01*
X516113Y415781D01*
X516044Y415433D01*
X517660D01*
Y417049D01*
D02*
G37*
G36*
X533660D02*
X533312Y416980D01*
X532593Y416500D01*
X532113Y415781D01*
X532044Y415433D01*
X533660D01*
Y417049D01*
D02*
G37*
G36*
X509660D02*
X509312Y416980D01*
X508593Y416500D01*
X508113Y415781D01*
X508044Y415433D01*
X509660D01*
Y417049D01*
D02*
G37*
G36*
X536276Y414433D02*
X534660D01*
Y412817D01*
X535008Y412886D01*
X535727Y413366D01*
X536207Y414085D01*
X536276Y414433D01*
D02*
G37*
G36*
X528276D02*
X526660D01*
Y412817D01*
X527008Y412886D01*
X527727Y413366D01*
X528207Y414085D01*
X528276Y414433D01*
D02*
G37*
G36*
X520276D02*
X518660D01*
Y412817D01*
X519008Y412886D01*
X519727Y413366D01*
X520207Y414085D01*
X520276Y414433D01*
D02*
G37*
G36*
X512277D02*
X510660D01*
Y412817D01*
X511008Y412886D01*
X511727Y413366D01*
X512207Y414085D01*
X512277Y414433D01*
D02*
G37*
G36*
X533660D02*
X532044D01*
X532113Y414085D01*
X532593Y413366D01*
X533312Y412886D01*
X533660Y412817D01*
Y414433D01*
D02*
G37*
G36*
X525660D02*
X524044D01*
X524113Y414085D01*
X524593Y413366D01*
X525312Y412886D01*
X525660Y412817D01*
Y414433D01*
D02*
G37*
G36*
X517660D02*
X516044D01*
X516113Y414085D01*
X516593Y413366D01*
X517312Y412886D01*
X517660Y412817D01*
Y414433D01*
D02*
G37*
G36*
X509660D02*
X508044D01*
X508113Y414085D01*
X508593Y413366D01*
X509312Y412886D01*
X509660Y412817D01*
Y414433D01*
D02*
G37*
G36*
X526660Y409049D02*
Y407433D01*
X528276D01*
X528207Y407781D01*
X527727Y408500D01*
X527008Y408980D01*
X526660Y409049D01*
D02*
G37*
G36*
X518660D02*
Y407433D01*
X520276D01*
X520207Y407781D01*
X519727Y408500D01*
X519008Y408980D01*
X518660Y409049D01*
D02*
G37*
G36*
X534660D02*
Y407433D01*
X536276D01*
X536207Y407781D01*
X535727Y408500D01*
X535008Y408980D01*
X534660Y409049D01*
D02*
G37*
G36*
X510660D02*
Y407433D01*
X512277D01*
X512207Y407781D01*
X511727Y408500D01*
X511008Y408980D01*
X510660Y409049D01*
D02*
G37*
G36*
X525660Y409049D02*
X525312Y408980D01*
X524593Y408500D01*
X524113Y407781D01*
X524044Y407433D01*
X525660D01*
Y409049D01*
D02*
G37*
G36*
X517660D02*
X517312Y408980D01*
X516593Y408500D01*
X516113Y407781D01*
X516044Y407433D01*
X517660D01*
Y409049D01*
D02*
G37*
G36*
X533660D02*
X533312Y408980D01*
X532593Y408500D01*
X532113Y407781D01*
X532044Y407433D01*
X533660D01*
Y409049D01*
D02*
G37*
G36*
X509660D02*
X509312Y408980D01*
X508593Y408500D01*
X508113Y407781D01*
X508044Y407433D01*
X509660D01*
Y409049D01*
D02*
G37*
G36*
X536276Y406433D02*
X534660D01*
Y404817D01*
X535008Y404886D01*
X535727Y405366D01*
X536207Y406085D01*
X536276Y406433D01*
D02*
G37*
G36*
X528276D02*
X526660D01*
Y404817D01*
X527008Y404886D01*
X527727Y405366D01*
X528207Y406085D01*
X528276Y406433D01*
D02*
G37*
G36*
X520276D02*
X518660D01*
Y404817D01*
X519008Y404886D01*
X519727Y405366D01*
X520207Y406085D01*
X520276Y406433D01*
D02*
G37*
G36*
X512277D02*
X510660D01*
Y404817D01*
X511008Y404886D01*
X511727Y405366D01*
X512207Y406085D01*
X512277Y406433D01*
D02*
G37*
G36*
X533660D02*
X532044D01*
X532113Y406085D01*
X532593Y405366D01*
X533312Y404886D01*
X533660Y404817D01*
Y406433D01*
D02*
G37*
G36*
X525660D02*
X524044D01*
X524113Y406085D01*
X524593Y405366D01*
X525312Y404886D01*
X525660Y404817D01*
Y406433D01*
D02*
G37*
G36*
X517660D02*
X516044D01*
X516113Y406085D01*
X516593Y405366D01*
X517312Y404886D01*
X517660Y404817D01*
Y406433D01*
D02*
G37*
G36*
X509660D02*
X508044D01*
X508113Y406085D01*
X508593Y405366D01*
X509312Y404886D01*
X509660Y404817D01*
Y406433D01*
D02*
G37*
G36*
X429160Y460049D02*
Y458433D01*
X430777D01*
X430707Y458781D01*
X430227Y459500D01*
X429508Y459980D01*
X429160Y460049D01*
D02*
G37*
G36*
X428160D02*
X427812Y459980D01*
X427093Y459500D01*
X426613Y458781D01*
X426544Y458433D01*
X428160D01*
Y460049D01*
D02*
G37*
G36*
X421160D02*
Y458433D01*
X422777D01*
X422707Y458781D01*
X422227Y459500D01*
X421508Y459980D01*
X421160Y460049D01*
D02*
G37*
G36*
X420160D02*
X419812Y459980D01*
X419093Y459500D01*
X418613Y458781D01*
X418544Y458433D01*
X420160D01*
Y460049D01*
D02*
G37*
G36*
X413160D02*
Y458433D01*
X414777D01*
X414707Y458781D01*
X414227Y459500D01*
X413508Y459980D01*
X413160Y460049D01*
D02*
G37*
G36*
X412160D02*
X411812Y459980D01*
X411093Y459500D01*
X410613Y458781D01*
X410544Y458433D01*
X412160D01*
Y460049D01*
D02*
G37*
G36*
X430777Y457433D02*
X429160D01*
Y455817D01*
X429508Y455886D01*
X430227Y456366D01*
X430707Y457085D01*
X430777Y457433D01*
D02*
G37*
G36*
X428160D02*
X426544D01*
X426613Y457085D01*
X427093Y456366D01*
X427812Y455886D01*
X428160Y455817D01*
Y457433D01*
D02*
G37*
G36*
X422777D02*
X421160D01*
Y455817D01*
X421508Y455886D01*
X422227Y456366D01*
X422707Y457085D01*
X422777Y457433D01*
D02*
G37*
G36*
X420160D02*
X418544D01*
X418613Y457085D01*
X419093Y456366D01*
X419812Y455886D01*
X420160Y455817D01*
Y457433D01*
D02*
G37*
G36*
X414777D02*
X413160D01*
Y455817D01*
X413508Y455886D01*
X414227Y456366D01*
X414707Y457085D01*
X414777Y457433D01*
D02*
G37*
G36*
X412160D02*
X410544D01*
X410613Y457085D01*
X411093Y456366D01*
X411812Y455886D01*
X412160Y455817D01*
Y457433D01*
D02*
G37*
G36*
X429160Y452049D02*
Y450433D01*
X430777D01*
X430707Y450781D01*
X430227Y451500D01*
X429508Y451980D01*
X429160Y452049D01*
D02*
G37*
G36*
X428160D02*
X427812Y451980D01*
X427093Y451500D01*
X426613Y450781D01*
X426544Y450433D01*
X428160D01*
Y452049D01*
D02*
G37*
G36*
X421160D02*
Y450433D01*
X422777D01*
X422707Y450781D01*
X422227Y451500D01*
X421508Y451980D01*
X421160Y452049D01*
D02*
G37*
G36*
X420160D02*
X419812Y451980D01*
X419093Y451500D01*
X418613Y450781D01*
X418544Y450433D01*
X420160D01*
Y452049D01*
D02*
G37*
G36*
X413160D02*
Y450433D01*
X414777D01*
X414707Y450781D01*
X414227Y451500D01*
X413508Y451980D01*
X413160Y452049D01*
D02*
G37*
G36*
X412160D02*
X411812Y451980D01*
X411093Y451500D01*
X410613Y450781D01*
X410544Y450433D01*
X412160D01*
Y452049D01*
D02*
G37*
G36*
X430777Y449433D02*
X429160D01*
Y447817D01*
X429508Y447886D01*
X430227Y448366D01*
X430707Y449085D01*
X430777Y449433D01*
D02*
G37*
G36*
X428160D02*
X426544D01*
X426613Y449085D01*
X427093Y448366D01*
X427812Y447886D01*
X428160Y447817D01*
Y449433D01*
D02*
G37*
G36*
X422777D02*
X421160D01*
Y447817D01*
X421508Y447886D01*
X422227Y448366D01*
X422707Y449085D01*
X422777Y449433D01*
D02*
G37*
G36*
X420160D02*
X418544D01*
X418613Y449085D01*
X419093Y448366D01*
X419812Y447886D01*
X420160Y447817D01*
Y449433D01*
D02*
G37*
G36*
X414777D02*
X413160D01*
Y447817D01*
X413508Y447886D01*
X414227Y448366D01*
X414707Y449085D01*
X414777Y449433D01*
D02*
G37*
G36*
X412160D02*
X410544D01*
X410613Y449085D01*
X411093Y448366D01*
X411812Y447886D01*
X412160Y447817D01*
Y449433D01*
D02*
G37*
G36*
X429160Y444049D02*
Y442433D01*
X430777D01*
X430707Y442781D01*
X430227Y443500D01*
X429508Y443980D01*
X429160Y444049D01*
D02*
G37*
G36*
X428160D02*
X427812Y443980D01*
X427093Y443500D01*
X426613Y442781D01*
X426544Y442433D01*
X428160D01*
Y444049D01*
D02*
G37*
G36*
X421160D02*
Y442433D01*
X422777D01*
X422707Y442781D01*
X422227Y443500D01*
X421508Y443980D01*
X421160Y444049D01*
D02*
G37*
G36*
X420160D02*
X419812Y443980D01*
X419093Y443500D01*
X418613Y442781D01*
X418544Y442433D01*
X420160D01*
Y444049D01*
D02*
G37*
G36*
X413160D02*
Y442433D01*
X414777D01*
X414707Y442781D01*
X414227Y443500D01*
X413508Y443980D01*
X413160Y444049D01*
D02*
G37*
G36*
X412160D02*
X411812Y443980D01*
X411093Y443500D01*
X410613Y442781D01*
X410544Y442433D01*
X412160D01*
Y444049D01*
D02*
G37*
G36*
X430777Y441433D02*
X429160D01*
Y439817D01*
X429508Y439886D01*
X430227Y440366D01*
X430707Y441085D01*
X430777Y441433D01*
D02*
G37*
G36*
X428160D02*
X426544D01*
X426613Y441085D01*
X427093Y440366D01*
X427812Y439886D01*
X428160Y439817D01*
Y441433D01*
D02*
G37*
G36*
X422777D02*
X421160D01*
Y439817D01*
X421508Y439886D01*
X422227Y440366D01*
X422707Y441085D01*
X422777Y441433D01*
D02*
G37*
G36*
X420160D02*
X418544D01*
X418613Y441085D01*
X419093Y440366D01*
X419812Y439886D01*
X420160Y439817D01*
Y441433D01*
D02*
G37*
G36*
X414777D02*
X413160D01*
Y439817D01*
X413508Y439886D01*
X414227Y440366D01*
X414707Y441085D01*
X414777Y441433D01*
D02*
G37*
G36*
X412160D02*
X410544D01*
X410613Y441085D01*
X411093Y440366D01*
X411812Y439886D01*
X412160Y439817D01*
Y441433D01*
D02*
G37*
G36*
X816663Y419739D02*
X815815Y419571D01*
X815096Y419090D01*
X814616Y418372D01*
X814447Y417524D01*
X814616Y416676D01*
X815096Y415957D01*
X815815Y415477D01*
X816663Y415308D01*
X817511Y415477D01*
X818229Y415957D01*
X818710Y416676D01*
X818878Y417524D01*
X818710Y418372D01*
X818229Y419090D01*
X817511Y419571D01*
X816663Y419739D01*
D02*
G37*
G36*
X796072Y402647D02*
X795416Y402517D01*
X794860Y402145D01*
X794489Y401589D01*
X794358Y400933D01*
X794489Y400277D01*
X794860Y399721D01*
X795157Y399523D01*
Y398930D01*
X794860Y398732D01*
X794489Y398176D01*
X794358Y397520D01*
X794489Y396864D01*
X794860Y396308D01*
X795416Y395936D01*
X796072Y395806D01*
X796728Y395936D01*
X797284Y396308D01*
X797656Y396864D01*
X797786Y397520D01*
X797656Y398176D01*
X797284Y398732D01*
X796987Y398930D01*
Y399523D01*
X797284Y399721D01*
X797656Y400277D01*
X797786Y400933D01*
X797656Y401589D01*
X797284Y402145D01*
X796728Y402517D01*
X796072Y402647D01*
D02*
G37*
G36*
Y395147D02*
X795416Y395017D01*
X794860Y394645D01*
X794489Y394089D01*
X794358Y393433D01*
X794489Y392777D01*
X794860Y392221D01*
X795250Y391961D01*
X795257Y391941D01*
Y391425D01*
X795250Y391405D01*
X794860Y391145D01*
X794489Y390589D01*
X794358Y389933D01*
X794489Y389277D01*
X794860Y388721D01*
X795416Y388350D01*
X796072Y388219D01*
X796728Y388350D01*
X797284Y388721D01*
X797656Y389277D01*
X797786Y389933D01*
X797656Y390589D01*
X797284Y391145D01*
X796895Y391405D01*
X796887Y391425D01*
Y391941D01*
X796895Y391961D01*
X797284Y392221D01*
X797656Y392777D01*
X797786Y393433D01*
X797656Y394089D01*
X797284Y394645D01*
X796728Y395017D01*
X796072Y395147D01*
D02*
G37*
G36*
X526660Y384049D02*
Y382433D01*
X528276D01*
X528207Y382781D01*
X527727Y383500D01*
X527008Y383980D01*
X526660Y384049D01*
D02*
G37*
G36*
X518660D02*
Y382433D01*
X520276D01*
X520207Y382781D01*
X519727Y383500D01*
X519008Y383980D01*
X518660Y384049D01*
D02*
G37*
G36*
X534660D02*
Y382433D01*
X536276D01*
X536207Y382781D01*
X535727Y383500D01*
X535008Y383980D01*
X534660Y384049D01*
D02*
G37*
G36*
X510660D02*
Y382433D01*
X512277D01*
X512207Y382781D01*
X511727Y383500D01*
X511008Y383980D01*
X510660Y384049D01*
D02*
G37*
G36*
X525660Y384049D02*
X525312Y383980D01*
X524593Y383500D01*
X524113Y382781D01*
X524044Y382433D01*
X525660D01*
Y384049D01*
D02*
G37*
G36*
X517660D02*
X517312Y383980D01*
X516593Y383500D01*
X516113Y382781D01*
X516044Y382433D01*
X517660D01*
Y384049D01*
D02*
G37*
G36*
X533660D02*
X533312Y383980D01*
X532593Y383500D01*
X532113Y382781D01*
X532044Y382433D01*
X533660D01*
Y384049D01*
D02*
G37*
G36*
X509660D02*
X509312Y383980D01*
X508593Y383500D01*
X508113Y382781D01*
X508044Y382433D01*
X509660D01*
Y384049D01*
D02*
G37*
G36*
X536276Y381433D02*
X534660D01*
Y379817D01*
X535008Y379886D01*
X535727Y380366D01*
X536207Y381085D01*
X536276Y381433D01*
D02*
G37*
G36*
X528276D02*
X526660D01*
Y379817D01*
X527008Y379886D01*
X527727Y380366D01*
X528207Y381085D01*
X528276Y381433D01*
D02*
G37*
G36*
X520276D02*
X518660D01*
Y379817D01*
X519008Y379886D01*
X519727Y380366D01*
X520207Y381085D01*
X520276Y381433D01*
D02*
G37*
G36*
X512277D02*
X510660D01*
Y379817D01*
X511008Y379886D01*
X511727Y380366D01*
X512207Y381085D01*
X512277Y381433D01*
D02*
G37*
G36*
X533660D02*
X532044D01*
X532113Y381085D01*
X532593Y380366D01*
X533312Y379886D01*
X533660Y379817D01*
Y381433D01*
D02*
G37*
G36*
X525660D02*
X524044D01*
X524113Y381085D01*
X524593Y380366D01*
X525312Y379886D01*
X525660Y379817D01*
Y381433D01*
D02*
G37*
G36*
X517660D02*
X516044D01*
X516113Y381085D01*
X516593Y380366D01*
X517312Y379886D01*
X517660Y379817D01*
Y381433D01*
D02*
G37*
G36*
X509660D02*
X508044D01*
X508113Y381085D01*
X508593Y380366D01*
X509312Y379886D01*
X509660Y379817D01*
Y381433D01*
D02*
G37*
G36*
X526660Y376049D02*
Y374433D01*
X528276D01*
X528207Y374781D01*
X527727Y375500D01*
X527008Y375980D01*
X526660Y376049D01*
D02*
G37*
G36*
X518660D02*
Y374433D01*
X520276D01*
X520207Y374781D01*
X519727Y375500D01*
X519008Y375980D01*
X518660Y376049D01*
D02*
G37*
G36*
X534660D02*
Y374433D01*
X536276D01*
X536207Y374781D01*
X535727Y375500D01*
X535008Y375980D01*
X534660Y376049D01*
D02*
G37*
G36*
X510660D02*
Y374433D01*
X512277D01*
X512207Y374781D01*
X511727Y375500D01*
X511008Y375980D01*
X510660Y376049D01*
D02*
G37*
G36*
X525660Y376049D02*
X525312Y375980D01*
X524593Y375500D01*
X524113Y374781D01*
X524044Y374433D01*
X525660D01*
Y376049D01*
D02*
G37*
G36*
X517660D02*
X517312Y375980D01*
X516593Y375500D01*
X516113Y374781D01*
X516044Y374433D01*
X517660D01*
Y376049D01*
D02*
G37*
G36*
X533660D02*
X533312Y375980D01*
X532593Y375500D01*
X532113Y374781D01*
X532044Y374433D01*
X533660D01*
Y376049D01*
D02*
G37*
G36*
X509660D02*
X509312Y375980D01*
X508593Y375500D01*
X508113Y374781D01*
X508044Y374433D01*
X509660D01*
Y376049D01*
D02*
G37*
G36*
X536276Y373433D02*
X534660D01*
Y371817D01*
X535008Y371886D01*
X535727Y372366D01*
X536207Y373085D01*
X536276Y373433D01*
D02*
G37*
G36*
X528276D02*
X526660D01*
Y371817D01*
X527008Y371886D01*
X527727Y372366D01*
X528207Y373085D01*
X528276Y373433D01*
D02*
G37*
G36*
X520276D02*
X518660D01*
Y371817D01*
X519008Y371886D01*
X519727Y372366D01*
X520207Y373085D01*
X520276Y373433D01*
D02*
G37*
G36*
X512277D02*
X510660D01*
Y371817D01*
X511008Y371886D01*
X511727Y372366D01*
X512207Y373085D01*
X512277Y373433D01*
D02*
G37*
G36*
X533660D02*
X532044D01*
X532113Y373085D01*
X532593Y372366D01*
X533312Y371886D01*
X533660Y371817D01*
Y373433D01*
D02*
G37*
G36*
X525660D02*
X524044D01*
X524113Y373085D01*
X524593Y372366D01*
X525312Y371886D01*
X525660Y371817D01*
Y373433D01*
D02*
G37*
G36*
X517660D02*
X516044D01*
X516113Y373085D01*
X516593Y372366D01*
X517312Y371886D01*
X517660Y371817D01*
Y373433D01*
D02*
G37*
G36*
X509660D02*
X508044D01*
X508113Y373085D01*
X508593Y372366D01*
X509312Y371886D01*
X509660Y371817D01*
Y373433D01*
D02*
G37*
G36*
X526660Y368049D02*
Y366433D01*
X528276D01*
X528207Y366781D01*
X527727Y367500D01*
X527008Y367980D01*
X526660Y368049D01*
D02*
G37*
G36*
X518660D02*
Y366433D01*
X520276D01*
X520207Y366781D01*
X519727Y367500D01*
X519008Y367980D01*
X518660Y368049D01*
D02*
G37*
G36*
X534660D02*
Y366433D01*
X536276D01*
X536207Y366781D01*
X535727Y367500D01*
X535008Y367980D01*
X534660Y368049D01*
D02*
G37*
G36*
X510660D02*
Y366433D01*
X512277D01*
X512207Y366781D01*
X511727Y367500D01*
X511008Y367980D01*
X510660Y368049D01*
D02*
G37*
G36*
X525660Y368049D02*
X525312Y367980D01*
X524593Y367500D01*
X524113Y366781D01*
X524044Y366433D01*
X525660D01*
Y368049D01*
D02*
G37*
G36*
X517660D02*
X517312Y367980D01*
X516593Y367500D01*
X516113Y366781D01*
X516044Y366433D01*
X517660D01*
Y368049D01*
D02*
G37*
G36*
X533660D02*
X533312Y367980D01*
X532593Y367500D01*
X532113Y366781D01*
X532044Y366433D01*
X533660D01*
Y368049D01*
D02*
G37*
G36*
X509660D02*
X509312Y367980D01*
X508593Y367500D01*
X508113Y366781D01*
X508044Y366433D01*
X509660D01*
Y368049D01*
D02*
G37*
G36*
X536276Y365433D02*
X534660D01*
Y363817D01*
X535008Y363886D01*
X535727Y364366D01*
X536207Y365085D01*
X536276Y365433D01*
D02*
G37*
G36*
X528276D02*
X526660D01*
Y363817D01*
X527008Y363886D01*
X527727Y364366D01*
X528207Y365085D01*
X528276Y365433D01*
D02*
G37*
G36*
X520276D02*
X518660D01*
Y363817D01*
X519008Y363886D01*
X519727Y364366D01*
X520207Y365085D01*
X520276Y365433D01*
D02*
G37*
G36*
X512277D02*
X510660D01*
Y363817D01*
X511008Y363886D01*
X511727Y364366D01*
X512207Y365085D01*
X512277Y365433D01*
D02*
G37*
G36*
X533660D02*
X532044D01*
X532113Y365085D01*
X532593Y364366D01*
X533312Y363886D01*
X533660Y363817D01*
Y365433D01*
D02*
G37*
G36*
X525660D02*
X524044D01*
X524113Y365085D01*
X524593Y364366D01*
X525312Y363886D01*
X525660Y363817D01*
Y365433D01*
D02*
G37*
G36*
X517660D02*
X516044D01*
X516113Y365085D01*
X516593Y364366D01*
X517312Y363886D01*
X517660Y363817D01*
Y365433D01*
D02*
G37*
G36*
X509660D02*
X508044D01*
X508113Y365085D01*
X508593Y364366D01*
X509312Y363886D01*
X509660Y363817D01*
Y365433D01*
D02*
G37*
G36*
X845572Y328078D02*
Y326433D01*
X847217D01*
X847132Y326639D01*
D01*
X846915Y327164D01*
X846303Y327776D01*
X845572Y328078D01*
D02*
G37*
G36*
X844572D02*
X843841Y327776D01*
X843230Y327164D01*
X842927Y326433D01*
X844572D01*
Y328078D01*
D02*
G37*
G36*
X839572D02*
Y326433D01*
X841217D01*
X840915Y327164D01*
X840303Y327776D01*
X839572Y328078D01*
D02*
G37*
G36*
X838572D02*
X837841Y327776D01*
X837230Y327164D01*
X836927Y326433D01*
X838572D01*
Y328078D01*
D02*
G37*
G36*
X847217Y325433D02*
X845572D01*
Y323788D01*
X846303Y324091D01*
X846915Y324702D01*
X847132Y325227D01*
D01*
X847217Y325433D01*
D02*
G37*
G36*
X844572D02*
X842927D01*
X843230Y324702D01*
X843841Y324091D01*
X844572Y323788D01*
Y325433D01*
D02*
G37*
G36*
X841217D02*
X839572D01*
Y323788D01*
X840303Y324091D01*
X840915Y324702D01*
X841217Y325433D01*
D02*
G37*
G36*
X838572D02*
X836927D01*
X837230Y324702D01*
X837841Y324091D01*
X838572Y323788D01*
Y325433D01*
D02*
G37*
G36*
X845572Y319078D02*
Y317433D01*
X847217D01*
X846915Y318164D01*
X846303Y318776D01*
X845572Y319078D01*
D02*
G37*
G36*
X844572D02*
X843841Y318776D01*
X843230Y318164D01*
X842927Y317433D01*
X844572D01*
Y319078D01*
D02*
G37*
G36*
X839572D02*
Y317433D01*
X841217D01*
X840915Y318164D01*
X840303Y318776D01*
X839572Y319078D01*
D02*
G37*
G36*
X838572D02*
X837841Y318776D01*
X837230Y318164D01*
X836927Y317433D01*
X838572D01*
Y319078D01*
D02*
G37*
G36*
X847217Y316433D02*
X845572D01*
Y314788D01*
X846303Y315091D01*
X846915Y315702D01*
X847217Y316433D01*
D02*
G37*
G36*
X844572D02*
X842927D01*
X843230Y315702D01*
X843841Y315091D01*
X844572Y314788D01*
Y316433D01*
D02*
G37*
G36*
X841217D02*
X839572D01*
Y314788D01*
X840303Y315091D01*
X840915Y315702D01*
X841217Y316433D01*
D02*
G37*
G36*
X838572D02*
X836927D01*
X837230Y315702D01*
X837841Y315091D01*
X838572Y314788D01*
Y316433D01*
D02*
G37*
G36*
X518160Y343049D02*
Y341433D01*
X519776D01*
X519707Y341781D01*
X519227Y342500D01*
X518508Y342980D01*
X518160Y343049D01*
D02*
G37*
G36*
X526160D02*
Y341433D01*
X527776D01*
X527707Y341781D01*
X527227Y342500D01*
X526508Y342980D01*
X526160Y343049D01*
D02*
G37*
G36*
X534160D02*
Y341433D01*
X535777D01*
X535707Y341781D01*
X535227Y342500D01*
X534508Y342980D01*
X534160Y343049D01*
D02*
G37*
G36*
X510160D02*
Y341433D01*
X511776D01*
X511707Y341781D01*
X511227Y342500D01*
X510508Y342980D01*
X510160Y343049D01*
D02*
G37*
G36*
X517160Y343049D02*
X516812Y342980D01*
X516093Y342500D01*
X515613Y341781D01*
X515544Y341433D01*
X517160D01*
Y343049D01*
D02*
G37*
G36*
X525160D02*
X524812Y342980D01*
X524093Y342500D01*
X523613Y341781D01*
X523544Y341433D01*
X525160D01*
Y343049D01*
D02*
G37*
G36*
X533160D02*
X532812Y342980D01*
X532093Y342500D01*
X531613Y341781D01*
X531544Y341433D01*
X533160D01*
Y343049D01*
D02*
G37*
G36*
X509160D02*
X508812Y342980D01*
X508093Y342500D01*
X507613Y341781D01*
X507544Y341433D01*
X509160D01*
Y343049D01*
D02*
G37*
G36*
X533160Y340433D02*
X531544D01*
X531613Y340085D01*
X532093Y339366D01*
X532812Y338886D01*
X533160Y338817D01*
Y340433D01*
D02*
G37*
G36*
X525160D02*
X523544D01*
X523613Y340085D01*
X524093Y339366D01*
X524812Y338886D01*
X525160Y338817D01*
Y340433D01*
D02*
G37*
G36*
X517160D02*
X515544D01*
X515613Y340085D01*
X516093Y339366D01*
X516812Y338886D01*
X517160Y338817D01*
Y340433D01*
D02*
G37*
G36*
X509160D02*
X507544D01*
X507613Y340085D01*
X508093Y339366D01*
X508812Y338886D01*
X509160Y338817D01*
Y340433D01*
D02*
G37*
G36*
X535777D02*
X534160D01*
Y338817D01*
X534508Y338886D01*
X535227Y339366D01*
X535707Y340085D01*
X535777Y340433D01*
D02*
G37*
G36*
X527776D02*
X526160D01*
Y338817D01*
X526508Y338886D01*
X527227Y339366D01*
X527707Y340085D01*
X527776Y340433D01*
D02*
G37*
G36*
X519776D02*
X518160D01*
Y338817D01*
X518508Y338886D01*
X519227Y339366D01*
X519707Y340085D01*
X519776Y340433D01*
D02*
G37*
G36*
X511776D02*
X510160D01*
Y338817D01*
X510508Y338886D01*
X511227Y339366D01*
X511707Y340085D01*
X511776Y340433D01*
D02*
G37*
G36*
X518160Y335049D02*
Y333433D01*
X519776D01*
X519707Y333781D01*
X519227Y334500D01*
X518508Y334980D01*
X518160Y335049D01*
D02*
G37*
G36*
X526160D02*
Y333433D01*
X527776D01*
X527707Y333781D01*
X527227Y334500D01*
X526508Y334980D01*
X526160Y335049D01*
D02*
G37*
G36*
X534160D02*
Y333433D01*
X535777D01*
X535707Y333781D01*
X535227Y334500D01*
X534508Y334980D01*
X534160Y335049D01*
D02*
G37*
G36*
X510160D02*
Y333433D01*
X511776D01*
X511707Y333781D01*
X511227Y334500D01*
X510508Y334980D01*
X510160Y335049D01*
D02*
G37*
G36*
X517160Y335049D02*
X516812Y334980D01*
X516093Y334500D01*
X515613Y333781D01*
X515544Y333433D01*
X517160D01*
Y335049D01*
D02*
G37*
G36*
X525160D02*
X524812Y334980D01*
X524093Y334500D01*
X523613Y333781D01*
X523544Y333433D01*
X525160D01*
Y335049D01*
D02*
G37*
G36*
X533160D02*
X532812Y334980D01*
X532093Y334500D01*
X531613Y333781D01*
X531544Y333433D01*
X533160D01*
Y335049D01*
D02*
G37*
G36*
X509160D02*
X508812Y334980D01*
X508093Y334500D01*
X507613Y333781D01*
X507544Y333433D01*
X509160D01*
Y335049D01*
D02*
G37*
G36*
X533160Y332433D02*
X531544D01*
X531613Y332085D01*
X532093Y331366D01*
X532812Y330886D01*
X533160Y330817D01*
Y332433D01*
D02*
G37*
G36*
X525160D02*
X523544D01*
X523613Y332085D01*
X524093Y331366D01*
X524812Y330886D01*
X525160Y330817D01*
Y332433D01*
D02*
G37*
G36*
X517160D02*
X515544D01*
X515613Y332085D01*
X516093Y331366D01*
X516812Y330886D01*
X517160Y330817D01*
Y332433D01*
D02*
G37*
G36*
X509160D02*
X507544D01*
X507613Y332085D01*
X508093Y331366D01*
X508812Y330886D01*
X509160Y330817D01*
Y332433D01*
D02*
G37*
G36*
X535777D02*
X534160D01*
Y330817D01*
X534508Y330886D01*
X535227Y331366D01*
X535707Y332085D01*
X535777Y332433D01*
D02*
G37*
G36*
X527776D02*
X526160D01*
Y330817D01*
X526508Y330886D01*
X527227Y331366D01*
X527707Y332085D01*
X527776Y332433D01*
D02*
G37*
G36*
X519776D02*
X518160D01*
Y330817D01*
X518508Y330886D01*
X519227Y331366D01*
X519707Y332085D01*
X519776Y332433D01*
D02*
G37*
G36*
X511776D02*
X510160D01*
Y330817D01*
X510508Y330886D01*
X511227Y331366D01*
X511707Y332085D01*
X511776Y332433D01*
D02*
G37*
G36*
X518160Y327049D02*
Y325433D01*
X519776D01*
X519707Y325781D01*
X519227Y326500D01*
X518508Y326980D01*
X518160Y327049D01*
D02*
G37*
G36*
X526160D02*
Y325433D01*
X527776D01*
X527707Y325781D01*
X527227Y326500D01*
X526508Y326980D01*
X526160Y327049D01*
D02*
G37*
G36*
X534160D02*
Y325433D01*
X535777D01*
X535707Y325781D01*
X535227Y326500D01*
X534508Y326980D01*
X534160Y327049D01*
D02*
G37*
G36*
X510160D02*
Y325433D01*
X511776D01*
X511707Y325781D01*
X511227Y326500D01*
X510508Y326980D01*
X510160Y327049D01*
D02*
G37*
G36*
X517160Y327049D02*
X516812Y326980D01*
X516093Y326500D01*
X515613Y325781D01*
X515544Y325433D01*
X517160D01*
Y327049D01*
D02*
G37*
G36*
X525160D02*
X524812Y326980D01*
X524093Y326500D01*
X523613Y325781D01*
X523544Y325433D01*
X525160D01*
Y327049D01*
D02*
G37*
G36*
X533160D02*
X532812Y326980D01*
X532093Y326500D01*
X531613Y325781D01*
X531544Y325433D01*
X533160D01*
Y327049D01*
D02*
G37*
G36*
X509160D02*
X508812Y326980D01*
X508093Y326500D01*
X507613Y325781D01*
X507544Y325433D01*
X509160D01*
Y327049D01*
D02*
G37*
G36*
X533160Y324433D02*
X531544D01*
X531613Y324085D01*
X532093Y323366D01*
X532812Y322886D01*
X533160Y322817D01*
Y324433D01*
D02*
G37*
G36*
X525160D02*
X523544D01*
X523613Y324085D01*
X524093Y323366D01*
X524812Y322886D01*
X525160Y322817D01*
Y324433D01*
D02*
G37*
G36*
X517160D02*
X515544D01*
X515613Y324085D01*
X516093Y323366D01*
X516812Y322886D01*
X517160Y322817D01*
Y324433D01*
D02*
G37*
G36*
X509160D02*
X507544D01*
X507613Y324085D01*
X508093Y323366D01*
X508812Y322886D01*
X509160Y322817D01*
Y324433D01*
D02*
G37*
G36*
X535777D02*
X534160D01*
Y322817D01*
X534508Y322886D01*
X535227Y323366D01*
X535707Y324085D01*
X535777Y324433D01*
D02*
G37*
G36*
X527776D02*
X526160D01*
Y322817D01*
X526508Y322886D01*
X527227Y323366D01*
X527707Y324085D01*
X527776Y324433D01*
D02*
G37*
G36*
X519776D02*
X518160D01*
Y322817D01*
X518508Y322886D01*
X519227Y323366D01*
X519707Y324085D01*
X519776Y324433D01*
D02*
G37*
G36*
X511776D02*
X510160D01*
Y322817D01*
X510508Y322886D01*
X511227Y323366D01*
X511707Y324085D01*
X511776Y324433D01*
D02*
G37*
G36*
X233991Y425665D02*
X229660D01*
Y422516D01*
X233991D01*
Y425665D01*
D02*
G37*
G36*
X228660D02*
X224329D01*
Y422516D01*
X228660D01*
Y425665D01*
D02*
G37*
G36*
X247160Y420866D02*
X246773Y420866D01*
X238160Y420866D01*
X237854Y420739D01*
X232949Y415835D01*
X230212D01*
X230144Y415848D01*
X228176D01*
X227252Y415664D01*
X226468Y415141D01*
X225945Y414357D01*
X225761Y413433D01*
X225945Y412509D01*
X226468Y411726D01*
X226786Y411513D01*
Y410353D01*
X226468Y410141D01*
X225945Y409357D01*
X225761Y408433D01*
X225945Y407509D01*
X226468Y406726D01*
X226786Y406513D01*
Y405353D01*
X226468Y405141D01*
X225945Y404357D01*
X225761Y403433D01*
X225945Y402509D01*
X226468Y401725D01*
X226786Y401513D01*
Y400353D01*
X226468Y400141D01*
X225945Y399357D01*
X225761Y398433D01*
X225945Y397509D01*
X226468Y396726D01*
X226786Y396513D01*
Y395353D01*
X226468Y395141D01*
X225945Y394357D01*
X225761Y393433D01*
X225945Y392509D01*
X226468Y391725D01*
X226786Y391513D01*
Y390353D01*
X226468Y390141D01*
X225945Y389357D01*
X225761Y388433D01*
X225945Y387509D01*
X226468Y386725D01*
X226786Y386513D01*
Y385353D01*
X226468Y385141D01*
X225945Y384357D01*
X225761Y383433D01*
X225945Y382509D01*
X226468Y381726D01*
X226668Y381592D01*
X226664Y380392D01*
X226396Y380213D01*
X225851Y379396D01*
X225759Y378933D01*
X229160D01*
X232562D01*
X232470Y379396D01*
X231924Y380213D01*
X231656Y380392D01*
X231573Y380597D01*
X231668Y380864D01*
X232010Y381512D01*
X233797Y381619D01*
X234014Y381620D01*
X234899D01*
X234929Y381591D01*
X235728Y381260D01*
X236592D01*
X237391Y381591D01*
X237618Y381817D01*
X242152D01*
X242327Y381852D01*
X246095D01*
Y385408D01*
X242327D01*
X242152Y385443D01*
X238059D01*
X237614Y386228D01*
X237972Y386738D01*
X242152D01*
X242327Y386773D01*
X246095D01*
Y390329D01*
X242327D01*
X242152Y390364D01*
X238106D01*
X237714Y391364D01*
X238033Y391660D01*
X242152D01*
X242327Y391694D01*
X246095D01*
Y395250D01*
X242327D01*
X242152Y395285D01*
X238144D01*
X237750Y396285D01*
X238066Y396581D01*
X242152D01*
X242327Y396616D01*
X246095D01*
Y400172D01*
X242327D01*
X242152Y400207D01*
X238207D01*
X237798Y401206D01*
X238099Y401502D01*
X242152D01*
X242327Y401537D01*
X246095D01*
Y405093D01*
X242327D01*
X242152Y405128D01*
X237972D01*
X237614Y405638D01*
X238059Y406423D01*
X242152D01*
X242327Y406458D01*
X246095D01*
Y409285D01*
X246096Y409607D01*
X246398Y410198D01*
X246894Y410500D01*
X247160D01*
X247466Y410627D01*
X247593Y410933D01*
X247593Y420045D01*
X247593Y420433D01*
X247593Y420433D01*
X247466Y420739D01*
X247160Y420866D01*
X247160Y420866D01*
D02*
G37*
G36*
X233991Y421516D02*
X229660D01*
Y418366D01*
X233991D01*
Y421516D01*
D02*
G37*
G36*
X228660D02*
X224329D01*
Y418366D01*
X228660D01*
Y421516D01*
D02*
G37*
G36*
X267495Y418114D02*
X266826D01*
X266208Y417858D01*
X265735Y417385D01*
X265479Y416768D01*
Y416099D01*
X265735Y415481D01*
X266208Y415008D01*
X266826Y414752D01*
X267495D01*
X268112Y415008D01*
X268585Y415481D01*
X268841Y416099D01*
Y416768D01*
X268585Y417385D01*
X268112Y417858D01*
X267495Y418114D01*
D02*
G37*
G36*
X254995Y402114D02*
X254326D01*
X253708Y401858D01*
X253235Y401385D01*
X252979Y400768D01*
Y400099D01*
X253235Y399481D01*
X253708Y399008D01*
X254326Y398752D01*
X254995D01*
X255612Y399008D01*
X256085Y399481D01*
X256341Y400099D01*
Y400768D01*
X256085Y401385D01*
X255612Y401858D01*
X254995Y402114D01*
D02*
G37*
G36*
X246196Y380587D02*
X242652D01*
Y379209D01*
X246196D01*
Y380587D01*
D02*
G37*
G36*
X241652D02*
X238109D01*
Y379209D01*
X241652D01*
Y380587D01*
D02*
G37*
G36*
X246196Y378209D02*
X242652D01*
Y376831D01*
X246196D01*
Y378209D01*
D02*
G37*
G36*
X241652D02*
X238109D01*
Y376831D01*
X241652D01*
Y378209D01*
D02*
G37*
G36*
X232562Y377933D02*
X229660D01*
Y375916D01*
X230144D01*
X231107Y376108D01*
X231924Y376653D01*
X232470Y377470D01*
X232562Y377933D01*
D02*
G37*
G36*
X228660D02*
X225758D01*
X225851Y377470D01*
X226396Y376653D01*
X227213Y376108D01*
X228176Y375916D01*
X228660D01*
Y377933D01*
D02*
G37*
G36*
X233991Y373500D02*
X229660D01*
Y370350D01*
X233991D01*
Y373500D01*
D02*
G37*
G36*
X228660D02*
X224329D01*
Y370350D01*
X228660D01*
Y373500D01*
D02*
G37*
G36*
X233991Y369350D02*
X229660D01*
Y366201D01*
X233991D01*
Y369350D01*
D02*
G37*
G36*
X228660D02*
X224329D01*
Y366201D01*
X228660D01*
Y369350D01*
D02*
G37*
G36*
X244994Y350496D02*
X244326D01*
X243708Y350240D01*
X243235Y349767D01*
X242979Y349149D01*
Y348481D01*
X243235Y347863D01*
X243708Y347390D01*
X244326Y347134D01*
X244994D01*
X245612Y347390D01*
X246085Y347863D01*
X246341Y348481D01*
Y349149D01*
X246085Y349767D01*
X245612Y350240D01*
X244994Y350496D01*
D02*
G37*
G36*
X230144Y351348D02*
X228176D01*
X227252Y351164D01*
X226468Y350641D01*
X225945Y349857D01*
X225761Y348933D01*
X225945Y348009D01*
X226468Y347225D01*
X226786Y347013D01*
Y345853D01*
X226468Y345641D01*
X225945Y344857D01*
X225761Y343933D01*
X225945Y343009D01*
X226468Y342226D01*
X226786Y342013D01*
Y340853D01*
X226468Y340641D01*
X225945Y339857D01*
X225761Y338933D01*
X225945Y338009D01*
X226468Y337226D01*
X226668Y337092D01*
X226664Y335892D01*
X226396Y335713D01*
X225851Y334896D01*
X225759Y334433D01*
X229160D01*
X232562D01*
X232470Y334896D01*
X231924Y335713D01*
X231656Y335892D01*
X231652Y337092D01*
X231852Y337226D01*
X232375Y338009D01*
X232559Y338933D01*
X232375Y339857D01*
X231852Y340641D01*
X231535Y340853D01*
Y342013D01*
X231852Y342226D01*
X232375Y343009D01*
X232559Y343933D01*
X232375Y344857D01*
X231852Y345641D01*
X231535Y345853D01*
Y347013D01*
X231852Y347225D01*
X232375Y348009D01*
X232559Y348933D01*
X232375Y349857D01*
X231852Y350641D01*
X231068Y351164D01*
X230144Y351348D01*
D02*
G37*
G36*
X232562Y333433D02*
X229660D01*
Y331416D01*
X230144D01*
X231107Y331608D01*
X231924Y332153D01*
X232470Y332970D01*
X232562Y333433D01*
D02*
G37*
G36*
X228660D02*
X225758D01*
X225851Y332970D01*
X226396Y332153D01*
X227213Y331608D01*
X228176Y331416D01*
X228660D01*
Y333433D01*
D02*
G37*
G36*
X386150Y319394D02*
X385171D01*
X384266Y319019D01*
X383574Y318327D01*
X383200Y317423D01*
Y316444D01*
X383574Y315539D01*
X384266Y314847D01*
X385171Y314472D01*
X386150D01*
X387054Y314847D01*
X387746Y315539D01*
X388121Y316444D01*
Y317423D01*
X387746Y318327D01*
X387054Y319019D01*
X386150Y319394D01*
D02*
G37*
G36*
X352994Y303614D02*
X352326D01*
X351708Y303358D01*
X351235Y302885D01*
X350979Y302268D01*
Y301599D01*
X351235Y300981D01*
X351708Y300508D01*
X352326Y300252D01*
X352994D01*
X353612Y300508D01*
X354085Y300981D01*
X354341Y301599D01*
Y302268D01*
X354085Y302885D01*
X353612Y303358D01*
X352994Y303614D01*
D02*
G37*
G36*
X347994D02*
X347326D01*
X346708Y303358D01*
X346235Y302885D01*
X345979Y302268D01*
Y301599D01*
X346235Y300981D01*
X346708Y300508D01*
X347326Y300252D01*
X347994D01*
X348612Y300508D01*
X349085Y300981D01*
X349341Y301599D01*
Y302268D01*
X349085Y302885D01*
X348612Y303358D01*
X347994Y303614D01*
D02*
G37*
G36*
X342994D02*
X342326D01*
X341708Y303358D01*
X341235Y302885D01*
X340979Y302268D01*
Y301599D01*
X341235Y300981D01*
X341708Y300508D01*
X342326Y300252D01*
X342994D01*
X343612Y300508D01*
X344085Y300981D01*
X344341Y301599D01*
Y302268D01*
X344085Y302885D01*
X343612Y303358D01*
X342994Y303614D01*
D02*
G37*
G36*
X337995D02*
X337326D01*
X336708Y303358D01*
X336235Y302885D01*
X335979Y302268D01*
Y301599D01*
X336235Y300981D01*
X336708Y300508D01*
X337326Y300252D01*
X337995D01*
X338612Y300508D01*
X339085Y300981D01*
X339341Y301599D01*
Y302268D01*
X339085Y302885D01*
X338612Y303358D01*
X337995Y303614D01*
D02*
G37*
G36*
X332160Y297835D02*
X331697Y297743D01*
X330880Y297197D01*
X330335Y296380D01*
X330143Y295417D01*
Y294933D01*
X332160D01*
Y297835D01*
D02*
G37*
G36*
X333160D02*
Y294433D01*
Y291031D01*
X333623Y291124D01*
X334440Y291669D01*
X334619Y291937D01*
X335819Y291941D01*
X335952Y291741D01*
X336736Y291218D01*
X337660Y291034D01*
X338584Y291218D01*
X339368Y291741D01*
X339580Y292059D01*
X340740D01*
X340952Y291741D01*
X341736Y291218D01*
X342660Y291034D01*
X343584Y291218D01*
X344368Y291741D01*
X344580Y292059D01*
X345741D01*
X345953Y291741D01*
X346736Y291218D01*
X347660Y291034D01*
X348584Y291218D01*
X349368Y291741D01*
X349580Y292059D01*
X350741D01*
X350953Y291741D01*
X351736Y291218D01*
X352660Y291034D01*
X353584Y291218D01*
X354368Y291741D01*
X354891Y292525D01*
X355075Y293449D01*
Y295417D01*
X354891Y296341D01*
X354368Y297125D01*
X353584Y297648D01*
X352660Y297832D01*
X351736Y297648D01*
X350953Y297125D01*
X350741Y296808D01*
X349580D01*
X349368Y297125D01*
X348584Y297648D01*
X347660Y297832D01*
X346736Y297648D01*
X345953Y297125D01*
X345741Y296808D01*
X344580D01*
X344368Y297125D01*
X343584Y297648D01*
X342660Y297832D01*
X341736Y297648D01*
X340952Y297125D01*
X340740Y296808D01*
X339580D01*
X339368Y297125D01*
X338584Y297648D01*
X337660Y297832D01*
X336736Y297648D01*
X335952Y297125D01*
X335819Y296925D01*
X334619Y296929D01*
X334440Y297197D01*
X333623Y297743D01*
X333160Y297835D01*
D02*
G37*
G36*
X332160Y293933D02*
X330143D01*
Y293449D01*
X330335Y292486D01*
X330880Y291669D01*
X331697Y291124D01*
X332160Y291031D01*
Y293933D01*
D02*
G37*
%LPD*%
G36*
X247160Y420433D02*
X247160Y410933D01*
X246552D01*
X246196Y411279D01*
X246196Y411433D01*
Y412657D01*
X242152D01*
X238109D01*
Y411433D01*
X237752Y410933D01*
X233660D01*
X233129Y411465D01*
X228176D01*
Y415402D01*
X233129D01*
X238160Y420433D01*
X247160Y420433D01*
D02*
G37*
G36*
X231241Y410079D02*
X231396Y410023D01*
X231598Y409973D01*
X231847Y409930D01*
X232482Y409864D01*
X233303Y409824D01*
X234309Y409811D01*
Y407055D01*
X233783Y407052D01*
X231847Y406936D01*
X231598Y406893D01*
X231396Y406843D01*
X231241Y406787D01*
X231131Y406724D01*
Y410142D01*
X231241Y410079D01*
D02*
G37*
G36*
Y405079D02*
X231396Y405023D01*
X231598Y404973D01*
X231847Y404930D01*
X232482Y404864D01*
X233303Y404824D01*
X234309Y404811D01*
Y402055D01*
X233783Y402052D01*
X231847Y401936D01*
X231598Y401893D01*
X231396Y401843D01*
X231241Y401787D01*
X231131Y401724D01*
Y405142D01*
X231241Y405079D01*
D02*
G37*
G36*
Y400079D02*
X231396Y400023D01*
X231598Y399973D01*
X231847Y399930D01*
X232482Y399864D01*
X233303Y399824D01*
X234309Y399811D01*
Y397055D01*
X233783Y397052D01*
X231847Y396936D01*
X231598Y396893D01*
X231396Y396843D01*
X231241Y396787D01*
X231131Y396724D01*
Y400142D01*
X231241Y400079D01*
D02*
G37*
G36*
Y395079D02*
X231396Y395023D01*
X231598Y394973D01*
X231847Y394930D01*
X232482Y394864D01*
X233303Y394824D01*
X234309Y394811D01*
Y392055D01*
X233783Y392052D01*
X231847Y391936D01*
X231598Y391893D01*
X231396Y391843D01*
X231241Y391787D01*
X231131Y391724D01*
Y395142D01*
X231241Y395079D01*
D02*
G37*
G36*
Y390079D02*
X231396Y390023D01*
X231598Y389973D01*
X231847Y389930D01*
X232482Y389864D01*
X233303Y389824D01*
X234309Y389811D01*
Y387055D01*
X233783Y387052D01*
X231847Y386936D01*
X231598Y386893D01*
X231396Y386843D01*
X231241Y386787D01*
X231131Y386724D01*
Y390142D01*
X231241Y390079D01*
D02*
G37*
G36*
Y385079D02*
X231396Y385023D01*
X231598Y384973D01*
X231847Y384930D01*
X232482Y384864D01*
X233303Y384824D01*
X234309Y384811D01*
Y382055D01*
X233783Y382052D01*
X231847Y381936D01*
X231598Y381893D01*
X231396Y381843D01*
X231241Y381787D01*
X231131Y381724D01*
Y385142D01*
X231241Y385079D01*
D02*
G37*
%LPC*%
G36*
X246196Y415035D02*
X242652D01*
Y413658D01*
X246196D01*
Y415035D01*
D02*
G37*
G36*
X241652D02*
X238109D01*
Y413658D01*
X241652D01*
Y415035D01*
D02*
G37*
%LPD*%
D13*
X842072Y316933D02*
D03*
Y325933D02*
D03*
D14*
X726954Y441090D02*
D03*
X722033D02*
D03*
X717112D02*
D03*
X712190D02*
D03*
X744190Y306776D02*
D03*
X749112D02*
D03*
X754033D02*
D03*
X758954D02*
D03*
D15*
X703332Y454083D02*
D03*
X735812D02*
D03*
X767812Y293783D02*
D03*
X735332D02*
D03*
D16*
X680923Y350173D02*
D03*
Y317693D02*
D03*
X683572Y422016D02*
D03*
Y369850D02*
D03*
X229160D02*
D03*
Y422016D02*
D03*
D17*
X693915Y326551D02*
D03*
Y331472D02*
D03*
Y336394D02*
D03*
Y341315D02*
D03*
X696564Y378709D02*
D03*
Y383630D02*
D03*
Y388551D02*
D03*
Y393472D02*
D03*
Y398394D02*
D03*
Y403315D02*
D03*
Y408236D02*
D03*
Y413158D02*
D03*
X242152D02*
D03*
Y408236D02*
D03*
Y403315D02*
D03*
Y398394D02*
D03*
Y393472D02*
D03*
Y388551D02*
D03*
Y383630D02*
D03*
Y378709D02*
D03*
D50*
X701769Y408236D02*
X710072Y399933D01*
Y363433D02*
Y399933D01*
X696875Y408236D02*
X701769D01*
X696564Y403315D02*
X701690D01*
X706572Y363433D02*
Y398433D01*
X701690Y403315D02*
X706572Y398433D01*
X696564Y398394D02*
X701612D01*
X703072Y363433D02*
Y396933D01*
X701612Y398394D02*
X703072Y396933D01*
X696572Y407933D02*
X696875Y408236D01*
D51*
X686065Y413158D02*
X696564D01*
X712131Y441032D02*
X712190Y441090D01*
X712072Y433933D02*
X712131Y433992D01*
X717092Y433953D02*
Y441071D01*
X717072Y433933D02*
X717092Y433953D01*
X712131Y433992D02*
Y441032D01*
X717092Y441071D02*
X717112Y441090D01*
X365160Y364433D02*
Y364505D01*
X368004Y367350D01*
X365160Y364327D02*
Y364433D01*
X364660Y363826D02*
X365160Y364327D01*
X364660Y339433D02*
Y363826D01*
D52*
X800072Y325394D02*
Y354933D01*
X778572Y324933D02*
X799611D01*
X800072Y325394D01*
X776572Y320933D02*
X802572D01*
X812072Y330433D01*
Y354933D01*
X806072Y327933D02*
Y354933D01*
X801072Y322933D02*
X806072Y327933D01*
X777572Y322933D02*
X801072D01*
X764072Y336433D02*
X777572Y322933D01*
X764072Y336433D02*
Y341433D01*
X760572Y336933D02*
X776572Y320933D01*
X760572Y336933D02*
Y341433D01*
X812072Y354933D02*
X815072Y357933D01*
X806072Y354933D02*
X809072Y357933D01*
X767572Y335933D02*
Y341433D01*
Y335933D02*
X778572Y324933D01*
X800072Y354933D02*
X803072Y357933D01*
X765785Y429933D02*
X767072Y431220D01*
X733572Y413933D02*
X749572Y429933D01*
X765785D01*
X785572Y426933D02*
X787072Y428433D01*
X775572D02*
X777072Y429933D01*
X736572Y412933D02*
X750572Y426933D01*
X750072Y428433D02*
X775572D01*
X750572Y426933D02*
X785572D01*
X735072Y413433D02*
X750072Y428433D01*
X730572Y423933D02*
X733072Y426433D01*
X730572Y365705D02*
Y423933D01*
X732072Y366326D02*
Y420433D01*
X735572Y423933D01*
X769572Y353933D02*
Y359433D01*
X767572Y351933D02*
X769572Y353933D01*
X744344Y351933D02*
X767572D01*
X766072Y354933D02*
Y359433D01*
X764572Y353433D02*
X766072Y354933D01*
X744966Y353433D02*
X764572D01*
X730572Y365705D02*
X744344Y351933D01*
X762572Y355933D02*
Y359433D01*
X761572Y354933D02*
X762572Y355933D01*
X745587Y354933D02*
X761572D01*
X758572Y356433D02*
X759072Y356933D01*
X735072Y367569D02*
X746208Y356433D01*
X758572D01*
X759072Y356933D02*
Y359433D01*
X732072Y366326D02*
X744966Y353433D01*
X745330Y359433D02*
X755572D01*
X738072Y368812D02*
X743951Y362933D01*
X752072D01*
X739572Y369433D02*
X742572Y366433D01*
X752072D01*
X736572Y368190D02*
X745330Y359433D01*
X733572Y366948D02*
X745587Y354933D01*
X739572Y369433D02*
Y411933D01*
X738072Y368812D02*
Y412433D01*
X736572Y368190D02*
Y412933D01*
X735072Y367569D02*
Y413433D01*
X733572Y366948D02*
Y413933D01*
X807072Y425433D02*
Y437433D01*
X805572Y423933D02*
X807072Y425433D01*
X797072Y426933D02*
Y437433D01*
X795572Y425433D02*
X797072Y426933D01*
X751072Y425433D02*
X795572D01*
X738072Y412433D02*
X751072Y425433D01*
X739572Y411933D02*
X751572Y423933D01*
X767072Y431220D02*
Y437433D01*
X777072Y429933D02*
Y437433D01*
X787072Y428433D02*
Y437433D01*
X751572Y423933D02*
X805572D01*
X277160Y331433D02*
X285660Y339933D01*
Y364433D02*
X287160Y365933D01*
X285660Y339933D02*
Y347933D01*
Y364433D01*
Y347933D02*
X309660D01*
X310160Y347433D02*
X314660D01*
X309660Y347933D02*
X310160Y347433D01*
X312235Y349508D02*
X314660Y351933D01*
X338660D01*
X312160Y349508D02*
X312235D01*
X261660Y331433D02*
X277160D01*
X310660Y335933D02*
X345660D01*
X352160Y342433D02*
Y373933D01*
X345660Y335933D02*
X352160Y342433D01*
X348660Y345933D02*
Y377433D01*
X313160Y339433D02*
X342160D01*
X348660Y345933D01*
X345160Y380933D02*
X350160Y385933D01*
X338660Y351933D02*
X345160Y358433D01*
Y380933D01*
X352160Y373933D02*
X355160Y376933D01*
X348660Y377433D02*
X352660Y381433D01*
D53*
X722052Y433953D02*
Y441071D01*
X727013Y433992D02*
Y441032D01*
X722033Y441090D02*
X722052Y441071D01*
Y433953D02*
X722072Y433933D01*
X727013Y433992D02*
X727072Y433933D01*
X726954Y441090D02*
X727013Y441032D01*
X732072Y316433D02*
X736572Y320933D01*
X717572Y316433D02*
X732072D01*
X715072Y313933D02*
X717572Y316433D01*
X736572Y320933D02*
X757572D01*
X803072Y304433D02*
X805572Y306933D01*
X766072Y304433D02*
X803072D01*
X759072Y297433D02*
X766072Y304433D01*
X744572Y297433D02*
X759072D01*
X734978Y307028D02*
X744572Y297433D01*
X725072Y307028D02*
X734978D01*
X715072D02*
Y313933D01*
X749112Y314390D02*
X749572Y314850D01*
Y317933D01*
X749112Y306776D02*
Y314390D01*
X754052Y314913D02*
X754072Y314933D01*
X754052Y306795D02*
Y314913D01*
X754033Y306776D02*
X754052Y306795D01*
X750072Y333433D02*
X758572D01*
X717072Y366433D02*
X750072Y333433D01*
X717072Y366433D02*
Y392433D01*
X693915Y336394D02*
X699533D01*
X710572Y347433D02*
X714072D01*
X699533Y336394D02*
X710572Y347433D01*
X709572Y341433D02*
X714072D01*
X699612Y331472D02*
X709572Y341433D01*
X693915Y331472D02*
X699612D01*
X699513Y341374D02*
X699572Y341433D01*
X693974Y341374D02*
X699513D01*
X693915Y341315D02*
X693974Y341374D01*
X759013Y306835D02*
Y312374D01*
X758954Y306776D02*
X759013Y306835D01*
Y312374D02*
X759072Y312433D01*
X744131Y306835D02*
Y312374D01*
Y306835D02*
X744190Y306776D01*
X744072Y312433D02*
X744131Y312374D01*
X693974Y326492D02*
X699513D01*
X693915Y326551D02*
X693974Y326492D01*
X699513D02*
X699572Y326433D01*
X377886Y405207D02*
X378886D01*
X377660Y405433D02*
X377886Y405207D01*
X259660Y315933D02*
X269660Y305933D01*
X259660Y315933D02*
Y324433D01*
X368160Y305933D02*
X390660Y328433D01*
X367160Y308933D02*
X387660Y329433D01*
X271660Y315933D02*
Y324433D01*
X271660Y315933D02*
X278660Y308933D01*
X269660Y305933D02*
X368160D01*
X278660Y308933D02*
X367160D01*
X378886Y405207D02*
X384660Y399433D01*
Y330433D02*
Y399433D01*
X383924Y420197D02*
Y421197D01*
X383660Y419933D02*
X383924Y420197D01*
Y421197D02*
X385660Y422933D01*
X371165Y316938D02*
X384660Y330433D01*
X368165Y316938D02*
X371165D01*
X368160Y316933D02*
X368165Y316938D01*
X295160Y329933D02*
X321160D01*
X324660Y333433D01*
X351660D02*
X353160Y334933D01*
X324660Y333433D02*
X351660D01*
X387660Y329433D02*
Y417933D01*
X390660Y328433D02*
Y415933D01*
X392660Y417933D01*
X387660Y417933D02*
X389660Y419933D01*
Y419933D01*
X392660Y417933D02*
Y421933D01*
X391660Y422933D02*
X392660Y421933D01*
X385660Y422933D02*
X391660D01*
D54*
X311160Y354433D02*
X315160Y358433D01*
X353160Y404933D02*
X356660Y408433D01*
X294160Y404933D02*
X353160D01*
X356660Y408433D02*
X362660D01*
X353660Y398933D02*
X358160Y394433D01*
X300660Y398933D02*
X353660D01*
X315160Y358433D02*
Y381933D01*
X321510Y388282D01*
Y389782D02*
X321660Y389933D01*
X321510Y388282D02*
Y389782D01*
X267660Y378433D02*
X294160Y404933D01*
X368160Y402933D02*
X374160D01*
X362660Y408433D02*
X368160Y402933D01*
X280160Y378433D02*
X300660Y398933D01*
X298660Y401933D02*
X340660D01*
X276660Y379933D02*
X298660Y401933D01*
X267660Y365933D02*
Y378433D01*
X276660Y365933D02*
Y379933D01*
X280160Y365933D02*
Y378433D01*
D55*
X274160Y294433D02*
X292776D01*
X294160Y295817D01*
X278160Y327933D02*
X293160Y312933D01*
X305160D01*
X294160Y295817D02*
Y298933D01*
X353160Y312933D02*
X364160D01*
X312160D02*
X353160D01*
X368160Y323933D02*
Y330933D01*
Y316933D02*
Y323933D01*
X364160Y312933D02*
X368160Y316933D01*
X274160Y294433D02*
Y300433D01*
X262160Y294433D02*
X274160D01*
X255160D02*
X262160D01*
X252660Y296933D02*
X255160Y294433D01*
X252660Y327933D02*
Y372433D01*
X278160Y327933D02*
X280160Y329933D01*
X252660Y327933D02*
X278160D01*
X252660Y296933D02*
Y327933D01*
X262160Y294433D02*
Y300433D01*
X273285Y393058D02*
Y417058D01*
X252660Y372433D02*
X273285Y393058D01*
D65*
X459660Y449933D02*
D03*
X420660D02*
D03*
D67*
X522160Y414933D02*
D03*
X521660Y332933D02*
D03*
X522160Y373933D02*
D03*
D88*
X229160Y383433D02*
X236160D01*
X229160Y388433D02*
X236160D01*
X229160Y393433D02*
X236160D01*
X229160Y398433D02*
X236160D01*
X229160Y403433D02*
X236160D01*
X229160Y408433D02*
X236160D01*
X236517Y383630D02*
X242152D01*
X236320Y383433D02*
X236517Y383630D01*
X236160Y383433D02*
X236320D01*
X236438Y388551D02*
X242152D01*
X236320Y388433D02*
X236438Y388551D01*
X236160Y388433D02*
X236320D01*
X236199Y393472D02*
X242152D01*
X236160Y393433D02*
X236199Y393472D01*
Y398394D02*
X242152D01*
X236160Y398433D02*
X236199Y398394D01*
X236438Y403315D02*
X242152D01*
X236320Y403433D02*
X236438Y403315D01*
X236160Y403433D02*
X236320D01*
X236517Y408236D02*
X242152D01*
X236320Y408433D02*
X236517Y408236D01*
X236160Y408433D02*
X236320D01*
D91*
X839072Y316933D02*
D03*
X845072D02*
D03*
Y325933D02*
D03*
X839072D02*
D03*
X724572Y379933D02*
D03*
X743237Y389098D02*
D03*
Y410098D02*
D03*
X749237D02*
D03*
X816663Y417524D02*
D03*
X801572Y364433D02*
D03*
X824072Y418433D02*
D03*
X829572D02*
D03*
X844572Y407433D02*
D03*
Y412933D02*
D03*
Y418433D02*
D03*
X748238Y389098D02*
D03*
X753237D02*
D03*
X767572Y420433D02*
D03*
X763072D02*
D03*
X758572D02*
D03*
Y415933D02*
D03*
Y411433D02*
D03*
Y406933D02*
D03*
X763072D02*
D03*
X772072D02*
D03*
X776572D02*
D03*
Y411433D02*
D03*
Y415933D02*
D03*
Y420433D02*
D03*
X772072D02*
D03*
X451660Y441933D02*
D03*
X459660D02*
D03*
X467660D02*
D03*
Y449933D02*
D03*
X459660D02*
D03*
X451660D02*
D03*
Y457933D02*
D03*
X467660D02*
D03*
X459660D02*
D03*
X412660Y441933D02*
D03*
X420660D02*
D03*
X428660D02*
D03*
Y449933D02*
D03*
X420660D02*
D03*
X412660D02*
D03*
Y457933D02*
D03*
X428660D02*
D03*
X420660D02*
D03*
X534160Y422933D02*
D03*
X526160D02*
D03*
X518160D02*
D03*
X510160D02*
D03*
Y414933D02*
D03*
X518160D02*
D03*
X526160D02*
D03*
X534160D02*
D03*
Y406933D02*
D03*
X510160D02*
D03*
X518160D02*
D03*
X526160D02*
D03*
X525660Y324933D02*
D03*
X517660D02*
D03*
X509660D02*
D03*
X533660D02*
D03*
Y332933D02*
D03*
X525660D02*
D03*
X517660D02*
D03*
X509660D02*
D03*
Y340933D02*
D03*
X517660D02*
D03*
X525660D02*
D03*
X533660D02*
D03*
X526160Y365933D02*
D03*
X518160D02*
D03*
X510160D02*
D03*
X534160D02*
D03*
Y373933D02*
D03*
X526160D02*
D03*
X518160D02*
D03*
X510160D02*
D03*
Y381933D02*
D03*
X518160D02*
D03*
X526160D02*
D03*
X534160D02*
D03*
X438160Y427933D02*
D03*
X458160D02*
D03*
X453160D02*
D03*
X448160D02*
D03*
X443160D02*
D03*
X440660Y422933D02*
D03*
X445660D02*
D03*
X450660D02*
D03*
X455660D02*
D03*
X409160Y338433D02*
D03*
Y333433D02*
D03*
Y328433D02*
D03*
Y323433D02*
D03*
Y318433D02*
D03*
X404160D02*
D03*
Y323433D02*
D03*
Y328433D02*
D03*
Y333433D02*
D03*
Y338433D02*
D03*
Y343433D02*
D03*
X409160D02*
D03*
X404160Y348433D02*
D03*
X404660Y431433D02*
D03*
X409660Y426433D02*
D03*
X404660D02*
D03*
X452660Y370933D02*
D03*
Y365933D02*
D03*
Y360933D02*
D03*
Y337933D02*
D03*
Y342933D02*
D03*
Y347933D02*
D03*
Y352933D02*
D03*
X436160Y365933D02*
D03*
Y360933D02*
D03*
Y355933D02*
D03*
Y350933D02*
D03*
Y345933D02*
D03*
X431660Y348433D02*
D03*
Y353433D02*
D03*
Y358433D02*
D03*
Y363433D02*
D03*
Y368433D02*
D03*
X404160Y367933D02*
D03*
X409660D02*
D03*
X404160Y387933D02*
D03*
X409660D02*
D03*
X470160Y382433D02*
D03*
X465160Y386433D02*
D03*
X470160D02*
D03*
X396160Y385933D02*
D03*
Y377933D02*
D03*
X404660Y421433D02*
D03*
Y416433D02*
D03*
Y411433D02*
D03*
Y406433D02*
D03*
Y401433D02*
D03*
X409660D02*
D03*
Y406433D02*
D03*
Y411433D02*
D03*
Y416433D02*
D03*
Y421433D02*
D03*
Y431433D02*
D03*
X484798Y334433D02*
D03*
Y338433D02*
D03*
Y343433D02*
D03*
Y347433D02*
D03*
X489798D02*
D03*
Y343433D02*
D03*
Y338433D02*
D03*
Y334433D02*
D03*
X484798Y356933D02*
D03*
Y360933D02*
D03*
Y365933D02*
D03*
Y369933D02*
D03*
X489798D02*
D03*
Y365933D02*
D03*
Y360933D02*
D03*
Y356933D02*
D03*
X490160Y423433D02*
D03*
Y427433D02*
D03*
Y432433D02*
D03*
Y436433D02*
D03*
X485160D02*
D03*
Y432433D02*
D03*
Y427433D02*
D03*
Y423433D02*
D03*
X469660Y318433D02*
D03*
X464660D02*
D03*
Y296433D02*
D03*
X483160Y414433D02*
D03*
X465160Y410433D02*
D03*
X470160D02*
D03*
X488160Y414433D02*
D03*
X483160Y410433D02*
D03*
X488160D02*
D03*
X470160Y406433D02*
D03*
X476070Y422354D02*
D03*
X396160Y397933D02*
D03*
X483160Y387933D02*
D03*
X488160D02*
D03*
X483160Y382933D02*
D03*
X488160D02*
D03*
X483160Y378933D02*
D03*
X464660Y301433D02*
D03*
Y308433D02*
D03*
Y313433D02*
D03*
X469660Y296433D02*
D03*
X474160D02*
D03*
X479160D02*
D03*
X484160D02*
D03*
X489160D02*
D03*
X469660Y313433D02*
D03*
Y308433D02*
D03*
Y301433D02*
D03*
X474160D02*
D03*
X479160D02*
D03*
X484160D02*
D03*
X489160D02*
D03*
X484160Y312433D02*
D03*
Y316433D02*
D03*
Y321433D02*
D03*
Y325433D02*
D03*
X489160Y312433D02*
D03*
Y316433D02*
D03*
Y321433D02*
D03*
Y325433D02*
D03*
X488160Y378933D02*
D03*
X483160Y391933D02*
D03*
X488160D02*
D03*
X497251Y393012D02*
D03*
X470160Y390433D02*
D03*
Y394433D02*
D03*
Y398433D02*
D03*
Y402433D02*
D03*
X465160Y390433D02*
D03*
Y394433D02*
D03*
Y398433D02*
D03*
Y402433D02*
D03*
Y406433D02*
D03*
X483160Y401433D02*
D03*
Y405433D02*
D03*
X488160D02*
D03*
Y401433D02*
D03*
X497751Y326512D02*
D03*
X475707Y333354D02*
D03*
Y355854D02*
D03*
X497251Y415512D02*
D03*
X385660Y316933D02*
D03*
X361660Y337433D02*
D03*
X367660D02*
D03*
X381160D02*
D03*
X374660D02*
D03*
X240160Y374433D02*
D03*
X244660Y417433D02*
D03*
X240160D02*
D03*
X236160Y383433D02*
D03*
Y388433D02*
D03*
Y393433D02*
D03*
Y398433D02*
D03*
Y403433D02*
D03*
Y408433D02*
D03*
Y413433D02*
D03*
X368160Y330933D02*
D03*
Y323933D02*
D03*
Y316933D02*
D03*
X309660Y379433D02*
D03*
X320660D02*
D03*
X310940Y431213D02*
D03*
Y435713D02*
D03*
Y440213D02*
D03*
X306440D02*
D03*
X301940D02*
D03*
X297440D02*
D03*
Y435713D02*
D03*
Y426713D02*
D03*
Y422213D02*
D03*
X301940D02*
D03*
X306440D02*
D03*
X310940D02*
D03*
Y426713D02*
D03*
X244660Y374433D02*
D03*
X236160Y378433D02*
D03*
X327660Y367933D02*
D03*
X325660Y384933D02*
D03*
Y389933D02*
D03*
X252660Y438433D02*
D03*
X277160Y446933D02*
D03*
X282160D02*
D03*
X272160Y446433D02*
D03*
X265160D02*
D03*
X273285Y417058D02*
D03*
X396160Y353933D02*
D03*
Y381933D02*
D03*
Y357933D02*
D03*
Y373933D02*
D03*
Y361933D02*
D03*
Y389933D02*
D03*
Y393933D02*
D03*
Y369933D02*
D03*
Y365933D02*
D03*
Y349933D02*
D03*
X259160Y438433D02*
D03*
D92*
X807072Y437433D02*
D03*
Y447433D02*
D03*
Y457433D02*
D03*
X797072Y437433D02*
D03*
Y447433D02*
D03*
Y457433D02*
D03*
X787072Y437433D02*
D03*
Y447433D02*
D03*
Y457433D02*
D03*
X777072Y437433D02*
D03*
Y447433D02*
D03*
Y457433D02*
D03*
X767072Y437433D02*
D03*
Y447433D02*
D03*
Y457433D02*
D03*
X757072Y437433D02*
D03*
Y447433D02*
D03*
Y457433D02*
D03*
X747072Y437433D02*
D03*
Y447433D02*
D03*
D93*
Y457433D02*
D03*
D94*
X686352Y299213D02*
D03*
X835958Y448819D02*
D03*
X686352D02*
D03*
X835958Y299213D02*
D03*
X528215Y448819D02*
D03*
Y299213D02*
D03*
X232940Y448819D02*
D03*
X382546D02*
D03*
Y299213D02*
D03*
X232940D02*
D03*
D95*
X690072Y413158D02*
D03*
X686065D02*
D03*
X826065Y401496D02*
D03*
Y311496D02*
D03*
X816065Y451496D02*
D03*
Y441496D02*
D03*
Y431496D02*
D03*
Y401496D02*
D03*
Y301496D02*
D03*
X806065D02*
D03*
X756065Y341496D02*
D03*
Y291496D02*
D03*
X746065Y341496D02*
D03*
Y331496D02*
D03*
Y291496D02*
D03*
X736065Y441496D02*
D03*
Y351496D02*
D03*
Y341496D02*
D03*
Y331496D02*
D03*
Y311496D02*
D03*
Y301496D02*
D03*
X726065Y451496D02*
D03*
Y411496D02*
D03*
X716065D02*
D03*
X706065Y431496D02*
D03*
Y421496D02*
D03*
Y411496D02*
D03*
Y351496D02*
D03*
Y331496D02*
D03*
X696065Y431496D02*
D03*
Y421496D02*
D03*
Y351496D02*
D03*
Y321496D02*
D03*
Y311496D02*
D03*
X686065Y431496D02*
D03*
Y401496D02*
D03*
Y391496D02*
D03*
Y341496D02*
D03*
X676065Y431496D02*
D03*
Y421496D02*
D03*
Y411496D02*
D03*
Y401496D02*
D03*
Y391496D02*
D03*
Y381496D02*
D03*
Y371496D02*
D03*
Y361496D02*
D03*
Y311496D02*
D03*
X712072Y433933D02*
D03*
X717072D02*
D03*
X722072D02*
D03*
X727072D02*
D03*
X757572Y320933D02*
D03*
X760572Y341433D02*
D03*
X764072D02*
D03*
X767572D02*
D03*
X803072Y357933D02*
D03*
X809072D02*
D03*
X815072D02*
D03*
X803072Y332433D02*
D03*
X815072D02*
D03*
X809072D02*
D03*
X815072Y327933D02*
D03*
X814572Y322433D02*
D03*
X805572Y306933D02*
D03*
X725072Y307028D02*
D03*
X715072D02*
D03*
X749572Y317933D02*
D03*
X754072Y314933D02*
D03*
X727072Y392433D02*
D03*
X754072Y379933D02*
D03*
X724572Y365433D02*
D03*
X758572Y333433D02*
D03*
X717072Y392433D02*
D03*
X713072D02*
D03*
X710072Y363433D02*
D03*
X703072D02*
D03*
X706572D02*
D03*
X699572Y347433D02*
D03*
X714072Y341433D02*
D03*
Y347433D02*
D03*
X699572Y341433D02*
D03*
X769572Y359433D02*
D03*
X796572Y350933D02*
D03*
Y343433D02*
D03*
Y335933D02*
D03*
X752072Y366433D02*
D03*
X766072Y359433D02*
D03*
X762572D02*
D03*
X759072D02*
D03*
X755572D02*
D03*
X752072Y362933D02*
D03*
X735572Y423933D02*
D03*
X733072Y426433D02*
D03*
X742072Y433433D02*
D03*
X762072D02*
D03*
X792072Y415433D02*
D03*
X788072D02*
D03*
X784072D02*
D03*
X781072Y382933D02*
D03*
Y379433D02*
D03*
Y375933D02*
D03*
X796072Y389933D02*
D03*
Y393433D02*
D03*
Y397520D02*
D03*
Y400933D02*
D03*
X776572Y395433D02*
D03*
X780572D02*
D03*
Y392020D02*
D03*
Y387933D02*
D03*
X811572Y390933D02*
D03*
X845572Y348933D02*
D03*
X824572Y332933D02*
D03*
Y340433D02*
D03*
Y336433D02*
D03*
Y345433D02*
D03*
Y352433D02*
D03*
Y348933D02*
D03*
Y357933D02*
D03*
Y364933D02*
D03*
Y361433D02*
D03*
X845572Y339933D02*
D03*
Y332933D02*
D03*
Y336433D02*
D03*
Y352433D02*
D03*
Y345433D02*
D03*
Y361433D02*
D03*
Y357933D02*
D03*
Y364933D02*
D03*
X815572Y395933D02*
D03*
X819572D02*
D03*
X823572D02*
D03*
Y390933D02*
D03*
X819572D02*
D03*
X815572D02*
D03*
X811572Y395933D02*
D03*
X827572D02*
D03*
Y390933D02*
D03*
X808737Y378598D02*
D03*
X771072Y315933D02*
D03*
X715072Y293839D02*
D03*
X705072D02*
D03*
X710072D02*
D03*
X725072D02*
D03*
X690986Y378709D02*
D03*
X696564D02*
D03*
X787572Y364433D02*
D03*
X789072Y328433D02*
D03*
Y358433D02*
D03*
X781572Y328433D02*
D03*
X796572D02*
D03*
Y358433D02*
D03*
X781572D02*
D03*
X793572Y354433D02*
D03*
X781572Y332433D02*
D03*
X702572Y440433D02*
D03*
Y445433D02*
D03*
X793572Y310433D02*
D03*
X778572D02*
D03*
X788072Y292433D02*
D03*
X784072D02*
D03*
X817871Y292598D02*
D03*
Y313268D02*
D03*
X787572Y368933D02*
D03*
X766072Y315933D02*
D03*
X744072Y312433D02*
D03*
X759072D02*
D03*
X699572Y326433D02*
D03*
X724572Y322933D02*
D03*
Y335933D02*
D03*
X714572Y334051D02*
D03*
Y323815D02*
D03*
X696564Y408236D02*
D03*
Y398394D02*
D03*
Y403315D02*
D03*
Y383630D02*
D03*
Y388551D02*
D03*
Y393472D02*
D03*
X680072Y359933D02*
D03*
X385735Y434291D02*
D03*
X380735D02*
D03*
Y424291D02*
D03*
X375735Y434291D02*
D03*
Y424291D02*
D03*
Y329291D02*
D03*
X370735Y459291D02*
D03*
Y439291D02*
D03*
Y434291D02*
D03*
Y419291D02*
D03*
Y289291D02*
D03*
X365735Y449291D02*
D03*
Y444291D02*
D03*
Y424291D02*
D03*
X360735Y449291D02*
D03*
Y444291D02*
D03*
Y419291D02*
D03*
X355735Y459291D02*
D03*
Y454291D02*
D03*
Y449291D02*
D03*
Y444291D02*
D03*
Y439291D02*
D03*
Y434291D02*
D03*
Y364291D02*
D03*
Y359291D02*
D03*
Y354291D02*
D03*
Y349291D02*
D03*
Y344291D02*
D03*
Y339291D02*
D03*
Y299291D02*
D03*
Y289291D02*
D03*
X350735D02*
D03*
X345735Y459291D02*
D03*
Y454291D02*
D03*
Y449291D02*
D03*
Y444291D02*
D03*
Y439291D02*
D03*
Y434291D02*
D03*
Y354291D02*
D03*
Y349291D02*
D03*
Y289291D02*
D03*
X340735Y449291D02*
D03*
Y444291D02*
D03*
Y369291D02*
D03*
Y349291D02*
D03*
Y344291D02*
D03*
Y289291D02*
D03*
X335735Y449291D02*
D03*
Y444291D02*
D03*
Y394291D02*
D03*
Y369291D02*
D03*
Y349291D02*
D03*
Y344291D02*
D03*
Y289291D02*
D03*
X330735Y459291D02*
D03*
Y454291D02*
D03*
Y449291D02*
D03*
Y444291D02*
D03*
Y439291D02*
D03*
Y434291D02*
D03*
Y414291D02*
D03*
Y394291D02*
D03*
Y369291D02*
D03*
Y299291D02*
D03*
Y289291D02*
D03*
X325735Y394291D02*
D03*
X310735Y294291D02*
D03*
X305735Y394291D02*
D03*
Y294291D02*
D03*
X300735Y299291D02*
D03*
Y294291D02*
D03*
X295735Y379291D02*
D03*
X285735Y414291D02*
D03*
Y289291D02*
D03*
X280735Y414291D02*
D03*
Y289291D02*
D03*
X275735D02*
D03*
X270735D02*
D03*
X265735D02*
D03*
X260735Y374291D02*
D03*
Y289291D02*
D03*
X245735Y459291D02*
D03*
Y454291D02*
D03*
Y444291D02*
D03*
Y369291D02*
D03*
Y364291D02*
D03*
Y359291D02*
D03*
Y354291D02*
D03*
Y329291D02*
D03*
Y324291D02*
D03*
Y319291D02*
D03*
Y314291D02*
D03*
Y309291D02*
D03*
Y304291D02*
D03*
Y294291D02*
D03*
Y289291D02*
D03*
X240735Y434291D02*
D03*
Y429291D02*
D03*
Y424291D02*
D03*
Y369291D02*
D03*
Y364291D02*
D03*
Y359291D02*
D03*
Y354291D02*
D03*
Y329291D02*
D03*
Y324291D02*
D03*
Y319291D02*
D03*
Y314291D02*
D03*
X235735Y434291D02*
D03*
Y429291D02*
D03*
Y424291D02*
D03*
Y374291D02*
D03*
Y369291D02*
D03*
Y364291D02*
D03*
Y359291D02*
D03*
Y354291D02*
D03*
Y329291D02*
D03*
Y324291D02*
D03*
Y319291D02*
D03*
Y314291D02*
D03*
X230735Y434291D02*
D03*
Y429291D02*
D03*
Y364291D02*
D03*
Y319291D02*
D03*
Y314291D02*
D03*
X225735Y434291D02*
D03*
Y429291D02*
D03*
Y364291D02*
D03*
Y319291D02*
D03*
Y314291D02*
D03*
X264160Y334433D02*
D03*
X391160Y428433D02*
D03*
X377660Y405433D02*
D03*
X301160Y350433D02*
D03*
X311160Y354433D02*
D03*
X293160Y350433D02*
D03*
X312160Y349508D02*
D03*
X297160Y350433D02*
D03*
X289160D02*
D03*
X282160Y340433D02*
D03*
X301160Y345358D02*
D03*
X289160D02*
D03*
X293160D02*
D03*
X297160D02*
D03*
X282160Y345433D02*
D03*
X289160Y340433D02*
D03*
X293160D02*
D03*
X297160D02*
D03*
X301160D02*
D03*
X278160D02*
D03*
X274160D02*
D03*
X270160D02*
D03*
Y345433D02*
D03*
X274160D02*
D03*
X278160D02*
D03*
X274160Y350433D02*
D03*
X270160D02*
D03*
X278160D02*
D03*
X282160D02*
D03*
Y355433D02*
D03*
X278160D02*
D03*
X274160D02*
D03*
X289160D02*
D03*
X293160D02*
D03*
X297160D02*
D03*
X301160D02*
D03*
X270160D02*
D03*
X290160Y290433D02*
D03*
X368004Y367350D02*
D03*
X365160Y364433D02*
D03*
X358932Y422433D02*
D03*
X353160Y412433D02*
D03*
Y390933D02*
D03*
X358160Y394433D02*
D03*
X467660Y356780D02*
D03*
Y334279D02*
D03*
X459369D02*
D03*
Y356780D02*
D03*
X383160Y419933D02*
D03*
X314660Y343933D02*
D03*
Y347433D02*
D03*
X350160Y385933D02*
D03*
X355160Y376933D02*
D03*
X352660Y381433D02*
D03*
X377660Y359933D02*
D03*
X353160Y334933D02*
D03*
X313160Y339433D02*
D03*
X310660Y335933D02*
D03*
X333160Y412433D02*
D03*
X316160Y394933D02*
D03*
X329160Y342933D02*
D03*
Y348433D02*
D03*
X352660Y301933D02*
D03*
X353160Y312933D02*
D03*
Y330933D02*
D03*
Y323933D02*
D03*
Y316933D02*
D03*
X337660Y301933D02*
D03*
X347660D02*
D03*
X342660D02*
D03*
X328160Y323933D02*
D03*
X265160Y452433D02*
D03*
X328160Y330933D02*
D03*
X321660Y389933D02*
D03*
X286160Y298933D02*
D03*
X284160Y315933D02*
D03*
X259660Y324433D02*
D03*
X294160Y298933D02*
D03*
X256160Y300433D02*
D03*
X262160D02*
D03*
X274160D02*
D03*
X268160D02*
D03*
X280160D02*
D03*
X312160Y301933D02*
D03*
X305160D02*
D03*
Y312933D02*
D03*
X312160D02*
D03*
X346660Y390933D02*
D03*
Y401933D02*
D03*
X295160Y329933D02*
D03*
X293160Y325433D02*
D03*
X289660D02*
D03*
X280160Y329933D02*
D03*
X261160Y338433D02*
D03*
X248660Y331433D02*
D03*
Y336433D02*
D03*
X332660Y301933D02*
D03*
X328160Y316933D02*
D03*
X302160Y320933D02*
D03*
X271660Y324433D02*
D03*
X366660Y435433D02*
D03*
Y456433D02*
D03*
X342160D02*
D03*
X333160Y408433D02*
D03*
X359160Y405433D02*
D03*
X353160Y401933D02*
D03*
X340660D02*
D03*
X300660Y379433D02*
D03*
X292160D02*
D03*
X287160D02*
D03*
X273160D02*
D03*
X254660Y400433D02*
D03*
X266160Y404933D02*
D03*
X244660Y333933D02*
D03*
Y348815D02*
D03*
X259660Y370933D02*
D03*
X340660Y423933D02*
D03*
X259660Y356933D02*
D03*
X273160Y365933D02*
D03*
X276660D02*
D03*
X280160D02*
D03*
X300660D02*
D03*
X287160D02*
D03*
X292160D02*
D03*
X267660D02*
D03*
X256660Y404433D02*
D03*
X267160Y416433D02*
D03*
X389160Y419933D02*
D03*
X370660Y405433D02*
D03*
X374160Y402933D02*
D03*
X333160Y422433D02*
D03*
X369660Y380433D02*
D03*
X378660D02*
D03*
X369660Y389433D02*
D03*
X378660D02*
D03*
X374160Y380433D02*
D03*
X369660Y384933D02*
D03*
X374160Y389433D02*
D03*
X378660Y384933D02*
D03*
X374160D02*
D03*
X261660Y331433D02*
D03*
D96*
X229160Y413433D02*
D03*
Y333933D02*
D03*
Y338933D02*
D03*
Y343933D02*
D03*
Y348933D02*
D03*
Y378433D02*
D03*
Y383433D02*
D03*
Y388433D02*
D03*
Y393433D02*
D03*
Y398433D02*
D03*
Y403433D02*
D03*
Y408433D02*
D03*
D97*
X332660Y294433D02*
D03*
X337660D02*
D03*
X352660D02*
D03*
X347660D02*
D03*
X342660D02*
D03*
D98*
X305160Y312933D02*
X312160D01*
M02*
