G04*
G04 #@! TF.GenerationSoftware,Altium Limited,Altium Designer,21.0.8 (223)*
G04*
G04 Layer_Color=65535*
%FSLAX25Y25*%
%MOIN*%
G70*
G04*
G04 #@! TF.SameCoordinates,386B6A0C-B290-4CC1-8F2B-2C95A909E97D*
G04*
G04*
G04 #@! TF.FilePolarity,Positive*
G04*
G01*
G75*
%ADD52C,0.00787*%
%ADD53C,0.01181*%
%ADD87C,0.00984*%
%ADD99C,0.00591*%
%ADD100C,0.01000*%
%ADD101C,0.00394*%
%ADD102C,0.00602*%
%ADD103C,0.01772*%
D52*
X744092Y311894D02*
Y312681D01*
Y311894D01*
X800667Y289685D02*
Y289291D01*
Y289685D01*
X793509Y334772D02*
Y334378D01*
Y334772D01*
X740470Y423437D02*
X739682D01*
X740470D01*
X693336Y339445D02*
Y338657D01*
Y339445D01*
X773072Y309433D02*
X773466D01*
X773072D01*
X813793Y350933D02*
X816352D01*
X807793D02*
X810352D01*
X801793D02*
X804352D01*
X771879Y331126D02*
Y367740D01*
X735265D02*
X771879D01*
X735265Y331126D02*
Y367740D01*
Y331126D02*
X771879D01*
X820572Y422366D02*
Y426500D01*
X809572Y362366D02*
Y366500D01*
X755368Y386185D02*
Y393665D01*
X754777Y395043D02*
X780368D01*
Y408823D01*
X754777D02*
X780368D01*
X754777Y395043D02*
Y408823D01*
X783545Y404933D02*
X792600D01*
X741545Y399433D02*
X750600D01*
X782560Y377043D02*
Y390823D01*
X793572Y390933D02*
X793584Y377043D01*
X835072Y331906D02*
Y340961D01*
Y344406D02*
Y353461D01*
Y356906D02*
Y365961D01*
X808072Y326654D02*
Y329213D01*
X707572Y322933D02*
Y324933D01*
X724572Y426653D02*
Y429213D01*
X709927Y404134D02*
Y416732D01*
X729218D01*
Y404134D02*
Y416732D01*
X709927Y404134D02*
X729218D01*
X709415Y396752D02*
Y402756D01*
X707072Y346153D02*
Y348713D01*
Y340154D02*
Y342713D01*
X787572Y331252D02*
Y333614D01*
Y353252D02*
Y355614D01*
X682029Y362492D02*
X692017D01*
X685127Y357374D02*
X692017D01*
X733572Y378752D02*
Y381114D01*
X786072Y314154D02*
Y316713D01*
Y320153D02*
Y322713D01*
X262965Y413428D02*
X263358D01*
X262965D01*
X263358D01*
X263908Y360531D02*
X263121D01*
X263908D01*
X247074Y290433D02*
Y290827D01*
Y290433D01*
Y290827D01*
X326164Y382819D02*
Y382425D01*
Y382819D01*
Y382425D01*
X384160Y427252D02*
Y429614D01*
X420660Y316905D02*
Y325961D01*
Y329906D02*
Y338961D01*
Y360906D02*
Y369961D01*
Y347905D02*
Y356961D01*
Y378906D02*
Y387961D01*
X358479Y365433D02*
X360841D01*
X304133Y307433D02*
X313188D01*
X345132Y396433D02*
X354188D01*
X284255Y301437D02*
Y305768D01*
X284452Y307146D02*
X295869D01*
Y308720D01*
X284452D02*
X295869D01*
X284452Y307146D02*
Y308720D01*
X335778Y418732D02*
X340306D01*
X341684Y406528D02*
Y418339D01*
Y406528D02*
X344637D01*
Y418339D01*
X341684D02*
X344637D01*
X326660Y427252D02*
Y429614D01*
X337660Y427252D02*
Y429614D01*
X320640Y318831D02*
X324381D01*
X319263Y319028D02*
Y330839D01*
X310207D02*
X319263D01*
X310207Y319028D02*
Y330839D01*
Y319028D02*
X319263D01*
X278979Y307784D02*
X281341D01*
X266979D02*
X269341D01*
X387979Y412433D02*
X390341D01*
X253660Y294752D02*
Y297114D01*
X314979Y387933D02*
X317341D01*
X264459Y435710D02*
X273514D01*
X326660Y421252D02*
Y423614D01*
X276692Y443417D02*
X284172D01*
X285550Y418417D02*
Y444008D01*
Y418417D02*
X299329D01*
Y444008D01*
X285550D02*
X299329D01*
X272979Y307784D02*
X275341D01*
X260979D02*
X263341D01*
X254979D02*
X257341D01*
X251632Y427433D02*
X260688D01*
X332660Y388752D02*
Y391114D01*
X315160Y366406D02*
Y375461D01*
X420660Y409905D02*
Y418961D01*
Y422905D02*
Y431961D01*
X360133Y348433D02*
X369188D01*
X373132D02*
X382188D01*
X420660Y391905D02*
Y400961D01*
X360660Y329752D02*
Y332114D01*
Y315752D02*
Y318114D01*
Y322752D02*
Y325114D01*
X278660Y455752D02*
Y458114D01*
X254160Y443752D02*
Y446114D01*
X345660Y322752D02*
Y325114D01*
Y315752D02*
Y318114D01*
Y329752D02*
Y332114D01*
X381979Y412433D02*
X384341D01*
X393160Y315752D02*
Y318114D01*
X254160Y449752D02*
Y452114D01*
X363979Y412433D02*
X366341D01*
X351160Y421252D02*
Y423614D01*
Y427252D02*
Y429614D01*
X248058Y453685D02*
X257113D01*
X248058D02*
Y460181D01*
X257113D01*
X260558Y453685D02*
X269613D01*
X260558D02*
Y460181D01*
X269613D01*
X362060Y427252D02*
Y429614D01*
X280096Y409713D02*
X279309Y410501D01*
X277735D01*
X276947Y409713D01*
Y408926D01*
X277735Y408139D01*
X279309D01*
X280096Y407352D01*
Y406565D01*
X279309Y405778D01*
X277735D01*
X276947Y406565D01*
X281670Y405778D02*
Y410501D01*
X284032D01*
X284819Y409713D01*
Y408139D01*
X284032Y407352D01*
X281670D01*
X286393Y410501D02*
X287968D01*
X287180D01*
Y405778D01*
X286393D01*
X287968D01*
X295052D02*
X297413D01*
X298200Y406565D01*
X297413Y407352D01*
X295839D01*
X295052Y408139D01*
X295839Y408926D01*
X298200D01*
X302136Y405778D02*
X300562D01*
X299775Y406565D01*
Y408139D01*
X300562Y408926D01*
X302136D01*
X302923Y408139D01*
Y407352D01*
X299775D01*
X304498Y405778D02*
X306072D01*
X305285D01*
Y410501D01*
X304498D01*
X308433Y405778D02*
Y406565D01*
X309221D01*
Y405778D01*
X308433D01*
X276947Y402156D02*
X277735Y402943D01*
X279309D01*
X280096Y402156D01*
Y399008D01*
X279309Y398220D01*
X277735D01*
X276947Y399008D01*
Y402156D01*
X286393Y400582D02*
X289542D01*
X295839Y402156D02*
X296626Y402943D01*
X298200D01*
X298988Y402156D01*
Y401369D01*
X298200Y400582D01*
X298988Y399795D01*
Y399008D01*
X298200Y398220D01*
X296626D01*
X295839Y399008D01*
Y399795D01*
X296626Y400582D01*
X295839Y401369D01*
Y402156D01*
X296626Y400582D02*
X298200D01*
X528650Y397220D02*
X532586D01*
X533373Y398008D01*
Y399582D01*
X532586Y400369D01*
X528650D01*
X528150Y315721D02*
X532873D01*
X531298Y317295D01*
X532873Y318869D01*
X528150D01*
X528650Y356720D02*
X531798D01*
X533373Y358295D01*
X531798Y359869D01*
X528650D01*
X399650Y442721D02*
X402798D01*
X404373Y444295D01*
X402798Y445869D01*
X399650D01*
Y447443D02*
X404373D01*
Y449805D01*
X403586Y450592D01*
X402798D01*
X402011Y449805D01*
Y447443D01*
Y449805D01*
X401224Y450592D01*
X400437D01*
X399650Y449805D01*
Y447443D01*
X402011Y452166D02*
Y455315D01*
X400437Y453741D02*
X403586D01*
X477437Y446869D02*
X476650Y446082D01*
Y444508D01*
X477437Y443720D01*
X480585D01*
X481373Y444508D01*
Y446082D01*
X480585Y446869D01*
X479011D01*
Y445295D01*
X481373Y448443D02*
X476650D01*
X481373Y451592D01*
X476650D01*
Y453166D02*
X481373D01*
Y455528D01*
X480585Y456315D01*
X477437D01*
X476650Y455528D01*
Y453166D01*
D53*
X408341Y302126D02*
Y306849D01*
X409522D01*
X410703Y305668D01*
Y302126D01*
Y305668D01*
X411883Y306849D01*
X413064Y305668D01*
Y302126D01*
X416606D02*
X418968D01*
X420148Y303307D01*
Y305668D01*
X418968Y306849D01*
X416606D01*
X415425Y305668D01*
Y303307D01*
X416606Y302126D01*
X427233Y309210D02*
Y302126D01*
X423691D01*
X422510Y303307D01*
Y305668D01*
X423691Y306849D01*
X427233D01*
D87*
X778572Y331716D02*
X777834Y332143D01*
Y331290D01*
X778572Y331716D01*
X837769Y417433D02*
X837375D01*
X837769D01*
X715918Y456959D02*
X713556D01*
Y455188D01*
X714737D01*
X713556D01*
Y453417D01*
X718870Y456959D02*
X717689D01*
X717099Y456369D01*
Y454008D01*
X717689Y453417D01*
X718870D01*
X719460Y454008D01*
Y456369D01*
X718870Y456959D01*
X723002Y456369D02*
X722412Y456959D01*
X721231D01*
X720641Y456369D01*
Y454008D01*
X721231Y453417D01*
X722412D01*
X723002Y454008D01*
X362841Y371547D02*
X362103Y371973D01*
Y371121D01*
X362841Y371547D01*
D99*
X736072Y309433D02*
X737072D01*
Y310433D01*
X735072Y311433D02*
X737072Y309433D01*
X735072Y311433D02*
Y313433D01*
X729663Y447295D02*
X732024D01*
X730843Y448475D02*
Y446114D01*
X735566Y449066D02*
X733205D01*
Y447295D01*
X734386Y447885D01*
X734976D01*
X735566Y447295D01*
Y446114D01*
X734976Y445524D01*
X733795D01*
X733205Y446114D01*
X736747Y449066D02*
Y446704D01*
X737928Y445524D01*
X739109Y446704D01*
Y449066D01*
X835082Y316904D02*
X832720D01*
X833901Y318085D02*
Y315724D01*
X732524Y439156D02*
X731934Y439747D01*
X730753D01*
X730163Y439156D01*
Y438566D01*
X730753Y437975D01*
X731934D01*
X732524Y437385D01*
Y436795D01*
X731934Y436204D01*
X730753D01*
X730163Y436795D01*
X733705Y436204D02*
X734886D01*
X734295D01*
Y438566D01*
X733705D01*
X737837Y435024D02*
X738428D01*
X739018Y435614D01*
Y438566D01*
X737247D01*
X736657Y437975D01*
Y436795D01*
X737247Y436204D01*
X739018D01*
X834982Y325904D02*
X832620D01*
X704934Y380524D02*
X703163Y382295D01*
X704934Y384066D01*
X706705Y382295D02*
X709066D01*
X732024Y458475D02*
X731434Y459066D01*
X730253D01*
X729663Y458475D01*
Y456114D01*
X730253Y455524D01*
X731434D01*
X732024Y456114D01*
Y457295D01*
X730843D01*
X733205Y455524D02*
Y459066D01*
X735566Y455524D01*
Y459066D01*
X736747D02*
Y455524D01*
X738518D01*
X739109Y456114D01*
Y458475D01*
X738518Y459066D01*
X736747D01*
X702663Y453524D02*
Y455885D01*
X703253D01*
X703843Y455295D01*
Y453524D01*
Y455295D01*
X704434Y455885D01*
X705024Y455295D01*
Y453524D01*
X706795D02*
X707976D01*
X708566Y454114D01*
Y455295D01*
X707976Y455885D01*
X706795D01*
X706205Y455295D01*
Y454114D01*
X706795Y453524D01*
X712109Y457066D02*
Y453524D01*
X710337D01*
X709747Y454114D01*
Y455295D01*
X710337Y455885D01*
X712109D01*
X759524Y378975D02*
X758934Y379566D01*
X757753D01*
X757163Y378975D01*
Y376614D01*
X757753Y376024D01*
X758934D01*
X759524Y376614D01*
Y377795D01*
X758344D01*
X757663Y316704D02*
X760024D01*
X774524Y379566D02*
X772163D01*
Y377795D01*
X773344Y378385D01*
X773934D01*
X774524Y377795D01*
Y376614D01*
X773934Y376024D01*
X772753D01*
X772163Y376614D01*
X775705Y379566D02*
Y377204D01*
X776886Y376024D01*
X778066Y377204D01*
Y379566D01*
X713024Y318475D02*
X712434Y319066D01*
X711253D01*
X710663Y318475D01*
Y317885D01*
X711253Y317295D01*
X712434D01*
X713024Y316704D01*
Y316114D01*
X712434Y315524D01*
X711253D01*
X710663Y316114D01*
X714205Y319066D02*
Y315524D01*
X715386Y316704D01*
X716566Y315524D01*
Y319066D01*
X717747D02*
Y315524D01*
X719518D01*
X720109Y316114D01*
Y318475D01*
X719518Y319066D01*
X717747D01*
X703163Y385704D02*
Y389247D01*
X704934D01*
X705524Y388656D01*
Y387475D01*
X704934Y386885D01*
X703163D01*
X707295Y385704D02*
X708476D01*
X709066Y386295D01*
Y387475D01*
X708476Y388066D01*
X707295D01*
X706705Y387475D01*
Y386295D01*
X707295Y385704D01*
X710247Y388066D02*
Y386295D01*
X710837Y385704D01*
X711428Y386295D01*
X712018Y385704D01*
X712608Y386295D01*
Y388066D01*
X715560Y385704D02*
X714380D01*
X713789Y386295D01*
Y387475D01*
X714380Y388066D01*
X715560D01*
X716151Y387475D01*
Y386885D01*
X713789D01*
X717331Y388066D02*
Y385704D01*
Y386885D01*
X717922Y387475D01*
X718512Y388066D01*
X719102D01*
X720873Y385704D02*
X722645D01*
X723235Y386295D01*
X722645Y386885D01*
X721464D01*
X720873Y387475D01*
X721464Y388066D01*
X723235D01*
X725006Y388656D02*
Y388066D01*
X724416D01*
X725596D01*
X725006D01*
Y386295D01*
X725596Y385704D01*
X727958Y388066D02*
X729139D01*
X729729Y387475D01*
Y385704D01*
X727958D01*
X727367Y386295D01*
X727958Y386885D01*
X729729D01*
X732090Y384524D02*
X732681D01*
X733271Y385114D01*
Y388066D01*
X731500D01*
X730910Y387475D01*
Y386295D01*
X731500Y385704D01*
X733271D01*
X736223D02*
X735042D01*
X734452Y386295D01*
Y387475D01*
X735042Y388066D01*
X736223D01*
X736813Y387475D01*
Y386885D01*
X734452D01*
X726163Y319066D02*
Y316114D01*
X726753Y315524D01*
X727934D01*
X728524Y316114D01*
Y319066D01*
X729705Y315524D02*
Y317885D01*
X730886Y319066D01*
X732066Y317885D01*
Y315524D01*
Y317295D01*
X729705D01*
X733247Y315524D02*
Y319066D01*
X735018D01*
X735608Y318475D01*
Y317295D01*
X735018Y316704D01*
X733247D01*
X734428D02*
X735608Y315524D01*
X736789Y319066D02*
X739151D01*
X737970D01*
Y315524D01*
X821772Y313524D02*
X824133D01*
X825314Y314704D01*
X824133Y315885D01*
X821772D01*
X825314Y317066D02*
Y318247D01*
Y317656D01*
X822952D01*
Y317066D01*
X825314Y320018D02*
X822952D01*
Y321789D01*
X823543Y322379D01*
X825314D01*
X828030Y313524D02*
X827439Y314114D01*
Y315295D01*
X828030Y315885D01*
X828620D01*
X829211Y315295D01*
Y314704D01*
Y315295D01*
X829801Y315885D01*
X830391D01*
X830982Y315295D01*
Y314114D01*
X830391Y313524D01*
X829211Y317066D02*
Y319427D01*
X830982Y320608D02*
Y321789D01*
Y321198D01*
X827439D01*
X828030Y320608D01*
X830982Y325921D02*
Y323560D01*
X828620Y325921D01*
X828030D01*
X827439Y325331D01*
Y324150D01*
X828030Y323560D01*
Y329463D02*
X827439Y328873D01*
Y327692D01*
X828030Y327102D01*
X828620D01*
X829211Y327692D01*
Y328873D01*
X829801Y329463D01*
X830391D01*
X830982Y328873D01*
Y327692D01*
X830391Y327102D01*
X701205Y338342D02*
X698253D01*
X697663Y337752D01*
Y336571D01*
X698253Y335981D01*
X701205D01*
X700615Y332439D02*
X701205Y333029D01*
Y334210D01*
X700615Y334800D01*
X700024D01*
X699434Y334210D01*
Y333029D01*
X698843Y332439D01*
X698253D01*
X697663Y333029D01*
Y334210D01*
X698253Y334800D01*
X701205Y331258D02*
X697663D01*
Y329487D01*
X698253Y328897D01*
X698843D01*
X699434Y329487D01*
Y331258D01*
Y329487D01*
X700024Y328897D01*
X700615D01*
X701205Y329487D01*
Y331258D01*
X743844Y317843D02*
Y315481D01*
X745024Y316662D02*
X742663D01*
X683024Y432475D02*
X682434Y433066D01*
X681253D01*
X680663Y432475D01*
Y431885D01*
X681253Y431295D01*
X682434D01*
X683024Y430704D01*
Y430114D01*
X682434Y429524D01*
X681253D01*
X680663Y430114D01*
X684205Y429524D02*
Y433066D01*
X685976D01*
X686566Y432475D01*
Y431295D01*
X685976Y430704D01*
X684205D01*
X687747Y433066D02*
X688928D01*
X688337D01*
Y429524D01*
X687747D01*
X688928D01*
X761163Y378975D02*
X761753Y379566D01*
X762934D01*
X763524Y378975D01*
Y378385D01*
X762934Y377795D01*
X762344D01*
X762934D01*
X763524Y377204D01*
Y376614D01*
X762934Y376024D01*
X761753D01*
X761163Y376614D01*
X764705Y379566D02*
Y377204D01*
X765886Y376024D01*
X767066Y377204D01*
Y379566D01*
X768247Y378975D02*
X768837Y379566D01*
X770018D01*
X770609Y378975D01*
Y378385D01*
X770018Y377795D01*
X769428D01*
X770018D01*
X770609Y377204D01*
Y376614D01*
X770018Y376024D01*
X768837D01*
X768247Y376614D01*
X498688Y286614D02*
Y291339D01*
X502625Y286614D02*
Y291339D01*
X506562Y286614D02*
Y291339D01*
X510499Y286614D02*
Y291339D01*
X514436Y286614D02*
Y293307D01*
X479003Y286614D02*
Y291339D01*
X482940Y286614D02*
Y291339D01*
X486877Y286614D02*
Y291339D01*
X490814Y286614D02*
Y291339D01*
X494751Y286614D02*
Y293307D01*
X459318Y286614D02*
Y291339D01*
X463255Y286614D02*
Y291339D01*
X467192Y286614D02*
Y291339D01*
X471129Y286614D02*
Y291339D01*
X475066Y286614D02*
Y293307D01*
X439633Y286614D02*
Y291339D01*
X443570Y286614D02*
Y291339D01*
X447507Y286614D02*
Y291339D01*
X451444Y286614D02*
Y291339D01*
X455381Y286614D02*
Y293307D01*
X419947Y286614D02*
Y291339D01*
X423884Y286614D02*
Y291339D01*
X427821Y286614D02*
Y291339D01*
X431758Y286614D02*
Y291339D01*
X435696Y286614D02*
Y293307D01*
X416011Y286614D02*
Y293307D01*
X412074Y286614D02*
Y291339D01*
X408137Y286614D02*
Y291339D01*
X404200Y286614D02*
Y291339D01*
X396325Y286614D02*
Y293307D01*
X400262Y286614D02*
Y291339D01*
X438452Y441535D02*
X437862Y442126D01*
Y443306D01*
X438452Y443897D01*
X439043D01*
X439633Y443306D01*
Y442716D01*
Y443306D01*
X440224Y443897D01*
X440814D01*
X441404Y443306D01*
Y442126D01*
X440814Y441535D01*
X439633Y445078D02*
Y447439D01*
X441404Y448620D02*
Y449800D01*
Y449210D01*
X437862D01*
X438452Y448620D01*
X441404Y453933D02*
Y451572D01*
X439043Y453933D01*
X438452D01*
X437862Y453343D01*
Y452162D01*
X438452Y451572D01*
Y457475D02*
X437862Y456885D01*
Y455704D01*
X438452Y455114D01*
X439043D01*
X439633Y455704D01*
Y456885D01*
X440224Y457475D01*
X440814D01*
X441404Y456885D01*
Y455704D01*
X440814Y455114D01*
X478018Y293898D02*
X475656D01*
X478018Y296259D01*
Y296849D01*
X477427Y297440D01*
X476247D01*
X475656Y296849D01*
X479198D02*
X479789Y297440D01*
X480969D01*
X481560Y296849D01*
Y294488D01*
X480969Y293898D01*
X479789D01*
X479198Y294488D01*
Y296849D01*
X455971Y293898D02*
X457152D01*
X456562D01*
Y297440D01*
X455971Y296849D01*
X461284Y297440D02*
X458923D01*
Y295669D01*
X460104Y296259D01*
X460694D01*
X461284Y295669D01*
Y294488D01*
X460694Y293898D01*
X459513D01*
X458923Y294488D01*
X436286Y293898D02*
X437467D01*
X436876D01*
Y297440D01*
X436286Y296849D01*
X439238D02*
X439828Y297440D01*
X441009D01*
X441599Y296849D01*
Y294488D01*
X441009Y293898D01*
X439828D01*
X439238Y294488D01*
Y296849D01*
X488255Y455076D02*
Y451534D01*
Y453305D01*
X490616D01*
Y455076D01*
Y451534D01*
X492387D02*
X493568D01*
X494158Y452124D01*
Y453305D01*
X493568Y453896D01*
X492387D01*
X491797Y453305D01*
Y452124D01*
X492387Y451534D01*
X495339D02*
X496520D01*
X495929D01*
Y455076D01*
X495339D01*
X500062Y451534D02*
X498881D01*
X498291Y452124D01*
Y453305D01*
X498881Y453896D01*
X500062D01*
X500652Y453305D01*
Y452715D01*
X498291D01*
X501833Y451534D02*
X503604D01*
X504194Y452124D01*
X503604Y452715D01*
X502423D01*
X501833Y453305D01*
X502423Y453896D01*
X504194D01*
X505375D02*
X505965D01*
Y453305D01*
X505375D01*
Y453896D01*
Y452124D02*
X505965D01*
Y451534D01*
X505375D01*
Y452124D01*
X490616Y449408D02*
X488255D01*
Y447637D01*
X489435Y448228D01*
X490026D01*
X490616Y447637D01*
Y446456D01*
X490026Y445866D01*
X488845D01*
X488255Y446456D01*
X493568Y445866D02*
Y449408D01*
X491797Y447637D01*
X494158D01*
X495339Y446456D02*
X495929Y445866D01*
X497110D01*
X497700Y446456D01*
Y448818D01*
X497110Y449408D01*
X495929D01*
X495339Y448818D01*
Y448228D01*
X495929Y447637D01*
X497700D01*
X418962Y297440D02*
X416601D01*
Y295669D01*
X417782Y296259D01*
X418372D01*
X418962Y295669D01*
Y294488D01*
X418372Y293898D01*
X417191D01*
X416601Y294488D01*
X396916Y296849D02*
X397506Y297440D01*
X398687D01*
X399277Y296849D01*
Y294488D01*
X398687Y293898D01*
X397506D01*
X396916Y294488D01*
Y296849D01*
X497703Y293898D02*
X495341D01*
X497703Y296259D01*
Y296849D01*
X497112Y297440D01*
X495932D01*
X495341Y296849D01*
X501245Y297440D02*
X498883D01*
Y295669D01*
X500064Y296259D01*
X500654D01*
X501245Y295669D01*
Y294488D01*
X500654Y293898D01*
X499474D01*
X498883Y294488D01*
D100*
X818072Y333433D02*
Y333633D01*
X812072Y333433D02*
Y333633D01*
X806065Y333496D02*
Y333696D01*
X698972Y288233D02*
X699972D01*
X699472D01*
Y291232D01*
X698972Y290732D01*
D101*
X689478Y424772D02*
X693415D01*
X689478D02*
X693415D01*
Y416602D02*
Y424772D01*
Y416602D02*
Y424772D01*
Y367094D02*
Y375264D01*
Y367094D02*
Y375264D01*
X690462Y367094D02*
X693415D01*
X690462D02*
X693415D01*
X783119Y288803D02*
X789025D01*
X783119D02*
X789025D01*
X783119Y310063D02*
X789025D01*
X783119D02*
X789025D01*
X367361Y428433D02*
X366967D01*
X367361D01*
X321273Y435085D02*
X321667D01*
X321273D01*
X346167D02*
X345774D01*
X346167D01*
X364117Y300370D02*
Y305095D01*
X356440D02*
X364117D01*
X321203D02*
X328881D01*
X321203Y300370D02*
Y305095D01*
X236050Y367094D02*
X239003D01*
X236050D02*
X239003D01*
Y375264D01*
Y367094D02*
Y375264D01*
Y416602D02*
Y424772D01*
Y416602D02*
Y424772D01*
X235066D02*
X239003D01*
X235066D02*
X239003D01*
X322802Y438846D02*
Y453020D01*
X328117Y437075D02*
X335203D01*
X328117Y454791D02*
X335203D01*
X340518Y438846D02*
Y453020D01*
X365018Y438846D02*
Y453020D01*
X352617Y454791D02*
X359703D01*
X352617Y437075D02*
X359703D01*
X347302Y438846D02*
Y453020D01*
X463121Y333591D02*
X463908D01*
X463121Y348571D02*
X463908D01*
X268522Y411823D02*
X271081D01*
X261239D02*
X263798D01*
X268522Y398043D02*
X271081D01*
X261239D02*
X263798D01*
X463121Y371071D02*
X463908D01*
X463121Y356091D02*
X463908D01*
X326361Y367465D02*
Y371402D01*
Y367465D02*
Y371402D01*
X331676Y359591D02*
X333644D01*
X331676D02*
X333644D01*
X331676Y379276D02*
X333644D01*
X331676D02*
X333644D01*
X338959Y367465D02*
Y371402D01*
Y367465D02*
Y371402D01*
D102*
X255861Y417684D02*
X253763D01*
Y416110D01*
X254812Y416635D01*
X255337D01*
X255861Y416110D01*
Y415060D01*
X255337Y414535D01*
X254287D01*
X253763Y415060D01*
X256911Y417684D02*
Y415585D01*
X257961Y414535D01*
X259010Y415585D01*
Y417684D01*
X368361Y423684D02*
X366263D01*
Y422110D01*
X367312D01*
X366263D01*
Y420535D01*
X369936Y422635D02*
X370985D01*
X371510Y422110D01*
Y420535D01*
X369936D01*
X369411Y421060D01*
X369936Y421585D01*
X371510D01*
X372560Y422635D02*
Y421060D01*
X373084Y420535D01*
X374659D01*
Y422635D01*
X375708Y420535D02*
X376758D01*
X376233D01*
Y423684D01*
X375708D01*
X378857Y423159D02*
Y422635D01*
X378332D01*
X379382D01*
X378857D01*
Y421060D01*
X379382Y420535D01*
X259763Y291684D02*
X261861D01*
X260812D01*
Y288535D01*
X262911D02*
Y291684D01*
X263961Y290634D01*
X265010Y291684D01*
Y288535D01*
X268159Y291159D02*
X267634Y291684D01*
X266584D01*
X266060Y291159D01*
Y289060D01*
X266584Y288535D01*
X267634D01*
X268159Y289060D01*
X269208Y288535D02*
X270782D01*
X271307Y289060D01*
X270782Y289585D01*
X269733D01*
X269208Y290110D01*
X269733Y290634D01*
X271307D01*
X272882Y291159D02*
Y290634D01*
X272357D01*
X273406D01*
X272882D01*
Y289060D01*
X273406Y288535D01*
X348762Y344734D02*
Y342635D01*
X349812Y341585D01*
X350862Y342635D01*
Y344734D01*
X354010Y343684D02*
X352436D01*
X351911Y343159D01*
Y342110D01*
X352436Y341585D01*
X354010D01*
X355060Y340535D02*
Y343684D01*
X356634D01*
X357159Y343159D01*
Y342110D01*
X356634Y341585D01*
X355060D01*
X331763Y398184D02*
Y395035D01*
X333337D01*
X333861Y395560D01*
Y397659D01*
X333337Y398184D01*
X331763D01*
X334911D02*
Y396085D01*
X335961Y395035D01*
X337010Y396085D01*
Y398184D01*
X338060D02*
Y395035D01*
X339634D01*
X340159Y395560D01*
Y397659D01*
X339634Y398184D01*
X338060D01*
X341208D02*
Y395035D01*
X342782D01*
X343307Y395560D01*
Y397659D01*
X342782Y398184D01*
X341208D01*
X331763Y350184D02*
Y348085D01*
X332812Y347035D01*
X333861Y348085D01*
Y350184D01*
X337010Y349134D02*
X335436D01*
X334911Y348610D01*
Y347560D01*
X335436Y347035D01*
X337010D01*
X338584D02*
X339634D01*
X340159Y347560D01*
Y348610D01*
X339634Y349134D01*
X338584D01*
X338060Y348610D01*
Y347560D01*
X338584Y347035D01*
X341208Y349134D02*
Y347035D01*
Y348085D01*
X341733Y348610D01*
X342258Y349134D01*
X342782D01*
X345931Y347035D02*
X344882D01*
X344357Y347560D01*
Y348610D01*
X344882Y349134D01*
X345931D01*
X346456Y348610D01*
Y348085D01*
X344357D01*
X296263Y454659D02*
X296787Y455184D01*
X297837D01*
X298361Y454659D01*
Y454135D01*
X297837Y453610D01*
X297312D01*
X297837D01*
X298361Y453085D01*
Y452560D01*
X297837Y452035D01*
X296787D01*
X296263Y452560D01*
X299411Y455184D02*
Y453085D01*
X300461Y452035D01*
X301510Y453085D01*
Y455184D01*
X302560Y454659D02*
X303084Y455184D01*
X304134D01*
X304659Y454659D01*
Y454135D01*
X304134Y453610D01*
X303609D01*
X304134D01*
X304659Y453085D01*
Y452560D01*
X304134Y452035D01*
X303084D01*
X302560Y452560D01*
D103*
X435155Y309301D02*
X430432D01*
Y305759D01*
X432793D01*
X430432D01*
Y302217D01*
X441058Y309301D02*
X438697D01*
X437516Y308120D01*
Y303397D01*
X438697Y302217D01*
X441058D01*
X442239Y303397D01*
Y308120D01*
X441058Y309301D01*
X449323Y308120D02*
X448143Y309301D01*
X445781D01*
X444600Y308120D01*
Y303397D01*
X445781Y302217D01*
X448143D01*
X449323Y303397D01*
M02*
