G04*
G04 #@! TF.GenerationSoftware,Altium Limited,Altium Designer,21.0.8 (223)*
G04*
G04 Layer_Color=32768*
%FSLAX25Y25*%
%MOIN*%
G70*
G04*
G04 #@! TF.SameCoordinates,386B6A0C-B290-4CC1-8F2B-2C95A909E97D*
G04*
G04*
G04 #@! TF.FilePolarity,Positive*
G04*
G01*
G75*
%ADD101C,0.00394*%
%ADD179C,0.00197*%
%ADD180C,0.00600*%
%ADD181C,0.00400*%
D101*
X740572Y435433D02*
Y462433D01*
X698572Y435433D02*
X740572D01*
X698572D02*
Y462433D01*
X740572D01*
X812072Y333433D02*
Y345433D01*
X818072D01*
Y333433D02*
Y345433D01*
X812072Y333433D02*
X818072D01*
X806072D02*
Y345433D01*
X812072D01*
Y333433D02*
Y345433D01*
X806072Y333433D02*
X812072D01*
X800065Y333496D02*
Y345496D01*
X806065D01*
Y333496D02*
Y345496D01*
X800065Y333496D02*
X806065D01*
X672572Y312933D02*
Y354933D01*
Y312933D02*
X699572D01*
Y354933D01*
X672572D02*
X699572D01*
X730572Y285433D02*
X772572D01*
X730572D02*
Y312433D01*
X772572D01*
Y285433D02*
Y312433D01*
X730572Y285433D02*
Y312433D01*
X772572D01*
Y285433D02*
Y312433D01*
X730572Y285433D02*
X772572D01*
X672572Y365433D02*
Y426433D01*
Y365433D02*
X701572D01*
Y426433D01*
X672572D02*
X701572D01*
X672572Y365433D02*
X701572D01*
Y426433D01*
X672572D02*
X701572D01*
X672572Y365433D02*
Y426433D01*
X799572Y285933D02*
Y319933D01*
X823572D01*
Y285933D02*
Y319933D01*
X799572Y285933D02*
X823572D01*
X780572Y334933D02*
Y351933D01*
X794572D01*
Y334933D02*
Y351933D01*
X780572Y334933D02*
X794572D01*
X844769Y368236D02*
Y419614D01*
X794375D02*
X844769D01*
X794375Y368236D02*
Y419614D01*
Y368236D02*
X844769D01*
X696072Y311433D02*
Y356433D01*
X672572Y311433D02*
X696072D01*
X672572D02*
Y356433D01*
X696072D01*
X773072Y312433D02*
X799072D01*
X773072Y286433D02*
Y312433D01*
Y286433D02*
X799072D01*
Y312433D01*
X319660Y284433D02*
X365660D01*
X319660D02*
Y311933D01*
X365660D01*
Y284433D02*
Y311933D01*
X217660Y320933D02*
X243160D01*
Y361933D01*
X217660D02*
X243160D01*
X217660Y320933D02*
Y361933D01*
X218160Y365433D02*
Y426433D01*
X247160D01*
Y365433D02*
Y426433D01*
X218160Y365433D02*
X247160D01*
X218160Y426433D02*
X247160D01*
Y365433D02*
Y426433D01*
X218160Y365433D02*
X247160D01*
X218160D02*
Y426433D01*
X367160Y430933D02*
X378160D01*
Y425933D02*
Y430933D01*
X367160Y425933D02*
X378160D01*
X367160D02*
Y430933D01*
X321660Y431433D02*
Y460433D01*
X341660D01*
Y431433D02*
Y460433D01*
X321660Y431433D02*
X341660D01*
X346160D02*
X366160D01*
Y460433D01*
X346160D02*
X366160D01*
X346160Y431433D02*
Y460433D01*
X472160Y307933D02*
Y329933D01*
X501660D01*
Y307933D02*
Y329933D01*
X472160Y307933D02*
X501660D01*
X455514Y350071D02*
X471514D01*
X455514Y332071D02*
Y350071D01*
Y332071D02*
X471514D01*
Y350071D01*
X501298Y352433D02*
Y374433D01*
X471798Y352433D02*
X501298D01*
X471798D02*
Y374433D01*
X501298D01*
X471798Y351933D02*
X501298D01*
X471798Y329933D02*
Y351933D01*
Y329933D02*
X501298D01*
Y351933D01*
X471660Y374433D02*
Y396433D01*
X501160D01*
Y374433D02*
Y396433D01*
X471660Y374433D02*
X501160D01*
X471660Y396933D02*
Y418933D01*
X501160D01*
Y396933D02*
Y418933D01*
X471660Y396933D02*
X501160D01*
X472160Y440933D02*
X501660D01*
X472160Y418933D02*
Y440933D01*
Y418933D02*
X501660D01*
Y440933D01*
X471514Y354571D02*
Y372571D01*
X455514Y354571D02*
X471514D01*
X455514D02*
Y372571D01*
X471514D01*
X248160Y287933D02*
Y292933D01*
Y287933D02*
X259160D01*
Y292933D01*
X248160D02*
X259160D01*
X324160Y381933D02*
X341660D01*
X324160Y356933D02*
Y381933D01*
Y356933D02*
X341660D01*
Y381933D01*
D179*
X812119Y356642D02*
X818025D01*
X812119Y345224D02*
Y356642D01*
Y345224D02*
X818025D01*
Y356642D01*
X806119D02*
X812025D01*
X806119Y345224D02*
Y356642D01*
Y345224D02*
X812025D01*
Y356642D01*
X800119D02*
X806025D01*
X800119Y345224D02*
Y356642D01*
Y345224D02*
X806025D01*
Y356642D01*
X780049Y322957D02*
Y375909D01*
X727096D02*
X780049D01*
X727096Y322957D02*
Y375909D01*
Y322957D02*
X780049D01*
X740072Y423433D02*
X748072D01*
Y431433D01*
X740072D02*
X748072D01*
X740072Y423433D02*
Y431433D01*
X813781Y428173D02*
X827363D01*
Y420693D02*
Y428173D01*
X813781Y420693D02*
X827363D01*
X813781D02*
Y428173D01*
X816364Y360693D02*
Y368173D01*
X802781D02*
X816364D01*
X802781Y360693D02*
Y368173D01*
Y360693D02*
X816364D01*
X753572Y384933D02*
X781572D01*
Y418933D01*
X753572D02*
X781572D01*
X753572Y384933D02*
Y418933D01*
X781930Y396429D02*
X794214D01*
Y413437D01*
X781930D02*
X794214D01*
X781930Y396429D02*
Y413437D01*
X739930Y407937D02*
X752214D01*
X739930Y390929D02*
Y407937D01*
Y390929D02*
X752214D01*
Y407937D01*
X781182Y394268D02*
X794962D01*
X781182Y373598D02*
Y394268D01*
Y373598D02*
X794962D01*
Y394268D01*
X826568Y330291D02*
Y342575D01*
Y330291D02*
X843576D01*
Y342575D01*
X826568D02*
X843576D01*
X826568Y342791D02*
Y355075D01*
Y342791D02*
X843576D01*
Y355075D01*
X826568D02*
X843576D01*
X826568Y355291D02*
Y367575D01*
Y355291D02*
X843576D01*
Y367575D01*
X826568D02*
X843576D01*
X700072Y287244D02*
Y313622D01*
Y287244D02*
X730072D01*
Y313622D01*
X700072D02*
X730072D01*
X813781Y324980D02*
Y330886D01*
X802363D02*
X813781D01*
X802363Y324980D02*
Y330886D01*
Y324980D02*
X813781D01*
X707584Y320567D02*
X721560D01*
Y337299D01*
X707584D02*
X721560D01*
X707584Y320567D02*
Y337299D01*
X722052Y324551D02*
Y334315D01*
X727092D01*
Y324551D02*
Y334315D01*
X722052Y324551D02*
X727092D01*
X718863Y424980D02*
X730281D01*
X718863D02*
Y430886D01*
X730281D01*
Y424980D02*
Y430886D01*
X703552Y397551D02*
X708592D01*
Y407315D01*
X703552D02*
X708592D01*
X703552Y397551D02*
Y407315D01*
X718954Y425413D02*
Y430453D01*
X709190D02*
X718954D01*
X709190Y425413D02*
Y430453D01*
Y425413D02*
X718954D01*
X708745Y395768D02*
Y425098D01*
X730399D01*
Y395768D02*
Y425098D01*
X708745Y395768D02*
X730399D01*
X701364Y350386D02*
X712781D01*
Y344480D02*
Y350386D01*
X701364Y344480D02*
X712781D01*
X701364D02*
Y350386D01*
Y344386D02*
X712781D01*
Y338480D02*
Y344386D01*
X701364Y338480D02*
X712781D01*
X701364D02*
Y344386D01*
X740824Y376429D02*
Y383437D01*
Y376429D02*
X752320D01*
Y383437D01*
X740824D02*
X752320D01*
X722052Y376815D02*
X727092D01*
X722052Y367051D02*
Y376815D01*
Y367051D02*
X727092D01*
Y376815D01*
X781052Y371315D02*
X786092D01*
X781052Y361551D02*
Y371315D01*
Y361551D02*
X786092D01*
Y371315D01*
X773454Y317413D02*
Y322453D01*
X763690D02*
X773454D01*
X763690Y317413D02*
Y322453D01*
Y317413D02*
X773454D01*
X803190Y319913D02*
Y324953D01*
Y319913D02*
X812954D01*
Y324953D01*
X803190D02*
X812954D01*
X782769Y334874D02*
X792375D01*
Y329992D02*
Y334874D01*
X782769Y329992D02*
X792375D01*
X782769D02*
Y334874D01*
Y351992D02*
X792375D01*
X782769D02*
Y356874D01*
X792375D01*
Y351992D02*
Y356874D01*
X681072Y363433D02*
X696072D01*
Y356433D02*
Y363433D01*
X681072Y356433D02*
X696072D01*
X681072D02*
Y363433D01*
X727667Y376980D02*
Y382886D01*
Y376980D02*
X739478D01*
Y382886D01*
X727667D02*
X739478D01*
X780364Y312480D02*
X791781Y312480D01*
X780364Y312480D02*
X780364Y318386D01*
X791781Y318386D01*
X791781Y312480D02*
X791781Y318386D01*
X780364Y318480D02*
X791781D01*
X780364D02*
Y324386D01*
X791781D01*
Y318480D02*
Y324386D01*
X378451Y431433D02*
X389869D01*
Y425480D02*
Y431433D01*
X378451Y425480D02*
X389869D01*
X378451D02*
Y431433D01*
X411660Y314933D02*
X429660D01*
X411660D02*
Y327933D01*
X429660D01*
Y314933D02*
Y327933D01*
X411660D02*
X429660D01*
X411660D02*
Y340933D01*
X429660D01*
Y327933D02*
Y340933D01*
X411660Y358933D02*
X429660D01*
X411660D02*
Y371933D01*
X429660D01*
Y358933D02*
Y371933D01*
X411660Y345933D02*
X429660D01*
X411660D02*
Y358933D01*
X429660D01*
Y345933D02*
Y358933D01*
X411660Y376933D02*
X429660D01*
X411660D02*
Y389933D01*
X429660D01*
Y376933D02*
Y389933D01*
X415660Y345933D02*
X425660D01*
Y340933D02*
Y345933D01*
X415660Y340933D02*
X425660D01*
X415660D02*
Y345933D01*
X357160Y360433D02*
X362160D01*
Y370433D01*
X357160D02*
X362160D01*
X357160Y360433D02*
Y370433D01*
X282160Y327433D02*
X292160D01*
X282160D02*
Y332433D01*
X292160D01*
Y327433D02*
Y332433D01*
X302160Y316433D02*
X315160D01*
X302160Y298433D02*
Y316433D01*
Y298433D02*
X315160D01*
Y316433D01*
X277160Y313677D02*
Y323677D01*
X282160D01*
Y313677D02*
Y323677D01*
X277160Y313677D02*
X282160D01*
X356160Y387433D02*
Y405433D01*
X343160Y387433D02*
X356160D01*
X343160D02*
Y405433D01*
X356160D01*
X457660Y331433D02*
X469660D01*
Y324433D02*
Y331433D01*
X457660Y324433D02*
X469660D01*
X457660D02*
Y331433D01*
X283160Y300433D02*
X297160D01*
Y315433D01*
X283160D02*
X297160D01*
X283160Y300433D02*
Y315433D01*
X457660Y379933D02*
X469660D01*
Y372933D02*
Y379933D01*
X457660Y372933D02*
X469660D01*
X457660D02*
Y379933D01*
X415660Y371933D02*
Y376933D01*
Y371933D02*
X425660D01*
Y376933D01*
X415660D02*
X425660D01*
X415660Y402933D02*
Y407933D01*
Y402933D02*
X425660D01*
Y407933D01*
X415660D02*
X425660D01*
X334660Y405433D02*
Y419433D01*
Y405433D02*
X351660D01*
Y419433D01*
X334660D02*
X351660D01*
X320952Y431433D02*
X332369D01*
Y425480D02*
Y431433D01*
X320952Y425480D02*
X332369D01*
X320952D02*
Y431433D01*
X342660Y425933D02*
Y430933D01*
X332660D02*
X342660D01*
X332660Y425933D02*
Y430933D01*
Y425933D02*
X342660D01*
X376160Y357433D02*
Y362433D01*
X366160D02*
X376160D01*
X366160Y357433D02*
Y362433D01*
Y357433D02*
X376160D01*
X359660Y370433D02*
Y399433D01*
X388660D01*
Y370433D02*
Y399433D01*
X359660Y370433D02*
X388660D01*
X373160Y407433D02*
Y417433D01*
X368160Y407433D02*
X373160D01*
X368160D02*
Y417433D01*
X373160D01*
X361660Y407433D02*
Y417433D01*
X356660Y407433D02*
X361660D01*
X356660D02*
Y417433D01*
X361660D01*
X325735Y317933D02*
Y331933D01*
X303735D02*
X325735D01*
X303735Y317933D02*
Y331933D01*
Y317933D02*
X325735D01*
X277160Y302075D02*
Y313492D01*
X283113D01*
Y302075D02*
Y313492D01*
X277160Y302075D02*
X283113D01*
X271160D02*
Y313492D01*
X265207Y302075D02*
X271160D01*
X265207D02*
Y313492D01*
X271160D01*
X392160Y406724D02*
Y418142D01*
X386207Y406724D02*
X392160D01*
X386207D02*
Y418142D01*
X392160D01*
X290660Y318433D02*
Y323433D01*
Y318433D02*
X300660D01*
Y323433D01*
X290660D02*
X300660D01*
X247952Y292933D02*
X259369D01*
X247952D02*
Y298886D01*
X259369D01*
Y292933D02*
Y298886D01*
X339735Y314433D02*
Y319433D01*
X329735D02*
X339735D01*
X329735Y314433D02*
Y319433D01*
Y314433D02*
X339735D01*
X317160Y340433D02*
X327160D01*
X317160D02*
Y345433D01*
X327160D01*
Y340433D02*
Y345433D01*
X262160Y332433D02*
Y363433D01*
Y332433D02*
X309160D01*
Y363433D01*
X262160D02*
X309160D01*
X313160Y382224D02*
Y393642D01*
X319113D01*
Y382224D02*
Y393642D01*
X313160Y382224D02*
X319113D01*
X262486Y426710D02*
X275486D01*
Y444710D01*
X262486D02*
X275486D01*
X262486Y426710D02*
Y444710D01*
X257160Y368933D02*
X262160D01*
X257160Y358933D02*
Y368933D01*
Y358933D02*
X262160D01*
Y368933D01*
X309160Y357433D02*
X321160D01*
X309160D02*
Y364433D01*
X321160D01*
Y357433D02*
Y364433D01*
X298160Y377933D02*
X303160D01*
X298160Y367933D02*
Y377933D01*
Y367933D02*
X303160D01*
Y377933D01*
X289660Y367933D02*
Y377933D01*
X284660Y367933D02*
X289660D01*
X284660D02*
Y377933D01*
X289660D01*
X320952Y419433D02*
X332369D01*
X320952D02*
Y425386D01*
X332369D01*
Y419433D02*
Y425386D01*
X275440Y417213D02*
Y445213D01*
Y417213D02*
X309440D01*
Y445213D01*
X275440D02*
X309440D01*
X271160Y302075D02*
X277113D01*
Y313492D01*
X271160D02*
X277113D01*
X271160Y302075D02*
Y313492D01*
X259207D02*
X265160D01*
X259207Y302075D02*
Y313492D01*
Y302075D02*
X265160D01*
Y313492D01*
X253207D02*
X259160D01*
X253207Y302075D02*
Y313492D01*
Y302075D02*
X259160D01*
Y313492D01*
X289660Y377933D02*
X294660D01*
X289660Y367933D02*
Y377933D01*
Y367933D02*
X294660D01*
Y377933D01*
X270660D02*
X275660D01*
X270660Y367933D02*
Y377933D01*
Y367933D02*
X275660D01*
Y377933D01*
X249660Y418433D02*
Y436433D01*
X262660D01*
Y418433D02*
Y436433D01*
X249660Y418433D02*
X262660D01*
X327660Y392433D02*
X337660D01*
Y387433D02*
Y392433D01*
X327660Y387433D02*
X337660D01*
X327660D02*
Y392433D01*
X306160Y364433D02*
Y377433D01*
Y364433D02*
X324160D01*
Y377433D01*
X306160D02*
X324160D01*
X429660Y407933D02*
Y420933D01*
X411660D02*
X429660D01*
X411660Y407933D02*
Y420933D01*
Y407933D02*
X429660D01*
Y420933D02*
Y433933D01*
X411660D02*
X429660D01*
X411660Y420933D02*
Y433933D01*
Y420933D02*
X429660D01*
X358160Y357433D02*
X371160D01*
X358160Y339433D02*
Y357433D01*
Y339433D02*
X371160D01*
Y357433D01*
Y339433D02*
X384160D01*
Y357433D01*
X371160D02*
X384160D01*
X371160Y339433D02*
Y357433D01*
X429660Y389933D02*
Y402933D01*
X411660D02*
X429660D01*
X411660Y389933D02*
Y402933D01*
Y389933D02*
X429660D01*
X464660Y424933D02*
X471660D01*
X464660Y412933D02*
Y424933D01*
Y412933D02*
X471660D01*
Y424933D01*
X366369Y327933D02*
Y333886D01*
X354952D02*
X366369D01*
X354952Y327933D02*
Y333886D01*
Y327933D02*
X366369D01*
Y313933D02*
Y319886D01*
X354952D02*
X366369D01*
X354952Y313933D02*
Y319886D01*
Y313933D02*
X366369D01*
Y320933D02*
Y326886D01*
X354952D02*
X366369D01*
X354952Y320933D02*
Y326886D01*
Y320933D02*
X366369D01*
X272952Y453980D02*
Y459933D01*
Y453980D02*
X284369D01*
Y459933D01*
X272952D02*
X284369D01*
X259869Y441933D02*
Y447886D01*
X248451D02*
X259869D01*
X248451Y441933D02*
Y447886D01*
Y441933D02*
X259869D01*
X351369Y320933D02*
Y326886D01*
X339951D02*
X351369D01*
X339951Y320933D02*
Y326886D01*
Y320933D02*
X351369D01*
Y313933D02*
Y319886D01*
X339951D02*
X351369D01*
X339951Y313933D02*
Y319886D01*
Y313933D02*
X351369D01*
Y327933D02*
Y333886D01*
X339951D02*
X351369D01*
X339951Y327933D02*
Y333886D01*
Y327933D02*
X351369D01*
X380207Y418142D02*
X386160D01*
X380207Y406724D02*
Y418142D01*
Y406724D02*
X386160D01*
Y418142D01*
X387452Y313980D02*
Y319933D01*
Y313980D02*
X398869D01*
Y319933D01*
X387452D02*
X398869D01*
X259869Y447933D02*
Y453886D01*
X248451D02*
X259869D01*
X248451Y447933D02*
Y453886D01*
Y447933D02*
X259869D01*
X362160Y406724D02*
X368113D01*
Y418142D01*
X362160D02*
X368113D01*
X362160Y406724D02*
Y418142D01*
X356869Y419433D02*
Y425386D01*
X345451D02*
X356869D01*
X345451Y419433D02*
Y425386D01*
Y419433D02*
X356869D01*
X345451Y425480D02*
Y431433D01*
Y425480D02*
X356869D01*
Y431433D01*
X345451D02*
X356869D01*
X248160Y453933D02*
Y459933D01*
Y453933D02*
X260160D01*
Y459933D01*
X248160D02*
X260160D01*
X260660Y453933D02*
Y459933D01*
Y453933D02*
X272660D01*
Y459933D01*
X260660D02*
X272660D01*
X250160Y338933D02*
X260160D01*
Y333933D02*
Y338933D01*
X250160Y333933D02*
X260160D01*
X250160D02*
Y338933D01*
X317160Y345933D02*
X327160D01*
X317160D02*
Y350933D01*
X327160D01*
Y345933D02*
Y350933D01*
X250160Y333933D02*
X260160D01*
Y328933D02*
Y333933D01*
X250160Y328933D02*
X260160D01*
X250160D02*
Y333933D01*
X327660Y387433D02*
X337660D01*
Y382433D02*
Y387433D01*
X327660Y382433D02*
X337660D01*
X327660D02*
Y387433D01*
X329735Y328433D02*
X339735D01*
X329735D02*
Y333433D01*
X339735D01*
Y328433D02*
Y333433D01*
X329735Y321433D02*
X339735D01*
X329735D02*
Y326433D01*
X339735D01*
Y321433D02*
Y326433D01*
X380160Y407433D02*
Y417433D01*
X375160Y407433D02*
X380160D01*
X375160D02*
Y417433D01*
X380160D01*
X357060Y425933D02*
X367060D01*
X357060D02*
Y430933D01*
X367060D01*
Y425933D02*
Y430933D01*
X253660Y313795D02*
X258660D01*
Y323795D01*
X253660D02*
X258660D01*
X253660Y313795D02*
Y323795D01*
X265660Y313795D02*
X270660D01*
Y323795D01*
X265660D02*
X270660D01*
X265660Y313795D02*
Y323795D01*
D180*
X741072Y488433D02*
X813072D01*
Y431433D02*
Y488433D01*
X741072Y431433D02*
X813072D01*
X741072D02*
Y488433D01*
D181*
X258160Y394933D02*
X274160D01*
X258160D02*
Y414933D01*
X274160D01*
Y394933D02*
Y414933D01*
M02*
