M48
;Layer_Color=9474304
;FILE_FORMAT=2:5
INCH,LZ
;TYPE=PLATED
T1F00S00C0.01000
T2F00S00C0.01200
T3F00S00C0.01400
T4F00S00C0.01600
T5F00S00C0.02362
T6F00S00C0.04000
T7F00S00C0.04331
T8F00S00C0.04400
T9F00S00C0.07100
T10F00S00C0.12598
%
T01
X003937Y0041653
X0044185Y0072362
X0042185Y009557
X0023185Y0088362
Y0078862
X0058685Y0084046
X0061285
X0063885
X0086595Y0129762
X0090532
X0094469
X0086594Y0157623
X0083507Y0157716
X0017906Y0127165
X0097606Y0125965
X0098406Y0129762
X010283Y0139945
X010543
X010803
X011063
X011323
X0116184Y0139862
X0119185Y0140862
X0122057Y0147
X0114764Y0153493
Y0157823
Y0162154
Y0166485
X0110433
Y0162154
Y0157823
Y0153493
X0106102
Y0157823
Y0162154
Y0166485
X0101772
Y0162154
Y0157823
Y0153493
X0125894Y0159823
X0127198Y0162649
X0127062Y0165631
X0128762Y0170131
X0134394Y0169323
X0136894Y0165323
X0134394Y0159323
X0136794Y0137523
X0127805Y0098065
Y0094965
X0124106
X0120224Y0094862
X0114184Y0094977
X0106685Y0095362
X0174685Y0092362
Y0082362
X0195185Y0076862
X0199884Y0147262
X0200184Y0157062
X0175084Y0156662
X0174584Y0166262
Y0175062
X0161084Y0179262
X0174994Y0196623
X0174794Y0206623
X0178299Y0227607
X0199559Y0217764
X0199185Y0197262
Y0187262
X0198994Y0177323
X0192794Y0179523
X0129662Y0178931
X0130885Y0176062
X0128862Y0174331
X0132984Y0174362
X0114764Y0175146
Y0179477
Y0183808
X0110433
Y0179477
Y0175146
Y0170815
X0114764
X0106102
Y0175146
Y0179477
Y0183808
X0101772
Y0179477
Y0175146
Y0170815
X0107385Y0192362
X0106603Y0194962
X0104208Y0197462
X0105085Y0200062
X0117285Y0199562
X0119185Y0197469
X0121784Y0196562
X0115194Y0193823
X0133024Y0211071
X0131449Y0215402
X0130684Y0219362
X013173Y0231362
X0133356Y0235862
X0136185
X0135787Y027374
X0149173
X0162559
X0121614
X0112559
X0099173
X0099664Y0315074
X0112559Y0314921
X0121614
X0135787
X0149173
X0162559
X0141684Y0294862
X0123805Y0295366
X0123185Y0291862
X0091294Y0295223
X0079155Y0292284
X0073805Y0295366
X0068268Y0318661
X0085787Y0314921
X0085787Y027374
X0064528Y0274134
X0035894Y0247323
X0017494Y0247923
Y0237923
Y0227923
X0023185Y0218362
Y0208862
X0035894Y0208623
Y0198523
X0052794Y0200323
X0052903Y0203323
X0052794Y0206123
X0043716Y0212676
X0045554Y0214514
X0072394Y0211832
X0075485Y0211923
X0078894Y0211832
X0079106Y0186646
Y0184046
X0079185Y0179762
X0080894Y0176323
X0083494Y0175376
X0085685Y0176862
X0088732Y017668
X0089754Y0179279
X0092185Y0186862
X0066805Y0191965
X0005694Y0300423
T02
X0111368Y0006296
X0140905Y0007165
X0170905
X0085905
X0055905
X0047108Y0058411
X0038493Y0057992
X0035894
X0033296
Y0066654
X0035894
X0038493
X0013949Y0067992
X001135
X0008752
Y0076653
X001135
X0013949
X0004123Y0077464
Y0062464
Y0047464
X0019123
X0079123
X0081063Y0069304
X008117Y0075197
X008803Y0081328
X0087854Y0088809
X0088676Y0106262
X0084739
X0067716Y0106535
X0057087Y0089606
X0049123Y0122464
X0082623Y0125398
X0082658Y0129728
X0070906Y0147165
X0079234Y0163423
X0076378Y0167559
X0004123Y0167464
Y0152464
Y0137464
Y0122464
Y0107464
Y0092464
X0101437Y0088809
X0101162Y0083858
X0101555Y0079527
X0114634
X0114241Y0083858
X0114319Y0088809
X0127508
X0127429Y0083858
X0127823Y0079527
X0141012
X0140619Y0083858
X0140697Y0088809
X0153886
X0153807Y0083858
X0154201Y0079527
X0151622Y0065564
X0154123Y0062464
X0148031Y005063
X0139123Y0047464
X0123268Y0051882
X0124123Y0062464
X0098976Y0065564
X0109123Y0047464
X0103543Y0098661
X0099205Y0106565
X0099705Y0122365
X0113386Y0125039
X0114567Y0109685
X0140945Y0108504
X0142105Y0120265
X0152585Y0124162
X0150803Y0138189
Y0144095
Y0155906
X0150803Y0161811
Y0167717
X0192913Y0167559
Y0157323
X0212412Y0152464
Y0137464
Y0122464
Y0107464
Y0092464
Y0077464
Y0062464
X0207784Y0066654
X0205185
X0202587
Y0057992
X0205185
X0207784
X0212412Y0047464
X018324Y0067992
X0180641
X0178043
Y0076653
X0180641
X018324
X0170268Y0112996
X0212412Y0167464
Y0182464
Y0197464
Y0212464
Y0227464
Y0242464
Y0257464
X0211417Y0271024
Y0273622
X0212412Y0287464
X0184123
X0169123
Y0302464
X016Y029937
X0146614Y029937
X0133228
X013505Y0292277
X0117905Y0291565
X0113543Y0292284
X011374Y030311
X0114331Y0309803
X0121976Y0302723
Y0261542
X011374Y0261629
X0114331Y0268622
X0113543Y0251102
X0120236
X013505Y0251096
X0133228Y0258189
X0146614
X0148819Y0242756
X0139123Y0227464
X0164394Y0223323
X0169123Y0227464
Y0212464
X0150803Y020315
Y0197244
X0150803Y0191339
Y0185433
X0150803Y0179527
Y0173622
X0121394Y0204189
X0115849
X0109705Y0195665
X0105146Y0210553
Y0216852
X0109123Y0227464
Y0242464
X0101494Y0238423
X0121794Y0214123
X016374Y0261929
X0169123Y0257464
X0174409Y0271024
Y0273622
X0184123Y0302464
Y0317464
X0169123
X0096614Y029937
X0083228
X008505Y0292277
X0070039Y0291299
X0072763Y0302723
X0063543Y0299764
X0064331Y0309803
X0049123Y0302464
Y0287464
X0055465Y0275639
X0064331Y0268622
X0071976Y0261542
X0070491Y0251102
X0063798
X0064123Y0242464
Y0227464
X0049123
Y0242464
X0047984Y0252016
X0043654
X0052315
X0034123Y0257464
X0033296Y0267992
X0035894
X0038493
Y0276654
X0035894
X0033296
X0026331
X0022185Y0283862
X0019123Y0287464
X0020866Y0292283
Y0295433
Y0298583
Y0301732
X0034123Y0317464
X0049123
X0004123Y0287464
Y0272464
X0008752Y0276654
X001135
X0013949
Y0267992
X001135
X0008752
X0004123Y0257464
Y0242464
Y0227464
Y0212464
Y0197464
Y0182464
X0023622Y0180945
X0024016Y0173464
X0047638Y0177795
X004252Y0186457
X0056693Y0198268
X0062992Y0193543
X0071105Y0186646
X0069006Y0184046
X006811Y0208504
X0057874Y0213228
X0085895Y0213161
X0087402Y0219921
X0094488Y021874
X0094123Y0227464
X0095394Y0233323
X0094123Y0242464
X008505Y0251096
X0083228Y0258189
X0096614
X0087008Y0228189
X0085894Y0199123
X0085824Y0194237
X0095063Y0189389
X0091462Y0171031
X0079595Y0204241
X0019123Y0257464
T03
X009633Y014421
X0092368Y015605
X0123622Y014974
X0118599Y0143862
X0124316Y0164123
X0112285Y0193562
X0092268Y0174134
T04
X0039764Y0031811
X003937Y0036535
X0048085Y0024862
X0053919Y0058954
X0123068Y0037496
X0095894Y0213423
T05
X0205185Y0267019
X0042677Y0262323
T06
X001135Y0056366
X0068268Y0031496
X0078268
X0088268
X0055905Y0157165
Y0167165
X0160641Y0127323
Y0117323
Y0107323
X0158268Y0031496
X0168268
X0178268
X0187008Y0051575
X0148268Y0031496
X0138268
X0128268
X0118268
X0098268
X0103268Y0284409
X0113268
X0123268
X0133268
X0143268
X0153268
Y0325591
X0143268
X0133268
X0123268
X0113268
X0103268
X0093268
X0083268
X0073268
X0063268
Y0284409
X0073268
X0083268
X0093268
T07
X0008568Y0034446
X0200787Y0044134
X0200787Y0293976
X0039792Y0325591
T08
X001865Y0062323
X002865
Y0072323
Y0082323
Y0092323
Y0102323
Y0112323
Y0122323
Y0132323
Y0142323
Y0152323
Y0162323
X001865
Y0152323
Y0142323
Y0132323
Y0122323
Y0112323
Y0102323
Y0092323
Y0082323
Y0072323
X0187941
X0197941
Y0082323
Y0092323
Y0102323
Y0112323
Y0122323
Y0132323
Y0142323
Y0152323
Y0162323
X0187941
Y0152323
Y0142323
Y0132323
Y0122323
Y0112323
Y0102323
Y0092323
Y0082323
Y0062323
X0197941
Y0172323
Y0182323
Y0192323
Y0202323
Y0212323
Y0222323
Y0232323
Y0242323
Y0252323
Y0262323
Y0272323
X0187941
Y0262323
Y0252323
Y0242323
Y0232323
Y0222323
Y0212323
Y0202323
Y0192323
Y0182323
Y0172323
X002865
Y0182323
Y0192323
Y0202323
Y0212323
Y0222323
Y0232323
Y0242323
Y0252323
Y0262323
Y0272323
X001865
Y0262323
Y0252323
Y0242323
Y0232323
Y0222323
Y0212323
Y0202323
Y0192323
Y0182323
Y0172323
T09
X002365Y0067323
X0192941
Y0267323
X002365
T10
X0015748Y0015748
X0200787
Y0318898
X0015748
M30
