G04*
G04 #@! TF.GenerationSoftware,Altium Limited,Altium Designer,21.0.8 (223)*
G04*
G04 Layer_Color=16711935*
%FSLAX25Y25*%
%MOIN*%
G70*
G04*
G04 #@! TF.SameCoordinates,4FC8230A-67FA-47FE-B716-792534C6144D*
G04*
G04*
G04 #@! TF.FilePolarity,Positive*
G04*
G01*
G75*
%ADD10C,0.00787*%
%ADD14C,0.00394*%
D10*
X63043Y155657D02*
Y175343D01*
X30957Y155657D02*
X63043D01*
X30957D02*
Y175343D01*
X63043D01*
X144075Y50850D02*
Y57150D01*
X140925D02*
X144075D01*
X140925Y50850D02*
Y57150D01*
Y50850D02*
X144075D01*
X138075D02*
Y57150D01*
X134925D02*
X138075D01*
X134925Y50850D02*
Y57150D01*
Y50850D02*
X138075D01*
X132068Y50913D02*
Y57213D01*
X128918D02*
X132068D01*
X128918Y50913D02*
Y57213D01*
Y50913D02*
X132068D01*
X1657Y32457D02*
Y64543D01*
Y32457D02*
X21342D01*
Y64543D01*
X1657D02*
X21342D01*
X62957Y1657D02*
X95043D01*
X62957D02*
Y21342D01*
X95043D01*
Y1657D02*
Y21342D01*
X62957Y1657D02*
Y21342D01*
X95043D01*
Y1657D02*
Y21342D01*
X62957Y1657D02*
X95043D01*
X20843Y81661D02*
Y139339D01*
X1158Y81661D02*
X20843D01*
X1158D02*
Y139339D01*
X20843D01*
X1158Y81661D02*
X20843D01*
X1158D02*
Y139339D01*
X20843D01*
Y81661D02*
Y139339D01*
X130142Y8642D02*
Y26358D01*
X147858D01*
Y8642D02*
Y26358D01*
X130142Y8642D02*
X147858D01*
X110079Y51701D02*
Y64299D01*
X119921D01*
Y51701D02*
Y64299D01*
X110079Y51701D02*
X119921D01*
X166685Y88315D02*
Y127685D01*
X127315D02*
X166685D01*
X127315Y88315D02*
Y127685D01*
Y88315D02*
X166685D01*
X17221Y33736D02*
Y63264D01*
X-2465Y33736D02*
X17221D01*
X-2465D02*
Y63264D01*
X17221D01*
X0Y26000D02*
Y71000D01*
X-4827Y60705D02*
X-2465D01*
X-4827Y36295D02*
Y60705D01*
Y36295D02*
X-2465D01*
X-4827Y64248D02*
X-2465Y63264D01*
X-4827D02*
Y64248D01*
Y63264D02*
X-2465Y62279D01*
X-4827Y32752D02*
X-2465Y33736D01*
X-4827Y32752D02*
Y33736D01*
X-2465Y34721D01*
X105823Y24630D02*
X121177D01*
Y3370D02*
Y24630D01*
X105823Y3370D02*
X121177D01*
X105823D02*
Y24630D01*
D14*
X140827Y68551D02*
X144173D01*
X140827Y62449D02*
Y68551D01*
Y62449D02*
X144173D01*
Y68551D01*
X134827D02*
X138173D01*
X134827Y62449D02*
Y68551D01*
Y62449D02*
X138173D01*
Y68551D01*
X128827D02*
X132173D01*
X128827Y62449D02*
Y68551D01*
Y62449D02*
X132173D01*
Y68551D01*
X98716Y44315D02*
X100685Y46284D01*
Y44315D02*
Y83685D01*
X61315D02*
X100685D01*
X61315Y44315D02*
Y83685D01*
Y44315D02*
X100685D01*
X68350Y138850D02*
X74650D01*
Y145150D01*
X68350D02*
X74650D01*
X68350Y138850D02*
Y145150D01*
X144063Y141461D02*
X151937D01*
Y136539D02*
Y141461D01*
X144063Y136539D02*
X151937D01*
X144063D02*
Y141461D01*
X140937Y76539D02*
Y81461D01*
X133063D02*
X140937D01*
X133063Y76539D02*
Y81461D01*
Y76539D02*
X140937D01*
X82205Y118665D02*
X91260Y109610D01*
X82205D02*
X107795D01*
Y123390D01*
X82205D02*
X107795D01*
X82205Y109610D02*
Y123390D01*
X110579Y113201D02*
X120421D01*
Y125799D01*
X110579D02*
X120421D01*
X110579Y113201D02*
Y125799D01*
X68579Y120299D02*
X78421D01*
X68579Y107701D02*
Y120299D01*
Y107701D02*
X78421D01*
Y120299D01*
X109988Y105390D02*
X121012D01*
X109988Y91610D02*
Y105390D01*
Y91610D02*
X121012D01*
Y105390D01*
X156201Y46079D02*
Y55921D01*
Y46079D02*
X168799D01*
Y55921D01*
X156201D02*
X168799D01*
X156201Y58579D02*
Y68421D01*
Y58579D02*
X168799D01*
Y68421D01*
X156201D02*
X168799D01*
X156201Y71079D02*
Y80921D01*
Y71079D02*
X168799D01*
Y80921D01*
X156201D02*
X168799D01*
X30000Y8307D02*
Y21693D01*
Y8307D02*
X55000D01*
X30000Y21693D02*
X55000D01*
X138551Y40827D02*
Y44173D01*
X132449D02*
X138551D01*
X132449Y40827D02*
Y44173D01*
Y40827D02*
X138551D01*
X36244Y40303D02*
X47756D01*
Y46697D01*
X36244D02*
X47756D01*
X36244Y40303D02*
Y46697D01*
X50425Y40850D02*
Y47150D01*
X53575D01*
Y40850D02*
Y47150D01*
X50425Y40850D02*
X53575D01*
X48949Y140827D02*
X55051D01*
X48949D02*
Y144173D01*
X55051D01*
Y140827D02*
Y144173D01*
X31925Y113850D02*
X35075D01*
Y120150D01*
X31925D02*
X35075D01*
X31925Y113850D02*
Y120150D01*
X44650Y140925D02*
Y144075D01*
X38350D02*
X44650D01*
X38350Y140925D02*
Y144075D01*
Y140925D02*
X44650D01*
X37354Y117323D02*
Y132677D01*
X56646D01*
Y117323D02*
Y132677D01*
X37354Y117323D02*
X56646D01*
X37354Y122323D02*
X42354Y117323D01*
X31449Y63673D02*
X37551D01*
Y60327D02*
Y63673D01*
X31449Y60327D02*
X37551D01*
X31449D02*
Y63673D01*
Y57673D02*
X37551D01*
Y54327D02*
Y57673D01*
X31449Y54327D02*
X37551D01*
X31449D02*
Y57673D01*
X70063Y92039D02*
Y96961D01*
Y92039D02*
X77937D01*
Y96961D01*
X70063D02*
X77937D01*
X50425Y89650D02*
X53575D01*
X50425Y83350D02*
Y89650D01*
Y83350D02*
X53575D01*
Y89650D01*
X109425Y84150D02*
X112575D01*
X109425Y77850D02*
Y84150D01*
Y77850D02*
X112575D01*
Y84150D01*
X99150Y32925D02*
Y36075D01*
X92850D02*
X99150D01*
X92850Y32925D02*
Y36075D01*
Y32925D02*
X99150D01*
X132350Y35425D02*
Y38575D01*
Y35425D02*
X138650D01*
Y38575D01*
X132350D02*
X138650D01*
X111850Y48575D02*
X118150D01*
Y45425D02*
Y48575D01*
X111850Y45425D02*
X118150D01*
X111850D02*
Y48575D01*
Y67425D02*
X118150D01*
X111850D02*
Y70575D01*
X118150D01*
Y67425D02*
Y70575D01*
X12555Y77059D02*
X19445D01*
Y71941D02*
Y77059D01*
X12555Y71941D02*
X19445D01*
X12555D02*
Y77059D01*
Y74992D02*
X14622Y77059D01*
X57850Y92925D02*
Y96075D01*
Y92925D02*
X64150D01*
Y96075D01*
X57850D02*
X64150D01*
X110449Y28327D02*
X116551Y28327D01*
X110449Y31673D02*
X110449Y28327D01*
X110449Y31673D02*
X116551Y31673D01*
X116551Y28327D01*
X110449Y34327D02*
X116551D01*
X110449D02*
Y37673D01*
X116551D01*
Y34327D02*
Y37673D01*
M02*
