G04*
G04 #@! TF.GenerationSoftware,Altium Limited,Altium Designer,21.0.8 (223)*
G04*
G04 Layer_Physical_Order=3*
G04 Layer_Color=16440176*
%FSLAX25Y25*%
%MOIN*%
G70*
G04*
G04 #@! TF.SameCoordinates,4FC8230A-67FA-47FE-B716-792534C6144D*
G04*
G04*
G04 #@! TF.FilePolarity,Positive*
G04*
G01*
G75*
%ADD97C,0.06500*%
%ADD100C,0.02362*%
%ADD107C,0.03347*%
G36*
X159799Y175060D02*
X158698Y174702D01*
X156986Y173830D01*
X155431Y172700D01*
X154072Y171341D01*
X152942Y169786D01*
X152069Y168073D01*
X151476Y166245D01*
X151175Y164347D01*
Y162425D01*
X151476Y160526D01*
X152069Y158698D01*
X152942Y156986D01*
X154072Y155431D01*
X155431Y154072D01*
X156986Y152942D01*
X158698Y152069D01*
X160526Y151476D01*
X162425Y151175D01*
X164347D01*
X166245Y151476D01*
X168073Y152069D01*
X169786Y152942D01*
X171341Y154072D01*
X172700Y155431D01*
X173830Y156986D01*
X174702Y158698D01*
X175060Y159799D01*
X175560Y159720D01*
Y87500D01*
X100500D01*
Y112500D01*
X109949D01*
X109949Y128467D01*
X110449Y128674D01*
X110548Y128575D01*
X111166Y128319D01*
X111834D01*
X112452Y128575D01*
X112925Y129048D01*
X113181Y129666D01*
Y130334D01*
X112925Y130952D01*
X112452Y131425D01*
X111834Y131681D01*
X111166D01*
X110548Y131425D01*
X110449Y131326D01*
X109949Y131533D01*
Y139000D01*
X64613Y139000D01*
X64425Y139452D01*
X63952Y139925D01*
X63334Y140181D01*
X62666D01*
X62492Y140109D01*
X62109Y140492D01*
X62181Y140666D01*
Y141334D01*
X61925Y141952D01*
X61452Y142425D01*
X60834Y142681D01*
X60166D01*
X59548Y142425D01*
X59075Y141952D01*
X58819Y141334D01*
Y140666D01*
X59075Y140048D01*
X59548Y139575D01*
X59728Y139500D01*
X59629Y139000D01*
X24000Y139000D01*
Y138172D01*
X23500Y137744D01*
X23159D01*
X22541Y137488D01*
X22068Y137015D01*
X21812Y136397D01*
Y135729D01*
X22068Y135111D01*
X22541Y134638D01*
X23159Y134382D01*
X23827D01*
X24000Y134266D01*
Y124484D01*
X23658D01*
X23040Y124228D01*
X22567Y123755D01*
X22311Y123137D01*
Y122469D01*
X22567Y121851D01*
X23040Y121378D01*
X23658Y121122D01*
X24000D01*
Y119563D01*
X23658D01*
X23040Y119307D01*
X22567Y118834D01*
X22311Y118216D01*
Y117548D01*
X22567Y116930D01*
X23040Y116457D01*
X23658Y116201D01*
X24000D01*
Y114642D01*
X23658D01*
X23040Y114386D01*
X22567Y113913D01*
X22311Y113295D01*
Y112626D01*
X22567Y112008D01*
X23040Y111536D01*
X23658Y111279D01*
X24000D01*
Y109721D01*
X23658D01*
X23040Y109465D01*
X22567Y108992D01*
X22311Y108374D01*
Y107705D01*
X22567Y107087D01*
X23040Y106614D01*
X23658Y106358D01*
X24000D01*
Y105299D01*
X23677Y104799D01*
X23658D01*
X23040Y104543D01*
X22567Y104070D01*
X22311Y103453D01*
Y102784D01*
X22567Y102166D01*
X23040Y101693D01*
X23658Y101437D01*
X24000D01*
Y99878D01*
X23658D01*
X23040Y99622D01*
X22567Y99149D01*
X22311Y98531D01*
Y97862D01*
X22567Y97245D01*
X23040Y96772D01*
X23658Y96516D01*
X24000D01*
Y94957D01*
X23658D01*
X23040Y94701D01*
X22567Y94228D01*
X22311Y93610D01*
Y92941D01*
X22567Y92323D01*
X23040Y91850D01*
X23658Y91594D01*
X24000D01*
Y75111D01*
Y68173D01*
X23500Y67744D01*
X23159D01*
X22541Y67488D01*
X22068Y67015D01*
X21812Y66397D01*
Y65728D01*
X22068Y65111D01*
X22541Y64638D01*
X23159Y64382D01*
X23827D01*
X24000Y64267D01*
X24000Y38173D01*
X23500Y37744D01*
X23159D01*
X22541Y37488D01*
X22068Y37015D01*
X21812Y36397D01*
Y35729D01*
X22068Y35111D01*
X22541Y34638D01*
X23159Y34382D01*
X23827D01*
X24000Y34266D01*
Y29000D01*
X1606Y29000D01*
Y74920D01*
X1931Y75054D01*
X2106Y75073D01*
X2541Y74638D01*
X3159Y74382D01*
X3827D01*
X4445Y74638D01*
X4918Y75111D01*
X5174Y75728D01*
Y76397D01*
X4918Y77015D01*
X4445Y77488D01*
X3827Y77744D01*
X3159D01*
X2541Y77488D01*
X2106Y77053D01*
X1931Y77072D01*
X1606Y77206D01*
Y84920D01*
X1931Y85054D01*
X2106Y85073D01*
X2541Y84638D01*
X3159Y84382D01*
X3827D01*
X4445Y84638D01*
X4918Y85111D01*
X5174Y85729D01*
Y86397D01*
X4918Y87015D01*
X4445Y87488D01*
X3827Y87744D01*
X3159D01*
X2541Y87488D01*
X2106Y87053D01*
X1931Y87072D01*
X1606Y87206D01*
Y94920D01*
X1931Y95054D01*
X2106Y95073D01*
X2541Y94638D01*
X3159Y94382D01*
X3827D01*
X4445Y94638D01*
X4918Y95111D01*
X5174Y95728D01*
Y96397D01*
X4918Y97015D01*
X4445Y97488D01*
X3827Y97744D01*
X3159D01*
X2541Y97488D01*
X2106Y97053D01*
X1931Y97072D01*
X1606Y97206D01*
Y104920D01*
X1931Y105054D01*
X2106Y105073D01*
X2541Y104638D01*
X3159Y104382D01*
X3827D01*
X4445Y104638D01*
X4918Y105111D01*
X5174Y105728D01*
Y106397D01*
X4918Y107015D01*
X4445Y107488D01*
X3827Y107744D01*
X3159D01*
X2541Y107488D01*
X2106Y107053D01*
X1931Y107072D01*
X1606Y107206D01*
Y114920D01*
X1931Y115054D01*
X2106Y115073D01*
X2541Y114638D01*
X3159Y114382D01*
X3827D01*
X4445Y114638D01*
X4918Y115111D01*
X5174Y115728D01*
Y116397D01*
X4918Y117015D01*
X4445Y117488D01*
X3827Y117744D01*
X3159D01*
X2541Y117488D01*
X2106Y117053D01*
X1931Y117072D01*
X1606Y117206D01*
Y124920D01*
X1931Y125054D01*
X2106Y125073D01*
X2541Y124638D01*
X3159Y124382D01*
X3827D01*
X4445Y124638D01*
X4918Y125111D01*
X5174Y125728D01*
Y126397D01*
X4918Y127015D01*
X4445Y127488D01*
X3827Y127744D01*
X3159D01*
X2541Y127488D01*
X2106Y127053D01*
X1931Y127072D01*
X1606Y127206D01*
Y134920D01*
X1931Y135054D01*
X2106Y135073D01*
X2541Y134638D01*
X3159Y134382D01*
X3827D01*
X4445Y134638D01*
X4918Y135111D01*
X5174Y135729D01*
Y136397D01*
X4918Y137015D01*
X4445Y137488D01*
X3827Y137744D01*
X3159D01*
X2541Y137488D01*
X2106Y137053D01*
X1931Y137072D01*
X1606Y137206D01*
Y144920D01*
X1931Y145054D01*
X2106Y145073D01*
X2541Y144638D01*
X3159Y144382D01*
X3827D01*
X4445Y144638D01*
X4918Y145111D01*
X5174Y145729D01*
Y146397D01*
X4918Y147015D01*
X4445Y147488D01*
X3827Y147744D01*
X3159D01*
X2541Y147488D01*
X2106Y147053D01*
X1931Y147072D01*
X1606Y147206D01*
Y159720D01*
X2106Y159799D01*
X2463Y158698D01*
X3336Y156986D01*
X4465Y155431D01*
X5825Y154072D01*
X7380Y152942D01*
X9092Y152069D01*
X10920Y151476D01*
X12819Y151175D01*
X14741D01*
X16639Y151476D01*
X18467Y152069D01*
X20179Y152942D01*
X21734Y154072D01*
X23094Y155431D01*
X24223Y156986D01*
X25096Y158698D01*
X25690Y160526D01*
X25991Y162425D01*
Y164347D01*
X25690Y166245D01*
X25096Y168073D01*
X24223Y169786D01*
X23094Y171341D01*
X21734Y172700D01*
X20179Y173830D01*
X18467Y174702D01*
X17367Y175060D01*
X17446Y175560D01*
X70850D01*
Y168350D01*
X78150D01*
Y175560D01*
X82366D01*
X82500Y175060D01*
X82259Y174921D01*
X81579Y174241D01*
X81099Y173409D01*
X80850Y172480D01*
Y171519D01*
X81099Y170591D01*
X81579Y169759D01*
X82259Y169079D01*
X83091Y168599D01*
X84020Y168350D01*
X84980D01*
X85909Y168599D01*
X86741Y169079D01*
X87421Y169759D01*
X87901Y170591D01*
X88150Y171519D01*
Y172480D01*
X87901Y173409D01*
X87421Y174241D01*
X86741Y174921D01*
X86500Y175060D01*
X86634Y175560D01*
X92366D01*
X92500Y175060D01*
X92259Y174921D01*
X91579Y174241D01*
X91099Y173409D01*
X90850Y172480D01*
Y171519D01*
X91099Y170591D01*
X91579Y169759D01*
X92259Y169079D01*
X93091Y168599D01*
X94020Y168350D01*
X94981D01*
X95909Y168599D01*
X96741Y169079D01*
X97421Y169759D01*
X97901Y170591D01*
X98150Y171519D01*
Y172480D01*
X97901Y173409D01*
X97421Y174241D01*
X96741Y174921D01*
X96500Y175060D01*
X96634Y175560D01*
X102366D01*
X102500Y175060D01*
X102259Y174921D01*
X101579Y174241D01*
X101099Y173409D01*
X100850Y172480D01*
Y171519D01*
X101099Y170591D01*
X101579Y169759D01*
X102259Y169079D01*
X103091Y168599D01*
X104019Y168350D01*
X104981D01*
X105909Y168599D01*
X106741Y169079D01*
X107421Y169759D01*
X107901Y170591D01*
X108150Y171519D01*
Y172480D01*
X107901Y173409D01*
X107421Y174241D01*
X106741Y174921D01*
X106500Y175060D01*
X106634Y175560D01*
X112366D01*
X112500Y175060D01*
X112259Y174921D01*
X111579Y174241D01*
X111099Y173409D01*
X110850Y172480D01*
Y171519D01*
X111099Y170591D01*
X111579Y169759D01*
X112259Y169079D01*
X113091Y168599D01*
X114020Y168350D01*
X114980D01*
X115909Y168599D01*
X116741Y169079D01*
X117421Y169759D01*
X117901Y170591D01*
X118150Y171519D01*
Y172480D01*
X117901Y173409D01*
X117421Y174241D01*
X116741Y174921D01*
X116500Y175060D01*
X116634Y175560D01*
X122366D01*
X122500Y175060D01*
X122259Y174921D01*
X121579Y174241D01*
X121099Y173409D01*
X120850Y172480D01*
Y171519D01*
X121099Y170591D01*
X121579Y169759D01*
X122259Y169079D01*
X123091Y168599D01*
X124020Y168350D01*
X124980D01*
X125909Y168599D01*
X126741Y169079D01*
X127421Y169759D01*
X127901Y170591D01*
X128150Y171519D01*
Y172480D01*
X127901Y173409D01*
X127421Y174241D01*
X126741Y174921D01*
X126500Y175060D01*
X126634Y175560D01*
X132366D01*
X132500Y175060D01*
X132259Y174921D01*
X131579Y174241D01*
X131099Y173409D01*
X130850Y172480D01*
Y171519D01*
X131099Y170591D01*
X131579Y169759D01*
X132259Y169079D01*
X133091Y168599D01*
X134019Y168350D01*
X134980D01*
X135909Y168599D01*
X136741Y169079D01*
X137421Y169759D01*
X137901Y170591D01*
X138150Y171519D01*
Y172480D01*
X137901Y173409D01*
X137421Y174241D01*
X136741Y174921D01*
X136500Y175060D01*
X136634Y175560D01*
X159720D01*
X159799Y175060D01*
D02*
G37*
G36*
X31846Y137500D02*
X32068Y137015D01*
X31812Y136397D01*
Y135729D01*
X32068Y135111D01*
X32541Y134638D01*
X33159Y134382D01*
X33827D01*
X34445Y134638D01*
X34918Y135111D01*
X35174Y135729D01*
Y136397D01*
X34918Y137015D01*
X35140Y137500D01*
X61623D01*
X62048Y137075D01*
X62666Y136819D01*
X63334D01*
X63952Y137075D01*
X64377Y137500D01*
X108500Y137500D01*
Y114000D01*
X99000Y114000D01*
X99000Y86000D01*
X175560Y86000D01*
Y17446D01*
X175060Y17367D01*
X174702Y18467D01*
X173830Y20179D01*
X172700Y21734D01*
X171341Y23094D01*
X169786Y24223D01*
X168073Y25096D01*
X166245Y25690D01*
X164347Y25991D01*
X162425D01*
X160526Y25690D01*
X158698Y25096D01*
X156986Y24223D01*
X155431Y23094D01*
X154072Y21734D01*
X152942Y20179D01*
X152069Y18467D01*
X151476Y16639D01*
X151175Y14741D01*
Y12819D01*
X151476Y10920D01*
X152069Y9092D01*
X152942Y7380D01*
X154072Y5825D01*
X155431Y4465D01*
X156986Y3336D01*
X158698Y2463D01*
X159799Y2106D01*
X159720Y1606D01*
X17446D01*
X17367Y2106D01*
X18467Y2463D01*
X20179Y3336D01*
X21734Y4465D01*
X23094Y5825D01*
X24223Y7380D01*
X25096Y9092D01*
X25690Y10920D01*
X25991Y12819D01*
Y14741D01*
X25690Y16639D01*
X25096Y18467D01*
X24223Y20179D01*
X23094Y21734D01*
X21734Y23094D01*
X20179Y24223D01*
X18467Y25096D01*
X16639Y25690D01*
X14741Y25991D01*
X12819D01*
X10920Y25690D01*
X9092Y25096D01*
X7380Y24223D01*
X5825Y23094D01*
X4465Y21734D01*
X3336Y20179D01*
X2463Y18467D01*
X2106Y17367D01*
X1606Y17446D01*
Y24920D01*
X1931Y25054D01*
X2106Y25073D01*
X2541Y24638D01*
X3159Y24382D01*
X3827D01*
X4445Y24638D01*
X4918Y25111D01*
X5174Y25729D01*
Y26397D01*
X4918Y27015D01*
X5140Y27500D01*
X21846Y27500D01*
X22068Y27015D01*
X21812Y26397D01*
Y25729D01*
X22068Y25111D01*
X22541Y24638D01*
X23159Y24382D01*
X23827D01*
X24445Y24638D01*
X24918Y25111D01*
X25174Y25729D01*
Y26397D01*
X24918Y27015D01*
X25140Y27500D01*
X25500D01*
Y39415D01*
X26000Y39623D01*
X26048Y39575D01*
X26666Y39319D01*
X27334D01*
X27952Y39575D01*
X28425Y40048D01*
X28681Y40666D01*
Y41334D01*
X28425Y41952D01*
X27952Y42425D01*
X27334Y42681D01*
X26666D01*
X26048Y42425D01*
X26000Y42377D01*
X25500Y42584D01*
X25500Y74575D01*
X25500Y92523D01*
X25673Y92941D01*
Y93610D01*
X25500Y94028D01*
Y97444D01*
X25673Y97862D01*
Y98531D01*
X25500Y98949D01*
Y102366D01*
X25673Y102784D01*
Y103453D01*
X25500Y103871D01*
Y107287D01*
X25673Y107705D01*
Y108374D01*
X25500Y108792D01*
Y112208D01*
X25673Y112626D01*
Y113295D01*
X25500Y113713D01*
Y117129D01*
X25673Y117548D01*
Y118216D01*
X25500Y118634D01*
X25500Y122050D01*
X25673Y122469D01*
Y123137D01*
X25500Y123556D01*
Y137500D01*
X31846D01*
D02*
G37*
%LPC*%
G36*
X143827Y167744D02*
X143159D01*
X142541Y167488D01*
X142068Y167015D01*
X141812Y166397D01*
Y165728D01*
X142068Y165111D01*
X142541Y164638D01*
X143159Y164382D01*
X143827D01*
X144445Y164638D01*
X144918Y165111D01*
X145174Y165728D01*
Y166397D01*
X144918Y167015D01*
X144445Y167488D01*
X143827Y167744D01*
D02*
G37*
G36*
X53827D02*
X53159D01*
X52541Y167488D01*
X52068Y167015D01*
X51812Y166397D01*
Y165728D01*
X52068Y165111D01*
X52541Y164638D01*
X53159Y164382D01*
X53827D01*
X54445Y164638D01*
X54918Y165111D01*
X55174Y165728D01*
Y166397D01*
X54918Y167015D01*
X54445Y167488D01*
X53827Y167744D01*
D02*
G37*
G36*
X135000Y165748D02*
Y162500D01*
X138248D01*
X137994Y163447D01*
X137501Y164303D01*
X136802Y165001D01*
X135948Y165494D01*
X135000Y165748D01*
D02*
G37*
G36*
X134000D02*
X133053Y165494D01*
X132197Y165001D01*
X131499Y164303D01*
X131006Y163447D01*
X130752Y162500D01*
X134000D01*
Y165748D01*
D02*
G37*
G36*
X125000D02*
Y162500D01*
X128248D01*
X127994Y163447D01*
X127501Y164303D01*
X126803Y165001D01*
X125947Y165494D01*
X125000Y165748D01*
D02*
G37*
G36*
X124000D02*
X123053Y165494D01*
X122197Y165001D01*
X121499Y164303D01*
X121006Y163447D01*
X120752Y162500D01*
X124000D01*
Y165748D01*
D02*
G37*
G36*
X115000D02*
Y162500D01*
X118248D01*
X117994Y163447D01*
X117501Y164303D01*
X116803Y165001D01*
X115947Y165494D01*
X115000Y165748D01*
D02*
G37*
G36*
X114000D02*
X113052Y165494D01*
X112197Y165001D01*
X111499Y164303D01*
X111006Y163447D01*
X110752Y162500D01*
X114000D01*
Y165748D01*
D02*
G37*
G36*
X105000D02*
Y162500D01*
X108248D01*
X107994Y163447D01*
X107501Y164303D01*
X106802Y165001D01*
X105947Y165494D01*
X105000Y165748D01*
D02*
G37*
G36*
X104000D02*
X103052Y165494D01*
X102198Y165001D01*
X101499Y164303D01*
X101006Y163447D01*
X100752Y162500D01*
X104000D01*
Y165748D01*
D02*
G37*
G36*
X95000D02*
Y162500D01*
X98248D01*
X97994Y163447D01*
X97501Y164303D01*
X96803Y165001D01*
X95947Y165494D01*
X95000Y165748D01*
D02*
G37*
G36*
X94000D02*
X93053Y165494D01*
X92198Y165001D01*
X91499Y164303D01*
X91006Y163447D01*
X90752Y162500D01*
X94000D01*
Y165748D01*
D02*
G37*
G36*
X85000D02*
Y162500D01*
X88248D01*
X87994Y163447D01*
X87501Y164303D01*
X86803Y165001D01*
X85948Y165494D01*
X85000Y165748D01*
D02*
G37*
G36*
X84000D02*
X83052Y165494D01*
X82197Y165001D01*
X81499Y164303D01*
X81006Y163447D01*
X80752Y162500D01*
X84000D01*
Y165748D01*
D02*
G37*
G36*
X75000D02*
Y162500D01*
X78248D01*
X77994Y163447D01*
X77501Y164303D01*
X76802Y165001D01*
X75947Y165494D01*
X75000Y165748D01*
D02*
G37*
G36*
X74000D02*
X73053Y165494D01*
X72198Y165001D01*
X71499Y164303D01*
X71006Y163447D01*
X70752Y162500D01*
X74000D01*
Y165748D01*
D02*
G37*
G36*
X30334Y161681D02*
X29666D01*
X29048Y161425D01*
X28575Y160952D01*
X28319Y160334D01*
Y159666D01*
X28575Y159048D01*
X29048Y158575D01*
X29666Y158319D01*
X30334D01*
X30952Y158575D01*
X31425Y159048D01*
X31681Y159666D01*
Y160334D01*
X31425Y160952D01*
X30952Y161425D01*
X30334Y161681D01*
D02*
G37*
G36*
X138248Y161500D02*
X135000D01*
Y158252D01*
X135948Y158506D01*
X136802Y158999D01*
X137501Y159697D01*
X137994Y160553D01*
X138248Y161500D01*
D02*
G37*
G36*
X134000D02*
X130752D01*
X131006Y160553D01*
X131499Y159697D01*
X132197Y158999D01*
X133053Y158506D01*
X134000Y158252D01*
Y161500D01*
D02*
G37*
G36*
X128248D02*
X125000D01*
Y158252D01*
X125947Y158506D01*
X126803Y158999D01*
X127501Y159697D01*
X127994Y160553D01*
X128248Y161500D01*
D02*
G37*
G36*
X124000D02*
X120752D01*
X121006Y160553D01*
X121499Y159697D01*
X122197Y158999D01*
X123053Y158506D01*
X124000Y158252D01*
Y161500D01*
D02*
G37*
G36*
X118248D02*
X115000D01*
Y158252D01*
X115947Y158506D01*
X116803Y158999D01*
X117501Y159697D01*
X117994Y160553D01*
X118248Y161500D01*
D02*
G37*
G36*
X114000D02*
X110752D01*
X111006Y160553D01*
X111499Y159697D01*
X112197Y158999D01*
X113052Y158506D01*
X114000Y158252D01*
Y161500D01*
D02*
G37*
G36*
X108248D02*
X105000D01*
Y158252D01*
X105947Y158506D01*
X106802Y158999D01*
X107501Y159697D01*
X107994Y160553D01*
X108248Y161500D01*
D02*
G37*
G36*
X104000D02*
X100752D01*
X101006Y160553D01*
X101499Y159697D01*
X102198Y158999D01*
X103052Y158506D01*
X104000Y158252D01*
Y161500D01*
D02*
G37*
G36*
X98248D02*
X95000D01*
Y158252D01*
X95947Y158506D01*
X96803Y158999D01*
X97501Y159697D01*
X97994Y160553D01*
X98248Y161500D01*
D02*
G37*
G36*
X94000D02*
X90752D01*
X91006Y160553D01*
X91499Y159697D01*
X92198Y158999D01*
X93053Y158506D01*
X94000Y158252D01*
Y161500D01*
D02*
G37*
G36*
X88248D02*
X85000D01*
Y158252D01*
X85948Y158506D01*
X86803Y158999D01*
X87501Y159697D01*
X87994Y160553D01*
X88248Y161500D01*
D02*
G37*
G36*
X84000D02*
X80752D01*
X81006Y160553D01*
X81499Y159697D01*
X82197Y158999D01*
X83052Y158506D01*
X84000Y158252D01*
Y161500D01*
D02*
G37*
G36*
X78248D02*
X75000D01*
Y158252D01*
X75947Y158506D01*
X76802Y158999D01*
X77501Y159697D01*
X77994Y160553D01*
X78248Y161500D01*
D02*
G37*
G36*
X74000D02*
X70752D01*
X71006Y160553D01*
X71499Y159697D01*
X72198Y158999D01*
X73053Y158506D01*
X74000Y158252D01*
Y161500D01*
D02*
G37*
G36*
X143827Y157744D02*
X143159D01*
X142541Y157488D01*
X142068Y157015D01*
X141812Y156397D01*
Y155728D01*
X142068Y155111D01*
X142541Y154638D01*
X143159Y154382D01*
X143827D01*
X144445Y154638D01*
X144918Y155111D01*
X145174Y155728D01*
Y156397D01*
X144918Y157015D01*
X144445Y157488D01*
X143827Y157744D01*
D02*
G37*
G36*
X63827D02*
X63159D01*
X62541Y157488D01*
X62068Y157015D01*
X61812Y156397D01*
Y155728D01*
X62068Y155111D01*
X62541Y154638D01*
X63159Y154382D01*
X63827D01*
X64445Y154638D01*
X64918Y155111D01*
X65174Y155728D01*
Y156397D01*
X64918Y157015D01*
X64445Y157488D01*
X63827Y157744D01*
D02*
G37*
G36*
X134980Y155650D02*
X134019D01*
X133091Y155401D01*
X132259Y154921D01*
X131579Y154241D01*
X131099Y153409D01*
X130850Y152480D01*
Y151520D01*
X131099Y150591D01*
X131579Y149759D01*
X132259Y149079D01*
X133091Y148599D01*
X134019Y148350D01*
X134980D01*
X135909Y148599D01*
X136741Y149079D01*
X137421Y149759D01*
X137901Y150591D01*
X138150Y151520D01*
Y152480D01*
X137901Y153409D01*
X137421Y154241D01*
X136741Y154921D01*
X135909Y155401D01*
X134980Y155650D01*
D02*
G37*
G36*
X124980D02*
X124020D01*
X123091Y155401D01*
X122259Y154921D01*
X121579Y154241D01*
X121099Y153409D01*
X120850Y152480D01*
Y151520D01*
X121099Y150591D01*
X121579Y149759D01*
X122259Y149079D01*
X123091Y148599D01*
X124020Y148350D01*
X124980D01*
X125909Y148599D01*
X126741Y149079D01*
X127421Y149759D01*
X127901Y150591D01*
X128150Y151520D01*
Y152480D01*
X127901Y153409D01*
X127421Y154241D01*
X126741Y154921D01*
X125909Y155401D01*
X124980Y155650D01*
D02*
G37*
G36*
X114980D02*
X114020D01*
X113091Y155401D01*
X112259Y154921D01*
X111579Y154241D01*
X111099Y153409D01*
X110850Y152480D01*
Y151520D01*
X111099Y150591D01*
X111579Y149759D01*
X112259Y149079D01*
X113091Y148599D01*
X114020Y148350D01*
X114980D01*
X115909Y148599D01*
X116741Y149079D01*
X117421Y149759D01*
X117901Y150591D01*
X118150Y151520D01*
Y152480D01*
X117901Y153409D01*
X117421Y154241D01*
X116741Y154921D01*
X115909Y155401D01*
X114980Y155650D01*
D02*
G37*
G36*
X104981D02*
X104019D01*
X103091Y155401D01*
X102259Y154921D01*
X101579Y154241D01*
X101099Y153409D01*
X100850Y152480D01*
Y151520D01*
X101099Y150591D01*
X101579Y149759D01*
X102259Y149079D01*
X103091Y148599D01*
X104019Y148350D01*
X104981D01*
X105909Y148599D01*
X106741Y149079D01*
X107421Y149759D01*
X107901Y150591D01*
X108150Y151520D01*
Y152480D01*
X107901Y153409D01*
X107421Y154241D01*
X106741Y154921D01*
X105909Y155401D01*
X104981Y155650D01*
D02*
G37*
G36*
X94981D02*
X94020D01*
X93091Y155401D01*
X92259Y154921D01*
X91579Y154241D01*
X91099Y153409D01*
X90850Y152480D01*
Y151520D01*
X91099Y150591D01*
X91579Y149759D01*
X92259Y149079D01*
X93091Y148599D01*
X94020Y148350D01*
X94981D01*
X95909Y148599D01*
X96741Y149079D01*
X97421Y149759D01*
X97901Y150591D01*
X98150Y151520D01*
Y152480D01*
X97901Y153409D01*
X97421Y154241D01*
X96741Y154921D01*
X95909Y155401D01*
X94981Y155650D01*
D02*
G37*
G36*
X84980D02*
X84020D01*
X83091Y155401D01*
X82259Y154921D01*
X81579Y154241D01*
X81099Y153409D01*
X80850Y152480D01*
Y151520D01*
X81099Y150591D01*
X81579Y149759D01*
X82259Y149079D01*
X83091Y148599D01*
X84020Y148350D01*
X84980D01*
X85909Y148599D01*
X86741Y149079D01*
X87421Y149759D01*
X87901Y150591D01*
X88150Y151520D01*
Y152480D01*
X87901Y153409D01*
X87421Y154241D01*
X86741Y154921D01*
X85909Y155401D01*
X84980Y155650D01*
D02*
G37*
G36*
X74980D02*
X74019D01*
X73091Y155401D01*
X72259Y154921D01*
X71579Y154241D01*
X71099Y153409D01*
X70850Y152480D01*
Y151520D01*
X71099Y150591D01*
X71579Y149759D01*
X72259Y149079D01*
X73091Y148599D01*
X74019Y148350D01*
X74980D01*
X75909Y148599D01*
X76741Y149079D01*
X77421Y149759D01*
X77901Y150591D01*
X78150Y151520D01*
Y152480D01*
X77901Y153409D01*
X77421Y154241D01*
X76741Y154921D01*
X75909Y155401D01*
X74980Y155650D01*
D02*
G37*
G36*
X54834Y150181D02*
X54166D01*
X53548Y149925D01*
X53075Y149452D01*
X52819Y148834D01*
Y148166D01*
X53075Y147548D01*
X53548Y147075D01*
X54166Y146819D01*
X54834D01*
X55452Y147075D01*
X55925Y147548D01*
X56181Y148166D01*
Y148834D01*
X55925Y149452D01*
X55452Y149925D01*
X54834Y150181D01*
D02*
G37*
G36*
X49834D02*
X49166D01*
X48548Y149925D01*
X48075Y149452D01*
X47819Y148834D01*
Y148166D01*
X48075Y147548D01*
X48548Y147075D01*
X49166Y146819D01*
X49834D01*
X50452Y147075D01*
X50925Y147548D01*
X51181Y148166D01*
Y148834D01*
X50925Y149452D01*
X50452Y149925D01*
X49834Y150181D01*
D02*
G37*
G36*
X44834D02*
X44166D01*
X43548Y149925D01*
X43075Y149452D01*
X42819Y148834D01*
Y148166D01*
X43075Y147548D01*
X43548Y147075D01*
X44166Y146819D01*
X44834D01*
X45452Y147075D01*
X45925Y147548D01*
X46181Y148166D01*
Y148834D01*
X45925Y149452D01*
X45452Y149925D01*
X44834Y150181D01*
D02*
G37*
G36*
X39834D02*
X39166D01*
X38548Y149925D01*
X38075Y149452D01*
X37819Y148834D01*
Y148166D01*
X38075Y147548D01*
X38548Y147075D01*
X39166Y146819D01*
X39834D01*
X40452Y147075D01*
X40925Y147548D01*
X41181Y148166D01*
Y148834D01*
X40925Y149452D01*
X40452Y149925D01*
X39834Y150181D01*
D02*
G37*
G36*
X69834Y149681D02*
X69166D01*
X68548Y149425D01*
X68075Y148952D01*
X67819Y148334D01*
Y147666D01*
X68075Y147048D01*
X68548Y146575D01*
X69166Y146319D01*
X69834D01*
X70452Y146575D01*
X70925Y147048D01*
X71181Y147666D01*
Y148334D01*
X70925Y148952D01*
X70452Y149425D01*
X69834Y149681D01*
D02*
G37*
G36*
X143827Y147744D02*
X143159D01*
X142541Y147488D01*
X142068Y147015D01*
X141812Y146397D01*
Y145729D01*
X142068Y145111D01*
X142541Y144638D01*
X143159Y144382D01*
X143827D01*
X144445Y144638D01*
X144918Y145111D01*
X145174Y145729D01*
Y146397D01*
X144918Y147015D01*
X144445Y147488D01*
X143827Y147744D01*
D02*
G37*
G36*
X33827D02*
X33159D01*
X32541Y147488D01*
X32068Y147015D01*
X31812Y146397D01*
Y145729D01*
X32068Y145111D01*
X32541Y144638D01*
X33159Y144382D01*
X33827D01*
X34445Y144638D01*
X34918Y145111D01*
X35174Y145729D01*
Y146397D01*
X34918Y147015D01*
X34445Y147488D01*
X33827Y147744D01*
D02*
G37*
G36*
X23827D02*
X23159D01*
X22541Y147488D01*
X22068Y147015D01*
X21812Y146397D01*
Y145729D01*
X22068Y145111D01*
X22541Y144638D01*
X23159Y144382D01*
X23827D01*
X24445Y144638D01*
X24918Y145111D01*
X25174Y145729D01*
Y146397D01*
X24918Y147015D01*
X24445Y147488D01*
X23827Y147744D01*
D02*
G37*
G36*
X13827D02*
X13159D01*
X12541Y147488D01*
X12068Y147015D01*
X11812Y146397D01*
Y145729D01*
X12068Y145111D01*
X12541Y144638D01*
X13159Y144382D01*
X13827D01*
X14445Y144638D01*
X14918Y145111D01*
X15174Y145729D01*
Y146397D01*
X14918Y147015D01*
X14445Y147488D01*
X13827Y147744D01*
D02*
G37*
G36*
X172432Y135173D02*
X171568D01*
X170769Y134842D01*
X170158Y134231D01*
X169827Y133432D01*
Y132568D01*
X170158Y131769D01*
X170769Y131158D01*
X171568Y130827D01*
X172432D01*
X173231Y131158D01*
X173842Y131769D01*
X174173Y132568D01*
Y133432D01*
X173842Y134231D01*
X173231Y134842D01*
X172432Y135173D01*
D02*
G37*
G36*
X157432D02*
X156568D01*
X155769Y134842D01*
X155158Y134231D01*
X154827Y133432D01*
Y132568D01*
X155158Y131769D01*
X155769Y131158D01*
X156568Y130827D01*
X157432D01*
X158231Y131158D01*
X158842Y131769D01*
X159173Y132568D01*
Y133432D01*
X158842Y134231D01*
X158231Y134842D01*
X157432Y135173D01*
D02*
G37*
G36*
X151932D02*
X151068D01*
X150269Y134842D01*
X149658Y134231D01*
X149327Y133432D01*
Y132568D01*
X149658Y131769D01*
X150269Y131158D01*
X151068Y130827D01*
X151932D01*
X152731Y131158D01*
X153342Y131769D01*
X153673Y132568D01*
Y133432D01*
X153342Y134231D01*
X152731Y134842D01*
X151932Y135173D01*
D02*
G37*
G36*
X119834Y131681D02*
X119166D01*
X118548Y131425D01*
X118075Y130952D01*
X117819Y130334D01*
Y129666D01*
X118075Y129048D01*
X118548Y128575D01*
X119166Y128319D01*
X119834D01*
X120452Y128575D01*
X120925Y129048D01*
X121181Y129666D01*
Y130334D01*
X120925Y130952D01*
X120452Y131425D01*
X119834Y131681D01*
D02*
G37*
G36*
X115834D02*
X115166D01*
X114548Y131425D01*
X114075Y130952D01*
X113819Y130334D01*
Y129666D01*
X114075Y129048D01*
X114548Y128575D01*
X115166Y128319D01*
X115834D01*
X116452Y128575D01*
X116925Y129048D01*
X117181Y129666D01*
Y130334D01*
X116925Y130952D01*
X116452Y131425D01*
X115834Y131681D01*
D02*
G37*
G36*
X172432Y129673D02*
X171568D01*
X170769Y129342D01*
X170158Y128731D01*
X169827Y127932D01*
Y127068D01*
X170158Y126269D01*
X170769Y125658D01*
X171568Y125327D01*
X172432D01*
X173231Y125658D01*
X173842Y126269D01*
X174173Y127068D01*
Y127932D01*
X173842Y128731D01*
X173231Y129342D01*
X172432Y129673D01*
D02*
G37*
G36*
Y124173D02*
X171568D01*
X170769Y123842D01*
X170158Y123231D01*
X169827Y122432D01*
Y121568D01*
X170158Y120769D01*
X170769Y120158D01*
X171568Y119827D01*
X172432D01*
X173231Y120158D01*
X173842Y120769D01*
X174173Y121568D01*
Y122432D01*
X173842Y123231D01*
X173231Y123842D01*
X172432Y124173D01*
D02*
G37*
G36*
X153827Y117744D02*
X153159D01*
X152541Y117488D01*
X152068Y117015D01*
X151812Y116397D01*
Y115728D01*
X152068Y115111D01*
X152541Y114638D01*
X153159Y114382D01*
X153827D01*
X154445Y114638D01*
X154918Y115111D01*
X155174Y115728D01*
Y116397D01*
X154918Y117015D01*
X154445Y117488D01*
X153827Y117744D01*
D02*
G37*
G36*
X143827D02*
X143159D01*
X142541Y117488D01*
X142068Y117015D01*
X141812Y116397D01*
Y115728D01*
X142068Y115111D01*
X142541Y114638D01*
X143159Y114382D01*
X143827D01*
X144445Y114638D01*
X144918Y115111D01*
X145174Y115728D01*
Y116397D01*
X144918Y117015D01*
X144445Y117488D01*
X143827Y117744D01*
D02*
G37*
G36*
X13827D02*
X13159D01*
X12541Y117488D01*
X12068Y117015D01*
X11812Y116397D01*
Y115728D01*
X12068Y115111D01*
X12541Y114638D01*
X13159Y114382D01*
X13827D01*
X14445Y114638D01*
X14918Y115111D01*
X15174Y115728D01*
Y116397D01*
X14918Y117015D01*
X14445Y117488D01*
X13827Y117744D01*
D02*
G37*
G36*
X155334Y112181D02*
X154666D01*
X154048Y111925D01*
X153575Y111452D01*
X153319Y110834D01*
Y110166D01*
X153575Y109548D01*
X154048Y109075D01*
X154666Y108819D01*
X155334D01*
X155952Y109075D01*
X156425Y109548D01*
X156681Y110166D01*
Y110834D01*
X156425Y111452D01*
X155952Y111925D01*
X155334Y112181D01*
D02*
G37*
G36*
X151334D02*
X150666D01*
X150048Y111925D01*
X149575Y111452D01*
X149319Y110834D01*
Y110166D01*
X149575Y109548D01*
X150048Y109075D01*
X150666Y108819D01*
X151334D01*
X151952Y109075D01*
X152425Y109548D01*
X152681Y110166D01*
Y110834D01*
X152425Y111452D01*
X151952Y111925D01*
X151334Y112181D01*
D02*
G37*
G36*
X147334D02*
X146666D01*
X146048Y111925D01*
X145575Y111452D01*
X145319Y110834D01*
Y110166D01*
X145575Y109548D01*
X146048Y109075D01*
X146666Y108819D01*
X147334D01*
X147952Y109075D01*
X148425Y109548D01*
X148681Y110166D01*
Y110834D01*
X148425Y111452D01*
X147952Y111925D01*
X147334Y112181D01*
D02*
G37*
G36*
X143334D02*
X142666D01*
X142048Y111925D01*
X141575Y111452D01*
X141319Y110834D01*
Y110166D01*
X141575Y109548D01*
X142048Y109075D01*
X142666Y108819D01*
X143334D01*
X143952Y109075D01*
X144425Y109548D01*
X144681Y110166D01*
Y110834D01*
X144425Y111452D01*
X143952Y111925D01*
X143334Y112181D01*
D02*
G37*
G36*
X139334D02*
X138666D01*
X138048Y111925D01*
X137575Y111452D01*
X137319Y110834D01*
Y110166D01*
X137575Y109548D01*
X138048Y109075D01*
X138666Y108819D01*
X139334D01*
X139952Y109075D01*
X140425Y109548D01*
X140681Y110166D01*
Y110834D01*
X140425Y111452D01*
X139952Y111925D01*
X139334Y112181D01*
D02*
G37*
G36*
X13827Y107744D02*
X13159D01*
X12541Y107488D01*
X12068Y107015D01*
X11812Y106397D01*
Y105728D01*
X12068Y105111D01*
X12541Y104638D01*
X13159Y104382D01*
X13827D01*
X14445Y104638D01*
X14918Y105111D01*
X15174Y105728D01*
Y106397D01*
X14918Y107015D01*
X14445Y107488D01*
X13827Y107744D01*
D02*
G37*
G36*
X155334Y107181D02*
X154666D01*
X154048Y106925D01*
X153575Y106452D01*
X153319Y105834D01*
Y105166D01*
X153575Y104548D01*
X154048Y104075D01*
X154666Y103819D01*
X155334D01*
X155952Y104075D01*
X156425Y104548D01*
X156681Y105166D01*
Y105834D01*
X156425Y106452D01*
X155952Y106925D01*
X155334Y107181D01*
D02*
G37*
G36*
X151334D02*
X150666D01*
X150048Y106925D01*
X149575Y106452D01*
X149319Y105834D01*
Y105166D01*
X149575Y104548D01*
X150048Y104075D01*
X150666Y103819D01*
X151334D01*
X151952Y104075D01*
X152425Y104548D01*
X152681Y105166D01*
Y105834D01*
X152425Y106452D01*
X151952Y106925D01*
X151334Y107181D01*
D02*
G37*
G36*
X147334D02*
X146666D01*
X146048Y106925D01*
X145575Y106452D01*
X145319Y105834D01*
Y105166D01*
X145575Y104548D01*
X146048Y104075D01*
X146666Y103819D01*
X147334D01*
X147952Y104075D01*
X148425Y104548D01*
X148681Y105166D01*
Y105834D01*
X148425Y106452D01*
X147952Y106925D01*
X147334Y107181D01*
D02*
G37*
G36*
X143334D02*
X142666D01*
X142048Y106925D01*
X141575Y106452D01*
X141319Y105834D01*
Y105166D01*
X141575Y104548D01*
X142048Y104075D01*
X142666Y103819D01*
X143334D01*
X143952Y104075D01*
X144425Y104548D01*
X144681Y105166D01*
Y105834D01*
X144425Y106452D01*
X143952Y106925D01*
X143334Y107181D01*
D02*
G37*
G36*
X139334D02*
X138666D01*
X138048Y106925D01*
X137575Y106452D01*
X137319Y105834D01*
Y105166D01*
X137575Y104548D01*
X138048Y104075D01*
X138666Y103819D01*
X139334D01*
X139952Y104075D01*
X140425Y104548D01*
X140681Y105166D01*
Y105834D01*
X140425Y106452D01*
X139952Y106925D01*
X139334Y107181D01*
D02*
G37*
G36*
X18748Y94957D02*
X18079D01*
X17461Y94701D01*
X16988Y94228D01*
X16732Y93610D01*
Y92941D01*
X16988Y92323D01*
X17461Y91850D01*
X18079Y91594D01*
X18748D01*
X19366Y91850D01*
X19839Y92323D01*
X20095Y92941D01*
Y93610D01*
X19839Y94228D01*
X19366Y94701D01*
X18748Y94957D01*
D02*
G37*
G36*
X108834Y99181D02*
X108166D01*
X107548Y98925D01*
X107075Y98452D01*
X106819Y97834D01*
Y97166D01*
X107075Y96548D01*
X107548Y96075D01*
X107679Y96021D01*
Y95479D01*
X107548Y95425D01*
X107075Y94952D01*
X106819Y94334D01*
Y93666D01*
X107075Y93048D01*
X107548Y92575D01*
X107679Y92521D01*
Y91979D01*
X107548Y91925D01*
X107075Y91452D01*
X106819Y90834D01*
Y90166D01*
X107075Y89548D01*
X107548Y89075D01*
X108166Y88819D01*
X108834D01*
X109452Y89075D01*
X109925Y89548D01*
X110181Y90166D01*
Y90834D01*
X109925Y91452D01*
X109452Y91925D01*
X109321Y91979D01*
Y92521D01*
X109452Y92575D01*
X109925Y93048D01*
X110181Y93666D01*
Y94334D01*
X109925Y94952D01*
X109452Y95425D01*
X109321Y95479D01*
Y96021D01*
X109452Y96075D01*
X109925Y96548D01*
X110181Y97166D01*
Y97834D01*
X109925Y98452D01*
X109452Y98925D01*
X108834Y99181D01*
D02*
G37*
G36*
X13827Y57744D02*
X13159D01*
X12541Y57488D01*
X12068Y57015D01*
X11812Y56397D01*
Y55729D01*
X12068Y55111D01*
X12541Y54638D01*
X13159Y54382D01*
X13827D01*
X14445Y54638D01*
X14918Y55111D01*
X15174Y55729D01*
Y56397D01*
X14918Y57015D01*
X14445Y57488D01*
X13827Y57744D01*
D02*
G37*
G36*
X53827Y127744D02*
X53159D01*
X52541Y127488D01*
X52068Y127015D01*
X51812Y126397D01*
Y125728D01*
X52068Y125111D01*
X52541Y124638D01*
X53159Y124382D01*
X53827D01*
X54445Y124638D01*
X54918Y125111D01*
X55174Y125728D01*
Y126397D01*
X54918Y127015D01*
X54445Y127488D01*
X53827Y127744D01*
D02*
G37*
G36*
X43827D02*
X43159D01*
X42541Y127488D01*
X42068Y127015D01*
X41812Y126397D01*
Y125728D01*
X42068Y125111D01*
X42541Y124638D01*
X43159Y124382D01*
X43827D01*
X44445Y124638D01*
X44918Y125111D01*
X45174Y125728D01*
Y126397D01*
X44918Y127015D01*
X44445Y127488D01*
X43827Y127744D01*
D02*
G37*
G36*
X33827D02*
X33159D01*
X32541Y127488D01*
X32068Y127015D01*
X31812Y126397D01*
Y125728D01*
X32068Y125111D01*
X32541Y124638D01*
X33159Y124382D01*
X33827D01*
X34445Y124638D01*
X34918Y125111D01*
X35174Y125728D01*
Y126397D01*
X34918Y127015D01*
X34445Y127488D01*
X33827Y127744D01*
D02*
G37*
G36*
X54834Y108681D02*
X54166D01*
X53548Y108425D01*
X53075Y107952D01*
X52819Y107334D01*
Y106666D01*
X53075Y106048D01*
X53548Y105575D01*
X54166Y105319D01*
X54834D01*
X55452Y105575D01*
X55925Y106048D01*
X56181Y106666D01*
Y107334D01*
X55925Y107952D01*
X55452Y108425D01*
X54834Y108681D01*
D02*
G37*
G36*
X44834D02*
X44166D01*
X43548Y108425D01*
X43075Y107952D01*
X42819Y107334D01*
Y106666D01*
X43075Y106048D01*
X43548Y105575D01*
X44166Y105319D01*
X44834D01*
X45452Y105575D01*
X45925Y106048D01*
X46181Y106666D01*
Y107334D01*
X45925Y107952D01*
X45452Y108425D01*
X44834Y108681D01*
D02*
G37*
G36*
X81098Y105839D02*
X80233D01*
X79434Y105508D01*
X78823Y104896D01*
X78492Y104098D01*
Y103233D01*
X78823Y102434D01*
X79434Y101823D01*
X80233Y101492D01*
X81098D01*
X81896Y101823D01*
X82508Y102434D01*
X82839Y103233D01*
Y104098D01*
X82508Y104896D01*
X81896Y105508D01*
X81098Y105839D01*
D02*
G37*
G36*
X76098D02*
X75233D01*
X74434Y105508D01*
X73823Y104896D01*
X73492Y104098D01*
Y103233D01*
X73823Y102434D01*
X74434Y101823D01*
X75233Y101492D01*
X76098D01*
X76896Y101823D01*
X77508Y102434D01*
X77839Y103233D01*
Y104098D01*
X77508Y104896D01*
X76896Y105508D01*
X76098Y105839D01*
D02*
G37*
G36*
X71098D02*
X70233D01*
X69434Y105508D01*
X68823Y104896D01*
X68492Y104098D01*
Y103233D01*
X68823Y102434D01*
X69434Y101823D01*
X70233Y101492D01*
X71098D01*
X71896Y101823D01*
X72508Y102434D01*
X72839Y103233D01*
Y104098D01*
X72508Y104896D01*
X71896Y105508D01*
X71098Y105839D01*
D02*
G37*
G36*
X81834Y96181D02*
X81166D01*
X80548Y95925D01*
X80075Y95452D01*
X79819Y94834D01*
Y94166D01*
X80075Y93548D01*
X80548Y93075D01*
X81166Y92819D01*
X81834D01*
X82452Y93075D01*
X82925Y93548D01*
X83181Y94166D01*
Y94834D01*
X82925Y95452D01*
X82452Y95925D01*
X81834Y96181D01*
D02*
G37*
G36*
X37834Y79681D02*
X37166D01*
X36548Y79425D01*
X36075Y78952D01*
X36021Y78821D01*
X35479D01*
X35425Y78952D01*
X34952Y79425D01*
X34334Y79681D01*
X33666D01*
X33048Y79425D01*
X32575Y78952D01*
X32521Y78821D01*
X31979D01*
X31925Y78952D01*
X31452Y79425D01*
X30834Y79681D01*
X30166D01*
X29548Y79425D01*
X29075Y78952D01*
X28819Y78334D01*
Y77666D01*
X29075Y77048D01*
X29548Y76575D01*
X30166Y76319D01*
X30834D01*
X31452Y76575D01*
X31925Y77048D01*
X31979Y77179D01*
X32521D01*
X32575Y77048D01*
X33048Y76575D01*
X33666Y76319D01*
X34334D01*
X34952Y76575D01*
X35425Y77048D01*
X35479Y77179D01*
X36021D01*
X36075Y77048D01*
X36548Y76575D01*
X37166Y76319D01*
X37834D01*
X38452Y76575D01*
X38925Y77048D01*
X39181Y77666D01*
Y78334D01*
X38925Y78952D01*
X38452Y79425D01*
X37834Y79681D01*
D02*
G37*
G36*
X52334Y81681D02*
X51666D01*
X51048Y81425D01*
X50575Y80952D01*
X50319Y80334D01*
Y79666D01*
X50575Y79048D01*
X51048Y78575D01*
X51666Y78319D01*
X52334D01*
X52952Y78575D01*
X53425Y79048D01*
X53681Y79666D01*
Y80334D01*
X53425Y80952D01*
X52952Y81425D01*
X52334Y81681D01*
D02*
G37*
G36*
X115334Y80681D02*
X114666D01*
X114048Y80425D01*
X113575Y79952D01*
X113319Y79334D01*
Y78666D01*
X113575Y78048D01*
X114048Y77575D01*
X114666Y77319D01*
X115334D01*
X115952Y77575D01*
X116425Y78048D01*
X116681Y78666D01*
Y79334D01*
X116425Y79952D01*
X115952Y80425D01*
X115334Y80681D01*
D02*
G37*
G36*
X129432Y81173D02*
X128568D01*
X127769Y80842D01*
X127158Y80231D01*
X126827Y79432D01*
Y78568D01*
X127158Y77769D01*
X127769Y77158D01*
X128568Y76827D01*
X129432D01*
X130231Y77158D01*
X130842Y77769D01*
X131173Y78568D01*
Y79432D01*
X130842Y80231D01*
X130231Y80842D01*
X129432Y81173D01*
D02*
G37*
G36*
X79834Y82681D02*
X79166D01*
X78548Y82425D01*
X78075Y81952D01*
X77819Y81334D01*
Y80666D01*
X78075Y80048D01*
X78548Y79575D01*
X78679Y79521D01*
Y78979D01*
X78548Y78925D01*
X78075Y78452D01*
X77819Y77834D01*
Y77166D01*
X78075Y76548D01*
X78548Y76075D01*
X79166Y75819D01*
X79834D01*
X80452Y76075D01*
X80925Y76548D01*
X81181Y77166D01*
Y77834D01*
X80925Y78452D01*
X80452Y78925D01*
X80321Y78979D01*
Y79521D01*
X80452Y79575D01*
X80925Y80048D01*
X81181Y80666D01*
Y81334D01*
X80925Y81952D01*
X80452Y82425D01*
X79834Y82681D01*
D02*
G37*
G36*
X97334Y75681D02*
X96666D01*
X96048Y75425D01*
X95575Y74952D01*
X95521Y74821D01*
X94979D01*
X94925Y74952D01*
X94452Y75425D01*
X93834Y75681D01*
X93166D01*
X92548Y75425D01*
X92075Y74952D01*
X92021Y74821D01*
X91479D01*
X91425Y74952D01*
X90952Y75425D01*
X90334Y75681D01*
X89666D01*
X89048Y75425D01*
X88575Y74952D01*
X88521Y74821D01*
X87979D01*
X87925Y74952D01*
X87452Y75425D01*
X86834Y75681D01*
X86166D01*
X85548Y75425D01*
X85075Y74952D01*
X85021Y74821D01*
X84479D01*
X84425Y74952D01*
X83952Y75425D01*
X83334Y75681D01*
X82666D01*
X82048Y75425D01*
X81575Y74952D01*
X81319Y74334D01*
Y73666D01*
X81575Y73048D01*
X82048Y72575D01*
X82666Y72319D01*
X83334D01*
X83952Y72575D01*
X84425Y73048D01*
X84479Y73179D01*
X85021D01*
X85075Y73048D01*
X85548Y72575D01*
X86166Y72319D01*
X86834D01*
X87452Y72575D01*
X87925Y73048D01*
X87979Y73179D01*
X88521D01*
X88575Y73048D01*
X89048Y72575D01*
X89666Y72319D01*
X90334D01*
X90952Y72575D01*
X91425Y73048D01*
X91479Y73179D01*
X92021D01*
X92075Y73048D01*
X92548Y72575D01*
X93166Y72319D01*
X93834D01*
X94452Y72575D01*
X94925Y73048D01*
X94979Y73179D01*
X95521D01*
X95575Y73048D01*
X96048Y72575D01*
X96666Y72319D01*
X97334D01*
X97952Y72575D01*
X98425Y73048D01*
X98681Y73666D01*
Y74334D01*
X98425Y74952D01*
X97952Y75425D01*
X97334Y75681D01*
D02*
G37*
G36*
X124334Y74681D02*
X123666D01*
X123048Y74425D01*
X122575Y73952D01*
X122319Y73334D01*
Y72666D01*
X122575Y72048D01*
X123048Y71575D01*
X123666Y71319D01*
X124334D01*
X124952Y71575D01*
X125425Y72048D01*
X125681Y72666D01*
Y73334D01*
X125425Y73952D01*
X124952Y74425D01*
X124334Y74681D01*
D02*
G37*
G36*
X116834D02*
X116166D01*
X115548Y74425D01*
X115075Y73952D01*
X114819Y73334D01*
Y72666D01*
X115075Y72048D01*
X115548Y71575D01*
X116166Y71319D01*
X116834D01*
X117452Y71575D01*
X117925Y72048D01*
X118181Y72666D01*
Y73334D01*
X117925Y73952D01*
X117452Y74425D01*
X116834Y74681D01*
D02*
G37*
G36*
X109334D02*
X108666D01*
X108048Y74425D01*
X107575Y73952D01*
X107319Y73334D01*
Y72666D01*
X107575Y72048D01*
X108048Y71575D01*
X108666Y71319D01*
X109334D01*
X109952Y71575D01*
X110425Y72048D01*
X110681Y72666D01*
Y73334D01*
X110425Y73952D01*
X109952Y74425D01*
X109334Y74681D01*
D02*
G37*
G36*
X173334Y81181D02*
X172666D01*
X172048Y80925D01*
X171575Y80452D01*
X171319Y79834D01*
Y79166D01*
X171575Y78548D01*
X172048Y78075D01*
X172179Y78021D01*
Y77479D01*
X172048Y77425D01*
X171575Y76952D01*
X171319Y76334D01*
Y75666D01*
X171575Y75048D01*
X172048Y74575D01*
X172179Y74521D01*
Y73979D01*
X172048Y73925D01*
X171575Y73452D01*
X171319Y72834D01*
Y72166D01*
X171575Y71548D01*
X172048Y71075D01*
X172666Y70819D01*
X173334D01*
X173952Y71075D01*
X174425Y71548D01*
X174681Y72166D01*
Y72834D01*
X174425Y73452D01*
X173952Y73925D01*
X173821Y73979D01*
Y74521D01*
X173952Y74575D01*
X174425Y75048D01*
X174681Y75666D01*
Y76334D01*
X174425Y76952D01*
X173952Y77425D01*
X173821Y77479D01*
Y78021D01*
X173952Y78075D01*
X174425Y78548D01*
X174681Y79166D01*
Y79834D01*
X174425Y80452D01*
X173952Y80925D01*
X173334Y81181D01*
D02*
G37*
G36*
X152334D02*
X151666D01*
X151048Y80925D01*
X150575Y80452D01*
X150319Y79834D01*
Y79166D01*
X150575Y78548D01*
X151048Y78075D01*
X151179Y78021D01*
Y77479D01*
X151048Y77425D01*
X150575Y76952D01*
X150319Y76334D01*
Y75666D01*
X150575Y75048D01*
X151048Y74575D01*
X151179Y74521D01*
Y73979D01*
X151048Y73925D01*
X150575Y73452D01*
X150319Y72834D01*
Y72166D01*
X150575Y71548D01*
X151048Y71075D01*
X151666Y70819D01*
X152334D01*
X152952Y71075D01*
X153425Y71548D01*
X153681Y72166D01*
Y72834D01*
X153425Y73452D01*
X152952Y73925D01*
X152821Y73979D01*
Y74521D01*
X152952Y74575D01*
X153425Y75048D01*
X153681Y75666D01*
Y76334D01*
X153425Y76952D01*
X152952Y77425D01*
X152821Y77479D01*
Y78021D01*
X152952Y78075D01*
X153425Y78548D01*
X153681Y79166D01*
Y79834D01*
X153425Y80452D01*
X152952Y80925D01*
X152334Y81181D01*
D02*
G37*
G36*
X142834Y74181D02*
X142166D01*
X141548Y73925D01*
X141075Y73452D01*
X140819Y72834D01*
Y72166D01*
X141075Y71548D01*
X141548Y71075D01*
X142166Y70819D01*
X142834D01*
X143452Y71075D01*
X143925Y71548D01*
X144181Y72166D01*
Y72834D01*
X143925Y73452D01*
X143452Y73925D01*
X142834Y74181D01*
D02*
G37*
G36*
X136834D02*
X136166D01*
X135548Y73925D01*
X135075Y73452D01*
X134819Y72834D01*
Y72166D01*
X135075Y71548D01*
X135548Y71075D01*
X136166Y70819D01*
X136834D01*
X137452Y71075D01*
X137925Y71548D01*
X138181Y72166D01*
Y72834D01*
X137925Y73452D01*
X137452Y73925D01*
X136834Y74181D01*
D02*
G37*
G36*
X130834D02*
X130166D01*
X129548Y73925D01*
X129075Y73452D01*
X128819Y72834D01*
Y72166D01*
X129075Y71548D01*
X129548Y71075D01*
X130166Y70819D01*
X130834D01*
X131452Y71075D01*
X131925Y71548D01*
X132181Y72166D01*
Y72834D01*
X131925Y73452D01*
X131452Y73925D01*
X130834Y74181D01*
D02*
G37*
G36*
X121334Y70681D02*
X120666D01*
X120048Y70425D01*
X119575Y69952D01*
X119319Y69334D01*
Y68666D01*
X119575Y68048D01*
X120048Y67575D01*
X120666Y67319D01*
X121334D01*
X121952Y67575D01*
X122425Y68048D01*
X122681Y68666D01*
Y69334D01*
X122425Y69952D01*
X121952Y70425D01*
X121334Y70681D01*
D02*
G37*
G36*
X63827Y67744D02*
X63159D01*
X62541Y67488D01*
X62068Y67015D01*
X61812Y66397D01*
Y65728D01*
X62068Y65111D01*
X62541Y64638D01*
X63159Y64382D01*
X63827D01*
X64445Y64638D01*
X64918Y65111D01*
X65174Y65728D01*
Y66397D01*
X64918Y67015D01*
X64445Y67488D01*
X63827Y67744D01*
D02*
G37*
G36*
X33827D02*
X33159D01*
X32541Y67488D01*
X32068Y67015D01*
X31812Y66397D01*
Y65728D01*
X32068Y65111D01*
X32541Y64638D01*
X33159Y64382D01*
X33827D01*
X34445Y64638D01*
X34918Y65111D01*
X35174Y65728D01*
Y66397D01*
X34918Y67015D01*
X34445Y67488D01*
X33827Y67744D01*
D02*
G37*
G36*
X124334Y67181D02*
X123666D01*
X123048Y66925D01*
X122575Y66452D01*
X122319Y65834D01*
Y65166D01*
X122575Y64548D01*
X123048Y64075D01*
X123666Y63819D01*
X124334D01*
X124952Y64075D01*
X125425Y64548D01*
X125681Y65166D01*
Y65834D01*
X125425Y66452D01*
X124952Y66925D01*
X124334Y67181D01*
D02*
G37*
G36*
X41834Y63681D02*
X41166D01*
X40548Y63425D01*
X40075Y62952D01*
X39819Y62334D01*
Y61666D01*
X40075Y61048D01*
X40548Y60575D01*
X41166Y60319D01*
X41834D01*
X42452Y60575D01*
X42925Y61048D01*
X43181Y61666D01*
Y62334D01*
X42925Y62952D01*
X42452Y63425D01*
X41834Y63681D01*
D02*
G37*
G36*
X173334Y68681D02*
X172666D01*
X172048Y68425D01*
X171575Y67952D01*
X171319Y67334D01*
Y66666D01*
X171575Y66048D01*
X172048Y65575D01*
X172179Y65521D01*
Y64979D01*
X172048Y64925D01*
X171575Y64452D01*
X171319Y63834D01*
Y63166D01*
X171575Y62548D01*
X172048Y62075D01*
X172179Y62021D01*
Y61479D01*
X172048Y61425D01*
X171575Y60952D01*
X171319Y60334D01*
Y59666D01*
X171575Y59048D01*
X172048Y58575D01*
X172666Y58319D01*
X173334D01*
X173952Y58575D01*
X174425Y59048D01*
X174681Y59666D01*
Y60334D01*
X174425Y60952D01*
X173952Y61425D01*
X173821Y61479D01*
Y62021D01*
X173952Y62075D01*
X174425Y62548D01*
X174681Y63166D01*
Y63834D01*
X174425Y64452D01*
X173952Y64925D01*
X173821Y64979D01*
Y65521D01*
X173952Y65575D01*
X174425Y66048D01*
X174681Y66666D01*
Y67334D01*
X174425Y67952D01*
X173952Y68425D01*
X173334Y68681D01*
D02*
G37*
G36*
X152334D02*
X151666D01*
X151048Y68425D01*
X150575Y67952D01*
X150319Y67334D01*
Y66666D01*
X150575Y66048D01*
X151048Y65575D01*
X151179Y65521D01*
Y64979D01*
X151048Y64925D01*
X150575Y64452D01*
X150319Y63834D01*
Y63166D01*
X150575Y62548D01*
X151048Y62075D01*
X151179Y62021D01*
Y61479D01*
X151048Y61425D01*
X150575Y60952D01*
X150319Y60334D01*
Y59666D01*
X150575Y59048D01*
X151048Y58575D01*
X151666Y58319D01*
X152334D01*
X152952Y58575D01*
X153425Y59048D01*
X153681Y59666D01*
Y60334D01*
X153425Y60952D01*
X152952Y61425D01*
X152821Y61479D01*
Y62021D01*
X152952Y62075D01*
X153425Y62548D01*
X153681Y63166D01*
Y63834D01*
X153425Y64452D01*
X152952Y64925D01*
X152821Y64979D01*
Y65521D01*
X152952Y65575D01*
X153425Y66048D01*
X153681Y66666D01*
Y67334D01*
X153425Y67952D01*
X152952Y68425D01*
X152334Y68681D01*
D02*
G37*
G36*
X95334Y57681D02*
X94666D01*
X94048Y57425D01*
X93575Y56952D01*
X93521Y56821D01*
X92979D01*
X92925Y56952D01*
X92452Y57425D01*
X91834Y57681D01*
X91166D01*
X90548Y57425D01*
X90075Y56952D01*
X90021Y56821D01*
X89479D01*
X89425Y56952D01*
X88952Y57425D01*
X88334Y57681D01*
X87666D01*
X87048Y57425D01*
X86575Y56952D01*
X86319Y56334D01*
Y55666D01*
X86575Y55048D01*
X87048Y54575D01*
X87666Y54319D01*
X88334D01*
X88952Y54575D01*
X89425Y55048D01*
X89479Y55179D01*
X90021D01*
X90075Y55048D01*
X90548Y54575D01*
X91166Y54319D01*
X91834D01*
X92452Y54575D01*
X92925Y55048D01*
X92979Y55179D01*
X93521D01*
X93575Y55048D01*
X94048Y54575D01*
X94666Y54319D01*
X95334D01*
X95952Y54575D01*
X96425Y55048D01*
X96681Y55666D01*
Y56334D01*
X96425Y56952D01*
X95952Y57425D01*
X95334Y57681D01*
D02*
G37*
G36*
X124334Y59681D02*
X123666D01*
X123048Y59425D01*
X122575Y58952D01*
X122319Y58334D01*
Y57666D01*
X122575Y57048D01*
X123048Y56575D01*
X123666Y56319D01*
X124334D01*
X124952Y56575D01*
X125425Y57048D01*
X125681Y57666D01*
Y58334D01*
X125425Y58952D01*
X124952Y59425D01*
X124334Y59681D01*
D02*
G37*
G36*
X83827Y57744D02*
X83159D01*
X82541Y57488D01*
X82068Y57015D01*
X81812Y56397D01*
Y55729D01*
X82068Y55111D01*
X82541Y54638D01*
X83159Y54382D01*
X83827D01*
X84445Y54638D01*
X84918Y55111D01*
X85174Y55729D01*
Y56397D01*
X84918Y57015D01*
X84445Y57488D01*
X83827Y57744D01*
D02*
G37*
G36*
X73827D02*
X73159D01*
X72541Y57488D01*
X72068Y57015D01*
X71812Y56397D01*
Y55729D01*
X72068Y55111D01*
X72541Y54638D01*
X73159Y54382D01*
X73827D01*
X74445Y54638D01*
X74918Y55111D01*
X75174Y55729D01*
Y56397D01*
X74918Y57015D01*
X74445Y57488D01*
X73827Y57744D01*
D02*
G37*
G36*
X63827D02*
X63159D01*
X62541Y57488D01*
X62068Y57015D01*
X61812Y56397D01*
Y55729D01*
X62068Y55111D01*
X62541Y54638D01*
X63159Y54382D01*
X63827D01*
X64445Y54638D01*
X64918Y55111D01*
X65174Y55729D01*
Y56397D01*
X64918Y57015D01*
X64445Y57488D01*
X63827Y57744D01*
D02*
G37*
G36*
X41834Y57681D02*
X41166D01*
X40548Y57425D01*
X40075Y56952D01*
X39819Y56334D01*
Y55666D01*
X40075Y55048D01*
X40548Y54575D01*
X41166Y54319D01*
X41834D01*
X42452Y54575D01*
X42925Y55048D01*
X43181Y55666D01*
Y56334D01*
X42925Y56952D01*
X42452Y57425D01*
X41834Y57681D01*
D02*
G37*
G36*
X152334Y56681D02*
X151666D01*
X151048Y56425D01*
X150575Y55952D01*
X150319Y55334D01*
Y54666D01*
X150575Y54048D01*
X151048Y53575D01*
X151666Y53319D01*
X152334D01*
X152952Y53575D01*
X153425Y54048D01*
X153681Y54666D01*
Y55334D01*
X153425Y55952D01*
X152952Y56425D01*
X152334Y56681D01*
D02*
G37*
G36*
X124334Y52181D02*
X123666D01*
X123048Y51925D01*
X122575Y51452D01*
X122319Y50834D01*
Y50166D01*
X122575Y49548D01*
X123048Y49075D01*
X123666Y48819D01*
X124334D01*
X124952Y49075D01*
X125425Y49548D01*
X125681Y50166D01*
Y50834D01*
X125425Y51452D01*
X124952Y51925D01*
X124334Y52181D01*
D02*
G37*
G36*
X52334D02*
X51666D01*
X51048Y51925D01*
X50575Y51452D01*
X50319Y50834D01*
Y50166D01*
X50575Y49548D01*
X51048Y49075D01*
X51666Y48819D01*
X52334D01*
X52952Y49075D01*
X53425Y49548D01*
X53681Y50166D01*
Y50834D01*
X53425Y51452D01*
X52952Y51925D01*
X52334Y52181D01*
D02*
G37*
G36*
X86334Y49681D02*
X85666D01*
X85048Y49425D01*
X84575Y48952D01*
X84319Y48334D01*
Y47666D01*
X84575Y47048D01*
X85048Y46575D01*
X85666Y46319D01*
X86334D01*
X86952Y46575D01*
X87425Y47048D01*
X87681Y47666D01*
Y48334D01*
X87425Y48952D01*
X86952Y49425D01*
X86334Y49681D01*
D02*
G37*
G36*
X173334Y56181D02*
X172666D01*
X172048Y55925D01*
X171575Y55452D01*
X171319Y54834D01*
Y54166D01*
X171575Y53548D01*
X172048Y53075D01*
X172179Y53021D01*
Y52479D01*
X172048Y52425D01*
X171575Y51952D01*
X171319Y51334D01*
Y50666D01*
X171575Y50048D01*
X172048Y49575D01*
X172179Y49521D01*
Y48979D01*
X172048Y48925D01*
X171575Y48452D01*
X171319Y47834D01*
Y47166D01*
X171575Y46548D01*
X172048Y46075D01*
X172666Y45819D01*
X173334D01*
X173952Y46075D01*
X174425Y46548D01*
X174681Y47166D01*
Y47834D01*
X174425Y48452D01*
X173952Y48925D01*
X173821Y48979D01*
Y49521D01*
X173952Y49575D01*
X174425Y50048D01*
X174681Y50666D01*
Y51334D01*
X174425Y51952D01*
X173952Y52425D01*
X173821Y52479D01*
Y53021D01*
X173952Y53075D01*
X174425Y53548D01*
X174681Y54166D01*
Y54834D01*
X174425Y55452D01*
X173952Y55925D01*
X173334Y56181D01*
D02*
G37*
G36*
X152334Y52681D02*
X151666D01*
X151048Y52425D01*
X150575Y51952D01*
X150319Y51334D01*
Y50666D01*
X150575Y50048D01*
X151048Y49575D01*
X151179Y49521D01*
Y48979D01*
X151048Y48925D01*
X150575Y48452D01*
X150319Y47834D01*
Y47166D01*
X150575Y46548D01*
X151048Y46075D01*
X151666Y45819D01*
X152334D01*
X152952Y46075D01*
X153425Y46548D01*
X153681Y47166D01*
Y47834D01*
X153425Y48452D01*
X152952Y48925D01*
X152821Y48979D01*
Y49521D01*
X152952Y49575D01*
X153425Y50048D01*
X153681Y50666D01*
Y51334D01*
X153425Y51952D01*
X152952Y52425D01*
X152334Y52681D01*
D02*
G37*
G36*
X142834Y48681D02*
X142166D01*
X141548Y48425D01*
X141075Y47952D01*
X140819Y47334D01*
Y46666D01*
X141075Y46048D01*
X141548Y45575D01*
X142166Y45319D01*
X142834D01*
X143452Y45575D01*
X143925Y46048D01*
X144181Y46666D01*
Y47334D01*
X143925Y47952D01*
X143452Y48425D01*
X142834Y48681D01*
D02*
G37*
G36*
X136834D02*
X136166D01*
X135548Y48425D01*
X135075Y47952D01*
X134819Y47334D01*
Y46666D01*
X135075Y46048D01*
X135548Y45575D01*
X136166Y45319D01*
X136834D01*
X137452Y45575D01*
X137925Y46048D01*
X138181Y46666D01*
Y47334D01*
X137925Y47952D01*
X137452Y48425D01*
X136834Y48681D01*
D02*
G37*
G36*
X130834D02*
X130166D01*
X129548Y48425D01*
X129075Y47952D01*
X128819Y47334D01*
Y46666D01*
X129075Y46048D01*
X129548Y45575D01*
X130166Y45319D01*
X130834D01*
X131452Y45575D01*
X131925Y46048D01*
X132181Y46666D01*
Y47334D01*
X131925Y47952D01*
X131452Y48425D01*
X130834Y48681D01*
D02*
G37*
G36*
X109334D02*
X108666D01*
X108048Y48425D01*
X107575Y47952D01*
X107319Y47334D01*
Y46666D01*
X107575Y46048D01*
X108048Y45575D01*
X108666Y45319D01*
X109334D01*
X109952Y45575D01*
X110425Y46048D01*
X110681Y46666D01*
Y47334D01*
X110425Y47952D01*
X109952Y48425D01*
X109334Y48681D01*
D02*
G37*
G36*
X73827Y47744D02*
X73159D01*
X72541Y47488D01*
X72068Y47015D01*
X71812Y46397D01*
Y45729D01*
X72068Y45111D01*
X72541Y44638D01*
X73159Y44382D01*
X73827D01*
X74445Y44638D01*
X74918Y45111D01*
X75174Y45729D01*
Y46397D01*
X74918Y47015D01*
X74445Y47488D01*
X73827Y47744D01*
D02*
G37*
G36*
X63827D02*
X63159D01*
X62541Y47488D01*
X62068Y47015D01*
X61812Y46397D01*
Y45729D01*
X62068Y45111D01*
X62541Y44638D01*
X63159Y44382D01*
X63827D01*
X64445Y44638D01*
X64918Y45111D01*
X65174Y45729D01*
Y46397D01*
X64918Y47015D01*
X64445Y47488D01*
X63827Y47744D01*
D02*
G37*
G36*
X33827D02*
X33159D01*
X32541Y47488D01*
X32068Y47015D01*
X31812Y46397D01*
Y45729D01*
X32068Y45111D01*
X32541Y44638D01*
X33159Y44382D01*
X33827D01*
X34445Y44638D01*
X34918Y45111D01*
X35174Y45729D01*
Y46397D01*
X34918Y47015D01*
X34445Y47488D01*
X33827Y47744D01*
D02*
G37*
G36*
X124334Y44681D02*
X123666D01*
X123048Y44425D01*
X122575Y43952D01*
X122319Y43334D01*
Y42666D01*
X122575Y42048D01*
X123048Y41575D01*
X123666Y41319D01*
X124334D01*
X124952Y41575D01*
X125425Y42048D01*
X125681Y42666D01*
Y43334D01*
X125425Y43952D01*
X124952Y44425D01*
X124334Y44681D01*
D02*
G37*
G36*
X116834D02*
X116166D01*
X115548Y44425D01*
X115075Y43952D01*
X114819Y43334D01*
Y42666D01*
X115075Y42048D01*
X115548Y41575D01*
X116166Y41319D01*
X116834D01*
X117452Y41575D01*
X117925Y42048D01*
X118181Y42666D01*
Y43334D01*
X117925Y43952D01*
X117452Y44425D01*
X116834Y44681D01*
D02*
G37*
G36*
X109334D02*
X108666D01*
X108048Y44425D01*
X107575Y43952D01*
X107319Y43334D01*
Y42666D01*
X107575Y42048D01*
X108048Y41575D01*
X108666Y41319D01*
X109334D01*
X109952Y41575D01*
X110425Y42048D01*
X110681Y42666D01*
Y43334D01*
X110425Y43952D01*
X109952Y44425D01*
X109334Y44681D01*
D02*
G37*
G36*
X172912Y42573D02*
X172088D01*
X171326Y42258D01*
X170742Y41674D01*
X170427Y40912D01*
Y40088D01*
X170742Y39326D01*
X171326Y38742D01*
X172088Y38427D01*
X172912D01*
X173674Y38742D01*
X174258Y39326D01*
X174573Y40088D01*
Y40912D01*
X174258Y41674D01*
X173674Y42258D01*
X172912Y42573D01*
D02*
G37*
G36*
X166912D02*
X166088D01*
X165326Y42258D01*
X164742Y41674D01*
X164427Y40912D01*
Y40088D01*
X164742Y39326D01*
X165326Y38742D01*
X166088Y38427D01*
X166912D01*
X167674Y38742D01*
X168258Y39326D01*
X168573Y40088D01*
Y40912D01*
X168258Y41674D01*
X167674Y42258D01*
X166912Y42573D01*
D02*
G37*
G36*
X42334Y40063D02*
X41666D01*
X41048Y39807D01*
X40575Y39334D01*
X40319Y38716D01*
Y38048D01*
X40575Y37430D01*
X41048Y36957D01*
X41666Y36701D01*
X42334D01*
X42952Y36957D01*
X43425Y37430D01*
X43681Y38048D01*
Y38716D01*
X43425Y39334D01*
X42952Y39807D01*
X42334Y40063D01*
D02*
G37*
G36*
X142334Y38681D02*
X141666D01*
X141048Y38425D01*
X140575Y37952D01*
X140319Y37334D01*
Y36666D01*
X140575Y36048D01*
X141048Y35575D01*
X141666Y35319D01*
X142334D01*
X142952Y35575D01*
X143425Y36048D01*
X143681Y36666D01*
Y37334D01*
X143425Y37952D01*
X142952Y38425D01*
X142334Y38681D01*
D02*
G37*
G36*
X85334Y37181D02*
X84666D01*
X84048Y36925D01*
X83575Y36452D01*
X83319Y35834D01*
Y35166D01*
X83575Y34548D01*
X84048Y34075D01*
X84666Y33819D01*
X85334D01*
X85952Y34075D01*
X86425Y34548D01*
X86681Y35166D01*
Y35834D01*
X86425Y36452D01*
X85952Y36925D01*
X85334Y37181D01*
D02*
G37*
G36*
X77334Y34181D02*
X76666D01*
X76048Y33925D01*
X75575Y33452D01*
X75319Y32834D01*
Y32166D01*
X75575Y31548D01*
X76048Y31075D01*
X76666Y30819D01*
X77334D01*
X77952Y31075D01*
X78425Y31548D01*
X78681Y32166D01*
Y32834D01*
X78425Y33452D01*
X77952Y33925D01*
X77334Y34181D01*
D02*
G37*
G36*
X172912Y33573D02*
X172088D01*
X171326Y33258D01*
X170742Y32674D01*
X170427Y31912D01*
Y31088D01*
X170742Y30326D01*
X171326Y29742D01*
X172088Y29427D01*
X172912D01*
X173674Y29742D01*
X174258Y30326D01*
X174573Y31088D01*
Y31912D01*
X174258Y32674D01*
X173674Y33258D01*
X172912Y33573D01*
D02*
G37*
G36*
X166912D02*
X166088D01*
X165326Y33258D01*
X164742Y32674D01*
X164427Y31912D01*
Y31088D01*
X164742Y30326D01*
X165326Y29742D01*
X166088Y29427D01*
X166912D01*
X167674Y29742D01*
X168258Y30326D01*
X168573Y31088D01*
Y31912D01*
X168258Y32674D01*
X167674Y33258D01*
X166912Y33573D01*
D02*
G37*
G36*
X93834Y32181D02*
X93166D01*
X92548Y31925D01*
X92075Y31452D01*
X91819Y30834D01*
Y30166D01*
X92075Y29548D01*
X92548Y29075D01*
X93166Y28819D01*
X93834D01*
X94452Y29075D01*
X94925Y29548D01*
X95181Y30166D01*
Y30834D01*
X94925Y31452D01*
X94452Y31925D01*
X93834Y32181D01*
D02*
G37*
G36*
X81834Y31181D02*
X81166D01*
X80548Y30925D01*
X80075Y30452D01*
X79819Y29834D01*
Y29166D01*
X80075Y28548D01*
X80548Y28075D01*
X81166Y27819D01*
X81834D01*
X82452Y28075D01*
X82925Y28548D01*
X83181Y29166D01*
Y29834D01*
X82925Y30452D01*
X82452Y30925D01*
X81834Y31181D01*
D02*
G37*
G36*
X145634Y29516D02*
X144965D01*
X144347Y29260D01*
X143874Y28787D01*
X143618Y28169D01*
Y27500D01*
X143874Y26882D01*
X144347Y26410D01*
X144965Y26154D01*
X145634D01*
X146251Y26410D01*
X146724Y26882D01*
X146980Y27500D01*
Y28169D01*
X146724Y28787D01*
X146251Y29260D01*
X145634Y29516D01*
D02*
G37*
G36*
X86834Y28681D02*
X86166D01*
X85548Y28425D01*
X85075Y27952D01*
X84819Y27334D01*
Y26666D01*
X85075Y26048D01*
X85548Y25575D01*
X86166Y25319D01*
X86834D01*
X87452Y25575D01*
X87925Y26048D01*
X88181Y26666D01*
Y27334D01*
X87925Y27952D01*
X87452Y28425D01*
X86834Y28681D01*
D02*
G37*
G36*
X153827Y27744D02*
X153159D01*
X152541Y27488D01*
X152068Y27015D01*
X151812Y26397D01*
Y25729D01*
X152068Y25111D01*
X152541Y24638D01*
X153159Y24382D01*
X153827D01*
X154445Y24638D01*
X154918Y25111D01*
X155174Y25729D01*
Y26397D01*
X154918Y27015D01*
X154445Y27488D01*
X153827Y27744D01*
D02*
G37*
G36*
X63827D02*
X63159D01*
X62541Y27488D01*
X62068Y27015D01*
X61812Y26397D01*
Y25729D01*
X62068Y25111D01*
X62541Y24638D01*
X63159Y24382D01*
X63827D01*
X64445Y24638D01*
X64918Y25111D01*
X65174Y25729D01*
Y26397D01*
X64918Y27015D01*
X64445Y27488D01*
X63827Y27744D01*
D02*
G37*
G36*
X52834Y23276D02*
X52166D01*
X51548Y23020D01*
X51075Y22547D01*
X50819Y21929D01*
Y21260D01*
X51075Y20642D01*
X51548Y20169D01*
X52166Y19913D01*
X52834D01*
X53452Y20169D01*
X53925Y20642D01*
X54181Y21260D01*
Y21929D01*
X53925Y22547D01*
X53452Y23020D01*
X52834Y23276D01*
D02*
G37*
G36*
X42834D02*
X42166D01*
X41548Y23020D01*
X41075Y22547D01*
X40819Y21929D01*
Y21260D01*
X41075Y20642D01*
X41548Y20169D01*
X42166Y19913D01*
X42834D01*
X43452Y20169D01*
X43925Y20642D01*
X44181Y21260D01*
Y21929D01*
X43925Y22547D01*
X43452Y23020D01*
X42834Y23276D01*
D02*
G37*
G36*
X133334Y23181D02*
X132666D01*
X132048Y22925D01*
X131575Y22452D01*
X131319Y21834D01*
Y21166D01*
X131575Y20548D01*
X132048Y20075D01*
X132666Y19819D01*
X133334D01*
X133952Y20075D01*
X134425Y20548D01*
X134681Y21166D01*
Y21834D01*
X134425Y22452D01*
X133952Y22925D01*
X133334Y23181D01*
D02*
G37*
G36*
X143827Y17744D02*
X143159D01*
X142541Y17488D01*
X142068Y17015D01*
X141812Y16397D01*
Y15729D01*
X142068Y15111D01*
X142541Y14638D01*
X143159Y14382D01*
X143827D01*
X144445Y14638D01*
X144918Y15111D01*
X145174Y15729D01*
Y16397D01*
X144918Y17015D01*
X144445Y17488D01*
X143827Y17744D01*
D02*
G37*
G36*
X133827D02*
X133159D01*
X132541Y17488D01*
X132068Y17015D01*
X131812Y16397D01*
Y15729D01*
X132068Y15111D01*
X132541Y14638D01*
X133159Y14382D01*
X133827D01*
X134445Y14638D01*
X134918Y15111D01*
X135174Y15729D01*
Y16397D01*
X134918Y17015D01*
X134445Y17488D01*
X133827Y17744D01*
D02*
G37*
G36*
X63827D02*
X63159D01*
X62541Y17488D01*
X62068Y17015D01*
X61812Y16397D01*
Y15729D01*
X62068Y15111D01*
X62541Y14638D01*
X63159Y14382D01*
X63827D01*
X64445Y14638D01*
X64918Y15111D01*
X65174Y15729D01*
Y16397D01*
X64918Y17015D01*
X64445Y17488D01*
X63827Y17744D01*
D02*
G37*
G36*
X52834Y10087D02*
X52166D01*
X51548Y9831D01*
X51075Y9358D01*
X50819Y8740D01*
Y8071D01*
X51075Y7453D01*
X51548Y6980D01*
X52166Y6724D01*
X52834D01*
X53452Y6980D01*
X53925Y7453D01*
X54181Y8071D01*
Y8740D01*
X53925Y9358D01*
X53452Y9831D01*
X52834Y10087D01*
D02*
G37*
G36*
X42834D02*
X42166D01*
X41548Y9831D01*
X41075Y9358D01*
X40819Y8740D01*
Y8071D01*
X41075Y7453D01*
X41548Y6980D01*
X42166Y6724D01*
X42834D01*
X43452Y6980D01*
X43925Y7453D01*
X44181Y8071D01*
Y8740D01*
X43925Y9358D01*
X43452Y9831D01*
X42834Y10087D01*
D02*
G37*
G36*
X37834D02*
X37166D01*
X36548Y9831D01*
X36075Y9358D01*
X35819Y8740D01*
Y8071D01*
X36075Y7453D01*
X36548Y6980D01*
X37166Y6724D01*
X37834D01*
X38452Y6980D01*
X38925Y7453D01*
X39181Y8071D01*
Y8740D01*
X38925Y9358D01*
X38452Y9831D01*
X37834Y10087D01*
D02*
G37*
G36*
X145634Y8846D02*
X144965D01*
X144347Y8591D01*
X143874Y8118D01*
X143618Y7500D01*
Y6831D01*
X143874Y6213D01*
X144347Y5740D01*
X144965Y5484D01*
X145634D01*
X146251Y5740D01*
X146724Y6213D01*
X146980Y6831D01*
Y7500D01*
X146724Y8118D01*
X146251Y8591D01*
X145634Y8846D01*
D02*
G37*
G36*
X115834Y8681D02*
X115166D01*
X114548Y8425D01*
X114075Y7952D01*
X113819Y7334D01*
Y6666D01*
X114075Y6048D01*
X114548Y5575D01*
X115166Y5319D01*
X115834D01*
X116452Y5575D01*
X116925Y6048D01*
X117181Y6666D01*
Y7334D01*
X116925Y7952D01*
X116452Y8425D01*
X115834Y8681D01*
D02*
G37*
G36*
X111834D02*
X111166D01*
X110548Y8425D01*
X110075Y7952D01*
X109819Y7334D01*
Y6666D01*
X110075Y6048D01*
X110548Y5575D01*
X111166Y5319D01*
X111834D01*
X112452Y5575D01*
X112925Y6048D01*
X113181Y6666D01*
Y7334D01*
X112925Y7952D01*
X112452Y8425D01*
X111834Y8681D01*
D02*
G37*
G36*
X83827Y7744D02*
X83159D01*
X82541Y7488D01*
X82068Y7015D01*
X81812Y6397D01*
Y5728D01*
X82068Y5111D01*
X82541Y4638D01*
X83159Y4382D01*
X83827D01*
X84445Y4638D01*
X84918Y5111D01*
X85174Y5728D01*
Y6397D01*
X84918Y7015D01*
X84445Y7488D01*
X83827Y7744D01*
D02*
G37*
G36*
X73827D02*
X73159D01*
X72541Y7488D01*
X72068Y7015D01*
X71812Y6397D01*
Y5728D01*
X72068Y5111D01*
X72541Y4638D01*
X73159Y4382D01*
X73827D01*
X74445Y4638D01*
X74918Y5111D01*
X75174Y5728D01*
Y6397D01*
X74918Y7015D01*
X74445Y7488D01*
X73827Y7744D01*
D02*
G37*
%LPD*%
D97*
X134500Y162000D02*
D03*
X124500D02*
D03*
X114500D02*
D03*
X104500D02*
D03*
X94500D02*
D03*
X84500D02*
D03*
X74500D02*
D03*
D100*
X17500Y127724D02*
D03*
X13493D02*
D03*
X142500Y42500D02*
D03*
X40500Y107000D02*
D03*
X27000Y62000D02*
D03*
Y56000D02*
D03*
X89500Y148000D02*
D03*
X123500Y104500D02*
D03*
Y108000D02*
D03*
Y112087D02*
D03*
Y115500D02*
D03*
X104000Y110000D02*
D03*
X108000D02*
D03*
Y106587D02*
D03*
Y102500D02*
D03*
X136165Y93165D02*
D03*
X98500Y30500D02*
D03*
X32500Y8405D02*
D03*
X30000Y155000D02*
D03*
X121000Y25000D02*
D03*
X106000D02*
D03*
X115000Y83500D02*
D03*
X71500Y27000D02*
D03*
X52000Y37500D02*
D03*
X42000Y48618D02*
D03*
X7500Y74500D02*
D03*
D107*
X52000Y94500D02*
D03*
X70665Y124665D02*
D03*
X76665D02*
D03*
X144090Y132090D02*
D03*
X95000Y135000D02*
D03*
X90500D02*
D03*
X86000D02*
D03*
Y130500D02*
D03*
Y126000D02*
D03*
Y121500D02*
D03*
X90500D02*
D03*
X99500D02*
D03*
X104000D02*
D03*
Y126000D02*
D03*
Y130500D02*
D03*
Y135000D02*
D03*
X99500D02*
D03*
M02*
