G04*
G04 #@! TF.GenerationSoftware,Altium Limited,Altium Designer,21.0.8 (223)*
G04*
G04 Layer_Color=65535*
%FSLAX25Y25*%
%MOIN*%
G70*
G04*
G04 #@! TF.SameCoordinates,4FC8230A-67FA-47FE-B716-792534C6144D*
G04*
G04*
G04 #@! TF.FilePolarity,Positive*
G04*
G01*
G75*
%ADD10C,0.00787*%
%ADD11C,0.00984*%
%ADD12C,0.00591*%
%ADD13C,0.01000*%
%ADD14C,0.00394*%
D10*
X71520Y26461D02*
Y27248D01*
Y26461D01*
X128094Y4252D02*
Y3858D01*
Y4252D01*
X120937Y49339D02*
Y48945D01*
Y49339D01*
X67898Y138004D02*
X67110D01*
X67898D01*
X20764Y54012D02*
Y53224D01*
Y54012D01*
X100500Y24000D02*
X100894D01*
X100500D01*
X141220Y65500D02*
X143780D01*
X135221D02*
X137779D01*
X129220D02*
X131780D01*
X99307Y45693D02*
Y82307D01*
X62693D02*
X99307D01*
X62693Y45693D02*
Y82307D01*
Y45693D02*
X99307D01*
X148000Y136933D02*
Y141067D01*
X137000Y76933D02*
Y81067D01*
X82795Y100752D02*
Y108232D01*
X82205Y109610D02*
X107795D01*
Y123390D01*
X82205D02*
X107795D01*
X82205Y109610D02*
Y123390D01*
X110972Y119500D02*
X120028D01*
X68972Y114000D02*
X78028D01*
X109988Y91610D02*
Y105390D01*
X121000Y105500D02*
X121012Y91610D01*
X162500Y46472D02*
Y55528D01*
Y58972D02*
Y68028D01*
Y71472D02*
Y80528D01*
X135500Y41221D02*
Y43780D01*
X35000Y37500D02*
Y39500D01*
X52000Y141220D02*
Y143780D01*
X37354Y118701D02*
Y131299D01*
X56646D01*
Y118701D02*
Y131299D01*
X37354Y118701D02*
X56646D01*
X36843Y111319D02*
Y117323D01*
X34500Y60720D02*
Y63279D01*
Y54720D02*
Y57279D01*
X115000Y45819D02*
Y48181D01*
Y67819D02*
Y70181D01*
X9457Y77059D02*
X19445D01*
X12555Y71941D02*
X19445D01*
X61000Y93319D02*
Y95681D01*
X113500Y28721D02*
Y31280D01*
Y34721D02*
Y37279D01*
D11*
X106000Y46284D02*
X105262Y46710D01*
Y45857D01*
X106000Y46284D01*
X165197Y132000D02*
X164803D01*
X165197D01*
X43346Y171526D02*
X40984D01*
Y169755D01*
X42165D01*
X40984D01*
Y167984D01*
X46297Y171526D02*
X45117D01*
X44526Y170936D01*
Y168575D01*
X45117Y167984D01*
X46297D01*
X46888Y168575D01*
Y170936D01*
X46297Y171526D01*
X50430Y170936D02*
X49840Y171526D01*
X48659D01*
X48069Y170936D01*
Y168575D01*
X48659Y167984D01*
X49840D01*
X50430Y168575D01*
D12*
X63500Y24000D02*
X64500D01*
Y25000D01*
X62500Y26000D02*
X64500Y24000D01*
X62500Y26000D02*
Y28000D01*
X57091Y161862D02*
X59452D01*
X58271Y163042D02*
Y160681D01*
X62994Y163633D02*
X60633D01*
Y161862D01*
X61813Y162452D01*
X62404D01*
X62994Y161862D01*
Y160681D01*
X62404Y160090D01*
X61223D01*
X60633Y160681D01*
X64175Y163633D02*
Y161271D01*
X65356Y160090D01*
X66536Y161271D01*
Y163633D01*
X162510Y31471D02*
X160148D01*
X161329Y32652D02*
Y30290D01*
X59952Y153723D02*
X59362Y154313D01*
X58181D01*
X57591Y153723D01*
Y153133D01*
X58181Y152542D01*
X59362D01*
X59952Y151952D01*
Y151362D01*
X59362Y150771D01*
X58181D01*
X57591Y151362D01*
X61133Y150771D02*
X62313D01*
X61723D01*
Y153133D01*
X61133D01*
X65265Y149591D02*
X65856D01*
X66446Y150181D01*
Y153133D01*
X64675D01*
X64085Y152542D01*
Y151362D01*
X64675Y150771D01*
X66446D01*
X162409Y40471D02*
X160048D01*
X32362Y95091D02*
X30591Y96862D01*
X32362Y98633D01*
X34133Y96862D02*
X36494D01*
X59452Y173042D02*
X58862Y173633D01*
X57681D01*
X57091Y173042D01*
Y170681D01*
X57681Y170090D01*
X58862D01*
X59452Y170681D01*
Y171862D01*
X58271D01*
X60633Y170090D02*
Y173633D01*
X62994Y170090D01*
Y173633D01*
X64175D02*
Y170090D01*
X65946D01*
X66536Y170681D01*
Y173042D01*
X65946Y173633D01*
X64175D01*
X30090Y168090D02*
Y170452D01*
X30681D01*
X31271Y169862D01*
Y168090D01*
Y169862D01*
X31862Y170452D01*
X32452Y169862D01*
Y168090D01*
X34223D02*
X35404D01*
X35994Y168681D01*
Y169862D01*
X35404Y170452D01*
X34223D01*
X33633Y169862D01*
Y168681D01*
X34223Y168090D01*
X39536Y171633D02*
Y168090D01*
X37765D01*
X37175Y168681D01*
Y169862D01*
X37765Y170452D01*
X39536D01*
X86952Y93542D02*
X86362Y94133D01*
X85181D01*
X84591Y93542D01*
Y91181D01*
X85181Y90591D01*
X86362D01*
X86952Y91181D01*
Y92362D01*
X85771D01*
X85091Y31271D02*
X87452D01*
X101952Y94133D02*
X99590D01*
Y92362D01*
X100771Y92952D01*
X101362D01*
X101952Y92362D01*
Y91181D01*
X101362Y90591D01*
X100181D01*
X99590Y91181D01*
X103133Y94133D02*
Y91771D01*
X104313Y90591D01*
X105494Y91771D01*
Y94133D01*
X40452Y33042D02*
X39862Y33633D01*
X38681D01*
X38091Y33042D01*
Y32452D01*
X38681Y31862D01*
X39862D01*
X40452Y31271D01*
Y30681D01*
X39862Y30090D01*
X38681D01*
X38091Y30681D01*
X41633Y33633D02*
Y30090D01*
X42813Y31271D01*
X43994Y30090D01*
Y33633D01*
X45175D02*
Y30090D01*
X46946D01*
X47536Y30681D01*
Y33042D01*
X46946Y33633D01*
X45175D01*
X30591Y100271D02*
Y103813D01*
X32362D01*
X32952Y103223D01*
Y102042D01*
X32362Y101452D01*
X30591D01*
X34723Y100271D02*
X35904D01*
X36494Y100862D01*
Y102042D01*
X35904Y102633D01*
X34723D01*
X34133Y102042D01*
Y100862D01*
X34723Y100271D01*
X37675Y102633D02*
Y100862D01*
X38265Y100271D01*
X38856Y100862D01*
X39446Y100271D01*
X40036Y100862D01*
Y102633D01*
X42988Y100271D02*
X41807D01*
X41217Y100862D01*
Y102042D01*
X41807Y102633D01*
X42988D01*
X43578Y102042D01*
Y101452D01*
X41217D01*
X44759Y102633D02*
Y100271D01*
Y101452D01*
X45349Y102042D01*
X45940Y102633D01*
X46530D01*
X48301Y100271D02*
X50072D01*
X50663Y100862D01*
X50072Y101452D01*
X48892D01*
X48301Y102042D01*
X48892Y102633D01*
X50663D01*
X52434Y103223D02*
Y102633D01*
X51844D01*
X53024D01*
X52434D01*
Y100862D01*
X53024Y100271D01*
X55386Y102633D02*
X56566D01*
X57157Y102042D01*
Y100271D01*
X55386D01*
X54795Y100862D01*
X55386Y101452D01*
X57157D01*
X59518Y99090D02*
X60109D01*
X60699Y99681D01*
Y102633D01*
X58928D01*
X58337Y102042D01*
Y100862D01*
X58928Y100271D01*
X60699D01*
X63651D02*
X62470D01*
X61880Y100862D01*
Y102042D01*
X62470Y102633D01*
X63651D01*
X64241Y102042D01*
Y101452D01*
X61880D01*
X53591Y33633D02*
Y30681D01*
X54181Y30090D01*
X55362D01*
X55952Y30681D01*
Y33633D01*
X57133Y30090D02*
Y32452D01*
X58313Y33633D01*
X59494Y32452D01*
Y30090D01*
Y31862D01*
X57133D01*
X60675Y30090D02*
Y33633D01*
X62446D01*
X63036Y33042D01*
Y31862D01*
X62446Y31271D01*
X60675D01*
X61856D02*
X63036Y30090D01*
X64217Y33633D02*
X66579D01*
X65398D01*
Y30090D01*
X149199Y28091D02*
X151561D01*
X152742Y29271D01*
X151561Y30452D01*
X149199D01*
X152742Y31633D02*
Y32813D01*
Y32223D01*
X150380D01*
Y31633D01*
X152742Y34585D02*
X150380D01*
Y36356D01*
X150970Y36946D01*
X152742D01*
X155458Y28091D02*
X154867Y28681D01*
Y29862D01*
X155458Y30452D01*
X156048D01*
X156638Y29862D01*
Y29271D01*
Y29862D01*
X157229Y30452D01*
X157819D01*
X158410Y29862D01*
Y28681D01*
X157819Y28091D01*
X156638Y31633D02*
Y33994D01*
X158410Y35175D02*
Y36356D01*
Y35765D01*
X154867D01*
X155458Y35175D01*
X158410Y40488D02*
Y38127D01*
X156048Y40488D01*
X155458D01*
X154867Y39898D01*
Y38717D01*
X155458Y38127D01*
Y44030D02*
X154867Y43440D01*
Y42259D01*
X155458Y41669D01*
X156048D01*
X156638Y42259D01*
Y43440D01*
X157229Y44030D01*
X157819D01*
X158410Y43440D01*
Y42259D01*
X157819Y41669D01*
X28633Y52909D02*
X25681D01*
X25091Y52319D01*
Y51138D01*
X25681Y50548D01*
X28633D01*
X28042Y47006D02*
X28633Y47596D01*
Y48777D01*
X28042Y49367D01*
X27452D01*
X26862Y48777D01*
Y47596D01*
X26271Y47006D01*
X25681D01*
X25091Y47596D01*
Y48777D01*
X25681Y49367D01*
X28633Y45825D02*
X25091D01*
Y44054D01*
X25681Y43464D01*
X26271D01*
X26862Y44054D01*
Y45825D01*
Y44054D01*
X27452Y43464D01*
X28042D01*
X28633Y44054D01*
Y45825D01*
X71271Y32410D02*
Y30048D01*
X72452Y31229D02*
X70091D01*
X10452Y147042D02*
X9862Y147633D01*
X8681D01*
X8090Y147042D01*
Y146452D01*
X8681Y145862D01*
X9862D01*
X10452Y145271D01*
Y144681D01*
X9862Y144090D01*
X8681D01*
X8090Y144681D01*
X11633Y144090D02*
Y147633D01*
X13404D01*
X13994Y147042D01*
Y145862D01*
X13404Y145271D01*
X11633D01*
X15175Y147633D02*
X16356D01*
X15765D01*
Y144090D01*
X15175D01*
X16356D01*
X88591Y93542D02*
X89181Y94133D01*
X90362D01*
X90952Y93542D01*
Y92952D01*
X90362Y92362D01*
X89771D01*
X90362D01*
X90952Y91771D01*
Y91181D01*
X90362Y90591D01*
X89181D01*
X88591Y91181D01*
X92133Y94133D02*
Y91771D01*
X93313Y90591D01*
X94494Y91771D01*
Y94133D01*
X95675Y93542D02*
X96265Y94133D01*
X97446D01*
X98036Y93542D01*
Y92952D01*
X97446Y92362D01*
X96856D01*
X97446D01*
X98036Y91771D01*
Y91181D01*
X97446Y90591D01*
X96265D01*
X95675Y91181D01*
D13*
X145500Y48000D02*
Y48200D01*
X139500Y48000D02*
Y48200D01*
X133493Y48063D02*
Y48263D01*
X26400Y2800D02*
X27400D01*
X26900D01*
Y5799D01*
X26400Y5299D01*
D14*
X16905Y139339D02*
X20843D01*
X16905D02*
X20843D01*
Y131169D02*
Y139339D01*
Y131169D02*
Y139339D01*
Y81661D02*
Y89831D01*
Y81661D02*
Y89831D01*
X17890Y81661D02*
X20843D01*
X17890D02*
X20843D01*
X110547Y3370D02*
X116453D01*
X110547D02*
X116453D01*
X110547Y24630D02*
X116453D01*
X110547D02*
X116453D01*
M02*
