M48
;Layer_Color=9474304
;FILE_FORMAT=2:4
INCH,TZ
;TYPE=PLATED
T1F00S00C0.0118
T2F00S00C0.0177
T3F00S00C0.0197
T4F00S00C0.1339
%
T01
X15157Y386
X15657Y4386
X24021Y4885
X24850
Y7135
X24021
X13657Y6886
Y6386
Y5886
Y5386
X13400Y4950
Y4550
Y3850
Y3150
Y2750
X13350Y1650
X12850
X12350
X11850
X11350
X11157Y1386
Y386
X11657
X12157
X12657
X13157
X13657
Y1386
X10900Y3150
Y3850
Y4550
X11000Y5750
Y6300
X11657Y6386
X12157
X12657
Y6886
X12157Y5886
X11657
X9550Y5850
Y6200
X9300Y6407
X9200Y6900
X8200Y7000
X7800
X7400
X7000
Y6500
X7400
X7800
X8200
Y5993
X7800
X7400
X7000
Y5500
X7400
X7800
X8200
X9400Y5400
X9150Y5050
X7600Y4450
X7400Y4000
X7050
X6100Y4450
X6300Y5500
X5900
X5500
X5100
Y6000
X5500
X5900
X6300
Y6500
X5900
X5500
X5100
Y7000
X5500
X5900
X6300
X2657Y6886
X2157
X1657
X2550Y6338
Y4850
X2657Y4386
Y3886
Y3386
Y2886
Y2386
Y1886
Y886
Y386
X4157
X4657
X5157
X5657
X6157
X6657
X7100Y500
X6700Y1350
X6100Y1500
X5500
X4900
X4300
X3700
X4050Y3900
X4250Y4600
X4500Y4900
X4200Y5300
X2950Y5100
Y4600
X2157Y4386
Y3886
Y3386
Y2886
X1657
Y3386
Y3886
Y4386
X1157Y3386
Y2886
X657
Y3386
X5250Y3900
X6500Y3050
X8300Y3550
X8600Y2750
X9300
Y1650
X8600
X8157Y1386
Y886
X8657
X9157
X7500Y1350
X7300Y8050
X6800
X6100
X5750
X5400
X4850
X4050Y8550
X4157Y8886
X5400Y9400
X6800
X7300
X7657Y9386
X8150Y9400
Y8050
X11157Y8386
X11657
X12157
X13657Y7886
Y7386
X14600Y7900
X14884Y8192
X15050Y9500
Y9950
Y10400
X13900Y10900
X13400Y10550
X12750
X13100Y10050
X13350Y9600
X13600Y9150
X13400Y11650
X12750
X12150
X11657Y10886
X11157
X10657
X10250Y10450
X9700Y10950
X8657Y10886
X6657Y12886
X6157
X4800Y13100
X4700Y11950
X3750Y11900
X3550Y11500
X2157Y13886
Y14386
Y14886
X1657
Y14386
Y13886
X1157Y14386
Y14886
X657
Y14386
X2657Y15886
Y16886
Y17386
X4600Y16700
X11157Y16886
Y17386
Y16386
X11657
X12157
X12657
Y16886
Y17386
X12300Y17100
X12157Y15886
X12657
Y15386
Y14886
X13657
Y15386
Y15886
X14157
X14657
Y16386
X14157
X13657
Y16886
Y17386
X14750Y17100
Y15000
X14657Y13886
X13977Y13700
X14157Y13386
X13400Y12700
X14000Y12000
X15150
X11400Y12300
Y12700
X11157Y12886
X11400Y13700
X12150Y13850
X11157Y14886
Y15386
Y15886
X11657
X4050Y7150
X2657Y7386
Y7886
Y8386
X2157
Y7886
Y7386
X1657
Y7886
Y8386
Y8886
X1157Y7886
X657
X15850Y7450
X15950Y9500
X15500
Y9950
Y10400
X15950
Y9950
X15850Y12000
X15500Y11750
X15157Y13386
X15657Y13886
X16157
X16400Y13450
X17000
X17200Y14300
X16657Y14886
X16157
X15657
X15157
Y15386
Y17386
T02
X31450Y3950
Y4750
Y5550
X30650
Y4750
Y3950
X29850
X29050
Y4750
X29850
Y5550
X29050
X27064Y5800
Y6200
X26564
Y5800
Y5300
Y4900
X27064
Y5300
X27000Y4000
Y3600
X26500
Y4000
Y3100
Y2700
X27000
Y3100
Y1600
Y1100
X26500
X26000
X25500
X25050
X24550
Y1600
X25050
X25500
X26000
X26500
X25050Y2300
X24550
Y2800
Y3300
X25050
Y2800
X25655Y4792
Y7042
X23350Y6750
Y6250
Y5750
Y5250
X21700Y6050
Y6550
Y7050
X21250Y6800
Y6300
X19000Y5800
Y5300
Y4800
Y4300
Y3800
Y3300
X18500
Y3800
Y4300
Y4800
Y5300
Y5800
Y6300
X17700Y6450
Y6850
X16200Y5200
X15550
X16650Y3150
X27859Y4108
X14900Y3850
Y4550
X14850Y5200
X14250
X14900Y3150
X10850Y8250
X10150Y9400
X10650Y9950
Y10450
X9050Y9400
X9178Y13678
X8728
X8278
X7828
Y14128
Y15028
Y15478
X8278
X8728
X9178
Y15028
Y14578
Y14128
X5412Y13162
X2550Y13200
X2100
X1700Y12800
Y12300
Y11800
Y11300
Y10800
Y10300
Y9800
Y9300
X2100Y8900
X2550
X3350Y15300
X4000
X4600Y16100
X5300
X5800Y16150
X6300
X19350Y16450
Y15650
X20150
X20950
Y16450
X20150
Y17250
X19350
X20950
X23250
Y16450
Y15650
X24050
X24850
Y16450
X24050
Y17250
X24850
X26600Y15100
Y14700
X27100
Y15100
Y14200
Y13800
X26600
Y14200
X25691Y13692
X26400Y12900
Y12500
X26900
Y12900
Y12000
Y11600
X26400
Y12000
Y10650
Y10250
X26900
Y10650
Y9750
Y9350
X26400
Y9750
X25100Y9700
Y10100
Y10500
Y10900
Y11300
Y11700
Y12100
Y12500
X24600
Y12100
Y11700
Y11300
Y10900
Y10500
Y10100
X23350Y8550
Y8050
Y7550
X21700
Y8050
X21250Y7800
Y7300
Y8300
X19050Y8250
X18500
X17700Y8450
Y8850
Y9250
Y9650
Y10050
Y10450
Y10850
Y11250
X18550Y11600
Y12100
Y12600
Y13100
Y13600
Y14100
Y14600
X19050
Y14100
Y13600
Y13100
Y12600
Y12100
Y11600
Y10250
X18500
X17700Y8050
Y7650
Y7250
X26564Y7150
Y7550
Y8050
Y8450
X27064
Y8050
Y7550
Y7150
X29100Y8050
X29900
X30700
Y8850
X29900
X29100
Y9650
X29900
X30700
Y12150
Y12950
Y13750
X29900
X29100
Y12950
X29900
Y12150
X29100
X27809Y13008
Y10758
X23650Y13750
X23150
X22650
X22150
X21900Y14250
X22400
X22900
X23400
X23900
X31500Y13750
Y12950
Y12150
Y9650
Y8850
Y8050
T03
X1000Y4850
Y5350
Y5850
Y6350
X11350Y900
X11850
X12350
X12850
X13350
X1000Y9300
Y9800
Y10300
Y10800
Y11300
Y11800
Y12300
Y12800
T04
X30906Y1378
X16339
X1378
Y16339
X16339
X30906
M30
