G04*
G04 #@! TF.GenerationSoftware,Altium Limited,Altium Designer,21.0.8 (223)*
G04*
G04 Layer_Color=255*
%FSLAX25Y25*%
%MOIN*%
G70*
G04*
G04 #@! TF.SameCoordinates,4FC8230A-67FA-47FE-B716-792534C6144D*
G04*
G04*
G04 #@! TF.FilePolarity,Positive*
G04*
G01*
G75*
%ADD15C,0.03937*%
%ADD16R,0.03937X0.03150*%
%ADD17R,0.03150X0.03150*%
G04:AMPARAMS|DCode=18|XSize=118.11mil|YSize=78.74mil|CornerRadius=3.94mil|HoleSize=0mil|Usage=FLASHONLY|Rotation=0.000|XOffset=0mil|YOffset=0mil|HoleType=Round|Shape=RoundedRectangle|*
%AMROUNDEDRECTD18*
21,1,0.11811,0.07087,0,0,0.0*
21,1,0.11024,0.07874,0,0,0.0*
1,1,0.00787,0.05512,-0.03543*
1,1,0.00787,-0.05512,-0.03543*
1,1,0.00787,-0.05512,0.03543*
1,1,0.00787,0.05512,0.03543*
%
%ADD18ROUNDEDRECTD18*%
%ADD19R,0.02756X0.07087*%
%ADD20R,0.06299X0.08661*%
%ADD21R,0.08661X0.06299*%
%ADD22R,0.07087X0.02756*%
%ADD23R,0.03937X0.06102*%
%ADD24R,0.04528X0.05512*%
%ADD25R,0.01173X0.05807*%
%ADD26R,0.05807X0.01173*%
%ADD27C,0.01181*%
%ADD28R,0.04134X0.05512*%
%ADD29R,0.12598X0.07480*%
%ADD30R,0.03543X0.07480*%
%ADD31R,0.03937X0.12992*%
%ADD32R,0.04409X0.04134*%
%ADD33R,0.19685X0.09252*%
%ADD34R,0.03740X0.01968*%
%ADD35R,0.06496X0.06496*%
%ADD36R,0.01968X0.03740*%
%ADD37R,0.11102X0.05118*%
%ADD38R,0.08858X0.06890*%
%ADD39R,0.05118X0.11102*%
%ADD40R,0.02559X0.11221*%
%ADD41R,0.03150X0.03937*%
%ADD42R,0.02362X0.04528*%
%ADD43R,0.03858X0.03071*%
%ADD44R,0.03071X0.03858*%
%ADD45R,0.02559X0.06004*%
%ADD46R,0.05315X0.01575*%
%ADD47R,0.05512X0.06299*%
%ADD48R,0.05118X0.09055*%
%ADD49R,0.07480X0.07087*%
%ADD50R,0.04016X0.05787*%
%ADD51R,0.02126X0.03701*%
%ADD52R,0.04134X0.01968*%
%ADD53R,0.03543X0.03937*%
%ADD54R,0.06299X0.03937*%
%ADD97C,0.06500*%
%ADD98R,0.06500X0.06500*%
%ADD107C,0.03347*%
%ADD108C,0.23622*%
D15*
X102500Y97000D02*
D03*
X86000D02*
D03*
X93500D02*
D03*
D16*
X142500Y62350D02*
D03*
Y68650D02*
D03*
X136500Y62350D02*
D03*
Y68650D02*
D03*
X130500Y62350D02*
D03*
Y68650D02*
D03*
D17*
X142500Y51047D02*
D03*
Y56953D02*
D03*
X136500Y51047D02*
D03*
Y56953D02*
D03*
X130493Y51110D02*
D03*
Y57016D02*
D03*
D18*
X169500Y31500D02*
D03*
Y40500D02*
D03*
D19*
X71618Y21342D02*
D03*
X76539D02*
D03*
X81461D02*
D03*
X86382D02*
D03*
D20*
X95240Y8350D02*
D03*
X62760D02*
D03*
D21*
X11000Y136583D02*
D03*
Y84417D02*
D03*
D22*
X23992Y93276D02*
D03*
Y98197D02*
D03*
Y103118D02*
D03*
Y108039D02*
D03*
Y112961D02*
D03*
Y117882D02*
D03*
Y122803D02*
D03*
Y127724D02*
D03*
D23*
X132701Y7165D02*
D03*
Y27835D02*
D03*
X145299Y7165D02*
D03*
Y27835D02*
D03*
D24*
X118150Y53669D02*
D03*
Y62331D02*
D03*
X111850D02*
D03*
Y53669D02*
D03*
D25*
X95764Y41409D02*
D03*
X93795D02*
D03*
X91827D02*
D03*
X89858D02*
D03*
X87890D02*
D03*
X85921D02*
D03*
X83953D02*
D03*
X81984D02*
D03*
X80016D02*
D03*
X78047D02*
D03*
X76079D02*
D03*
X74110D02*
D03*
X72142D02*
D03*
X70173D02*
D03*
X68205D02*
D03*
X66236D02*
D03*
Y86590D02*
D03*
X68205D02*
D03*
X70173D02*
D03*
X72142D02*
D03*
X74110D02*
D03*
X76079D02*
D03*
X78047D02*
D03*
X80016D02*
D03*
X81984D02*
D03*
X83953D02*
D03*
X85921D02*
D03*
X87890D02*
D03*
X89858D02*
D03*
X91827D02*
D03*
X93795D02*
D03*
X95764D02*
D03*
D26*
X58410Y49236D02*
D03*
Y51205D02*
D03*
Y53173D02*
D03*
Y55142D02*
D03*
Y57110D02*
D03*
Y59079D02*
D03*
Y61047D02*
D03*
Y63016D02*
D03*
Y64984D02*
D03*
Y66953D02*
D03*
Y68921D02*
D03*
Y70890D02*
D03*
Y72858D02*
D03*
Y74827D02*
D03*
Y76795D02*
D03*
Y78764D02*
D03*
X103591D02*
D03*
Y76795D02*
D03*
Y74827D02*
D03*
Y72858D02*
D03*
Y70890D02*
D03*
Y68921D02*
D03*
Y66953D02*
D03*
Y64984D02*
D03*
Y63016D02*
D03*
Y61047D02*
D03*
Y59079D02*
D03*
Y57110D02*
D03*
Y55142D02*
D03*
Y53173D02*
D03*
Y51205D02*
D03*
Y49236D02*
D03*
D27*
X73469Y143968D02*
D03*
Y142000D02*
D03*
Y140032D02*
D03*
X71500Y143968D02*
D03*
Y140032D02*
D03*
X69532Y143968D02*
D03*
Y142000D02*
D03*
Y140032D02*
D03*
X39500Y160000D02*
D03*
X33500D02*
D03*
X39500Y155000D02*
D03*
X33500D02*
D03*
D28*
X144260Y139000D02*
D03*
X151740D02*
D03*
X133260Y79000D02*
D03*
X140740D02*
D03*
D29*
X95000Y128508D02*
D03*
D30*
X104055Y104492D02*
D03*
X95000D02*
D03*
X85945D02*
D03*
D31*
X132827Y108000D02*
D03*
D32*
X151673Y93925D02*
D03*
D33*
X147000Y108000D02*
D03*
D34*
X166390Y120598D02*
D03*
Y117449D02*
D03*
Y114299D02*
D03*
Y111150D02*
D03*
Y108000D02*
D03*
Y104850D02*
D03*
Y101701D02*
D03*
Y98551D02*
D03*
Y95402D02*
D03*
X127610D02*
D03*
Y98551D02*
D03*
Y101701D02*
D03*
Y104850D02*
D03*
Y108000D02*
D03*
Y111150D02*
D03*
Y114299D02*
D03*
Y117449D02*
D03*
Y120598D02*
D03*
D35*
X165012Y89988D02*
D03*
X128988D02*
D03*
Y126012D02*
D03*
X165012D02*
D03*
D36*
X159598Y88610D02*
D03*
X156449D02*
D03*
X153299D02*
D03*
X150150D02*
D03*
X147000D02*
D03*
X143850D02*
D03*
X140701D02*
D03*
X137551D02*
D03*
X134402D02*
D03*
Y127390D02*
D03*
X137551D02*
D03*
X140701D02*
D03*
X143850D02*
D03*
X147000D02*
D03*
X150150D02*
D03*
X153299D02*
D03*
X156449D02*
D03*
X159598D02*
D03*
D37*
X115500Y124854D02*
D03*
Y114146D02*
D03*
X73500Y108646D02*
D03*
Y119354D02*
D03*
D38*
X115500Y92594D02*
D03*
Y104405D02*
D03*
D39*
X167854Y51000D02*
D03*
X157146D02*
D03*
X167854Y63500D02*
D03*
X157146D02*
D03*
X167854Y76000D02*
D03*
X157146D02*
D03*
D40*
X52500Y21595D02*
D03*
Y8405D02*
D03*
X47500Y21595D02*
D03*
Y8405D02*
D03*
X42500Y21595D02*
D03*
Y8405D02*
D03*
X37500Y21595D02*
D03*
Y8405D02*
D03*
X32500Y21595D02*
D03*
Y8405D02*
D03*
D41*
X132350Y42500D02*
D03*
X138650D02*
D03*
X55150Y142500D02*
D03*
X48850D02*
D03*
X31350Y62000D02*
D03*
X37650D02*
D03*
X31350Y56000D02*
D03*
X37650D02*
D03*
X116650Y30000D02*
D03*
X110350D02*
D03*
X116650Y36000D02*
D03*
X110350D02*
D03*
D42*
X38260Y48618D02*
D03*
X42000D02*
D03*
X45740D02*
D03*
Y38382D02*
D03*
X42000D02*
D03*
X38260D02*
D03*
D43*
X52000Y41244D02*
D03*
Y46756D02*
D03*
X33500Y119756D02*
D03*
Y114244D02*
D03*
X52000Y83744D02*
D03*
Y89256D02*
D03*
X111000Y78244D02*
D03*
Y83756D02*
D03*
D44*
X38744Y142500D02*
D03*
X44256D02*
D03*
X93244Y34500D02*
D03*
X98756D02*
D03*
X138256Y37000D02*
D03*
X132744D02*
D03*
D45*
X39500Y114323D02*
D03*
X44500D02*
D03*
X49500D02*
D03*
X54500D02*
D03*
Y135677D02*
D03*
X49500D02*
D03*
X44500D02*
D03*
X39500D02*
D03*
D46*
X16532Y43382D02*
D03*
Y53618D02*
D03*
Y51059D02*
D03*
Y48500D02*
D03*
Y45941D02*
D03*
D47*
X15646Y61098D02*
D03*
Y35902D02*
D03*
D48*
X6000Y63264D02*
D03*
Y33736D02*
D03*
D49*
Y53028D02*
D03*
Y43972D02*
D03*
D50*
X77150Y94500D02*
D03*
X70850D02*
D03*
D51*
X111850Y47000D02*
D03*
X118150D02*
D03*
Y69000D02*
D03*
X111850D02*
D03*
D52*
X11520Y74500D02*
D03*
X20480D02*
D03*
D53*
X64150Y94500D02*
D03*
X57850D02*
D03*
D54*
X120783Y7110D02*
D03*
Y14000D02*
D03*
Y20890D02*
D03*
X106217Y7110D02*
D03*
Y14000D02*
D03*
Y20890D02*
D03*
D97*
X134500Y152000D02*
D03*
Y162000D02*
D03*
Y172000D02*
D03*
X124500Y152000D02*
D03*
Y162000D02*
D03*
Y172000D02*
D03*
X114500Y152000D02*
D03*
Y162000D02*
D03*
Y172000D02*
D03*
X104500Y152000D02*
D03*
Y162000D02*
D03*
Y172000D02*
D03*
X94500Y152000D02*
D03*
Y162000D02*
D03*
Y172000D02*
D03*
X84500Y152000D02*
D03*
Y162000D02*
D03*
Y172000D02*
D03*
X74500Y152000D02*
D03*
Y162000D02*
D03*
D98*
Y172000D02*
D03*
D107*
X166500Y31500D02*
D03*
X172500D02*
D03*
Y40500D02*
D03*
X166500D02*
D03*
D108*
X13780Y13780D02*
D03*
X163386Y163386D02*
D03*
X13780D02*
D03*
X163386Y13780D02*
D03*
M02*
