G04*
G04 #@! TF.GenerationSoftware,Altium Limited,Altium Designer,21.0.8 (223)*
G04*
G04 Layer_Color=32768*
%FSLAX25Y25*%
%MOIN*%
G70*
G04*
G04 #@! TF.SameCoordinates,4FC8230A-67FA-47FE-B716-792534C6144D*
G04*
G04*
G04 #@! TF.FilePolarity,Positive*
G04*
G01*
G75*
%ADD14C,0.00394*%
%ADD109C,0.00197*%
%ADD110C,0.00600*%
D14*
X68000Y150000D02*
Y177000D01*
X26000Y150000D02*
X68000D01*
X26000D02*
Y177000D01*
X68000D01*
X139500Y48000D02*
Y60000D01*
X145500D01*
Y48000D02*
Y60000D01*
X139500Y48000D02*
X145500D01*
X133500D02*
Y60000D01*
X139500D01*
Y48000D02*
Y60000D01*
X133500Y48000D02*
X139500D01*
X127493Y48063D02*
Y60063D01*
X133493D01*
Y48063D02*
Y60063D01*
X127493Y48063D02*
X133493D01*
X0Y27500D02*
Y69500D01*
Y27500D02*
X27000D01*
Y69500D01*
X0D02*
X27000D01*
X58000Y0D02*
X100000D01*
X58000D02*
Y27000D01*
X100000D01*
Y0D02*
Y27000D01*
X58000Y0D02*
Y27000D01*
X100000D01*
Y0D02*
Y27000D01*
X58000Y0D02*
X100000D01*
X0Y80000D02*
Y141000D01*
Y80000D02*
X29000D01*
Y141000D01*
X0D02*
X29000D01*
X0Y80000D02*
X29000D01*
Y141000D01*
X0D02*
X29000D01*
X0Y80000D02*
Y141000D01*
X127000Y500D02*
Y34500D01*
X151000D01*
Y500D02*
Y34500D01*
X127000Y500D02*
X151000D01*
X108000Y49500D02*
Y66500D01*
X122000D01*
Y49500D02*
Y66500D01*
X108000Y49500D02*
X122000D01*
X172197Y82803D02*
Y134181D01*
X121803D02*
X172197D01*
X121803Y82803D02*
Y134181D01*
Y82803D02*
X172197D01*
X23500Y26000D02*
Y71000D01*
X0Y26000D02*
X23500D01*
X0D02*
Y71000D01*
X23500D01*
X100500Y27000D02*
X126500D01*
X100500Y1000D02*
Y27000D01*
Y1000D02*
X126500D01*
Y27000D01*
D109*
X139547Y71209D02*
X145453D01*
X139547Y59791D02*
Y71209D01*
Y59791D02*
X145453D01*
Y71209D01*
X133547D02*
X139453D01*
X133547Y59791D02*
Y71209D01*
Y59791D02*
X139453D01*
Y71209D01*
X127547D02*
X133453D01*
X127547Y59791D02*
Y71209D01*
Y59791D02*
X133453D01*
Y71209D01*
X107476Y37524D02*
Y90476D01*
X54524D02*
X107476D01*
X54524Y37524D02*
Y90476D01*
Y37524D02*
X107476D01*
X67500Y138000D02*
X75500D01*
Y146000D01*
X67500D02*
X75500D01*
X67500Y138000D02*
Y146000D01*
X141209Y142740D02*
X154791D01*
Y135260D02*
Y142740D01*
X141209Y135260D02*
X154791D01*
X141209D02*
Y142740D01*
X143791Y75260D02*
Y82740D01*
X130209D02*
X143791D01*
X130209Y75260D02*
Y82740D01*
Y75260D02*
X143791D01*
X81000Y99500D02*
X109000D01*
Y133500D01*
X81000D02*
X109000D01*
X81000Y99500D02*
Y133500D01*
X109358Y110996D02*
X121642D01*
Y128004D01*
X109358D02*
X121642D01*
X109358Y110996D02*
Y128004D01*
X67358Y122504D02*
X79642D01*
X67358Y105496D02*
Y122504D01*
Y105496D02*
X79642D01*
Y122504D01*
X108610Y108835D02*
X122390D01*
X108610Y88165D02*
Y108835D01*
Y88165D02*
X122390D01*
Y108835D01*
X153996Y44858D02*
Y57142D01*
Y44858D02*
X171004D01*
Y57142D01*
X153996D02*
X171004D01*
X153996Y57358D02*
Y69642D01*
Y57358D02*
X171004D01*
Y69642D01*
X153996D02*
X171004D01*
X153996Y69858D02*
Y82142D01*
Y69858D02*
X171004D01*
Y82142D01*
X153996D02*
X171004D01*
X27500Y1811D02*
Y28189D01*
Y1811D02*
X57500D01*
Y28189D01*
X27500D02*
X57500D01*
X141209Y39547D02*
Y45453D01*
X129791D02*
X141209D01*
X129791Y39547D02*
Y45453D01*
Y39547D02*
X141209D01*
X35012Y35134D02*
X48988D01*
Y51866D01*
X35012D02*
X48988D01*
X35012Y35134D02*
Y51866D01*
X49480Y39118D02*
Y48882D01*
X54520D01*
Y39118D02*
Y48882D01*
X49480Y39118D02*
X54520D01*
X46291Y139547D02*
X57709D01*
X46291D02*
Y145453D01*
X57709D01*
Y139547D02*
Y145453D01*
X30980Y112118D02*
X36020D01*
Y121882D01*
X30980D02*
X36020D01*
X30980Y112118D02*
Y121882D01*
X46382Y139980D02*
Y145020D01*
X36618D02*
X46382D01*
X36618Y139980D02*
Y145020D01*
Y139980D02*
X46382D01*
X36173Y110335D02*
Y139665D01*
X57827D01*
Y110335D02*
Y139665D01*
X36173Y110335D02*
X57827D01*
X28791Y64953D02*
X40209D01*
Y59047D02*
Y64953D01*
X28791Y59047D02*
X40209D01*
X28791D02*
Y64953D01*
Y58953D02*
X40209D01*
Y53047D02*
Y58953D01*
X28791Y53047D02*
X40209D01*
X28791D02*
Y58953D01*
X68252Y90996D02*
Y98004D01*
Y90996D02*
X79748D01*
Y98004D01*
X68252D02*
X79748D01*
X49480Y91382D02*
X54520D01*
X49480Y81618D02*
Y91382D01*
Y81618D02*
X54520D01*
Y91382D01*
X108480Y85882D02*
X113520D01*
X108480Y76118D02*
Y85882D01*
Y76118D02*
X113520D01*
Y85882D01*
X100882Y31980D02*
Y37020D01*
X91118D02*
X100882D01*
X91118Y31980D02*
Y37020D01*
Y31980D02*
X100882D01*
X130618Y34480D02*
Y39520D01*
Y34480D02*
X140382D01*
Y39520D01*
X130618D02*
X140382D01*
X110197Y49441D02*
X119803D01*
Y44559D02*
Y49441D01*
X110197Y44559D02*
X119803D01*
X110197D02*
Y49441D01*
Y66559D02*
X119803D01*
X110197D02*
Y71441D01*
X119803D01*
Y66559D02*
Y71441D01*
X8500Y78000D02*
X23500D01*
Y71000D02*
Y78000D01*
X8500Y71000D02*
X23500D01*
X8500D02*
Y78000D01*
X55094Y91547D02*
Y97453D01*
Y91547D02*
X66905D01*
Y97453D01*
X55094D02*
X66905D01*
X107791Y27047D02*
X119209Y27047D01*
X107791Y27047D02*
X107791Y32953D01*
X119209Y32953D01*
X119209Y27047D02*
X119209Y32953D01*
X107791Y33047D02*
X119209D01*
X107791D02*
Y38953D01*
X119209D01*
Y33047D02*
Y38953D01*
D110*
X68500Y203000D02*
X140500D01*
Y146000D02*
Y203000D01*
X68500Y146000D02*
X140500D01*
X68500D02*
Y203000D01*
M02*
